<svg version="1.1" xmlns="http://www.w3.org/2000/svg" xmlns:xlink="http://www.w3.org/1999/xlink" x="0px" y="0px" width="14px" height="14px" viewBox="0 0 58.5 58.5" enable-background="new 0 0 58.5 58.5" xml:space="preserve">
    <g>
        <path fill="#b59663" d="M29.2,0c4.066,0,7.866,0.767,11.4,2.3c3.533,1.534,6.633,3.617,9.3,6.25c2.666,2.634,4.766,5.734,6.3,9.3c1.533,3.567,2.3,7.35,2.3,11.35c0,4.067-0.768,7.884-2.3,11.45c-1.534,3.567-3.634,6.667-6.3,9.3c-2.667,2.634-5.767,4.717-9.3,6.25c-3.534,1.535-7.334,2.3-11.4,2.3c-4.067,0-7.867-0.766-11.4-2.3c-3.534-1.533-6.617-3.616-9.25-6.25c-2.634-2.633-4.717-5.733-6.25-9.3C0.766,37.084,0,33.267,0,29.2c0-4,0.766-7.783,2.3-11.35c1.533-3.565,3.616-6.666,6.25-9.3c2.633-2.633,5.716-4.716,9.25-6.25C21.333,0.767,25.133,0,29.2,0z M31.7,30.1c-0.334-0.533-0.617-1.115-0.85-1.75c-0.234-0.633-0.45-1.215-0.65-1.75c-3.6,1.334-7.217,2.334-10.85,3c-3.634,0.667-7.317,1-11.05,1c-0.534,0-1.084-0.033-1.65-0.1c-0.567-0.066-1.15-0.1-1.75-0.1c0.065,2.934,0.666,5.7,1.8,8.3c1.133,2.6,2.666,4.935,4.6,7c2.466-3.733,5.433-6.916,8.9-9.55C23.666,33.517,27.5,31.5,31.7,30.1z M28.1,22.1C25.365,17.034,22,12.2,18,7.6c-3.4,1.8-6.25,4.268-8.55,7.4C7.15,18.134,5.666,21.667,5,25.6h3.3c3.333,0,6.65-0.283,9.95-0.85C21.55,24.184,24.833,23.3,28.1,22.1z M14.9,49.1c4.533,3,9.3,4.5,14.3,4.5c1.333,0,2.633-0.083,3.9-0.25c1.266-0.166,2.533-0.482,3.8-0.95c-0.267-3.066-0.7-6.083-1.3-9.05c-0.6-2.965-1.367-5.85-2.3-8.65c-3.8,1.334-7.25,3.217-10.35,5.65C19.85,42.784,17.166,45.7,14.9,49.1z M46.1,11.7c-2.267-2.133-4.85-3.8-7.75-5c-2.9-1.2-5.95-1.8-9.15-1.8c-2.134,0-4.234,0.3-6.3,0.9c3.8,4.734,7.033,9.567,9.7,14.5C37.333,18.234,41.833,15.367,46.1,11.7zM36.4,28.8c1.333-0.266,2.666-0.483,4-0.65c1.333-0.166,2.633-0.25,3.9-0.25c1.533,0,3.065,0.117,4.6,0.35c1.533,0.234,3.1,0.55,4.7,0.95c0-2.465-0.384-4.85-1.15-7.15c-0.767-2.3-1.817-4.483-3.15-6.55c-4.6,3.867-9.467,6.967-14.6,9.3c0.333,0.667,0.616,1.334,0.85,2C35.783,27.467,36.065,28.134,36.4,28.8z M38,33.5c0.933,2.734,1.683,5.484,2.25,8.25c0.565,2.767,1.016,5.584,1.35,8.45c3-1.733,5.483-4,7.45-6.8c1.966-2.8,3.315-5.933,4.05-9.4c-1.534-0.333-3.017-0.6-4.45-0.8c-1.435-0.2-2.884-0.3-4.35-0.3C42.166,32.9,40.065,33.1,38,33.5z"/>
    </g>
</svg>