<svg version="1.1" xmlns="http://www.w3.org/2000/svg" xmlns:xlink="http://www.w3.org/1999/xlink" x="0px" y="0px" width="12px" height="14px" viewBox="0 0 50.9 56.7" enable-background="new 0 0 50.9 56.7" xml:space="preserve">
    <g>
        <path fill="#b59663" d="M6.8,0c1.933,0,3.565,0.685,4.9,2.05c1.333,1.367,2,3.017,2,4.95c0,1.935-0.667,3.567-2,4.9c-1.334,1.334-2.967,2-4.9,2c-1.935,0-3.55-0.666-4.85-2C0.65,10.567,0,8.935,0,7c0-1.933,0.65-3.583,1.95-4.95C3.25,0.685,4.865,0,6.8,0z M1.2,56.7V18h11.2v38.7H1.2z M29,18v1.8c2.133-1.066,4.533-1.533,7.2-1.4c2.666,0.134,5.066,0.734,7.2,1.8c2.266,1.267,4.083,3.1,5.45,5.5c1.366,2.4,2.05,4.867,2.05,7.4v23.6h-11V33.1c0-0.533-0.2-1.166-0.6-1.9c-0.4-0.733-0.834-1.166-1.3-1.3c-1.135-0.6-2.234-0.833-3.3-0.7c-1.067,0.134-2.034,0.4-2.9,0.8c-1,0.467-1.935,1.1-2.8,1.9v24.8H17.8V18H29z"/>
    </g>
</svg> 