<svg version="1.1" xmlns="http://www.w3.org/2000/svg" xmlns:xlink="http://www.w3.org/1999/xlink" x="0px" y="0px" width="16px" height="13px" viewBox="0 0 58.7 47.8" enable-background="new 0 0 58.7 47.8" xml:space="preserve">
    <g>
        <path fill="#b59663" d="M58.7,5.7c-1.6,2.334-3.6,4.434-6,6.3v1.4c0,4-0.75,8.05-2.25,12.15c-1.5,4.1-3.7,7.8-6.6,11.1c-2.9,3.3-6.467,5.984-10.7,8.05c-4.234,2.067-9.117,3.1-14.65,3.1c-3.4,0-6.65-0.482-9.75-1.45C5.65,45.384,2.733,44.034,0,42.3c0.465,0.067,0.933,0.1,1.4,0.1c0.466,0,0.966,0,1.5,0c5.733,0,10.7-1.7,14.9-5.1c-2.667-0.065-5.017-0.883-7.05-2.45C8.715,33.284,7.333,31.3,6.6,28.9c0.8,0.2,1.533,0.3,2.2,0.3c0.6,0,1.15-0.033,1.65-0.1c0.5-0.066,1.016-0.166,1.55-0.3c-2.8-0.6-5.117-1.982-6.95-4.15C3.215,22.484,2.3,19.935,2.3,17v-0.1c0.8,0.4,1.65,0.734,2.55,1c0.9,0.267,1.916,0.4,3.05,0.4c-1.734-1.065-3.067-2.465-4-4.2c-0.935-1.733-1.4-3.666-1.4-5.8c0-2.133,0.533-4.166,1.6-6.1c3,3.734,6.633,6.717,10.9,8.95c4.266,2.234,8.9,3.45,13.9,3.65c-0.2-0.8-0.3-1.666-0.3-2.6c0-1.666,0.315-3.25,0.95-4.75c0.633-1.5,1.5-2.8,2.6-3.9c1.1-1.1,2.366-1.965,3.8-2.6C37.383,0.317,38.933,0,40.6,0c1.8,0,3.433,0.35,4.9,1.05c1.465,0.7,2.766,1.617,3.9,2.75c1.333-0.2,2.666-0.565,4-1.1c1.333-0.533,2.565-1.1,3.7-1.7c-1.067,2.8-2.834,5-5.3,6.6c1.266-0.133,2.466-0.366,3.6-0.7C56.533,6.567,57.633,6.167,58.7,5.7z"/>
    </g>
</svg>