<?xml version="1.0" encoding="utf-8"?>
<!-- Generator: Adobe Illustrator 17.0.0, SVG Export Plug-In . SVG Version: 6.00 Build 0)  -->
<!DOCTYPE svg PUBLIC "-//W3C//DTD SVG 1.1//EN" "http://www.w3.org/Graphics/SVG/1.1/DTD/svg11.dtd">
<svg version="1.1" id="Your_Icon" xmlns="http://www.w3.org/2000/svg" xmlns:xlink="http://www.w3.org/1999/xlink" x="0px" y="0px"
	 width="93.108px" height="50.726px" viewBox="-209.753 -67.473 93.108 50.726"
	 enable-background="new -209.753 -67.473 93.108 50.726" xml:space="preserve">
<g opacity="0.05">
	<path d="M-126.317-36.091c-0.019,0-0.036,0.005-0.055,0.005c0.01-0.187,0.055-0.363,0.055-0.55c0-5.915-4.796-10.708-10.708-10.708
		c-2.843,0-5.409,1.127-7.326,2.932c0.003-0.101,0.015-0.196,0.015-0.296c0-9.811-7.951-17.765-17.764-17.765
		c-9.812,0-17.765,7.954-17.765,17.765c0,0.42,0.036,0.83,0.064,1.241c-1.805-0.846-3.808-1.327-5.927-1.327
		c-7.746,0-14.026,6.277-14.026,14.026c0,7.743,6.28,14.021,14.026,14.021h59.41c5.34,0,9.673-4.33,9.673-9.673
		C-116.644-31.761-120.977-36.091-126.317-36.091z"/>
</g>
<g>
	<path fill="#FFFFFF" d="M-136.316-41.091c-0.019,0-0.036,0.005-0.055,0.005c0.01-0.187,0.055-0.363,0.055-0.55
		c0-5.915-4.796-10.708-10.708-10.708c-2.843,0-5.409,1.127-7.326,2.932c0.003-0.101,0.015-0.196,0.015-0.296
		c0-9.811-7.951-17.765-17.764-17.765c-9.812,0-17.765,7.954-17.765,17.765c0,0.42,0.036,0.83,0.064,1.241
		c-1.805-0.846-3.808-1.327-5.927-1.327c-7.746,0-14.026,6.277-14.026,14.026c0,7.743,6.28,14.021,14.026,14.021h59.41
		c5.34,0,9.673-4.33,9.673-9.673C-126.644-36.761-130.977-41.091-136.316-41.091z"/>
</g>
</svg>
