<?xml version="1.0" encoding="utf-8"?>
<!-- Generator: Adobe Illustrator 17.0.0, SVG Export Plug-In . SVG Version: 6.00 Build 0)  -->
<!DOCTYPE svg PUBLIC "-//W3C//DTD SVG 1.1//EN" "http://www.w3.org/Graphics/SVG/1.1/DTD/svg11.dtd">
<svg version="1.1" id="Your_Icon" xmlns="http://www.w3.org/2000/svg" xmlns:xlink="http://www.w3.org/1999/xlink" x="0px" y="0px"
	 width="109.034px" height="53.921px" viewBox="-3.644 23.544 109.034 53.921"
	 enable-background="new -3.644 23.544 109.034 53.921" xml:space="preserve">
<path opacity="0.05" enable-background="new    " d="M105.356,65.006c-0.438-6.034-5.521-10.761-11.576-10.761
	c-0.944,0-1.895,0.125-2.901,0.383l-1.78,0.455l-0.604-1.735c-2.538-7.294-9.423-12.195-17.133-12.195
	c-1.491,0-3.032,0.205-4.583,0.61l-1.767,0.461l-0.621-1.718c-0.023-0.068-0.047-0.139-0.067-0.209
	c-0.108-0.341-0.209-0.632-0.313-0.921c-0.259-0.698-0.562-1.383-0.896-2.02c-3.141-6.055-9.316-9.812-16.121-9.812
	c-10.013,0-18.158,8.145-18.158,18.157c0,0.737,0.062,1.525,0.193,2.481l0.406,2.947l-2.883-0.736
	c-1.19-0.304-2.313-0.452-3.434-0.452c-7.588,0-13.762,6.174-13.762,13.763c0,7.568,6.142,13.729,13.704,13.761l0.057-0.003
	l0.217,0.001l26.606,0.001h6.151l37.276,0.001l0.201-0.011l0.252,0.011c5.592-0.021,10.375-4.015,11.38-9.514
	c0.126-0.693,0.19-1.398,0.19-2.093C105.39,65.562,105.378,65.281,105.356,65.006z"/>
<path fill="#FFFFFF" d="M92.356,61.006c-0.438-6.034-5.521-10.761-11.576-10.761c-0.944,0-1.895,0.125-2.901,0.383l-1.78,0.455
	l-0.604-1.735c-2.538-7.294-9.423-12.195-17.133-12.195c-1.491,0-3.032,0.205-4.583,0.61l-1.767,0.461l-0.621-1.718
	c-0.023-0.068-0.047-0.139-0.067-0.209c-0.108-0.341-0.209-0.632-0.313-0.921c-0.259-0.698-0.562-1.383-0.896-2.02
	c-3.141-6.055-9.316-9.812-16.121-9.812c-10.013,0-18.158,8.145-18.158,18.157c0,0.737,0.062,1.525,0.193,2.481l0.406,2.947
	l-2.883-0.736c-1.19-0.304-2.313-0.452-3.434-0.452c-7.588,0-13.762,6.174-13.762,13.763c0,7.568,6.142,13.729,13.704,13.761
	l0.057-0.003l0.217,0.001l26.606,0.001h6.151l37.276,0.001l0.201-0.011l0.252,0.011c5.592-0.021,10.375-4.015,11.38-9.514
	c0.126-0.693,0.19-1.398,0.19-2.093C92.39,61.562,92.378,61.281,92.356,61.006z"/>
</svg>
