<?xml version="1.0" encoding="utf-8"?>
<!-- Generator: Adobe Illustrator 17.0.0, SVG Export Plug-In . SVG Version: 6.00 Build 0)  -->
<!DOCTYPE svg PUBLIC "-//W3C//DTD SVG 1.1//EN" "http://www.w3.org/Graphics/SVG/1.1/DTD/svg11.dtd">
<svg version="1.1" id="Your_Icon" xmlns="http://www.w3.org/2000/svg" xmlns:xlink="http://www.w3.org/1999/xlink" x="0px" y="0px"
	 width="109.566px" height="59.44px" viewBox="-118.587 135.071 109.566 59.44"
	 enable-background="new -118.587 135.071 109.566 59.44" xml:space="preserve">
<g opacity="0.05">
	<path d="M-9.021,176.031c0,10.211-8.276,18.48-18.48,18.48c-0.748,0-7.726,0-16.962,0c-5.619,0-12.043,0-18.464,0
		c-16.214,0-32.222,0-33.879,0c-5.954,0-10.781-2.259-10.781-8.216c0-5.95,4.827-10.78,10.781-10.78c1.087,0,2.117,0.212,3.107,0.51
		c-0.003-0.086-0.026-0.166-0.026-0.251c0-6.944,5.629-12.576,12.573-12.576c0.295,0,0.57,0.066,0.862,0.086
		c-0.01-0.292-0.086-0.563-0.086-0.854c-0.001-12.903,10.455-23.359,23.356-23.359c11.655,0,21.236,8.567,22.992,19.726
		c2.034-0.769,4.221-1.246,6.526-1.246C-17.297,157.551-9.021,165.82-9.021,176.031z"/>
</g>
<g>
	<path fill="#FFFFFF" d="M-20.021,172.031c0,10.211-8.276,18.48-18.48,18.48c-0.748,0-7.726,0-16.962,0c-5.619,0-12.043,0-18.464,0
		c-16.214,0-32.222,0-33.879,0c-5.954,0-10.781-2.259-10.781-8.216c0-5.95,4.827-10.78,10.781-10.78c1.087,0,2.117,0.212,3.107,0.51
		c-0.003-0.086-0.026-0.166-0.026-0.251c0-6.944,5.629-12.576,12.573-12.576c0.295,0,0.57,0.066,0.862,0.086
		c-0.01-0.292-0.086-0.563-0.086-0.854c-0.001-12.903,10.455-23.359,23.356-23.359c11.655,0,21.236,8.567,22.992,19.726
		c2.034-0.769,4.221-1.246,6.526-1.246C-28.297,153.551-20.021,161.82-20.021,172.031z"/>
</g>
</svg>
