<?xml version="1.0" encoding="utf-8"?>
<!-- Generator: Adobe Illustrator 17.0.0, SVG Export Plug-In . SVG Version: 6.00 Build 0)  -->
<!DOCTYPE svg PUBLIC "-//W3C//DTD SVG 1.1//EN" "http://www.w3.org/Graphics/SVG/1.1/DTD/svg11.dtd">
<svg version="1.1" id="Your_Icon" xmlns="http://www.w3.org/2000/svg" xmlns:xlink="http://www.w3.org/1999/xlink" x="0px" y="0px"
	 width="107.933px" height="57.673px" viewBox="-46.42 65.615 107.933 57.673"
	 enable-background="new -46.42 65.615 107.933 57.673" xml:space="preserve">
<g opacity="0.05">
	<path d="M47.905,96.072c-1.428,0-2.802,0.222-4.094,0.63c-0.016-7.627-6.2-13.804-13.828-13.804c-2.593,0-5.01,0.726-7.083,1.967
		c-3.38-8.354-11.564-14.25-21.13-14.25c-11.797,0-21.499,8.962-22.671,20.449c-6.162,2.46-10.519,8.478-10.519,15.518
		c0,8.959,7.053,16.27,15.908,16.686c0.067,0.005,0.132,0.02,0.201,0.02h62.929c0.033,0,0.063-0.008,0.096-0.01
		c0.064,0.001,0.127,0.01,0.191,0.01c7.516,0,13.608-6.092,13.608-13.608C61.514,102.164,55.421,96.072,47.905,96.072z"/>
</g>
<g>
	<path fill="#FFFFFF" d="M32.905,91.072c-1.428,0-2.802,0.222-4.094,0.63c-0.016-7.627-6.2-13.804-13.828-13.804
		c-2.593,0-5.01,0.726-7.083,1.967c-3.38-8.354-11.564-14.25-21.13-14.25c-11.797,0-21.499,8.962-22.671,20.449
		c-6.162,2.46-10.519,8.478-10.519,15.518c0,8.959,7.053,16.27,15.908,16.686c0.067,0.005,0.132,0.02,0.201,0.02h62.929
		c0.033,0,0.063-0.008,0.096-0.01c0.064,0.001,0.127,0.01,0.191,0.01c7.516,0,13.608-6.092,13.608-13.608
		C46.514,97.164,40.421,91.072,32.905,91.072z"/>
</g>
</svg>
