<?xml version="1.0" encoding="utf-8"?>
<!-- Generator: Adobe Illustrator 17.0.0, SVG Export Plug-In . SVG Version: 6.00 Build 0)  -->
<!DOCTYPE svg PUBLIC "-//W3C//DTD SVG 1.1//EN" "http://www.w3.org/Graphics/SVG/1.1/DTD/svg11.dtd">
<svg version="1.1" id="Your_Icon" xmlns="http://www.w3.org/2000/svg" xmlns:xlink="http://www.w3.org/1999/xlink" x="0px" y="0px"
	 width="115.46px" height="62.133px" viewBox="-15.564 15.129 115.46 62.133" enable-background="new -15.564 15.129 115.46 62.133"
	 xml:space="preserve">
<path opacity="0.05" enable-background="new    " d="M0.459,59.184c-0.693-15.077,14.074-24.961,25.259-20.155
	C24.826,27.38,32.815,20.12,43.807,18.386c9.496-1.499,17.488,3.687,21.674,12.396c9.281-11.316,30.533,0.967,21.792,15.494
	c15.661,0.095,20.175,30.293-6.603,30.986H19.329c-10.422,0-18.87-9.272-18.87-17.559"/>
<path fill="#FFFFFF" d="M-15.541,56.184C-16.234,41.107-1.467,31.223,9.718,36.029C8.826,24.38,16.815,17.12,27.807,15.386
	c9.496-1.499,17.488,3.687,21.674,12.396c9.281-11.316,30.533,0.967,21.792,15.494c15.661,0.095,20.175,30.293-6.603,30.986H3.329
	c-10.422,0-18.87-9.272-18.87-17.559"/>
</svg>
