<?xml version="1.0" encoding="utf-8"?>
<!-- Generator: Adobe Illustrator 17.0.0, SVG Export Plug-In . SVG Version: 6.00 Build 0)  -->
<!DOCTYPE svg PUBLIC "-//W3C//DTD SVG 1.1//EN" "http://www.w3.org/Graphics/SVG/1.1/DTD/svg11.dtd">
<svg version="1.1" id="Calque_1" xmlns="http://www.w3.org/2000/svg" xmlns:xlink="http://www.w3.org/1999/xlink" x="0px" y="0px"
	 width="777.816px" height="463.393px" viewBox="0.092 -0.16 777.816 463.393" enable-background="new 0.092 -0.16 777.816 463.393"
	 xml:space="preserve">
<ellipse opacity="0.15" cx="160.103" cy="450.644" rx="150.645" ry="12.588"/>
<ellipse opacity="0.15" cx="617.075" cy="450.644" rx="150.645" ry="12.588"/>
<path fill="#2C2C2C" d="M334.372,365.646c0,2.588-2.098,4.685-4.685,4.685h-29.575c-2.588,0-4.685-2.098-4.685-4.685l0,0
	c0-2.588,2.098-4.685,4.685-4.685h29.575C332.274,360.961,334.372,363.058,334.372,365.646L334.372,365.646z"/>
<circle fill="#FFFFFF" cx="314.899" cy="365.646" r="1.901"/>
<g id="mDCMJc.tif" display="none">
	
		<image display="inline" overflow="visible" enable-background="new    " width="779" height="447" id="Layer_0_1_" xlink:href="D795060C18D3335A.png"  transform="matrix(0.9985 0 0 0.9985 0.092 -0.1603)">
	</image>
</g>
<g>
	
		<rect x="662.726" y="171.568" transform="matrix(-0.866 -0.5 0.5 -0.866 1115.4956 785.4149)" fill="#464646" width="0.5" height="143.375"/>
	
		<rect x="645.939" y="161.876" transform="matrix(-0.866 -0.5 0.5 -0.866 1089.016 758.9344)" fill="#464646" width="0.5" height="143.375"/>
	
		<rect x="684.17" y="200.139" transform="matrix(-0.5 -0.866 0.866 -0.5 791.23 1000.463)" fill="#464646" width="0.5" height="143.375"/>
	
		<rect x="674.476" y="183.352" transform="matrix(-0.5 -0.866 0.866 -0.5 791.2283 966.8874)" fill="#464646" width="0.5" height="143.375"/>
	<rect x="617.889" y="310.257" fill="#464646" width="143.378" height="0.5"/>
	<rect x="617.889" y="290.871" fill="#464646" width="143.378" height="0.5"/>
	
		<rect x="675.292" y="271.829" transform="matrix(0.5 -0.866 0.866 0.5 40.2719 756.7869)" fill="#464646" width="0.5" height="143.375"/>
	
		<rect x="684.985" y="255.041" transform="matrix(0.5 -0.866 0.866 0.5 59.6572 756.787)" fill="#464646" width="0.5" height="143.375"/>
	
		<rect x="645.81" y="294.845" transform="matrix(0.866 -0.5 0.5 0.866 -96.7106 372.1458)" fill="#464646" width="0.5" height="143.375"/>
	
		<rect x="662.6" y="285.152" transform="matrix(0.866 -0.5 0.5 0.866 -89.6146 379.2419)" fill="#464646" width="0.5" height="143.375"/>
	<rect x="608.76" y="300" fill="#464646" width="0.5" height="143.378"/>
	<rect x="628.146" y="300" fill="#464646" width="0.5" height="143.378"/>
	
		<rect x="574.12" y="285.967" transform="matrix(0.866 0.5 -0.5 0.866 255.7857 -239.2722)" fill="#464646" width="0.5" height="143.375"/>
	
		<rect x="590.909" y="295.66" transform="matrix(0.866 0.5 -0.5 0.866 262.8818 -246.3683)" fill="#464646" width="0.5" height="143.375"/>
	
		<rect x="551.106" y="256.482" transform="matrix(0.5 0.866 -0.866 0.5 559.8728 -313.4038)" fill="#464646" width="0.5" height="143.375"/>
	
		<rect x="560.799" y="273.271" transform="matrix(0.5 0.866 -0.866 0.5 579.259 -313.404)" fill="#464646" width="0.5" height="143.375"/>
	<rect x="474.51" y="290.871" fill="#464646" width="143.378" height="0.5"/>
	<rect x="474.51" y="310.257" fill="#464646" width="143.378" height="0.5"/>
	
		<rect x="559.986" y="184.793" transform="matrix(-0.5 0.866 -0.866 -0.5 1062.478 -100.4516)" fill="#464646" width="0.5" height="143.375"/>
	
		<rect x="550.294" y="201.581" transform="matrix(-0.5 0.866 -0.866 -0.5 1062.478 -66.8759)" fill="#464646" width="0.5" height="143.375"/>
	
		<rect x="589.468" y="161.783" transform="matrix(-0.866 0.5 -0.5 -0.866 1217.1626 140.7945)" fill="#464646" width="0.5" height="143.375"/>
	
		<rect x="572.68" y="171.475" transform="matrix(-0.866 0.5 -0.5 -0.866 1190.6832 167.2746)" fill="#464646" width="0.5" height="143.375"/>
	<rect x="626.517" y="156.622" fill="#464646" width="0.5" height="143.378"/>
	<rect x="607.132" y="156.622" fill="#464646" width="0.5" height="143.378"/>
	<g>
		<path fill="#FFFFFF" d="M618.029,174.356c21.9,0,43.57,5.828,62.669,16.855c29.059,16.777,49.845,43.866,58.529,76.277
			s4.228,66.264-12.549,95.322c-11.235,19.459-27.444,35.545-46.875,46.521c-18.896,10.673-40.355,16.314-62.055,16.314
			c-21.9,0-43.57-5.828-62.669-16.855c-29.059-16.777-49.845-43.866-58.529-76.277s-4.228-66.264,12.549-95.322
			c11.235-19.459,27.444-35.545,46.875-46.521C574.871,179.997,596.329,174.356,618.029,174.356 M618.029,149.356
			c-52.057,0-102.682,27.012-130.581,75.335c-41.592,72.04-16.91,164.157,55.13,205.75c23.717,13.693,49.619,20.204,75.169,20.204
			c52.057,0,102.682-27.012,130.581-75.335c41.592-72.04,16.91-164.157-55.131-205.75
			C669.481,155.867,643.58,149.356,618.029,149.356L618.029,149.356z"/>
	</g>
	<g>
		<g>
			<path fill="#464646" d="M618.029,162.356c24.003,0,47.749,6.384,68.669,18.463c31.835,18.38,54.606,48.056,64.12,83.563
				s4.632,72.593-13.748,104.428c-12.306,21.315-30.068,38.94-51.366,50.969c-20.693,11.688-44.192,17.866-67.956,17.866
				c-24.003,0-47.749-6.384-68.669-18.463c-31.835-18.38-54.606-48.056-64.12-83.563s-4.632-72.594,13.748-104.428
				c12.306-21.315,30.068-38.94,51.366-50.969C570.766,168.533,594.265,162.356,618.029,162.356 M618.029,149.356
				c-52.057,0-102.682,27.012-130.581,75.335c-41.592,72.04-16.91,164.157,55.13,205.75c23.717,13.693,49.619,20.204,75.169,20.204
				c52.057,0,102.682-27.012,130.581-75.335c41.592-72.04,16.91-164.157-55.131-205.75
				C669.481,155.867,643.579,149.356,618.029,149.356L618.029,149.356z"/>
		</g>
	</g>
	<g>
		<path fill="#212121" d="M618.029,157.356c24.88,0,49.49,6.616,71.169,19.132c32.991,19.048,56.59,49.802,66.45,86.599
			s4.8,75.231-14.248,108.222c-12.753,22.089-31.162,40.354-53.237,52.823c-21.442,12.111-45.791,18.512-70.415,18.512
			c-24.88,0-49.49-6.616-71.169-19.132c-32.991-19.048-56.59-49.802-66.45-86.599c-9.86-36.797-4.8-75.231,14.248-108.222
			c12.753-22.089,31.162-40.354,53.237-52.823C569.056,163.757,593.405,157.356,618.029,157.356 M618.029,149.356
			c-52.057,0-102.682,27.012-130.581,75.335c-41.592,72.04-16.91,164.157,55.13,205.75c23.717,13.693,49.619,20.204,75.169,20.204
			c52.057,0,102.682-27.012,130.581-75.335c41.592-72.04,16.91-164.157-55.13-205.75
			C669.481,155.867,643.579,149.356,618.029,149.356L618.029,149.356z"/>
	</g>
	<g>
		<path fill="#2C2C2C" d="M628.484,293.413c-0.454-0.787-2.538,0.63-3.65-0.614c-1.112-1.245,0.39-3.191-0.337-3.686
			c-0.739-0.503-1.963,1.647-3.554,1.035c-1.59-0.612-1.024-3.042-1.904-3.175c-0.875-0.132-0.82,2.255-2.757,2.47
			s-2.233-2.3-3.093-2.034c-0.833,0.258,0.199,2.475-1.407,3.425c-1.606,0.95-3.03-1.086-3.669-0.494
			c-0.661,0.612,1.36,2.089,0.215,3.696c-1.145,1.606-3.195,0.328-3.517,1.152c-0.324,0.828,2.024,1.579,1.798,3.236
			c-0.226,1.657-2.74,1.669-2.674,2.56c0.065,0.877,2.498,0.455,3.023,2.135s-1.747,2.681-1.293,3.468s2.578-0.566,3.65,0.615
			c1.072,1.18-0.39,3.191,0.337,3.686c0.739,0.503,2.123-1.564,3.554-1.035s1.024,3.042,1.904,3.175
			c0.875,0.133,0.917-2.356,2.756-2.47s2.233,2.3,3.093,2.034c0.833-0.258-0.152-2.547,1.407-3.425s3.03,1.086,3.67,0.494
			c0.661-0.612-1.302-2.257-0.215-3.696c1.087-1.439,3.195-0.328,3.517-1.152c0.324-0.828-2.093-1.475-1.798-3.236
			c0.295-1.761,2.74-1.669,2.674-2.56c-0.065-0.877-2.512-0.14-3.023-2.135C626.679,294.887,628.938,294.2,628.484,293.413z
			 M620.471,305.884c-3.199,1.847-7.289,0.751-9.136-2.448s-0.751-7.289,2.448-9.136s7.289-0.751,9.136,2.448
			C624.765,299.947,623.67,304.037,620.471,305.884z"/>
	</g>
</g>
<g>
	
		<rect x="205.766" y="171.568" transform="matrix(-0.866 -0.5 0.5 -0.866 262.7987 556.9296)" fill="#464646" width="0.5" height="143.375"/>
	
		<rect x="188.978" y="161.876" transform="matrix(-0.866 -0.5 0.5 -0.866 236.3193 530.4493)" fill="#464646" width="0.5" height="143.375"/>
	
		<rect x="227.198" y="200.151" transform="matrix(-0.5 -0.866 0.866 -0.5 105.757 604.7356)" fill="#464646" width="0.5" height="143.375"/>
	
		<rect x="217.504" y="183.363" transform="matrix(-0.5 -0.866 0.866 -0.5 105.7553 571.1583)" fill="#464646" width="0.5" height="143.375"/>
	<rect x="160.917" y="310.257" fill="#464646" width="143.378" height="0.5"/>
	<rect x="160.917" y="290.871" fill="#464646" width="143.378" height="0.5"/>
	
		<rect x="218.32" y="271.841" transform="matrix(0.5 -0.866 0.866 0.5 -188.219 361.0462)" fill="#464646" width="0.5" height="143.375"/>
	
		<rect x="228.013" y="255.052" transform="matrix(0.5 -0.866 0.866 0.5 -168.8339 361.0464)" fill="#464646" width="0.5" height="143.375"/>
	
		<rect x="188.827" y="294.845" transform="matrix(0.866 -0.5 0.5 0.866 -157.9377 143.649)" fill="#464646" width="0.5" height="143.375"/>
	
		<rect x="205.615" y="285.153" transform="matrix(0.866 -0.5 0.5 0.866 -150.842 150.7448)" fill="#464646" width="0.5" height="143.375"/>
	<rect x="151.788" y="300" fill="#464646" width="0.5" height="143.378"/>
	<rect x="171.174" y="300" fill="#464646" width="0.5" height="143.378"/>
	
		<rect x="117.136" y="285.967" transform="matrix(0.866 0.5 -0.5 0.866 194.5587 -10.7754)" fill="#464646" width="0.5" height="143.375"/>
	
		<rect x="133.925" y="295.66" transform="matrix(0.866 0.5 -0.5 0.866 201.6547 -17.8715)" fill="#464646" width="0.5" height="143.375"/>
	
		<rect x="94.134" y="256.47" transform="matrix(0.5 0.866 -0.866 0.5 331.3819 82.3369)" fill="#464646" width="0.5" height="143.375"/>
	
		<rect x="103.827" y="273.259" transform="matrix(0.5 0.866 -0.866 0.5 350.7671 82.3367)" fill="#464646" width="0.5" height="143.375"/>
	<rect x="17.539" y="290.871" fill="#464646" width="143.378" height="0.5"/>
	<rect x="17.539" y="310.257" fill="#464646" width="143.378" height="0.5"/>
	
		<rect x="103.014" y="184.782" transform="matrix(-0.5 0.866 -0.866 -0.5 377.005 295.2775)" fill="#464646" width="0.5" height="143.375"/>
	
		<rect x="93.322" y="201.569" transform="matrix(-0.5 0.866 -0.866 -0.5 377.0049 328.8531)" fill="#464646" width="0.5" height="143.375"/>
	
		<rect x="132.508" y="161.783" transform="matrix(-0.866 0.5 -0.5 -0.866 364.4659 369.2796)" fill="#464646" width="0.5" height="143.375"/>
	
		<rect x="115.72" y="171.475" transform="matrix(-0.866 0.5 -0.5 -0.866 337.9865 395.7598)" fill="#464646" width="0.5" height="143.375"/>
	<rect x="169.545" y="156.622" fill="#464646" width="0.5" height="143.378"/>
	<rect x="150.16" y="156.622" fill="#464646" width="0.5" height="143.378"/>
	<g>
		<path fill="#FFFFFF" d="M161.057,174.356c21.9,0,43.57,5.828,62.669,16.855c29.059,16.777,49.845,43.866,58.529,76.277
			s4.228,66.264-12.549,95.322c-11.235,19.459-27.444,35.545-46.875,46.521c-18.896,10.673-40.355,16.314-62.055,16.314
			c-21.9,0-43.57-5.828-62.669-16.855c-29.059-16.777-49.845-43.866-58.529-76.277s-4.228-66.264,12.549-95.322
			c11.235-19.459,27.444-35.545,46.875-46.521C117.899,179.997,139.357,174.356,161.057,174.356 M161.057,149.356
			c-52.057,0-102.682,27.012-130.581,75.335c-41.592,72.04-16.91,164.157,55.13,205.75c23.717,13.693,49.619,20.204,75.169,20.204
			c52.057,0,102.682-27.012,130.581-75.335c41.592-72.04,16.91-164.157-55.131-205.75
			C212.509,155.867,186.608,149.356,161.057,149.356L161.057,149.356z"/>
	</g>
	<g>
		<g>
			<path fill="#464646" d="M161.057,162.356c24.003,0,47.749,6.384,68.669,18.463c31.835,18.38,54.606,48.056,64.12,83.563
				s4.632,72.593-13.748,104.428c-12.306,21.315-30.068,38.94-51.366,50.969c-20.693,11.688-44.192,17.866-67.956,17.866
				c-24.003,0-47.749-6.384-68.669-18.463c-31.835-18.38-54.606-48.056-64.12-83.563s-4.632-72.594,13.748-104.428
				c12.306-21.315,30.068-38.94,51.366-50.969C113.794,168.533,137.293,162.356,161.057,162.356 M161.057,149.356
				c-52.057,0-102.682,27.012-130.581,75.335c-41.592,72.04-16.91,164.157,55.13,205.75c23.717,13.693,49.619,20.204,75.169,20.204
				c52.057,0,102.682-27.012,130.581-75.335c41.592-72.04,16.91-164.157-55.131-205.75
				C212.509,155.867,186.608,149.356,161.057,149.356L161.057,149.356z"/>
		</g>
	</g>
	<g>
		<path fill="#212121" d="M161.057,157.356c24.88,0,49.49,6.616,71.169,19.132c32.991,19.048,56.59,49.802,66.45,86.599
			c9.86,36.797,4.8,75.231-14.248,108.222c-12.753,22.089-31.162,40.354-53.237,52.823c-21.442,12.111-45.791,18.512-70.415,18.512
			c-24.88,0-49.49-6.616-71.169-19.132c-32.991-19.048-56.59-49.802-66.45-86.599s-4.8-75.231,14.248-108.222
			c12.753-22.089,31.162-40.354,53.237-52.823C112.084,163.757,136.433,157.356,161.057,157.356 M161.057,149.356
			c-52.057,0-102.682,27.012-130.581,75.335c-41.592,72.04-16.91,164.157,55.13,205.75c23.717,13.693,49.619,20.204,75.169,20.204
			c52.057,0,102.682-27.012,130.581-75.335c41.592-72.04,16.91-164.157-55.13-205.75
			C212.509,155.867,186.607,149.356,161.057,149.356L161.057,149.356z"/>
	</g>
	<g>
		<path fill="#2C2C2C" d="M171.512,293.413c-0.454-0.787-2.538,0.63-3.65-0.614c-1.112-1.245,0.39-3.191-0.337-3.686
			c-0.739-0.503-1.963,1.647-3.554,1.035c-1.59-0.612-1.025-3.042-1.904-3.175c-0.875-0.132-0.82,2.255-2.757,2.47
			s-2.233-2.3-3.093-2.034c-0.833,0.258,0.199,2.475-1.407,3.425c-1.606,0.95-3.03-1.086-3.669-0.494
			c-0.661,0.612,1.36,2.089,0.215,3.696c-1.145,1.606-3.195,0.328-3.517,1.152c-0.324,0.828,2.024,1.579,1.798,3.236
			c-0.226,1.657-2.74,1.669-2.674,2.56c0.065,0.877,2.498,0.455,3.024,2.135c0.525,1.68-1.747,2.681-1.293,3.468
			s2.578-0.566,3.65,0.615c1.072,1.18-0.39,3.191,0.337,3.686c0.739,0.503,2.123-1.564,3.554-1.035s1.025,3.042,1.904,3.175
			c0.875,0.133,0.917-2.356,2.756-2.47c1.839-0.114,2.233,2.3,3.093,2.034c0.833-0.258-0.152-2.547,1.407-3.425
			s3.03,1.086,3.67,0.494c0.661-0.612-1.302-2.257-0.215-3.696c1.087-1.439,3.195-0.328,3.517-1.152
			c0.324-0.828-2.093-1.475-1.798-3.236s2.74-1.669,2.674-2.56c-0.065-0.877-2.512-0.14-3.023-2.135
			C169.707,294.887,171.966,294.2,171.512,293.413z M163.499,305.884c-3.199,1.847-7.289,0.751-9.136-2.448
			s-0.751-7.289,2.448-9.136s7.289-0.751,9.136,2.448C167.793,299.947,166.698,304.037,163.499,305.884z"/>
	</g>
</g>
<path fill="none" stroke="#2A130C" stroke-width="10" stroke-linecap="round" stroke-miterlimit="10" d="M585.458,130.292
	c0.833,0,24.708-40.784,24.708-71.292c0-29.159-52.694-26.349-62.083-29.174"/>
<path fill="none" stroke="#464646" stroke-width="9" stroke-miterlimit="10" d="M527.75,82.492l-11.628-39.671
	c0,0-6.84-12.996,11.628-12.996c18.468,0,20.333,0,20.333,0"/>
<g>
	<line fill="none" stroke="#2C2C2C" stroke-width="8" stroke-miterlimit="10" x1="258.762" y1="27.52" x2="313.5" y2="200"/>
	
		<line fill="none" stroke="#010202" stroke-width="13" stroke-linecap="round" stroke-miterlimit="10" x1="276.345" y1="82.608" x2="350.833" y2="313.333"/>
	
		<line fill="none" stroke="#010202" stroke-width="7" stroke-miterlimit="10" x1="283.922" y1="106.079" x2="163.465" y2="294.831"/>
	<line fill="none" stroke="#010202" stroke-width="13" stroke-miterlimit="10" x1="350.833" y1="313.333" x2="538.833" y2="124"/>
	<g>
		<polygon fill="#010202" points="166.972,298.685 351.08,309.842 350.587,316.825 166.736,302.026 		"/>
	</g>
	<g>
		<path fill="#010202" d="M533.652,75.068c0,0,1.137,3.531,3.125,9.711c1.943,6.194,4.719,15.043,8.051,25.662
			c1.64,5.318,3.416,11.078,5.295,17.171c0.933,3.049,1.892,6.18,2.872,9.381c0.484,1.602,0.974,3.222,1.469,4.857
			c0.483,1.671,0.97,3.358,1.461,5.06c1.943,6.659,3.952,13.54,5.992,20.532c2.05,6.988,4.15,14.083,6.31,21.147
			c2.156,7.063,4.286,14.14,6.529,21.009c1.122,3.429,2.243,6.836,3.42,10.112c0.568,1.673,1.188,3.228,1.786,4.805l0.225,0.589
			l0.224,0.57l0.495,1.221c0.324,0.779,0.647,1.556,0.969,2.329c2.657,6.258,5.526,12.276,8.218,17.99
			c2.733,5.698,5.394,11.06,7.875,15.996c2.52,4.913,4.825,9.425,6.971,13.356c2.126,3.942,4.037,7.341,5.676,10.079
			c1.63,2.744,3,4.814,3.955,6.176c0.486,0.667,0.861,1.18,1.125,1.492c0.261,0.326,0.395,0.494,0.395,0.494l-2.617,2.67
			c0,0-0.187-0.166-0.55-0.487c-0.376-0.32-0.882-0.808-1.539-1.451c-1.3-1.286-3.063-3.247-5.157-5.821
			c-4.172-5.158-9.655-12.787-15.684-22.27c-1.507-2.371-3.063-4.849-4.642-7.433c-1.561-2.594-3.153-5.289-4.769-8.076
			c-3.252-5.567-6.481-11.54-9.681-17.901c-0.397-0.81-0.796-1.624-1.197-2.44l-0.57-1.188l-0.143-0.298l-0.154-0.347l-0.278-0.635
			c-0.737-1.693-1.51-3.412-2.173-5.101c-1.403-3.401-2.707-6.823-4.019-10.28c-2.605-6.91-5.119-13.927-7.574-20.968
			c-2.444-7.042-4.822-14.094-7.146-21.043c-2.336-6.944-4.535-13.805-6.668-20.449c-0.52-1.626-1.035-3.239-1.546-4.836
			c-0.541-1.62-1.076-3.225-1.606-4.813c-1.049-3.179-2.075-6.289-3.074-9.317c-1.985-6.059-3.862-11.788-5.595-17.076
			c-3.413-10.593-6.258-19.42-8.249-25.599c-1.945-6.194-3.057-9.733-3.057-9.733L533.652,75.068z"/>
	</g>
	
		<line fill="none" stroke="#010202" stroke-width="16" stroke-miterlimit="10" x1="282.369" y1="101.268" x2="536.167" y2="101.268"/>
	<g>
		<circle fill="#010202" cx="160.167" cy="300" r="6.958"/>
	</g>
	<g>
		<path fill="#FFFFFF" d="M160.167,305.459c-3.01,0-5.458-2.449-5.458-5.459s2.449-5.458,5.458-5.458s5.458,2.448,5.458,5.458
			S163.177,305.459,160.167,305.459z"/>
		<g>
			<path fill="#010202" d="M160.167,296.042c2.183,0,3.958,1.776,3.958,3.958c0,2.183-1.776,3.958-3.958,3.958
				c-2.183,0-3.958-1.776-3.958-3.958C156.208,297.817,157.984,296.042,160.167,296.042 M160.167,293.042
				c-3.843,0-6.958,3.115-6.958,6.958c0,3.843,3.115,6.958,6.958,6.958s6.958-3.115,6.958-6.958
				C167.125,296.157,164.01,293.042,160.167,293.042L160.167,293.042z"/>
		</g>
	</g>
	<g>
		<path fill="#FFFFFF" d="M617.075,305.459c-3.01,0-5.458-2.449-5.458-5.459s2.449-5.458,5.458-5.458s5.458,2.448,5.458,5.458
			S620.084,305.459,617.075,305.459z"/>
		<path fill="#010202" d="M617.074,296.042c2.183,0,3.958,1.776,3.958,3.958c0,2.183-1.776,3.958-3.958,3.958
			c-2.183,0-3.958-1.776-3.958-3.958C613.116,297.817,614.892,296.042,617.074,296.042 M617.074,293.042
			c-3.843,0-6.958,3.115-6.958,6.958c0,3.843,3.115,6.958,6.958,6.958s6.958-3.115,6.958-6.958
			C624.033,296.157,620.917,293.042,617.074,293.042L617.074,293.042z"/>
	</g>
</g>
<path fill="#2A130C" d="M303.5,20.333c2.581,0.289,21.521,4.083,17.583-3.979S304.833,9,304.833,9s-45,0.667-64.333,0
	s-35.542-4.667-35.542-4.667c-7.045-1.469-7.184,4.426,2.5,13.833c0,0,18.375,14.333,35.042,15.833S292.5,19.101,303.5,20.333z"/>
<g>
	<g>
		<path fill="#464646" d="M330.668,347.371c-1.78-1.158,1.317-5.53-0.966-7.032c-0.705-0.464-1.507-0.541-2.23-0.205
			c-5.752,8.346-11.728,16.541-18.024,24.497c-1.292,1.603-0.819,3.968,1.081,5.301c0.672,0.475,1.348,0.948,2.022,1.423
			c1.902,1.336,4.294,0.994,5.346-0.768c5.052-8.278,10.255-16.098,15.647-24.182C332.315,347.34,331.441,347.874,330.668,347.371z
			 M314.864,367.561c-1.024,0-1.855-0.831-1.855-1.855c0-1.024,0.831-1.855,1.855-1.855c1.024,0,1.855,0.83,1.855,1.855
			C316.719,366.73,315.889,367.561,314.864,367.561z"/>
		<path fill="#2C2C2C" d="M383.052,309.163c-0.433-3.201,4.638-4.11,4.239-5.601c-0.406-1.516-5.081,0.147-6.468-2.736
			c-1.387-2.884,3.411-5.169,2.634-6.511c-0.782-1.352-5.189,1.397-6.957-0.963c-1.769-2.36,1.963-5.87,0.864-6.971
			c-0.746-0.746-1.493,0.267-3.347,0.741c-2.221,3.248-4.803,7.165-6.958,10.455c4.084,4.115,5.964,9.652,5.964,15.907
			c0,12.573-10.192,22.764-22.764,22.764c-12.573,0-22.765-10.192-22.765-22.764c0-12.572,10.192-22.764,22.765-22.764
			c3.271,0,5.979,0.524,8.791,1.766c2.645-3.737,4.262-6.04,6.81-9.841c-1.322,0.917-1.919,0.608-2.942,0.274
			c-2.861-0.959-1.221-6.064-2.738-6.469c-1.492-0.398-2.464,4.694-5.6,4.24c-3.136-0.454-2.742-5.537-4.321-5.537
			c-1.58,0-1.081,5.141-4.322,5.537s-4.108-4.639-5.6-4.24c-1.516,0.405,0.071,5.351-2.738,6.469
			c-2.809,1.118-5.169-3.412-6.512-2.635c-1.352,0.783,1.398,4.995-0.962,6.958c-2.36,1.963-5.871-1.963-6.971-0.862
			c-1.101,1.101,2.454,4.733,0.863,6.97s-6.176-0.389-6.959,0.964c-0.777,1.343,3.526,3.715,2.635,6.511
			c-0.892,2.796-6.063,1.221-6.469,2.737c-0.398,1.491,4.308,2.504,4.239,5.601c-0.069,3.098-5.537,2.741-5.537,4.321
			c0,1.58,5.22,1.159,5.537,4.321c0.317,3.162-4.638,4.11-4.239,5.601c0.406,1.516,5.313-0.108,6.468,2.736s-3.41,5.168-2.634,6.511
			c0.782,1.352,5.033-1.357,6.957,0.963s-1.963,5.87-0.863,6.971c0.813,0.813,2.829-1.107,4.861-1.381
			c0.719-0.097,1.44,0.008,2.111,0.52c2.566,1.957-0.391,6.175,0.961,6.958c0.72,0.417,1.77-0.657,2.999-1.59
			c1.066-0.808,2.267-1.511,3.513-1.044c2.684,1.006,1.221,6.064,2.738,6.469c1.492,0.399,2.807-4.732,5.6-4.24
			s2.742,5.537,4.322,5.537s1.347-5.179,4.321-5.537c2.974-0.358,4.108,4.639,5.6,4.24c1.516-0.405-0.265-5.35,2.737-6.469
			s5.167,3.412,6.51,2.635c1.353-0.782-1.475-5.033,0.964-6.958c2.439-1.925,5.869,1.963,6.97,0.862s-2.917-4.384-0.862-6.971
			c2.055-2.586,6.176,0.39,6.959-0.963c0.777-1.343-4.068-3.638-2.635-6.512c1.434-2.874,6.063-1.22,6.469-2.737
			c0.398-1.491-4.772-2.234-4.239-5.602c0.533-3.368,5.537-2.741,5.537-4.321C388.589,311.905,383.485,312.364,383.052,309.163z"/>
		<g>
			<path fill="#2C2C2C" d="M365.067,313.059c0-1.033-2.858-0.823-3.245-2.68c-0.387-1.858,2.198-2.921,1.763-3.822
				c-0.442-0.915-2.87,0.506-4.088-1.001c-1.218-1.507,0.72-3.578-0.069-4.209c-0.787-0.628-2.089,1.754-4.119,0.865
				s-0.891-3.534-1.889-3.761c-0.967-0.22-1.211,2.55-3.333,2.573c-2.122,0.022-2.366-2.792-3.333-2.573
				c-0.998,0.227,0.151,2.831-1.889,3.761c-2.04,0.931-3.332-1.494-4.119-0.865c-0.79,0.631,1.095,2.706-0.069,4.209
				c-1.165,1.503-3.647,0.086-4.089,1.001c-0.434,0.901,2.201,1.868,1.764,3.821s-3.245,1.647-3.245,2.68s2.86,0.908,3.245,2.68
				s-2.198,2.921-1.764,3.822c0.442,0.915,2.98-0.334,4.088,1.001c1.108,1.335-0.72,3.578,0.07,4.209
				c0.786,0.628,2.242-1.798,4.119-0.865c1.876,0.933,0.891,3.534,1.889,3.761c0.967,0.22,1.298-2.595,3.333-2.573
				c2.034,0.022,2.366,2.792,3.333,2.573c0.998-0.227,0.001-2.962,1.889-3.761c1.888-0.799,3.332,1.494,4.119,0.866
				c0.79-0.631-1.223-2.642,0.069-4.209c1.292-1.566,3.647-0.086,4.089-1.001c0.434-0.901-2.394-1.566-1.763-3.821
				C362.453,313.484,365.067,314.093,365.067,313.059z M350.087,315.866c-1.316,0-2.382-1.066-2.382-2.382
				c0-1.316,1.066-2.382,2.382-2.382c1.315,0,2.381,1.066,2.381,2.382C352.469,314.8,351.402,315.866,350.087,315.866z"/>
		</g>
	</g>
	<path fill="#464646" d="M391.137,256.281c-0.672-0.474-1.347-0.948-2.022-1.423c-1.903-1.336-4.294-0.994-5.346,0.767
		c-5.29,8.67-10.736,17.267-16.404,25.722c-2.548,3.801-5.143,7.573-7.789,11.31c-4.602,6.502-9.357,12.898-14.304,19.15
		c-1.293,1.602-0.82,3.968,1.08,5.301c0.672,0.475,1.347,0.948,2.022,1.423c1.903,1.336,4.295,0.994,5.346-0.768
		c4.167-6.828,8.431-13.61,12.823-20.314c2.155-3.29,4.342-6.561,6.563-9.809c6.08-8.888,12.421-17.605,19.11-26.059
		C393.51,259.98,393.038,257.616,391.137,256.281z M350.087,315.866c-1.316,0-2.382-1.066-2.382-2.382
		c0-1.316,1.066-2.382,2.382-2.382c1.315,0,2.381,1.066,2.381,2.382C352.469,314.8,351.402,315.866,350.087,315.866z
		 M387.327,261.94c-1.024,0-1.855-0.831-1.855-1.855c0-1.024,0.831-1.855,1.855-1.855c1.024,0,1.855,0.831,1.855,1.855
		S388.351,261.94,387.327,261.94z"/>
	<path fill="#2C2C2C" d="M406.639,260c0,2.588-2.098,4.685-4.685,4.685h-29.575c-2.588,0-4.685-2.098-4.685-4.685l0,0
		c0-2.588,2.098-4.685,4.685-4.685h29.575C404.542,255.315,406.639,257.412,406.639,260L406.639,260z"/>
	<circle fill="#FFFFFF" cx="387.167" cy="260" r="1.901"/>
</g>
<line fill="none" stroke="#2A130C" stroke-width="6" stroke-linecap="round" stroke-miterlimit="10" x1="548.083" y1="23.318" x2="548.083" y2="36.333"/>
</svg>
