<?xml version="1.0" encoding="utf-8"?>
<!-- Generator: Adobe Illustrator 17.0.0, SVG Export Plug-In . SVG Version: 6.00 Build 0)  -->
<!DOCTYPE svg PUBLIC "-//W3C//DTD SVG 1.1//EN" "http://www.w3.org/Graphics/SVG/1.1/DTD/svg11.dtd">
<svg version="1.1" id="Calque_1" xmlns="http://www.w3.org/2000/svg" xmlns:xlink="http://www.w3.org/1999/xlink" x="0px" y="0px"
	 width="7684.016px" height="2293.815px" viewBox="-2108.867 -4404.67 7684.016 2293.815"
	 enable-background="new -2108.867 -4404.67 7684.016 2293.815" xml:space="preserve">
<g id="moutain">
	<polygon fill="#210F0B" points="2185.49,-3633.4 2668.992,-4022.154 3152.495,-3633.4 	"/>
	<polygon fill="#29140E" points="297.34,-3723.4 687.998,-4166.612 1078.655,-3723.4 	"/>
	<polygon fill="#210F0B" points="669.009,-3723.4 1192.3,-4317.087 1715.59,-3723.4 	"/>
	<polygon fill="#29140E" points="1747.576,-3723.4 2278.006,-4209.244 2808.435,-3723.4 	"/>
	<g>
		<polygon fill="#29140E" points="1475.265,-4049.535 1703.917,-4278.438 1898.903,-3863.535 1890.804,-3723.4 1446.903,-3723.4 		
			"/>
		<polygon fill="#29140E" points="1019.36,-3723.4 1494.126,-4194.307 1706.213,-4234.191 1706.213,-3723.4 		"/>
		<polygon fill="#210F0B" points="2393.066,-3723.4 1972.544,-4140.504 1706.213,-4248.081 1706.213,-3723.4 		"/>
		<polygon fill="#FFFFFF" points="1706.213,-4404.67 1626.903,-4278.438 1706.213,-4216.931 1839.378,-4225.535 		"/>
		<polygon fill="#FFFFFF" points="1706.213,-4404.67 1494.126,-4194.307 1534.329,-4152.204 1553.747,-4178.095 1581.256,-4152.204 
			1629.801,-4197.513 1670.256,-4166.767 1706.213,-4216.931 		"/>
		<polygon fill="#CBC9BD" points="1972.544,-4140.504 1938.873,-4103.659 1915.765,-4134.469 1887.9,-4114.986 1870.1,-4146.54 
			1834.5,-4121.458 1786.525,-4165.732 1767.346,-4152.204 1706.213,-4216.931 1706.213,-4404.67 		"/>
	</g>
	<polygon fill="#210F0B" points="1650.838,-3949.994 1545.656,-4059.968 1545.656,-3870.641 	"/>
	<polygon fill="#210F0B" points="1527.856,-3825.099 1422.675,-3914.394 1422.675,-3760.668 	"/>
	<g>
		<polygon fill="#29140E" points="1376.478,-3723.4 1661.312,-4033.114 1791.716,-4033.114 1788.382,-3723.4 		"/>
		<polygon fill="#210F0B" points="2210.043,-3723.4 1788.382,-3723.4 1791.716,-4033.114 1860.661,-4056.731 1944.099,-4012.574 		
			"/>
		<polygon fill="#FFFFFF" points="1793.26,-4176.588 1703.917,-4079.442 1791.716,-4033.114 1890.804,-4070.524 		"/>
		<polygon fill="#FFFFFF" points="1661.312,-4033.114 1691.292,-4000.095 1706.665,-4016.605 1727.701,-3982.295 
			1742.265,-4017.895 1766.537,-3996.05 1791.716,-4033.114 1793.26,-4176.588 		"/>
		<polygon fill="#CBC9BD" points="1791.716,-4033.114 1821.555,-4000.904 1840.164,-4021.132 1850.682,-4012.232 
			1862.818,-4024.368 1892.755,-4005.759 1912.173,-4026.795 1933.209,-4000.904 1944.099,-4012.574 1793.26,-4176.588 		"/>
	</g>
</g>
<path fill="#78B675" d="M1207.148-3606.855c112.371-138.334,117.122-240.374,261.632-240.374s141.92,92.926,261.632,240.374
	H1207.148z"/>
<path fill="#94C88F" d="M1480.386-3600.089c106.043-160.808,110.527-279.425,246.9-279.425s133.928,108.023,246.9,279.425H1480.386
	L1480.386-3600.089z"/>
<path fill="#78B675" d="M1788.382-3580.589c180.092-236.568,187.706-411.068,419.305-411.068s227.448,158.915,419.305,411.068
	L1788.382-3580.589L1788.382-3580.589z"/>
<path fill="#94C88F" d="M2363.687-3517.866c113.09-236.568,117.871-411.068,263.305-411.068s142.827,158.915,263.305,411.068
	L2363.687-3517.866L2363.687-3517.866z"/>
<path fill="#94C88F" d="M2808.435-3412.232c71.747-250.299,74.781-434.928,167.048-434.928s90.614,168.139,167.048,434.928H2808.435
	z"/>
<path fill="#94C88F" d="M3311.336-3042.275c75.93-344.866,79.14-599.25,176.787-599.25c97.646,0,95.896,231.664,176.787,599.25
	H3311.336z"/>
<path fill="#78B675" d="M2569.242-3460.662c92.646-178.707,96.563-310.526,215.708-310.526
	c119.144,0,117.008,120.047,215.707,310.525L2569.242-3460.662L2569.242-3460.662z"/>
<path fill="#78B675" d="M2855.891-3165.205c152.32-352.935,158.76-613.272,354.644-613.272
	c195.883,0,192.373,237.084,354.643,613.272H2855.891L2855.891-3165.205z"/>
<path fill="#94C88F" d="M740.655-3580.589c145.171-209.72,151.309-364.417,338-364.417s183.345,140.88,338,364.417H740.655z"/>
<path fill="#94C88F" d="M6.968-3399.997c134.796-264.835,140.495-460.185,313.843-460.185s170.241,177.903,313.843,460.185H6.968
	L6.968-3399.997z"/>
<path fill="#78B675" d="M349.998-3399.996c145.171-302.665,151.309-525.921,338-525.921s183.345,203.316,338,525.921H349.998z"/>
<path fill="#78B675" d="M-298.002-2995.421c170.082-387.143,177.273-672.712,396-672.712s214.806,260.064,396,672.712H-298.002
	L-298.002-2995.421z"/>
<g>
	<path fill="#A4CF9A" d="M-2108.867-2110.855C5.236-2996.447-388.954-3617.865,1733.141-3617.865s1742.19,571.912,3842.008,1507.01
		H-2108.867z"/>
</g>
</svg>
