<?xml version="1.0" encoding="utf-8"?>
<!-- Generator: Adobe Illustrator 16.0.0, SVG Export Plug-In . SVG Version: 6.00 Build 0)  -->
<!DOCTYPE svg PUBLIC "-//W3C//DTD SVG 1.1//EN" "http://www.w3.org/Graphics/SVG/1.1/DTD/svg11.dtd">
<svg version="1.1" id="Calque_1" xmlns="http://www.w3.org/2000/svg" xmlns:xlink="http://www.w3.org/1999/xlink" x="0px" y="0px"
	 width="146.857px" height="68.22px" viewBox="0 0 146.857 68.22" enable-background="new 0 0 146.857 68.22" xml:space="preserve">
<path fill="#FFFFFF" stroke="#8A8D8C" stroke-width="2" stroke-miterlimit="10" d="M53.811,7.677c0,0-57.878-22.971-52.452,21.161
	C6.785,72.97,35.905,50.542,40.246,46.202c-1.447,15.555,48.485,35.677,66.017,5.064c20.98,4.702,64.027-26.407,21.523-45.218
	c-15.373-5.063-38.163-7.777-41.418,0.725C79.674,0.985,57.428-2.995,53.811,7.677z"/>
<path fill="#FDC800" d="M30.84,25.945c0,0-1.989-19.172-5.969-11.757c-3.979,7.415-0.332,23.694,1.914,28.216
	s6.044,3.979,5.321-1.628c-0.723-5.606-1.447-8.862,0.09-8.682s2.08,3.979,2.442,5.968c0.362,1.99,3.256,3.98,4.883,1.81
	c1.628-2.171,3.979-25.839,0-27.389c-3.979-1.55-5.245,9.302-5.245,12.376C34.277,27.934,30.84,25.945,30.84,25.945z"/>
<path fill="#FDC800" d="M46.214,17.986c0,0-3.979,20.98,3.255,24.599c7.235,3.617,15.736,5.245,17.725,1.267
	c1.99-3.979,0-6.331-3.979-5.064c-3.979,1.266-10.49,0-11.033-1.99c-0.543-1.989,0-3.437,1.085-3.798
	c1.085-0.362,4.746,0.053,7.799,1.111c3.053,1.06,5.043-0.75,4.5-3.101c-0.543-2.352-6.685-2.713-9.04-3.979
	s-3.259-3.437-1.993-4.16s6.429-0.542,7.375,1.447c0.945,1.989,3.839,3.255,4.744,0c0.904-3.256-2.163-11.033-10.125-8.501
	C48.385,15.997,46.539,15.992,46.214,17.986z"/>
<path fill="#FDC800" d="M72.621,21.965c0,0-5.426,33.209,11.938,24.201c17.363-9.009,0.904-11.901-4.342-7.742
	C81.665,29.923,76.239,7.677,72.621,21.965z"/>
<path fill="#FDC800" d="M89.623,18.348c0,0-3.45,14.672,5.606,25.321c12.3,2.532,12.119-6.053,13.385-11.165
	s-4.341-9.093-6.149-5.294s-5.382,9.82-6.218,6.899S92.336,1.527,89.623,18.348z"/>
<path fill="#FDC800" d="M123.988,26.091c0-2.498-5.606-20.721-7.958-12.875c0,0-14.289,16.707,0.904,25.75
	C129.414,42.222,123.988,28.589,123.988,26.091z M114.944,30.742c-4.34-0.266,0-6.787,0-6.787c0.543-3.436,2.352,2.352,2.606,3.394
	S119.286,31.009,114.944,30.742z"/>
</svg>
