<?xml version="1.0" encoding="utf-8"?>
<!-- Generator: Adobe Illustrator 16.0.0, SVG Export Plug-In . SVG Version: 6.00 Build 0)  -->
<!DOCTYPE svg PUBLIC "-//W3C//DTD SVG 1.1//EN" "http://www.w3.org/Graphics/SVG/1.1/DTD/svg11.dtd">
<svg version="1.1" id="Calque_1" xmlns="http://www.w3.org/2000/svg" xmlns:xlink="http://www.w3.org/1999/xlink" x="0px" y="0px"
	 width="173.057px" height="85.167px" viewBox="0 0 173.057 85.167" enable-background="new 0 0 173.057 85.167"
	 xml:space="preserve">
<path fill="#00973B" d="M21.168,23.081c0,0-3.617-25.141-16.157-10.642c-12.541,14.5,2.17,18.6,4.099,14.018
	c2.171,4.823,2.89,10.129,1.686,17.122c-1.204,6.994,4.102,18.569,10.372,12.3c6.27-6.271,3.376-3.618,3.376-3.618
	s1.689,3.618,6.512,3.858c4.823,0.242,13.263-28.805,13.746-35.262c4.582,4.395,7.476,3.094,7.717-2.285S51.313-6.254,40.22,2.023
	c-9.887,10.205-9.887,16.609-9.164,18.834C27.921,18.74,22.133,18.257,21.168,23.081z"/>
<polygon fill="#FDC800" points="51.313,26.698 68.436,25.458 68.436,28.839 61.924,31.28 58.789,51.296 65.542,51.296 63.79,57.678 
	47.937,61.183 47.937,55.396 52.542,52.019 54.689,31.28 50.831,30.074 "/>
<path fill="#00973B" d="M91.104,28.281L77.6,56.119c0,0-5.306-1.929-5.547,0c-0.241,1.93,4.582,8.682,14.711,9.164
	c3.376-2.411,2.139-4.822,2.139-4.822l-3.827-1.206c0,0,6.993-18.253,7.958-18.894c1.93,8.523,0.965,26.369,3.377,28.299
	c2.411,1.929,6.229,2.894,6.732,2.17c0.502-0.723,10.148-27.732,12.318-29.18c4.342,0.965,5.547-0.242,5.547-0.242v-5.546
	c0,0-10.852-3.618-11.816-2.773s-2.416,4.462,1.565,5.185c-2.53,5.064-8.801,19.405-8.801,19.405l-4.47-28.839L91.104,28.281z"/>
<path fill="#00973B" d="M137.889,45.026c0,0-26.054-2.413-25.205,26.044s29.305,6.028,28.34,0c-0.964-6.027-3.132-5.787-4.58-3.616
	s-8.924,14.952-13.988,9.646c-5.064-5.305,2.17-15.675,7.958-14.71s10.61,7.236,15.192,5.909S158.086,48.058,137.889,45.026z"/>
<path fill="#FDC800" stroke="#00973B" stroke-miterlimit="10" d="M136.443,40.093c0,0,15.674,4.104,20.015,9.582
	c7.235-5.613,14.229-11.865,15.435-13.442c-7.959,1.317-12.541,3.487-14.711,2.765c0.241-4.101,3.135-9.647,3.376-12.059
	c-4.1,1.688-11.816,7.477-11.816,7.477c-0.724-6.512-1.929-14.323-3.376-15.844C143.194,21.875,136.445,35.212,136.443,40.093z"/>
</svg>
