<?xml version="1.0" encoding="utf-8"?>
<!-- Generator: Adobe Illustrator 16.0.0, SVG Export Plug-In . SVG Version: 6.00 Build 0)  -->
<!DOCTYPE svg PUBLIC "-//W3C//DTD SVG 1.1//EN" "http://www.w3.org/Graphics/SVG/1.1/DTD/svg11.dtd">
<svg version="1.1" id="Calque_1" xmlns="http://www.w3.org/2000/svg" xmlns:xlink="http://www.w3.org/1999/xlink" x="0px" y="0px"
	 width="166.384px" height="96.948px" viewBox="0 0 166.384 96.948" enable-background="new 0 0 166.384 96.948"
	 xml:space="preserve">
<path fill="#E61B76" d="M14.133,8.889c0,0-14.831-6.33-14.107,8.32s2.868,57.035,7.041,57.366s2.002-5.095,5.62-5.276
	c3.617-0.181,9.404,2.534,10.852,15.465c3.979,9.857,6.149-1.594,4.521-4.551c-1.627-2.955-6.149-10.107-0.904-12.048
	s13.022,9.463,14.289,22.661c0,0,5.606,16.124,5.426-3.968s-1.628-20.092-1.266-21.9c0.361-1.809,14.107-6.399,10.852-13.419
	s-10.852-2.385-15.735,0c-4.884,2.387-17.363,6.004-19.534,4.918C19.017,55.373,23.177,14.134,14.133,8.889z"/>
<path fill="#E61B76" d="M105.11,30.684c0,0-14.65-34.554-23.694-23.155c-2.442,7.148,4.793,18.905,9.586,25.868
	c0,0-2.804,16.007,2.532,11.485c1.719-1.356,1.898-2.804,1.447-5.155c1.537,4.793-0.182,4.703,5.336,8.23
	c0,0,3.164,4.159,3.617,7.053c0.451,2.895,3.08,7.688,9.271,2.352c6.192-5.336,9.357-19.891,9.719-24.867
	c2.533,0.179,2.533,1.264,2.352,1.988c-0.181,0.723-0.452,1.266,0.814,1.446c1.266,0.181,1.989-3.889-0.271-4.793
	c0,0,4.16-34.094-5.607-30.929c-9.767,3.166-7.054,28.216-9.676,30.657C107.913,33.307,107.009,32.583,105.11,30.684z"/>
<path fill="#E61B76" d="M160.636,3.888c0,0-14.197,0.153-18.719,0c-4.522-0.153-12.933-4.946-12.661,22.636
	c0.271,27.582-2.295,26.588,11.242,26.949c9.738-0.543,9.376-0.181,10.552-0.452c0.182,3.527,2.442,4.794,1.086,7.597
	c-1.356,2.804,4.25,5.969,4.883,2.261s-0.633-3.165-0.994-5.245s0-3.165,0.633-4.341s12.209-6.831,4.703-14.223
	s-9.135,0.699-13.475,0c-4.342-0.698-9.801-0.247-7.388-5.583c2.413-5.335,7.388-2.984,8.472-1.988
	c1.086,0.994,0.904,1.789,0.904,2.522c0,0.732,2.805,1.637,3.166-0.534c0.361-2.17,0.181-3.047-0.271-3.603
	c2.441-0.286,9.677-2.365,8.682-6.435c-0.994-4.07-9.767-2.442-15.645-4.521c-5.879-2.08-4.613-6.512-0.814-6.783
	s8.049,0.09,7.506,1.356s0.995,3.256,3.075,2.894c2.079-0.361,2.894-1.989,2.622-3.436c2.352,1.266,1.628,1.898,3.346,1.446
	C163.259,13.954,172.031,3.409,160.636,3.888z"/>
<path fill="#E61B76" d="M77.799,53.292c0.361-1.718,13.565-16.459,0.724-34.456C65.681,0.84,63.058,6.538,59.351,10.065
	c0,0-17.273,20.438,1.627,43.499c1.99,1.446,2.895,0.813,3.256,2.984s0.724,8.048,3.889,7.144s1.537-6.148,0.543-7.957
	c-0.995-1.809-0.814-2.533,0.09-2.984c0.904-0.453,4.884,4.34,5.426,9.133c0.543,4.793,1.086,10.581,4.522,9.857
	c3.437-0.723,2.08-6.42,0-9.947S77.437,55.01,77.799,53.292z M69.659,42.006c-11.093,2.37-6.631-19.492-6.631-19.492
	c0.432-2.659,3.014-0.964,3.955-0.481C67.924,22.515,80.753,39.637,69.659,42.006z"/>
</svg>
