<?xml version="1.0" encoding="utf-8"?>
<!-- Generator: Adobe Illustrator 17.0.0, SVG Export Plug-In . SVG Version: 6.00 Build 0)  -->
<!DOCTYPE svg PUBLIC "-//W3C//DTD SVG 1.1//EN" "http://www.w3.org/Graphics/SVG/1.1/DTD/svg11.dtd">
<svg version="1.1" id="Calque_1" xmlns="http://www.w3.org/2000/svg" xmlns:xlink="http://www.w3.org/1999/xlink" x="0px" y="0px"
	 width="780.371px" height="186.652px" viewBox="78.828 -147.977 780.371 186.652"
	 enable-background="new 78.828 -147.977 780.371 186.652" xml:space="preserve">
<g>
	<path fill="#B49663" d="M78.828-30.455c0,0,15.077-0.15,43.252-7.063c-2.132-3.457-3.046-7.213-3.046-10.971
		c0-19.236,24.977-40.426,63.661-40.426c15.382,0,35.028,2.555,42.339,14.126c15.687-9.468,31.982-20.739,42.339-29.305
		c-3.96-6.162-11.118-9.919-19.646-11.722c-16.296,8.867-35.638,16.982-51.172,16.982c-5.787,0-8.376-1.353-8.376-3.457
		c0-8.566,22.236-16.681,44.776-16.681c4.112,0,8.224,0.3,12.184,0.901c5.026-2.855,9.899-5.861,14.468-8.716
		c7.768-4.809,34.419-21.19,40.815-21.19c2.894,0,3.655,1.653,3.655,3.457c0,3.907-3.96,9.618-16.448,23.144
		c-2.284,2.405-8.071,8.416-15.991,15.329c4.722,4.959,7.615,11.722,7.615,20.288c0,29.756-36.247,68.079-101.278,68.079
		c-30.308,0-47.822-7.965-54.98-18.485c-15.991,3.907-29.698,6.462-43.252,7.815L78.828-30.455z M126.649-38.72
		c31.221-7.965,69.905-19.687,91.227-31.86c1.98-1.202,4.112-2.254,6.244-3.607c-4.417-8.416-21.474-13.375-40.054-13.375
		c-39.902,0-63.051,20.739-63.051,38.923c0,3.757,1.066,7.364,3.046,10.67L126.649-38.72z M223.358-56.153
		c-1.98,0-3.96-1.503-3.96-3.306c0-5.861,5.788-4.959,5.788-10.219c0-1.052-0.152-2.104-0.609-3.156
		c-15.078,8.717-32.135,16.982-58.178,24.647c-15.687,4.659-29.241,8.566-41.578,11.572c6.244,8.867,19.799,15.179,42.034,15.179
		c56.655,0,103.563-42.53,103.563-71.235c0-3.907-0.914-7.364-2.437-10.219c-7.462,6.462-16.144,13.225-25.129,18.936
		c-5.788,3.606-11.27,7.213-17.058,10.52c1.523,2.705,2.285,6.012,2.285,9.618C228.08-58.107,225.643-56.153,223.358-56.153z
		 M190.005-102.741c0,1.052,1.675,1.954,4.417,1.954c16.601,0,33.201-7.364,48.126-15.78c-3.046-0.451-6.092-0.601-9.29-0.601
		C212.24-117.169,190.005-109.654,190.005-102.741z M273.617-109.654c7.767-7.364,29.241-28.704,29.241-34.565
		c0-1.052-0.762-2.104-2.133-2.104c-5.939,0-21.931,11.572-37.16,21.19c-3.96,2.555-8.529,5.26-13.402,7.965
		c8.072,1.803,15.23,4.959,20.56,10.069L273.617-109.654z"/>
	<path fill="#B49663" d="M325.702-66.974c0,6.162-9.29,18.185-20.255,27.953h1.522c3.96,0,11.423-2.404,17.362-6.312l5.939-3.907
		l0.609,1.202l-5.636,3.757c-3.046,1.954-12.336,6.763-18.428,6.763c-1.066,0-1.979-0.15-2.741-0.451
		c-9.138,7.965-19.342,14.277-25.891,14.277c-6.701,0-9.595-3.006-9.595-7.514c0-13.375,25.281-39.976,51.629-39.976
		C324.027-71.182,325.702-69.528,325.702-66.974z M302.552-38.871c-0.761-1.353-1.065-2.705-1.065-3.907
		c0-5.711,7.614-8.717,13.402-8.717c5.33-6.312,8.985-12.323,8.985-15.629c0-1.653-0.914-2.705-3.198-2.705
		c-10.204,0-46.908,32.161-46.908,41.929c0,1.803,1.219,2.855,3.96,2.855C284.125-25.044,293.719-31.206,302.552-38.871z"/>
	<path fill="#B49663" d="M365.146-60.361c0-2.555,3.351-6.312,8.986-6.312c0.761,0,1.522,0,2.284,0.15
		c0.152-0.751,0.305-1.202,0.305-1.803c0-1.954-1.219-2.705-2.894-2.705c-12.185,0-46.451,31.409-46.451,42.53
		c0,2.404,1.522,3.907,5.33,3.907c4.874,0,11.575-2.104,15.534-4.358c7.311-4.058,18.733-11.873,31.679-20.289l0.609,1.202
		c-12.337,7.965-23.149,15.78-31.679,20.289c-5.482,2.855-12.641,4.959-18.428,4.959c-7.311,0-10.509-3.006-10.509-7.665
		c0-13.977,28.632-42.08,52.848-42.08c3.808,0,5.33,1.803,5.33,4.208c0,4.208-4.873,10.219-10.052,10.219
		C366.06-58.107,365.146-59.009,365.146-60.361z"/>
	<path fill="#B49663" d="M416.165-49.24l0.609,1.202c-10.509,6.763-19.799,13.225-27.565,18.034
		c-3.655,2.254-11.118,6.162-16.448,6.162c-3.198,0-5.636-1.503-5.636-5.71c0-3.607,3.96-12.173,32.744-41.028
		c6.854,0,13.859-0.751,13.859-0.751l0.457,0.902c-9.747,7.063-41.729,36.669-41.729,41.929c0,2.104,1.218,2.855,2.894,2.855
		c3.503,0,9.595-3.306,13.402-5.711C395.91-35.865,405.504-42.327,416.165-49.24z M414.947-79.147c0,0,4.111-8.566,5.787-11.422
		c0.914-1.202,2.437-1.202,3.046-1.202c3.808,0,11.574,0.601,11.574,0.601l0.305,1.052c0,0-17.514,10.069-19.799,11.271
		L414.947-79.147z"/>
	<path fill="#B49663" d="M481.654-65.772c-6.854,6.613-17.667,17.433-27.566,27.051c-5.178,5.109-7.614,8.716-7.614,10.67
		c0,0.902,0.457,1.353,1.675,1.353c1.98,0,5.787-1.353,11.118-4.659c7.158-4.508,16.753-10.971,27.413-17.884l0.609,1.202
		c-10.509,6.763-19.799,13.225-27.565,18.034c-5.331,3.306-10.509,4.959-14.164,4.959s-5.939-1.503-5.939-4.508
		c0-2.855,2.132-7.063,7.006-12.324l4.416-4.508c-13.098,9.468-32.287,22.092-41.729,22.092c-3.198,0-4.721-1.954-4.721-5.26
		c0-21.04,37.465-45.236,69.447-45.236c8.529,0,16.753,1.804,23.606,5.711l-0.762,0.902c-5.787-2.555-11.727-3.607-17.666-3.607
		c-34.42,0-69.753,35.768-69.753,44.484c0,0.902,0.457,1.353,1.523,1.353c8.833,0,32.896-16.832,45.841-26.299
		c4.569-4.659,9.291-9.167,13.859-13.676c6.854,0,10.509-0.751,10.509-0.751L481.654-65.772z"/>
	<path fill="#B49663" d="M477.542-28.501c0,1.052,1.37,1.954,3.96,1.954c8.528,0,18.732-7.514,26.499-12.624l15.992-10.52
		l0.608,1.202l-15.687,10.37c-8.681,5.861-19.494,13.075-27.109,13.075c-4.721,0-7.157-2.555-7.157-5.711
		c0-5.561,4.873-12.624,11.879-19.988c37.009-38.172,71.58-84.459,131.586-96.933l0.609,2.855
		C554.909-134.602,531.15-82.303,491.4-43.529C482.415-34.813,477.542-31.657,477.542-28.501z"/>
	<path fill="#B49663" d="M432.156-92.221c0-25.398,29.089-37.721,66.097-37.721c30.308,0,65.641,8.266,95.034,24.346
		c26.957-19.837,61.833-35.316,93.512-35.316c3.046,0,4.568,1.052,4.568,3.156c0,11.722-47.821,52.449-119.097,69.882
		c-7.92,9.919-12.641,19.387-12.641,26.901c0,7.214,4.416,12.924,14.772,15.629c10.356-34.415,59.244-57.408,91.684-57.408
		c8.071,0,11.118,3.757,11.118,8.716c0,25.849-51.021,53.05-85.592,53.05c-3.96,0-7.615-0.15-10.966-0.451
		c-2.589,4.959-4.111,10.069-4.111,14.878c0,28.404,27.413,43.282,58.634,43.282c25.13,0,52.543-9.618,70.058-29.906l3.96,3.457
		c-20.408,18.334-49.497,28.403-75.692,28.403c-32.896,0-61.071-15.78-61.071-50.796c0-3.607,0.457-7.063,1.218-10.37
		c-17.971-3.156-25.434-11.572-25.434-22.693c0-5.71,1.98-12.173,5.635-18.785c-14.925,2.555-30.611,4.058-47.212,4.058
		C456.218-59.91,432.156-76.592,432.156-92.221z M437.943-90.418c0,14.728,21.169,28.704,66.858,28.704
		c17.819,0,34.725-1.653,50.259-4.358c7.615-12.774,20.713-26.45,36.856-38.473c-24.063-12.925-54.675-18.786-82.089-18.786
		C470.839-123.33,437.943-111.458,437.943-90.418z M686.798-138.208c-30.003,0-86.049,36.218-112.549,67.928
		c71.123-17.884,114.376-58.16,114.376-66.426C688.626-137.607,688.016-138.208,686.798-138.208z M675.223-74.488
		c0-3.306-1.522-6.011-5.787-6.011c-19.799,0-70.666,28.253-87.419,56.506c3.046,0.451,6.549,0.602,10.509,0.602
		C624.965-23.391,675.223-49.541,675.223-74.488z"/>
	<path fill="#B49663" d="M722.284-66.974c0,6.162-9.29,18.185-20.256,27.953h1.523c3.96,0,11.422-2.404,17.362-6.312l5.939-3.907
		l0.609,1.202l-5.636,3.757c-3.046,1.954-12.336,6.763-18.428,6.763c-1.066,0-1.979-0.15-2.741-0.451
		c-9.138,7.965-19.342,14.277-25.891,14.277c-6.701,0-9.595-3.006-9.595-7.514c0-13.375,25.281-39.976,51.629-39.976
		C720.609-71.182,722.284-69.528,722.284-66.974z M699.134-38.871c-0.762-1.353-1.065-2.705-1.065-3.907
		c0-5.711,7.614-8.717,13.401-8.717c5.331-6.312,8.986-12.323,8.986-15.629c0-1.653-0.914-2.705-3.198-2.705
		c-10.204,0-46.908,32.161-46.908,41.929c0,1.803,1.219,2.855,3.96,2.855C680.707-25.044,690.301-31.206,699.134-38.871z"/>
	<path fill="#B49663" d="M859.199-144.821c-59.244,9.468-83.002,52.449-117.117,90.321c12.641-7.514,38.379-21.941,53.913-21.941
		c5.636,0,8.072,3.005,8.072,5.861c0,2.405-1.827,4.659-4.569,4.659c-2.437,0-3.654-1.502-3.654-3.156
		c0-1.803,1.522-3.907,4.568-4.358c0-1.653-3.198-1.954-4.112-1.954c-7.005,0-15.687,2.705-24.367,6.462
		c2.437,0.902,3.351,2.254,3.351,4.058c0,9.918-28.632,32.311-28.632,38.473c0,1.202,0.913,1.653,2.284,1.653
		c2.894,0,7.463-2.104,8.071-2.404c7.92-4.058,20.256-12.173,35.029-22.092l0.609,1.202c-13.859,9.017-26.043,17.583-34.877,22.092
		c-2.589,1.353-7.158,2.855-10.965,2.855c-3.808,0-6.854-1.503-6.854-6.162c0-9.769,31.221-33.513,31.221-38.322
		c0-0.301-0.152-0.601-0.457-0.751c-12.793,5.711-25.434,13.375-32.135,17.733l-4.568,4.809c-6.549,8.867-22.236,21.34-33.658,21.34
		c-0.609,0-1.676,0-1.676-0.451c0-0.15,0.152-0.451,0.609-0.751c52.848-39.976,84.068-106.401,159.304-122.031L859.199-144.821z"/>
	<path fill="#B49663" d="M841.684-49.24l0.609,1.202c-12.336,7.965-23.149,15.78-31.678,20.289
		c-5.482,2.855-12.641,4.959-18.428,4.959c-5.939,0-10.661-2.254-10.661-7.965c0-12.173,22.235-38.773,51.781-38.773
		c2.894,0,4.112,0.901,4.112,2.404c0,4.809-14.012,15.329-34.268,18.335c-8.224,7.965-14.772,16.23-14.772,19.987
		c0,3.156,2.589,4.208,6.092,4.208c4.874,0,11.574-2.104,15.534-4.358C817.317-33.009,828.739-40.824,841.684-49.24z
		 M833.308-68.326c-6.396,0-18.732,8.867-28.937,18.334c16.144-2.404,31.525-13.075,31.525-16.982
		C835.897-67.876,835.136-68.326,833.308-68.326z"/>
</g>
</svg>
