<?xml version="1.0" standalone="no"?> <!DOCTYPE svg PUBLIC "-//W3C//DTD SVG 1.0//EN" "http://www.w3.org/TR/2001/REC-SVG-20010904/DTD/svg10.dtd" > <svg xmlns="http://www.w3.org/2000/svg" width="100%" height="100%">
<defs >
<font id="lavanderiaregular" horiz-adv-x="534" ><font-face
    font-family="Lavanderia Regular"
    units-per-em="2048"
    panose-1="0 0 0 0 0 0 0 0 0 0"
    ascent="2235"
    descent="-889"
    alphabetic="0" />
<missing-glyph horiz-adv-x="491" />
<glyph unicode=" " glyph-name="space" horiz-adv-x="370" />
<glyph unicode="!" glyph-name="exclam" horiz-adv-x="325" d="M426 1489L539 1458Q312 844 170 229L102 240Q236 893 426 1489ZM88 -14Q59 -14 43 5T27 55Q27 92 50 121T111 150Q142 150 157 131T172 82Q172 45 150 16T88 -14Z" />
<glyph unicode="&quot;" glyph-name="quotedbl" horiz-adv-x="372" d="M172 1192L117 1202Q130 1270 141 1342T156 1453L160 1491Q226 1482 248 1477Q205 1350 172 1192ZM311 1192L256 1202Q270 1270 280 1342T295 1453L299 1491Q354 1483 385 1477Q344 1350 311 1192Z" />
<glyph unicode="#" glyph-name="numbersign" horiz-adv-x="790" d="M551 981Q565 981 595 980T641 979L592 705H782L772 639H582L549 469H745L735 403H537L487 150Q426 150 397 152L444 403H313L264 150Q205 150 174 152L223 403H31L41 469H236L266 639H68L78
705H279L328 981Q343 981 373 980T418 979Q399 863 371 705H502L551 981ZM326 469H459L489 639H358Q339 531 326 469Z" />
<glyph unicode="$" glyph-name="dollar" horiz-adv-x="649" d="M584 635L475 657Q492 721 490 765T470 836T427 875T373 887Q323 887 288 849T252 750Q252 704 272 660T324 583T391 511T458 437T509 353T530 252Q530 99 420 27Q332 -32 219 -11Q109 10 54 94Q0
175 23 287L135 268Q111 149 177 88Q227 41 294 56Q362 71 391 143Q406 181 406 229Q406 269 386 309T336 380T272 448T207 519T157 602T137 702Q137 808 203 880T381 952Q452 952 507 913T585 803T584 635ZM238 -184H184L420 1102L469 1104L238 -184Z" />
<glyph unicode="%" glyph-name="percent" horiz-adv-x="899" d="M688 440Q620 440 574 355T528 174Q528 115 550 78T614 41Q660 41 698 83T755 185T774 305Q774 364 753 402T688 440ZM692 492Q772 492 813 437T854 297Q854 224 826 155T741 38T610 -10Q530 -10
488 45T446 184Q446 299 515 395T692 492ZM281 950Q305 950 347 944T410 938Q516 938 606 981T758 1079L815 1047Q711 809 503 495T102 -14L43 29Q163 156 276 303T467 569T603 789T691 948L719 1004Q714 1000 705 994T666 970T604 939T521 916T420 905Q405 905
373 909Q404 890 422 847T440 752Q440 680 414 614T332 500T201 453Q119 453 76 510T33 655Q33 724 62 790T149 903T281 950ZM274 899Q227 899 189 858T132 759T113 645Q113 584 136 544T205 504Q273 504 317 584T362 756Q362 815 340 855T274 899Z" />
<glyph unicode="&amp;" glyph-name="ampersand" horiz-adv-x="954" d="M625 674L635 733H995L985 674Q926 672 842 672Q835 279 678 109Q838 -135 991 -135Q1079 -135 1135 -55L1190 -109Q1148 -154 1104 -173T993 -193Q798 -193 608 51Q519 -8 414 -8Q238 -8
148 86T57 342Q57 468 115 603T279 842Q258 970 258 1038Q258 1487 520 1487Q624 1487 678 1421T733 1260Q733 1194 708 1134T635 1032Q614 1051 567 1090Q643 1169 643 1276Q643 1341 611 1380T518 1419Q440 1419 401 1344T362 1135Q362 929 440 655T639 170Q728
308 731 672Q664 672 625 674ZM412 49Q508 49 571 98Q476 236 403 414T293 774Q236 695 204 592T172 389Q172 295 196 220T276 97T412 49Z" />
<glyph unicode="&apos;" glyph-name="quotesingle" horiz-adv-x="235" d="M178 1192L123 1202Q137 1270 147 1342T162 1453L166 1491Q227 1483 254 1477Q211 1350 178 1192Z" />
<glyph unicode="(" glyph-name="parenleft" horiz-adv-x="356" d="M416 1595Q426 1588 447 1577T475 1561Q341 1297 243 839T145 14Q145 -106 156 -178L94 -190Q49 -25 49 199Q49 561 153 955T416 1595Z" />
<glyph unicode=")" glyph-name="parenright" horiz-adv-x="397" d="M-2 -190Q-58 -158 -61 -156Q72 107 169 564T266 1386Q266 1509 256 1583L317 1595Q362 1427 362 1204Q362 845 258 451T-2 -190Z" />
<glyph unicode="*" glyph-name="asterisk" horiz-adv-x="376" d="M211 1485L274 1475Q268 1439 236 1315Q294 1342 387 1376L403 1311Q318 1283 248 1270Q308 1226 379 1167L334 1122Q281 1164 219 1237Q215 1165 197 1073L133 1087Q144 1144 174 1243Q119 1216
23 1184L4 1245Q71 1268 158 1288Q105 1322 31 1389L74 1434Q157 1361 188 1319Q188 1367 211 1485Z" />
<glyph unicode="+" glyph-name="plus" horiz-adv-x="403" d="M240 559H389L377 494H227Q223 463 213 406T199 324Q159 328 135 332L162 494H10L23 559H174Q180 589 190 647T207 733Q228 729 270 725L240 559Z" />
<glyph unicode="," glyph-name="comma" horiz-adv-x="243" d="M-31 -244Q-38 -238 -53 -225T-76 -205Q6 -78 6 94H100Q100 2 66 -87T-31 -244Z" />
<glyph unicode="-" glyph-name="hyphen" horiz-adv-x="448" d="M43 557H410L397 492H31L43 557Z" />
<glyph unicode="." glyph-name="period" horiz-adv-x="317" d="M88 -14Q59 -14 43 5T27 55Q27 92 50 121T111 150Q142 150 157 131T172 82Q172 45 150 16T88 -14Z" />
<glyph unicode="/" glyph-name="slash" horiz-adv-x="348" d="M106 -12Q79 -5 37 10Q130 298 211 624T330 1136T395 1481L469 1468Q446 1339 436 1282T387 1041T315 717T225 374T106 -12Z" />
<glyph unicode="0" glyph-name="zero" horiz-adv-x="643" d="M262 57Q324 57 377 146T458 368T487 633Q487 877 381 877Q314 877 261 783T182 557T156 297Q156 57 262 57ZM256 -14Q148 -14 96 80T43 330Q43 480 83 619T204 853T389 948Q600 948 600 604Q600 449
559 309T438 78T256 -14Z" />
<glyph unicode="1" glyph-name="one" horiz-adv-x="425" d="M362 0H-20L-10 63H125Q153 251 187 436T243 714L264 805Q197 705 96 610L59 676Q116 721 179 787T278 896L313 940L387 915Q386 909 363 795T304 480T236 63H373L362 0Z" />
<glyph unicode="2" glyph-name="two" horiz-adv-x="577" d="M322 879Q256 879 217 826T178 700Q178 651 197 606L106 563Q80 611 80 676Q80 781 148 864T330 948Q434 948 488 889T543 729Q543 648 514 577T434 446T328 334T206 211T92 76Q106 82 143 82Q163 82
212 78T285 74Q391 74 436 121Q448 109 468 84T500 45Q449 -12 367 -12Q317 -12 232 7T117 27Q92 27 67 16T35 -14L-37 25Q-14 71 6 100Q55 173 122 249T241 380T340 492T414 613T440 743Q440 806 408 842T322 879Z" />
<glyph unicode="3" glyph-name="three" horiz-adv-x="610" d="M264 344L281 438Q293 435 319 432T358 426Q410 465 441 542T473 698Q473 779 440 831T342 883Q279 883 238 828T197 698Q197 645 217 604L129 569Q102 618 102 686Q102 752 127 809T209 907T348 948Q461
948 519 876T578 698Q578 608 538 522T428 391Q480 354 507 287T535 141Q535 73 514 8T454 -111T354 -198T217 -231Q114 -231 57 -165T0 -2Q0 63 28 124T109 225L178 154Q139 124 117 76T94 -20Q94 -77 128 -118T225 -160Q286 -160 333 -111T403 11T426 162Q426
221 408 274T360 354Q324 342 285 342Q270 342 264 344Z" />
<glyph unicode="4" glyph-name="four" horiz-adv-x="612" d="M446 934H545Q544 922 528 844T483 620T428 322Q504 325 557 362L592 281Q543 245 469 242H446Q441 242 431 241T416 240L387 63H532L522 0H150L160 63H287Q297 140 315 252L195 268Q190 268 182 269T170
270Q96 270 68 233L-10 291Q163 521 174 897H270Q266 561 123 319Q151 328 201 328Q219 328 240 327T287 323T328 319Q351 456 378 597T425 834T446 934Z" />
<glyph unicode="5" glyph-name="five" horiz-adv-x="610" d="M160 381L104 418Q122 447 141 463Q188 626 217 944Q302 926 389 926Q522 926 582 952L594 846Q530 819 412 819Q346 819 276 831Q246 621 213 494Q248 506 289 506Q409 506 468 426T528 209Q528 97
490 -3T374 -169T195 -236Q89 -236 33 -172T-23 -14Q-23 54 6 118T90 225L158 150Q116 114 95 67T74 -29Q74 -79 108 -121T197 -164Q260 -164 312 -104T392 45T420 223Q420 326 376 384T264 442Q231 442 212 433T179 404T160 381Z" />
<glyph unicode="6" glyph-name="six" horiz-adv-x="624" d="M588 1130L625 1044Q464 987 348 874T176 600Q251 707 354 707Q447 707 497 624T547 418Q547 315 514 219T412 57T252 -10Q194 -10 151 16T82 89T45 193T33 319Q33 464 79 600T203 841T381 1020T588
1130ZM322 643Q242 643 187 550T129 324V305Q129 263 135 224T154 147T193 85T256 61Q312 61 354 117T416 253T436 418Q436 515 406 579T322 643Z" />
<glyph unicode="7" glyph-name="seven" horiz-adv-x="552" d="M186 -184H70Q112 26 224 351T459 862Q396 848 285 848Q206 848 131 858Q131 850 132 835T133 813Q133 797 127 713Q93 713 33 717Q47 788 47 936Q163 915 313 915Q451 915 549 938Q553 882 557 852Q468
725 384 513T250 118T186 -184Z" />
<glyph unicode="8" glyph-name="eight" horiz-adv-x="614" d="M432 1153Q524 1153 571 1093T618 940Q618 842 569 749T438 616Q496 588 525 526T555 383Q555 290 519 202T406 52T233 -10Q128 -10 72 63T16 246Q16 365 77 473T244 621Q198 649 174 703T150 827Q150
906 180 979T277 1102T432 1153ZM340 582Q278 582 227 527T151 392T125 233Q125 153 155 102T242 51T347 108T421 248T446 410Q446 486 420 534T340 582ZM426 1092Q373 1092 332 1047T270 937T250 807Q250 739 274 694T346 649Q394 649 434 696T496 812T518 946Q518
1010 495 1051T426 1092Z" />
<glyph unicode="9" glyph-name="nine" horiz-adv-x="626" d="M100 -117Q216 -54 301 73T432 356Q357 229 250 229Q154 229 104 312T53 522Q53 599 73 674T129 813T224 915T352 954Q463 954 519 861T575 616Q575 506 546 384T464 149T330 -59T154 -203L100 -117ZM266
301Q267 301 270 300T274 299Q360 299 420 403T481 637Q481 748 449 815T352 883Q296 883 251 824T184 682T162 514Q162 424 188 364T266 301Z" />
<glyph unicode=":" glyph-name="colon" horiz-adv-x="264" d="M209 713Q180 713 164 733T147 782Q147 818 170 847T231 877Q262 877 277 858T293 809Q293 772 271 743T209 713ZM88 -14Q59 -14 43 5T27 55Q27 92 50 121T111 150Q142 150 157 131T172 82Q172 45
150 16T88 -14Z" />
<glyph unicode=";" glyph-name="semicolon" horiz-adv-x="282" d="M-37 -244Q-43 -239 -58 -226T-82 -205Q0 -78 0 94H94Q94 2 60 -87T-37 -244ZM209 713Q180 713 164 733T147 782Q147 818 170 847T231 877Q262 877 277 858T293 809Q293 772 271 743T209 713Z" />
<glyph unicode="&lt;" glyph-name="less" horiz-adv-x="522" d="M25 752L33 807Q57 818 97 838T240 918T420 1036L459 973Q383 920 294 871T152 799L100 776Q161 732 228 672T331 573L367 535L305 469Q290 487 265 517T165 623T25 752Z" />
<glyph unicode="=" glyph-name="equal" horiz-adv-x="454" d="M41 451H410L397 385H29L41 451ZM74 639H442L430 573H61L74 639Z" />
<glyph unicode="&gt;" glyph-name="greater" horiz-adv-x="493" d="M473 754L463 698Q439 687 399 667T256 587T76 469Q55 507 37 532Q113 585 202 634T344 706L395 729Q334 773 268 833T165 932L129 971L190 1036Q205 1018 231 988T332 882T473 754Z" />
<glyph unicode="?" glyph-name="question" horiz-adv-x="557" d="M305 293L219 305Q231 389 258 467T321 606T396 725T473 838T540 947T589 1065T608 1196Q608 1301 563 1363T428 1425Q330 1425 271 1342T211 1151Q211 985 334 936L287 842Q197 864 149 942T100
1124Q100 1192 122 1257T184 1374T288 1459T430 1491Q563 1491 644 1412T725 1192Q725 1119 705 1052T653 929T580 819T497 708T417 591T349 454T305 293ZM215 -14Q186 -14 170 5T154 55Q154 92 177 121T238 150Q269 150 284 131T299 82Q299 45 277 16T215 -14Z"
/>
<glyph unicode="@" glyph-name="at" horiz-adv-x="1153" d="M705 76Q759 76 820 191T924 484T967 829Q967 926 951 1006T899 1152T802 1255T657 1292Q550 1292 452 1228T280 1055T151 811T68 525T39 233Q39 135 53 48T97 -114T172 -242T281 -327T426 -358Q519
-358 606 -314T766 -195T909 -9T1037 224T1153 494Q1161 494 1175 485T1190 471L1153 375Q1099 238 1047 131T925 -84T782 -261T615 -376T416 -420Q303 -420 216 -368T77 -225T-1 -19T-27 231Q-27 383 4 541T96 845T239 1104T431 1286T662 1354Q761 1354 834 1311T949
1192T1012 1023T1032 817Q1032 629 982 436T848 117T680 -10Q590 -10 590 172Q590 228 602 305Q577 234 553 180T497 80T429 10T350 -14Q287 -14 256 51T225 227Q225 373 269 539T393 825T559 946Q668 946 688 801Q701 857 715 932H809Q709 445 682 238Q676 189
676 152Q676 76 705 76ZM563 864Q510 864 454 752T363 491T328 227Q328 82 391 82Q434 82 484 161T576 361T643 612Q649 656 649 698Q649 771 628 817T563 864Z" />
<glyph unicode="A" glyph-name="A" horiz-adv-x="2242" d="M1282 825Q1515 819 1696 705Q1729 789 1782 931T1868 1160T1950 1361T2038 1550T2126 1696T2224 1810L2316 1767Q2071 633 2071 -6Q2071 -797 2458 -797Q2568 -797 2639 -737T2757 -563L2863 -600Q2748
-889 2482 -889Q2337 -889 2233 -828T2067 -650T1977 -377T1948 -16Q1948 4 1949 48T1950 115Q1950 413 1747 586Q1699 458 1654 353T1548 135T1427 -65T1286 -232T1122 -365T932 -448T711 -479Q564 -479 440 -437T230 -323T83 -154T-6 54T-35 283Q-35 412 -2 537T100
773T265 969T495 1103T786 1153Q982 1153 1107 1063T1282 825ZM477 315Q512 463 618 576T867 749T1174 821Q1131 944 1030 1020T778 1096Q647 1096 533 1049T338 922T197 737T109 514T80 276Q80 167 104 67T179 -122T304 -276T484 -380T719 -418Q817 -418 907 -387T1073
-304T1221 -172T1352 -6T1468 193T1573 409T1669 639Q1518 738 1300 745Q1311 695 1311 647Q1311 529 1268 419T1138 222T932 96Q926 112 912 145T891 195Q989 226 1060 299T1164 464T1198 653Q1198 702 1190 737Q970 718 799 598T584 283Q570 287 534 298T477
315ZM2187 1681Q2173 1664 2136 1597Q2076 1487 2020 1344T1886 975T1772 653Q1915 540 1966 354Q2011 859 2187 1681Z" />
<glyph unicode="B" glyph-name="B" horiz-adv-x="1822" d="M616 578L641 485Q585 465 514 465Q399 465 307 508T157 626T68 797T37 1001Q37 1117 70 1232T175 1453T346 1641T591 1772T907 1821Q1024 1821 1128 1800T1321 1734T1474 1625T1575 1469T1612 1268Q1612
1102 1529 974T1276 786Q1419 742 1518 650T1663 446T1708 205Q1708 78 1661 -42T1529 -260T1310 -416T1016 -475Q785 -475 537 -420Q448 -469 352 -469Q292 -469 233 -451L252 -354Q309 -346 371 -346Q443 -346 500 -354Q639 -264 746 18T911 715Q992 1291 1073
1532L1186 1503Q1092 1234 1038 825Q1104 822 1163 813Q1318 861 1410 985T1503 1253Q1503 1355 1469 1441T1379 1586T1247 1686T1089 1747T920 1767Q769 1767 639 1722T420 1602T267 1430T173 1228T143 1020Q143 895 185 794T316 630T530 567Q575 567 616 578ZM1040
-416Q1142 -416 1231 -381T1385 -284T1497 -142T1567 29T1591 213Q1591 338 1550 447T1418 643T1196 766Q1127 750 1030 745Q977 306 867 29T608 -371Q616 -372 631 -375Q865 -416 1040 -416Z" />
<glyph unicode="C" glyph-name="C" horiz-adv-x="1953" d="M756 1348L700 1247Q632 1284 549 1284Q375 1284 264 1161T152 852Q152 747 188 660T286 512T431 410T608 347T803 326Q805 492 833 667T912 1007T1038 1320T1202 1577T1403 1752T1634 1817Q1792 1817
1875 1708T1958 1419Q1958 1311 1927 1191T1838 950T1689 716T1487 511T1228 356T920 272Q920 -384 1260 -414Q1237 -317 1237 -195Q1237 -45 1275 84T1394 298T1581 383Q1692 383 1751 301T1810 90Q1810 4 1782 -84T1702 -252T1565 -390T1376 -469Q1411 -569 1472
-635T1616 -719Q1610 -733 1599 -764T1581 -809Q1471 -787 1394 -698T1276 -475Q1156 -469 1066 -413T920 -258T836 -29T805 264Q654 264 528 296T314 385T165 519T76 684T47 868Q47 1093 191 1243T551 1393Q658 1393 756 1348ZM1634 1755Q1496 1755 1366 1622T1144
1281T993 824T922 338Q1069 359 1201 422T1433 576T1612 775T1742 1000T1818 1227T1845 1438Q1845 1583 1791 1669T1634 1755ZM1587 319Q1505 319 1445 252T1355 76T1325 -166Q1325 -296 1356 -408Q1441 -389 1511 -332T1623 -200T1689 -44T1712 113Q1712 201 1680
258T1587 319Z" />
<glyph unicode="D" glyph-name="D" horiz-adv-x="1880" d="M856 -475Q814 -475 776 -474T702 -468T640 -460T581 -449T532 -439T483 -427T440 -416Q298 -499 131 -451L150 -354Q277 -336 391 -356Q591 -234 721 258Q599 262 498 301T324 406T202 560T128 751T104
965Q104 1162 172 1326T354 1599T616 1767T928 1827Q1115 1827 1269 1761T1536 1567T1711 1242T1774 795Q1774 641 1750 490T1678 196T1553 -68T1377 -280T1144 -423T856 -475ZM1219 1077Q1279 1011 1305 928T1325 761T1280 594T1181 444T1032 329T840 264Q717
-203 498 -377Q689 -416 856 -416Q988 -416 1101 -369T1299 -238T1449 -43T1556 201T1617 474T1638 758Q1638 1231 1445 1499T930 1767Q725 1767 561 1661T305 1369T213 956Q213 824 248 710T348 509T513 372T735 319Q777 492 809 715Q889 1291 971 1532L1083 1503Q985
1225 928 750Q902 536 854 328Q944 343 1015 384T1129 480T1197 602T1222 737T1204 871T1145 991L1219 1077Z" />
<glyph unicode="E" glyph-name="E" horiz-adv-x="1548" d="M1149 862L1137 760Q1133 758 1118 758Q1030 758 965 793Q839 763 738 689T574 517T478 306T444 80Q444 -21 470 -109T548 -267T680 -377T862 -418Q954 -418 1033 -384T1166 -294T1258 -166T1313 -17T1331
135Q1331 265 1281 350T1139 436Q1046 436 988 353T930 158Q930 60 977 -25L866 -80Q815 13 815 129Q815 228 852 313T966 453T1143 508Q1239 508 1309 456T1411 321T1444 135Q1444 28 1406 -78T1297 -275T1110 -422T852 -479Q749 -479 662 -449T514 -367T409 -244T345
-91T324 80Q324 199 361 315T468 535T652 717T907 834Q845 877 807 963Q727 952 641 952Q512 952 406 976T229 1039T109 1132T38 1242T16 1360Q16 1488 107 1581T342 1675Q557 1675 664 1487Q654 1480 636 1467T603 1442T573 1421Q495 1581 342 1581Q240 1581 179
1517T117 1360Q117 1297 147 1238T238 1128T402 1045T641 1014Q707 1014 782 1024Q748 1129 748 1247Q748 1353 775 1452T854 1632T986 1760T1165 1808Q1288 1808 1356 1733T1425 1534Q1425 1455 1394 1373T1303 1215T1141 1076T913 983Q950 892 1010 854Q1072
864 1126 864Q1143 864 1149 862ZM1174 1751Q1075 1751 1003 1679T896 1497T862 1255Q862 1145 891 1049Q998 1079 1081 1137T1214 1265T1288 1407T1313 1548Q1313 1634 1276 1691T1174 1751Z" />
<glyph unicode="F" glyph-name="F" horiz-adv-x="2140" d="M1389 332L1288 293Q1264 337 1264 397Q1264 484 1330 556T1494 667T1698 713Q1759 1306 1911 1575Q1859 1565 1802 1565Q1703 1565 1572 1587T1328 1635T1059 1684T760 1706Q636 1706 530 1670T350 1571T223
1427T145 1255T119 1073Q119 972 150 882T240 720T393 606T606 563Q699 563 775 588T903 655T990 757T1041 884T1057 1026Q1057 1078 1051 1133L1161 1153Q1171 1088 1171 1036Q1171 950 1152 873T1089 728T981 610T821 531T608 502Q461 502 344 550T154 681T43
866T4 1085Q4 1190 34 1292T128 1486T280 1649T494 1760T766 1802Q915 1802 1080 1776T1362 1719T1606 1662T1817 1636Q1904 1636 1956 1647Q2026 1742 2103 1757L2150 1698Q2114 1631 2013 1593Q1899 1403 1833 842L1819 719Q1929 733 1997 774Q2015 823 2035
867T2066 930L2077 950Q2083 947 2148 915Q2140 806 2042 733Q2001 481 2001 309H1907Q1907 498 1968 694Q1897 660 1810 649Q1787 457 1750 298T1667 23T1564 -181T1448 -326T1321 -417T1188 -467T1051 -481Q940 -481 854 -450T716 -367T638 -252T612 -117Q612
15 691 113T895 215Q899 137 899 100Q821 99 772 34T723 -125Q723 -245 807 -330T1057 -416Q1114 -416 1165 -404T1272 -361T1376 -279T1471 -146T1558 45T1630 304T1688 641Q1599 633 1530 607T1417 531T1372 414Q1372 375 1389 332Z" />
<glyph unicode="G" glyph-name="G" horiz-adv-x="1818" d="M1741 608Q1703 505 1657 418Q1653 403 1641 334T1604 125T1559 -131Q1546 -201 1534 -254T1503 -372T1461 -484T1405 -577T1333 -653T1240 -701T1124 -719Q993 -719 922 -641T850 -455Q850 -349 917
-269T1102 -186Q1110 -260 1116 -297Q1039 -304 996 -359T952 -483Q952 -555 998 -606T1130 -657Q1185 -657 1229 -637T1304 -578T1358 -492T1397 -383T1425 -263T1449 -135Q1450 -130 1450 -127Q1471 -1 1505 178Q1384 -12 1165 -12Q1020 -12 927 92T793 373Q735
367 672 367Q503 367 371 413T159 537T40 708T0 903Q0 1026 54 1132T216 1307T467 1376Q565 1376 645 1329L600 1243Q525 1286 444 1286Q337 1286 254 1229T127 1082T84 889Q84 801 118 722T220 575T404 468T672 428Q745 428 780 432Q764 538 764 643Q764 756 780
873T828 1104T905 1323T1012 1517T1146 1672T1307 1775T1493 1812Q1650 1812 1732 1706T1815 1430Q1815 1334 1788 1229T1711 1016T1581 809T1403 624T1175 478T901 387Q930 229 1003 138T1192 47Q1272 47 1335 80T1436 162T1506 281T1556 413T1596 545T1636 655L1741
608ZM1698 1440Q1698 1584 1643 1662T1483 1741Q1376 1741 1279 1672T1110 1487T987 1226T908 924T881 621Q881 539 891 451Q1048 484 1183 564T1410 749T1569 975T1667 1215T1698 1440Z" />
<glyph unicode="H" glyph-name="H" horiz-adv-x="1933" d="M2462 1495L2345 1489Q2349 1518 2349 1567Q2349 1648 2309 1696T2218 1745Q2170 1745 2126 1715T2044 1625T1972 1487T1906 1300T1848 1075T1796 812T1750 524T1708 209T1669 -121T1632 -465H1495Q1538
-142 1576 134T1632 524L1649 639Q1606 634 1559 632T1480 630T1386 630T1292 631Q1260 472 1225 344T1145 97T1048 -111T931 -273T788 -391T616 -458T410 -475Q170 -464 17 -307T-137 88Q-137 205 -96 320T17 528T198 679T434 737Q595 737 698 635T801 367Q801
302 771 213T696 72L602 139Q649 198 680 277T711 414Q711 524 643 601T451 678Q337 678 244 630T93 500T3 315T-29 98Q-29 -126 97 -269T444 -418Q565 -422 666 -374T843 -238T981 -16T1088 273T1169 627Q1078 623 983 571L944 655Q1049 706 1186 709Q1193 748
1211 846T1236 986T1261 1113T1290 1253T1322 1386T1362 1538Q1305 1507 1216 1478T1055 1426T914 1371T807 1290T768 1171Q768 997 1001 997L987 893Q836 900 757 966T678 1147Q678 1223 719 1282T823 1378T969 1447T1127 1502T1275 1554T1386 1618L1444 1806L1546
1784Q1543 1697 1483 1602Q1453 1492 1426 1365T1384 1162T1344 925T1307 709Q1362 707 1420 701T1509 692T1580 689T1657 698Q1710 1006 1774 1225T1911 1573T2063 1760T2236 1819Q2341 1819 2402 1749T2464 1548Q2464 1513 2462 1495Z" />
<glyph unicode="I" glyph-name="I" horiz-adv-x="1107" d="M1085 1806L1192 1794Q1186 1703 1137 1624L1112 1522Q1050 1247 1003 933T904 210T811 -465H672Q680 -414 705 -241T738 -18T768 181T800 386T830 571T863 765T895 943T932 1134T969 1312T1012 1503Q953
1452 865 1393T695 1283T523 1174T360 1055T226 928T132 781T98 614Q98 468 179 383T385 297Q485 297 545 364T606 518Q606 578 575 628T483 702Q491 715 508 745T535 791Q627 754 674 680T721 516Q721 434 684 362T568 243T385 195Q211 195 98 306T-16 596Q-16
688 17 773T104 927T235 1063T392 1183T565 1292T737 1393T898 1490T1030 1587Q1042 1659 1085 1806Z" />
<glyph unicode="J" glyph-name="J" horiz-adv-x="1079" d="M334 -664Q390 -664 439 -636T527 -561T598 -446T656 -304T701 -143T736 24T763 191T783 343T798 474T811 571Q881 1054 987 1427Q920 1355 830 1273T662 1125T499 985T349 842T229 698T146 541T117 375Q117
231 195 144T391 57Q490 57 549 124T608 279Q608 337 580 382T494 446L532 528Q609 506 651 440T694 289Q694 233 675 181T620 85T525 16T393 -10Q281 -10 190 35T43 175T-14 399Q-14 454 -2 509T29 611T82 710T146 800T225 888T309 968T402 1046T494 1118T587
1188T674 1253Q889 1416 1010 1546Q1067 1711 1139 1815L1214 1772Q1183 1669 1100 1524Q1003 1070 930 528Q871 132 828 -51Q705 -572 481 -689Q413 -725 334 -725Q229 -725 167 -663T104 -498Q104 -383 181 -301T379 -217L383 -322Q298 -328 244 -383T190 -514Q190
-586 229 -625T334 -664Z" />
<glyph unicode="K" glyph-name="K" horiz-adv-x="1871" d="M516 -418Q607 -418 686 -392T828 -322T944 -208T1039 -62T1116 114T1178 310T1229 524Q1192 524 1174 526L1192 629Q1222 626 1247 616Q1264 705 1297 897T1361 1244T1427 1536Q1369 1504 1280 1476T1121
1427T984 1377T880 1296T842 1171Q842 1090 901 1047T1057 1004L1042 893Q899 897 817 969T735 1155Q735 1235 773 1297T869 1395T1007 1463T1162 1515T1318 1563T1450 1620Q1473 1701 1511 1806L1630 1782Q1614 1675 1534 1602Q1494 1451 1464 1282T1403 914T1352
602Q1424 628 1487 688T1597 826T1688 999T1768 1192T1843 1386T1924 1566T2015 1714T2126 1815T2263 1853Q2341 1853 2391 1802T2435 1671H2341V1681Q2341 1727 2317 1757T2251 1788Q2185 1788 2130 1729T2032 1571T1945 1352T1850 1104T1735 866T1578 669T1370
549Q1436 497 1492 405T1589 209T1669 -9T1749 -226T1835 -412T1946 -545T2089 -594Q2274 -594 2314 -391Q2331 -395 2365 -405T2417 -420Q2346 -662 2105 -662Q2006 -662 1924 -623T1786 -517T1681 -362T1601 -177T1536 22T1475 214T1411 385T1333 514Q1308 390
1283 292T1219 88T1137 -99T1030 -253T893 -375T719 -451T504 -479Q360 -479 247 -431T67 -300T-34 -118T-68 94Q-68 190 -45 283T27 459T144 606T306 707T510 745Q623 745 708 690T836 547T879 354Q879 197 786 66L690 123Q774 248 774 379Q774 504 698 590T502
676Q418 676 344 643T215 551T120 418T59 258T39 86Q39 -14 67 -102T151 -262T301 -376T516 -418Z" />
<glyph unicode="L" glyph-name="L" horiz-adv-x="1656" d="M686 330Q842 330 979 375Q1009 533 1030 729Q1051 924 1077 1079T1131 1347T1195 1543T1266 1678T1346 1762T1432 1805T1528 1817Q1655 1817 1723 1707T1792 1419Q1792 1307 1765 1186T1681 938T1542
701T1344 496T1090 346Q1021 15 895 -184Q963 -208 1060 -251T1222 -321T1374 -371T1544 -393Q1604 -393 1649 -375T1721 -327T1761 -268T1782 -207Q1847 -222 1886 -233Q1861 -342 1776 -410T1546 -479Q1456 -479 1358 -455T1193 -402T1017 -325T850 -252Q674
-479 391 -479Q293 -479 232 -433T170 -305Q170 -224 245 -163T457 -102Q638 -102 801 -152Q904 18 965 305Q820 268 686 268Q537 268 414 300T208 388T67 518T-17 673T-43 842Q-43 942 -7 1036T93 1205T255 1323T469 1368Q587 1368 682 1315Q673 1295 655 1261T631
1214Q569 1255 469 1255Q374 1255 295 1220T164 1125T84 989T55 829Q55 736 92 650T203 491T402 374T686 330ZM1526 1755Q1487 1755 1455 1740T1386 1685T1319 1572T1257 1387T1199 1111T1149 729Q1133 587 1106 434Q1222 493 1320 587T1484 786T1596 1009T1664
1237T1686 1446Q1686 1585 1644 1670T1526 1755ZM408 -420Q622 -420 766 -215Q615 -162 465 -162Q371 -162 317 -207T262 -309Q262 -355 300 -387T408 -420Z" />
<glyph unicode="M" glyph-name="M" horiz-adv-x="2340" d="M571 -408Q695 -408 815 -341T1033 -158T1219 112T1370 439T1481 797Q1434 1157 1434 1411Q1434 1511 1455 1574T1524 1638Q1577 1638 1596 1581T1616 1405Q1616 1147 1571 874Q1645 341 1663 25Q1750
258 1962 735Q1986 1141 2079 1595Q2122 1806 2234 1806Q2331 1806 2331 1659Q2331 1537 2262 1337T2064 838Q2049 577 2051 340T2083 -100T2161 -452T2286 -685T2460 -770Q2563 -770 2625 -720T2738 -555L2847 -592Q2736 -870 2472 -870Q2298 -870 2175 -683T1997
-167T1956 590Q1738 96 1669 -94Q1676 -313 1657 -446L1550 -442Q1550 -352 1585 -215Q1582 -83 1569 73T1543 322T1507 594Q1442 362 1344 168T1124 -167T855 -386T553 -465Q397 -465 272 -391T76 -189T6 98Q6 191 31 284T107 461T225 608T385 710T578 748Q739
748 841 646T944 377Q944 312 914 224T840 82L745 150Q792 208 823 287T854 424Q854 534 786 611T594 688Q503 688 425 657T290 570T194 442T135 284T115 109Q115 -119 234 -263T571 -408ZM2279 1661Q2279 1707 2270 1729T2236 1751Q2190 1751 2163 1602Q2105 1292
2079 1001Q2279 1476 2279 1661ZM1569 1452Q1569 1593 1532 1593Q1514 1593 1507 1558T1503 1452T1515 1297T1540 1096Q1569 1287 1569 1452Z" />
<glyph unicode="N" glyph-name="N" horiz-adv-x="1980" d="M2519 1735Q2367 1735 2233 1605T1997 1245T1821 708T1708 39Q1771 -221 1741 -446L1636 -442Q1636 -252 1645 -113Q1635 -69 1620 -19T1594 68T1559 167T1524 256T1483 356T1444 446T1400 545T1360 637Q1327
468 1278 314T1157 15T997 -234T795 -402T553 -465Q397 -465 272 -391T76 -189T6 98Q6 191 31 284T107 461T225 608T385 710T578 748Q739 748 841 646T944 377Q944 312 914 224T840 82L745 150Q792 208 823 287T854 424Q854 534 786 611T594 688Q503 688 425 657T290
570T194 442T135 284T115 109Q115 -119 234 -263T571 -408Q690 -408 796 -338T980 -153T1124 118T1232 435T1303 770Q1218 968 1171 1128T1124 1425Q1124 1521 1151 1579T1237 1638Q1309 1638 1354 1530T1406 1248T1393 858Q1599 368 1657 211L1671 170Q1702 438
1757 683T1892 1139T2071 1504T2292 1747T2548 1835Q2732 1835 2832 1706L2750 1624Q2717 1678 2656 1706T2519 1735ZM1196 1468Q1199 1336 1331 1010Q1352 1259 1329 1424T1245 1589Q1216 1589 1206 1559T1196 1468Z" />
<glyph unicode="O" glyph-name="O" horiz-adv-x="2301" d="M1880 1694L1905 1739Q2021 1670 2094 1536T2193 1234T2205 873T2144 491T2012 127T1822 -182T1579 -395T1294 -475Q1192 -475 1108 -437T964 -332T861 -170T796 34T768 270H756Q400 270 200 458Q53 597
30 796Q9 982 103 1137Q201 1300 384 1354Q464 1378 553 1378Q611 1378 651 1368T737 1329L674 1221Q607 1266 510 1266Q322 1266 206 1134Q105 1019 101 855Q96 678 210 540Q357 360 645 328Q702 322 762 322H768Q766 486 792 661T869 1001T997 1314T1166 1572T1376
1747T1618 1812Q1791 1812 1868 1657Q1944 1504 1900 1262Q1851 996 1683 760Q1481 476 1181 352Q1037 293 879 276Q879 127 903 3T976 -218T1107 -369T1296 -424Q1429 -424 1550 -344T1763 -130T1927 178T2040 539T2095 911T2092 1255T2020 1529T1880 1694ZM1618
1761Q1471 1761 1334 1626T1100 1282T944 819T879 328Q1249 367 1512 644Q1708 850 1795 1130Q1869 1369 1831 1550Q1797 1711 1685 1750Q1654 1761 1618 1761Z" />
<glyph unicode="P" glyph-name="P" horiz-adv-x="1687" d="M692 635L737 535Q646 487 539 487Q306 487 165 638T23 1047Q23 1161 56 1270T159 1480T328 1655T571 1776T885 1821Q1042 1821 1172 1782T1392 1676T1544 1519T1634 1327T1663 1116Q1663 982 1619 853T1493
620T1288 447T1016 367Q945 -69 816 -273T459 -477Q297 -477 196 -385T94 -131Q94 -10 176 91T377 197V92Q297 86 242 15T186 -147Q186 -264 261 -340T459 -416Q533 -416 592 -384T699 -283T783 -122T850 107T903 395T948 748Q1006 1288 1135 1540Q1226 1507 1253
1499Q1134 1276 1077 823Q1051 604 1026 430Q1145 446 1245 510T1410 670T1512 880T1548 1116Q1548 1215 1524 1307T1446 1482T1316 1626T1124 1723T872 1759Q726 1759 602 1719T392 1610T245 1451T156 1263T127 1063Q127 841 236 718T524 594Q625 594 692 635Z"
/>
<glyph unicode="Q" glyph-name="Q" horiz-adv-x="1474" d="M305 -487L324 -360Q359 -360 388 -362T432 -366T466 -371T489 -375Q669 -277 828 -97T1094 295T1263 734T1325 1161Q1325 1290 1298 1395T1217 1581T1075 1706T870 1751Q731 1751 610 1689T404 1523T257
1287T167 1012T137 731Q137 575 174 451T292 249T485 172Q599 172 686 246T815 432T858 666Q858 788 813 891T678 1047L770 1147Q868 1082 918 968T969 717Q969 628 949 541T887 377T789 240T654 146T487 111Q371 111 279 163T129 305T41 512T10 762Q10 883 35
1006T107 1247T228 1467T395 1646T610 1767T870 1812Q1020 1812 1134 1761T1317 1618T1421 1406T1456 1139Q1456 939 1393 716T1220 284T945 -105T590 -393Q716 -422 935 -491T1332 -604T1655 -647Q1736 -647 1795 -626T1889 -567T1941 -484T1962 -385L2105 -399Q2105
-556 1999 -650T1675 -745Q1565 -745 1403 -705T1098 -615T786 -512T508 -438Q507 -438 506 -439T504 -440Q393 -503 305 -487Z" />
<glyph unicode="R" glyph-name="R" horiz-adv-x="1638" d="M127 1063Q127 841 236 718T524 594Q625 594 692 635L737 535Q646 487 539 487Q306 487 165 638T23 1047Q23 1161 56 1270T159 1480T328 1655T571 1776T885 1821Q1042 1821 1171 1782T1390 1677T1540
1521T1630 1331T1659 1122Q1659 995 1618 871T1503 644T1316 470T1067 379Q1125 337 1177 252T1269 66T1349 -148T1434 -364T1528 -552T1648 -686T1798 -737Q1979 -737 2023 -535Q2040 -539 2073 -549T2124 -563Q2051 -803 1829 -803Q1730 -803 1646 -765T1502
-662T1389 -512T1299 -333T1224 -142T1156 44T1088 207T1010 328Q940 -89 811 -283T459 -477Q287 -477 191 -379T94 -131Q94 -3 173 94T375 199Q375 182 376 146T377 92Q297 88 242 16T186 -147Q186 -264 261 -340T459 -416Q623 -416 730 -230T899 336Q877 336
866 338L879 449Q887 449 897 446T911 442L948 748Q1006 1288 1135 1540Q1226 1507 1253 1499Q1130 1261 1077 823Q1051 607 1026 436Q1179 456 1299 562T1482 818T1544 1130Q1544 1228 1520 1318T1444 1489T1314 1629T1124 1724T872 1759Q725 1759 601 1719T390
1610T244 1451T155 1263T127 1063Z" />
<glyph unicode="S" glyph-name="S" horiz-adv-x="2078" d="M-6 268L53 356Q205 237 440 217Q438 250 438 279Q438 403 465 524T550 752T685 942T874 1072T1110 1120Q1211 1120 1293 1081T1427 974T1510 819T1548 631Q1695 755 1808 891Q1806 924 1806 991Q1806
1810 2081 1810Q2152 1810 2187 1762T2222 1636Q2222 1494 2145 1310T1927 938Q1927 901 1929 828T1931 719Q1931 561 1908 414T1839 132T1723 -112T1560 -304T1347 -430T1087 -475Q977 -475 885 -448T729 -379T616 -278T536 -164T487 -45T458 61T446 143Q332 143
211 177T-6 268ZM1268 -82Q1262 -74 1239 -39T1202 14Q1311 93 1377 222T1460 498Q1036 178 563 143Q579 27 620 -70T729 -243T897 -361T1120 -403Q1282 -403 1414 -318T1632 -83T1764 263T1810 688V811Q1685 668 1548 555Q1538 356 1467 182T1268 -82ZM1470 580Q1466
662 1452 731T1408 861T1338 966T1235 1034T1096 1059Q995 1059 907 1015T754 894T644 719T576 510T553 287Q553 265 557 223Q804 237 1035 331T1470 580ZM2159 1636Q2159 1681 2143 1709T2093 1741Q1999 1741 1962 1581T1925 1102V1028Q2036 1192 2097 1352T2159
1636Z" />
<glyph unicode="T" glyph-name="T" horiz-adv-x="1984" d="M2099 1757L2148 1692Q2109 1629 2011 1593Q1886 1365 1821 729Q1799 522 1762 351T1679 57T1575 -162T1457 -316T1326 -413T1189 -466T1049 -481Q939 -481 853 -450T715 -367T638 -252T612 -117Q612
-32 647 44T747 168T893 217L899 104Q824 104 772 36T719 -125Q719 -181 739 -232T798 -324T903 -391T1055 -416Q1115 -416 1168 -404T1278 -357T1385 -269T1482 -125T1570 81T1642 363T1698 729Q1763 1311 1911 1575Q1856 1565 1800 1565Q1701 1565 1570 1587T1326
1635T1057 1684T758 1706Q635 1706 530 1670T350 1571T222 1427T144 1255T119 1073Q119 993 138 919T196 780T292 667T429 591T604 563T775 589T902 659T985 765T1033 892T1047 1032Q1047 1074 1040 1135L1157 1153Q1163 1098 1163 1047Q1163 937 1132 843T1037
670T863 547T606 502Q459 502 342 550T153 681T42 866T4 1085Q4 1190 34 1292T128 1486T279 1649T493 1760T764 1802Q913 1802 1078 1776T1360 1719T1604 1662T1815 1636Q1904 1636 1956 1647Q2024 1739 2099 1757Z" />
<glyph unicode="U" glyph-name="U" horiz-adv-x="2146" d="M2224 -66L2329 -72Q2302 -280 2222 -378T2017 -477Q1882 -477 1821 -376T1759 -47Q1759 50 1772 154Q1732 33 1686 -73T1583 -273T1461 -420T1331 -475Q1216 -475 1159 -395T1102 -164Q1102 -50 1143
140T1233 501T1323 861T1364 1163Q1364 1328 1300 1459T1117 1666T842 1741Q690 1741 561 1684T346 1529T212 1306T164 1040Q164 806 283 663T629 520Q708 520 774 543T887 609T969 703T1026 818T1061 940T1081 1061L1196 1042Q1183 957 1158 879T1088 720T982
582T831 486T633 449Q454 449 320 528T118 741T49 1044Q49 1198 106 1337T266 1580T520 1746T850 1808Q1128 1808 1301 1631T1475 1163Q1475 1058 1449 916T1386 632T1311 351T1247 73T1221 -164Q1221 -383 1356 -383Q1415 -383 1476 -322T1587 -166T1682 47T1759
271T1810 471Q1863 809 1947 1182T2111 1815L2228 1792Q2203 1694 2141 1492T2064 1212Q2000 954 1933 550T1866 -82Q1866 -236 1906 -319T2023 -403Q2102 -403 2155 -317T2224 -66Z" />
<glyph unicode="V" glyph-name="V" horiz-adv-x="2052" d="M1544 -338Q1670 295 1868 786T2314 1556T2814 1835Q3014 1835 3099 1706Q3090 1697 3073 1681T3043 1651T3017 1624Q2963 1735 2789 1735Q2558 1735 2327 1454T1898 669T1561 -492Q1518 -487 1432 -475Q1433
-445 1438 -305T1447 -60T1450 147Q1450 315 1441 461T1411 752T1354 1015T1265 1233T1140 1403T972 1511T758 1550Q609 1550 486 1495T283 1344T160 1126T117 866Q117 629 250 479T598 328Q667 328 727 348T830 402T909 483T967 578T1006 681T1029 781T1040 870L1155
852Q1148 765 1127 685T1064 525T961 387T808 293T602 256Q464 256 351 303T162 434T45 629T4 870Q4 1023 56 1159T205 1397T446 1558T768 1618Q899 1618 1009 1580T1201 1473T1347 1304T1453 1087T1522 828T1561 539T1573 227Q1573 -28 1544 -338Z" />
<glyph unicode="W" glyph-name="W" horiz-adv-x="2631" d="M2109 1647L2204 1624Q2095 782 2095 207Q2095 -299 2144 -354Q2189 -129 2229 55T2317 432T2410 777T2510 1079T2619 1340T2738 1548T2871 1706T3018 1801T3183 1835Q3367 1835 3467 1706L3385 1624Q3352
1678 3291 1706T3154 1735Q3077 1735 3006 1701T2873 1608T2752 1450T2641 1243T2538 980T2442 675T2349 322T2258 -64T2165 -489L2044 -477Q1976 -349 1976 51Q1976 379 2012 772T2085 1438Q1895 999 1583 -428Q1575 -467 1571 -483L1475 -465Q1449 -404 1436
-291T1420 -82T1417 184V489Q1410 877 1358 1053Q1289 1285 1141 1417T772 1550Q499 1550 318 1362Q172 1210 131 989Q91 774 168 598Q246 419 419 357Q499 328 594 328Q713 328 799 368T936 486T1015 655T1055 870L1176 862Q1155 726 1113 620T1002 433T832 308T600
264Q330 264 173 444Q42 596 28 823Q15 1051 126 1250Q246 1465 468 1558Q611 1618 782 1618Q1033 1618 1208 1480T1464 1100Q1540 871 1540 317V227Q1540 198 1539 142T1538 61Q1538 -275 1561 -319Q1593 -156 1642 64T1767 593T1934 1189T2109 1647Z" />
<glyph unicode="X" glyph-name="X" horiz-adv-x="1978" d="M999 1741Q865 1741 793 1665T721 1483Q721 1376 791 1295T983 1210Q979 1192 971 1148T956 1081Q848 1081 767 1134T647 1268T608 1442Q608 1601 727 1706T1018 1812Q1094 1812 1159 1783T1275 1706T1369
1581T1445 1426T1505 1240T1554 1040T1595 825Q1639 949 1676 1046T1763 1253T1860 1442T1968 1600T2092 1725T2231 1803T2392 1833Q2505 1833 2587 1778T2697 1647Q2678 1637 2644 1618T2603 1595Q2578 1668 2515 1703T2363 1739Q2136 1739 1954 1472Q1834 1296
1686 916Q1660 850 1614 727L1632 594Q1692 165 1741 -29Q1836 -401 2006 -524Q2102 -594 2228 -594Q2332 -594 2393 -542T2484 -391L2599 -428Q2548 -554 2455 -611T2224 -668Q1910 -668 1746 -376Q1635 -177 1566 224Q1549 325 1522 512Q1475 395 1435 304T1338
107T1228 -78T1102 -233T957 -357T790 -435T596 -465Q486 -465 394 -431T237 -339T128 -203T62 -37T41 145Q41 250 65 352T142 546T266 709T443 822T668 864Q760 864 836 829T961 735T1036 598T1063 434Q1063 237 932 82L831 141Q956 289 956 469Q956 601 873 699T659
797Q542 797 444 740T283 588T185 379T150 143Q150 39 177 -53T258 -220T400 -339T602 -383Q700 -383 789 -354T950 -276T1090 -150T1212 7T1320 196T1415 399T1503 616L1497 662Q1475 813 1456 924T1411 1154T1358 1355T1294 1516T1215 1640T1119 1713T999 1741Z"
/>
<glyph unicode="Y" glyph-name="Y" horiz-adv-x="2080" d="M780 1741Q507 1741 326 1553Q180 1402 139 1180Q99 965 176 789Q254 610 426 547Q506 518 602 518Q698 518 773 546T897 621T981 739T1034 887T1063 1061L1184 1053Q1092 455 608 455Q338 455 181 636Q50
786 37 1013Q23 1241 135 1440Q254 1654 476 1748Q619 1808 791 1808Q1068 1808 1240 1631T1413 1163Q1413 1057 1395 934T1354 717T1313 507T1294 295Q1294 76 1430 76Q1495 76 1558 143T1673 321T1763 553T1831 803Q1967 1637 2068 1810Q2095 1802 2175 1784Q2152
1666 2094 1483T2030 1280Q1987 1082 1901 500Q1834 43 1759 -198Q1597 -719 1298 -719Q1193 -719 1131 -657T1069 -492Q1069 -378 1147 -297T1343 -213L1348 -315Q1263 -322 1209 -377T1155 -508Q1155 -580 1194 -618T1298 -657Q1344 -657 1386 -636T1461 -579T1526
-488T1580 -376T1627 -243T1666 -102T1699 46T1727 189T1752 326T1774 446Q1697 245 1602 116T1405 -14Q1176 -14 1176 295Q1176 392 1196 510T1240 722T1285 938T1305 1163Q1305 1415 1160 1578T780 1741Z" />
<glyph unicode="Z" glyph-name="Z" horiz-adv-x="1261" d="M750 1751Q641 1751 547 1708T387 1593T272 1428T201 1236T178 1038Q178 920 209 827T308 678T467 621Q549 621 611 671T702 795T731 954T692 1108T578 1212L651 1319Q736 1279 781 1186T827 977Q827
899 805 826T739 693T626 596T467 559Q339 559 246 629T108 813T63 1067Q63 1173 90 1277T174 1478T310 1649T504 1767T750 1812Q863 1812 958 1782T1121 1697T1237 1569T1308 1406T1331 1219Q1331 1089 1290 955T1169 691T963 445T674 242Q804 191 868 81T932
-166Q932 -265 899 -364T811 -542T674 -670T502 -719Q386 -719 322 -644T258 -457Q258 -347 318 -241T489 -72L549 -172Q447 -235 396 -318T344 -483Q344 -559 386 -608T502 -657Q594 -657 669 -583T783 -396T823 -164Q823 -77 802 -5T730 125T606 207Q595 203
566 191T523 173T485 163T438 158Q418 158 408 160L430 289H438Q523 289 592 270Q743 346 863 458T1057 698T1169 957T1208 1217Q1208 1328 1179 1424T1093 1594T948 1709T750 1751Z" />
<glyph unicode="[" glyph-name="bracketleft" horiz-adv-x="374" d="M285 1591Q362 1573 446 1573Q549 1573 621 1602L637 1524Q593 1495 496 1495Q412 1495 338 1511Q308 1276 190 598Q77 -51 63 -113Q124 -100 186 -100Q270 -100 344 -127Q327 -185 317 -209Q250
-182 154 -182Q72 -182 -20 -201Q27 15 102 461T222 1184T285 1591Z" />
<glyph unicode="\" glyph-name="backslash" horiz-adv-x="296" d="M223 -25L158 -31Q117 302 98 833T88 1475H158Q153 821 223 -25Z" />
<glyph unicode="]" glyph-name="bracketright" horiz-adv-x="370" d="M41 -201Q-38 -180 -119 -180Q-214 -180 -295 -209L-311 -133Q-262 -102 -170 -102Q-80 -102 -10 -121Q17 118 135 793Q244 1418 262 1505Q204 1491 139 1491Q52 1491 -18 1518Q-6 1553 8 1602Q73
1573 172 1573Q254 1573 346 1593Q278 1277 167 602T41 -201Z" />
<glyph unicode="^" glyph-name="asciicircum" horiz-adv-x="436" d="M240 1233L295 1229Q384 1086 420 991Q408 985 382 974T342 956Q304 1064 250 1161Q241 1151 209 1115T159 1058T114 1011T70 971Q46 996 23 1026Q96 1081 153 1137T240 1233Z" />
<glyph unicode="_" glyph-name="underscore" horiz-adv-x="333" d="M-10 -49H354L344 -115H-23L-10 -49Z" />
<glyph unicode="`" glyph-name="grave" horiz-adv-x="356" d="M63 1231L141 1282Q213 1143 311 1034L268 993Q264 996 257 1002T226 1029T179 1076T123 1143T63 1231Z" />
<glyph unicode="a" glyph-name="a" horiz-adv-x="679" d="M426 788L455 932H547Q456 482 426 252Q418 197 418 150Q418 76 442 76Q478 76 540 184T680 494Q688 494 702 485T717 473Q603 200 540 95T414 -10Q330 -10 330 201L340 299Q233 -10 92 -10Q-35 -10 -35
227Q-35 373 9 539T132 825T299 946Q409 946 426 788ZM303 864Q250 864 194 752T103 491T68 227Q68 82 129 82Q181 82 243 194T345 453T385 700Q385 776 364 820T303 864Z" />
<glyph unicode="b" glyph-name="b" horiz-adv-x="659" d="M659 494Q669 494 682 488T696 475V473Q656 369 592 302T449 215Q401 109 337 48T195 -14Q-2 -14 -2 397Q-2 663 73 1004T233 1532Q254 1577 286 1600T354 1624Q398 1624 428 1591T459 1501Q459 1243 162
932L143 836Q218 944 332 944Q399 944 444 897T510 775T530 604Q530 435 473 276Q590 316 659 494ZM287 883Q237 883 197 839T135 725T113 580Q113 520 127 467T172 369T254 295T375 264Q424 419 424 584Q424 714 390 798T287 883ZM195 45Q242 45 282 89T354 211Q256
220 191 275T94 418Q90 348 90 319Q90 45 195 45ZM389 1501Q389 1548 365 1548Q332 1548 279 1394T178 1014Q389 1271 389 1501Z" />
<glyph unicode="c" glyph-name="c" horiz-adv-x="548" d="M377 471L293 518Q371 646 371 764Q371 814 354 844T305 874Q250 874 198 791T116 585T86 346Q86 228 122 156T236 82Q322 85 394 183T549 494Q557 494 573 486T590 473L569 426Q537 347 509 288T443 169T368
71T284 10T184 -14Q84 -14 35 78T-14 319Q-14 460 26 603T144 846T311 946Q380 946 415 891T451 748Q451 606 377 471Z" />
<glyph unicode="d" glyph-name="d" horiz-adv-x="692" d="M426 805Q441 892 573 1612H670Q654 1481 545 890T436 209Q436 109 471 109Q513 109 567 207T692 494Q699 494 708 489T724 478T731 471Q551 -10 418 -10Q326 -10 326 172Q326 201 340 311Q288 158 228
72T88 -14Q25 -14 -5 51T-35 227Q-35 373 8 539T131 825T297 946Q403 946 426 805ZM301 864Q247 864 191 752T100 490T66 227Q66 82 127 82Q174 82 236 191T341 447T385 698Q385 771 364 817T301 864Z" />
<glyph unicode="e" glyph-name="e" horiz-adv-x="542" d="M229 82Q388 82 543 494Q551 494 565 486T580 473Q559 416 541 371T495 264T436 158T370 72T291 8T203 -14Q127 -14 77 32T5 151T-16 319Q-16 461 27 605T150 848T324 948Q380 948 410 913T440 821Q440
743 387 660T255 519T98 446Q88 379 88 328Q88 217 122 150T229 82ZM313 893Q251 893 192 774T104 500Q224 556 289 647T354 819Q354 893 313 893Z" />
<glyph unicode="f" glyph-name="f" horiz-adv-x="382" d="M63 -475Q32 -475 8 -465T-38 -429T-72 -353T-84 -229Q-84 86 29 679T231 1495Q256 1556 293 1589T367 1622Q407 1622 433 1590T459 1501Q459 1389 415 1227T307 910T188 641T94 457Q61 274 45 139Q137
158 231 249T383 494Q390 494 405 485T420 471Q277 156 86 90Q159 32 194 -48T229 -213Q229 -320 181 -397T63 -475ZM401 1499Q401 1546 379 1546Q340 1546 270 1280T125 618Q217 816 309 1083T401 1499ZM68 -414Q106 -414 134 -359T162 -227Q162 -148 131 -73T33
55Q8 -164 8 -246Q8 -414 68 -414Z" />
<glyph unicode="g" glyph-name="g" horiz-adv-x="655" d="M655 494Q667 494 680 487T692 471Q633 319 552 203T369 -20Q363 -53 354 -109T339 -203T322 -292T302 -380T279 -457T251 -526T216 -576T173 -611T121 -623Q66 -623 32 -584T-2 -477Q-2 -423 16 -373T72
-271T147 -179T241 -80Q256 -65 264 -57Q273 -12 282 42T302 161T319 262Q214 -8 88 -8Q26 -8 -4 54T-35 227Q-35 373 9 539T132 825T299 946Q394 946 416 819L440 934H547Q520 839 383 66Q569 271 655 494ZM303 864Q250 864 194 752T103 491T68 227Q68 82 129
82T259 229T373 569Q387 669 387 698Q387 771 366 817T303 864ZM68 -477Q68 -516 83 -536T121 -557Q176 -557 197 -442L250 -143Q161 -236 115 -313T68 -477Z" />
<glyph unicode="h" glyph-name="h" horiz-adv-x="665" d="M27 0H-76Q-76 1 -77 4T-78 10Q-78 87 -49 213Q-36 286 8 547T77 947T145 1261T225 1516Q249 1568 287 1592T367 1616Q451 1616 451 1518Q451 1468 440 1408T399 1268T349 1133T281 977T216 838T145 694L115
563Q147 636 181 698T254 817T337 907T420 940Q462 940 490 907T518 811Q518 739 482 613T411 360T375 164Q375 78 424 78Q506 78 666 494Q674 494 688 485T702 471L676 401Q519 -8 381 -10Q328 -10 296 30T264 145Q264 226 300 359T373 613T410 788Q410 856 373
856Q345 856 304 808T220 678T133 478T59 231Q36 58 27 0ZM387 1499Q387 1546 360 1546Q337 1546 312 1489T259 1311T210 1087T158 811Q230 977 304 1186T387 1499Z" />
<glyph unicode="i" glyph-name="i" horiz-adv-x="344" d="M88 934H197Q150 711 131 617T90 382T68 162Q68 78 104 78Q150 78 207 181T344 494Q353 494 367 487T381 473Q287 224 248 148Q177 11 100 -7Q86 -10 72 -10Q19 -10 -7 47T-33 203Q-33 275 -18 383T9 559T53
769T88 934ZM178 1083Q148 1083 133 1102T117 1149Q117 1187 139 1218T201 1249Q231 1249 246 1230T262 1180Q262 1143 239 1113T178 1083Z" />
<glyph unicode="j" glyph-name="j" horiz-adv-x="358" d="M358 494Q368 494 382 488T395 471Q337 320 257 204T74 -23L35 -242Q21 -323 6 -382T-34 -501T-94 -591T-174 -623Q-229 -623 -263 -584T-297 -477Q-297 -454 -293 -431T-283 -387T-265 -343T-244 -303T-215
-261T-184 -222T-148 -181T-111 -142T-70 -99T-29 -57L80 586L37 471Q32 471 25 472T9 479T0 494L14 530Q33 579 49 624T81 718T104 790T126 869T145 934H250Q233 875 88 63Q177 164 244 265T358 494ZM-227 -477Q-227 -516 -212 -536T-174 -557Q-158 -557 -145
-545T-120 -507T-101 -454T-85 -384T-71 -308T-57 -224T-43 -141Q-90 -193 -115 -223T-170 -299T-213 -388T-227 -477ZM227 1069Q197 1069 182 1088T166 1135Q166 1173 189 1204T250 1235Q280 1235 295 1215T311 1165Q311 1128 288 1099T227 1069Z" />
<glyph unicode="k" glyph-name="k" horiz-adv-x="575" d="M25 0H-80L-72 76Q-69 128 -59 187T-36 302T-20 367Q11 568 34 708T90 1025T159 1330T229 1526Q250 1574 286 1595T360 1616Q449 1616 449 1518Q449 1463 427 1382T352 1178T260 967T141 713L115 588Q186
757 254 851T395 946Q483 946 483 846Q483 742 394 595T197 391Q223 353 243 274T281 139T324 84Q367 84 436 198T575 494Q581 494 590 489T605 478T612 471Q603 442 590 412Q554 321 524 255T455 123T378 24T299 -10T233 18T189 93T163 187T141 287T119 365Q115
365 107 364T94 362Q91 362 86 363T78 365L25 0ZM360 862Q275 862 106 498L96 444Q130 444 150 432Q229 480 309 613T389 819Q389 859 360 862ZM379 1499Q379 1546 358 1546Q315 1546 267 1362T162 852Q370 1345 379 1499Z" />
<glyph unicode="l" glyph-name="l" horiz-adv-x="393" d="M143 76Q193 76 253 180T393 494Q402 494 415 487T428 473Q331 211 261 99T109 -14Q63 -14 36 27T-2 138T-12 315Q-6 536 51 852Q116 1215 201 1419T367 1624Q446 1624 446 1475Q446 1269 342 999T102
526Q82 349 82 248Q82 76 143 76ZM395 1481Q395 1496 395 1504T392 1524T385 1540T371 1546Q339 1546 290 1403T196 1050T119 631Q159 706 198 792T286 1000T365 1250T395 1481Z" />
<glyph unicode="m" glyph-name="m" horiz-adv-x="944" d="M6 0H-104Q-104 4 -97 46T-73 169T-35 322Q42 738 74 934H182Q177 891 139 692Q168 756 189 796T238 875T298 932T367 950Q412 950 434 913T457 815Q457 763 440 672Q496 803 554 872T692 942Q737 942
767 909T797 811Q797 724 725 479T653 150Q653 78 702 78T809 185T944 494Q952 494 966 485T981 471L958 412Q925 322 895 255T826 123T746 25T659 -10Q603 -10 574 30T545 147Q545 218 567 317T616 498T665 663T688 788Q688 866 641 866Q587 866 520 746T403 420Q360
177 317 0H201Q348 675 348 782Q348 858 311 858Q262 858 199 730T84 401L6 0Z" />
<glyph unicode="n" glyph-name="n" horiz-adv-x="653" d="M8 0H-102Q-78 174 -33 313Q48 774 68 934H178L129 649Q162 718 186 761T245 851T318 919T401 942Q451 942 478 908T506 811Q506 724 434 481T362 154Q362 78 412 78Q459 78 518 186T653 494Q662 494 676
486T690 473L668 414Q634 323 604 256T536 124T455 25T369 -10Q317 -10 285 28T252 135Q252 216 288 351T360 611T397 788Q397 864 350 864Q298 864 219 732T84 406L8 0Z" />
<glyph unicode="o" glyph-name="o" horiz-adv-x="653" d="M653 494Q664 494 678 488T690 473Q612 266 465 223Q413 118 339 52T188 -14Q103 -14 52 44T-11 200T-11 420T41 676L104 659Q127 782 196 863T367 944Q445 944 492 881T550 720T545 506T487 283Q540 308
579 357T653 494ZM362 891Q315 891 274 857T209 767T169 646T161 514T189 392T258 303T373 268Q426 402 447 547T448 791T362 891ZM188 45Q236 45 278 90T350 211Q266 218 208 267T125 387T98 543Q89 492 83 446T72 338T71 229T86 137T123 69T188 45Z" />
<glyph unicode="p" glyph-name="p" horiz-adv-x="659" d="M61 934H160L127 715Q172 823 226 885T338 948Q413 948 450 875T487 682Q487 515 424 327T266 47Q386 79 488 196T659 494Q667 494 681 485T696 471L672 410Q595 219 463 104T188 -14Q118 -14 80 18T27
113L-94 -612H-190Q-175 -480 -154 -364T-118 -198L-104 -147Q50 800 61 934ZM86 477Q83 458 73 407T57 319T51 250Q51 82 137 82Q199 82 256 188T346 436T379 694Q379 769 359 816T305 864Q250 864 190 756T86 477Z" />
<glyph unicode="q" glyph-name="q" horiz-adv-x="684" d="M449 934H557Q545 875 475 553T373 68Q485 150 555 246T684 494Q691 494 706 485T721 471L696 416Q638 286 561 188T373 23Q443 -35 477 -128T512 -324Q512 -454 466 -537T352 -621Q277 -621 248 -556T219
-334Q219 -312 220 -288T224 -234T230 -181T239 -121T248 -63T259 3T271 66T284 136T297 203Q204 -14 88 -14Q25 -14 -5 51T-35 227Q-35 373 9 539T132 825T299 946Q403 946 420 799Q425 826 435 872T449 934ZM303 864Q250 864 194 752T103 491T68 227Q68 82 129
82Q170 82 231 182T340 431T387 698Q387 771 366 817T303 864ZM358 -559Q399 -559 421 -497T444 -332Q444 -244 422 -163T354 -29Q307 -269 307 -410Q307 -559 358 -559Z" />
<glyph unicode="r" glyph-name="r" horiz-adv-x="483" d="M205 137Q205 80 246 80Q325 80 483 494Q491 494 505 487T520 473Q425 225 388 152Q318 15 243 -6Q227 -10 211 -10Q102 -10 102 125Q102 196 150 338T199 543Q199 577 191 612T175 667T150 723T127 772Q82
594 37 473Q0 479 0 494Q57 658 92 852Q72 896 72 977Q72 1084 109 1219L205 1192Q203 1080 168 905L156 864Q167 846 198 804T248 733T284 657T301 561Q301 480 253 333T205 137Z" />
<glyph unicode="s" glyph-name="s" horiz-adv-x="485" d="M-61 170L33 174Q33 130 58 100T127 70Q183 70 219 124T256 254Q256 336 205 511T139 766Q94 620 37 473Q0 479 0 494Q114 811 125 846Q113 914 113 1020Q113 1095 150 1221L236 1204Q219 1023 184 909Q188
840 217 749T279 584T338 420T365 264Q365 241 358 217Q418 317 485 494Q493 494 507 486T522 473Q515 457 498 414T469 345T438 275T401 202T359 136T309 76T254 30T189 -3T117 -14Q41 -14 -13 33T-61 170Z" />
<glyph unicode="t" glyph-name="t" horiz-adv-x="393" d="M-12 934H66Q95 1086 123 1183T178 1329T229 1393T285 1409Q365 1409 365 1274Q365 1163 281 934H354L342 868H256Q205 737 102 526Q82 349 82 248Q82 76 143 76Q193 76 253 180T393 494Q402 494 415 487T428
473V469Q331 209 261 98T109 -14Q63 -14 36 27T-2 138T-12 315Q-6 536 51 852Q51 855 52 860T53 868H-25L-12 934ZM313 1280Q313 1306 308 1318T285 1331Q234 1331 166 934H231Q313 1158 313 1280ZM125 664L207 868H156L125 664Z" />
<glyph unicode="u" glyph-name="u" horiz-adv-x="661" d="M88 934H197Q195 925 157 751T91 417T63 168Q63 76 109 76Q128 76 157 111T216 203T274 342T317 508Q335 610 406 934H512Q504 897 476 757T438 568T412 424T389 269T383 162Q383 78 422 78Q466 78 523
180T662 494Q670 494 684 487T698 473Q603 225 566 152Q496 15 421 -6Q405 -10 389 -10Q289 -10 289 205Q289 211 290 224T291 246Q246 129 189 60T74 -10Q-35 -10 -35 201Q-35 287 -18 409T19 624T62 817T88 934Z" />
<glyph unicode="v" glyph-name="v" horiz-adv-x="628" d="M96 0Q68 409 63 549L37 473Q0 479 0 494Q43 631 59 700Q59 830 66 934H152Q158 828 125 727Q141 404 162 113Q240 225 299 365Q254 465 254 637Q254 744 276 842T341 1007T440 1073Q491 1073 517 1027T543
893Q543 675 379 332Q408 295 451 295Q508 295 550 345T629 494Q638 494 652 487T666 473Q630 362 572 308T444 254Q392 254 356 293Q255 80 166 0H96ZM453 954Q453 1018 424 1018Q377 1018 342 912T305 672Q303 501 326 428Q384 575 418 719T453 954Z" />
<glyph unicode="w" glyph-name="w" horiz-adv-x="921" d="M80 934H188Q146 715 128 616T89 374T68 164Q68 78 96 78Q145 78 212 200T322 506Q343 649 399 934H506Q501 905 486 826T465 713T446 610T428 504T414 413T401 323T394 250T391 184Q391 76 430 76Q461
76 507 153T602 352Q565 450 565 580Q565 804 613 938T735 1073Q778 1073 801 1035T825 926Q825 803 785 638T680 324Q702 295 743 295Q846 295 922 494Q931 494 944 487T958 473Q922 367 868 311T743 254Q686 254 659 281Q598 150 533 70T410 -10Q354 -10 327
47T299 207Q299 229 303 283Q254 152 194 71T78 -10Q46 -10 25 8T-8 61T-24 140T-29 244Q-29 309 -17 402T6 560T44 755T80 934ZM715 1018Q676 1018 644 889T612 571Q612 472 627 416Q678 559 711 705T745 952Q745 981 737 999T715 1018Z" />
<glyph unicode="x" glyph-name="x" horiz-adv-x="727" d="M0 489Q95 736 157 839T291 942Q330 942 356 915T394 837T411 729T416 596Q443 672 465 724T519 831T587 915T664 944T735 915Q704 842 696 827Q677 844 647 844Q609 844 566 790T487 662T416 494Q401
350 401 250Q401 74 461 74Q569 74 727 494Q735 494 751 485T768 473L741 410Q648 184 578 88T420 -8Q356 -8 331 58T305 252Q305 259 306 272T307 293Q239 143 182 67T55 -10Q-39 -10 -39 111Q-39 219 31 328L104 291Q79 257 62 209T45 123Q45 59 88 59Q114 59
141 84T197 163T250 268T307 403Q308 445 312 538T317 674Q317 764 305 812T260 860Q219 860 170 776T37 471Q0 475 0 489Z" />
<glyph unicode="y" glyph-name="y" horiz-adv-x="612" d="M612 494Q625 494 639 488T653 473Q595 321 513 205T326 -20Q320 -53 311 -109T296 -203T279 -292T259 -380T236 -457T208 -526T173 -576T130 -611T78 -623Q23 -623 -11 -584T-45 -477Q-45 -424 -27 -373T32
-268T107 -176T204 -74Q215 -63 221 -57Q236 18 266 199Q225 105 174 48T74 -10Q43 -10 22 7T-11 57T-28 133T-33 233Q-29 342 -3 492T55 786T88 934H197Q195 921 156 749T90 420T63 168Q63 78 109 78Q161 78 224 222T328 561Q373 827 397 934H504Q477 839 340
66Q526 271 612 494ZM25 -477Q25 -516 40 -536T78 -557Q133 -557 154 -442L207 -143Q118 -235 72 -312T25 -477Z" />
<glyph unicode="z" glyph-name="z" horiz-adv-x="589" d="M41 -10L43 51Q58 56 88 56T123 55Q192 128 252 339T313 705Q313 856 236 856Q219 856 204 847T175 818T150 775T125 715T100 645T70 562T37 471Q0 475 0 489Q15 532 33 588T64 684T93 767T124 840T158
894T201 932T254 944Q340 944 383 867T426 666Q426 494 358 307T186 33Q218 12 246 -37Q300 23 337 67T424 179T515 326T590 494Q608 494 621 484Q627 479 627 473Q593 381 550 300T452 148T362 33T266 -74Q301 -161 301 -262Q301 -405 236 -511T80 -618Q32 -618
3 -581T-27 -483Q-27 -429 -11 -378T39 -276T103 -190T182 -100Q165 -24 133 2Q105 -12 63 -12Q47 -12 41 -10ZM84 -565Q133 -565 166 -469T199 -244Q199 -242 193 -158Q33 -337 33 -489Q33 -565 84 -565Z" />
<glyph unicode="{" glyph-name="braceleft" horiz-adv-x="342" d="M94 651L109 739Q166 739 188 729Q238 774 238 944Q238 984 235 1072T231 1204Q231 1269 236 1320T256 1422T298 1507T367 1562T471 1583Q499 1583 512 1575L483 1481Q465 1487 449 1487Q420 1487
397 1476T360 1444T335 1396T320 1334T313 1263T311 1186Q311 1156 312 1096T313 1006Q313 753 240 690Q258 663 258 621Q258 545 213 414T122 159T76 -25Q76 -106 150 -106Q167 -106 188 -100L201 -195Q189 -201 150 -201Q103 -201 72 -187T26 -146T6 -88T0 -16Q0
57 47 181T142 424T190 600Q190 638 174 657Q144 649 94 651Z" />
<glyph unicode="|" glyph-name="bar" horiz-adv-x="344" d="M287 1477H354Q223 700 84 0H18Q60 237 153 736T287 1477Z" />
<glyph unicode="}" glyph-name="braceright" horiz-adv-x="399" d="M371 731L356 641Q304 643 274 651Q225 604 225 430Q225 392 228 307T231 178Q231 113 226 63T207 -39T167 -124T99 -179T-4 -201Q-32 -201 -45 -193Q-32 -144 -16 -98Q2 -104 16 -104Q52 -104
78 -86T118 -41T140 32T150 118T152 217V352Q152 490 167 572T223 692Q207 715 207 760Q207 820 235 916T298 1096T360 1269T389 1407Q389 1489 315 1489Q298 1489 276 1483L264 1577Q276 1583 315 1583Q393 1583 429 1540T465 1427Q465 1358 435 1260T370 1082T304
915T274 780Q274 741 289 723Q315 731 371 731Z" />
<glyph unicode="~" glyph-name="asciitilde" horiz-adv-x="798" d="M51 565L-29 649Q17 710 81 734T229 758H262Q314 754 426 735T590 715Q672 715 717 732T801 786L895 662Q806 565 672 565Q598 565 451 607T238 649Q121 649 51 565Z" />
</font>
</defs>
</svg>
