<?xml version="1.0" encoding="utf-8"?>
<!-- Generator: Adobe Illustrator 16.0.0, SVG Export Plug-In . SVG Version: 6.00 Build 0)  -->
<!DOCTYPE svg PUBLIC "-//W3C//DTD SVG 1.1//EN" "http://www.w3.org/Graphics/SVG/1.1/DTD/svg11.dtd">
<svg version="1.1" id="Calque_1" xmlns="http://www.w3.org/2000/svg" xmlns:xlink="http://www.w3.org/1999/xlink" x="0px" y="0px"
	 width="539.837px" height="153.744px" viewBox="-70.852 -389.738 539.837 153.744"
	 enable-background="new -70.852 -389.738 539.837 153.744" xml:space="preserve">
<g>
	<path fill="#B49663" d="M75.092-370.839c6.6-0.6,13.35-1.05,20.549-1.05c34.349,0,50.698,15.899,52.648,33.898
		c7.649-1.8,14.849-2.7,22.049-2.7c5.85,0,11.549,0.6,17.249,1.95l-1.05,3.75c-5.85-1.95-12-2.7-18.299-2.7
		c-6.601,0-13.2,0.9-19.65,2.55v0.9c0,22.649-21.749,47.248-58.348,47.248c-5.25,0-9.45-0.6-13.049-1.5
		c-25.199,29.099-45.448,52.498-101.246,52.498c-31.049,0-40.648-7.2-40.648-14.399c0-7.35,9.75-14.7,16.649-14.7
		c2.25,0,3.6,1.35,3.6,3.45c0,3.899-4.65,10.049-15.6,11.849c0,0-1.35,0.45-1.35,1.8c0,7.799,21.299,9.449,25.499,9.449
		c37.949,0,73.047-26.999,106.496-52.948c-1.2-0.75-2.25-1.65-3-2.55c-18.899,11.399-40.198,20.399-72.447,20.399
		c-45.298,0-65.997-20.399-65.997-44.099c0-32.849,39.748-71.997,108.746-71.997C58.142-389.738,70.292-381.789,75.092-370.839z
		 M5.494-305.742c-12.899,0-18.899-5.25-18.899-12.75c0-16.649,30.449-44.848,83.997-51.748c-1.8-10.35-11.7-17.849-33.899-17.849
		c-66.297,0-105.896,38.248-105.896,70.347c0,22.949,20.249,42.749,65.847,42.749c30.299,0,51.148-8.85,69.897-20.249
		c-1.5-2.1-2.1-4.35-2.1-6.75c0-8.7,9.6-17.999,23.999-17.999c4.5,0,9,1.2,11.7,3.3c10.5-6.6,21.749-12.75,35.249-17.399
		c3.15-1.05,6.149-2.1,9.299-2.85c-0.6-17.849-15.299-33.749-50.398-33.749c-6.6,0-12.75,0.45-18.749,1.05
		c1.35,3.3,2.1,7.049,2.1,10.799C77.641-334.84,51.693-305.742,5.494-305.742z M2.945-307.841c31.349,0,67.947-35.249,67.947-58.948
		c0-0.75-0.15-1.65-0.15-2.4c-52.048,6.9-82.347,35.549-82.347,51.148C-11.605-311.891-6.955-307.841,2.945-307.841z
		 M93.541-315.341c0,0-1.65-3.3-5.7-3.3c-13.199,0-21.899,8.25-21.899,16.2c0,2.25,0.6,4.5,2.1,6.45
		c8.55-5.25,16.95-10.95,25.499-16.649V-315.341z M68.942-294.942c0.9,0.9,1.8,1.65,3,2.4c7.5-5.7,15-11.55,22.349-16.799
		c-0.3-0.6-0.45-1.2-0.6-1.8C85.441-305.742,77.491-300.042,68.942-294.942z M96.391-307.091c-6.6,5.7-12.6,11.549-18,17.399
		c3.3,0.9,7.5,1.35,12.45,1.35c30.749,0,52.498-23.699,53.698-45.748c-12.899,3.75-25.049,10.05-34.499,16.5
		c-2.55,1.8-5.1,3.6-7.35,5.399c-0.15,4.35-4.05,5.1-5.4,5.1H96.391z M101.941-314.741c6.6-4.5,13.049-8.55,19.649-12
		c-7.35,3.3-14.099,7.05-20.399,10.95L101.941-314.741z"/>
	<path fill="#B49663" d="M143.644-279.042c-6.75,6.6-17.399,17.399-27.149,26.999c-5.1,5.1-7.5,8.699-7.5,10.649
		c0,0.9,0.45,1.35,1.65,1.35c1.95,0,5.7-1.35,10.95-4.65c7.05-4.5,16.5-10.95,26.999-17.85l0.6,1.2
		c-10.35,6.75-19.5,13.199-27.149,17.999c-5.25,3.3-10.35,4.95-13.95,4.95c-3.6,0-5.85-1.5-5.85-4.5c0-2.85,2.1-7.05,6.9-12.299
		l4.35-4.5c-12.899,9.45-31.799,22.049-41.098,22.049c-3.15,0-4.65-1.95-4.65-5.25c0-20.999,36.898-45.148,68.397-45.148
		c8.4,0,16.5,1.8,23.249,5.7l-0.75,0.9c-5.7-2.55-11.549-3.6-17.399-3.6c-33.899,0-68.697,35.699-68.697,44.398
		c0,0.9,0.45,1.35,1.5,1.35c8.7,0,32.398-16.8,45.148-26.249c4.5-4.65,9.15-9.15,13.649-13.649c6.75,0,10.35-0.75,10.35-0.75
		L143.644-279.042z"/>
	<path fill="#B49663" d="M206.343-261.343c-5.25,3.75-8.7,5.1-10.95,5.1c-3.899,0-5.549-2.85-5.549-6.75c0-2.1,0.449-4.8,1.35-7.35
		c-8.25,5.1-24.149,15.899-33.749,25.649l-6.3,6.45c-6.75,0-13.649,0.75-13.649,0.75l-0.45-0.9
		c9.6-7.05,44.699-36.749,44.699-43.198c0-0.45-0.301-0.75-0.9-0.75c-1.95,0-16.949,10.799-24.899,16.199l-8.399,5.7l-1.05-0.9
		l9.149-6.15c12.449-8.549,24.749-17.549,29.849-17.549c2.101,0,2.851,1.35,2.851,3c0,3.45-5.25,10.35-20.399,26.399
		c7.35-5.85,16.649-12.899,24.448-17.549c3-6.6,8.4-12.75,14.1-12.75c2.1,0,3.301,1.05,3.301,2.4c0,2.4-2.551,6.15-8.7,8.25
		c-5.85,1.95-9.45,8.55-9.45,13.2c0,2.7,1.201,4.65,3.9,4.65c1.8,0,4.949-1.35,10.199-5.1L206.343-261.343z"/>
	<path fill="#B49663" d="M285.692-322.541l0.449,0.9c-5.55,4.05-12.299,9.449-19.499,15.599c7.8,2.25,15.449,3.9,23.099,3.9
		c11.4,0,22.799-3.75,34.799-14.85l3.301,4.05c-12.6,9.9-24.3,13.35-35.699,13.35c-9.149,0-18.149-2.1-27.299-4.95
		c-17.549,14.549-38.248,32.849-54.298,47.098c-3.75,3.3-11.85,11.399-11.85,15.299c0,1.8,1.05,2.4,2.7,2.4
		c3.6,0,9.899-3.15,12.749-4.95c7.05-4.5,16.499-10.95,26.999-17.85l0.6,1.2c-10.35,6.75-19.349,13.35-27.148,17.999
		c-4.5,2.7-10.5,5.4-14.699,5.4c-3,0-5.1-1.35-5.1-4.95c0-6,7.35-16.649,11.699-20.999c16.799-16.649,34.498-31.049,48.898-43.798
		c-14.1-4.8-28.949-9.75-45.748-9.75c-10.2,0-21.15,1.8-33.149,6.75l-1.35-1.5c12.3-5.1,23.698-6.899,34.198-6.899
		c17.699,0,33.148,5.25,47.698,10.049c4.95-4.35,9.6-8.7,13.649-12.75C277.442-321.791,285.692-322.541,285.692-322.541z"/>
	<path fill="#B49663" d="M289.741-262.543l0.601,1.2c-12.15,7.95-22.8,15.75-31.199,20.249c-5.4,2.85-12.449,4.95-18.149,4.95
		c-5.85,0-10.499-2.25-10.499-7.949c0-12.15,21.898-38.699,50.998-38.699c2.85,0,4.049,0.9,4.049,2.4
		c0,4.8-13.799,15.299-33.748,18.299c-8.1,7.95-14.55,16.199-14.55,19.949c0,3.15,2.55,4.2,6,4.2c4.8,0,11.399-2.1,15.3-4.35
		C265.742-246.344,276.992-254.144,289.741-262.543z M281.492-281.592c-6.301,0-18.449,8.85-28.5,18.299
		c15.9-2.4,31.049-13.05,31.049-16.95C284.041-281.143,283.291-281.592,281.492-281.592z"/>
	<path fill="#B49663" d="M324.09-273.643c0-2.55,3.3-6.3,8.85-6.3c0.75,0,1.5,0,2.25,0.15c0.15-0.75,0.3-1.2,0.3-1.8
		c0-1.95-1.2-2.7-2.85-2.7c-11.999,0-45.749,31.349-45.749,42.448c0,2.4,1.5,3.9,5.25,3.9c4.801,0,11.4-2.1,15.3-4.35
		c7.2-4.05,18.449-11.85,31.198-20.25l0.601,1.2c-12.149,7.95-22.8,15.75-31.198,20.249c-5.4,2.85-12.45,4.95-18.15,4.95
		c-7.199,0-10.35-3-10.35-7.649c0-13.95,28.199-41.999,52.049-41.999c3.75,0,5.25,1.8,5.25,4.2c0,4.2-4.801,10.199-9.9,10.199
		C324.99-271.393,324.09-272.293,324.09-273.643z"/>
	<path fill="#B49663" d="M468.985-357.939c-62.848,10.2-85.047,59.248-123.295,98.846c-0.6,0.75-1.051,1.5-1.8,2.25
		c15.149-10.05,40.498-26.399,48.448-26.399c2.249,0,3.749,0.9,3.749,3.45c0,14.399-34.048,33.749-34.048,39.448
		c0,1.65,0.75,2.4,2.25,2.4c5.549,0,21.148-11.1,41.548-24.599l0.6,1.2c-19.949,13.199-36.298,25.199-44.098,25.199
		c-3.149,0-5.55-2.55-5.55-7.2c0-10.049,35.398-33.599,35.398-37.798c0-0.3-0.3-0.45-0.75-0.45
		c-7.949,0-36.898,19.049-51.447,29.099c-7.65,7.35-18.75,14.699-27.449,14.699c-0.6,0-1.65,0-1.65-0.45c0-0.15,0.15-0.45,0.6-0.75
		c52.049-39.898,82.797-106.196,156.895-121.795L468.985-357.939z"/>
</g>
</svg>
