<?xml version="1.0" encoding="utf-8"?>
<!-- Generator: Adobe Illustrator 17.0.0, SVG Export Plug-In . SVG Version: 6.00 Build 0)  -->
<!DOCTYPE svg PUBLIC "-//W3C//DTD SVG 1.1//EN" "http://www.w3.org/Graphics/SVG/1.1/DTD/svg11.dtd">
<svg version="1.1" id="Layer_1" xmlns="http://www.w3.org/2000/svg" xmlns:xlink="http://www.w3.org/1999/xlink" x="0px" y="0px"
	 width="90.255px" height="73.496px" viewBox="-3.433 -102.087 90.255 73.496"
	 enable-background="new -3.433 -102.087 90.255 73.496" xml:space="preserve">
<g>
	<path fill="#FFFFFF" d="M86.822-93.323c-2.46,3.589-5.535,6.818-9.226,9.687v2.152c0,6.15-1.153,12.377-3.459,18.682
		c-2.306,6.304-5.689,11.993-10.148,17.067c-4.459,5.074-9.943,9.202-16.452,12.377c-6.511,3.179-14.019,4.767-22.525,4.767
		c-5.228,0-10.225-0.743-14.992-2.229c-4.766-1.485-9.251-3.561-13.454-6.227c0.716,0.103,1.435,0.154,2.153,0.154
		c0.716,0,1.484,0,2.306,0c8.814,0,16.452-2.614,22.91-7.842c-4.101-0.101-7.714-1.357-10.84-3.767
		c-3.128-2.407-5.254-5.458-6.381-9.148c1.23,0.308,2.357,0.461,3.383,0.461c0.922,0,1.768-0.051,2.537-0.154
		c0.769-0.101,1.562-0.255,2.383-0.461c-4.306-0.922-7.868-3.049-10.687-6.381c-2.82-3.33-4.228-7.25-4.228-11.763v-0.153
		c1.23,0.615,2.537,1.129,3.921,1.537c1.384,0.411,2.945,0.615,4.689,0.615c-2.667-1.639-4.716-3.791-6.15-6.458
		c-1.437-2.664-2.152-5.636-2.152-8.917c0-3.279,0.819-6.405,2.46-9.379c4.613,5.742,10.198,10.328,16.759,13.761
		c6.559,3.436,13.685,5.305,21.373,5.612c-0.308-1.23-0.461-2.561-0.461-3.998c0-2.561,0.485-4.998,1.46-7.304
		c0.973-2.306,2.307-4.305,3.998-5.997s3.637-3.022,5.843-3.998c2.203-0.973,4.586-1.461,7.149-1.461
		c2.768,0,5.278,0.539,7.534,1.615c2.253,1.076,4.252,2.486,5.997,4.228c2.049-0.307,4.099-0.87,6.15-1.691
		c2.049-0.819,3.945-1.691,5.689-2.614c-1.641,4.305-4.358,7.688-8.149,10.148c1.946-0.204,3.792-0.562,5.536-1.076
		C83.49-91.99,85.182-92.604,86.822-93.323z"/>
</g>
</svg>
