<svg version="1.1" xmlns="http://www.w3.org/2000/svg" xmlns:xlink="http://www.w3.org/1999/xlink" x="0px" y="0px" width="18px" height="11px" viewBox="0 0 35.5 22.05" enable-background="new 0 0 35.5 22.05" xml:space="preserve">
    <g>
        <path fill="#b59663" d="M10.65,0c2.667,0,4.583,0.784,5.75,2.35c0.667,0.934,1,2.034,1,3.3c0,1.4-0.367,2.484-1.1,3.25c-0.167,0.268-0.383,0.5-0.65,0.7c-0.267,0.2-0.583,0.384-0.95,0.55c0.533,0.234,1.017,0.509,1.45,0.825c0.433,0.317,0.783,0.708,1.05,1.175c0.6,0.967,0.9,2.05,0.9,3.25c0,1.2-0.334,2.367-1,3.5c-0.467,0.7-1,1.268-1.6,1.7c-0.333,0.267-0.708,0.492-1.125,0.675c-0.417,0.184-0.859,0.359-1.325,0.525c-0.467,0.067-0.958,0.125-1.475,0.175C11.058,22.025,10.5,22.05,9.9,22.05H0V0H10.65z M12.1,8.1C12.7,7.767,13,7.134,13,6.2c0-1-0.4-1.683-1.2-2.05c-0.367-0.1-0.75-0.183-1.15-0.25c-0.4-0.066-0.884-0.1-1.45-0.1H5.05v4.85h4.7c0.5,0,0.933-0.05,1.3-0.15C11.417,8.4,11.766,8.267,12.1,8.1z M13.45,15.05c0-1.133-0.483-1.917-1.45-2.35c-0.234-0.167-0.534-0.267-0.9-0.3c-0.367-0.033-0.784-0.05-1.25-0.05h-4.8v5.85h4.7c1,0,1.75-0.133,2.25-0.4C12.966,17.367,13.45,16.45,13.45,15.05z M22,7.3c1.4-1.433,3.283-2.15,5.65-2.15c1.333,0,2.566,0.234,3.7,0.7c0.533,0.267,1.025,0.583,1.475,0.95c0.45,0.367,0.858,0.833,1.225,1.4c0.3,0.5,0.558,1.017,0.775,1.55c0.217,0.534,0.375,1.117,0.475,1.75c0.066,0.367,0.117,0.809,0.15,1.325c0.033,0.517,0.05,1.108,0.05,1.775H23.95c0,0.8,0.15,1.475,0.45,2.025c0.3,0.55,0.7,0.975,1.2,1.275c0.566,0.434,1.316,0.65,2.25,0.65c0.866,0,1.633-0.25,2.3-0.75c0.366-0.233,0.65-0.583,0.85-1.05h4.2c-0.1,0.967-0.6,1.917-1.5,2.85c-0.667,0.767-1.508,1.333-2.525,1.7c-1.017,0.367-2.159,0.55-3.425,0.55c-2.1,0-3.967-0.616-5.6-1.85c-1.567-1.333-2.35-3.466-2.35-6.4C19.8,10.934,20.533,8.833,22,7.3z M31.95,0.9v2.25h-8.8V0.9H3195zM30.1,9.35c-0.734-0.533-1.55-0.8-2.45-0.8c-1.1,0-1.934,0.3-2.5,0.9c-0.534,0.633-0.9,1.45-1.1,2.45h7.1C31.05,10.867,30.7,10.017,30.1,9.35z"/>
    </g>
</svg>	