<?xml version="1.0" encoding="utf-8"?>
<!-- Generator: Adobe Illustrator 17.0.0, SVG Export Plug-In . SVG Version: 6.00 Build 0)  -->
<!DOCTYPE svg PUBLIC "-//W3C//DTD SVG 1.1//EN" "http://www.w3.org/Graphics/SVG/1.1/DTD/svg11.dtd">
<svg version="1.1" id="Calque_1" xmlns="http://www.w3.org/2000/svg" xmlns:xlink="http://www.w3.org/1999/xlink" x="0px" y="0px"
	 width="141.801px" height="103.218px" viewBox="0 -180.116 141.801 103.218" enable-background="new 0 -180.116 141.801 103.218"
	 xml:space="preserve">
<g>
	<path d="M28.032-132.36h-2.754l7.601-17.701h0.153l7.626,17.701h-2.882l-0.995-2.423c0,0-7.728,0-7.754,0L28.032-132.36z
		 M32.929-144.067l-2.882,6.861h5.713C35.786-137.206,32.929-144.067,32.929-144.067z"/>
	<path d="M46.905-143.761v11.401h-2.551v-17.599h0.204l11.121,11.656v-11.401h2.551v17.599h-0.204L46.905-143.761z"/>
	<path d="M64.222-136.926c0.791,1.531,2.142,2.347,3.928,2.347c1.836,0,3.061-0.867,3.061-2.27c0-1.632-1.224-2.194-2.755-2.882
		l-1.199-0.536c-2.551-1.122-4.285-2.449-4.285-5.152c0-2.653,1.964-4.515,4.82-4.515c2.219,0,3.852,0.893,4.948,2.729l-2.066,1.352
		c-0.663-1.122-1.53-1.683-2.831-1.683c-1.403,0-2.219,0.816-2.219,2.015c0,1.377,0.842,1.913,2.729,2.755l1.199,0.536
		c2.627,1.173,4.362,2.372,4.362,5.305c0,3.188-2.449,4.795-5.739,4.795c-2.933,0-5.075-1.428-6.249-3.647L64.222-136.926z"/>
	<path d="M83.987-149.704h4.897c5.662,0,9.131,3.545,9.131,8.672s-3.443,8.672-9.131,8.672h-4.897V-149.704z M88.731-134.783
		c4.489,0,6.453-2.576,6.453-6.249s-1.964-6.249-6.453-6.249h-2.015v12.498H88.731z"/>
	<path d="M102.222-149.704h11.044v2.423h-8.315v7.193h7.371v2.372h-7.371v2.933h8.672v2.423h-11.401
		C102.222-132.36,102.222-149.704,102.222-149.704z"/>
</g>
<g>
	<g>
		<path d="M10.101-114.649H0v-4.75h25.551v4.75h-10.1v29.252h-5.35V-114.649z"/>
		<path d="M23.551-117.399v0.75H15.45h-2v2v27.252H12.1v-27.252v-2h-2H2v-0.75L23.551-117.399 M25.551-119.399H0v4.75h10.101v29.252
			h5.35v-29.252h10.101L25.551-119.399L25.551-119.399z"/>
	</g>
	<g>
		<path d="M31.8-102.398c0-10.051,7.8-17.451,17.551-17.451s17.551,7.4,17.551,17.451s-7.801,17.451-17.551,17.451
			S31.8-92.347,31.8-102.398z M61.352-102.398c0-7.201-4.95-12.601-12.001-12.601c-7.05,0-12,5.4-12,12.601
			c0,7.2,4.95,12.601,12,12.601S61.352-95.198,61.352-102.398z"/>
		<path d="M49.351-117.849c8.866,0,15.551,6.643,15.551,15.451s-6.686,15.451-15.551,15.451S33.8-93.59,33.8-102.398
			S40.485-117.849,49.351-117.849 M49.351-87.797c8.113,0,14.001-6.14,14.001-14.601c0-8.46-5.888-14.601-14.001-14.601
			c-8.112,0-14,6.141-14,14.601C35.35-93.938,41.238-87.797,49.351-87.797 M49.351-119.849c-9.75,0-17.551,7.4-17.551,17.451
			s7.8,17.451,17.551,17.451s17.551-7.4,17.551-17.451S59.101-119.849,49.351-119.849L49.351-119.849z M49.351-89.797
			c-7.05,0-12-5.4-12-12.601c0-7.201,4.95-12.601,12-12.601c7.051,0,12.001,5.4,12.001,12.601
			C61.352-95.198,56.401-89.797,49.351-89.797L49.351-89.797z"/>
	</g>
	<g>
		<path d="M77.45-97.397v-22.002h5.35v21.701c0,5.45,2.7,7.9,7.65,7.9c4.9,0,7.601-2.45,7.601-7.9v-21.701h5.35v22.001
			c0,8.3-5.6,12.451-12.951,12.451C83.05-84.947,77.45-89.097,77.45-97.397z"/>
		<path d="M101.401-117.399v20.001c0,6.544-4.094,10.451-10.951,10.451c-9.929,0-11.001-7.308-11.001-10.451v-20.001H80.8v19.701
			c0,6.384,3.427,9.9,9.65,9.9c6.191,0,9.601-3.516,9.601-9.9v-19.701H101.401 M103.401-119.399h-5.35v21.701
			c0,5.45-2.7,7.9-7.601,7.9c-4.95,0-7.65-2.45-7.65-7.9v-21.701h-5.35v22.001c0,8.3,5.601,12.451,13.001,12.451
			c7.351,0,12.951-4.15,12.951-12.451L103.401-119.399L103.401-119.399z"/>
	</g>
	<g>
		<path d="M138.901-85.397h-6.35l-5.8-8.25c-0.75,0.1-1.6,0.15-2.45,0.15h-3.35v8.101H115.6v-34.003h8.701
			c9.351,0,14.501,5.15,14.501,13c0,5.25-2.351,9.301-6.801,11.351L138.901-85.397z M124.1-98.098c6.55,0,9.201-3.1,9.201-8.301
			c0-5.15-2.7-8.25-9.201-8.25h-3.15v16.551H124.1z"/>
		<path d="M124.3-117.399c7.945,0,12.501,4.01,12.501,11c0,3.165-0.978,7.388-5.638,9.535l-2.197,1.012l1.407,1.968l4.638,6.487
			h-1.423l-5.203-7.401l-0.698-0.993l-1.203,0.161c-0.649,0.087-1.404,0.132-2.186,0.132h-3.35h-2v2v6.101H117.6v-30.002H124.3
			 M118.95-96.098h2h3.15c7.223,0,11.201-3.658,11.201-10.301c0-6.61-3.978-10.25-11.201-10.25h-3.15h-2v2v16.551L118.95-96.098
			 M124.3-119.399h-8.7v34.002h5.351v-8.101h3.35c0.85,0,1.7-0.05,2.45-0.15l5.8,8.25h6.35l-6.9-9.65
			c4.45-2.05,6.801-6.101,6.801-11.351C138.801-114.248,133.651-119.399,124.3-119.399L124.3-119.399z M120.95-98.098v-16.551h3.15
			c6.5,0,9.201,3.101,9.201,8.25c0,5.201-2.65,8.301-9.201,8.301L120.95-98.098L120.95-98.098z"/>
	</g>
</g>
<g>
	<polygon points="45.097,-179.789 37.457,-179.789 37.456,-179.789 37.456,-176.193 37.457,-176.193 40.847,-176.193 
		40.847,-158.132 40.849,-158.132 45.097,-158.132 45.099,-158.132 45.099,-179.789 45.098,-179.789 	"/>
	<path d="M62.913-180.116c-5.328,0-9.998,3.66-11.082,8.846c-0.155,0.741-0.237,1.513-0.237,2.309
		c0,6.334,5.23,11.197,11.319,11.197s11.319-4.863,11.319-11.197c0-0.797-0.082-1.569-0.237-2.309
		C72.911-176.456,68.241-180.116,62.913-180.116z M63.657-161.559c-0.243,0.023-0.491,0.035-0.744,0.035
		c-4.045,0-6.906-3.024-6.906-7.437c0-4.413,2.861-7.396,6.906-7.396s6.906,2.983,6.906,7.396
		C69.819-164.824,67.304-161.908,63.657-161.559z"/>
	<path d="M90.125-180.116c-0.761,0-1.509,0.075-2.234,0.218c-5.08,1.002-9.085,5.36-9.085,10.937c0,6.334,5.23,11.197,11.319,11.197
		s11.319-4.863,11.319-11.197C101.444-175.335,96.214-180.116,90.125-180.116z M97.01-168.459c-0.005,0.103-0.004,0.208-0.013,0.309
		c-0.043,0.521-0.129,1.018-0.252,1.491c-0.002,0.008-0.003,0.016-0.005,0.023c-0.032,0.122-0.074,0.237-0.112,0.355
		c-0.109,0.347-0.233,0.685-0.385,1c-0.012,0.025-0.027,0.048-0.04,0.073c-1.128,2.282-3.329,3.683-6.079,3.683
		c-4.045,0-6.906-3.024-6.906-7.437c0-0.552,0.045-1.081,0.131-1.585c0.603-3.527,3.236-5.81,6.775-5.81
		c4.045,0,6.906,2.983,6.906,7.396C97.031-168.79,97.019-168.626,97.01-168.459z"/>
</g>
<line stroke="#000000" stroke-width="0.3" stroke-miterlimit="10" x1="0" y1="-124.399" x2="141.801" y2="-124.399"/>
<circle cx="70.901" cy="-124.399" r="1.706"/>
<line stroke="#000000" stroke-width="0.3" stroke-miterlimit="10" x1="0" y1="-78.604" x2="141.801" y2="-78.604"/>
<circle cx="70.901" cy="-78.604" r="1.706"/>
</svg>
