<?xml version="1.0" encoding="utf-8"?>
<!-- Generator: Adobe Illustrator 17.0.0, SVG Export Plug-In . SVG Version: 6.00 Build 0)  -->
<!DOCTYPE svg PUBLIC "-//W3C//DTD SVG 1.1//EN" "http://www.w3.org/Graphics/SVG/1.1/DTD/svg11.dtd">
<svg version="1.1" id="Calque_1" xmlns="http://www.w3.org/2000/svg" xmlns:xlink="http://www.w3.org/1999/xlink" x="0px" y="0px"
	 width="141.801px" height="150.118px" viewBox="0 0 141.801 150.118" enable-background="new 0 0 141.801 150.118"
	 xml:space="preserve">
<g opacity="0.1">
	<g>
		<path d="M91.293,132.17c0-1.269-3.509-1.01-3.984-3.291c-0.475-2.281,2.699-3.587,2.165-4.692
			c-0.542-1.124-3.524,0.622-5.019-1.229c-1.495-1.85,0.885-4.393-0.085-5.167c-0.966-0.771-2.565,2.154-5.057,1.062
			s-1.094-4.339-2.32-4.618c-1.187-0.27-1.487,3.131-4.092,3.159c-2.605,0.027-2.905-3.428-4.092-3.159
			c-1.226,0.278,0.186,3.475-2.32,4.618c-2.505,1.143-4.091-1.834-5.056-1.063c-0.97,0.775,1.345,3.322-0.085,5.167
			s-4.477,0.105-5.02,1.229c-0.533,1.106,2.703,2.294,2.165,4.692c-0.538,2.398-3.984,2.022-3.984,3.291s3.511,1.115,3.984,3.29
			c0.473,2.176-2.699,3.587-2.165,4.693c0.543,1.124,3.659-0.41,5.019,1.228c1.361,1.639-0.884,4.393,0.086,5.168
			c0.965,0.771,2.753-2.208,5.056-1.063c2.304,1.146,1.094,4.34,2.32,4.618c1.187,0.27,1.594-3.186,4.092-3.159
			c2.498,0.027,2.904,3.428,4.092,3.159c1.226-0.279,0.001-3.637,2.32-4.618c2.318-0.981,4.091,1.834,5.056,1.063
			c0.97-0.775-1.501-3.244,0.085-5.168c1.587-1.922,4.478-0.105,5.02-1.229c0.533-1.106-2.94-1.923-2.165-4.692
			C88.083,132.692,91.293,133.439,91.293,132.17z M72.899,143.192c-6.105,0-11.054-4.949-11.054-11.054
			c0-6.105,4.949-11.054,11.054-11.054s11.054,4.949,11.054,11.054C83.953,138.243,79.004,143.192,72.899,143.192z"/>
	</g>
</g>
<g>
	<path fill="none" d="M64.913,20.592c0.32,0,0.63-0.026,0.934-0.062l-5.259-1.409C61.742,20.058,63.222,20.592,64.913,20.592z"/>
	<path fill="none" d="M47.098,18.506l9.909,2.655c-0.419-0.403-0.798-0.844-1.151-1.308l-8.758-2.347V18.506z"/>
	<path fill="none" d="M40.351,79.041c0,0.007-0.001,0.013-0.001,0.02c0,0.336,0.022,0.664,0.043,0.991l22.146,5.934
		c0.168-0.284,0.33-0.572,0.476-0.873L40.351,79.041z"/>
	<path fill="none" d="M58.166,11.472l13.449,3.604c0.066-0.311,0.118-0.629,0.151-0.959l-13.372-3.583
		C58.301,10.835,58.226,11.148,58.166,11.472z"/>
	<path fill="none" d="M92.125,20.592c0.023,0,0.045-0.003,0.067-0.003l-3.729-0.999C89.503,20.232,90.742,20.592,92.125,20.592z"/>
	<path fill="none" d="M93.583,5.896c-0.171-0.033-0.348-0.054-0.525-0.075l1.873,0.502C94.504,6.142,94.06,5.989,93.583,5.896z"/>
	<path fill="none" d="M47.098,17.506l8.758,2.347c-0.295-0.389-0.573-0.792-0.816-1.219l-7.942-2.128V17.506z"/>
	<path fill="none" d="M69.272,83.79c-0.084,0.313-0.169,0.624-0.268,0.928l11.922,3.194c-0.09-0.346-0.174-0.697-0.238-1.064
		L69.272,83.79z"/>
	<path fill="none" d="M80.45,69.785v-1l-20.367-5.457c1.068,0.503,2.073,1.106,3.003,1.805L80.45,69.785z"/>
	<path fill="none" d="M58.043,12.439l13.319,3.569c0.102-0.299,0.185-0.61,0.253-0.932l-13.449-3.604
		C58.109,11.785,58.068,12.107,58.043,12.439z"/>
	<path fill="none" d="M68.291,86.527l13.446,3.603c-0.175-0.36-0.333-0.736-0.474-1.127l-12.59-3.373
		C68.555,85.935,68.426,86.233,68.291,86.527z"/>
	<path fill="none" d="M68.674,85.63l12.59,3.373c-0.127-0.352-0.241-0.714-0.338-1.091l-11.922-3.194
		C68.903,85.027,68.791,85.33,68.674,85.63z"/>
	<path fill="none" d="M68.875,6.936c-0.183-0.126-0.372-0.243-0.569-0.35c-0.589-0.321-1.238-0.554-1.936-0.69
		c-0.465-0.09-0.953-0.137-1.458-0.137c-0.499,0-0.98,0.046-1.44,0.134l6.087,1.631C69.339,7.32,69.123,7.108,68.875,6.936z"/>
	<path fill="none" d="M47.098,16.506l7.942,2.128c-0.211-0.371-0.401-0.755-0.57-1.153l-7.373-1.975L47.098,16.506L47.098,16.506z"
		/>
	<polygon fill="none" points="106.401,75.739 118.6,79.007 118.6,78.007 106.401,74.739 	"/>
	<polygon fill="none" points="118.6,87.007 118.6,86.007 106.401,82.739 106.401,83.739 	"/>
	<path fill="none" d="M106.373,84.731c-0.013,0.333-0.025,0.666-0.056,0.985l12.283,3.291v-1L106.373,84.731z"/>
	<path fill="none" d="M67.866,87.413l14.533,3.894c-0.242-0.372-0.462-0.765-0.662-1.177l-13.446-3.603
		C68.154,86.826,68.019,87.126,67.866,87.413z"/>
	<polygon fill="none" points="118.6,74.007 118.6,73.007 106.401,69.739 106.401,70.739 	"/>
	<polygon fill="none" points="106.401,72.739 118.6,76.007 118.6,75.007 106.401,71.739 	"/>
	<polygon fill="none" points="106.401,73.739 118.6,77.007 118.6,76.007 106.401,72.739 	"/>
	<polygon fill="none" points="106.401,74.739 118.6,78.007 118.6,77.007 106.401,73.739 	"/>
	<path fill="none" d="M40.393,80.052c0.023,0.348,0.06,0.69,0.106,1.028l21.483,5.756c0.196-0.275,0.383-0.557,0.557-0.851
		L40.393,80.052z"/>
	<path fill="none" d="M85.815,84.223c0.01,0.353,0.033,0.692,0.067,1.018l13.854,3.712c0.184-0.269,0.353-0.555,0.498-0.866
		L85.815,84.223z"/>
	<path fill="none" d="M40.68,82.129l20.653,5.534c0.228-0.265,0.444-0.54,0.648-0.826L40.499,81.08
		C40.547,81.436,40.607,81.786,40.68,82.129z"/>
	<path fill="none" d="M67.359,88.278l15.978,4.281c-0.343-0.385-0.65-0.809-0.937-1.251l-14.533-3.894
		C67.709,87.71,67.533,87.993,67.359,88.278z"/>
	<path fill="none" d="M40.952,83.202l19.626,5.259c0.264-0.253,0.516-0.519,0.755-0.798L40.68,82.129
		C40.758,82.494,40.847,82.852,40.952,83.202z"/>
	<path fill="none" d="M69.508,82.853c-0.067,0.318-0.153,0.626-0.236,0.937l11.415,3.059c-0.059-0.336-0.103-0.684-0.14-1.038
		L69.508,82.853z"/>
	<polygon fill="none" points="106.401,71.739 118.6,75.007 118.6,74.007 106.401,70.739 	"/>
	<polygon fill="none" points="123.95,90.441 133.375,92.966 132.509,91.735 123.95,89.441 	"/>
	<polygon fill="none" points="123.95,91.441 134.241,94.199 133.375,92.966 123.95,90.441 	"/>
	<path fill="none" d="M105.993,87.63l12.607,3.378v-1l-12.413-3.326C106.133,87.007,106.066,87.32,105.993,87.63z"/>
	<path fill="none" d="M106.317,85.716c-0.032,0.33-0.079,0.65-0.13,0.965l12.413,3.326v-1L106.317,85.716z"/>
	<path fill="none" d="M63.875,75.344c-0.099-0.373-0.215-0.736-0.343-1.092l-18.9-5.064c-0.289,0.245-0.565,0.505-0.829,0.778
		L63.875,75.344z"/>
	<polygon fill="none" points="101.051,67.305 101.051,66.305 85.8,62.219 85.8,63.219 	"/>
	<path fill="none" d="M58.043,12.439c-0.017,0.236-0.037,0.471-0.037,0.716c0,0.094,0.009,0.184,0.011,0.277l12.974,3.476
		c0.141-0.286,0.263-0.588,0.37-0.901L58.043,12.439z"/>
	<path fill="none" d="M76.173,14.297c-0.033,0.326-0.087,0.645-0.147,0.961l5.378,1.441c-0.119-0.354-0.224-0.713-0.307-1.082
		L76.173,14.297z"/>
	<polygon fill="none" points="85.8,75.219 101.051,79.305 101.051,78.305 85.8,74.219 	"/>
	<polygon fill="none" points="85.8,74.219 101.051,78.305 101.051,77.305 85.8,73.219 	"/>
	<polygon fill="none" points="85.8,76.219 101.051,80.305 101.051,79.305 85.8,75.219 	"/>
	<path fill="none" d="M105.742,88.562l12.858,3.445v-1l-12.607-3.378C105.918,87.948,105.837,88.261,105.742,88.562z"/>
	<path fill="none" d="M80.45,75.785v-1l-12.195-3.268c0.171,0.368,0.33,0.744,0.475,1.127L80.45,75.785z"/>
	<polygon fill="none" points="101.051,77.305 101.051,76.305 85.8,72.219 85.8,73.219 	"/>
	<path fill="none" d="M80.845,12.549c0.018-0.329,0.034-0.659,0.079-0.979l-5.098-1.366c0.095,0.347,0.173,0.701,0.234,1.063
		L80.845,12.549z"/>
	<polygon fill="none" points="85.8,77.219 101.051,81.305 101.051,80.305 85.8,76.219 	"/>
	<path fill="none" d="M76.188,12.301l4.644,1.244c-0.005-0.131-0.025-0.257-0.025-0.39c0-0.207,0.028-0.404,0.039-0.607
		l-4.785-1.282C76.118,11.606,76.162,11.95,76.188,12.301z"/>
	<path fill="none" d="M58.394,10.533l13.372,3.583c0.031-0.313,0.052-0.632,0.052-0.961c0-0.009-0.001-0.017-0.001-0.026
		L58.736,9.625C58.604,9.914,58.492,10.218,58.394,10.533z"/>
	<path fill="none" d="M76.173,14.297l4.924,1.319c-0.078-0.347-0.155-0.694-0.2-1.054l-4.673-1.252
		C76.219,13.643,76.206,13.973,76.173,14.297z"/>
	<path fill="none" d="M87.76,89.744l6.919,1.854c0.767-0.073,1.472-0.215,2.107-0.436l-9.953-2.667
		C87.094,88.964,87.4,89.383,87.76,89.744z"/>
	<path fill="none" d="M105.422,89.477l13.177,3.531v-1l-12.858-3.445C105.643,88.874,105.542,89.183,105.422,89.477z"/>
	<path fill="none" d="M59.218,8.754c-0.028,0.044-0.066,0.078-0.093,0.122c-0.119,0.195-0.23,0.398-0.331,0.609
		c-0.022,0.045-0.037,0.095-0.057,0.14l13.081,3.505c-0.001-0.348-0.02-0.686-0.056-1.015L59.218,8.754z"/>
	<path fill="none" d="M71.762,12.115c-0.039-0.363-0.103-0.711-0.183-1.049L59.851,7.923c-0.231,0.257-0.442,0.534-0.633,0.831
		L71.762,12.115z"/>
	<path fill="none" d="M104.502,91.23l14.097,3.777v-1l-13.596-3.643C104.849,90.665,104.68,90.952,104.502,91.23z"/>
	<path fill="none" d="M105.003,90.364l13.596,3.643v-1l-13.177-3.531C105.297,89.785,105.151,90.076,105.003,90.364z"/>
	<path fill="none" d="M86.832,88.496l9.953,2.667c0.486-0.169,0.932-0.384,1.338-0.642L86.325,87.36
		C86.465,87.77,86.636,88.146,86.832,88.496z"/>
	<path fill="none" d="M86.325,87.36l11.798,3.161c0.343-0.218,0.66-0.464,0.945-0.747L86.04,86.283
		C86.117,86.662,86.21,87.023,86.325,87.36z"/>
	<path fill="none" d="M99.736,88.953l-13.854-3.712c0.038,0.363,0.09,0.712,0.157,1.042l13.028,3.491
		C99.315,89.528,99.534,89.25,99.736,88.953z"/>
	<path fill="none" d="M76.232,13.155c0,0.052-0.007,0.103-0.008,0.155l4.673,1.252c-0.042-0.333-0.054-0.675-0.065-1.018
		L76.188,12.3C76.209,12.584,76.232,12.866,76.232,13.155z"/>
	<path fill="none" d="M35.337,74.697L18.45,70.172v1l16.672,4.467C35.182,75.32,35.261,75.01,35.337,74.697z"/>
	<path fill="none" d="M35.573,73.761l-17.122-4.588v1l16.887,4.525C35.414,74.384,35.481,74.066,35.573,73.761z"/>
	<path fill="none" d="M38.912,67.655l-10.361-2.776v1l9.714,2.603C38.476,68.202,38.685,67.921,38.912,67.655z"/>
	<path fill="none" d="M34.98,76.602l-16.529-4.429v1l16.421,4.4C34.898,77.245,34.937,76.923,34.98,76.602z"/>
	<path fill="none" d="M35.898,72.848L18.45,68.173v1l17.122,4.588C35.668,73.449,35.788,73.151,35.898,72.848z"/>
	<path fill="none" d="M34.8,79.061c0-0.17,0.02-0.333,0.024-0.501l-16.373-4.387v1l16.373,4.387
		C34.82,79.392,34.8,79.23,34.8,79.061z"/>
	<polygon fill="none" points="106.401,75.739 106.401,76.739 118.6,80.007 118.6,79.007 	"/>
	<path fill="none" d="M83.337,92.559l-15.978-4.281c-0.176,0.289-0.349,0.579-0.541,0.855L84.9,93.978
		C84.334,93.555,83.807,93.087,83.337,92.559z"/>
	<path fill="none" d="M37.661,69.32l-9.369-2.51H24.56l12.578,3.37C37.306,69.889,37.477,69.6,37.661,69.32z"/>
	<path fill="none" d="M38.265,68.482l-9.714-2.603v0.931h-0.259l9.369,2.51C37.852,69.032,38.058,68.757,38.265,68.482z"/>
	<path fill="none" d="M37.138,70.18L24.56,66.81h-3.732l15.841,4.245C36.818,70.757,36.973,70.466,37.138,70.18z"/>
	<path fill="none" d="M36.669,71.054L20.828,66.81h-2.377v0.363l17.794,4.768C36.375,71.638,36.523,71.347,36.669,71.054z"/>
	<path fill="none" d="M36.244,71.941L18.45,67.173v1l17.448,4.675C36.01,72.543,36.117,72.236,36.244,71.941z"/>
	<path fill="none" d="M104.502,91.23c-0.186,0.292-0.385,0.572-0.596,0.84l14.693,3.937v-1L104.502,91.23z"/>
	<path fill="none" d="M35.122,75.64L18.45,71.173v1l16.529,4.429C35.022,76.279,35.063,75.955,35.122,75.64z"/>
	<path fill="none" d="M42.583,86.639l14.815,3.969c0.435-0.195,0.851-0.42,1.253-0.664l-16.786-4.498
		C42.082,85.861,42.323,86.258,42.583,86.639z"/>
	<path fill="none" d="M41.864,85.446l16.786,4.498c0.363-0.221,0.711-0.461,1.044-0.72l-18.358-4.919
		C41.495,84.698,41.671,85.078,41.864,85.446z"/>
	<path fill="none" d="M43.573,87.904l12.236,3.279c0.55-0.156,1.081-0.347,1.589-0.574L42.583,86.64
		C42.887,87.085,43.215,87.509,43.573,87.904z"/>
	<path fill="none" d="M18.451,86.173v1l24.018,6.436c-0.693-0.456-1.337-0.974-1.953-1.523L18.451,86.173z"/>
	<path fill="none" d="M45.133,89.322l8.499,2.277c0.757-0.073,1.481-0.22,2.177-0.417l-12.236-3.279
		C44.048,88.427,44.571,88.898,45.133,89.322z"/>
	<path fill="none" d="M34.824,79.56l-16.373-4.387v1l16.423,4.4C34.847,80.239,34.833,79.901,34.824,79.56z"/>
	<polygon fill="none" points="9.632,66.81 5.9,66.81 13.101,68.739 13.101,67.739 	"/>
	<path fill="none" d="M18.451,81.173v1l18.212,4.88c-0.188-0.375-0.373-0.751-0.534-1.143L18.451,81.173z"/>
	<path fill="none" d="M34.873,80.573l-16.423-4.4v1l16.542,4.432C34.946,81.264,34.901,80.922,34.873,80.573z"/>
	<path fill="none" d="M35.147,82.646l-16.696-4.474v1l16.96,4.544C35.318,83.363,35.218,83.011,35.147,82.646z"/>
	<path fill="none" d="M34.992,81.605L18.45,77.173v1l16.696,4.474C35.08,82.306,35.04,81.954,34.992,81.605z"/>
	<path fill="none" d="M35.728,84.802l-17.277-4.629v1l17.678,4.737C35.98,85.549,35.853,85.176,35.728,84.802z"/>
	<path fill="none" d="M35.411,83.717l-16.96-4.544v1l17.277,4.629C35.61,84.447,35.507,84.084,35.411,83.717z"/>
	<path fill="none" d="M34.872,77.573l-16.421-4.4v1l16.373,4.387C34.833,78.228,34.846,77.898,34.872,77.573z"/>
	<polygon fill="none" points="101.051,70.305 85.8,66.219 85.8,67.219 101.051,71.305 	"/>
	<polygon fill="none" points="101.051,69.305 85.8,65.219 85.8,66.219 101.051,70.305 	"/>
	<polygon fill="none" points="101.051,68.305 85.8,64.219 85.8,65.219 101.051,69.305 	"/>
	<polygon fill="none" points="101.051,71.305 85.8,67.219 85.8,68.219 101.051,72.305 	"/>
	<polygon fill="none" points="101.051,74.305 85.8,70.219 85.8,71.219 101.051,75.305 	"/>
	<polygon fill="none" points="101.051,67.305 85.8,63.219 85.8,64.219 101.051,68.305 	"/>
	<polygon fill="none" points="101.051,72.305 85.8,68.219 85.8,69.219 101.051,73.305 	"/>
	<polygon fill="none" points="118.6,68.007 106.401,64.739 106.401,65.739 118.6,69.007 	"/>
	<polygon fill="none" points="101.051,76.305 101.051,75.305 85.8,71.219 85.8,72.219 	"/>
	<polygon fill="none" points="118.6,67.007 106.401,63.739 106.401,64.739 118.6,68.007 	"/>
	<polygon fill="none" points="118.6,69.007 106.401,65.739 106.401,66.739 118.6,70.007 	"/>
	<polygon fill="none" points="118.6,70.007 106.401,66.739 106.401,67.739 118.6,71.007 	"/>
	<polygon fill="none" points="118.6,71.007 106.401,67.739 106.401,68.739 118.6,72.007 	"/>
	<polygon fill="none" points="118.6,73.007 118.6,72.007 106.401,68.739 106.401,69.739 	"/>
	<path fill="none" d="M80.45,72.785l-13.503-3.618c0.26,0.385,0.499,0.787,0.728,1.195l12.775,3.423V72.785z"/>
	<path fill="none" d="M80.45,69.785l-17.363-4.653c0.604,0.453,1.186,0.933,1.722,1.462l15.641,4.191V69.785z"/>
	<path fill="none" d="M63.532,74.252c-0.139-0.386-0.294-0.761-0.466-1.125L45.612,68.45c-0.34,0.229-0.667,0.474-0.979,0.738
		L63.532,74.252z"/>
	<path fill="none" d="M61.559,70.724l-13.333-3.573c-0.499,0.174-0.98,0.379-1.441,0.614l15.656,4.195
		C62.175,71.525,61.876,71.116,61.559,70.724z"/>
	<path fill="none" d="M62.442,71.96l-15.656-4.195c-0.406,0.207-0.8,0.433-1.174,0.685l17.455,4.677
		C62.876,72.725,62.671,72.333,62.442,71.96z"/>
	<polygon fill="none" points="123.95,91.441 123.95,92.441 135.107,95.431 134.241,94.199 	"/>
	<path fill="none" d="M39.653,66.854c0.264-0.271,0.539-0.528,0.82-0.78L28.551,62.88v1L39.653,66.854z"/>
	<path fill="none" d="M60.289,69.383l-10.166-2.724c-0.658,0.114-1.29,0.28-1.897,0.492l13.333,3.573
		C61.171,70.242,60.748,69.793,60.289,69.383z"/>
	<path fill="none" d="M80.45,71.785l-14.441-3.87c0.33,0.402,0.646,0.818,0.938,1.251l13.503,3.618V71.785z"/>
	<path fill="none" d="M39.653,66.854l-11.102-2.975v1l10.361,2.776C39.149,67.379,39.399,67.114,39.653,66.854z"/>
	<path fill="none" d="M80.45,70.785l-15.641-4.191c0.424,0.417,0.821,0.86,1.2,1.321l14.441,3.87V70.785z"/>
	<path fill="none" d="M57.836,67.726l-4.56-1.222c-0.306-0.021-0.611-0.044-0.925-0.044c-0.77,0-1.51,0.076-2.227,0.2l10.166,2.724
		C59.555,68.727,58.731,68.174,57.836,67.726z"/>
	<path fill="none" d="M80.45,74.785v-1l-12.775-3.423c0.21,0.374,0.397,0.763,0.58,1.155L80.45,74.785z"/>
	<path fill="none" d="M41.337,84.305l18.358,4.919c0.308-0.239,0.602-0.494,0.884-0.763l-19.626-5.259
		C41.066,83.579,41.193,83.947,41.337,84.305z"/>
	<polygon fill="none" points="101.051,73.305 85.8,69.219 85.8,70.219 101.051,74.305 	"/>
	<path fill="none" d="M40.394,78.052l23.009,6.165c0.117-0.298,0.218-0.605,0.314-0.916l-23.223-6.223
		C40.451,77.4,40.415,77.723,40.394,78.052z"/>
	<path fill="none" d="M125.89,87.961l4.886,1.309l-0.866-1.232l-0.667-0.179c-0.62,0.062-1.274,0.102-1.942,0.102
		C127.301,87.961,125.89,87.961,125.89,87.961z"/>
	<path fill="none" d="M106.373,84.731l12.227,3.276v-1l-12.198-3.268v0.322C106.401,84.292,106.381,84.507,106.373,84.731z"/>
	<path fill="none" d="M40.351,79.041l22.663,6.073c0.141-0.291,0.268-0.591,0.388-0.896l-23.009-6.165
		C40.372,78.379,40.351,78.706,40.351,79.041z"/>
	<polygon fill="none" points="106.401,82.739 118.6,86.007 118.6,85.007 106.401,81.739 	"/>
	<polygon fill="none" points="106.401,81.739 118.6,85.007 118.6,84.007 106.401,80.739 	"/>
	<path fill="none" d="M64.352,79.061c0-0.202-0.018-0.397-0.026-0.596l-22.351-5.989c-0.157,0.286-0.304,0.58-0.439,0.882
		l22.799,6.109C64.338,79.331,64.352,79.198,64.352,79.061z"/>
	<path fill="none" d="M40.494,77.079l23.223,6.223c0.094-0.305,0.177-0.616,0.251-0.933l-23.316-6.248
		C40.587,76.435,40.537,76.755,40.494,77.079z"/>
	<path fill="none" d="M125.326,66.81l9.018,2.417c-0.712-0.75-1.631-1.336-2.773-1.743l-1.533-0.411
		c-0.88-0.168-1.851-0.263-2.938-0.263C127.1,66.81,125.326,66.81,125.326,66.81z"/>
	<path fill="none" d="M123.95,68.441l11.831,3.17c-0.141-0.405-0.32-0.781-0.521-1.139l-11.31-3.031V68.441z"/>
	<path fill="none" d="M123.95,70.441l12.277,3.289c-0.037-0.36-0.09-0.708-0.159-1.043l-12.117-3.247L123.95,70.441L123.95,70.441z"
		/>
	<path fill="none" d="M123.95,69.441l12.117,3.247c-0.077-0.373-0.168-0.736-0.286-1.077l-11.831-3.17
		C123.95,68.441,123.95,69.441,123.95,69.441z"/>
	<path fill="none" d="M123.95,66.81v0.631l11.31,3.031c-0.255-0.455-0.56-0.87-0.916-1.246l-9.018-2.417h-1.376V66.81z"/>
	<path fill="none" d="M47.098,18.506v1l11.941,3.2c-0.733-0.441-1.418-0.954-2.032-1.545L47.098,18.506z"/>
	<path fill="none" d="M80.45,75.785l-11.72-3.14c0.139,0.365,0.281,0.728,0.396,1.106l11.324,3.034V75.785z"/>
	<polygon fill="none" points="123.95,87.961 123.95,88.441 131.642,90.502 130.776,89.27 125.89,87.961 	"/>
	<path fill="none" d="M56.244,5.957c0.239-0.278,0.492-0.544,0.757-0.797l-9.904-2.654v1L56.244,5.957z"/>
	<path fill="none" d="M63.875,75.344l-20.071-5.378c-0.248,0.258-0.483,0.529-0.707,0.811l21.018,5.632
		C64.05,76.046,63.968,75.693,63.875,75.344z"/>
	<path fill="none" d="M64.115,76.408l-21.018-5.632c-0.214,0.268-0.414,0.549-0.605,0.838l21.765,5.832
		C64.219,77.096,64.177,76.748,64.115,76.408z"/>
	<path fill="none" d="M80.45,80.785v-1l-10.68-2.862c0.038,0.336,0.058,0.678,0.078,1.021L80.45,80.785z"/>
	<path fill="none" d="M64.256,77.446l-21.765-5.832c-0.184,0.278-0.355,0.566-0.517,0.861l22.351,5.989
		C64.312,78.121,64.292,77.781,64.256,77.446z"/>
	<path fill="none" d="M80.45,77.785l-11.054-2.962c0.082,0.349,0.157,0.7,0.219,1.059l10.834,2.903L80.45,77.785L80.45,77.785z"/>
	<path fill="none" d="M123.95,71.441l12.34,3.307c-0.008-0.349-0.029-0.688-0.063-1.017l-12.277-3.289
		C123.95,70.442,123.95,71.441,123.95,71.441z"/>
	<polygon fill="none" points="41.188,5.923 42.848,6.368 42.848,5.923 	"/>
	<path fill="none" d="M69.848,77.944c0.02,0.337,0.047,0.67,0.049,1.013l10.553,2.828v-1L69.848,77.944z"/>
	<path fill="none" d="M80.45,78.785l-10.834-2.903c0.06,0.344,0.114,0.689,0.154,1.041l10.68,2.862V78.785z"/>
	<path fill="none" d="M80.45,76.785l-11.324-3.034c0.106,0.349,0.185,0.712,0.27,1.072l11.054,2.962V76.785z"/>
	<polygon fill="none" points="118.6,67.007 118.6,66.007 106.401,62.739 106.401,63.739 	"/>
	<path fill="none" d="M40.651,76.121l23.316,6.248c0.073-0.312,0.139-0.626,0.191-0.949l-23.29-6.241
		C40.782,75.486,40.716,75.803,40.651,76.121z"/>
	<path fill="none" d="M123.95,77.441l10.892,2.918c0.197-0.27,0.374-0.555,0.53-0.858l-11.421-3.06L123.95,77.441L123.95,77.441z"/>
	<path fill="none" d="M123.95,78.441l10.193,2.731c0.26-0.249,0.488-0.524,0.699-0.813l-10.892-2.918V78.441z"/>
	<path fill="none" d="M123.95,80.441l7.95,2.13c0.468-0.187,0.893-0.407,1.281-0.657l-9.231-2.474V80.441z"/>
	<path fill="none" d="M53.276,66.504l4.56,1.222C56.474,67.044,54.942,66.619,53.276,66.504z"/>
	<polygon fill="none" points="106.401,79.739 118.6,83.007 118.6,82.007 106.401,78.739 	"/>
	<path fill="none" d="M123.95,75.441l11.812,3.165c0.105-0.297,0.193-0.607,0.266-0.929l-12.078-3.236V75.441z"/>
	<path fill="none" d="M123.95,76.441l11.421,3.06c0.147-0.286,0.28-0.581,0.391-0.895l-11.812-3.165L123.95,76.441L123.95,76.441z"
		/>
	<path fill="none" d="M123.95,79.441l9.231,2.474c0.349-0.225,0.675-0.468,0.962-0.742l-10.193-2.731
		C123.95,78.442,123.95,79.441,123.95,79.441z"/>
	<polygon fill="none" points="106.401,76.739 106.401,77.739 118.6,81.007 118.6,80.007 	"/>
	<polygon fill="none" points="106.401,78.739 118.6,82.007 118.6,81.007 106.401,77.739 	"/>
	<polygon fill="none" points="106.401,80.739 118.6,84.007 118.6,83.007 106.401,79.739 	"/>
	<path fill="none" d="M123.95,82.441l3.404,0.912c1.01-0.013,1.924-0.103,2.749-0.263l-6.152-1.649L123.95,82.441L123.95,82.441z"/>
	<path fill="none" d="M123.95,81.441l6.152,1.649c0.656-0.128,1.254-0.301,1.798-0.518l-7.95-2.13V81.441z"/>
	<path fill="none" d="M123.95,74.441l12.078,3.236c0.07-0.307,0.123-0.627,0.166-0.956L123.95,73.44V74.441z"/>
	<path fill="none" d="M18.451,84.173l19.666,5.269c-0.286-0.392-0.553-0.798-0.805-1.216l-18.861-5.054V84.173z"/>
	<path fill="none" d="M84.687,21.578L74.63,18.883c-0.177,0.292-0.365,0.575-0.567,0.848l13.238,3.547
		c-0.497-0.233-0.976-0.5-1.432-0.799C85.454,22.207,85.063,21.902,84.687,21.578z"/>
	<polygon fill="none" points="85.8,78.219 101.051,82.305 101.051,81.305 85.8,77.219 	"/>
	<path fill="none" d="M18.451,85.173l20.694,5.545c-0.363-0.407-0.705-0.833-1.028-1.276l-19.666-5.269V85.173z"/>
	<polygon fill="none" points="9.632,66.81 13.101,67.739 13.101,66.81 	"/>
	<path fill="none" d="M18.451,83.173l18.861,5.054c-0.231-0.382-0.448-0.772-0.649-1.174l-18.212-4.88
		C18.451,82.173,18.451,83.173,18.451,83.173z"/>
	<path fill="none" d="M123.95,83.361h3.15c0.088,0,0.167-0.007,0.254-0.008l-3.404-0.912V83.361z"/>
	<path fill="none" d="M123.95,73.441l12.244,3.281c0.041-0.316,0.068-0.642,0.084-0.977l-12.328-3.303V73.441z"/>
	<path fill="none" d="M130.038,67.072l1.533,0.411C131.099,67.315,130.588,67.178,130.038,67.072z"/>
	<path fill="none" d="M123.95,72.441l12.328,3.303c0.011-0.226,0.023-0.45,0.023-0.684c0-0.107-0.008-0.207-0.011-0.312
		l-12.34-3.307V72.441z"/>
	<path fill="none" d="M129.75,87.811c-0.16,0.021-0.339,0.031-0.508,0.048l0.667,0.179L129.75,87.811z"/>
	<path fill="none" d="M93.451,91.661c0.428,0,0.833-0.026,1.227-0.063l-6.919-1.854C89.054,91.045,90.969,91.661,93.451,91.661z"/>
	<path fill="none" d="M52.351,91.661c0.436,0,0.863-0.021,1.282-0.062l-8.499-2.277C47.092,90.799,49.551,91.661,52.351,91.661z"/>
	<path fill="none" d="M18.451,86.173l22.064,5.912c-0.482-0.43-0.94-0.884-1.37-1.367l-20.694-5.545V86.173z"/>
	<path fill="none" d="M53.594,13.155c0-0.304,0.023-0.6,0.046-0.896l-6.542-1.753v1l6.501,1.742
		C53.599,13.217,53.594,13.187,53.594,13.155z"/>
	<path fill="none" d="M53.599,13.248l-6.501-1.742v1l6.553,1.756C53.618,13.929,53.602,13.59,53.599,13.248z"/>
	<path fill="none" d="M58.018,13.432c0.01,0.35,0.038,0.691,0.083,1.022l12.379,3.317c0.188-0.272,0.361-0.558,0.512-0.863
		L58.018,13.432z"/>
	<path fill="none" d="M53.962,10.345l-6.865-1.839v1l6.663,1.785C53.815,10.97,53.882,10.655,53.962,10.345z"/>
	<path fill="none" d="M53.761,11.292l-6.663-1.785v1l6.542,1.753C53.666,11.931,53.708,11.61,53.761,11.292z"/>
	<path fill="none" d="M54.244,9.421l-7.146-1.915v1l6.865,1.839C54.044,10.031,54.136,9.723,54.244,9.421z"/>
	<path fill="none" d="M53.807,15.304l-6.709-1.798v1l6.975,1.869C53.967,16.025,53.878,15.668,53.807,15.304z"/>
	<path fill="none" d="M59.358,17.791l8.373,2.244c0.429-0.183,0.83-0.411,1.203-0.678L58.7,16.615
		C58.886,17.036,59.106,17.428,59.358,17.791z"/>
	<path fill="none" d="M47.098,14.506v1l7.373,1.975c-0.152-0.359-0.283-0.728-0.397-1.106L47.098,14.506z"/>
	<path fill="none" d="M54.608,8.518l-7.51-2.012v1l7.146,1.915C54.354,9.113,54.473,8.812,54.608,8.518z"/>
	<path fill="none" d="M58.307,15.509l11.509,3.084c0.242-0.252,0.462-0.529,0.665-0.822l-12.379-3.317
		C58.151,14.818,58.216,15.172,58.307,15.509z"/>
	<path fill="none" d="M58.701,16.615l10.234,2.742c0.317-0.226,0.611-0.482,0.882-0.764l-11.509-3.084
		C58.411,15.897,58.546,16.264,58.701,16.615z"/>
	<path fill="none" d="M85.8,83.219l14.784,3.961c0.093-0.296,0.17-0.61,0.235-0.937L85.8,82.219V83.219z"/>
	<path fill="none" d="M60.588,19.121l5.259,1.409c0.671-0.082,1.303-0.246,1.885-0.495l-8.373-2.244
		C59.709,18.296,60.121,18.742,60.588,19.121z"/>
	<path fill="none" d="M53.651,14.262l-6.553-1.756v1l6.709,1.798C53.74,14.962,53.686,14.616,53.651,14.262z"/>
	<path fill="none" d="M81.375,9.691l-6.431-1.723c0.195,0.367,0.366,0.748,0.52,1.139l5.646,1.513
		C81.183,10.303,81.275,9.995,81.375,9.691z"/>
	<path fill="none" d="M55.058,7.639l-7.961-2.133v1l7.51,2.012C54.747,8.218,54.895,7.923,55.058,7.639z"/>
	<path fill="none" d="M81.707,8.78l-7.492-2.007c0.269,0.38,0.509,0.781,0.729,1.195l6.431,1.723
		C81.476,9.381,81.58,9.075,81.707,8.78z"/>
	<path fill="none" d="M85.8,80.219l15.234,4.082c0.006-0.179,0.017-0.354,0.017-0.54v-0.455L85.8,79.219V80.219z"/>
	<polygon fill="none" points="85.8,79.219 101.051,83.305 101.051,82.305 85.8,78.219 	"/>
	<path fill="none" d="M82.133,7.894l-8.999-2.411c0.39,0.403,0.756,0.83,1.081,1.29l7.492,2.007
		C81.837,8.477,81.978,8.181,82.133,7.894z"/>
	<path fill="none" d="M85.8,81.219l15.165,4.063c0.034-0.315,0.057-0.642,0.069-0.981L85.8,80.219V81.219z"/>
	<path fill="none" d="M80.924,11.57c0.046-0.323,0.113-0.638,0.186-0.95l-5.646-1.513c0.139,0.356,0.26,0.722,0.362,1.097
		L80.924,11.57z"/>
	<path fill="none" d="M56.244,5.957l-9.147-2.451v1L55.6,6.784C55.803,6.498,56.017,6.222,56.244,5.957z"/>
	<path fill="none" d="M55.601,6.785l-8.503-2.278v1l7.961,2.133C55.227,7.346,55.407,7.06,55.601,6.785z"/>
	<path fill="none" d="M85.8,82.219l15.019,4.024c0.061-0.306,0.109-0.627,0.146-0.961L85.8,81.219V82.219z"/>
	<path fill="none" d="M71.032,9.485c-0.102-0.21-0.212-0.413-0.331-0.609c-0.013-0.021-0.031-0.037-0.044-0.057L61.82,6.451
		c-0.099,0.048-0.206,0.083-0.302,0.135c-0.196,0.107-0.386,0.224-0.569,0.35c-0.091,0.063-0.163,0.148-0.25,0.215L71.23,9.973
		C71.166,9.809,71.107,9.641,71.032,9.485z"/>
	<path fill="none" d="M69.56,7.525l-6.087-1.631c-0.006,0.001-0.012,0.001-0.018,0.003C62.87,6.01,62.33,6.206,61.82,6.451
		l8.836,2.368C70.349,8.329,69.972,7.907,69.56,7.525z"/>
	<path fill="none" d="M59.851,7.923l11.728,3.143c-0.09-0.383-0.209-0.745-0.347-1.093L60.7,7.151
		C60.397,7.385,60.108,7.636,59.851,7.923z"/>
	<path fill="none" d="M76.026,15.257c-0.061,0.319-0.139,0.631-0.226,0.939l6.05,1.621c-0.169-0.363-0.316-0.736-0.445-1.119
		L76.026,15.257z"/>
	<path fill="none" d="M88.162,6.936c-0.184,0.127-0.339,0.291-0.508,0.437L98.578,10.3c-0.097-0.283-0.208-0.555-0.334-0.816
		c-0.053-0.111-0.116-0.214-0.175-0.321l-9.424-2.525C88.48,6.732,88.318,6.829,88.162,6.936z"/>
	<path fill="none" d="M88.731,6.586c-0.03,0.016-0.056,0.036-0.086,0.053l9.424,2.525c-0.052-0.096-0.1-0.196-0.157-0.288
		c-0.211-0.344-0.459-0.654-0.722-0.947L90.142,6.04C89.645,6.177,89.167,6.349,88.731,6.586z"/>
	<path fill="none" d="M86.879,8.165l11.977,3.209c-0.073-0.372-0.161-0.733-0.278-1.075L87.654,7.373
		C87.375,7.615,87.115,7.876,86.879,8.165z"/>
	<path fill="none" d="M90.667,5.896c-0.182,0.035-0.351,0.095-0.525,0.143l7.049,1.889c-0.333-0.371-0.695-0.711-1.103-0.993
		c-0.183-0.126-0.372-0.243-0.569-0.35c-0.187-0.102-0.39-0.179-0.588-0.263L93.058,5.82c-0.304-0.036-0.613-0.062-0.933-0.062
		C91.62,5.76,91.132,5.806,90.667,5.896z"/>
	<path fill="none" d="M86.338,8.876c-0.025,0.04-0.045,0.085-0.069,0.126l12.724,3.409c-0.027-0.356-0.072-0.703-0.137-1.037
		L86.879,8.165C86.691,8.395,86.496,8.618,86.338,8.876z"/>
	<path fill="none" d="M86.006,9.485c-0.062,0.129-0.11,0.269-0.165,0.403l13.179,3.531c0.002-0.089,0.011-0.174,0.011-0.263
		c0-0.255-0.019-0.499-0.038-0.744l-12.724-3.41C86.177,9.159,86.087,9.318,86.006,9.485z"/>
	<polygon fill="none" points="123.95,89.441 132.509,91.735 131.642,90.502 123.95,88.441 	"/>
	<path fill="none" d="M41.167,74.259c-0.108,0.302-0.212,0.606-0.299,0.92l23.29,6.241c0.051-0.318,0.098-0.638,0.128-0.966
		L41.167,74.259z"/>
	<path fill="none" d="M73.134,5.482l8.999,2.411c0.026-0.049,0.045-0.102,0.072-0.15c0.137-0.245,0.291-0.478,0.446-0.711
		L71.407,4.02C72.032,4.449,72.609,4.939,73.134,5.482z"/>
	<path fill="none" d="M85.532,10.804l13.412,3.594c0.042-0.318,0.068-0.644,0.077-0.979l-13.18-3.532
		C85.721,10.181,85.618,10.486,85.532,10.804z"/>
	<path fill="none" d="M69.809,80.934l10.641,2.851v-1l-10.591-2.838C69.843,80.277,69.841,80.611,69.809,80.934z"/>
	<path fill="none" d="M69.666,81.896l10.815,2.898c-0.01-0.244-0.031-0.48-0.031-0.733v-0.276l-10.641-2.851
		C69.776,81.261,69.715,81.576,69.666,81.896z"/>
	<path fill="none" d="M69.508,82.853l11.039,2.958c-0.034-0.33-0.052-0.673-0.066-1.018l-10.815-2.898
		C69.617,82.217,69.574,82.54,69.508,82.853z"/>
	<path fill="none" d="M69.897,78.958c0,0.035,0.005,0.068,0.005,0.103c0,0.301-0.029,0.591-0.043,0.887l10.591,2.838v-1
		L69.897,78.958z"/>
	<path fill="none" d="M64.334,79.467l-22.799-6.109c-0.132,0.295-0.258,0.593-0.368,0.901l23.119,6.195
		C64.315,80.131,64.325,79.799,64.334,79.467z"/>
	<path fill="none" d="M88.463,19.59l3.729,0.999c0.82-0.007,1.587-0.143,2.294-0.385l-7.646-2.049
		C87.3,18.727,87.845,19.208,88.463,19.59z"/>
	<path fill="none" d="M85.8,83.761c0,0.159,0.01,0.308,0.015,0.462l14.42,3.864c0.133-0.284,0.249-0.586,0.35-0.906L85.8,83.219
		V83.761z"/>
	<path fill="none" d="M75.493,17.115l6.979,1.87c-0.088-0.142-0.184-0.279-0.266-0.426c-0.133-0.238-0.24-0.492-0.356-0.741
		l-6.05-1.621C75.711,16.509,75.608,16.815,75.493,17.115z"/>
	<path fill="none" d="M75.104,18.011l8.247,2.21c-0.322-0.389-0.612-0.804-0.88-1.236l-6.979-1.87
		C75.376,17.421,75.247,17.719,75.104,18.011z"/>
	<path fill="none" d="M74.63,18.883l10.058,2.695c-0.444-0.382-0.864-0.792-1.244-1.239c-0.033-0.038-0.06-0.081-0.092-0.119
		l-8.247-2.21C74.958,18.309,74.801,18.601,74.63,18.883z"/>
	<path fill="none" d="M86.841,18.155l7.646,2.049c0.478-0.164,0.927-0.379,1.342-0.64l-9.762-2.616
		C86.286,17.385,86.546,17.788,86.841,18.155z"/>
	<path fill="none" d="M85.219,13.155c0,0.194,0.012,0.383,0.023,0.572l12.824,3.436c0.155-0.283,0.295-0.578,0.414-0.889
		l-13.24-3.547C85.235,12.87,85.219,13.009,85.219,13.155z"/>
	<path fill="none" d="M85.241,12.727l13.24,3.547c0.113-0.296,0.209-0.604,0.288-0.923l-13.434-3.6
		C85.287,12.067,85.256,12.392,85.241,12.727z"/>
	<path fill="none" d="M85.334,11.752l13.434,3.6c0.076-0.307,0.132-0.626,0.175-0.953l-13.412-3.594
		C85.449,11.11,85.383,11.425,85.334,11.752z"/>
	<path fill="none" d="M85.353,14.757l12.171,3.261c0.201-0.266,0.378-0.555,0.542-0.855l-12.824-3.436
		C85.263,14.079,85.296,14.425,85.353,14.757z"/>
	<path fill="none" d="M85.619,15.828l11.173,2.994c0.263-0.247,0.512-0.512,0.733-0.804l-12.171-3.261
		C85.418,15.129,85.511,15.484,85.619,15.828z"/>
	<path fill="none" d="M86.067,16.948l9.762,2.616c0.345-0.217,0.666-0.464,0.962-0.742l-11.173-2.994
		C85.742,16.221,85.89,16.596,86.067,16.948z"/>
	<polygon opacity="0.1" enable-background="new    " points="3,65.033 3,66.033 5.9,66.81 9.632,66.81 	"/>
	<polygon opacity="0.1" enable-background="new    " points="18.451,67.173 3,63.033 3,64.033 18.451,68.173 	"/>
	<polygon opacity="0.1" enable-background="new    " points="18.451,69.173 13.101,67.739 13.101,68.739 18.451,70.173 	"/>
	<polygon opacity="0.1" enable-background="new    " points="18.451,71.173 13.101,69.739 13.101,70.739 18.451,72.173 	"/>
	<polygon opacity="0.1" enable-background="new    " points="28.551,63.879 21.761,62.06 18.029,62.06 28.551,64.879 	"/>
	<polygon opacity="0.1" enable-background="new    " points="24.56,66.81 6.833,62.06 3.101,62.06 20.828,66.81 	"/>
	<polygon opacity="0.1" enable-background="new    " points="28.551,66.81 28.551,65.879 14.297,62.06 10.565,62.06 28.292,66.81 	
		"/>
	<polygon opacity="0.1" enable-background="new    " points="13.101,88.739 18.451,90.173 18.451,89.173 13.101,87.739 	"/>
	<polygon opacity="0.1" enable-background="new    " points="13.101,86.739 18.451,88.173 18.451,87.173 13.101,85.739 	"/>
	<polygon opacity="0.1" enable-background="new    " points="13.101,90.739 18.451,92.173 18.451,91.173 13.101,89.739 	"/>
	<polygon opacity="0.1" enable-background="new    " points="28.551,62.06 25.493,62.06 28.551,62.879 	"/>
	<polygon opacity="0.1" enable-background="new    " points="13.101,94.739 18.036,96.062 18.451,96.062 18.451,95.173 
		13.101,93.739 	"/>
	<polygon opacity="0.1" enable-background="new    " points="13.101,96.062 14.304,96.062 13.101,95.739 	"/>
	<polygon opacity="0.1" enable-background="new    " points="13.101,92.739 18.451,94.173 18.451,93.173 13.101,91.739 	"/>
	<polygon opacity="0.1" enable-background="new    " points="18.451,81.173 13.101,79.739 13.101,80.739 18.451,82.173 	"/>
	<polygon opacity="0.1" enable-background="new    " points="18.451,85.173 13.101,83.739 13.101,84.739 18.451,86.173 	"/>
	<polygon opacity="0.1" enable-background="new    " points="18.451,83.173 13.101,81.739 13.101,82.739 18.451,84.173 	"/>
	<polygon opacity="0.1" enable-background="new    " points="18.451,79.173 13.101,77.739 13.101,78.739 18.451,80.173 	"/>
	<polygon opacity="0.1" enable-background="new    " points="18.451,77.173 13.101,75.739 13.101,76.739 18.451,78.173 	"/>
	<polygon opacity="0.1" enable-background="new    " points="18.451,73.173 13.101,71.739 13.101,72.739 18.451,74.173 	"/>
	<polygon opacity="0.1" enable-background="new    " points="18.451,75.173 13.101,73.739 13.101,74.739 18.451,76.173 	"/>
	<path opacity="0.1" enable-background="new    " d="M64.286,80.454l5.381,1.442c0.049-0.32,0.11-0.635,0.143-0.962l-5.475-1.467
		C64.325,79.799,64.315,80.131,64.286,80.454z"/>
	<path opacity="0.1" enable-background="new    " d="M64.326,78.465l5.533,1.482c0.014-0.296,0.043-0.586,0.043-0.887
		c0-0.035-0.005-0.068-0.005-0.103l-5.64-1.511C64.292,77.781,64.312,78.121,64.326,78.465z"/>
	<path opacity="0.1" enable-background="new    " d="M34.873,80.573l5.807,1.556c-0.073-0.343-0.133-0.693-0.181-1.049l-5.675-1.521
		C34.833,79.901,34.847,80.239,34.873,80.573z"/>
	<path opacity="0.1" enable-background="new    " d="M69.848,77.944c-0.02-0.343-0.04-0.685-0.078-1.021l-5.894-1.579
		c0.092,0.348,0.174,0.702,0.24,1.064L69.848,77.944z"/>
	<path opacity="0.1" enable-background="new    " d="M35.147,82.646l6.19,1.659c-0.144-0.358-0.271-0.726-0.384-1.103l-5.96-1.597
		C35.04,81.954,35.08,82.306,35.147,82.646z"/>
	<path opacity="0.1" enable-background="new    " d="M52.351,96.512c0.274,0,0.54-0.027,0.811-0.038l-10.693-2.865
		C45.277,95.458,48.674,96.512,52.351,96.512z"/>
	<path opacity="0.1" enable-background="new    " d="M53.953,61.685l6.13,1.643C58.205,62.444,56.143,61.871,53.953,61.685z"/>
	<path opacity="0.1" enable-background="new    " d="M43.573,87.904l-7.445-1.995c0.161,0.392,0.346,0.768,0.534,1.143l8.471,2.27
		C44.571,88.898,44.048,88.427,43.573,87.904z"/>
	<path opacity="0.1" enable-background="new    " d="M62.538,85.986l5.328,1.427c0.153-0.288,0.288-0.588,0.425-0.886l-5.277-1.414
		C62.869,85.414,62.706,85.702,62.538,85.986z"/>
	<path opacity="0.1" enable-background="new    " d="M40.351,79.041l-5.479-1.468c-0.026,0.326-0.039,0.655-0.048,0.987l5.569,1.492
		c-0.021-0.328-0.043-0.656-0.043-0.991C40.35,79.054,40.351,79.048,40.351,79.041z"/>
	<path opacity="0.1" enable-background="new    " d="M40.494,77.079l-5.372-1.439c-0.059,0.316-0.1,0.639-0.143,0.962l5.414,1.451
		C40.415,77.723,40.451,77.4,40.494,77.079z"/>
	<path opacity="0.1" enable-background="new    " d="M68.254,71.517c-0.182-0.393-0.37-0.781-0.58-1.155l-9.839-2.636
		c0.895,0.448,1.719,1.001,2.453,1.657L68.254,71.517z"/>
	<path opacity="0.1" enable-background="new    " d="M63.403,84.218l5.272,1.412c0.117-0.3,0.228-0.603,0.33-0.912l-5.287-1.417
		C63.621,83.612,63.52,83.92,63.403,84.218z"/>
	<path opacity="0.1" enable-background="new    " d="M44.633,69.188c0.312-0.264,0.639-0.509,0.979-0.738l-5.959-1.597
		c-0.254,0.26-0.504,0.525-0.741,0.802L44.633,69.188z"/>
	<path opacity="0.1" enable-background="new    " d="M64.158,81.42c-0.052,0.322-0.118,0.637-0.191,0.949l5.305,1.421
		c0.083-0.31,0.169-0.619,0.236-0.937L64.158,81.42z"/>
	<path opacity="0.1" enable-background="new    " d="M69.396,74.824l-6.33-1.696c0.172,0.364,0.327,0.739,0.466,1.125l6.083,1.63
		C69.553,75.524,69.479,75.172,69.396,74.824z"/>
	<path opacity="0.1" enable-background="new    " d="M68.73,72.645l-7.17-1.921c0.317,0.392,0.615,0.801,0.882,1.236l6.684,1.791
		C69.011,73.373,68.869,73.01,68.73,72.645z"/>
	<path opacity="0.1" enable-background="new    " d="M43.804,69.966l-5.539-1.484c-0.207,0.275-0.414,0.55-0.604,0.838l5.436,1.457
		C43.321,70.496,43.556,70.224,43.804,69.966z"/>
	<path opacity="0.1" enable-background="new    " d="M42.492,71.614l-5.354-1.435c-0.165,0.286-0.32,0.578-0.469,0.875l5.305,1.422
		C42.136,72.18,42.308,71.892,42.492,71.614z"/>
	<path opacity="0.1" enable-background="new    " d="M41.535,73.358l-5.291-1.418c-0.127,0.295-0.235,0.602-0.346,0.907l5.268,1.412
		C41.278,73.951,41.403,73.653,41.535,73.358z"/>
	<path opacity="0.1" enable-background="new    " d="M40.868,75.179l-5.295-1.419c-0.093,0.305-0.159,0.624-0.236,0.937l5.314,1.424
		C40.716,75.803,40.782,75.486,40.868,75.179z"/>
	<path opacity="0.1" enable-background="new    " d="M35.728,84.802l6.855,1.837c-0.26-0.381-0.501-0.778-0.719-1.193l-6.453-1.729
		C35.507,84.084,35.61,84.447,35.728,84.802z"/>
	<path opacity="0.1" enable-background="new    " d="M48.226,67.151l-6.86-1.838c-0.309,0.241-0.602,0.499-0.894,0.76l6.312,1.691
		C47.246,67.53,47.727,67.325,48.226,67.151z"/>
	<path opacity="0.1" enable-background="new    " d="M52.351,66.46c0.315,0,0.62,0.023,0.925,0.044L43.52,63.89
		c-0.391,0.219-0.777,0.445-1.148,0.693l7.751,2.077C50.84,66.535,51.58,66.46,52.351,66.46z"/>
	<path opacity="0.1" enable-background="new    " d="M40.515,92.085l15.306,4.101c0.66-0.125,1.305-0.288,1.935-0.481l-18.612-4.987
		C39.575,91.2,40.033,91.655,40.515,92.085z"/>
	<path opacity="0.1" enable-background="new    " d="M63.086,65.133l-12.728-3.41c-0.771,0.082-1.521,0.222-2.258,0.395
		l16.709,4.477C64.272,66.066,63.69,65.586,63.086,65.133z"/>
	<path opacity="0.1" enable-background="new    " d="M66.008,67.916l-19.697-5.278c-0.511,0.178-1.009,0.377-1.496,0.599
		l22.132,5.93C66.654,68.734,66.339,68.318,66.008,67.916z"/>
	<path opacity="0.1" enable-background="new    " d="M59.695,89.224l5.805,1.555c0.238-0.265,0.469-0.535,0.691-0.815l-5.612-1.504
		C60.297,88.73,60.003,88.985,59.695,89.224z"/>
	<path opacity="0.1" enable-background="new    " d="M38.117,89.442l21.234,5.69c0.467-0.194,0.925-0.402,1.369-0.633l-23.409-6.272
		C37.564,88.644,37.831,89.05,38.117,89.442z"/>
	<path opacity="0.1" enable-background="new    " d="M61.982,86.837c-0.204,0.287-0.421,0.561-0.648,0.826l5.485,1.47
		c0.192-0.276,0.365-0.567,0.541-0.855L61.982,86.837z"/>
	<path opacity="0.1" enable-background="new    " d="M53.632,91.6l8.261,2.214c0.36-0.225,0.706-0.469,1.047-0.719l-7.132-1.911
		C55.113,91.38,54.389,91.527,53.632,91.6z"/>
	<path opacity="0.1" enable-background="new    " d="M57.398,90.609l6.492,1.74c0.294-0.25,0.589-0.499,0.865-0.768l-6.104-1.636
		C58.249,90.189,57.833,90.413,57.398,90.609z"/>
	<path opacity="0.1" enable-background="new    " d="M80.45,84.061c0,0.252,0.021,0.488,0.031,0.733l5.559,1.489
		c-0.068-0.331-0.119-0.679-0.157-1.042l-5.433-1.456V84.061z"/>
	<polygon opacity="0.1" enable-background="new    " points="85.8,72.219 85.8,71.219 80.45,69.785 80.45,70.785 	"/>
	<path opacity="0.1" enable-background="new    " d="M100.819,86.243l5.173,1.386c0.073-0.309,0.141-0.623,0.194-0.948l-5.222-1.399
		C100.929,85.616,100.881,85.937,100.819,86.243z"/>
	<path opacity="0.1" enable-background="new    " d="M100.235,88.087l5.188,1.39c0.12-0.293,0.221-0.603,0.319-0.914l-5.157-1.382
		C100.484,87.5,100.367,87.803,100.235,88.087z"/>
	<path opacity="0.1" enable-background="new    " d="M80.687,86.849l6.145,1.646c-0.196-0.349-0.367-0.726-0.507-1.136l-5.778-1.548
		C80.584,86.165,80.628,86.513,80.687,86.849z"/>
	<path opacity="0.1" enable-background="new    " d="M85.8,83.219l-5.351-1.434v1l5.365,1.438C85.81,84.069,85.8,83.92,85.8,83.761
		V83.219z"/>
	<polygon opacity="0.1" enable-background="new    " points="85.8,73.219 80.45,71.785 80.45,72.785 85.8,74.219 	"/>
	<polygon opacity="0.1" enable-background="new    " points="85.8,75.219 80.45,73.785 80.45,74.785 85.8,76.219 	"/>
	<polygon opacity="0.1" enable-background="new    " points="106.401,70.739 101.051,69.305 101.051,70.305 106.401,71.739 	"/>
	<polygon opacity="0.1" enable-background="new    " points="85.8,78.219 85.8,77.219 80.45,75.785 80.45,76.785 	"/>
	<polygon opacity="0.1" enable-background="new    " points="106.401,72.739 101.051,71.305 101.051,72.305 106.401,73.739 	"/>
	<polygon opacity="0.1" enable-background="new    " points="106.401,74.739 101.051,73.305 101.051,74.305 106.401,75.739 	"/>
	<path opacity="0.1" enable-background="new    " d="M101.051,83.305v0.455c0,0.186-0.011,0.361-0.017,0.54l5.283,1.415
		c0.031-0.319,0.043-0.652,0.056-0.985L101.051,83.305z"/>
	<polygon opacity="0.1" enable-background="new    " points="101.051,76.305 106.401,77.739 106.401,76.739 101.051,75.305 	"/>
	<polygon opacity="0.1" enable-background="new    " points="106.401,69.739 106.401,68.739 101.051,67.305 101.051,68.305 	"/>
	<polygon opacity="0.1" enable-background="new    " points="101.051,82.305 106.401,83.739 106.401,82.739 101.051,81.305 	"/>
	<polygon opacity="0.1" enable-background="new    " points="101.051,80.305 106.401,81.739 106.401,80.739 101.051,79.305 	"/>
	<polygon opacity="0.1" enable-background="new    " points="101.051,78.305 106.401,79.739 106.401,78.739 101.051,77.305 	"/>
	<path opacity="0.1" enable-background="new    " d="M96.785,91.162l6.415,1.719c0.249-0.256,0.484-0.527,0.707-0.811l-5.784-1.55
		C97.716,90.779,97.271,90.993,96.785,91.162z"/>
	<polygon opacity="0.1" enable-background="new    " points="106.401,66.739 101.051,65.305 101.051,66.305 106.401,67.739 	"/>
	<polygon opacity="0.1" enable-background="new    " points="85.8,63.219 81.474,62.06 80.45,62.06 80.45,62.785 85.8,64.219 	"/>
	<polygon opacity="0.1" enable-background="new    " points="80.45,80.785 85.8,82.219 85.8,81.219 80.45,79.785 	"/>
	<polygon opacity="0.1" enable-background="new    " points="106.401,64.739 101.051,63.305 101.051,64.305 106.401,65.739 	"/>
	<polygon opacity="0.1" enable-background="new    " points="106.401,62.739 103.866,62.06 101.051,62.06 101.051,62.305 
		106.401,63.739 	"/>
	<polygon opacity="0.1" enable-background="new    " points="85.8,69.219 80.45,67.785 80.45,68.785 85.8,70.219 	"/>
	<polygon opacity="0.1" enable-background="new    " points="85.8,67.219 80.45,65.785 80.45,66.785 85.8,68.219 	"/>
	<path opacity="0.1" enable-background="new    " d="M99.736,88.953c-0.202,0.297-0.421,0.575-0.669,0.821l5.435,1.456
		c0.178-0.279,0.346-0.565,0.501-0.866L99.736,88.953z"/>
	<polygon opacity="0.1" enable-background="new    " points="85.8,65.219 80.45,63.785 80.45,64.785 85.8,66.219 	"/>
	<path opacity="0.1" enable-background="new    " d="M93.451,91.661c-2.482,0-4.397-0.616-5.691-1.917l-6.834-1.831
		c0.098,0.377,0.212,0.739,0.338,1.091l20.099,5.385c0.348-0.226,0.681-0.47,0.998-0.732l-7.683-2.059
		C94.284,91.636,93.879,91.661,93.451,91.661z"/>
	<polygon opacity="0.1" enable-background="new    " points="80.45,78.785 85.8,80.219 85.8,79.219 80.45,77.785 	"/>
	<path opacity="0.1" enable-background="new    " d="M82.399,91.308l16.316,4.372c0.504-0.174,0.985-0.382,1.45-0.611L81.737,90.13
		C81.937,90.542,82.157,90.936,82.399,91.308z"/>
	<polygon opacity="0.1" enable-background="new    " points="85.8,62.06 85.206,62.06 85.8,62.219 	"/>
	<path opacity="0.1" enable-background="new    " d="M84.9,93.978l9.35,2.505c0.896-0.038,1.761-0.14,2.591-0.306l-13.505-3.619
		C83.807,93.087,84.334,93.555,84.9,93.978z"/>
	<polygon opacity="0.1" enable-background="new    " points="123.95,88.441 123.95,87.961 125.89,87.961 118.6,86.007 118.6,87.007 
			"/>
	<polygon opacity="0.1" enable-background="new    " points="118.6,80.007 118.6,81.007 123.95,82.441 123.95,81.441 	"/>
	<polygon opacity="0.1" enable-background="new    " points="118.6,89.007 123.95,90.441 123.95,89.441 118.6,88.007 	"/>
	<polygon opacity="0.1" enable-background="new    " points="118.6,96.062 118.802,96.062 118.6,96.007 	"/>
	<path opacity="0.1" enable-background="new    " d="M122.526,62.06l16.32,4.373c-0.448-0.51-0.953-0.974-1.499-1.402l-11.089-2.971
		C126.258,62.06,122.526,62.06,122.526,62.06z"/>
	<path opacity="0.1" enable-background="new    " d="M131.561,62.48l2.079,0.557C132.986,62.811,132.288,62.63,131.561,62.48z"/>
	<path opacity="0.1" enable-background="new    " d="M118.6,62.06v0.948l21.859,5.857c-0.201-0.408-0.421-0.802-0.666-1.179
		l-20.998-5.626C118.795,62.06,118.6,62.06,118.6,62.06z"/>
	<path opacity="0.1" enable-background="new    " d="M131.9,82.571l6.287,1.685c0.269-0.254,0.528-0.516,0.768-0.794l-5.773-1.547
		C132.793,82.165,132.368,82.385,131.9,82.571z"/>
	<polygon opacity="0.1" enable-background="new    " points="131.642,90.502 139.415,92.585 138.53,91.348 130.776,89.27 	"/>
	<path opacity="0.1" enable-background="new    " d="M118.6,85.007l10.643,2.852c0.169-0.017,0.348-0.027,0.508-0.048l0.16,0.227
		l7.736,2.073l-0.884-1.237L118.6,84.007V85.007z"/>
	<polygon opacity="0.1" enable-background="new    " points="118.6,83.007 135.877,87.637 135,86.411 135.012,86.405 118.6,82.007 	
		"/>
	<path opacity="0.1" enable-background="new    " d="M134.143,81.172l5.438,1.457c0.196-0.278,0.395-0.552,0.565-0.849l-5.305-1.421
		C134.631,80.648,134.404,80.923,134.143,81.172z"/>
	<path opacity="0.1" enable-background="new    " d="M127.354,83.353l8.883,2.38c0.368-0.222,0.71-0.467,1.043-0.721l-7.177-1.923
		C129.278,83.251,128.364,83.34,127.354,83.353z"/>
	<polygon opacity="0.1" enable-background="new    " points="118.6,95.007 122.534,96.062 123.95,96.062 123.95,95.441 
		118.6,94.007 	"/>
	<polygon opacity="0.1" enable-background="new    " points="118.6,90.007 118.6,91.007 123.95,92.441 123.95,91.441 	"/>
	<polygon opacity="0.1" enable-background="new    " points="118.6,93.007 123.95,94.441 123.95,93.441 118.6,92.007 	"/>
	<polygon opacity="0.1" enable-background="new    " points="133.375,92.966 141.184,95.059 140.299,93.822 132.509,91.735 	"/>
	<polygon opacity="0.1" enable-background="new    " points="135.107,95.431 137.462,96.062 141.194,96.062 134.241,94.199 	"/>
	<polygon opacity="0.1" enable-background="new    " points="123.95,68.441 123.95,67.441 118.6,66.007 118.6,67.007 	"/>
	<polygon opacity="0.1" enable-background="new    " points="118.6,69.007 123.95,70.441 123.95,69.441 118.6,68.007 	"/>
	<path opacity="0.1" enable-background="new    " d="M136.227,73.731l5.565,1.491c0.001-0.055,0.009-0.106,0.009-0.162
		c0-0.288-0.021-0.565-0.035-0.845l-5.699-1.527C136.137,73.023,136.19,73.371,136.227,73.731z"/>
	<path opacity="0.1" enable-background="new    " d="M134.344,69.226l6.953,1.863c-0.101-0.376-0.222-0.739-0.353-1.095
		l-9.373-2.511C132.713,67.89,133.632,68.476,134.344,69.226z"/>
	<path opacity="0.1" enable-background="new    " d="M135.781,71.611l5.904,1.582c-0.04-0.351-0.082-0.701-0.145-1.039l-6.28-1.683
		C135.461,70.83,135.64,71.206,135.781,71.611z"/>
	<polygon opacity="0.1" enable-background="new    " points="118.6,71.007 123.95,72.441 123.95,71.441 118.6,70.007 	"/>
	<polygon opacity="0.1" enable-background="new    " points="118.6,77.007 123.95,78.441 123.95,77.441 118.6,76.007 	"/>
	<polygon opacity="0.1" enable-background="new    " points="118.6,79.007 123.95,80.441 123.95,79.441 118.6,78.007 	"/>
	<polygon opacity="0.1" enable-background="new    " points="118.6,73.007 123.95,74.441 123.95,73.441 118.6,72.007 	"/>
	<polygon opacity="0.1" enable-background="new    " points="118.6,75.007 123.95,76.441 123.95,75.441 118.6,74.007 	"/>
	<path opacity="0.1" enable-background="new    " d="M127.1,66.81c1.087,0,2.058,0.094,2.938,0.263L118.6,64.007v1l6.726,1.802
		L127.1,66.81L127.1,66.81z"/>
	<path opacity="0.1" enable-background="new    " d="M135.372,79.502l5.213,1.397c0.136-0.293,0.262-0.591,0.375-0.899l-5.198-1.393
		C135.652,78.92,135.518,79.216,135.372,79.502z"/>
	<path opacity="0.1" enable-background="new    " d="M136.301,75.06c0,0.234-0.012,0.459-0.023,0.684l5.374,1.44
		c0.042-0.318,0.06-0.649,0.083-0.978l-5.445-1.459C136.292,74.853,136.301,74.953,136.301,75.06z"/>
	<path opacity="0.1" enable-background="new    " d="M136.028,77.678l5.232,1.402c0.086-0.306,0.153-0.623,0.218-0.942l-5.284-1.416
		C136.152,77.051,136.098,77.371,136.028,77.678z"/>
	<polygon opacity="0.1" enable-background="new    " points="47.098,2.327 47.098,2.327 46.43,2.327 47.098,2.506 	"/>
	<polygon opacity="0.1" enable-background="new    " points="42.848,21.368 47.098,22.506 47.098,21.506 42.848,20.368 	"/>
	<polygon opacity="0.1" enable-background="new    " points="42.848,19.368 47.098,20.506 47.098,19.506 42.848,18.368 	"/>
	<polygon opacity="0.1" enable-background="new    " points="39.457,5.923 41.188,5.923 39.457,5.459 	"/>
	<polygon opacity="0.1" enable-background="new    " points="47.098,6.506 39.457,4.459 39.457,5.459 41.188,5.923 42.848,5.923 
		42.848,6.368 47.098,7.506 	"/>
	<polygon opacity="0.1" enable-background="new    " points="42.848,23.368 45.15,23.984 47.098,23.984 47.098,23.506 
		42.848,22.368 	"/>
	<polygon opacity="0.1" enable-background="new    " points="47.098,8.506 42.848,7.368 42.848,8.368 47.098,9.506 	"/>
	<polygon opacity="0.1" enable-background="new    " points="47.098,15.506 42.848,14.368 42.848,15.368 47.098,16.506 	"/>
	<polygon opacity="0.1" enable-background="new    " points="47.098,17.506 42.848,16.368 42.848,17.368 47.098,18.506 	"/>
	<polygon opacity="0.1" enable-background="new    " points="47.098,2.506 46.43,2.327 42.698,2.327 47.098,3.506 	"/>
	<polygon opacity="0.1" enable-background="new    " points="47.098,10.506 42.848,9.368 42.848,10.368 47.098,11.506 	"/>
	<polygon opacity="0.1" enable-background="new    " points="47.098,4.506 39.457,2.459 39.457,3.459 47.098,5.506 	"/>
	<polygon opacity="0.1" enable-background="new    " points="47.098,13.506 42.848,12.368 42.848,13.368 47.098,14.506 	"/>
	<polygon opacity="0.1" enable-background="new    " points="47.098,12.506 42.848,11.368 42.848,12.368 47.098,13.506 	"/>
	<path opacity="0.1" enable-background="new    " d="M64.913,5.76c0.506,0,0.993,0.047,1.458,0.137
		c0.698,0.135,1.347,0.369,1.936,0.69c0.196,0.107,0.386,0.224,0.569,0.35c0.248,0.172,0.463,0.384,0.684,0.589l5.904,1.582
		c-0.153-0.391-0.325-0.772-0.52-1.139l-16-4.287C58.58,3.903,58.227,4.14,57.892,4.4l5.581,1.495
		C63.933,5.806,64.413,5.76,64.913,5.76z"/>
	<path opacity="0.1" enable-background="new    " d="M56.244,5.957L60.7,7.151c0.087-0.067,0.159-0.152,0.25-0.215
		c0.183-0.126,0.372-0.243,0.569-0.35c0.096-0.052,0.203-0.087,0.302-0.135L57.002,5.16C56.737,5.413,56.484,5.679,56.244,5.957z"/>
	<path opacity="0.1" enable-background="new    " d="M55.856,19.853l13.464,3.608c0.448-0.188,0.877-0.411,1.295-0.653L55.04,18.634
		C55.283,19.061,55.561,19.464,55.856,19.853z"/>
	<path opacity="0.1" enable-background="new    " d="M65.847,20.53l5.849,1.567c0.319-0.236,0.625-0.487,0.917-0.754l-4.881-1.308
		C67.15,20.284,66.517,20.448,65.847,20.53z"/>
	<path opacity="0.1" enable-background="new    " d="M73.134,5.482L61.78,2.44c-0.543,0.153-1.067,0.35-1.575,0.578l14.01,3.754
		C73.89,6.312,73.523,5.886,73.134,5.482z"/>
	<path opacity="0.1" enable-background="new    " d="M68.934,19.357l4.461,1.195c0.235-0.263,0.458-0.536,0.668-0.821l-4.247-1.138
		C69.545,18.875,69.251,19.131,68.934,19.357z"/>
	<path opacity="0.1" enable-background="new    " d="M59.039,22.706l6.101,1.635c0.854-0.017,1.687-0.134,2.492-0.332l-10.626-2.847
		C57.621,21.752,58.307,22.265,59.039,22.706z"/>
	<path opacity="0.1" enable-background="new    " d="M59.851,7.923l-4.25-1.139c-0.194,0.275-0.374,0.561-0.543,0.855l4.16,1.115
		C59.409,8.457,59.62,8.18,59.851,7.923z"/>
	<path opacity="0.1" enable-background="new    " d="M76.224,13.31c0.001-0.052,0.008-0.103,0.008-0.155
		c0-0.29-0.023-0.572-0.044-0.855l-4.609-1.235c0.079,0.338,0.143,0.686,0.183,1.049L76.224,13.31z"/>
	<path opacity="0.1" enable-background="new    " d="M71.362,16.008l4.131,1.107c0.115-0.3,0.218-0.605,0.306-0.918l-4.184-1.121
		C71.547,15.397,71.464,15.709,71.362,16.008z"/>
	<path opacity="0.1" enable-background="new    " d="M58.166,11.472l-4.204-1.126c-0.08,0.31-0.147,0.625-0.201,0.946l4.282,1.147
		C58.068,12.107,58.109,11.785,58.166,11.472z"/>
	<path opacity="0.1" enable-background="new    " d="M58.736,9.625l-4.128-1.106c-0.135,0.293-0.255,0.595-0.364,0.902l4.15,1.112
		C58.492,10.218,58.604,9.914,58.736,9.625z"/>
	<path opacity="0.1" enable-background="new    " d="M64.913,2c-0.297,0-0.59,0.021-0.883,0.043l7.377,1.977
		C69.548,2.743,67.299,2,64.913,2z"/>
	<path opacity="0.1" enable-background="new    " d="M53.594,13.155c0,0.031,0.005,0.061,0.005,0.093l4.503,1.206
		c-0.045-0.331-0.074-0.672-0.083-1.022l-4.378-1.173C53.617,12.555,53.594,12.852,53.594,13.155z"/>
	<path opacity="0.1" enable-background="new    " d="M75.826,10.204l-5.17-1.385c0.013,0.021,0.031,0.036,0.044,0.057
		c0.119,0.195,0.23,0.398,0.331,0.609c0.075,0.156,0.135,0.324,0.2,0.488l4.829,1.294C75.999,10.905,75.921,10.551,75.826,10.204z"
		/>
	<path opacity="0.1" enable-background="new    " d="M53.807,15.304l4.894,1.311c-0.155-0.351-0.29-0.718-0.394-1.106l-4.656-1.247
		C53.686,14.616,53.74,14.962,53.807,15.304z"/>
	<path opacity="0.1" enable-background="new    " d="M59.358,17.791l-5.285-1.416c0.114,0.378,0.245,0.748,0.397,1.106l6.117,1.639
		C60.121,18.742,59.709,18.296,59.358,17.791z"/>
	<path opacity="0.1" enable-background="new    " d="M70.992,16.909c-0.151,0.305-0.324,0.591-0.512,0.863l4.149,1.112
		c0.171-0.283,0.329-0.574,0.475-0.873L70.992,16.909z"/>
	<path opacity="0.1" enable-background="new    " d="M71.817,13.13c0,0.009,0.001,0.017,0.001,0.026
		c0,0.329-0.021,0.648-0.052,0.961l4.259,1.141c0.06-0.316,0.114-0.635,0.147-0.961L71.817,13.13z"/>
	<path opacity="0.1" enable-background="new    " d="M99.031,13.155c0,0.09-0.008,0.175-0.011,0.263l4.33,1.16
		c0.041-0.321,0.066-0.648,0.079-0.979l-4.436-1.189C99.012,12.656,99.031,12.901,99.031,13.155z"/>
	<path opacity="0.1" enable-background="new    " d="M98.768,15.351l4.17,1.117c0.095-0.306,0.182-0.615,0.251-0.933l-4.246-1.138
		C98.901,14.725,98.844,15.044,98.768,15.351z"/>
	<path opacity="0.1" enable-background="new    " d="M98.067,17.163l4.13,1.107c0.15-0.289,0.286-0.587,0.411-0.89l-4.127-1.106
		C98.362,16.586,98.221,16.88,98.067,17.163z"/>
	<path opacity="0.1" enable-background="new    " d="M96.792,18.822l4.305,1.153c0.211-0.271,0.413-0.549,0.599-0.839l-4.171-1.118
		C97.303,18.31,97.055,18.575,96.792,18.822z"/>
	<path opacity="0.1" enable-background="new    " d="M88.487,2.596l12.228,3.276c-0.443-0.505-0.928-0.972-1.454-1.39l-8.811-2.36
		C89.776,2.221,89.121,2.385,88.487,2.596z"/>
	<path opacity="0.1" enable-background="new    " d="M85.868,3.849c-0.016,0.01-0.029,0.023-0.045,0.034l7.235,1.938
		c0.177,0.021,0.354,0.042,0.525,0.075c0.477,0.092,0.92,0.246,1.348,0.427l7.401,1.983c-0.199-0.408-0.42-0.802-0.665-1.178
		L87.016,3.202C86.622,3.398,86.236,3.61,85.868,3.849z"/>
	<path opacity="0.1" enable-background="new    " d="M98.856,11.375l4.568,1.224c-0.017-0.346-0.044-0.689-0.091-1.024L98.578,10.3
		C98.695,10.642,98.784,11.003,98.856,11.375z"/>
	<path opacity="0.1" enable-background="new    " d="M97.913,8.876c0.056,0.092,0.104,0.192,0.157,0.288l5.058,1.355
		c-0.089-0.37-0.195-0.733-0.32-1.086l-5.617-1.505C97.454,8.222,97.702,8.532,97.913,8.876z"/>
	<path opacity="0.1" enable-background="new    " d="M81.11,10.62l4.224,1.132c0.049-0.326,0.115-0.642,0.197-0.947l-4.157-1.114
		C81.275,9.995,81.183,10.303,81.11,10.62z"/>
	<path opacity="0.1" enable-background="new    " d="M85.841,9.887c0.055-0.134,0.103-0.274,0.165-0.403
		c0.08-0.167,0.171-0.325,0.263-0.482l-4.136-1.108c-0.155,0.287-0.296,0.583-0.426,0.886L85.841,9.887z"/>
	<path opacity="0.1" enable-background="new    " d="M80.845,12.549l4.397,1.178c-0.011-0.189-0.023-0.377-0.023-0.572
		c0-0.147,0.016-0.285,0.022-0.429l-4.317-1.157C80.879,11.89,80.863,12.219,80.845,12.549z"/>
	<path opacity="0.1" enable-background="new    " d="M81.404,16.699l5.437,1.457c-0.295-0.368-0.555-0.771-0.774-1.208l-4.97-1.332
		C81.181,15.986,81.285,16.345,81.404,16.699z"/>
	<path opacity="0.1" enable-background="new    " d="M91.127,24.304L87.3,23.279C88.487,23.833,89.78,24.185,91.127,24.304z"/>
	<path opacity="0.1" enable-background="new    " d="M94.487,20.204l5.092,1.365c0.286-0.247,0.564-0.504,0.824-0.779l-4.574-1.226
		C95.414,19.825,94.965,20.04,94.487,20.204z"/>
	<path opacity="0.1" enable-background="new    " d="M80.897,14.563l4.722,1.265c-0.108-0.344-0.202-0.698-0.266-1.071l-4.522-1.212
		C80.843,13.887,80.855,14.23,80.897,14.563z"/>
	<path opacity="0.1" enable-background="new    " d="M83.444,20.34c0.38,0.447,0.8,0.856,1.244,1.239l9.541,2.556
		c0.637-0.12,1.261-0.28,1.859-0.502L83.352,20.22C83.384,20.259,83.411,20.302,83.444,20.34z"/>
	<path opacity="0.1" enable-background="new    " d="M92.125,20.592c-1.383,0-2.623-0.361-3.662-1.002l-6.614-1.772
		c0.116,0.249,0.223,0.503,0.356,0.741c0.082,0.146,0.178,0.283,0.266,0.426l15.017,4.024c0.393-0.209,0.771-0.443,1.136-0.696
		l-6.431-1.723C92.17,20.59,92.148,20.592,92.125,20.592z"/>
	<path opacity="0.1" enable-background="new    " d="M88.731,6.586c0.436-0.238,0.914-0.409,1.411-0.546l-5.295-1.419
		c-0.294,0.242-0.567,0.505-0.835,0.776l4.634,1.242C88.675,6.622,88.701,6.602,88.731,6.586z"/>
	<path opacity="0.1" enable-background="new    " d="M87.654,7.373l-4.386-1.175c-0.218,0.268-0.424,0.546-0.616,0.835l4.227,1.133
		C87.115,7.876,87.375,7.615,87.654,7.373z"/>
</g>
<g>
	<path opacity="0.1" enable-background="new    " d="M30.032,48.756h-2.754l7.601-17.701h0.153l7.626,17.701h-2.882l-0.995-2.423
		c0,0-7.728,0-7.754,0L30.032,48.756z M34.929,37.049l-2.882,6.861h5.713C37.786,43.91,34.929,37.049,34.929,37.049z"/>
	<path opacity="0.1" enable-background="new    " d="M48.905,37.355v11.401h-2.551V31.157h0.204l11.121,11.656V31.412h2.551v17.599
		h-0.204L48.905,37.355z"/>
	<path opacity="0.1" enable-background="new    " d="M66.222,44.19c0.791,1.531,2.142,2.347,3.928,2.347
		c1.836,0,3.061-0.867,3.061-2.27c0-1.632-1.224-2.194-2.755-2.882l-1.199-0.536c-2.551-1.122-4.285-2.449-4.285-5.152
		c0-2.653,1.964-4.515,4.82-4.515c2.219,0,3.852,0.893,4.948,2.729l-2.066,1.352c-0.663-1.122-1.53-1.683-2.831-1.683
		c-1.403,0-2.219,0.816-2.219,2.015c0,1.377,0.842,1.913,2.729,2.755l1.199,0.536c2.627,1.173,4.362,2.372,4.362,5.305
		c0,3.188-2.449,4.795-5.739,4.795c-2.933,0-5.075-1.428-6.249-3.647L66.222,44.19z"/>
	<path opacity="0.1" enable-background="new    " d="M85.987,31.412h4.897c5.662,0,9.131,3.545,9.131,8.672
		s-3.443,8.672-9.131,8.672h-4.897V31.412z M90.731,46.333c4.489,0,6.453-2.576,6.453-6.249s-1.964-6.249-6.453-6.249h-2.015v12.498
		H90.731z"/>
	<path opacity="0.1" enable-background="new    " d="M104.222,31.412h11.044v2.423h-8.315v7.193h7.371V43.4h-7.371v2.933h8.672
		v2.423h-11.401C104.222,48.756,104.222,31.412,104.222,31.412z"/>
</g>
<g>
	<path fill="#FFFFFF" d="M28.032,47.756h-2.754l7.601-17.701h0.153l7.626,17.701h-2.882l-0.995-2.423c0,0-7.728,0-7.754,0
		L28.032,47.756z M32.929,36.049l-2.882,6.861h5.713C35.786,42.91,32.929,36.049,32.929,36.049z"/>
	<path fill="#FFFFFF" d="M46.905,36.355v11.401h-2.551V30.157h0.204l11.121,11.656V30.412h2.551v17.599h-0.204L46.905,36.355z"/>
	<path fill="#FFFFFF" d="M64.222,43.19c0.791,1.531,2.142,2.347,3.928,2.347c1.836,0,3.061-0.867,3.061-2.27
		c0-1.632-1.224-2.194-2.755-2.882l-1.199-0.536c-2.551-1.122-4.285-2.449-4.285-5.152c0-2.653,1.964-4.515,4.82-4.515
		c2.219,0,3.852,0.893,4.948,2.729l-2.066,1.352c-0.663-1.122-1.53-1.683-2.831-1.683c-1.403,0-2.219,0.816-2.219,2.015
		c0,1.377,0.842,1.913,2.729,2.755l1.199,0.536c2.627,1.173,4.362,2.372,4.362,5.305c0,3.188-2.449,4.795-5.739,4.795
		c-2.933,0-5.075-1.428-6.249-3.647L64.222,43.19z"/>
	<path fill="#FFFFFF" d="M83.987,30.412h4.897c5.662,0,9.131,3.545,9.131,8.672s-3.443,8.672-9.131,8.672h-4.897V30.412z
		 M88.731,45.333c4.489,0,6.453-2.576,6.453-6.249s-1.964-6.249-6.453-6.249h-2.015v12.498H88.731z"/>
	<path fill="#FFFFFF" d="M102.222,30.412h11.044v2.423h-8.315v7.193h7.371V42.4h-7.371v2.933h8.672v2.423h-11.401
		C102.222,47.756,102.222,30.412,102.222,30.412z"/>
</g>
<g>
	<g>
		<path fill="#F5DA3F" d="M10.101,65.467H0v-4.75h25.551v4.75h-10.1v29.252h-5.35V65.467z"/>
		<path fill="#FFFFFF" d="M23.551,62.717v0.75H15.45h-2v2v27.252H12.1V65.467v-2h-2H2v-0.75L23.551,62.717 M25.551,60.717H0v4.75
			h10.101v29.252h5.35V65.467h10.101L25.551,60.717L25.551,60.717z"/>
	</g>
	<g>
		<path fill="#F5DA3F" d="M31.8,77.718c0-10.051,7.8-17.451,17.551-17.451s17.551,7.4,17.551,17.451s-7.801,17.451-17.551,17.451
			S31.8,87.769,31.8,77.718z M61.352,77.718c0-7.201-4.95-12.601-12.001-12.601c-7.05,0-12,5.4-12,12.601
			c0,7.2,4.95,12.601,12,12.601S61.352,84.918,61.352,77.718z"/>
		<path fill="#FFFFFF" d="M49.351,62.267c8.866,0,15.551,6.643,15.551,15.451s-6.686,15.451-15.551,15.451S33.8,86.526,33.8,77.718
			S40.485,62.267,49.351,62.267 M49.351,92.319c8.113,0,14.001-6.14,14.001-14.601c0-8.46-5.888-14.601-14.001-14.601
			c-8.112,0-14,6.141-14,14.601C35.35,86.178,41.238,92.319,49.351,92.319 M49.351,60.267c-9.75,0-17.551,7.4-17.551,17.451
			s7.8,17.451,17.551,17.451s17.551-7.4,17.551-17.451S59.101,60.267,49.351,60.267L49.351,60.267z M49.351,90.319
			c-7.05,0-12-5.4-12-12.601c0-7.201,4.95-12.601,12-12.601c7.051,0,12.001,5.4,12.001,12.601
			C61.352,84.918,56.401,90.319,49.351,90.319L49.351,90.319z"/>
	</g>
	<g>
		<path fill="#F5DA3F" d="M77.45,82.719V60.717h5.35v21.701c0,5.45,2.7,7.9,7.65,7.9c4.9,0,7.601-2.45,7.601-7.9V60.717h5.35v22.001
			c0,8.3-5.6,12.451-12.951,12.451C83.05,95.169,77.45,91.019,77.45,82.719z"/>
		<path fill="#FFFFFF" d="M101.401,62.717v20.001c0,6.544-4.094,10.451-10.951,10.451c-9.929,0-11.001-7.308-11.001-10.451V62.717
			H80.8v19.701c0,6.384,3.427,9.9,9.65,9.9c6.191,0,9.601-3.516,9.601-9.9V62.717H101.401 M103.401,60.717h-5.35v21.701
			c0,5.45-2.7,7.9-7.601,7.9c-4.95,0-7.65-2.45-7.65-7.9V60.717h-5.35v22.001c0,8.3,5.601,12.451,13.001,12.451
			c7.351,0,12.951-4.15,12.951-12.451L103.401,60.717L103.401,60.717z"/>
	</g>
	<g>
		<path fill="#F5DA3F" d="M138.901,94.719h-6.35l-5.8-8.25c-0.75,0.1-1.6,0.15-2.45,0.15h-3.35v8.101H115.6V60.717h8.701
			c9.351,0,14.501,5.15,14.501,13c0,5.25-2.351,9.301-6.801,11.351L138.901,94.719z M124.1,82.018c6.55,0,9.201-3.1,9.201-8.301
			c0-5.15-2.7-8.25-9.201-8.25h-3.15v16.551H124.1z"/>
		<path fill="#FFFFFF" d="M124.3,62.717c7.945,0,12.501,4.01,12.501,11c0,3.165-0.978,7.388-5.638,9.535l-2.197,1.012l1.407,1.968
			l4.638,6.487h-1.423l-5.203-7.401l-0.698-0.993l-1.203,0.161c-0.649,0.087-1.404,0.132-2.186,0.132h-3.35h-2v2v6.101H117.6V62.717
			H124.3 M118.95,84.018h2h3.15c7.223,0,11.201-3.658,11.201-10.301c0-6.61-3.978-10.25-11.201-10.25h-3.15h-2v2v16.551
			L118.95,84.018 M124.3,60.717h-8.7v34.002h5.351v-8.101h3.35c0.85,0,1.7-0.05,2.45-0.15l5.8,8.25h6.35l-6.9-9.65
			c4.45-2.05,6.801-6.101,6.801-11.351C138.801,65.868,133.651,60.717,124.3,60.717L124.3,60.717z M120.95,82.018V65.467h3.15
			c6.5,0,9.201,3.101,9.201,8.25c0,5.201-2.65,8.301-9.201,8.301L120.95,82.018L120.95,82.018z"/>
	</g>
</g>
<g>
	<g>
		<g>
			<path fill="#F5DA3F" d="M40.848,3.923h-3.392V0.327h7.641v21.657h-4.25L40.848,3.923L40.848,3.923z"/>
			<path fill="#FFFFFF" d="M43.463,1.962V20.35h-0.981V3.923V2.288h-1.634h-1.757V1.962H43.463 M45.098,0.327h-7.641v3.596h3.392
				v18.061h4.25L45.098,0.327L45.098,0.327z"/>
		</g>
		<g>
			<path fill="#F5DA3F" d="M51.594,11.155C51.594,4.781,56.824,0,62.913,0s11.319,4.781,11.319,11.155
				c0,6.334-5.23,11.197-11.319,11.197S51.594,17.489,51.594,11.155z M69.819,11.155c0-4.413-2.861-7.396-6.906-7.396
				s-6.906,2.983-6.906,7.396s2.861,7.437,6.906,7.437S69.819,15.569,69.819,11.155z"/>
			<path fill="#FFFFFF" d="M62.913,1.634c5.34,0,9.685,4.271,9.685,9.521c0,5.273-4.345,9.562-9.685,9.562s-9.684-4.29-9.684-9.562
				C53.228,5.906,57.573,1.634,62.913,1.634 M62.913,20.227c4.949,0,8.54-3.815,8.54-9.071c0-5.317-3.512-9.03-8.54-9.03
				s-8.54,3.713-8.54,9.03C54.372,16.412,57.964,20.227,62.913,20.227 M62.913,0c-6.088,0-11.319,4.781-11.319,11.155
				c0,6.334,5.23,11.197,11.319,11.197s11.319-4.863,11.319-11.197C74.232,4.781,69.001,0,62.913,0L62.913,0z M62.913,18.592
				c-4.045,0-6.906-3.024-6.906-7.437s2.861-7.396,6.906-7.396s6.906,2.983,6.906,7.396S66.958,18.592,62.913,18.592L62.913,18.592z
				"/>
		</g>
		<g>
			<path fill="#F5DA3F" d="M78.807,11.155C78.807,4.781,84.037,0,90.125,0c6.089,0,11.319,4.781,11.319,11.155
				c0,6.334-5.23,11.197-11.319,11.197C84.037,22.352,78.807,17.489,78.807,11.155z M97.031,11.155c0-4.413-2.861-7.396-6.906-7.396
				s-6.906,2.983-6.906,7.396s2.861,7.437,6.906,7.437C94.171,18.592,97.031,15.569,97.031,11.155z"/>
			<path fill="#FFFFFF" d="M90.125,1.634c5.34,0,9.685,4.271,9.685,9.521c0,5.273-4.345,9.562-9.685,9.562s-9.684-4.29-9.684-9.562
				C80.441,5.906,84.785,1.634,90.125,1.634 M90.125,20.227c4.949,0,8.54-3.815,8.54-9.071c0-5.317-3.512-9.03-8.54-9.03
				s-8.54,3.713-8.54,9.03C81.585,16.412,85.177,20.227,90.125,20.227 M90.125,0c-6.088,0-11.319,4.781-11.319,11.155
				c0,6.334,5.23,11.197,11.319,11.197s11.319-4.863,11.319-11.197C101.444,4.781,96.214,0,90.125,0L90.125,0z M90.125,18.592
				c-4.045,0-6.906-3.024-6.906-7.437S86.08,3.76,90.125,3.76s6.906,2.983,6.906,7.396S94.17,18.592,90.125,18.592L90.125,18.592z"
				/>
		</g>
	</g>
</g>
<line fill="none" stroke="#FFFFFF" stroke-width="0.3" stroke-miterlimit="10" x1="0" y1="55.717" x2="141.801" y2="55.717"/>
<circle fill="#F5DA3F" stroke="#FFFFFF" stroke-miterlimit="10" cx="70.901" cy="55.717" r="1.706"/>
<line fill="none" stroke="#FFFFFF" stroke-width="0.3" stroke-miterlimit="10" x1="0" y1="101.512" x2="141.801" y2="101.512"/>
<circle fill="#F5DA3F" stroke="#FFFFFF" stroke-miterlimit="10" cx="70.901" cy="101.512" r="1.706"/>
<g>
	<g>
		<path fill="#FFFFFF" d="M89.293,130.168c0-1.269-3.509-1.01-3.984-3.291c-0.475-2.281,2.699-3.587,2.165-4.692
			c-0.542-1.124-3.524,0.622-5.019-1.229c-1.495-1.85,0.885-4.393-0.085-5.167c-0.966-0.771-2.565,2.154-5.057,1.062
			s-1.094-4.339-2.32-4.618c-1.187-0.27-1.487,3.131-4.092,3.159c-2.605,0.027-2.905-3.428-4.092-3.159
			c-1.226,0.278,0.186,3.475-2.32,4.618c-2.505,1.143-4.091-1.834-5.056-1.063c-0.97,0.775,1.345,3.322-0.085,5.167
			s-4.477,0.105-5.02,1.229c-0.533,1.106,2.703,2.294,2.165,4.692c-0.538,2.398-3.984,2.022-3.984,3.291s3.511,1.115,3.984,3.29
			c0.473,2.176-2.699,3.587-2.165,4.693c0.543,1.124,3.659-0.41,5.019,1.228c1.361,1.639-0.884,4.393,0.086,5.168
			c0.965,0.771,2.753-2.208,5.056-1.063c2.304,1.146,1.094,4.34,2.32,4.618c1.187,0.27,1.594-3.186,4.092-3.159
			c2.498,0.027,2.904,3.428,4.092,3.159c1.226-0.279,0.001-3.637,2.32-4.618c2.318-0.981,4.091,1.834,5.056,1.063
			c0.97-0.775-1.501-3.244,0.085-5.168c1.587-1.922,4.478-0.105,5.02-1.229c0.533-1.106-2.94-1.923-2.165-4.692
			C86.083,130.69,89.293,131.437,89.293,130.168z M70.899,141.19c-6.105,0-11.054-4.949-11.054-11.054
			c0-6.105,4.949-11.054,11.054-11.054s11.054,4.949,11.054,11.054C81.953,136.241,77.004,141.19,70.899,141.19z"/>
	</g>
</g>
</svg>
