<?xml version="1.0" encoding="utf-8"?>
<!-- Generator: Adobe Illustrator 16.0.0, SVG Export Plug-In . SVG Version: 6.00 Build 0)  -->
<!DOCTYPE svg PUBLIC "-//W3C//DTD SVG 1.1//EN" "http://www.w3.org/Graphics/SVG/1.1/DTD/svg11.dtd">
<svg version="1.1" id="Calque_1" xmlns="http://www.w3.org/2000/svg" xmlns:xlink="http://www.w3.org/1999/xlink" x="0px" y="0px"
	 width="60.885px" height="90.646px" viewBox="0 0 60.885 90.646" enable-background="new 0 0 60.885 90.646" xml:space="preserve">
<g>
	<path fill="#F5DA3F" d="M7.128,34.312h7.765v-22.34c0-0.865,0.026-1.775,0.08-2.729L9.46,13.854
		c-0.23,0.194-0.464,0.327-0.702,0.397c-0.239,0.071-0.473,0.106-0.702,0.106c-0.354,0-0.676-0.075-0.967-0.225
		s-0.508-0.322-0.649-0.517L4.373,10.78l11.687-9.938h5.379v33.47h6.891v4.902h-21.2V34.312z"/>
	<path fill="#F5DA3F" d="M44.784,23.924c-1.324,0-2.623-0.229-3.895-0.689c-1.271-0.459-2.408-1.153-3.406-2.08
		c-0.998-0.928-1.797-2.076-2.398-3.445c-0.6-1.369-0.9-2.972-0.9-4.81c0-1.713,0.318-3.321,0.955-4.823
		c0.635-1.501,1.527-2.817,2.676-3.948c1.148-1.13,2.525-2.023,4.135-2.677c1.605-0.653,3.383-0.98,5.326-0.98
		c1.961,0,3.723,0.31,5.285,0.928c1.564,0.619,2.898,1.484,4.002,2.597c1.104,1.113,1.953,2.447,2.545,4.001
		s0.887,3.259,0.887,5.114c0,1.184-0.102,2.306-0.305,3.366s-0.494,2.08-0.873,3.061c-0.381,0.98-0.836,1.935-1.365,2.862
		c-0.531,0.928-1.123,1.86-1.775,2.796l-8.771,12.508c-0.301,0.424-0.748,0.782-1.338,1.074c-0.594,0.292-1.27,0.437-2.027,0.437
		h-6.016l11.898-14.867c0.299-0.371,0.582-0.733,0.848-1.086c0.266-0.353,0.521-0.706,0.768-1.06
		c-0.883,0.566-1.854,0.994-2.914,1.286S45.95,23.924,44.784,23.924z M53.741,12.449c0-1.042-0.158-1.974-0.479-2.795
		c-0.318-0.822-0.77-1.515-1.354-2.081c-0.584-0.565-1.279-0.998-2.084-1.298c-0.807-0.3-1.688-0.451-2.643-0.451
		c-0.992,0-1.885,0.164-2.682,0.49c-0.797,0.327-1.475,0.782-2.031,1.365c-0.559,0.583-0.988,1.277-1.289,2.081
		s-0.451,1.683-0.451,2.637c0,2.138,0.555,3.768,1.66,4.889c1.107,1.122,2.678,1.683,4.713,1.683c1.062,0,2.006-0.167,2.828-0.503
		c0.824-0.335,1.518-0.795,2.084-1.378s0.996-1.272,1.289-2.067C53.595,14.225,53.741,13.368,53.741,12.449z"/>
	<path fill="#F5DA3F" d="M15.953,50.471c1.766,0,3.383,0.262,4.85,0.781c1.465,0.521,2.719,1.26,3.762,2.213
		c1.043,0.955,1.855,2.104,2.439,3.445c0.582,1.343,0.873,2.836,0.873,4.479c0,1.414-0.207,2.721-0.623,3.922
		c-0.414,1.202-0.971,2.35-1.668,3.445c-0.699,1.096-1.516,2.155-2.451,3.18c-0.938,1.025-1.918,2.067-2.942,3.127l-8.639,8.825
		c0.848-0.247,1.678-0.438,2.491-0.57c0.812-0.132,1.59-0.198,2.332-0.198h9.833c0.705,0,1.266,0.198,1.682,0.596
		c0.414,0.397,0.623,0.924,0.623,1.577v3.922H2.226v-2.173c0-0.441,0.093-0.901,0.278-1.378c0.186-0.478,0.481-0.919,0.888-1.325
		l11.633-11.66c0.972-0.989,1.842-1.935,2.61-2.835c0.769-0.901,1.413-1.794,1.935-2.677c0.521-0.883,0.918-1.779,1.192-2.689
		s0.412-1.869,0.412-2.875c0-0.924-0.133-1.736-0.398-2.438c-0.265-0.701-0.645-1.291-1.139-1.77
		c-0.495-0.479-1.083-0.839-1.763-1.078c-0.68-0.24-1.444-0.359-2.292-0.359c-1.573,0-2.867,0.398-3.882,1.197
		c-1.016,0.798-1.727,1.871-2.133,3.22c-0.194,0.674-0.486,1.157-0.875,1.45s-0.883,0.439-1.484,0.439
		c-0.265,0-0.557-0.027-0.875-0.08l-3.445-0.609c0.265-1.837,0.777-3.449,1.537-4.836s1.709-2.544,2.849-3.472
		c1.139-0.927,2.446-1.625,3.922-2.093C12.671,50.706,14.257,50.471,15.953,50.471z"/>
	<path fill="#F5DA3F" d="M37.868,84.312h7.764v-22.34c0-0.865,0.027-1.775,0.08-2.729L40.2,63.854
		c-0.23,0.194-0.463,0.327-0.703,0.397c-0.238,0.071-0.473,0.106-0.701,0.106c-0.354,0-0.676-0.076-0.967-0.226
		c-0.293-0.149-0.508-0.322-0.65-0.517l-2.066-2.836l11.686-9.938h5.381v33.47h6.889v4.902H37.868V84.312z"/>
</g>
</svg>
