<?xml version="1.0" encoding="utf-8"?>
<!-- Generator: Adobe Illustrator 17.0.0, SVG Export Plug-In . SVG Version: 6.00 Build 0)  -->
<!DOCTYPE svg PUBLIC "-//W3C//DTD SVG 1.1//EN" "http://www.w3.org/Graphics/SVG/1.1/DTD/svg11.dtd">
<svg version="1.1" id="Calque_1" xmlns="http://www.w3.org/2000/svg" xmlns:xlink="http://www.w3.org/1999/xlink" x="0px" y="0px"
	 width="760.063px" height="457.198px" viewBox="788.156 0 760.063 457.198" enable-background="new 788.156 0 760.063 457.198"
	 xml:space="preserve">
<path fill="#76746B" d="M1299.794,75.211c0,0-0.526-20.778-9.894-21.112c0-4,0-8.333,0-8.333s32.631,3.667,44.631-3.667
	c0,11.333-1.333,13.833-1.333,13.833l-20.982,6.167c0,0-0.309,2.796-0.309,9.898C1311.907,79.099,1299.794,75.211,1299.794,75.211z"
	/>
<ellipse opacity="0.1" enable-background="new    " cx="939.781" cy="446.535" rx="151.625" ry="10.663"/>
<ellipse opacity="0.1" enable-background="new    " cx="1396.594" cy="446.535" rx="151.625" ry="10.663"/>
<path fill="#464646" d="M1113.893,361.536c0,2.588-2.098,4.685-4.685,4.685h-29.575c-2.588,0-4.685-2.098-4.685-4.685l0,0
	c0-2.588,2.098-4.685,4.685-4.685h29.575C1111.795,356.851,1113.893,358.949,1113.893,361.536L1113.893,361.536z"/>
<circle fill="#FFFFFF" cx="1094.42" cy="361.536" r="1.901"/>
<g class="roues">
	
		<rect x="1435.251" y="161.836" transform="matrix(0.7431 0.6691 -0.6691 0.7431 525.5645 -900.3386)" fill="#444444" width="0.5" height="145.117"/>
	
		<rect x="1406.533" y="151.328" transform="matrix(-0.9994 0.0349 -0.0349 -0.9994 2820.5229 398.5675)" fill="#444444" width="0.5" height="145.144"/>
	
		<rect x="1386.157" y="151.324" transform="matrix(0.9994 0.0349 -0.0349 0.9994 8.6585 -48.2488)" fill="#444444" width="0.5" height="145.144"/>
	
		<rect x="1357.429" y="161.813" transform="matrix(-0.7431 0.6691 -0.6691 -0.7431 2523.4519 -499.9291)" fill="#444444" width="0.5" height="145.117"/>
	
		<rect x="1341.889" y="174.876" transform="matrix(0.788 -0.6157 0.6157 0.788 132.1972 878.8048)" fill="#444444" width="0.5" height="145.147"/>
	
		<rect x="1326.67" y="201.232" transform="matrix(-0.1392 0.9903 -0.9903 -0.1392 1782.765 -1002.0799)" fill="#444444" width="0.5" height="145.156"/>
	
		<rect x="1323.138" y="221.269" transform="matrix(0.2079 -0.9781 0.9781 0.2079 760.8337 1527.2084)" fill="#444444" width="0.5" height="145.12"/>
	
		<rect x="1328.426" y="251.448" transform="matrix(0.5299 0.848 -0.848 0.5299 899.3468 -974.4671)" fill="#444444" width="0.5" height="145.12"/>
	
		<rect x="1338.607" y="268.966" transform="matrix(-0.4695 -0.8829 0.8829 -0.4695 1665.9229 1683.9935)" fill="#444444" width="0.5" height="145.129"/>
	
		<rect x="1338.607" y="268.966" transform="matrix(-0.4695 -0.8829 0.8829 -0.4695 1665.9229 1683.9935)" fill="#444444" width="0.5" height="145.129"/>
	
		<rect x="1361.905" y="288.59" transform="matrix(0.9511 0.309 -0.309 0.9511 178.2532 -403.217)" fill="#444444" width="0.5" height="145.156"/>
	
		<rect x="1381.107" y="295.576" transform="matrix(-0.9272 -0.3746 0.3746 -0.9272 2524.2288 1226.9425)" fill="#444444" width="0.5" height="145.147"/>
	
		<rect x="1411.587" y="295.563" transform="matrix(0.9272 -0.3746 0.3746 0.9272 -35.1043 555.672)" fill="#444444" width="0.5" height="145.147"/>
	
		<rect x="1430.777" y="288.623" transform="matrix(-0.9511 0.309 -0.309 -0.9511 2903.6348 262.5551)" fill="#444444" width="0.5" height="145.156"/>
	
		<rect x="1454.114" y="268.941" transform="matrix(0.4695 -0.8829 0.8829 0.4695 469.9965 1465.2593)" fill="#444444" width="0.5" height="145.129"/>
	
		<rect x="1464.23" y="251.442" transform="matrix(-0.5299 0.848 -0.848 -0.5299 2515.3159 -746.2435)" fill="#444444" width="0.5" height="145.12"/>
	
		<rect x="1469.579" y="221.255" transform="matrix(-0.2079 -0.9781 0.9781 -0.2079 1488.0265 1792.6118)" fill="#444444" width="0.5" height="145.12"/>
	
		<rect x="1466.032" y="201.212" transform="matrix(0.1392 0.9903 -0.9903 0.1392 1533.308 -1216.3279)" fill="#444444" width="0.5" height="145.156"/>
	
		<rect x="1450.78" y="174.873" transform="matrix(-0.788 -0.6157 0.6157 -0.788 2442.0728 1335.8174)" fill="#444444" width="0.5" height="145.147"/>
	<path fill="#FFFFFF" d="M1397.547,171.052c21.761,0,43.293,5.791,62.269,16.746c28.872,16.669,49.525,43.585,58.154,75.788
		s4.201,65.839-12.469,94.711c-11.162,19.334-27.268,35.317-46.576,46.223c-18.774,10.604-40.094,16.209-61.654,16.209
		c-21.761,0-43.293-5.791-62.269-16.746c-28.872-16.669-49.525-43.585-58.154-75.788s-4.201-65.839,12.469-94.711
		c11.162-19.334,27.268-35.317,46.576-46.223C1354.668,176.657,1375.987,171.052,1397.547,171.052 M1397.547,148.052
		c-51.088,0-100.769,26.509-128.149,73.932c-40.818,70.698-16.595,161.1,54.104,201.917c23.276,13.438,48.695,19.828,73.769,19.828
		c51.088,0,100.769-26.509,128.149-73.932c40.818-70.698,16.595-161.1-54.104-201.917
		C1448.041,154.442,1422.622,148.052,1397.547,148.052L1397.547,148.052z"/>
	<path fill="#464646" d="M1397.548,159.552c23.776,0,47.297,6.324,68.018,18.287c31.533,18.205,54.088,47.601,63.512,82.77
		c9.424,35.17,4.588,71.905-13.618,103.438c-12.189,21.113-29.783,38.571-50.88,50.486c-20.496,11.577-43.772,17.696-67.31,17.696
		c-23.776,0-47.297-6.324-68.018-18.287c-31.533-18.205-54.088-47.6-63.512-82.771s-4.588-71.905,13.618-103.437
		c12.189-21.113,29.783-38.571,50.88-50.486C1350.734,165.671,1374.01,159.552,1397.548,159.552 M1397.548,147.552
		c-51.26,0-101.11,26.599-128.582,74.182c-40.956,70.937-16.651,161.645,54.287,202.6c23.354,13.484,48.859,19.895,74.018,19.895
		c51.26,0,101.11-26.599,128.582-74.182c40.956-70.937,16.651-161.645-54.287-202.6
		C1448.212,153.963,1422.707,147.552,1397.548,147.552L1397.548,147.552z"/>
	<path fill="#212121" d="M1397.55,153.246c24.88,0,49.49,6.616,71.169,19.133c32.991,19.047,56.59,49.802,66.45,86.599
		s4.8,75.231-14.248,108.222c-12.753,22.089-31.162,40.354-53.237,52.823c-21.442,12.111-45.791,18.512-70.415,18.512
		c-24.88,0-49.49-6.616-71.169-19.132c-32.991-19.047-56.59-49.802-66.45-86.599s-4.8-75.231,14.248-108.222
		c12.753-22.089,31.162-40.354,53.237-52.823C1348.577,159.648,1372.926,153.246,1397.55,153.246 M1397.55,145.246
		c-52.057,0-102.682,27.012-130.581,75.335c-41.592,72.04-16.91,164.157,55.131,205.75c23.717,13.693,49.619,20.204,75.169,20.204
		c52.057,0,102.682-27.012,130.581-75.335c41.592-72.04,16.91-164.157-55.13-205.75
		C1449.002,151.757,1423.1,145.246,1397.55,145.246L1397.55,145.246z"/>
	<g>
		<path fill="#464646" d="M1408.004,289.304c-0.454-0.787-2.538,0.63-3.65-0.614c-1.112-1.245,0.39-3.191-0.337-3.686
			c-0.739-0.503-1.963,1.647-3.554,1.035c-1.59-0.612-1.024-3.042-1.904-3.175c-0.875-0.132-0.82,2.255-2.757,2.47
			s-2.233-2.3-3.093-2.034c-0.833,0.258,0.199,2.475-1.407,3.425c-1.606,0.95-3.03-1.086-3.669-0.494
			c-0.661,0.612,1.36,2.089,0.215,3.696c-1.145,1.607-3.195,0.328-3.517,1.152c-0.324,0.828,2.024,1.579,1.798,3.236
			c-0.226,1.657-2.74,1.669-2.674,2.56c0.065,0.877,2.498,0.455,3.023,2.135c0.525,1.68-1.747,2.681-1.293,3.468
			s2.578-0.566,3.65,0.614c1.072,1.18-0.39,3.191,0.337,3.686c0.739,0.503,2.123-1.564,3.554-1.035s1.024,3.042,1.904,3.175
			c0.875,0.133,0.917-2.356,2.756-2.47s2.233,2.3,3.093,2.034c0.833-0.258-0.152-2.547,1.407-3.425s3.03,1.086,3.67,0.494
			c0.661-0.612-1.302-2.257-0.215-3.696c1.087-1.439,3.195-0.328,3.517-1.152c0.324-0.828-2.093-1.475-1.798-3.236
			s2.74-1.669,2.674-2.56c-0.065-0.877-2.512-0.14-3.023-2.135C1406.2,290.777,1408.459,290.091,1408.004,289.304z
			 M1399.991,301.775c-3.199,1.847-7.289,0.751-9.136-2.448s-0.751-7.289,2.448-9.136s7.289-0.751,9.136,2.448
			S1403.19,299.928,1399.991,301.775z"/>
	</g>
</g>
<g class="roues">
	
		<rect x="978.231" y="161.822" transform="matrix(0.7431 0.6691 -0.6691 0.7431 408.1654 -594.5337)" fill="#444444" width="0.5" height="145.117"/>
	
		<rect x="949.529" y="151.328" transform="matrix(-0.9994 0.0349 -0.0349 -0.9994 1906.7931 414.5172)" fill="#444444" width="0.5" height="145.144"/>
	
		<rect x="929.161" y="151.325" transform="matrix(0.9994 0.0349 -0.0349 0.9994 8.3801 -32.2997)" fill="#444444" width="0.5" height="145.144"/>
	
		<rect x="900.449" y="161.799" transform="matrix(-0.7431 0.6691 -0.6691 -0.7431 1726.8615 -194.1722)" fill="#444444" width="0.5" height="145.117"/>
	
		<rect x="884.885" y="174.858" transform="matrix(0.788 -0.6157 0.6157 0.788 35.3181 597.428)" fill="#444444" width="0.5" height="145.147"/>
	
		<rect x="869.658" y="201.246" transform="matrix(-0.1392 0.9903 -0.9903 -0.1392 1262.153 -549.5007)" fill="#444444" width="0.5" height="145.156"/>
	
		<rect x="866.134" y="221.29" transform="matrix(0.2079 -0.9781 0.9781 0.2079 398.8251 1080.2072)" fill="#444444" width="0.5" height="145.12"/>
	
		<rect x="871.417" y="251.427" transform="matrix(0.5299 0.848 -0.848 0.5299 684.5018 -586.9133)" fill="#444444" width="0.5" height="145.12"/>
	
		<rect x="881.594" y="268.987" transform="matrix(-0.4695 -0.8829 0.8829 -0.4695 994.3174 1280.5172)" fill="#444444" width="0.5" height="145.129"/>
	
		<rect x="881.594" y="268.987" transform="matrix(-0.4695 -0.8829 0.8829 -0.4695 994.3174 1280.5172)" fill="#444444" width="0.5" height="145.129"/>
	
		<rect x="904.925" y="288.582" transform="matrix(0.9511 0.309 -0.309 0.9511 155.8887 -262.0158)" fill="#444444" width="0.5" height="145.156"/>
	
		<rect x="924.1" y="295.579" transform="matrix(-0.9272 -0.3746 0.3746 -0.9272 1643.4883 1055.7557)" fill="#444444" width="0.5" height="145.147"/>
	
		<rect x="954.594" y="295.566" transform="matrix(0.9272 -0.3746 0.3746 0.9272 -68.3798 384.485)" fill="#444444" width="0.5" height="145.147"/>
	
		<rect x="973.756" y="288.615" transform="matrix(-0.9511 0.309 -0.309 -0.9511 2011.9551 403.7545)" fill="#444444" width="0.5" height="145.156"/>
	
		<rect x="997.127" y="268.963" transform="matrix(0.4695 -0.8829 0.8829 0.4695 227.5522 1061.7852)" fill="#444444" width="0.5" height="145.129"/>
	
		<rect x="1007.24" y="251.42" transform="matrix(-0.5299 0.848 -0.848 -0.5299 1816.1349 -358.729)" fill="#444444" width="0.5" height="145.12"/>
	
		<rect x="1012.583" y="221.276" transform="matrix(-0.2079 -0.9781 0.9781 -0.2079 935.9966 1345.6289)" fill="#444444" width="0.5" height="145.12"/>
	
		<rect x="1009.045" y="201.227" transform="matrix(0.1392 0.9903 -0.9903 0.1392 1139.946 -763.7763)" fill="#444444" width="0.5" height="145.156"/>
	
		<rect x="993.785" y="174.856" transform="matrix(-0.788 -0.6157 0.6157 -0.788 1624.9821 1054.4188)" fill="#444444" width="0.5" height="145.147"/>
	<path fill="#FFFFFF" d="M940.547,171.052c21.761,0,43.293,5.791,62.269,16.746c28.872,16.669,49.525,43.585,58.154,75.788
		s4.201,65.839-12.469,94.711c-11.162,19.334-27.268,35.317-46.576,46.223c-18.774,10.604-40.094,16.209-61.654,16.209
		c-21.761,0-43.293-5.791-62.269-16.746c-28.872-16.669-49.525-43.585-58.154-75.788c-8.629-32.203-4.201-65.839,12.469-94.711
		c11.162-19.334,27.268-35.317,46.576-46.223C897.668,176.657,918.987,171.052,940.547,171.052 M940.547,148.052
		c-51.088,0-100.769,26.509-128.149,73.932c-40.818,70.698-16.595,161.1,54.104,201.917c23.276,13.438,48.695,19.828,73.769,19.828
		c51.088,0,100.769-26.509,128.149-73.932c40.818-70.698,16.595-161.1-54.104-201.917
		C991.041,154.442,965.622,148.052,940.547,148.052L940.547,148.052z"/>
	<path fill="#464646" d="M940.548,159.552c23.776,0,47.297,6.324,68.018,18.287c31.533,18.205,54.088,47.601,63.512,82.77
		c9.424,35.17,4.588,71.905-13.618,103.438c-12.189,21.113-29.783,38.571-50.88,50.486c-20.496,11.577-43.772,17.696-67.31,17.696
		c-23.776,0-47.297-6.324-68.018-18.287c-31.533-18.205-54.088-47.6-63.512-82.771s-4.588-71.905,13.618-103.437
		c12.189-21.113,29.783-38.571,50.88-50.486C893.734,165.671,917.01,159.552,940.548,159.552 M940.548,147.552
		c-51.26,0-101.11,26.599-128.582,74.182c-40.956,70.937-16.651,161.645,54.287,202.6c23.354,13.484,48.859,19.895,74.018,19.895
		c51.26,0,101.11-26.599,128.582-74.182c40.956-70.937,16.651-161.645-54.287-202.6
		C991.212,153.963,965.707,147.552,940.548,147.552L940.548,147.552z"/>
	<path fill="#212121" d="M940.55,153.246c24.88,0,49.49,6.616,71.169,19.133c32.991,19.047,56.59,49.802,66.45,86.599
		s4.8,75.231-14.248,108.222c-12.753,22.089-31.162,40.354-53.237,52.823c-21.442,12.111-45.791,18.512-70.415,18.512
		c-24.88,0-49.49-6.616-71.169-19.132c-32.991-19.047-56.59-49.802-66.45-86.599s-4.8-75.231,14.248-108.222
		c12.753-22.089,31.162-40.354,53.237-52.823C891.577,159.648,915.926,153.246,940.55,153.246 M940.55,145.246
		c-52.057,0-102.682,27.012-130.581,75.335c-41.592,72.04-16.91,164.157,55.13,205.75c23.717,13.693,49.619,20.204,75.169,20.204
		c52.057,0,102.682-27.012,130.581-75.335c41.592-72.04,16.91-164.157-55.13-205.75C992.002,151.757,966.1,145.246,940.55,145.246
		L940.55,145.246z"/>
	<g>
		<path fill="#464646" d="M951.004,289.304c-0.454-0.787-2.538,0.63-3.65-0.614c-1.112-1.245,0.39-3.191-0.337-3.686
			c-0.739-0.503-1.963,1.647-3.554,1.035c-1.59-0.612-1.025-3.042-1.904-3.175c-0.875-0.132-0.82,2.255-2.757,2.47
			s-2.233-2.3-3.093-2.034c-0.833,0.258,0.199,2.475-1.407,3.425c-1.606,0.95-3.03-1.086-3.669-0.494
			c-0.661,0.612,1.36,2.089,0.215,3.696c-1.145,1.606-3.195,0.328-3.517,1.152c-0.324,0.828,2.024,1.579,1.798,3.236
			c-0.226,1.657-2.74,1.669-2.674,2.56c0.065,0.877,2.498,0.455,3.024,2.135c0.525,1.68-1.747,2.681-1.293,3.468
			s2.578-0.566,3.65,0.614c1.072,1.18-0.39,3.191,0.337,3.686c0.739,0.503,2.123-1.564,3.554-1.035s1.025,3.042,1.904,3.175
			c0.875,0.133,0.917-2.356,2.756-2.47s2.233,2.3,3.093,2.034c0.833-0.258-0.152-2.547,1.407-3.425
			c1.559-0.878,3.03,1.086,3.67,0.494c0.661-0.612-1.302-2.257-0.215-3.696c1.087-1.439,3.195-0.328,3.517-1.152
			c0.324-0.828-2.093-1.475-1.798-3.236s2.74-1.669,2.674-2.56c-0.065-0.877-2.512-0.14-3.023-2.135
			C949.2,290.777,951.459,290.091,951.004,289.304z M942.991,301.775c-3.199,1.847-7.289,0.751-9.136-2.448
			s-0.751-7.289,2.448-9.136s7.289-0.751,9.136,2.448S946.19,299.928,942.991,301.775z"/>
	</g>
</g>
<g>
	
		<rect x="975.172" y="105.703" transform="matrix(-0.3025 -0.9532 0.9532 -0.3025 1283.4362 1158.6201)" fill="#76746B" width="180.967" height="8"/>
	<path d="M1130.353,315.726c-2.745,0-5.296-1.752-6.185-4.505l-74.489-230.725c-1.103-3.417,0.772-7.08,4.188-8.183
		c3.417-1.103,7.08,0.773,8.183,4.188l74.489,230.725c1.103,3.416-0.772,7.08-4.188,8.183
		C1131.688,315.623,1131.014,315.726,1130.353,315.726z"/>
	
		<rect x="1217.882" y="81.125" transform="matrix(-0.7096 -0.7046 0.7046 -0.7096 1942.047 1229.4675)" width="13" height="266.815"/>
	<g>
		<polygon points="946.493,294.576 1130.6,305.733 1130.108,312.715 946.257,297.916 		"/>
	</g>
	<g>
		<path d="M1313.173,70.959c0,0,1.136,3.531,3.125,9.711c1.943,6.194,4.719,15.043,8.051,25.662
			c1.64,5.318,3.416,11.078,5.295,17.171c0.933,3.049,1.892,6.18,2.872,9.381c0.484,1.602,0.974,3.222,1.468,4.857
			c0.483,1.671,0.97,3.358,1.461,5.06c1.943,6.659,3.952,13.54,5.992,20.532c2.05,6.988,4.15,14.083,6.309,21.147
			c2.156,7.063,4.286,14.14,6.529,21.009c1.122,3.429,2.243,6.836,3.42,10.112c0.568,1.673,1.188,3.228,1.786,4.805l0.225,0.589
			l0.224,0.57l0.495,1.221c0.324,0.779,0.647,1.556,0.969,2.329c2.657,6.258,5.526,12.276,8.218,17.99
			c2.733,5.698,5.394,11.06,7.875,15.996c2.52,4.913,4.825,9.425,6.971,13.356c2.126,3.942,4.037,7.341,5.676,10.079
			c1.63,2.744,3,4.814,3.955,6.176c0.486,0.667,0.861,1.18,1.125,1.492c0.261,0.326,0.395,0.494,0.395,0.494l-2.617,2.67
			c0,0-0.187-0.166-0.55-0.487c-0.376-0.32-0.882-0.808-1.539-1.451c-1.3-1.286-3.063-3.247-5.157-5.821
			c-4.172-5.158-9.655-12.787-15.684-22.27c-1.507-2.371-3.063-4.849-4.642-7.433c-1.561-2.594-3.153-5.289-4.769-8.076
			c-3.252-5.567-6.481-11.54-9.681-17.901c-0.397-0.81-0.796-1.624-1.197-2.44l-0.57-1.188l-0.143-0.298l-0.154-0.347l-0.278-0.635
			c-0.737-1.693-1.51-3.412-2.173-5.101c-1.403-3.401-2.707-6.823-4.019-10.28c-2.605-6.91-5.119-13.927-7.574-20.968
			c-2.444-7.042-4.822-14.094-7.146-21.043c-2.336-6.944-4.535-13.805-6.668-20.449c-0.52-1.626-1.035-3.239-1.546-4.836
			c-0.541-1.62-1.076-3.225-1.606-4.813c-1.049-3.179-2.075-6.289-3.074-9.317c-1.985-6.059-3.862-11.788-5.595-17.076
			c-3.413-10.593-6.258-19.42-8.249-25.599c-1.945-6.194-3.057-9.733-3.057-9.733L1313.173,70.959z"/>
	</g>
	<rect x="1061.89" y="89.158" width="253.797" height="16"/>
	<g>
		<circle fill="#010202" cx="939.687" cy="295.891" r="6.958"/>
	</g>
	<g>
		<path fill="#010202" d="M939.687,301.349c-3.01,0-5.458-2.449-5.458-5.459s2.449-5.458,5.458-5.458
			c3.009,0,5.458,2.448,5.458,5.458S942.697,301.349,939.687,301.349z"/>
		<g>
			<path fill="#FFFFFF" d="M939.687,291.932c2.183,0,3.958,1.776,3.958,3.958c0,2.183-1.776,3.958-3.958,3.958
				s-3.958-1.776-3.958-3.958S937.505,291.932,939.687,291.932 M939.687,288.932c-3.843,0-6.958,3.115-6.958,6.958
				c0,3.843,3.115,6.958,6.958,6.958s6.958-3.115,6.958-6.958C946.646,292.048,943.53,288.932,939.687,288.932L939.687,288.932z"/>
		</g>
	</g>
	<g>
		<path fill="#010202" d="M1396.595,301.349c-3.01,0-5.458-2.449-5.458-5.459s2.448-5.458,5.458-5.458s5.458,2.448,5.458,5.458
			S1399.605,301.349,1396.595,301.349z"/>
		<path d="M1396.595,291.932c2.183,0,3.958,1.776,3.958,3.958c0,2.183-1.776,3.958-3.958,3.958s-3.958-1.776-3.958-3.958
			S1394.413,291.932,1396.595,291.932 M1396.595,288.932c-3.843,0-6.958,3.115-6.958,6.958c0,3.843,3.115,6.958,6.958,6.958
			s6.958-3.115,6.958-6.958C1403.554,292.048,1400.438,288.932,1396.595,288.932L1396.595,288.932z"/>
	</g>
</g>
<path fill="#A57C5A" d="M1083.021,16.224c2.581,0.289,21.521,4.083,17.583-3.979s-16.25-7.354-16.25-7.354s-45,0.667-64.333,0
	s-35.542-4.667-35.542-4.667c-7.045-1.469-7.184,4.426,2.5,13.833c0,0,18.375,14.333,35.042,15.833
	C1038.688,31.39,1072.021,14.991,1083.021,16.224z"/>
<g>
	<g>
		<path fill="#76746B" d="M1110.189,343.262c-1.78-1.158,1.317-5.53-0.966-7.032c-0.705-0.464-1.507-0.541-2.23-0.205
			c-5.752,8.346-11.728,16.541-18.024,24.497c-1.292,1.603-0.819,3.968,1.081,5.301c0.672,0.475,1.348,0.948,2.022,1.423
			c1.902,1.336,4.294,0.994,5.346-0.768c5.052-8.278,10.255-16.098,15.647-24.182
			C1111.836,343.23,1110.961,343.765,1110.189,343.262z M1094.385,363.451c-1.024,0-1.855-0.831-1.855-1.855
			c0-1.024,0.831-1.855,1.855-1.855c1.024,0,1.855,0.83,1.855,1.855S1095.41,363.451,1094.385,363.451z"/>
		<path fill="#464646" d="M1162.573,305.053c-0.433-3.201,4.638-4.11,4.239-5.601c-0.406-1.516-5.081,0.147-6.468-2.736
			c-1.387-2.884,3.411-5.169,2.634-6.511c-0.782-1.352-5.189,1.397-6.957-0.963c-1.769-2.36,1.963-5.87,0.864-6.971
			c-0.746-0.746-1.493,0.267-3.347,0.741c-2.221,3.248-4.803,7.165-6.958,10.455c4.084,4.115,5.964,9.652,5.964,15.907
			c0,12.573-10.192,22.764-22.764,22.764c-12.573,0-22.765-10.192-22.765-22.764c0-12.572,10.192-22.764,22.765-22.764
			c3.271,0,5.979,0.524,8.791,1.766c2.645-3.737,4.262-6.04,6.81-9.841c-1.322,0.917-1.919,0.608-2.941,0.274
			c-2.861-0.959-1.221-6.064-2.738-6.469c-1.492-0.398-2.464,4.694-5.6,4.24s-2.742-5.537-4.321-5.537
			c-1.58,0-1.081,5.141-4.322,5.537s-4.108-4.639-5.6-4.24c-1.516,0.405,0.071,5.351-2.738,6.469
			c-2.809,1.118-5.169-3.412-6.512-2.635c-1.352,0.783,1.398,4.995-0.962,6.958s-5.871-1.963-6.971-0.862
			c-1.101,1.101,2.454,4.733,0.863,6.97s-6.176-0.389-6.959,0.964c-0.777,1.343,3.526,3.715,2.635,6.511
			c-0.892,2.796-6.063,1.221-6.469,2.737c-0.398,1.491,4.308,2.504,4.239,5.601c-0.069,3.098-5.537,2.741-5.537,4.321
			c0,1.58,5.22,1.159,5.537,4.321c0.317,3.162-4.638,4.11-4.239,5.601c0.406,1.516,5.313-0.108,6.468,2.736s-3.41,5.168-2.634,6.511
			c0.782,1.352,5.033-1.357,6.957,0.963c1.924,2.32-1.963,5.87-0.863,6.971c0.813,0.813,2.829-1.108,4.861-1.381
			c0.719-0.097,1.44,0.008,2.111,0.52c2.566,1.957-0.391,6.175,0.961,6.958c0.72,0.417,1.77-0.657,2.999-1.59
			c1.066-0.808,2.267-1.511,3.513-1.044c2.684,1.006,1.221,6.064,2.738,6.469c1.492,0.398,2.807-4.732,5.6-4.24
			s2.742,5.537,4.322,5.537s1.347-5.179,4.321-5.537s4.108,4.639,5.6,4.24c1.516-0.405-0.265-5.35,2.737-6.469
			c3.002-1.119,5.167,3.412,6.51,2.635c1.353-0.782-1.475-5.033,0.964-6.958c2.439-1.925,5.869,1.963,6.97,0.862
			s-2.917-4.384-0.862-6.971c2.055-2.586,6.176,0.39,6.959-0.963c0.777-1.343-4.068-3.638-2.635-6.512
			c1.434-2.874,6.063-1.22,6.469-2.737c0.398-1.491-4.772-2.234-4.239-5.602c0.533-3.368,5.537-2.741,5.537-4.321
			C1168.11,307.795,1163.006,308.255,1162.573,305.053z"/>
		<g>
			<path fill="#464646" d="M1144.588,308.95c0-1.033-2.858-0.823-3.245-2.68c-0.387-1.858,2.198-2.921,1.763-3.822
				c-0.442-0.915-2.87,0.506-4.088-1.001c-1.218-1.507,0.72-3.578-0.069-4.209c-0.787-0.628-2.089,1.754-4.119,0.865
				s-0.891-3.534-1.889-3.761c-0.967-0.22-1.211,2.55-3.333,2.573c-2.122,0.022-2.366-2.792-3.333-2.573
				c-0.998,0.227,0.151,2.831-1.889,3.761c-2.04,0.931-3.332-1.494-4.119-0.866c-0.79,0.631,1.095,2.706-0.07,4.209
				c-1.165,1.503-3.647,0.086-4.089,1.001c-0.434,0.901,2.201,1.869,1.764,3.821c-0.438,1.953-3.245,1.647-3.245,2.68
				s2.86,0.908,3.245,2.68s-2.198,2.921-1.764,3.822c0.442,0.915,2.98-0.334,4.088,1.001c1.108,1.335-0.72,3.578,0.07,4.209
				c0.786,0.628,2.242-1.798,4.119-0.865s0.891,3.534,1.889,3.761c0.967,0.22,1.298-2.595,3.333-2.573
				c2.034,0.022,2.366,2.792,3.333,2.573c0.998-0.227,0.001-2.962,1.889-3.761c1.888-0.799,3.332,1.494,4.119,0.866
				c0.79-0.631-1.223-2.642,0.07-4.209c1.292-1.566,3.647-0.086,4.089-1.001c0.434-0.901-2.394-1.566-1.763-3.821
				C1141.974,309.375,1144.588,309.983,1144.588,308.95z M1129.608,311.757c-1.315,0-2.382-1.066-2.382-2.382
				c0-1.316,1.066-2.382,2.382-2.382c1.315,0,2.381,1.066,2.381,2.382C1131.989,310.69,1130.923,311.757,1129.608,311.757z"/>
		</g>
	</g>
	<path fill="#010202" d="M1129.662,349.042l-190.215-38.677c-1.655-0.069-14.512-1.05-14.512-14.683
		c0-14.497,14.538-14.688,14.686-14.688l190.146-11.697l0.081,0.004c0.398,0.019,39.798,2.301,39.798,39.866
		c0,37.564-39.399,39.847-39.798,39.865L1129.662,349.042z M1129.781,272.303l-190.066,11.689
		c-0.563,0.006-11.779,0.211-11.779,11.69s11.216,11.685,11.693,11.688l0.293,0.03l189.961,38.625
		c1.33-0.094,9.974-0.862,18.471-5.336c12.139-6.39,18.293-16.995,18.293-31.521s-6.154-25.133-18.293-31.522
		C1139.595,273.035,1130.682,272.36,1129.781,272.303z"/>
	<path fill="#76746B" d="M1170.658,252.172c-0.672-0.474-1.347-0.948-2.022-1.423c-1.903-1.336-4.294-0.994-5.346,0.767
		c-5.29,8.67-10.736,17.267-16.404,25.722c-2.548,3.801-5.143,7.573-7.789,11.31c-4.602,6.502-9.357,12.898-14.304,19.15
		c-1.293,1.602-0.82,3.968,1.08,5.301c0.672,0.475,1.347,0.948,2.022,1.423c1.903,1.336,4.295,0.994,5.346-0.768
		c4.167-6.828,8.431-13.61,12.823-20.314c2.155-3.29,4.342-6.561,6.563-9.809c6.08-8.888,12.421-17.605,19.11-26.059
		C1173.031,255.871,1172.559,253.507,1170.658,252.172z M1129.608,311.757c-1.315,0-2.382-1.066-2.382-2.382
		c0-1.316,1.066-2.382,2.382-2.382c1.315,0,2.381,1.066,2.381,2.382C1131.989,310.69,1130.923,311.757,1129.608,311.757z
		 M1166.848,257.83c-1.024,0-1.855-0.831-1.855-1.855s0.831-1.855,1.855-1.855s1.855,0.83,1.855,1.855
		C1168.703,257,1167.872,257.83,1166.848,257.83z"/>
	<path fill="#464646" d="M1186.16,255.891c0,2.588-2.098,4.685-4.685,4.685H1151.9c-2.588,0-4.685-2.098-4.685-4.685l0,0
		c0-2.588,2.098-4.685,4.685-4.685h29.575C1184.063,251.205,1186.16,253.303,1186.16,255.891L1186.16,255.891z"/>
	<circle fill="#FFFFFF" cx="1166.687" cy="255.891" r="1.901"/>
</g>
<rect x="999.751" y="84.416" transform="matrix(-0.843 -0.538 0.538 -0.843 1743.3058 901.6394)" width="7" height="223.923"/>
<polyline fill="none" stroke="#A47C5A" stroke-width="12" stroke-linecap="round" stroke-miterlimit="10" points="1337.531,61.432 
	1391.198,61.432 1410.887,45.099 "/>
<line fill="none" stroke="#A47C5A" stroke-width="16" stroke-linecap="round" stroke-miterlimit="10" x1="1339.531" y1="42.766" x2="1339.531" y2="51.099"/>
<line fill="none" stroke="#A47C5A" stroke-width="16" stroke-miterlimit="10" x1="1339.531" y1="42.766" x2="1339.531" y2="61.099"/>
</svg>
