<?xml version="1.0" encoding="utf-8"?>
<!-- Generator: Adobe Illustrator 17.0.0, SVG Export Plug-In . SVG Version: 6.00 Build 0)  -->
<!DOCTYPE svg PUBLIC "-//W3C//DTD SVG 1.1//EN" "http://www.w3.org/Graphics/SVG/1.1/DTD/svg11.dtd">
<svg version="1.1" id="Calque_1" xmlns="http://www.w3.org/2000/svg" xmlns:xlink="http://www.w3.org/1999/xlink" x="0px" y="0px"
	 width="210px" height="210px" viewBox="0 0 210 210" enable-background="new 0 0 210 210" xml:space="preserve">
<g>
	<path d="M207.669,105.362c0-7.095-19.618-5.647-22.274-18.4c-2.657-12.752,15.091-20.053,12.105-26.235
		c-3.033-6.284-19.701,3.475-28.064-6.871c-8.36-10.346,4.947-24.561-0.477-28.892c-5.402-4.311-14.342,12.044-28.275,5.94
		c-13.935-6.104-6.116-24.263-12.971-25.819c-6.639-1.51-8.312,17.508-22.878,17.661C90.269,22.899,88.595,3.577,81.956,5.085
		c-6.854,1.557,1.038,19.432-12.97,25.82c-14.008,6.39-22.875-10.252-28.272-5.941c-5.423,4.331,7.519,18.574-0.478,28.892
		s-25.033,0.588-28.067,6.872c-2.981,6.184,15.112,12.827,12.106,26.233C21.269,100.369,2,98.268,2,105.362
		s19.632,6.235,22.275,18.396c2.643,12.166-15.091,20.055-12.106,26.238c3.034,6.283,20.458-2.291,28.063,6.868
		c7.607,9.163-4.945,24.562,0.481,28.894c5.397,4.312,15.394-12.344,28.272-5.941c12.88,6.408,6.116,24.266,12.97,25.821
		c6.639,1.508,8.912-17.812,22.879-17.661c13.965,0.15,16.239,19.169,22.878,17.661c6.854-1.558,0.007-20.337,12.97-25.821
		s22.875,10.254,28.272,5.941c5.423-4.332-8.394-18.139,0.478-28.894c8.871-10.748,25.035-0.585,28.067-6.87
		c2.981-6.183-16.437-10.753-12.106-26.236C189.723,108.28,207.669,112.456,207.669,105.362z M104.827,166.989
		c-34.134,0-61.806-27.67-61.806-61.804c0-34.135,27.672-61.806,61.806-61.806c34.135,0,61.806,27.67,61.806,61.806
		C166.633,139.319,138.962,166.989,104.827,166.989z"/>
</g>
<g>
	
		<circle fill="none" stroke="#FFFFFF" stroke-width="3" stroke-linecap="round" stroke-miterlimit="10" stroke-dasharray="0,74.033" cx="105.536" cy="105.399" r="70.694"/>
</g>
<circle fill="#FFFFFF" cx="166.75" cy="70" r="1.591"/>
<circle fill="#FFFFFF" cx="166.798" cy="140.797" r="1.591"/>
<circle fill="#FFFFFF" cx="105.536" cy="176.093" r="1.591"/>
<circle fill="#FFFFFF" cx="44.369" cy="140.797" r="1.591"/>
<circle fill="#FFFFFF" cx="44.369" cy="70" r="1.591"/>
<circle fill="#FFFFFF" cx="105.536" cy="34.705" r="1.591"/>
</svg>
