<?xml version="1.0" encoding="utf-8"?>
<!-- Generator: Adobe Illustrator 17.0.0, SVG Export Plug-In . SVG Version: 6.00 Build 0)  -->
<!DOCTYPE svg PUBLIC "-//W3C//DTD SVG 1.1//EN" "http://www.w3.org/Graphics/SVG/1.1/DTD/svg11.dtd">
<svg version="1.1" id="Calque_1" xmlns="http://www.w3.org/2000/svg" xmlns:xlink="http://www.w3.org/1999/xlink" x="0px" y="0px"
	 width="210px" height="210px" viewBox="0 0 210 210" enable-background="new 0 0 210 210" xml:space="preserve">
<g>
	<path d="M207.669,105.362c0-7.095-19.618-5.647-22.274-18.4c-2.657-12.752,15.091-20.053,12.105-26.235
		c-3.033-6.284-19.701,3.475-28.064-6.871c-8.36-10.346,4.947-24.561-0.477-28.892c-5.402-4.311-14.342,12.044-28.275,5.94
		c-13.935-6.104-6.116-24.263-12.971-25.819c-6.639-1.51-8.312,17.508-22.878,17.661C90.269,22.899,88.595,3.577,81.956,5.085
		c-6.854,1.557,1.038,19.432-12.97,25.82c-14.008,6.39-22.875-10.252-28.272-5.941c-5.423,4.331,7.519,18.574-0.478,28.892
		s-25.033,0.588-28.067,6.872c-2.981,6.184,15.112,12.827,12.106,26.233C21.269,100.369,2,98.268,2,105.362
		s19.632,6.235,22.275,18.396c2.643,12.166-15.091,20.055-12.106,26.238c3.034,6.283,20.458-2.291,28.063,6.868
		c7.607,9.163-4.945,24.562,0.481,28.894c5.397,4.312,15.394-12.344,28.272-5.941c12.88,6.408,6.116,24.266,12.97,25.821
		c6.639,1.508,8.912-17.812,22.879-17.661c13.965,0.15,16.239,19.169,22.878,17.661c6.854-1.558,0.007-20.337,12.97-25.821
		s22.875,10.254,28.272,5.941c5.423-4.332-8.394-18.139,0.478-28.894c8.871-10.748,25.035-0.585,28.067-6.87
		c2.981-6.183-16.437-10.753-12.106-26.236C189.723,108.28,207.669,112.456,207.669,105.362z M104.827,166.989
		c-34.134,0-61.806-27.67-61.806-61.804c0-34.135,27.672-61.806,61.806-61.806c34.135,0,61.806,27.67,61.806,61.806
		C166.633,139.319,138.962,166.989,104.827,166.989z"/>
</g>
<g>
	<path fill="#2D1101" d="M348.91,95.423l-0.387,0.587c1.117,0.787,2.148,1.71,2.148,2.257c0,1.459-0.863,1.503-0.966,1.503h-2.388
		v0.698h2.379c0.003,0,0.008,0,0.014,0c0.106,0,0.618-0.023,1.057-0.452c0.399-0.39,0.601-0.978,0.601-1.749
		C351.369,97.331,350.03,96.203,348.91,95.423z"/>
	
		<linearGradient id="SVGID_1_" gradientUnits="userSpaceOnUse" x1="277.8758" y1="318.1311" x2="285.7543" y2="309.7539" gradientTransform="matrix(1 0 0 -1 52.5 430)">
		<stop  offset="0" style="stop-color:#FFFFFF"/>
		<stop  offset="1" style="stop-color:#000000"/>
	</linearGradient>
	<circle fill="url(#SVGID_1_)" cx="333.012" cy="114.672" r="1.97"/>
	<path fill="#FFFFFF" d="M320.403,120.979c-5.286,0-9.585-4.3-9.585-9.586c0-5.285,4.3-9.586,9.585-9.586
		c5.286,0,9.586,4.301,9.586,9.586C329.99,116.68,325.689,120.979,320.403,120.979z M320.403,101.909
		c-5.23,0-9.485,4.255-9.485,9.484c0,5.23,4.255,9.485,9.485,9.485c5.23,0,9.485-4.255,9.485-9.485
		C329.889,106.164,325.634,101.909,320.403,101.909z"/>
	<circle cx="320.404" cy="111.394" r="0.421"/>
	<circle cx="350.75" cy="111.394" r="0.42"/>
	<path fill="#FFFFFF" d="M320.403,112.186c-0.436,0-0.791-0.355-0.791-0.792c0-0.436,0.355-0.791,0.791-0.791
		c0.437,0,0.792,0.355,0.792,0.791C321.195,111.83,320.84,112.186,320.403,112.186z M320.403,110.702
		c-0.381,0-0.691,0.311-0.691,0.691c0,0.382,0.31,0.691,0.691,0.691c0.381,0,0.692-0.31,0.692-0.691
		C321.095,111.013,320.785,110.702,320.403,110.702z"/>
	<path d="M320.403,121.312c-5.468,0-9.918-4.449-9.918-9.918c0-5.469,4.45-9.918,9.918-9.918c5.469,0,9.918,4.449,9.918,9.918
		C330.321,116.863,325.872,121.312,320.403,121.312z M320.403,101.775c-5.304,0-9.619,4.314-9.619,9.618
		c0,5.305,4.315,9.619,9.619,9.619c5.304,0,9.619-4.314,9.619-9.619C330.022,106.09,325.708,101.775,320.403,101.775z"/>
	<path fill="#FFFFFF" d="M350.75,112.186c-0.437,0-0.791-0.355-0.791-0.792c0-0.436,0.354-0.791,0.791-0.791
		s0.792,0.355,0.792,0.791C351.541,111.83,351.186,112.186,350.75,112.186z M350.75,110.702c-0.381,0-0.691,0.311-0.691,0.691
		c0,0.382,0.31,0.691,0.691,0.691s0.692-0.31,0.692-0.691C351.441,111.013,351.13,110.702,350.75,110.702z"/>
	<path fill="#FFFFFF" d="M320.403,120.83c-5.203,0-9.436-4.233-9.436-9.437c0-5.204,4.233-9.436,9.436-9.436
		c5.204,0,9.437,4.232,9.437,9.436C329.84,116.597,325.607,120.83,320.403,120.83z M320.403,102.058
		c-5.148,0-9.336,4.188-9.336,9.336c0,5.148,4.188,9.337,9.336,9.337c5.148,0,9.337-4.188,9.337-9.337
		C329.74,106.246,325.552,102.058,320.403,102.058z"/>
	<path fill="#FFFFFF" d="M350.75,120.979c-5.286,0-9.585-4.3-9.585-9.586c0-5.285,4.3-9.586,9.585-9.586
		c5.286,0,9.586,4.301,9.586,9.586C360.335,116.68,356.036,120.979,350.75,120.979z M350.75,101.909
		c-5.23,0-9.485,4.255-9.485,9.484c0,5.23,4.255,9.485,9.485,9.485s9.485-4.255,9.485-9.485
		C360.234,106.164,355.979,101.909,350.75,101.909z"/>
	<path d="M350.75,121.312c-5.469,0-9.918-4.449-9.918-9.918c0-5.469,4.449-9.918,9.918-9.918s9.918,4.449,9.918,9.918
		C360.668,116.863,356.218,121.312,350.75,121.312z M350.75,101.775c-5.304,0-9.619,4.314-9.619,9.618
		c0,5.305,4.315,9.619,9.619,9.619s9.619-4.314,9.619-9.619C360.368,106.09,356.053,101.775,350.75,101.775z"/>
	<path fill="#FFFFFF" d="M350.75,120.83c-5.203,0-9.436-4.233-9.436-9.437c0-5.204,4.233-9.436,9.436-9.436s9.437,4.232,9.437,9.436
		C360.187,116.597,355.953,120.83,350.75,120.83z M350.75,102.058c-5.148,0-9.337,4.188-9.337,9.336
		c0,5.148,4.188,9.337,9.337,9.337s9.337-4.188,9.337-9.337C360.086,106.246,355.898,102.058,350.75,102.058z"/>
	<polygon points="331.602,111.746 326.389,93.102 326.869,92.967 332.082,111.612 	"/>
	<path fill="#70888C" d="M345.67,98.003l-0.587-0.114c-0.016,0.077-0.157,0.659-0.789,0.832h-15.977v0.698h0.189
		c-0.172,0.297-0.267,0.68-0.14,1.129l0.576-0.163c-0.138-0.485,0.159-0.816,0.338-0.966h15.917v-0.552
		C345.48,98.584,345.625,98.24,345.67,98.003z"/>
	<path fill="#70888C" d="M320.403,111.394c0,0,0.026-0.053,0.075-0.152c0.049-0.1,0.119-0.247,0.213-0.431
		c0.093-0.185,0.206-0.408,0.34-0.663c0.066-0.127,0.137-0.263,0.212-0.406c0.037-0.071,0.083-0.14,0.132-0.208
		c0.049-0.069,0.095-0.142,0.143-0.216c0.77-1.18,1.795-2.754,2.82-4.328s2.051-3.147,2.82-4.328
		c0.048-0.074,0.096-0.146,0.14-0.218c0.042-0.073,0.087-0.142,0.139-0.204c0.101-0.126,0.196-0.245,0.286-0.357
		c0.179-0.226,0.338-0.419,0.468-0.579c0.13-0.161,0.236-0.284,0.307-0.37c0.071-0.085,0.109-0.13,0.109-0.13
		s-0.026,0.053-0.075,0.152c-0.05,0.099-0.12,0.246-0.214,0.43c-0.094,0.185-0.207,0.408-0.34,0.663
		c-0.067,0.127-0.138,0.263-0.212,0.406c-0.036,0.072-0.081,0.141-0.13,0.209c-0.048,0.069-0.095,0.143-0.143,0.216
		c-0.769,1.181-1.794,2.755-2.82,4.328c-1.025,1.574-2.051,3.147-2.82,4.328c-0.048,0.074-0.095,0.146-0.139,0.218
		c-0.043,0.073-0.087,0.143-0.138,0.205c-0.101,0.127-0.196,0.246-0.286,0.358c-0.178,0.226-0.338,0.419-0.469,0.579
		c-0.13,0.16-0.237,0.283-0.308,0.368C320.442,111.349,320.403,111.394,320.403,111.394z"/>
	<polygon fill="#70888C" points="332.307,114.968 327.326,97.429 328.189,97.183 333.17,114.722 	"/>
	<path fill="#70888C" d="M345.391,99.339l-0.921-3.243c-0.045-0.122-0.349-0.724-0.057-1.151c0.116-0.17,0.14-0.373,0.61-0.373
		c0,0,0.963-0.213,2.307-0.213s0.428,1.068,0.428,1.068h-0.637c0,0-0.214-0.546-1.777-0.213c0,0-0.241,0.016-0.294,0.093
		c-0.085,0.123-0.036,0.415,0.024,0.573l0.009,0.027l0.925,3.257L345.391,99.339z"/>
	<path fill="#70888C" d="M332.873,115.166c-0.212-0.05-0.433-0.102-0.662-0.155c-0.228-0.057-0.463-0.115-0.705-0.176
		c-0.485-0.119-0.992-0.258-1.516-0.405c-0.522-0.151-1.06-0.317-1.604-0.49c-0.545-0.17-1.1-0.342-1.654-0.515
		c-1.109-0.34-2.219-0.68-3.26-0.998c-0.52-0.159-1.022-0.314-1.499-0.461c-0.476-0.148-1.155-0.441-1.571-0.572l0.101-0.154
		c0.422,0.107,1.07,0.313,1.553,0.436c0.483,0.125,0.992,0.258,1.519,0.395c1.052,0.275,2.175,0.568,3.298,0.861
		c0.562,0.145,1.125,0.289,1.678,0.431c0.554,0.139,1.099,0.279,1.623,0.425c0.523,0.149,1.027,0.299,1.502,0.451
		c0.238,0.076,0.469,0.149,0.693,0.221c0.223,0.074,0.438,0.146,0.645,0.214"/>
	<g>
		<circle fill="#BA7D45" cx="332.899" cy="114.675" r="0.588"/>
		<path fill="#FFFFFF" d="M332.899,115.513c-0.461,0-0.837-0.376-0.837-0.838c0-0.462,0.376-0.838,0.837-0.838
			c0.462,0,0.838,0.376,0.838,0.838C333.737,115.137,333.361,115.513,332.899,115.513z M332.899,114.336
			c-0.187,0-0.339,0.152-0.339,0.339c0,0.187,0.152,0.339,0.339,0.339s0.339-0.152,0.339-0.339
			C333.238,114.488,333.086,114.336,332.899,114.336z"/>
	</g>
	<path fill="#70888C" d="M345.793,99.898l-0.356-0.48c-0.012,0.009-0.065,0.048-0.151,0.116l0.191-0.254l-0.358-0.619
		l-12.017,15.911l0.558,0.419l9.3-12.364C344.448,100.904,345.777,99.91,345.793,99.898z"/>
	<path fill="#FFFFFF" d="M331.904,114.916c-0.167,0-0.356-0.029-0.565-0.089l0.19-0.672c0.355,0.102,0.508,0.059,0.54,0.022
		c0.096-0.11,0.013-0.552-0.123-0.858l0.638-0.283c0.08,0.178,0.453,1.091,0.013,1.599
		C332.435,114.822,332.203,114.916,331.904,114.916z"/>
	<path fill="#2D1101" d="M330.368,93.393c0,0-2.842-0.375-4.786,0.24c-0.974,0.308-1.361,0.115-1.765-0.24
		c-0.388-0.343-0.749-1.444-0.254-1.926c0.495-0.482,0.84,0.561,3.569,0.535C330.016,91.976,330.731,92.857,330.368,93.393z"/>
	<path fill="#70888C" d="M350.88,111.326c-0.286-0.301-0.57-0.634-0.841-0.994c-0.268-0.362-0.527-0.751-0.76-1.16
		c-0.235-0.407-0.448-0.841-0.621-1.276l-0.03-0.08l-0.014-0.039l-0.005-0.014l-0.002-0.009l-0.048-0.179
		c-0.033-0.119-0.066-0.237-0.1-0.355c-0.065-0.237-0.133-0.473-0.202-0.706c-0.137-0.466-0.276-0.923-0.417-1.364
		c-0.14-0.441-0.282-0.865-0.421-1.267c-0.096-0.278-0.191-0.545-0.284-0.799c-0.321-1.04-0.642-2.081-0.962-3.121
		c-0.113-0.367-0.691-0.211-0.577,0.159c0.384,1.242,0.767,2.485,1.15,3.729c0.018,0.072,0.036,0.145,0.055,0.218
		c0.104,0.411,0.218,0.844,0.343,1.289c0.124,0.446,0.258,0.905,0.4,1.37c0.07,0.232,0.143,0.467,0.218,0.7
		c0.038,0.117,0.075,0.234,0.112,0.353l0.058,0.176l0.013,0.038l0.01,0.025l0.019,0.048l0.038,0.092
		c0.204,0.478,0.451,0.922,0.72,1.345c0.27,0.421,0.566,0.815,0.875,1.176c0.373,0.435,0.767,0.815,1.158,1.144l0.255-0.354
		C350.973,111.422,350.926,111.375,350.88,111.326z"/>
	<circle fill="#70888C" cx="333.012" cy="114.672" r="1.97"/>
	<polygon fill="#70888C" points="345.643,101.02 344.718,97.764 345.677,97.491 346.603,100.747 	"/>
	<path d="M347.175,95.149c-0.167-0.096-0.226-0.309-0.13-0.477c0.096-0.167,0.309-0.225,0.477-0.129l1.388,0.88l-0.387,0.587
		L347.175,95.149z"/>
</g>
</svg>
