<?xml version="1.0" encoding="utf-8"?>
<!-- Generator: Adobe Illustrator 17.0.0, SVG Export Plug-In . SVG Version: 6.00 Build 0)  -->
<!DOCTYPE svg PUBLIC "-//W3C//DTD SVG 1.1//EN" "http://www.w3.org/Graphics/SVG/1.1/DTD/svg11.dtd">
<svg version="1.1" xmlns="http://www.w3.org/2000/svg" xmlns:xlink="http://www.w3.org/1999/xlink" x="0px" y="0px"
	 width="1730.926px" height="1753.51px" viewBox="0 0 1730.926 1753.51" enable-background="new 0 0 1730.926 1753.51"
	 xml:space="preserve">
<g id="Calque_1" display="none">
	
		<image display="inline" overflow="visible" width="400" height="300" xlink:href="menu_planets.png"  transform="matrix(0.9999 0 0 0.9999 3777.051 -226.8983)">
	</image>
	
		<image display="inline" overflow="visible" width="624" height="594" xlink:href="the-whole-space.png"  transform="matrix(0.9999 0 0 0.9999 4028.5935 1316.0823)">
	</image>
	
		<image display="inline" overflow="visible" width="400" height="300" xlink:href="tinybooks_1x.png"  transform="matrix(1 0 0 1 3126.5935 -666.0181)">
	</image>
	
		<image display="inline" overflow="visible" width="400" height="300" xlink:href="planets_dribbble.jpg"  transform="matrix(1 0 0 1 4259.0366 -125.5201)">
	</image>
	
		<image display="inline" overflow="visible" width="400" height="300" xlink:href="rocket-dribbble3.jpg"  transform="matrix(1 0 0 1 2340.1228 -657.3768)">
	</image>
	
		<image display="inline" overflow="visible" width="400" height="300" xlink:href="sp_loader.gif"  transform="matrix(1 0 0 1 3828.5935 731.5687)">
	</image>
	
		<image display="inline" overflow="visible" width="400" height="300" xlink:href="__.jpg"  transform="matrix(1 0 0 1 3795.05 -591.3801)">
	</image>
</g>
<g id="Calque_2">
	<rect x="2450.46" y="-306.021" display="none" fill="#141414" width="1280" height="700"/>
	<g>
		<path fill="#FFFFFF" d="M865.463,1288.101c-230.991,0-448.178-41.508-611.555-116.879C90.173,1095.683,0,995.119,0,888.048
			s90.173-207.636,253.908-283.174c163.377-75.371,380.564-116.879,611.555-116.879s448.18,41.508,611.555,116.879
			c163.735,75.539,253.908,176.103,253.908,283.174s-90.173,207.636-253.908,283.174
			C1313.642,1246.593,1096.454,1288.101,865.463,1288.101z M865.463,490.903c-475.614,0-862.553,178.157-862.553,397.144
			s386.94,397.144,862.553,397.144s862.553-178.157,862.553-397.144S1341.077,490.903,865.463,490.903z"/>
		<path fill="#FFFFFF" d="M865.463,1753.51c-107.07,0-207.636-90.174-283.173-253.909
			c-75.371-163.374-116.881-380.562-116.881-611.554s41.51-448.18,116.881-611.554C657.827,112.759,758.393,22.585,865.463,22.585
			s207.636,90.174,283.173,253.909c75.371,163.374,116.881,380.562,116.881,611.554s-41.51,448.18-116.881,611.554
			C1073.099,1663.336,972.533,1753.51,865.463,1753.51z M865.463,25.494c-218.987,0-397.144,386.938-397.144,862.553
			s178.157,862.553,397.144,862.553s397.144-386.938,397.144-862.553S1084.45,25.494,865.463,25.494z"/>
		<path fill="#FFFFFF" d="M428.349,1562.49c-74.577,0-133.409-21.017-174.86-62.469c-75.71-75.709-83.059-210.582-20.695-379.773
			c62.23-168.821,186.453-351.746,349.788-515.081c119.101-119.101,250.349-218.734,379.557-288.127
			c126-67.668,243.722-103.437,340.439-103.437c74.577,0,133.407,21.017,174.859,62.469c75.71,75.709,83.059,210.582,20.695,379.773
			c-62.229,168.821-186.453,351.746-349.788,515.083c-119.101,119.101-250.349,218.731-379.557,288.124
			C642.787,1526.721,525.065,1562.49,428.349,1562.49z M1302.578,216.514c-198.784,0-480.592,153.364-717.939,390.712
			C421.596,770.27,297.611,952.82,235.525,1121.255c-61.95,168.065-54.84,301.847,20.021,376.71
			c40.886,40.886,99.025,61.616,172.803,61.616c198.782,0,480.589-153.362,717.937-390.709
			c336.309-336.309,483.94-735.894,329.094-890.742C1434.494,237.244,1376.355,216.514,1302.578,216.514z"/>
		<path fill="#FFFFFF" d="M1302.577,1562.49c-96.719,0-214.438-35.766-340.431-103.429
			c-129.205-69.39-260.456-169.023-379.564-288.133c-163.336-163.337-287.56-346.262-349.788-515.083
			c-62.365-169.19-55.016-304.064,20.695-379.773c41.452-41.452,100.282-62.469,174.859-62.469
			c96.72,0,214.439,35.766,340.432,103.432c129.205,69.387,260.455,169.023,379.564,288.132
			c163.336,163.334,287.558,346.26,349.788,515.081c62.365,169.19,55.016,304.064-20.695,379.773
			C1435.986,1541.474,1377.154,1562.49,1302.577,1562.49z M428.347,216.514c-73.777,0-131.915,20.73-172.802,61.616
			C100.7,432.978,248.33,832.563,584.64,1168.872c237.349,237.347,519.155,390.709,717.937,390.709
			c73.778,0,131.917-20.73,172.803-61.616c74.861-74.862,81.971-208.645,20.021-376.71
			c-62.086-168.435-186.072-350.985-349.115-514.029C908.939,369.879,627.131,216.514,428.347,216.514z"/>
	</g>
	<g>
		<circle fill="#E62E37" cx="865.463" cy="888.048" r="245.428"/>
		<path fill="#D01A27" d="M1049.161,725.368c1.444,12.286,2.271,24.761,2.271,37.435c0,175.372-142.167,317.538-317.539,317.538
			c-7.372,0-14.66-0.342-21.907-0.837c42.036,33.741,95.38,53.971,153.477,53.971c135.546,0,245.428-109.881,245.428-245.428
			C1110.891,825.624,1087.545,768.68,1049.161,725.368z"/>
		<g>
			<circle fill="#D01A27" cx="791.566" cy="774.413" r="47.441"/>
			<path fill="#BD1824" d="M804.217,809.836c-28.68,0-52.627-20.107-58.615-46.982c-0.929,3.707-1.478,7.565-1.478,11.56
				c0,26.201,21.24,47.441,47.441,47.441c14.521,0,27.5-6.541,36.202-16.818C820.534,808.121,812.577,809.836,804.217,809.836z"/>
		</g>
		<g>
			<circle fill="#D01A27" cx="778.356" cy="1017.311" r="27.199"/>
			<path fill="#BD1824" d="M784.373,1038.02c-16.413-0.991-29.423-13.325-31.922-28.913c-0.66,2.089-1.107,4.278-1.245,6.564
				c-0.905,14.995,10.516,27.884,25.511,28.789c8.31,0.502,15.964-2.793,21.299-8.374
				C793.77,1037.602,789.157,1038.309,784.373,1038.02z"/>
		</g>
		<g>
			<circle fill="#D01A27" cx="968.12" cy="728.87" r="15.722"/>
			<path fill="#BD1824" d="M967.102,741.294c-8.66-3.917-13.145-13.259-11.283-22.192c-0.787,0.992-1.479,2.082-2.025,3.289
				c-3.578,7.912-0.066,17.226,7.846,20.805c4.385,1.983,9.197,1.781,13.229-0.134C972.264,743.004,969.627,742.435,967.102,741.294
				z"/>
		</g>
		<g>
			<circle fill="#D01A27" cx="927.165" cy="819.007" r="9.393"/>
			<path fill="#BD1824" d="M924.378,825.914c-4.244-3.773-5.144-9.898-2.495-14.663c-0.625,0.426-1.214,0.925-1.739,1.516
				c-3.446,3.878-3.097,9.815,0.781,13.261c2.149,1.91,4.93,2.649,7.57,2.273C927.018,827.807,925.615,827.014,924.378,825.914z"/>
		</g>
		<g>
			<circle fill="#D01A27" cx="695.326" cy="759.777" r="7.199"/>
			<path fill="#BD1824" d="M696.271,765.406c-4.284-0.765-7.325-4.406-7.503-8.581c-0.238,0.529-0.422,1.091-0.529,1.687
				c-0.698,3.914,1.908,7.653,5.822,8.351c2.169,0.387,4.282-0.244,5.856-1.547C698.755,765.584,697.52,765.628,696.271,765.406z"/>
		</g>
		<g>
			<circle fill="#D01A27" cx="868.587" cy="709.981" r="17.52"/>
			<path fill="#BD1824" d="M875.078,722.262c-10.483,1.511-20.295-4.577-23.899-14.085c-0.144,1.404-0.142,2.843,0.069,4.303
				c1.38,9.577,10.263,16.221,19.84,14.841c5.308-0.765,9.707-3.839,12.347-8.054C880.952,720.776,878.133,721.821,875.078,722.262z
				"/>
		</g>
		<g opacity="0.8">
			<path fill="#E62F38" d="M951.785,896.603c0.971-1.842,1.772-3.406,2.409-4.696c2.105-4.381,3.669-8.095,4.707-11.134
				c1.03-3.039,1.601-5.3,1.72-6.779c0.178-2.246-0.022-3.391-0.615-3.439c-0.771-0.063-2.009,1.104-3.714,3.495
				c-1.712,2.394-3.773,5.9-6.197,10.526c-0.63,1.586-1.23,3.232-1.801,4.944c-0.571,1.709-1.09,3.414-1.571,5.115
				c-0.474,1.701-0.919,3.376-1.334,5.026c-0.415,1.646-0.786,3.217-1.112,4.707c-0.786,3.477-1.445,6.89-1.979,10.237
				c0.949-1.798,1.979-3.751,3.099-5.863s2.224-4.203,3.313-6.271C949.798,900.399,950.821,898.445,951.785,896.603z"/>
			<path fill="#E62F38" d="M777.706,924.33c1.223-0.638,2.335-1.423,3.358-2.361c1.016-0.934,1.861-1.931,2.528-2.991
				c0.66-1.056,0.964-2.061,0.897-3.006c-0.096-1.331-0.423-2.409-0.971-3.232c-0.549-0.823-1.179-1.208-1.89-1.156
				c-1.268,0.093-2.342,0.408-3.21,0.945c-0.867,0.537-1.579,1.205-2.127,2.001c-0.556,0.801-0.978,1.694-1.282,2.68
				c-0.297,0.99-0.511,1.975-0.63,2.965c-0.126,0.99-0.178,1.946-0.17,2.869c0,0.919,0.03,1.705,0.074,2.357
				C775.349,925.324,776.49,924.968,777.706,924.33z"/>
			<path fill="#E62F38" d="M997.743,918.233c-0.586-0.578-1.334-0.923-2.246-1.03c-1.208-0.145-2.424,0.233-3.632,1.134
				c-1.216,0.901-2.328,2.102-3.343,3.61c-1.016,1.505-1.875,3.202-2.58,5.089c-0.704,1.887-1.164,3.729-1.371,5.522
				c-0.148,1.238-0.17,2.417-0.067,3.532c0.104,1.119,0.356,2.113,0.764,2.98c0.4,0.871,0.986,1.597,1.757,2.179
				c0.763,0.586,1.72,0.945,2.869,1.082c1.001,0.122,2.031-0.271,3.098-1.175c1.06-0.904,2.039-2.087,2.935-3.547
				c0.89-1.46,1.66-3.099,2.305-4.918c0.652-1.82,1.082-3.584,1.282-5.289c0.163-1.357,0.208-2.628,0.141-3.814
				s-0.252-2.231-0.563-3.136S998.329,918.812,997.743,918.233z"/>
			<path fill="#E62F38" d="M731.77,905.958c0.682-2.235,1.319-4.348,1.927-6.338c0.6-1.99,1.097-3.677,1.482-5.063
				c1.245-4.7,2.09-8.639,2.535-11.819c0.445-3.18,0.586-5.508,0.423-6.979c-0.245-2.242-0.66-3.328-1.245-3.265
				c-0.771,0.085-1.772,1.46-2.995,4.129c-1.231,2.672-2.602,6.505-4.114,11.501c-0.326,1.675-0.608,3.406-0.845,5.193
				c-0.237,1.786-0.43,3.558-0.586,5.319c-0.148,1.764-0.274,3.491-0.371,5.189c-0.096,1.694-0.171,3.306-0.215,4.833
				c-0.119,3.562-0.126,7.035-0.022,10.426c0.593-1.946,1.245-4.058,1.95-6.341C730.398,910.458,731.088,908.197,731.77,905.958z"/>
			<path fill="#2E0D10" d="M720.888,885.128c0.663-3.139,1.564-5.951,2.631-8.541c-0.644-0.332-1.402-0.571-2.408-0.612
				c-6.234-0.074-12.172,0.148-17.813,0.667c-5.641,0.519-11,1.205-16.093,2.05c-3.743,0.626-7.353,1.319-10.837,2.079
				c-3.477,0.76-6.716,1.631-9.711,2.609c-2.987,0.979-5.7,2.098-8.117,3.358c-2.424,1.26-4.44,2.687-6.049,4.277
				c-1.616,1.594-2.772,3.388-3.477,5.382c-0.704,1.998-0.852,4.225-0.445,6.682c0.23,1.041,0.682,1.931,1.342,2.661
				c0.556,0.626,1.371,1.153,2.431,1.579c1.06,0.422,2.468,0.489,4.225,0.196c1.757-0.293,3.061-0.804,3.914-1.531
				c0.86-0.73,1.445-1.475,1.772-2.235c0.326-0.76,0.474-1.438,0.452-2.035c-0.03-0.597-0.044-0.927-0.052-0.986
				c-0.185-1.108-0.059-2.124,0.371-3.036c0.437-0.915,1.09-1.746,1.972-2.494c0.882-0.749,1.942-1.42,3.18-2.02
				c1.238-0.593,2.594-1.145,4.055-1.642c1.468-0.5,2.987-0.956,4.551-1.368c1.571-0.411,3.121-0.808,4.655-1.182
				c-0.86,5.856-1.675,11.178-2.461,15.967c-0.778,4.789-1.512,9.173-2.202,13.15c-0.689,3.977-1.319,7.62-1.875,10.93
				c-0.563,3.31-1.03,6.434-1.416,9.366c-0.385,2.935-0.675,5.741-0.875,8.421s-0.267,5.382-0.2,8.106
				c-0.067,0.701-0.052,1.331,0.037,1.887c0.297,1.753,1.045,2.935,2.261,3.543c1.216,0.612,2.654,0.778,4.322,0.5
				c0.556-0.093,1.127-0.363,1.712-0.804c0.593-0.445,1.134-1.023,1.631-1.738c0.497-0.715,0.919-1.527,1.26-2.442
				c0.341-0.912,0.549-1.887,0.615-2.921c0.2-2.257,0.474-4.963,0.838-8.121c0.363-3.154,0.741-6.594,1.142-10.311
				c0.408-3.721,0.815-7.62,1.23-11.705c0.415-4.081,0.786-8.172,1.112-12.268c0.326-4.096,0.578-8.102,0.771-12.009
				c0.193-3.91,0.274-7.546,0.259-10.911c3.002-0.348,5.938-0.612,8.791-0.789c2.861-0.174,5.634-0.337,8.332-0.486
				c2.691-0.148,5.285-0.308,7.761-0.482C716.722,885.713,718.837,885.448,720.888,885.128z"/>
			<path fill="#2E0D10" d="M720.792,885.503c-0.808,3.951-1.386,8.069-1.735,12.357c-0.356,4.292-0.519,8.61-0.489,12.961
				c0.03,4.355,0.133,8.487,0.326,12.405c0.185,3.914,0.43,7.476,0.734,10.678c0.311,3.202,0.571,5.793,0.786,7.765
				c0.133,1.242,0.311,2.442,0.526,3.614c0.215,1.167,0.526,2.202,0.919,3.099s0.904,1.594,1.527,2.09
				c0.623,0.5,1.416,0.697,2.387,0.589c0.741-0.078,1.327-0.308,1.764-0.682c0.437-0.374,0.815-0.901,1.149-1.579
				c0.326-0.678,0.645-1.531,0.949-2.565c0.304-1.034,0.704-2.246,1.208-3.643c1.008-2.824,2.172-5.585,3.506-8.28
				s2.639-5.137,3.921-7.32c1.282-2.183,2.454-4.003,3.499-5.459c1.053-1.457,1.809-2.372,2.276-2.754l0.941,0.033
				c-0.082,0.096-0.237,0.445-0.467,1.034c-0.237,0.593-0.504,1.353-0.808,2.279c-0.297,0.93-0.615,1.979-0.949,3.147
				c-0.341,1.171-0.623,2.365-0.867,3.584c-0.237,1.219-0.422,2.428-0.541,3.617c-0.126,1.193-0.133,2.261-0.03,3.202
				c0.148,1.416,0.504,2.898,1.067,4.448c0.556,1.549,1.29,2.954,2.202,4.21c0.912,1.256,2.016,2.257,3.299,2.995
				c1.29,0.741,2.743,1.019,4.366,0.845c1.06-0.119,2.157-0.415,3.284-0.897c1.127-0.478,2.239-1.056,3.343-1.727
				c1.104-0.674,2.194-1.427,3.269-2.261c1.067-0.83,2.061-1.649,2.972-2.45c0.732-0.641,1.372-1.234,1.996-1.818
				c-0.738-1.088-1.395-2.246-1.899-3.538c-0.697-1.769-1.106-3.651-1.353-5.599c-0.23,0.278-0.439,0.631-0.671,0.899
				c-0.608,0.723-1.26,1.427-1.957,2.116c-0.704,0.686-1.423,1.308-2.172,1.868c-0.741,0.56-1.497,1.03-2.261,1.408
				c-0.763,0.382-1.497,0.612-2.202,0.689c-0.563,0.063-1.06-0.241-1.49-0.912c-0.43-0.667-0.712-1.594-0.838-2.772
				c-0.237-2.15-0.185-4.244,0.141-6.279c0.334-2.035,0.726-4.036,1.179-6.012c0.46-1.972,0.86-3.94,1.216-5.904
				c0.348-1.961,0.415-3.944,0.2-5.949c-0.111-1.001-0.334-1.805-0.667-2.413c-0.334-0.604-0.719-1.06-1.156-1.371
				c-0.437-0.311-0.882-0.508-1.342-0.593c-0.452-0.082-0.86-0.107-1.216-0.067c-1.416,0.156-2.869,0.841-4.359,2.064
				c-1.49,1.219-2.965,2.709-4.411,4.462c-1.453,1.753-2.824,3.628-4.129,5.619s-2.476,3.847-3.514,5.571l-0.949-0.523
				c0.801-1.964,1.72-4.244,2.765-6.831c1.045-2.591,2.098-5.337,3.15-8.243c1.053-2.902,2.068-5.893,3.047-8.966
				c0.978-3.076,1.823-6.097,2.528-9.069c0.704-2.969,1.223-5.815,1.549-8.536c0.326-2.72,0.378-5.17,0.141-7.35
				c-0.163-1.475-0.43-2.795-0.793-3.962c-0.371-1.171-0.897-2.146-1.594-2.935c-0.697-0.789-1.586-1.364-2.654-1.727
				c-1.067-0.36-2.394-0.452-3.988-0.278c-3.069,0.334-5.685,1.486-7.857,3.451c-2.172,1.968-3.973,4.499-5.411,7.594
				c-0.239,0.515-0.417,1.112-0.638,1.65c-1.066,2.59-1.967,5.402-2.631,8.541C720.86,885.259,720.818,885.371,720.792,885.503z
				 M727.767,908.656c0.044-1.527,0.119-3.139,0.215-4.833c0.096-1.698,0.222-3.425,0.371-5.189c0.156-1.76,0.348-3.532,0.586-5.319
				c0.237-1.786,0.519-3.517,0.845-5.193c1.512-4.996,2.883-8.828,4.114-11.501c1.223-2.669,2.224-4.044,2.995-4.129
				c0.586-0.063,1.001,1.023,1.245,3.265c0.163,1.471,0.022,3.799-0.423,6.979c-0.445,3.18-1.29,7.12-2.535,11.819
				c-0.385,1.386-0.882,3.073-1.482,5.063c-0.608,1.99-1.245,4.103-1.927,6.338c-0.682,2.239-1.371,4.499-2.076,6.783
				c-0.704,2.283-1.357,4.396-1.95,6.341C727.641,915.691,727.648,912.218,727.767,908.656z"/>
			<path fill="#2E0D10" d="M767.123,939.021c0.508,0.75,1.034,1.484,1.651,2.136c1.512,1.601,3.351,2.832,5.508,3.684
				c2.157,0.856,4.626,1.186,7.405,0.986c1.772-0.13,3.514-0.456,5.211-0.979c1.705-0.523,3.336-1.175,4.9-1.957
				s3.047-1.653,4.448-2.617c1.401-0.964,2.706-1.935,3.914-2.913c2.78-2.279,5.374-4.859,7.783-7.739l-6.153-5.534
				c-1.067,1.208-2.387,2.498-3.958,3.877c-1.564,1.375-3.239,2.661-5.026,3.862c-1.786,1.197-3.64,2.224-5.552,3.073
				c-1.92,0.852-3.758,1.342-5.537,1.468c-0.563,0.041-1.09,0.022-1.586-0.063c-0.497-0.082-0.979-0.256-1.438-0.519
				c-0.467-0.263-0.934-0.649-1.401-1.149c-0.467-0.5-0.949-1.134-1.453-1.901c2.52-0.897,4.84-2.057,6.953-3.488
				c2.113-1.431,3.906-3.017,5.382-4.759c1.482-1.742,2.609-3.562,3.38-5.459c0.771-1.898,1.09-3.766,0.956-5.597
				c-0.119-1.686-0.526-3.187-1.216-4.507c-0.689-1.316-1.594-2.42-2.713-3.306c-1.119-0.886-2.409-1.542-3.869-1.972
				c-1.453-0.43-3.01-0.586-4.67-0.467c-2.038,0.145-3.869,0.641-5.485,1.486c-1.623,0.845-3.061,1.931-4.314,3.254
				c-1.26,1.323-2.335,2.828-3.225,4.511c-0.889,1.686-1.601,3.44-2.135,5.263c-0.541,1.82-0.904,3.669-1.097,5.541
				c-0.193,1.872-0.23,3.636-0.111,5.289c0.033,0.466,0.139,0.902,0.196,1.358c0.247,1.948,0.656,3.83,1.353,5.599
				C765.727,936.775,766.385,937.933,767.123,939.021z M774.378,920.176c0.119-0.99,0.334-1.975,0.63-2.965
				c0.304-0.986,0.726-1.879,1.282-2.68c0.549-0.797,1.26-1.464,2.127-2.001c0.867-0.537,1.942-0.852,3.21-0.945
				c0.712-0.052,1.342,0.334,1.89,1.156c0.549,0.823,0.875,1.901,0.971,3.232c0.067,0.945-0.237,1.95-0.897,3.006
				c-0.667,1.06-1.512,2.057-2.528,2.991c-1.023,0.938-2.135,1.723-3.358,2.361c-1.216,0.638-2.357,0.993-3.425,1.071
				c-0.044-0.652-0.074-1.438-0.074-2.357C774.2,922.121,774.252,921.165,774.378,920.176z"/>
			<path fill="#2E0D10" d="M931.641,926.776c-0.057,0.05-0.102,0.127-0.159,0.175c-0.838,0.701-1.712,1.245-2.624,1.635
				c-0.912,0.389-1.794,0.582-2.654,0.571s-1.668-0.141-2.417-0.385c-0.756-0.248-1.401-0.641-1.942-1.182
				c-0.549-0.537-0.971-1.219-1.29-2.039c-0.319-0.819-0.467-1.805-0.452-2.961c0.007-0.474,0.2-1.586,0.593-3.328
				c0.393-1.746,0.882-3.892,1.46-6.434s1.208-5.396,1.883-8.562c0.674-3.165,1.305-6.419,1.898-9.762
				c0.586-3.343,1.09-6.679,1.497-10.011c0.415-3.332,0.638-6.434,0.675-9.31c0.007-1.038-0.096-1.89-0.326-2.561
				s-0.563-1.208-1.008-1.616c-0.437-0.404-0.956-0.693-1.564-0.864c-0.608-0.171-1.282-0.259-2.024-0.267
				c-0.949-0.011-1.875,0.059-2.78,0.211c-0.904,0.152-1.72,0.474-2.439,0.971c-0.719,0.493-1.312,1.197-1.779,2.113
				c-0.474,0.912-0.763,2.124-0.867,3.636c-0.111,1.453-0.289,3.458-0.541,6.019c-0.252,2.565-0.593,5.452-1.016,8.662
				c-0.43,3.213-0.949,6.623-1.571,10.233c-0.623,3.61-1.349,7.19-2.179,10.737c-0.83,3.551-1.772,6.949-2.832,10.196
				c-1.067,3.25-2.253,6.104-3.573,8.565c-1.327,2.461-2.772,4.422-4.344,5.886c-1.579,1.464-3.313,2.183-5.211,2.161
				c-1.097-0.015-2.009-0.426-2.743-1.234c-0.726-0.812-1.319-1.975-1.757-3.491c-0.445-1.52-0.749-3.354-0.912-5.504
				c-0.17-2.153-0.237-4.562-0.2-7.231c0.03-2.609,0.185-5.471,0.46-8.58c0.274-3.11,0.615-6.256,1.023-9.44
				c0.415-3.18,0.852-6.282,1.319-9.303c0.467-3.017,0.897-5.719,1.297-8.098c0.4-2.383,0.726-4.336,0.986-5.86
				c0.252-1.523,0.378-2.391,0.385-2.598c0.007-0.623-0.074-1.186-0.245-1.694c-0.178-0.504-0.474-0.941-0.897-1.301
				c-0.43-0.36-1.001-0.649-1.727-0.867c-0.726-0.215-1.646-0.33-2.772-0.345c-1.186-0.015-2.239,0.107-3.143,0.363
				c-0.912,0.256-1.705,0.708-2.394,1.349c-0.689,0.645-1.29,1.512-1.794,2.602c-0.497,1.093-0.941,2.45-1.312,4.077
				c-2.053,10.089-4.373,19.088-6.96,27.004c-0.734,2.246-1.52,4.466-2.342,6.664c-0.83,2.202-1.712,4.296-2.639,6.286
				s-1.89,3.84-2.891,5.545c-1.001,1.709-2.038,3.18-3.121,4.411c-1.082,1.234-2.202,2.198-3.351,2.895
				c-1.149,0.701-2.335,1.042-3.551,1.027s-2.261-0.415-3.143-1.197c-0.875-0.778-1.609-1.849-2.187-3.206
				c-0.571-1.357-0.993-2.947-1.253-4.774c-0.259-1.827-0.378-3.792-0.348-5.897c0.03-2.58,0.311-5.37,0.838-8.376
				c0.526-3.002,1.179-6.056,1.957-9.158c0.778-3.106,1.616-6.164,2.513-9.177c0.897-3.017,1.727-5.808,2.505-8.376
				c0.771-2.572,1.408-4.84,1.927-6.805c0.511-1.964,0.771-3.454,0.786-4.462c0.007-0.89-0.074-1.594-0.267-2.116
				c-0.185-0.519-0.46-0.923-0.83-1.208c-0.363-0.285-0.815-0.478-1.349-0.574c-0.526-0.096-1.119-0.145-1.772-0.156
				c-0.801-0.007-1.594,0.026-2.387,0.107c-0.786,0.078-1.564,0.345-2.342,0.793c-0.778,0.452-1.542,1.153-2.291,2.105
				c-0.756,0.956-1.512,2.291-2.276,3.999c-1.282,3.069-2.431,6.227-3.454,9.477c-1.016,3.25-1.875,6.531-2.587,9.844
				c-0.704,3.31-1.26,6.62-1.653,9.918c-0.393,3.302-0.615,6.527-0.652,9.67c-0.059,5.13,0.289,9.618,1.06,13.465
				c0.771,3.851,1.816,7.057,3.128,9.625c1.319,2.565,2.861,4.503,4.625,5.815c1.764,1.312,3.625,1.979,5.582,2.001
				c3.41,0.041,6.523-0.504,9.333-1.642c2.817-1.138,5.337-3.073,7.546-5.804c2.216-2.728,4.151-6.36,5.826-10.893
				c1.668-4.529,3.084-10.17,4.233-16.916c-0.104,0.978-0.237,2.087-0.4,3.332c-0.163,1.242-0.252,2.576-0.267,3.999
				c-0.052,3.884,0.185,7.55,0.712,10.993c0.519,3.447,1.379,6.453,2.58,9.017c1.201,2.565,2.772,4.6,4.729,6.108
				c1.957,1.505,4.336,2.276,7.153,2.309c2.224,0.026,4.388-0.367,6.486-1.19c2.105-0.819,4.121-1.994,6.049-3.528
				c1.935-1.534,3.766-3.395,5.493-5.582c1.735-2.187,3.358-4.651,4.87-7.39c0.163,1.423,0.46,2.657,0.89,3.703
				c0.437,1.042,0.978,1.894,1.638,2.554c0.66,0.663,1.416,1.153,2.276,1.475c0.852,0.322,1.772,0.489,2.75,0.5
				c2.046,0.022,4.24-0.675,6.59-2.102c0.504-0.306,0.993-0.735,1.492-1.091c0.162-1.945,0.381-4.415,0.665-7.485
				C931.574,927.369,931.613,927.056,931.641,926.776z"/>
			<path fill="#2E0D10" d="M974.883,932.778c-0.719,0.583-1.471,1.142-2.268,1.674c-0.823,0.545-1.646,1.019-2.483,1.431
				c-0.838,0.408-1.66,0.73-2.483,0.96c-0.823,0.233-1.586,0.319-2.298,0.263c-0.563-0.044-0.993-0.437-1.29-1.175
				c-0.297-0.738-0.4-1.697-0.304-2.88c0.17-2.157,0.608-4.203,1.312-6.141c0.712-1.935,1.468-3.832,2.291-5.685
				c0.815-1.853,1.579-3.71,2.291-5.571c0.719-1.861,1.156-3.795,1.312-5.808c0.082-1.004,0.015-1.835-0.2-2.491
				s-0.511-1.179-0.882-1.564c-0.371-0.389-0.771-0.667-1.201-0.834c-0.43-0.17-0.83-0.267-1.179-0.297
				c-1.423-0.111-2.98,0.293-4.67,1.212c-1.698,0.919-3.425,2.105-5.174,3.558s-3.454,3.032-5.107,4.744s-3.15,3.317-4.492,4.818
				l-0.838-0.693c1.156-1.783,2.491-3.847,4.003-6.193c1.505-2.35,3.054-4.848,4.633-7.505c1.579-2.654,3.143-5.4,4.677-8.239
				c1.534-2.835,2.928-5.645,4.173-8.432c1.253-2.783,2.291-5.485,3.121-8.095c0.838-2.609,1.342-5.007,1.512-7.198
				c0.119-1.475,0.111-2.824-0.03-4.04c-0.141-1.216-0.482-2.276-1.016-3.18c-0.541-0.908-1.297-1.638-2.283-2.19
				c-0.978-0.556-2.268-0.897-3.862-1.023c-3.076-0.245-5.863,0.393-8.369,1.92c-2.498,1.523-4.744,3.673-6.738,6.442
				c-1.994,2.772-3.751,6.023-5.285,9.751c-1.534,3.732-2.876,7.668-4.025,11.816c-1.149,4.147-2.113,8.361-2.906,12.639
				c-0.786,4.281-1.453,8.361-2.001,12.246c-0.502,3.548-0.886,6.777-1.182,9.758c-0.028,0.28-0.067,0.593-0.093,0.868
				c-0.284,3.07-0.503,5.54-0.665,7.485c-0.006,0.086-0.018,0.207-0.024,0.29c-0.096,1.242-0.148,2.457-0.156,3.647
				c-0.007,1.19,0.104,2.261,0.326,3.217c0.215,0.953,0.586,1.735,1.104,2.342c0.519,0.604,1.26,0.949,2.239,1.027
				c0.741,0.056,1.357-0.056,1.853-0.345c0.504-0.285,0.978-0.73,1.423-1.334c0.452-0.604,0.927-1.386,1.416-2.342
				c0.497-0.956,1.119-2.076,1.875-3.354c1.512-2.583,3.18-5.078,4.989-7.476c1.816-2.398,3.558-4.548,5.226-6.453
				c1.668-1.905,3.158-3.473,4.462-4.707c1.297-1.234,2.216-1.994,2.743-2.279l0.919,0.208c-0.096,0.081-0.311,0.393-0.652,0.93
				c-0.341,0.537-0.741,1.234-1.216,2.087c-0.467,0.856-0.979,1.827-1.527,2.913c-0.549,1.086-1.053,2.205-1.52,3.358
				c-0.46,1.153-0.867,2.305-1.208,3.451c-0.348,1.149-0.556,2.194-0.63,3.139c-0.111,1.42-0.044,2.943,0.215,4.57
				c0.252,1.627,0.712,3.143,1.379,4.548c0.66,1.408,1.549,2.594,2.676,3.562c1.134,0.967,2.505,1.516,4.136,1.646
				c1.06,0.085,2.187-0.004,3.388-0.263c1.193-0.263,2.394-0.619,3.61-1.075c1.208-0.452,2.424-0.986,3.632-1.605
				c1.208-0.615,2.335-1.234,3.38-1.849c0.509-0.3,0.927-0.57,1.394-0.856c-0.712-1.699-1.238-3.505-1.46-5.482
				C974.725,935.353,974.866,934.066,974.883,932.778z M945.395,908.742c-1.119,2.113-2.15,4.066-3.099,5.863
				c0.534-3.347,1.193-6.76,1.979-10.237c0.326-1.49,0.697-3.061,1.112-4.707c0.415-1.649,0.86-3.325,1.334-5.026
				c0.482-1.701,1.001-3.406,1.571-5.115c0.571-1.712,1.171-3.358,1.801-4.944c2.424-4.625,4.485-8.132,6.197-10.526
				c1.705-2.391,2.943-3.558,3.714-3.495c0.593,0.048,0.793,1.193,0.615,3.439c-0.119,1.479-0.689,3.74-1.72,6.779
				c-1.038,3.039-2.602,6.753-4.707,11.134c-0.638,1.29-1.438,2.854-2.409,4.696c-0.964,1.842-1.987,3.795-3.076,5.867
				C947.619,904.539,946.514,906.629,945.395,908.742z"/>
			<path fill="#2E0D10" d="M1007.75,925.005c-0.2-1.953-0.623-3.832-1.275-5.641l0.415-0.445c0.971,0.834,2.135,1.861,3.484,3.084
				c0.305,0.276,0.618,0.593,0.925,0.876c1.059-1.898,2.107-3.801,3.128-5.723c-0.524-0.514-0.959-1.13-1.51-1.613
				c-1.964-1.712-4.114-3.15-6.456-4.31c-2.335-1.16-4.907-1.909-7.702-2.242c-3.269-0.389-6.286-0.145-9.043,0.734
				c-2.765,0.882-5.174,2.25-7.235,4.11c-2.061,1.861-3.743,4.136-5.048,6.831c-1.305,2.698-2.157,5.663-2.543,8.903
				c-0.128,1.07,0.006,2.141-0.007,3.211c-0.017,1.288-0.158,2.575-0.007,3.865c0.222,1.977,0.749,3.783,1.46,5.482
				c0.138,0.33,0.228,0.688,0.385,1.008c0.956,1.968,2.291,3.628,3.995,4.981c1.705,1.353,3.855,2.183,6.442,2.494
				c1.801,0.211,3.528,0.107,5.189-0.322c0.888-0.229,1.672-0.7,2.502-1.062c4.546-6.547,8.843-13.271,12.896-20.163
				C1007.815,927.745,1007.897,926.435,1007.75,925.005z M999.515,927.403c-0.2,1.705-0.63,3.469-1.282,5.289
				c-0.645,1.82-1.416,3.458-2.305,4.918c-0.897,1.46-1.875,2.643-2.935,3.547c-1.067,0.904-2.098,1.297-3.098,1.175
				c-1.149-0.137-2.105-0.497-2.869-1.082c-0.771-0.582-1.357-1.308-1.757-2.179c-0.408-0.867-0.66-1.861-0.764-2.98
				c-0.104-1.116-0.082-2.294,0.067-3.532c0.208-1.794,0.667-3.636,1.371-5.522c0.704-1.887,1.564-3.584,2.58-5.089
				c1.016-1.508,2.127-2.709,3.343-3.61c1.208-0.901,2.424-1.279,3.632-1.134c0.912,0.107,1.66,0.452,2.246,1.03
				c0.586,0.578,1.038,1.316,1.349,2.22s0.497,1.95,0.563,3.136S999.678,926.046,999.515,927.403z"/>
		</g>
		<g opacity="0.8">
			<path fill="#D01A27" d="M1039.766,904.639c1.786-2.909,3.402-5.834,4.84-8.78s2.491-5.734,3.158-8.362
				c0.126-0.849,0.215-1.579,0.267-2.187c0.044-0.608-0.052-0.93-0.282-0.964c-0.852-0.13-1.853,0.282-3.002,1.23
				c-1.149,0.953-2.357,2.291-3.625,4.018c-1.268,1.727-2.535,3.769-3.81,6.123c-1.268,2.357-2.468,4.889-3.603,7.598
				c-1.127,2.706-2.127,5.519-2.987,8.428c-0.86,2.913-1.505,5.778-1.935,8.591c1.675-2.142,3.477-4.57,5.404-7.276
				C1036.111,910.354,1037.972,907.544,1039.766,904.639z"/>
			<path fill="#2E0D10" d="M1014.459,925.854c0.613,0.606,1.149,1.233,1.73,1.848c0.357-2.195,0.891-4.549,1.558-7.021
				c-1.02-1.275-2.163-2.409-3.312-3.536c-1.022,1.922-2.07,3.824-3.128,5.723C1012.351,923.833,1013.395,924.804,1014.459,925.854z
				"/>
			<path fill="#2E0D10" d="M997.046,948.273c1.46-0.897,2.809-2.009,4.025-3.325c1.216-1.319,2.283-2.758,3.202-4.322
				c0.919-1.564,1.675-3.206,2.268-4.926c0.593-1.72,0.993-3.447,1.201-5.185c0.055-0.457-0.024-0.983,0.002-1.455
				c-4.047,6.883-8.337,13.599-12.876,20.136C995.591,948.881,996.366,948.691,997.046,948.273z"/>
			<g>
				<path fill="#2E0D10" d="M1057.333,877.479c-0.326-1.008-0.852-1.861-1.586-2.557s-1.735-1.142-2.995-1.331
					c-1.846-0.282-3.751,0-5.708,0.841c-1.957,0.845-3.906,2.116-5.841,3.814c-1.935,1.701-3.854,3.751-5.745,6.149
					c-1.898,2.394-3.706,5.007-5.441,7.831c-1.734,2.828-3.358,5.804-4.863,8.936c-1.512,3.128-2.876,6.264-4.107,9.407
					c-1.223,3.143-2.261,6.219-3.106,9.225c-0.089,0.316-0.113,0.574-0.196,0.887c-0.666,2.471-1.201,4.826-1.558,7.021
					c-0.026,0.161-0.09,0.354-0.114,0.513c-0.511,3.399-0.719,6.69-0.615,9.87c0.096,3.18,0.482,6.019,1.134,8.517
					c0.652,2.498,1.557,4.548,2.713,6.145c1.149,1.601,2.52,2.52,4.099,2.761c1.001,0.152,2.09,0.174,3.276,0.07
					c1.186-0.107,2.409-0.3,3.684-0.589c1.275-0.285,2.55-0.641,3.832-1.06c1.275-0.422,2.52-0.856,3.729-1.301
					c1.029-0.401,2.109-0.97,3.155-1.426c-0.625-1.493-1.116-3.056-1.317-4.764c-0.203-1.676-0.146-3.385,0.029-5.109
					c-0.661,0.333-1.385,0.764-2.023,1.061c-0.875,0.408-1.772,0.804-2.706,1.19c-0.927,0.382-1.824,0.712-2.691,0.986
					c-0.867,0.271-1.675,0.471-2.424,0.597c-0.756,0.126-1.416,0.145-1.972,0.063c-0.23-0.037-0.46-0.245-0.667-0.619
					c-0.215-0.378-0.393-0.871-0.541-1.479c-0.148-0.608-0.252-1.282-0.304-2.024s-0.015-1.494,0.096-2.257l0.096-0.615
					c0.178-0.574,0.385-1.156,0.623-1.749s0.474-1.149,0.704-1.672c0.23-0.519,0.46-1.001,0.689-1.445
					c0.237-0.445,0.445-0.804,0.637-1.075c1.749-2.435,3.603-4.918,5.56-7.453c1.964-2.539,3.921-5.122,5.878-7.746
					c1.957-2.628,3.862-5.285,5.708-7.976c1.853-2.687,3.528-5.393,5.033-8.121c1.512-2.724,2.795-5.467,3.862-8.232
					c1.06-2.761,1.801-5.519,2.224-8.276c0.185-1.23,0.274-2.454,0.259-3.669C1057.83,879.602,1057.66,878.487,1057.333,877.479z
					 M1041.122,889.595c1.267-1.727,2.476-3.065,3.625-4.018c1.149-0.949,2.15-1.36,3.002-1.23c0.23,0.033,0.326,0.356,0.282,0.964
					c-0.052,0.608-0.141,1.338-0.267,2.187c-0.667,2.628-1.72,5.415-3.158,8.362s-3.054,5.871-4.84,8.78
					c-1.794,2.906-3.654,5.715-5.574,8.421c-1.927,2.706-3.729,5.133-5.404,7.276c0.43-2.813,1.075-5.678,1.935-8.591
					c0.86-2.909,1.861-5.723,2.987-8.428"/>
			</g>
			<path fill="#2E0D10" d="M1039.766,946.439c0.201,1.707,0.691,3.27,1.317,4.764c0.227,0.543,0.41,1.108,0.692,1.622
				c1.06,1.931,2.52,3.58,4.396,4.952c1.868,1.371,4.181,2.313,6.916,2.821c1.749,0.322,3.514,0.445,5.293,0.367
				c1.779-0.078,3.521-0.297,5.233-0.66c1.712-0.363,3.365-0.83,4.967-1.408c1.601-0.578,3.106-1.19,4.522-1.835
				c3.262-1.505,6.427-3.347,9.481-5.526l-4.559-6.905c-1.342,0.897-2.943,1.816-4.803,2.754c-1.86,0.934-3.81,1.757-5.841,2.468
				c-2.031,0.708-4.077,1.234-6.145,1.575c-2.068,0.341-3.981,0.348-5.73,0.026c-0.556-0.104-1.06-0.256-1.52-0.463
				c-0.459-0.204-0.882-0.493-1.26-0.867c-0.385-0.371-0.741-0.86-1.067-1.46c-0.326-0.604-0.63-1.342-0.927-2.209
				c2.669-0.23,5.204-0.771,7.605-1.623c2.402-0.849,4.544-1.931,6.412-3.247c1.875-1.308,3.417-2.787,4.648-4.433
				c1.223-1.642,2.001-3.365,2.335-5.174c0.304-1.66,0.297-3.217-0.045-4.666c-0.333-1.449-0.927-2.743-1.786-3.884
				c-0.86-1.138-1.942-2.098-3.247-2.883c-1.305-0.782-2.772-1.327-4.403-1.627c-2.009-0.374-3.906-0.356-5.685,0.056
				c-1.779,0.408-3.447,1.097-4.996,2.061c-1.549,0.964-2.965,2.15-4.255,3.554c-1.282,1.405-2.417,2.921-3.395,4.551
				c-0.979,1.627-1.801,3.321-2.454,5.085c-0.66,1.764-1.142,3.462-1.445,5.093c-0.124,0.678-0.155,1.344-0.223,2.015
				C1039.619,943.054,1039.563,944.763,1039.766,946.439z M1053.842,931.22c0.541-0.878,1.179-1.635,1.912-2.268
				c0.734-0.634,1.594-1.101,2.565-1.401c0.979-0.304,2.09-0.337,3.343-0.107c0.704,0.13,1.216,0.663,1.542,1.597
				c0.326,0.934,0.363,2.057,0.119,3.369c-0.17,0.934-0.712,1.827-1.623,2.683c-0.912,0.86-1.979,1.612-3.202,2.261
				c-1.223,0.649-2.498,1.127-3.84,1.434c-1.342,0.311-2.535,0.371-3.58,0.174c0.119-0.641,0.289-1.408,0.511-2.302"/>
		</g>
		<g>
			<path fill="none" d="M951.785,891.029c0.971-1.842,1.772-3.406,2.409-4.696c2.105-4.381,3.669-8.095,4.707-11.134
				c1.03-3.039,1.601-5.3,1.72-6.779c0.178-2.246-0.022-3.391-0.615-3.439c-0.771-0.063-2.009,1.104-3.714,3.495
				c-1.712,2.394-3.773,5.9-6.197,10.526c-0.63,1.586-1.23,3.232-1.801,4.944c-0.571,1.709-1.09,3.414-1.571,5.115
				c-0.474,1.701-0.919,3.376-1.334,5.026c-0.415,1.646-0.786,3.217-1.112,4.707c-0.786,3.477-1.445,6.89-1.979,10.237
				c0.949-1.798,1.979-3.751,3.099-5.863s2.224-4.203,3.313-6.271C949.798,894.825,950.821,892.871,951.785,891.029z"/>
			<path fill="none" d="M777.706,918.756c1.223-0.638,2.335-1.423,3.358-2.361c1.016-0.934,1.861-1.931,2.528-2.991
				c0.66-1.056,0.964-2.061,0.897-3.006c-0.096-1.331-0.423-2.409-0.971-3.232c-0.549-0.823-1.179-1.208-1.89-1.156
				c-1.268,0.093-2.342,0.408-3.21,0.945c-0.867,0.537-1.579,1.205-2.127,2.001c-0.556,0.801-0.978,1.694-1.282,2.68
				c-0.297,0.99-0.511,1.975-0.63,2.965c-0.126,0.99-0.178,1.946-0.17,2.869c0,0.919,0.03,1.705,0.074,2.357
				C775.349,919.75,776.49,919.394,777.706,918.756z"/>
			<path fill="none" d="M1006.89,913.345l-0.415,0.445c0.652,1.809,1.075,3.688,1.275,5.641c0.146,1.43,0.065,2.74-0.006,4.056
				c1.204-2.048,2.394-4.105,3.554-6.182c-0.307-0.283-0.62-0.6-0.925-0.876C1009.025,915.206,1007.861,914.179,1006.89,913.345z"/>
			<path fill="none" d="M997.743,912.659c-0.586-0.578-1.334-0.923-2.246-1.03c-1.208-0.145-2.424,0.233-3.632,1.134
				c-1.216,0.901-2.328,2.102-3.343,3.61c-1.016,1.505-1.875,3.202-2.58,5.089c-0.704,1.887-1.164,3.729-1.371,5.522
				c-0.148,1.238-0.17,2.417-0.067,3.532c0.104,1.119,0.356,2.113,0.764,2.98c0.4,0.871,0.986,1.597,1.757,2.179
				c0.763,0.586,1.72,0.945,2.869,1.082c1.001,0.122,2.031-0.271,3.098-1.175c1.06-0.904,2.039-2.087,2.935-3.547
				c0.89-1.46,1.66-3.099,2.305-4.918c0.652-1.82,1.082-3.584,1.282-5.289c0.163-1.357,0.208-2.628,0.141-3.814
				s-0.252-2.231-0.563-3.136S998.329,913.238,997.743,912.659z"/>
			<path fill="none" d="M731.77,900.384c0.682-2.235,1.319-4.348,1.927-6.338c0.6-1.99,1.097-3.677,1.482-5.063
				c1.245-4.7,2.09-8.639,2.535-11.819c0.445-3.18,0.586-5.508,0.423-6.979c-0.245-2.242-0.66-3.328-1.245-3.265
				c-0.771,0.085-1.772,1.46-2.995,4.129c-1.231,2.672-2.602,6.505-4.114,11.501c-0.326,1.675-0.608,3.406-0.845,5.193
				c-0.237,1.786-0.43,3.558-0.586,5.319c-0.148,1.764-0.274,3.491-0.371,5.189c-0.096,1.694-0.171,3.306-0.215,4.833
				c-0.119,3.562-0.126,7.035-0.022,10.426c0.593-1.946,1.245-4.058,1.95-6.341C730.398,904.884,731.088,902.623,731.77,900.384z"/>
			<path fill="#FCFCFC" d="M720.888,879.554c0.663-3.139,1.564-5.951,2.631-8.541c-0.644-0.332-1.402-0.571-2.408-0.612
				c-6.234-0.074-12.172,0.148-17.813,0.667c-5.641,0.519-11,1.205-16.093,2.05c-3.743,0.626-7.353,1.319-10.837,2.079
				c-3.477,0.76-6.716,1.631-9.711,2.609c-2.987,0.979-5.7,2.098-8.117,3.358c-2.424,1.26-4.44,2.687-6.049,4.277
				c-1.616,1.594-2.772,3.388-3.477,5.382c-0.704,1.998-0.852,4.225-0.445,6.682c0.23,1.042,0.682,1.931,1.342,2.661
				c0.556,0.626,1.371,1.153,2.431,1.579c1.06,0.422,2.468,0.489,4.225,0.196c1.757-0.293,3.061-0.804,3.914-1.531
				c0.86-0.73,1.445-1.475,1.772-2.235c0.326-0.76,0.474-1.438,0.452-2.035c-0.03-0.597-0.044-0.927-0.052-0.986
				c-0.185-1.108-0.059-2.124,0.371-3.036c0.437-0.915,1.09-1.746,1.972-2.494c0.882-0.749,1.942-1.42,3.18-2.02
				c1.238-0.593,2.594-1.145,4.055-1.642c1.468-0.5,2.987-0.956,4.551-1.368c1.571-0.411,3.121-0.808,4.655-1.182
				c-0.86,5.856-1.675,11.178-2.461,15.967c-0.778,4.789-1.512,9.173-2.202,13.15c-0.689,3.977-1.319,7.62-1.875,10.93
				c-0.563,3.31-1.03,6.434-1.416,9.366c-0.385,2.935-0.675,5.741-0.875,8.421s-0.267,5.382-0.2,8.106
				c-0.067,0.701-0.052,1.331,0.037,1.887c0.297,1.753,1.045,2.935,2.261,3.543c1.216,0.612,2.654,0.778,4.322,0.5
				c0.556-0.093,1.127-0.363,1.712-0.804c0.593-0.445,1.134-1.023,1.631-1.738c0.497-0.715,0.919-1.527,1.26-2.442
				c0.341-0.912,0.549-1.887,0.615-2.921c0.2-2.257,0.474-4.963,0.838-8.121c0.363-3.154,0.741-6.594,1.142-10.311
				c0.408-3.721,0.815-7.62,1.23-11.705c0.415-4.081,0.786-8.172,1.112-12.268c0.326-4.096,0.578-8.102,0.771-12.009
				c0.193-3.91,0.274-7.546,0.259-10.911c3.002-0.348,5.938-0.612,8.791-0.789c2.861-0.174,5.634-0.337,8.332-0.486
				c2.691-0.148,5.285-0.308,7.761-0.482C716.722,880.139,718.837,879.874,720.888,879.554z"/>
			<path fill="#FCFCFC" d="M720.792,879.929c-0.808,3.951-1.386,8.069-1.735,12.357c-0.356,4.292-0.519,8.61-0.489,12.961
				c0.03,4.355,0.133,8.487,0.326,12.405c0.185,3.914,0.43,7.476,0.734,10.678c0.311,3.202,0.571,5.793,0.786,7.765
				c0.133,1.242,0.311,2.442,0.526,3.614c0.215,1.167,0.526,2.202,0.919,3.099s0.904,1.594,1.527,2.09
				c0.623,0.5,1.416,0.697,2.387,0.589c0.741-0.078,1.327-0.308,1.764-0.682c0.437-0.374,0.815-0.901,1.149-1.579
				c0.326-0.678,0.645-1.531,0.949-2.565c0.304-1.034,0.704-2.246,1.208-3.643c1.008-2.824,2.172-5.585,3.506-8.28
				s2.639-5.137,3.921-7.32c1.282-2.183,2.454-4.003,3.499-5.459c1.053-1.457,1.809-2.372,2.276-2.754l0.941,0.033
				c-0.082,0.096-0.237,0.445-0.467,1.034c-0.237,0.593-0.504,1.353-0.808,2.279c-0.297,0.93-0.615,1.979-0.949,3.147
				c-0.341,1.171-0.623,2.365-0.867,3.584c-0.237,1.219-0.422,2.428-0.541,3.617c-0.126,1.193-0.133,2.261-0.03,3.202
				c0.148,1.416,0.504,2.898,1.067,4.448c0.556,1.549,1.29,2.954,2.202,4.21c0.912,1.256,2.016,2.257,3.299,2.995
				c1.29,0.741,2.743,1.019,4.366,0.845c1.06-0.119,2.157-0.415,3.284-0.897c1.127-0.478,2.239-1.056,3.343-1.727
				c1.104-0.674,2.194-1.427,3.269-2.261c1.067-0.83,2.061-1.649,2.972-2.45c0.732-0.641,1.372-1.234,1.996-1.818
				c-0.738-1.088-1.395-2.246-1.899-3.538c-0.697-1.769-1.106-3.651-1.353-5.599c-0.23,0.278-0.439,0.631-0.671,0.899
				c-0.608,0.723-1.26,1.427-1.957,2.116c-0.704,0.686-1.423,1.308-2.172,1.868c-0.741,0.56-1.497,1.03-2.261,1.408
				c-0.763,0.382-1.497,0.612-2.202,0.689c-0.563,0.063-1.06-0.241-1.49-0.912c-0.43-0.667-0.712-1.594-0.838-2.772
				c-0.237-2.15-0.185-4.244,0.141-6.279c0.334-2.035,0.726-4.036,1.179-6.012c0.46-1.972,0.86-3.94,1.216-5.904
				c0.348-1.961,0.415-3.944,0.2-5.949c-0.111-1.001-0.334-1.805-0.667-2.413c-0.334-0.604-0.719-1.06-1.156-1.371
				c-0.437-0.311-0.882-0.508-1.342-0.593c-0.452-0.082-0.86-0.107-1.216-0.067c-1.416,0.156-2.869,0.841-4.359,2.064
				c-1.49,1.219-2.965,2.709-4.411,4.462c-1.453,1.753-2.824,3.628-4.129,5.619s-2.476,3.847-3.514,5.571l-0.949-0.523
				c0.801-1.964,1.72-4.244,2.765-6.831c1.045-2.591,2.098-5.337,3.15-8.243c1.053-2.902,2.068-5.893,3.047-8.966
				c0.978-3.076,1.823-6.097,2.528-9.069c0.704-2.969,1.223-5.815,1.549-8.536c0.326-2.72,0.378-5.17,0.141-7.35
				c-0.163-1.475-0.43-2.795-0.793-3.962c-0.371-1.171-0.897-2.146-1.594-2.935c-0.697-0.789-1.586-1.364-2.654-1.727
				c-1.067-0.36-2.394-0.452-3.988-0.278c-3.069,0.334-5.685,1.486-7.857,3.451c-2.172,1.968-3.973,4.499-5.411,7.594
				c-0.239,0.515-0.417,1.112-0.638,1.65c-1.066,2.59-1.967,5.402-2.631,8.541C720.86,879.685,720.818,879.797,720.792,879.929z
				 M727.767,903.082c0.044-1.527,0.119-3.139,0.215-4.833c0.096-1.698,0.222-3.425,0.371-5.189c0.156-1.76,0.348-3.532,0.586-5.319
				c0.237-1.786,0.519-3.517,0.845-5.193c1.512-4.996,2.883-8.828,4.114-11.501c1.223-2.669,2.224-4.044,2.995-4.129
				c0.586-0.063,1.001,1.023,1.245,3.265c0.163,1.471,0.022,3.799-0.423,6.979c-0.445,3.18-1.29,7.12-2.535,11.819
				c-0.385,1.386-0.882,3.073-1.482,5.063c-0.608,1.99-1.245,4.103-1.927,6.338c-0.682,2.239-1.371,4.499-2.076,6.783
				c-0.704,2.283-1.357,4.396-1.95,6.341C727.641,910.117,727.648,906.644,727.767,903.082z"/>
			<path fill="#FCFCFC" d="M767.123,933.447c0.508,0.75,1.034,1.484,1.651,2.136c1.512,1.601,3.351,2.832,5.508,3.684
				c2.157,0.856,4.626,1.186,7.405,0.986c1.772-0.13,3.514-0.456,5.211-0.978c1.705-0.523,3.336-1.175,4.9-1.957
				s3.047-1.653,4.448-2.617c1.401-0.964,2.706-1.935,3.914-2.913c2.78-2.279,5.374-4.859,7.783-7.739l-6.153-5.534
				c-1.067,1.208-2.387,2.498-3.958,3.877c-1.564,1.375-3.239,2.661-5.026,3.862c-1.786,1.197-3.64,2.224-5.552,3.073
				c-1.92,0.852-3.758,1.342-5.537,1.468c-0.563,0.041-1.09,0.022-1.586-0.063c-0.497-0.082-0.979-0.256-1.438-0.519
				c-0.467-0.263-0.934-0.649-1.401-1.149c-0.467-0.5-0.949-1.134-1.453-1.901c2.52-0.897,4.84-2.057,6.953-3.488
				c2.113-1.431,3.906-3.017,5.382-4.759c1.482-1.742,2.609-3.562,3.38-5.459c0.771-1.898,1.09-3.766,0.956-5.597
				c-0.119-1.686-0.526-3.187-1.216-4.507c-0.689-1.316-1.594-2.42-2.713-3.306c-1.119-0.886-2.409-1.542-3.869-1.972
				c-1.453-0.43-3.01-0.586-4.67-0.467c-2.038,0.145-3.869,0.641-5.485,1.486c-1.623,0.845-3.061,1.931-4.314,3.254
				c-1.26,1.323-2.335,2.828-3.225,4.511c-0.889,1.686-1.601,3.44-2.135,5.263c-0.541,1.82-0.904,3.669-1.097,5.541
				c-0.193,1.872-0.23,3.636-0.111,5.289c0.033,0.466,0.139,0.902,0.196,1.358c0.247,1.948,0.656,3.83,1.353,5.599
				C765.727,931.201,766.385,932.359,767.123,933.447z M774.378,914.602c0.119-0.99,0.334-1.975,0.63-2.965
				c0.304-0.986,0.726-1.879,1.282-2.68c0.549-0.797,1.26-1.464,2.127-2.001c0.867-0.537,1.942-0.852,3.21-0.945
				c0.712-0.052,1.342,0.334,1.89,1.156c0.549,0.823,0.875,1.901,0.971,3.232c0.067,0.945-0.237,1.95-0.897,3.006
				c-0.667,1.06-1.512,2.057-2.528,2.991c-1.023,0.938-2.135,1.723-3.358,2.361c-1.216,0.638-2.357,0.993-3.425,1.071
				c-0.044-0.652-0.074-1.438-0.074-2.357C774.2,916.547,774.252,915.591,774.378,914.602z"/>
			<path fill="#FCFCFC" d="M931.641,921.202c-0.057,0.05-0.102,0.127-0.159,0.175c-0.838,0.701-1.712,1.245-2.624,1.635
				c-0.912,0.389-1.794,0.582-2.654,0.571s-1.668-0.141-2.417-0.385c-0.756-0.248-1.401-0.641-1.942-1.182
				c-0.549-0.537-0.971-1.219-1.29-2.039c-0.319-0.819-0.467-1.805-0.452-2.961c0.007-0.474,0.2-1.586,0.593-3.328
				c0.393-1.746,0.882-3.892,1.46-6.434s1.208-5.396,1.883-8.562c0.674-3.165,1.305-6.419,1.898-9.762
				c0.586-3.343,1.09-6.679,1.497-10.011c0.415-3.332,0.638-6.434,0.675-9.31c0.007-1.038-0.096-1.89-0.326-2.561
				c-0.23-0.671-0.563-1.208-1.008-1.616c-0.437-0.404-0.956-0.693-1.564-0.864c-0.608-0.171-1.282-0.259-2.024-0.267
				c-0.949-0.011-1.875,0.059-2.78,0.211c-0.904,0.152-1.72,0.474-2.439,0.971c-0.719,0.493-1.312,1.197-1.779,2.113
				c-0.474,0.912-0.763,2.124-0.867,3.636c-0.111,1.453-0.289,3.458-0.541,6.019c-0.252,2.565-0.593,5.452-1.016,8.662
				c-0.43,3.213-0.949,6.623-1.571,10.233c-0.623,3.61-1.349,7.19-2.179,10.737c-0.83,3.551-1.772,6.949-2.832,10.196
				c-1.067,3.25-2.253,6.104-3.573,8.565c-1.327,2.461-2.772,4.422-4.344,5.886c-1.579,1.464-3.313,2.183-5.211,2.161
				c-1.097-0.015-2.009-0.426-2.743-1.234c-0.726-0.812-1.319-1.976-1.757-3.491c-0.445-1.52-0.749-3.354-0.912-5.504
				c-0.17-2.153-0.237-4.562-0.2-7.231c0.03-2.609,0.185-5.471,0.46-8.58c0.274-3.11,0.615-6.256,1.023-9.44
				c0.415-3.18,0.852-6.282,1.319-9.303c0.467-3.017,0.897-5.719,1.297-8.098c0.4-2.383,0.726-4.336,0.986-5.86
				c0.252-1.523,0.378-2.391,0.385-2.598c0.007-0.623-0.074-1.186-0.245-1.694c-0.178-0.504-0.474-0.941-0.897-1.301
				c-0.43-0.36-1.001-0.649-1.727-0.867c-0.726-0.215-1.646-0.33-2.772-0.345c-1.186-0.015-2.239,0.107-3.143,0.363
				c-0.912,0.256-1.705,0.708-2.394,1.349c-0.689,0.645-1.29,1.512-1.794,2.602c-0.497,1.093-0.941,2.45-1.312,4.077
				c-2.053,10.089-4.373,19.088-6.96,27.004c-0.734,2.246-1.52,4.466-2.342,6.664c-0.83,2.202-1.712,4.296-2.639,6.286
				s-1.89,3.84-2.891,5.545c-1.001,1.709-2.038,3.18-3.121,4.411c-1.082,1.234-2.202,2.198-3.351,2.895
				c-1.149,0.701-2.335,1.042-3.551,1.027s-2.261-0.415-3.143-1.197c-0.875-0.778-1.609-1.849-2.187-3.206
				c-0.571-1.357-0.993-2.947-1.253-4.774c-0.259-1.827-0.378-3.792-0.348-5.897c0.03-2.58,0.311-5.37,0.838-8.376
				c0.526-3.002,1.179-6.056,1.957-9.158c0.778-3.106,1.616-6.164,2.513-9.177c0.897-3.017,1.727-5.808,2.505-8.376
				c0.771-2.572,1.408-4.84,1.927-6.805c0.511-1.964,0.771-3.454,0.786-4.462c0.007-0.89-0.074-1.594-0.267-2.116
				c-0.185-0.519-0.46-0.923-0.83-1.208c-0.363-0.285-0.815-0.478-1.349-0.574c-0.526-0.096-1.119-0.145-1.772-0.156
				c-0.801-0.007-1.594,0.026-2.387,0.107c-0.786,0.078-1.564,0.345-2.342,0.793c-0.778,0.452-1.542,1.153-2.291,2.105
				c-0.756,0.956-1.512,2.291-2.276,3.999c-1.282,3.069-2.431,6.227-3.454,9.477c-1.016,3.25-1.875,6.531-2.587,9.844
				c-0.704,3.31-1.26,6.62-1.653,9.918c-0.393,3.302-0.615,6.527-0.652,9.67c-0.059,5.13,0.289,9.618,1.06,13.465
				c0.771,3.851,1.816,7.057,3.128,9.625c1.319,2.565,2.861,4.503,4.625,5.815c1.764,1.312,3.625,1.979,5.582,2.001
				c3.41,0.041,6.523-0.504,9.333-1.642c2.817-1.138,5.337-3.073,7.546-5.804c2.216-2.728,4.151-6.36,5.826-10.893
				c1.668-4.529,3.084-10.17,4.233-16.916c-0.104,0.978-0.237,2.087-0.4,3.332c-0.163,1.242-0.252,2.576-0.267,3.999
				c-0.052,3.884,0.185,7.55,0.712,10.993c0.519,3.447,1.379,6.453,2.58,9.017c1.201,2.565,2.772,4.6,4.729,6.108
				c1.957,1.505,4.336,2.276,7.153,2.309c2.224,0.026,4.388-0.367,6.486-1.19c2.105-0.819,4.121-1.994,6.049-3.528
				c1.935-1.534,3.766-3.395,5.493-5.582c1.735-2.187,3.358-4.651,4.87-7.39c0.163,1.423,0.46,2.657,0.89,3.703
				c0.437,1.042,0.978,1.894,1.638,2.554c0.66,0.663,1.416,1.153,2.276,1.475c0.852,0.322,1.772,0.489,2.75,0.5
				c2.046,0.022,4.24-0.675,6.59-2.102c0.504-0.306,0.993-0.735,1.492-1.091c0.162-1.945,0.381-4.415,0.665-7.485
				C931.574,921.795,931.613,921.482,931.641,921.202z"/>
			<path fill="#FCFCFC" d="M974.883,927.204c-0.719,0.583-1.471,1.142-2.268,1.674c-0.823,0.545-1.646,1.019-2.483,1.431
				c-0.838,0.408-1.66,0.73-2.483,0.96c-0.823,0.233-1.586,0.319-2.298,0.263c-0.563-0.044-0.993-0.437-1.29-1.175
				c-0.297-0.738-0.4-1.697-0.304-2.88c0.17-2.157,0.608-4.203,1.312-6.141c0.712-1.935,1.468-3.832,2.291-5.685
				c0.815-1.853,1.579-3.71,2.291-5.571c0.719-1.861,1.156-3.795,1.312-5.808c0.082-1.004,0.015-1.835-0.2-2.491
				s-0.511-1.179-0.882-1.564c-0.371-0.389-0.771-0.667-1.201-0.834c-0.43-0.17-0.83-0.267-1.179-0.297
				c-1.423-0.111-2.98,0.293-4.67,1.212c-1.698,0.919-3.425,2.105-5.174,3.558s-3.454,3.032-5.107,4.744s-3.15,3.317-4.492,4.818
				l-0.838-0.693c1.156-1.783,2.491-3.847,4.003-6.193c1.505-2.35,3.054-4.848,4.633-7.505c1.579-2.654,3.143-5.4,4.677-8.239
				c1.534-2.835,2.928-5.645,4.173-8.432c1.253-2.783,2.291-5.485,3.121-8.095c0.838-2.609,1.342-5.007,1.512-7.198
				c0.119-1.475,0.111-2.824-0.03-4.04c-0.141-1.216-0.482-2.276-1.016-3.18c-0.541-0.908-1.297-1.638-2.283-2.19
				c-0.978-0.556-2.268-0.897-3.862-1.023c-3.076-0.245-5.863,0.393-8.369,1.92c-2.498,1.523-4.744,3.673-6.738,6.442
				c-1.994,2.772-3.751,6.023-5.285,9.751c-1.534,3.732-2.876,7.668-4.025,11.816c-1.149,4.147-2.113,8.361-2.906,12.639
				c-0.786,4.281-1.453,8.361-2.001,12.246c-0.502,3.548-0.886,6.777-1.182,9.758c-0.028,0.28-0.067,0.593-0.093,0.868
				c-0.284,3.07-0.503,5.54-0.665,7.485c-0.006,0.086-0.018,0.207-0.024,0.29c-0.096,1.242-0.148,2.457-0.156,3.647
				c-0.007,1.19,0.104,2.261,0.326,3.217c0.215,0.953,0.586,1.735,1.104,2.342c0.519,0.604,1.26,0.949,2.239,1.027
				c0.741,0.056,1.357-0.056,1.853-0.345c0.504-0.285,0.978-0.73,1.423-1.334c0.452-0.604,0.927-1.386,1.416-2.342
				c0.497-0.956,1.119-2.076,1.875-3.354c1.512-2.583,3.18-5.078,4.989-7.476c1.816-2.398,3.558-4.548,5.226-6.453
				c1.668-1.905,3.158-3.473,4.462-4.707c1.297-1.234,2.216-1.994,2.743-2.279l0.919,0.208c-0.096,0.081-0.311,0.393-0.652,0.93
				c-0.341,0.537-0.741,1.234-1.216,2.087c-0.467,0.856-0.979,1.827-1.527,2.913c-0.549,1.086-1.053,2.205-1.52,3.358
				c-0.46,1.153-0.867,2.305-1.208,3.451c-0.348,1.149-0.556,2.194-0.63,3.139c-0.111,1.42-0.044,2.943,0.215,4.57
				c0.252,1.627,0.712,3.143,1.379,4.548c0.66,1.408,1.549,2.594,2.676,3.562c1.134,0.967,2.505,1.516,4.136,1.646
				c1.06,0.085,2.187-0.004,3.388-0.263c1.193-0.263,2.394-0.619,3.61-1.075c1.208-0.452,2.424-0.986,3.632-1.605
				c1.208-0.615,2.335-1.234,3.38-1.849c0.509-0.3,0.927-0.57,1.394-0.856c-0.712-1.699-1.238-3.505-1.46-5.482
				C974.725,929.779,974.866,928.492,974.883,927.204z M945.395,903.168c-1.119,2.113-2.15,4.066-3.099,5.863
				c0.534-3.347,1.193-6.76,1.979-10.237c0.326-1.49,0.697-3.061,1.112-4.707c0.415-1.649,0.86-3.325,1.334-5.026
				c0.482-1.701,1.001-3.406,1.571-5.115c0.571-1.712,1.171-3.358,1.801-4.944c2.424-4.625,4.485-8.132,6.197-10.526
				c1.705-2.391,2.943-3.558,3.714-3.495c0.593,0.048,0.793,1.193,0.615,3.439c-0.119,1.479-0.689,3.74-1.72,6.779
				c-1.038,3.039-2.602,6.753-4.707,11.134c-0.638,1.29-1.438,2.854-2.409,4.696c-0.964,1.842-1.987,3.795-3.076,5.867
				C947.619,898.965,946.514,901.055,945.395,903.168z"/>
			<path fill="#FCFCFC" d="M1007.75,919.431c-0.2-1.953-0.623-3.832-1.275-5.641l0.415-0.445c0.971,0.834,2.135,1.861,3.484,3.084
				c0.305,0.276,0.618,0.593,0.925,0.876c1.059-1.898,2.107-3.801,3.128-5.723c-0.524-0.514-0.959-1.13-1.51-1.613
				c-1.964-1.712-4.114-3.15-6.456-4.31c-2.335-1.16-4.907-1.909-7.702-2.242c-3.269-0.389-6.286-0.145-9.043,0.734
				c-2.765,0.882-5.174,2.25-7.235,4.11c-2.061,1.861-3.743,4.136-5.048,6.831c-1.305,2.698-2.157,5.663-2.543,8.903
				c-0.128,1.07,0.006,2.141-0.007,3.211c-0.017,1.288-0.158,2.575-0.007,3.865c0.222,1.977,0.749,3.783,1.46,5.482
				c0.138,0.33,0.228,0.688,0.385,1.008c0.956,1.968,2.291,3.628,3.995,4.981c1.705,1.353,3.855,2.183,6.442,2.494
				c1.801,0.211,3.528,0.107,5.189-0.322c0.888-0.229,1.672-0.7,2.502-1.062c4.546-6.547,8.843-13.271,12.896-20.163
				C1007.815,922.171,1007.897,920.861,1007.75,919.431z M999.515,921.829c-0.2,1.705-0.63,3.469-1.282,5.289
				c-0.645,1.82-1.416,3.458-2.305,4.918c-0.897,1.46-1.875,2.643-2.935,3.547c-1.067,0.904-2.098,1.297-3.098,1.175
				c-1.149-0.137-2.105-0.497-2.869-1.082c-0.771-0.582-1.357-1.308-1.757-2.179c-0.408-0.867-0.66-1.861-0.764-2.98
				c-0.104-1.116-0.082-2.294,0.067-3.532c0.208-1.794,0.667-3.636,1.371-5.522c0.704-1.887,1.564-3.584,2.58-5.089
				c1.016-1.508,2.127-2.709,3.343-3.61c1.208-0.901,2.424-1.279,3.632-1.134c0.912,0.107,1.66,0.452,2.246,1.03
				c0.586,0.578,1.038,1.316,1.349,2.22s0.497,1.95,0.563,3.136S999.678,920.472,999.515,921.829z"/>
		</g>
		<g>
			<path fill="#D01A27" d="M1039.766,899.065c1.786-2.909,3.402-5.834,4.84-8.78s2.491-5.734,3.158-8.362
				c0.126-0.849,0.215-1.579,0.267-2.187c0.044-0.608-0.052-0.93-0.282-0.964c-0.852-0.13-1.853,0.282-3.002,1.23
				c-1.149,0.953-2.357,2.291-3.625,4.018c-1.268,1.727-2.535,3.769-3.81,6.123c-1.268,2.357-2.468,4.889-3.603,7.598
				c-1.127,2.706-2.127,5.519-2.987,8.428c-0.86,2.913-1.505,5.778-1.935,8.591c1.675-2.142,3.477-4.57,5.404-7.276
				C1036.111,904.78,1037.972,901.97,1039.766,899.065z"/>
			<path fill="#CECECE" d="M1014.459,920.28c0.613,0.606,1.149,1.233,1.73,1.848c0.357-2.195,0.891-4.549,1.558-7.021
				c-1.02-1.275-2.163-2.409-3.312-3.536c-1.022,1.922-2.07,3.824-3.128,5.723C1012.351,918.259,1013.395,919.23,1014.459,920.28z"
				/>
			<path fill="#CECECE" d="M997.046,942.699c1.46-0.897,2.809-2.009,4.025-3.325c1.216-1.319,2.283-2.758,3.202-4.322
				c0.919-1.564,1.675-3.206,2.268-4.926c0.593-1.72,0.993-3.447,1.201-5.185c0.055-0.457-0.024-0.983,0.002-1.455
				c-4.047,6.883-8.337,13.599-12.876,20.136C995.591,943.307,996.366,943.117,997.046,942.699z"/>
			<g>
				<path fill="#CECECE" d="M1057.333,871.905c-0.326-1.008-0.852-1.861-1.586-2.557s-1.735-1.142-2.995-1.331
					c-1.846-0.282-3.751,0-5.708,0.841c-1.957,0.845-3.906,2.116-5.841,3.814c-1.935,1.701-3.854,3.751-5.745,6.149
					c-1.898,2.394-3.706,5.007-5.441,7.831c-1.734,2.828-3.358,5.804-4.863,8.936c-1.512,3.128-2.876,6.264-4.107,9.407
					c-1.223,3.143-2.261,6.219-3.106,9.225c-0.089,0.316-0.113,0.574-0.196,0.887c-0.666,2.471-1.201,4.826-1.558,7.021
					c-0.026,0.161-0.09,0.354-0.114,0.513c-0.511,3.399-0.719,6.69-0.615,9.87c0.096,3.18,0.482,6.019,1.134,8.517
					c0.652,2.498,1.557,4.548,2.713,6.145c1.149,1.601,2.52,2.52,4.099,2.761c1.001,0.152,2.09,0.174,3.276,0.07
					c1.186-0.107,2.409-0.3,3.684-0.589c1.275-0.285,2.55-0.641,3.832-1.06c1.275-0.422,2.52-0.856,3.729-1.301
					c1.029-0.401,2.109-0.97,3.155-1.426c-0.625-1.493-1.116-3.056-1.317-4.764c-0.203-1.676-0.146-3.385,0.029-5.109
					c-0.661,0.333-1.385,0.764-2.023,1.061c-0.875,0.408-1.772,0.804-2.706,1.19c-0.927,0.382-1.824,0.712-2.691,0.986
					c-0.867,0.271-1.675,0.471-2.424,0.597c-0.756,0.126-1.416,0.145-1.972,0.063c-0.23-0.037-0.46-0.245-0.667-0.619
					c-0.215-0.378-0.393-0.871-0.541-1.479c-0.148-0.608-0.252-1.282-0.304-2.024s-0.015-1.494,0.096-2.257l0.096-0.615
					c0.178-0.574,0.385-1.156,0.623-1.749c0.237-0.593,0.474-1.149,0.704-1.672c0.23-0.519,0.46-1.001,0.689-1.445
					c0.237-0.445,0.445-0.804,0.637-1.075c1.749-2.435,3.603-4.918,5.56-7.453c1.964-2.539,3.921-5.122,5.878-7.746
					c1.957-2.628,3.862-5.285,5.708-7.976c1.853-2.687,3.528-5.393,5.033-8.121c1.512-2.724,2.795-5.467,3.862-8.232
					c1.06-2.761,1.801-5.519,2.224-8.276c0.185-1.23,0.274-2.454,0.259-3.669C1057.83,874.028,1057.66,872.913,1057.333,871.905z
					 M1041.122,884.021c1.267-1.727,2.476-3.065,3.625-4.018c1.149-0.949,2.15-1.36,3.002-1.23c0.23,0.033,0.326,0.356,0.282,0.964
					c-0.052,0.608-0.141,1.338-0.267,2.187c-0.667,2.628-1.72,5.415-3.158,8.362s-3.054,5.871-4.84,8.78
					c-1.794,2.906-3.654,5.715-5.574,8.421c-1.927,2.706-3.729,5.133-5.404,7.276c0.43-2.813,1.075-5.678,1.935-8.591
					c0.86-2.909,1.861-5.723,2.987-8.428"/>
			</g>
			<path fill="#CECECE" d="M1039.766,940.865c0.201,1.707,0.691,3.27,1.317,4.764c0.227,0.543,0.41,1.108,0.692,1.622
				c1.06,1.931,2.52,3.58,4.396,4.952c1.868,1.371,4.181,2.313,6.916,2.821c1.749,0.322,3.514,0.445,5.293,0.367
				c1.779-0.078,3.521-0.297,5.233-0.66c1.712-0.363,3.365-0.83,4.967-1.408c1.601-0.578,3.106-1.19,4.522-1.835
				c3.262-1.505,6.427-3.347,9.481-5.526l-4.559-6.905c-1.342,0.897-2.943,1.816-4.803,2.754c-1.86,0.934-3.81,1.757-5.841,2.468
				c-2.031,0.708-4.077,1.234-6.145,1.575c-2.068,0.341-3.981,0.348-5.73,0.026c-0.556-0.104-1.06-0.256-1.52-0.463
				c-0.459-0.204-0.882-0.493-1.26-0.867c-0.385-0.371-0.741-0.86-1.067-1.46c-0.326-0.604-0.63-1.342-0.927-2.209
				c2.669-0.23,5.204-0.771,7.605-1.623c2.402-0.849,4.544-1.931,6.412-3.247c1.875-1.308,3.417-2.787,4.648-4.433
				c1.223-1.642,2.001-3.365,2.335-5.174c0.304-1.66,0.297-3.217-0.045-4.666c-0.333-1.449-0.927-2.743-1.786-3.884
				c-0.86-1.138-1.942-2.098-3.247-2.883c-1.305-0.782-2.772-1.327-4.403-1.627c-2.009-0.374-3.906-0.356-5.685,0.056
				c-1.779,0.408-3.447,1.097-4.996,2.061c-1.549,0.964-2.965,2.15-4.255,3.554c-1.282,1.405-2.417,2.921-3.395,4.551
				c-0.979,1.627-1.801,3.321-2.454,5.085c-0.66,1.764-1.142,3.462-1.445,5.093c-0.124,0.678-0.155,1.344-0.223,2.015
				C1039.619,937.48,1039.563,939.189,1039.766,940.865z M1053.842,925.646c0.541-0.878,1.179-1.635,1.912-2.268
				c0.734-0.634,1.594-1.101,2.565-1.401c0.979-0.304,2.09-0.337,3.343-0.107c0.704,0.13,1.216,0.663,1.542,1.597
				c0.326,0.934,0.363,2.057,0.119,3.369c-0.17,0.934-0.712,1.827-1.623,2.683c-0.912,0.86-1.979,1.612-3.202,2.261
				c-1.223,0.649-2.498,1.127-3.84,1.434c-1.342,0.311-2.535,0.371-3.58,0.174c0.119-0.641,0.289-1.408,0.511-2.302"/>
		</g>
	</g>
	<g>
		<circle fill="#25AAE2" cx="1508.206" cy="1152.253" r="118.693"/>
		<path fill="#008DC3" d="M1530.961,1035.748c40.836,22.791,68.457,66.419,68.457,116.505c0,50.086-27.621,93.714-68.457,116.505
			c54.665-10.616,95.937-58.736,95.937-116.505C1626.898,1094.485,1585.626,1046.364,1530.961,1035.748z"/>
		<g>
			<circle fill="#008DC3" cx="1425.423" cy="1188.548" r="14.427"/>
			<path fill="#0081B3" d="M1429.271,1199.32c-8.721,0-16.004-6.114-17.824-14.287c-0.283,1.127-0.449,2.3-0.449,3.515
				c0,7.968,6.459,14.427,14.427,14.427c4.416,0,8.363-1.989,11.009-5.114C1434.232,1198.798,1431.813,1199.32,1429.271,1199.32z"/>
		</g>
		<g>
			<circle fill="#008DC3" cx="1478.936" cy="1236.838" r="8.981"/>
			<path fill="#0081B3" d="M1478.085,1243.908c-4.858-2.424-7.215-7.854-5.958-12.913c-0.471,0.549-0.89,1.156-1.227,1.833
				c-2.215,4.438-0.412,9.832,4.026,12.047c2.46,1.227,5.211,1.216,7.554,0.211
				C1480.994,1244.997,1479.501,1244.614,1478.085,1243.908z"/>
		</g>
		<g>
			<circle fill="#008DC3" cx="1509.717" cy="1066.137" r="8.473"/>
			<path fill="#0081B3" d="M1512.855,1072.077c-5.07,0.731-9.815-2.214-11.558-6.812c-0.07,0.679-0.068,1.375,0.033,2.081
				c0.668,4.631,4.963,7.845,9.595,7.177c2.567-0.37,4.695-1.857,5.971-3.895
				C1515.696,1071.358,1514.333,1071.864,1512.855,1072.077z"/>
		</g>
		<g>
			<circle fill="#008DC3" cx="1426.912" cy="1142.932" r="5.984"/>
			<path fill="#0081B3" d="M1429.129,1147.126c-3.58,0.516-6.932-1.563-8.163-4.811c-0.049,0.479-0.048,0.971,0.023,1.47
				c0.471,3.271,3.505,5.54,6.776,5.069c1.813-0.261,3.315-1.311,4.217-2.751
				C1431.135,1146.619,1430.173,1146.976,1429.129,1147.126z"/>
		</g>
		<g>
			<circle fill="#008DC3" cx="1586.361" cy="1147.391" r="4.458"/>
			<path fill="#0081B3" d="M1586.131,1150.919c-2.474-1.07-3.789-3.697-3.303-6.239c-0.219,0.285-0.41,0.597-0.559,0.942
				c-0.977,2.26,0.062,4.884,2.323,5.862c1.253,0.542,2.616,0.462,3.75-0.1C1587.602,1151.379,1586.852,1151.23,1586.131,1150.919z"
				/>
		</g>
		<g>
			<circle fill="#008DC3" cx="1535.227" cy="1237.339" r="6.99"/>
			<path fill="#0081B3" d="M1536.553,1242.72c-4.204-0.428-7.414-3.733-7.89-7.761c-0.192,0.53-0.33,1.087-0.389,1.672
				c-0.391,3.84,2.405,7.271,6.245,7.662c2.129,0.217,4.128-0.548,5.557-1.925C1538.97,1242.712,1537.778,1242.845,1536.553,1242.72
				z"/>
		</g>
		<g>
			<circle fill="#008DC3" cx="1562.687" cy="1183.46" r="2.692"/>
			<path fill="#0081B3" d="M1564.534,1184.527c-1.241,1.053-3.015,1.062-4.26,0.12c0.096,0.194,0.214,0.381,0.36,0.554
				c0.962,1.133,2.661,1.272,3.794,0.31c0.628-0.533,0.949-1.293,0.948-2.057C1565.177,1183.854,1564.896,1184.22,1564.534,1184.527
				z"/>
		</g>
		<g>
			<circle fill="#008DC3" cx="1451.929" cy="1087.445" r="12.078"/>
			<path fill="#0081B3" d="M1449.529,1096.715c-6.041-4.101-8.21-11.76-5.629-18.278c-0.726,0.648-1.393,1.382-1.964,2.224
				c-3.746,5.519-2.31,13.03,3.209,16.776c3.059,2.076,6.728,2.554,10.031,1.634
				C1453.211,1098.688,1451.29,1097.911,1449.529,1096.715z"/>
		</g>
		<g>
			<path fill="#04688F" d="M1564.863,1105.317c-2.41,5.554-5.755,10.779-10.034,15.676l0.57,2.94
				c1.63,8.401,1.706,17.212,0.225,26.434s-4.593,17.888-9.338,26.001c-4.748,8.112-11.146,15.203-19.192,21.264
				c-8.051,6.067-17.885,10.225-29.504,12.479c-7.142,1.385-14.165,1.696-21.068,0.928c-6.902-0.766-13.58-2.412-20.026-4.941
				c1.004-0.048,1.999-0.17,2.979-0.36c0.979-0.19,2.029-0.394,3.151-0.611c12.042-2.336,21.778-7.93,29.214-16.782
				c-5.626,0.948-10.894,0.19-15.803-2.273c-4.911-2.459-8.623-6.064-11.14-10.805c1.76,0.094,3.34,0.005,4.742-0.267
				c1.259-0.244,2.403-0.537,3.425-0.882c1.023-0.34,2.066-0.76,3.134-1.261c-6.127-0.12-11.555-2.079-16.289-5.884
				c-4.733-3.802-7.696-8.783-8.891-14.945l-0.041-0.21c1.842,0.514,3.765,0.87,5.762,1.061c2,0.193,4.185,0.059,6.57-0.404
				c-4.078-1.531-7.447-3.928-10.112-7.191c-2.668-3.259-4.435-7.128-5.305-11.611c-0.869-4.479-0.578-8.965,0.876-13.463
				c7.821,6.621,16.667,11.406,26.537,14.356c9.868,2.956,20.096,3.619,30.68,2.003c-0.746-1.599-1.308-3.377-1.689-5.339
				c-0.679-3.498-0.663-6.954,0.059-10.362c0.718-3.409,2.01-6.492,3.87-9.25c1.864-2.759,4.169-5.093,6.922-7.01
				c2.75-1.913,5.877-3.211,9.378-3.89c3.781-0.733,7.354-0.663,10.721,0.208c3.363,0.873,6.465,2.271,9.312,4.187
				c2.717-0.963,5.366-2.273,7.949-3.939c2.584-1.663,4.941-3.356,7.078-5.078c-1.101,6.316-3.915,11.656-8.44,16.021
				c2.604-0.796,5.028-1.772,7.273-2.937C1560.666,1108.021,1562.811,1106.733,1564.863,1105.317z"/>
		</g>
		<g>
			<path fill="#FFFFFF" d="M1562.429,1102.073c-2.41,5.554-5.755,10.779-10.034,15.676l0.57,2.94
				c1.63,8.401,1.706,17.212,0.225,26.434c-1.481,9.222-4.593,17.888-9.338,26.001c-4.748,8.112-11.146,15.203-19.192,21.265
				c-8.051,6.067-17.885,10.225-29.504,12.479c-7.142,1.385-14.165,1.696-21.068,0.928c-6.902-0.766-13.58-2.412-20.026-4.941
				c1.004-0.048,1.999-0.17,2.979-0.36s2.029-0.394,3.151-0.611c12.042-2.336,21.778-7.93,29.214-16.782
				c-5.626,0.948-10.894,0.19-15.803-2.273c-4.911-2.459-8.623-6.064-11.14-10.806c1.76,0.094,3.34,0.005,4.742-0.267
				c1.259-0.244,2.403-0.537,3.425-0.882c1.023-0.34,2.066-0.76,3.134-1.261c-6.127-0.12-11.555-2.079-16.289-5.884
				c-4.733-3.802-7.696-8.783-8.891-14.945l-0.041-0.21c1.842,0.514,3.765,0.87,5.762,1.061c2.001,0.193,4.185,0.059,6.57-0.404
				c-4.078-1.532-7.447-3.928-10.112-7.191c-2.668-3.259-4.435-7.127-5.305-11.611c-0.869-4.479-0.578-8.964,0.876-13.463
				c7.821,6.621,16.667,11.406,26.537,14.356c9.868,2.956,20.096,3.619,30.68,2.003c-0.746-1.599-1.308-3.377-1.689-5.339
				c-0.679-3.498-0.663-6.954,0.059-10.362c0.718-3.409,2.01-6.492,3.87-9.25c1.864-2.759,4.169-5.093,6.922-7.01
				c2.75-1.913,5.877-3.21,9.378-3.89c3.781-0.734,7.354-0.663,10.721,0.208c3.363,0.874,6.465,2.271,9.312,4.187
				c2.717-0.963,5.366-2.273,7.949-3.939c2.584-1.663,4.942-3.356,7.078-5.078c-1.101,6.316-3.915,11.656-8.44,16.021
				c2.604-0.796,5.028-1.772,7.273-2.937C1558.232,1104.776,1560.378,1103.489,1562.429,1102.073z"/>
		</g>
	</g>
	<g>
		<circle fill="#F49819" cx="1522.956" cy="567.842" r="81.491"/>
		<path fill="#D07D10" d="M1579.33,509c6.324,12.46,9.891,26.554,9.891,41.483c0,50.692-41.094,91.786-91.786,91.786
			c-2.898,0-5.763-0.141-8.593-0.404c10.378,4.791,21.932,7.468,34.113,7.468c45.006,0,81.491-36.485,81.491-81.491
			C1604.447,544.711,1594.808,523.833,1579.33,509z"/>
		<g>
			<circle fill="#D07D10" cx="1542.139" cy="519.099" r="10.969"/>
			<path fill="#BF7414" d="M1544.566,527.451c-6.619-0.4-11.866-5.374-12.873-11.66c-0.266,0.843-0.447,1.725-0.502,2.647
				c-0.365,6.047,4.241,11.245,10.288,11.61c3.351,0.202,6.438-1.126,8.59-3.377
				C1548.355,527.282,1546.495,527.567,1544.566,527.451z"/>
		</g>
		<g>
			<circle fill="#D07D10" cx="1472.149" cy="580.248" r="11.696"/>
			<path fill="#BF7414" d="M1476.3,588.541c-7.019,0.854-13.479-3.353-15.744-9.752c-0.117,0.935-0.136,1.895-0.017,2.873
				c0.781,6.412,6.611,10.978,13.024,10.197c3.554-0.433,6.535-2.42,8.359-5.194C1480.242,587.635,1478.346,588.292,1476.3,588.541z
				"/>
		</g>
		<g>
			<circle fill="#D07D10" cx="1477.141" cy="616.499" r="4.647"/>
			<path fill="#BF7414" d="M1480.147,618.628c-2.3,1.612-5.352,1.346-7.343-0.473c0.134,0.35,0.307,0.69,0.531,1.01
				c1.473,2.102,4.371,2.611,6.472,1.138c1.165-0.816,1.838-2.071,1.958-3.384C1481.359,617.574,1480.817,618.159,1480.147,618.628z
				"/>
		</g>
		<g>
			<circle fill="#D07D10" cx="1569.601" cy="552.505" r="7.115"/>
			<path fill="#BF7414" d="M1572.126,557.55c-4.27,0.52-8.2-2.04-9.578-5.933c-0.071,0.569-0.083,1.153-0.01,1.748
				c0.475,3.901,4.022,6.678,7.923,6.204c2.162-0.263,3.976-1.472,5.085-3.16C1574.524,556.999,1573.371,557.398,1572.126,557.55z"
				/>
		</g>
		<g>
			<circle fill="#BF7414" cx="1591.282" cy="592.164" r="6.348"/>
			<path fill="#A66515" d="M1593.535,596.665c-3.809,0.464-7.315-1.82-8.545-5.293c-0.063,0.507-0.074,1.029-0.009,1.559
				c0.424,3.48,3.588,5.958,7.068,5.534c1.929-0.235,3.547-1.313,4.537-2.819C1595.674,596.173,1594.645,596.53,1593.535,596.665z"
				/>
		</g>
		<g>
			<circle fill="#BF7414" cx="1553.627" cy="637.844" r="2.258"/>
			<path fill="#A66515" d="M1554.428,639.445c-1.355,0.165-2.602-0.647-3.039-1.883c-0.023,0.18-0.026,0.366-0.003,0.555
				c0.151,1.238,1.276,2.119,2.514,1.969c0.686-0.083,1.262-0.467,1.614-1.003C1555.189,639.27,1554.823,639.397,1554.428,639.445z"
				/>
		</g>
		<g>
			<circle fill="#BF7414" cx="1566.025" cy="627.093" r="3.343"/>
			<path fill="#A66515" d="M1567.211,629.464c-2.006,0.244-3.853-0.959-4.501-2.788c-0.033,0.267-0.039,0.542-0.005,0.821
				c0.223,1.833,1.89,3.138,3.723,2.915c1.016-0.124,1.868-0.692,2.389-1.485C1568.338,629.205,1567.796,629.392,1567.211,629.464z"
				/>
		</g>
		<g>
			<circle fill="#D07D10" cx="1502.873" cy="510.712" r="4.487"/>
			<path fill="#BF7414" d="M1504.465,513.893c-2.693,0.328-5.171-1.286-6.04-3.741c-0.045,0.359-0.052,0.727-0.007,1.102
				c0.299,2.46,2.536,4.212,4.996,3.912c1.363-0.166,2.507-0.928,3.207-1.993C1505.978,513.545,1505.25,513.797,1504.465,513.893z"
				/>
		</g>
		<g>
			<circle fill="#D07D10" cx="1463.799" cy="536.196" r="6.769"/>
			<path fill="#BF7414" d="M1466.5,540.834c-4.023,0.75-7.907-1.445-9.449-5.058c-0.034,0.544-0.01,1.1,0.095,1.66
				c0.685,3.675,4.219,6.099,7.894,5.414c2.037-0.38,3.686-1.636,4.638-3.305C1468.744,540.167,1467.672,540.616,1466.5,540.834z"/>
		</g>
		<g>
			<circle fill="#D07D10" cx="1525.328" cy="618.668" r="1.781"/>
			<path fill="#BF7414" d="M1526.038,619.888c-1.058,0.197-2.08-0.38-2.486-1.331c-0.009,0.143-0.003,0.289,0.025,0.437
				c0.18,0.967,1.11,1.605,2.077,1.424c0.536-0.1,0.97-0.43,1.22-0.87C1526.629,619.713,1526.347,619.831,1526.038,619.888z"/>
		</g>
		<g>
			<path fill="#995D15" d="M1487.511,544.536c8.46-2.205,16.852-2.67,25.179-1.399c8.326,1.271,16.001,3.969,23.027,8.088
				c7.025,4.122,13.124,9.504,18.298,16.151c5.173,6.647,8.862,14.198,11.067,22.659l-11.783,3.071
				c-1.785-6.848-4.774-12.953-8.967-18.313c-4.193-5.36-9.126-9.703-14.796-13.029c-5.671-3.325-11.869-5.512-18.594-6.556
				c-6.725-1.044-13.512-0.674-20.36,1.111L1487.511,544.536z M1492.944,565.383c5.572-1.452,11.107-1.746,16.601-0.885
				c5.495,0.864,10.57,2.66,15.225,5.39c4.654,2.731,8.699,6.284,12.134,10.658c3.434,4.376,5.878,9.349,7.331,14.922l-11.985,3.123
				c-0.997-3.826-2.656-7.302-4.976-10.427c-2.319-3.122-5.215-5.702-8.685-7.738c-3.471-2.035-7.144-3.337-11.02-3.905
				c-3.876-0.566-7.727-0.351-11.555,0.646L1492.944,565.383z M1507.454,587.63c2.282-0.595,4.418-0.308,6.407,0.858
				c1.988,1.167,3.281,2.891,3.876,5.173c0.595,2.283,0.308,4.421-0.858,6.408c-1.167,1.99-2.892,3.281-5.174,3.876
				c-2.284,0.595-4.42,0.31-6.408-0.858c-1.989-1.165-3.281-2.891-3.876-5.174c-0.595-2.282-0.309-4.418,0.858-6.406
				C1503.445,589.518,1505.17,588.225,1507.454,587.63z"/>
		</g>
		<g>
			<path fill="#FFFFFF" d="M1487.511,541.751c8.46-2.205,16.852-2.67,25.179-1.399c8.326,1.271,16.001,3.969,23.027,8.088
				c7.025,4.122,13.124,9.504,18.298,16.151c5.173,6.647,8.862,14.198,11.067,22.659l-11.783,3.071
				c-1.785-6.848-4.774-12.953-8.967-18.313c-4.193-5.36-9.126-9.703-14.796-13.029c-5.671-3.325-11.869-5.512-18.594-6.556
				c-6.725-1.044-13.512-0.674-20.36,1.111L1487.511,541.751z M1492.944,562.598c5.572-1.452,11.107-1.746,16.601-0.885
				c5.495,0.864,10.57,2.66,15.225,5.39c4.654,2.731,8.699,6.284,12.134,10.658c3.434,4.376,5.878,9.349,7.331,14.922l-11.985,3.123
				c-0.997-3.826-2.656-7.302-4.976-10.427c-2.319-3.122-5.215-5.702-8.685-7.738c-3.471-2.035-7.144-3.337-11.02-3.905
				c-3.876-0.566-7.727-0.351-11.555,0.646L1492.944,562.598z M1507.454,584.845c2.282-0.595,4.418-0.308,6.407,0.858
				c1.988,1.167,3.281,2.891,3.876,5.173c0.595,2.283,0.308,4.421-0.858,6.408c-1.167,1.99-2.892,3.281-5.174,3.876
				c-2.284,0.595-4.42,0.31-6.408-0.858c-1.989-1.165-3.281-2.891-3.876-5.174c-0.595-2.282-0.309-4.418,0.858-6.406
				C1503.445,586.733,1505.17,585.44,1507.454,584.845z"/>
		</g>
	</g>
	<g>
		<circle fill="#D21717" cx="350.286" cy="888.048" r="97.059"/>
		<path fill="#AC1917" d="M351.103,790.989c42.982,15.11,73.798,56.053,73.798,104.201c0,32.667-14.189,62.016-36.734,82.235
			c34.781-14.759,59.177-49.223,59.177-89.387C447.345,834.706,404.331,791.429,351.103,790.989z"/>
		<g>
			<circle fill="#AC1917" cx="322.817" cy="958.67" r="11.642"/>
			<path fill="#9D1915" d="M325.393,967.534c-7.025-0.424-12.594-5.704-13.663-12.375c-0.282,0.894-0.474,1.831-0.533,2.81
				c-0.387,6.418,4.501,11.935,10.92,12.323c3.557,0.215,6.833-1.196,9.117-3.584C329.415,967.355,327.441,967.657,325.393,967.534z
				"/>
		</g>
		<g>
			<circle fill="#AC1917" cx="380.39" cy="945.989" r="9.054"/>
			<path fill="#9D1915" d="M384.889,951.583c-5.171,1.796-10.747-0.329-13.51-4.8c0.065,0.727,0.207,1.456,0.457,2.177
				c1.641,4.724,6.8,7.223,11.524,5.582c2.618-0.909,4.548-2.901,5.474-5.299C387.724,950.252,386.396,951.059,384.889,951.583z"/>
		</g>
		<g>
			<circle fill="#AC1917" cx="273.58" cy="895.759" r="6.016"/>
			<path fill="#9D1915" d="M276.569,899.476c-3.435,1.193-7.14-0.219-8.976-3.189c0.043,0.483,0.138,0.968,0.304,1.446
				c1.09,3.138,4.518,4.799,7.656,3.709c1.739-0.604,3.022-1.928,3.637-3.521C278.452,898.591,277.57,899.128,276.569,899.476z"/>
		</g>
		<g>
			<circle fill="#AC1917" cx="291.603" cy="850.379" r="12.003"/>
			<path fill="#9D1915" d="M292.518,859.852c-7.037-1.772-11.67-8.186-11.478-15.15c-0.457,0.852-0.83,1.765-1.077,2.745
				c-1.619,6.429,2.28,12.953,8.708,14.572c3.563,0.897,7.151,0.095,9.922-1.889C296.628,860.44,294.569,860.369,292.518,859.852z"
				/>
		</g>
		<g>
			<circle fill="#AC1917" cx="331.233" cy="840.637" r="5.955"/>
			<path fill="#9D1915" d="M331.687,845.337c-3.491-0.879-5.79-4.061-5.695-7.516c-0.227,0.423-0.412,0.875-0.534,1.362
				c-0.803,3.189,1.131,6.426,4.32,7.229c1.768,0.445,3.548,0.047,4.922-0.937C333.726,845.629,332.704,845.594,331.687,845.337z"/>
		</g>
		<g>
			<circle fill="#AC1917" cx="289.095" cy="936.932" r="3.741"/>
			<path fill="#9D1915" d="M288.697,939.871c-2.008-1.04-2.956-3.316-2.401-5.415c-0.199,0.226-0.378,0.476-0.523,0.756
				c-0.95,1.835-0.233,4.092,1.602,5.042c1.017,0.526,2.163,0.539,3.145,0.135C289.901,940.343,289.282,940.174,288.697,939.871z"/>
		</g>
		<g>
			<circle fill="#AC1917" cx="361.771" cy="815.739" r="11.507"/>
			<path fill="#9D1915" d="M364.612,824.409c-6.954-0.183-12.633-5.211-13.913-11.766c-0.249,0.893-0.407,1.825-0.432,2.793
				c-0.167,6.353,4.848,11.639,11.201,11.806c3.521,0.093,6.71-1.411,8.885-3.847C368.58,824.097,366.639,824.462,364.612,824.409z"
				/>
		</g>
		<g>
			<circle fill="#AC1917" cx="377.686" cy="847.004" r="7.613"/>
			<path fill="#9D1915" d="M381.169,851.934c-4.433,1.237-9.002-0.839-11.086-4.735c0.016,0.613,0.098,1.233,0.27,1.851
				c1.13,4.05,5.329,6.417,9.379,5.288c2.245-0.626,3.969-2.197,4.871-4.161C383.617,850.966,382.461,851.574,381.169,851.934z"/>
		</g>
		<g>
			<circle fill="#9D1915" cx="438.587" cy="876.464" r="6.666"/>
			<path fill="#891812" d="M438.86,881.742c-3.86-1.158-6.271-4.831-5.992-8.69c-0.275,0.461-0.504,0.958-0.666,1.496
				c-1.058,3.526,0.943,7.243,4.469,8.301c1.954,0.586,3.965,0.23,5.552-0.802C441.125,882.171,439.985,882.08,438.86,881.742z"/>
		</g>
		<g>
			<circle fill="#9D1915" cx="417.739" cy="832.165" r="3.608"/>
			<path fill="#891812" d="M416.838,834.88c-1.719-1.344-2.212-3.67-1.311-5.561c-0.229,0.179-0.443,0.384-0.63,0.623
				c-1.227,1.57-0.95,3.838,0.62,5.065c0.87,0.68,1.954,0.896,2.957,0.688C417.896,835.542,417.338,835.272,416.838,834.88z"/>
		</g>
		<g>
			<circle fill="#9D1915" cx="434.38" cy="912.738" r="4.206"/>
			<path fill="#891812" d="M436.305,915.462c-2.449,0.683-4.973-0.463-6.124-2.616c0.009,0.339,0.054,0.681,0.149,1.022
				c0.624,2.237,2.944,3.545,5.181,2.921c1.24-0.346,2.192-1.214,2.691-2.298C437.657,914.926,437.018,915.262,436.305,915.462z"/>
		</g>
		<path fill="#7D1710" d="M340.374,914.304l-2.679-9.531c0,0-6.023,5.74-14.327,5.086c-7.347-0.578-12.061-7.377-11.257-17.598
			c1.03-13.096,7.999-17.261,14.495-16.75c9.369,0.737,11.872,7.04,13.817,15.014l2.57,10.915
			c2.594,10.595,8.329,19.402,26.748,20.851c13.203,1.039,22.465-2.303,23.303-12.95c0.678-8.624-3.868-13.482-12.857-16.332
			l-6.697-2.027c-4.6-1.433-5.834-3.458-5.582-6.653c0.285-3.62,3.326-5.523,8.012-5.155c5.111,0.402,7.728,2.537,7.794,7.148
			l10.747-0.44c-0.098-9.649-6.389-14.108-17.249-14.962c-9.582-0.754-19.236,2.129-20.149,13.734
			c-0.57,7.24,2.584,12.095,11.252,14.92l7.107,2.273c5.329,1.705,6.963,4.083,6.72,7.171c-0.31,3.939-4.268,5.235-11.508,4.665
			c-10.754-0.846-14.781-6.841-16.725-14.814l-2.676-10.923c-3.382-14.193-10.114-19.865-24.275-20.979
			c-15.651-1.231-24.735,8.017-26.058,24.839c-1.273,16.184,6.345,25.567,21.251,26.74
			C334.18,919.494,340.374,914.304,340.374,914.304L340.374,914.304z"/>
		<path fill="#FFFFFF" d="M343.027,910.987l-2.679-9.531c0,0-6.023,5.74-14.327,5.086c-7.347-0.578-12.061-7.377-11.257-17.598
			c1.03-13.096,7.999-17.261,14.495-16.75c9.369,0.737,11.872,7.04,13.817,15.014l2.57,10.915
			c2.594,10.595,8.329,19.402,26.748,20.851c13.203,1.039,22.465-2.303,23.303-12.95c0.678-8.624-3.868-13.482-12.857-16.332
			l-6.697-2.027c-4.6-1.433-5.834-3.459-5.582-6.653c0.285-3.62,3.326-5.523,8.012-5.155c5.111,0.402,7.728,2.537,7.794,7.148
			l10.747-0.44c-0.098-9.649-6.389-14.108-17.249-14.962c-9.582-0.754-19.236,2.129-20.149,13.734
			c-0.57,7.24,2.584,12.095,11.252,14.92l7.107,2.273c5.329,1.705,6.963,4.083,6.72,7.171c-0.31,3.939-4.268,5.235-11.508,4.665
			c-10.754-0.846-14.781-6.841-16.725-14.814l-2.676-10.923c-3.382-14.193-10.114-19.865-24.275-20.979
			c-15.651-1.231-24.735,8.017-26.058,24.839c-1.273,16.184,6.345,25.567,21.251,26.74
			C336.833,916.178,343.027,910.987,343.027,910.987L343.027,910.987z"/>
	</g>
	<g>
		<circle fill="#96191E" cx="1023.091" cy="91.839" r="91.839"/>
		<path fill="#7B1619" d="M1093.315,32.659c1.625,8.166,2.483,16.609,2.483,25.252c0,58.567-39.118,107.992-92.65,123.589
			c6.422,1.422,13.094,2.178,19.943,2.178c50.721,0,91.839-41.118,91.839-91.839C1114.931,69.29,1106.799,48.643,1093.315,32.659z"
			/>
		<g>
			<circle fill="#7B1619" cx="963.959" cy="70.435" r="12.514"/>
			<path fill="#701517" d="M964.913,80.311c-7.336-1.848-12.166-8.534-11.966-15.794c-0.477,0.888-0.865,1.84-1.123,2.862
				c-1.688,6.702,2.377,13.503,9.078,15.191c3.714,0.936,7.456,0.099,10.344-1.969C969.197,80.923,967.052,80.849,964.913,80.311z"
				/>
		</g>
		<g>
			<circle fill="#7B1619" cx="1058.862" cy="37.958" r="6.862"/>
			<path fill="#701517" d="M1060.656,43.095c-4.148-0.029-7.592-2.961-8.431-6.855c-0.138,0.535-0.221,1.093-0.225,1.671
				c-0.026,3.79,3.025,6.884,6.814,6.91c2.101,0.015,3.984-0.918,5.254-2.396C1063.018,42.863,1061.866,43.103,1060.656,43.095z"/>
		</g>
		<g>
			<circle fill="#7B1619" cx="981.299" cy="138.336" r="10.255"/>
			<path fill="#701517" d="M983.981,146.012c-6.199-0.043-11.345-4.425-12.599-10.243c-0.206,0.8-0.331,1.633-0.337,2.496
				c-0.039,5.663,4.52,10.286,10.183,10.326c3.139,0.022,5.954-1.372,7.851-3.581C987.51,145.666,985.788,146.024,983.981,146.012z"
				/>
		</g>
		<g>
			<circle fill="#7B1619" cx="1007.872" cy="30.464" r="8.768"/>
			<path fill="#701517" d="M1010.164,37.027c-5.3-0.037-9.7-3.784-10.773-8.758c-0.177,0.684-0.283,1.396-0.288,2.134
				c-0.034,4.842,3.865,8.795,8.707,8.829c2.684,0.019,5.091-1.174,6.712-3.062C1013.182,36.731,1011.709,37.037,1010.164,37.027z"
				/>
		</g>
		<g>
			<circle fill="#7B1619" cx="1062.143" cy="113.544" r="7.395"/>
			<path fill="#701517" d="M1059.715,118.881c-3.21-3.112-3.708-7.96-1.463-11.618c-0.506,0.314-0.986,0.686-1.42,1.133
				c-2.843,2.932-2.77,7.614,0.162,10.457c1.625,1.576,3.787,2.252,5.876,2.046C1061.728,120.459,1060.651,119.788,1059.715,118.881
				z"/>
		</g>
		<g>
			<circle fill="#7B1619" cx="1027.349" cy="140.616" r="5.844"/>
			<path fill="#701517" d="M1027.182,145.246c-3.282-1.307-5.106-4.699-4.567-8.048c-0.275,0.382-0.514,0.798-0.696,1.255
				c-1.194,2.998,0.269,6.397,3.267,7.591c1.662,0.662,3.445,0.505,4.909-0.275C1029.127,145.793,1028.139,145.627,1027.182,145.246
				z"/>
		</g>
		<g>
			<circle fill="#7B1619" cx="957.579" cy="111.108" r="4.959"/>
			<path fill="#701517" d="M955.951,114.687c-2.153-2.087-2.487-5.338-0.981-7.791c-0.339,0.211-0.661,0.46-0.952,0.76
				c-1.906,1.967-1.858,5.106,0.109,7.013c1.09,1.057,2.54,1.51,3.941,1.372C957.301,115.746,956.578,115.296,955.951,114.687z"/>
		</g>
		<g>
			<circle fill="#701517" cx="1106.55" cy="86.327" r="5.287"/>
			<path fill="#621315" d="M1104.814,90.143c-2.295-2.225-2.651-5.692-1.046-8.307c-0.362,0.225-0.705,0.491-1.015,0.81
				c-2.033,2.097-1.981,5.444,0.116,7.477c1.162,1.127,2.708,1.61,4.202,1.463C1106.253,91.272,1105.483,90.792,1104.814,90.143z"/>
		</g>
		<g>
			<circle fill="#701517" cx="1090.21" cy="132.997" r="7.619"/>
			<path fill="#621315" d="M1089.444,138.989c-4.106-2.086-6.072-6.707-4.974-10.991c-0.403,0.463-0.762,0.976-1.052,1.547
				c-1.906,3.751-0.41,8.337,3.341,10.243c2.079,1.056,4.413,1.064,6.407,0.226C1091.905,139.93,1090.641,139.597,1089.444,138.989z
				"/>
		</g>
		<path fill="#591114" d="M1021.863,52.983c-22.235,0-33.447,15.942-33.447,29.236c0,8.049,3.047,15.21,9.584,17.879
			c1.072,0.438,2.032,0.015,2.343-1.172c0.216-0.822,0.728-2.894,0.956-3.756c0.313-1.174,0.192-1.585-0.673-2.609
			c-1.885-2.223-3.089-5.101-3.089-9.178c0-11.827,8.849-22.415,23.042-22.415c12.568,0,19.473,7.679,19.473,17.935
			c0,13.494-5.972,24.883-14.838,24.883c-4.896,0-8.561-4.049-7.386-9.015c1.407-5.929,4.131-12.327,4.131-16.607
			c0-3.831-2.056-7.026-6.312-7.026c-5.005,0-9.025,5.178-9.025,12.114c0,4.417,1.493,7.405,1.493,7.405s-5.122,21.701-6.02,25.502
			c-1.788,7.569-0.269,16.848-0.14,17.785c0.075,0.556,0.789,0.688,1.112,0.267c0.461-0.603,6.423-7.962,8.449-15.315
			c0.573-2.082,3.292-12.864,3.292-12.864c1.626,3.102,6.378,5.833,11.432,5.833c15.045,0,25.251-13.716,25.251-32.074
			C1051.491,65.912,1039.733,52.983,1021.863,52.983z"/>
		<path fill="#FFFFFF" d="M1025.001,51.1c-22.235,0-33.447,15.942-33.447,29.236c0,8.049,3.047,15.21,9.584,17.879
			c1.072,0.438,2.032,0.015,2.343-1.172c0.216-0.822,0.728-2.894,0.956-3.756c0.313-1.174,0.192-1.585-0.673-2.609
			c-1.885-2.223-3.089-5.101-3.089-9.178c0-11.827,8.849-22.415,23.042-22.415c12.568,0,19.473,7.679,19.473,17.935
			c0,13.494-5.972,24.883-14.837,24.883c-4.896,0-8.561-4.049-7.386-9.015c1.407-5.929,4.131-12.327,4.131-16.607
			c0-3.831-2.056-7.026-6.312-7.026c-5.005,0-9.025,5.178-9.025,12.114c0,4.417,1.493,7.405,1.493,7.405s-5.122,21.701-6.02,25.502
			c-1.788,7.569-0.269,16.848-0.14,17.785c0.075,0.556,0.789,0.688,1.112,0.267c0.461-0.603,6.423-7.962,8.449-15.315
			c0.573-2.082,3.292-12.864,3.292-12.864c1.626,3.102,6.378,5.833,11.432,5.833c15.045,0,25.251-13.716,25.251-32.074
			C1054.629,64.029,1042.871,51.1,1025.001,51.1z"/>
	</g>
	<g>
		<circle fill="#E84D18" cx="595.623" cy="1531.178" r="105.099"/>
		<path fill="#CA3E17" d="M595.623,1426.079c-2.216,0-4.415,0.077-6.597,0.212c51.861,17.923,89.111,67.171,89.111,125.125
			c0,21.432-5.1,41.67-14.143,59.578c22.481-19.276,36.728-47.88,36.728-79.816C700.722,1473.133,653.668,1426.079,595.623,1426.079
			z"/>
		<g>
			<circle fill="#CA3E17" cx="617.164" cy="1471.15" r="11.123"/>
			<path fill="#A13216" d="M619.624,1479.619c-6.712-0.405-12.033-5.449-13.054-11.824c-0.27,0.854-0.453,1.75-0.509,2.685
				c-0.37,6.132,4.301,11.403,10.433,11.773c3.399,0.205,6.529-1.142,8.71-3.425
				C623.467,1479.448,621.581,1479.737,619.624,1479.619z"/>
		</g>
		<g>
			<circle fill="#CA3E17" cx="566.525" cy="1441.149" r="5.767"/>
			<path fill="#A13216" d="M567.801,1445.54c-3.48-0.21-6.239-2.825-6.768-6.13c-0.14,0.443-0.235,0.907-0.264,1.392
				c-0.192,3.179,2.23,5.912,5.409,6.104c1.762,0.106,3.385-0.592,4.516-1.776C569.793,1445.451,568.815,1445.601,567.801,1445.54z"
				/>
		</g>
		<g>
			<circle fill="#CA3E17" cx="553.372" cy="1494.538" r="18.915"/>
			<path fill="#A13216" d="M563.58,1505.526c-10.507,4.512-22.444,0.913-28.865-7.992c0.243,1.504,0.649,3.004,1.277,4.468
				c4.122,9.599,15.245,14.039,24.844,9.917c5.32-2.284,9.046-6.722,10.618-11.857
				C569.288,1502.331,566.643,1504.211,563.58,1505.526z"/>
		</g>
		<g>
			<circle fill="#CA3E17" cx="515.922" cy="1531.178" r="5.324"/>
			<path fill="#A13216" d="M516.802,1535.307c-3.19-0.427-5.554-3.021-5.82-6.1c-0.159,0.398-0.277,0.819-0.337,1.264
				c-0.391,2.914,1.656,5.594,4.57,5.984c1.615,0.216,3.156-0.318,4.278-1.331C518.642,1535.359,517.731,1535.431,516.802,1535.307z
				"/>
		</g>
		<g>
			<circle fill="#CA3E17" cx="557.212" cy="1605.527" r="6.489"/>
			<path fill="#A13216" d="M559.472,1610.15c-3.899,0.437-7.46-1.931-8.684-5.493c-0.07,0.518-0.086,1.051-0.025,1.594
				c0.399,3.562,3.61,6.125,7.172,5.726c1.974-0.221,3.639-1.308,4.665-2.838C561.664,1609.668,560.608,1610.022,559.472,1610.15z"
				/>
		</g>
		<g>
			<circle fill="#CA3E17" cx="598.492" cy="1589.092" r="9.519"/>
			<path fill="#A13216" d="M598.446,1596.793c-5.182-2.031-8.085-7.361-7.264-12.642c-0.43,0.604-0.803,1.262-1.086,1.984
				c-1.856,4.734,0.478,10.077,5.212,11.933c2.624,1.029,5.432,0.766,7.733-0.475
				C601.516,1597.639,599.956,1597.385,598.446,1596.793z"/>
		</g>
		<g>
			<circle fill="#CA3E17" cx="635.997" cy="1601.941" r="13"/>
			<path fill="#A13216" d="M638.702,1611.887c-7.835-0.609-13.951-6.61-15.017-14.079c-0.333,0.993-0.564,2.035-0.649,3.127
				c-0.556,7.158,4.796,13.412,11.954,13.968c3.967,0.308,7.652-1.203,10.247-3.826
				C643.196,1611.765,640.986,1612.065,638.702,1611.887z"/>
		</g>
		<g>
			<circle fill="#CA3E17" cx="660.348" cy="1555.59" r="7.77"/>
			<path fill="#A13216" d="M665.073,1559.543c-4.05,2.379-9.1,1.525-12.174-1.774c0.176,0.601,0.419,1.191,0.75,1.755
				c2.173,3.7,6.934,4.938,10.635,2.766c2.051-1.204,3.341-3.204,3.718-5.378C667.235,1557.948,666.253,1558.85,665.073,1559.543z"
				/>
		</g>
		<path fill="#942E14" d="M528.095,1568.743c-0.262,0.108-0.385,0.396-0.3,0.699l1.966,7.343l3.75,6.464
			c0.153,0.275,0.444,0.39,0.706,0.281c0.253-0.105,0.377-0.39,0.299-0.694l0,0l-0.001-0.001c0,0,0,0,0.001,0.001l-1.747-7.296
			l-3.97-6.515C528.64,1568.754,528.347,1568.638,528.095,1568.743z M531.676,1562.804c-0.167-0.281-0.467-0.399-0.731-0.29
			c-0.266,0.11-0.397,0.414-0.312,0.722c0.001,0.003,3.428,11.77,3.428,11.77l5.79,10.5c0.157,0.281,0.465,0.403,0.732,0.292
			c0.263-0.109,0.391-0.405,0.311-0.721l-3.156-11.593L531.676,1562.804z M546.797,1544.379c-0.506,0.209-0.752,0.796-0.559,1.332
			l7.593,21.121l6.523,12.981c0.242,0.513,0.83,0.753,1.335,0.543c0.503-0.208,0.748-0.795,0.561-1.331l0.002,0.004l-4.432-13.848
			l-9.684-20.256C547.888,1544.412,547.3,1544.171,546.797,1544.379z M539.726,1555.739c-0.388,0.161-0.577,0.602-0.436,1.029
			l4.576,14.183l6.602,12.822c0.2,0.399,0.646,0.577,1.035,0.417c0.384-0.159,0.573-0.6,0.436-1.026l-4.24-13.799l-6.939-13.208
			C540.556,1555.759,540.111,1555.58,539.726,1555.739z M571.904,1576.127c0.627-0.26,0.927-0.976,0.685-1.634l-4.486-13.56
			l-12.377-27.181c-0.294-0.637-1.012-0.931-1.639-0.672c-0.632,0.262-0.934,0.98-0.686,1.636
			c0.001,0.001,10.562,27.93,10.562,27.93l6.304,12.814C570.552,1576.093,571.273,1576.388,571.904,1576.127z M592.842,1567.532
			c0.863-0.357,1.281-1.362,0.935-2.243l0.004,0.01l-0.004-0.01l-4.621-13.062l-13.856-31.574c-0.376-0.866-1.384-1.283-2.247-0.926
			c-0.864,0.358-1.283,1.364-0.935,2.244l12.58,32.088c0.008,0.02,5.9,12.555,5.9,12.555
			C590.97,1567.475,591.979,1567.89,592.842,1567.532z M582.285,1571.844c0.751-0.311,1.107-1.164,0.809-1.941l0.004,0.009
			l-4.549-13.301l-12.317-27.44c-0.338-0.76-1.193-1.111-1.944-0.8c-0.756,0.313-1.113,1.165-0.811,1.94l10.773,28.081l6.093,12.658
			C580.674,1571.805,581.529,1572.157,582.285,1571.844z M556.599,1582.334c0.446-0.185,0.66-0.692,0.499-1.176l-4.359-13.88
			l-6.456-12.247c-0.227-0.457-0.735-0.662-1.183-0.477c-0.453,0.188-0.666,0.694-0.499,1.179l4.228,13.163l6.584,12.957
			C555.638,1582.313,556.146,1582.522,556.599,1582.334z M546.324,1585.729c0.326-0.135,0.484-0.502,0.374-0.874l-3.999-13.424
			l-6.858-12.809c-0.187-0.341-0.558-0.489-0.884-0.354c-0.33,0.137-0.487,0.505-0.374,0.875c0.001,0.001,4.359,13.843,4.359,13.843
			l6.498,12.386C545.62,1585.716,545.992,1585.866,546.324,1585.729z M569.913,1527.106c-0.816,0.338-1.201,1.257-0.874,2.094
			l10.416,27.039l5.994,12.604c0.356,0.813,1.276,1.192,2.094,0.853c0.814-0.337,1.196-1.253,0.871-2.092l0.005,0.011l-4.587-13.187
			l-11.825-26.461C571.646,1527.149,570.728,1526.769,569.913,1527.106z M566.789,1578.276c0.564-0.233,0.838-0.886,0.623-1.483
			l-4.469-13.727l-11.572-25.024c-0.272-0.576-0.925-0.843-1.489-0.609c-0.569,0.235-0.842,0.887-0.624,1.484
			c0.001,0.001,9.619,25.832,9.619,25.832l6.425,12.923C565.566,1578.243,566.22,1578.511,566.789,1578.276z M577.832,1572.234
			l-0.003-0.007l-4.524-13.447l-12.691-28.14c-0.315-0.699-1.103-1.023-1.792-0.738c-0.693,0.287-1.022,1.072-0.747,1.789
			l11.01,28.834l6.208,12.757c0.309,0.693,1.097,1.016,1.788,0.73c0.69-0.286,1.016-1.07,0.747-1.785L577.832,1572.234z
			 M632.917,1514.856c-2.113,0.875-3.951,2.136-5.469,3.666c-6.98-13.39-23.147-19.468-37.364-13.583
			c-3.479,1.44-6.586,3.528-9.101,5.926c-0.977,0.932-1.095,1.524-0.734,2.428l20.259,48.943c0.403,0.939,1.46,1.422,2.42,1.134
			c0.041-0.012,42.48-17.554,42.755-17.668c8.516-3.525,12.562-13.288,9.037-21.805S641.433,1511.331,632.917,1514.856z
			 M577.079,1514.555c-0.926,0.383-1.372,1.459-0.999,2.399l13.684,35.026l5.916,12.319c0.393,0.916,1.468,1.36,2.394,0.977
			c0.924-0.382,1.37-1.456,0.996-2.396l0.006,0.015l-4.463-12.922l-15.137-34.428
			C579.078,1514.619,578.003,1514.173,577.079,1514.555z"/>
		<path fill="#FFFFFF" d="M530.968,1562.997c-0.262,0.108-0.385,0.396-0.3,0.699l1.966,7.343l3.75,6.464
			c0.153,0.275,0.444,0.39,0.706,0.281c0.253-0.105,0.377-0.39,0.299-0.694l0,0l-0.001-0.001c0,0,0,0,0.001,0.001l-1.747-7.296
			l-3.97-6.515C531.513,1563.008,531.22,1562.893,530.968,1562.997z M534.549,1557.058c-0.167-0.281-0.467-0.399-0.731-0.29
			c-0.266,0.11-0.397,0.414-0.312,0.722c0.001,0.003,3.428,11.77,3.428,11.77l5.79,10.5c0.157,0.281,0.465,0.403,0.732,0.292
			c0.263-0.109,0.391-0.405,0.311-0.721l-3.156-11.593L534.549,1557.058z M549.67,1538.633c-0.506,0.209-0.752,0.796-0.559,1.332
			l7.593,21.121l6.523,12.981c0.242,0.513,0.83,0.753,1.335,0.543c0.503-0.208,0.748-0.795,0.561-1.331l0.002,0.004l-4.432-13.848
			l-9.684-20.256C550.761,1538.666,550.173,1538.425,549.67,1538.633z M542.599,1549.994c-0.388,0.161-0.577,0.602-0.436,1.029
			l4.576,14.183l6.602,12.822c0.2,0.399,0.646,0.577,1.035,0.417c0.384-0.159,0.573-0.6,0.436-1.026l-4.24-13.799l-6.939-13.208
			C543.429,1550.014,542.983,1549.835,542.599,1549.994z M574.777,1570.381c0.627-0.26,0.927-0.976,0.685-1.634l-4.486-13.56
			l-12.377-27.181c-0.294-0.637-1.012-0.931-1.639-0.672c-0.632,0.262-0.934,0.98-0.686,1.636
			c0.001,0.001,10.562,27.93,10.562,27.93l6.304,12.814C573.425,1570.347,574.146,1570.642,574.777,1570.381z M595.714,1561.787
			c0.863-0.357,1.281-1.362,0.935-2.243l0.004,0.009l-0.004-0.009l-4.621-13.062l-13.856-31.574
			c-0.376-0.866-1.384-1.283-2.247-0.926c-0.864,0.358-1.283,1.364-0.935,2.244l12.58,32.088c0.008,0.02,5.9,12.555,5.9,12.555
			C593.843,1561.729,594.852,1562.144,595.714,1561.787z M585.158,1566.098c0.751-0.311,1.107-1.164,0.809-1.941l0.004,0.01
			l-4.549-13.301l-12.317-27.44c-0.338-0.76-1.193-1.111-1.944-0.8c-0.756,0.313-1.113,1.165-0.811,1.94l10.773,28.081l6.093,12.658
			C583.547,1566.059,584.402,1566.411,585.158,1566.098z M559.472,1576.589c0.446-0.185,0.66-0.692,0.499-1.176l-4.359-13.88
			l-6.456-12.247c-0.227-0.457-0.735-0.662-1.183-0.477c-0.453,0.188-0.666,0.694-0.499,1.179l4.228,13.163l6.584,12.957
			C558.511,1576.568,559.019,1576.776,559.472,1576.589z M549.196,1579.983c0.326-0.135,0.484-0.502,0.374-0.874l-3.999-13.424
			l-6.858-12.809c-0.187-0.341-0.558-0.489-0.884-0.354c-0.33,0.137-0.487,0.505-0.374,0.875c0.001,0.001,4.359,13.843,4.359,13.843
			l6.498,12.386C548.493,1579.971,548.865,1580.12,549.196,1579.983z M572.786,1521.361c-0.816,0.338-1.201,1.257-0.874,2.094
			l10.416,27.039l5.994,12.604c0.356,0.813,1.277,1.191,2.094,0.853c0.814-0.337,1.196-1.253,0.871-2.092l0.004,0.011l-4.587-13.187
			l-11.825-26.461C574.519,1521.403,573.601,1521.023,572.786,1521.361z M569.662,1572.53c0.564-0.233,0.838-0.886,0.623-1.483
			l-4.469-13.727l-11.572-25.024c-0.272-0.576-0.925-0.843-1.489-0.609c-0.569,0.235-0.842,0.887-0.624,1.484
			c0.001,0.001,9.619,25.832,9.619,25.832l6.425,12.923C568.439,1572.498,569.093,1572.766,569.662,1572.53z M580.705,1566.488
			l-0.003-0.007l-4.524-13.447l-12.691-28.14c-0.315-0.699-1.103-1.023-1.792-0.738c-0.693,0.287-1.022,1.072-0.747,1.789
			l11.01,28.834l6.208,12.757c0.309,0.693,1.097,1.016,1.788,0.73c0.69-0.286,1.016-1.07,0.747-1.785L580.705,1566.488z
			 M635.79,1509.111c-2.113,0.875-3.952,2.136-5.469,3.666c-6.98-13.39-23.147-19.468-37.364-13.583
			c-3.479,1.44-6.586,3.529-9.101,5.926c-0.977,0.932-1.095,1.524-0.734,2.428l20.259,48.943c0.403,0.939,1.46,1.422,2.42,1.134
			c0.041-0.012,42.48-17.554,42.755-17.668c8.516-3.525,12.562-13.288,9.037-21.805
			C654.068,1509.634,644.306,1505.586,635.79,1509.111z M579.952,1508.81c-0.926,0.383-1.372,1.459-0.999,2.399l13.684,35.026
			l5.916,12.319c0.393,0.916,1.468,1.36,2.394,0.977c0.924-0.382,1.37-1.456,0.996-2.396l0.006,0.015l-4.463-12.922l-15.137-34.428
			C581.951,1508.873,580.876,1508.427,579.952,1508.81z"/>
		<path fill="none" stroke="#F6A03A" stroke-width="30" stroke-miterlimit="10" d="M660.348,1465.054
			c42.796-7.378,83.778-6.392,91.771,11.134c13.826,30.316-48.401,88.382-138.987,129.695s-175.229,50.228-189.054,19.912
			c-9.692-21.252,25.061-59.79,73.688-92.985"/>
		<path fill="none" stroke="#F18718" stroke-width="30" stroke-miterlimit="10" d="M660.348,1460.026
			c42.796-7.378,83.778-6.392,91.771,11.134c13.826,30.316-48.401,88.382-138.987,129.695
			c-90.586,41.313-175.229,50.228-189.054,19.912c-9.692-21.252,25.061-59.79,73.688-92.985"/>
		<path fill="#E84D18" d="M505.008,1477.911c-9.202,15.62-14.484,33.826-14.484,53.267c0,12.907,2.332,25.269,6.589,36.693h7.896
			V1477.911z"/>
		<path fill="#CA3E17" d="M696.448,1501.442c-12.828-43.562-53.11-75.363-100.825-75.363c-2.216,0-4.415,0.077-6.597,0.212
			c36.036,12.454,65.013,40.036,79.344,75.151H696.448z"/>
	</g>
	<g>
		<circle fill="#3C5A9C" cx="262.858" cy="268.646" r="146.333"/>
		<g>
			<path fill="#304A80" d="M379.88,180.779c0.163,3.324,0.25,6.667,0.25,10.031c0,109.474-87.52,198.499-196.407,200.942
				c22.816,14.697,49.979,23.227,79.135,23.227c80.818,0,146.333-65.516,146.333-146.333
				C409.192,235.672,398.282,205.248,379.88,180.779z"/>
		</g>
		<g>
			<circle fill="#304A80" cx="168.328" cy="258.192" r="20.536"/>
			<path fill="#2C4374" d="M173.805,273.525c-12.415,0-22.781-8.704-25.373-20.338c-0.402,1.605-0.64,3.275-0.64,5.004
				c0,11.342,9.194,20.536,20.536,20.536c6.286,0,11.904-2.831,15.671-7.28C180.868,272.783,177.424,273.525,173.805,273.525z"/>
		</g>
		<g>
			<circle fill="#304A80" cx="211.005" cy="349.01" r="13.649"/>
			<path fill="#2C4374" d="M214.025,359.403c-8.237-0.497-14.765-6.687-16.019-14.509c-0.331,1.048-0.556,2.147-0.625,3.294
				c-0.454,7.525,5.277,13.993,12.802,14.447c4.17,0.252,8.011-1.402,10.689-4.202C218.741,359.193,216.425,359.548,214.025,359.403
				z"/>
		</g>
		<g>
			<circle fill="#304A80" cx="328.358" cy="163.656" r="9.374"/>
			<path fill="#2C4374" d="M327.752,171.063c-5.163-2.335-7.838-7.906-6.727-13.232c-0.469,0.592-0.882,1.242-1.207,1.961
				c-2.134,4.717-0.039,10.271,4.678,12.404c2.614,1.182,5.484,1.062,7.887-0.08C330.829,172.083,329.257,171.744,327.752,171.063z"
				/>
		</g>
		<g>
			<circle fill="#304A80" cx="320.172" cy="294.9" r="15.898"/>
			<path fill="#2C4374" d="M323.092,307.162c-9.553-1.048-16.796-8.621-17.808-17.792c-0.445,1.201-0.769,2.466-0.915,3.797
				c-0.958,8.728,5.342,16.579,14.069,17.537c4.837,0.531,9.4-1.174,12.674-4.279C328.59,307.187,325.877,307.468,323.092,307.162z"
				/>
		</g>
		<g>
			<circle fill="#2C4374" cx="352.13" cy="343.893" r="5.601"/>
			<path fill="#263B65" d="M350.468,348.011c-2.531-2.249-3.067-5.902-1.487-8.743c-0.373,0.254-0.724,0.552-1.037,0.904
				c-2.055,2.312-1.847,5.852,0.465,7.907c1.281,1.139,2.94,1.58,4.514,1.355C352.042,349.14,351.206,348.667,350.468,348.011z"/>
		</g>
		<g>
			<circle fill="#304A80" cx="311.284" cy="215.46" r="4.409"/>
			<path fill="#2C4374" d="M311.863,218.907c-2.624-0.468-4.486-2.699-4.595-5.255c-0.146,0.324-0.259,0.668-0.324,1.033
				c-0.428,2.397,1.169,4.687,3.566,5.115c1.328,0.237,2.623-0.149,3.586-0.948C313.383,219.016,312.628,219.043,311.863,218.907z"
				/>
		</g>
		<g>
			<circle fill="#304A80" cx="183.723" cy="180.779" r="13.215"/>
			<path fill="#2C4374" d="M188.618,190.042c-7.907,1.14-15.309-3.452-18.028-10.624c-0.109,1.059-0.107,2.144,0.052,3.246
				c1.041,7.224,7.741,12.236,14.965,11.195c4.004-0.577,7.322-2.896,9.313-6.075C193.049,188.921,190.923,189.71,188.618,190.042z"
				/>
		</g>
		<g>
			<path fill="#1D2D4D" d="M243.477,253.633l-2.909-15.201c-1.069-5.589-1.113-11.014-0.124-16.275
				c0.984-5.255,2.794-9.995,5.43-14.213c2.632-4.212,5.978-7.8,10.032-10.748c4.052-2.948,8.611-4.908,13.678-5.878l24.634-4.714
				l5.766,30.136l-24.634,4.714c-1.4,0.268-2.575,1.445-3.535,3.528c-0.959,2.086-1.188,4.44-0.686,7.061l3.009,15.723l30.661-5.867
				l5.866,30.658l-30.661,5.867l14.241,74.424l-30.661,5.867l-14.241-74.424l-24.632,4.713l-5.866-30.658L243.477,253.633z"/>
		</g>
		<g>
			<path fill="#FFFFFF" d="M239.438,250.891l-2.909-15.201c-1.069-5.589-1.113-11.014-0.124-16.275
				c0.984-5.255,2.794-9.995,5.43-14.213c2.632-4.212,5.978-7.8,10.032-10.748c4.052-2.948,8.611-4.908,13.678-5.878l24.634-4.714
				l5.766,30.136l-24.634,4.714c-1.4,0.268-2.575,1.445-3.535,3.528c-0.959,2.086-1.188,4.44-0.686,7.061l3.009,15.723l30.661-5.867
				l5.866,30.658l-30.661,5.867l14.241,74.424l-30.661,5.867l-14.241-74.424l-24.632,4.713l-5.866-30.658L239.438,250.891z"/>
		</g>
		<path fill="none" stroke="#3E789C" stroke-width="3" stroke-miterlimit="10" d="M122.63,304.9
			c-37.256,22.238-65.932,44.194-61.417,56.496c8.348,22.744,101.414,9.506,207.867-29.568s185.983-89.188,177.635-111.933
			c-3.953-10.77-29.38-13.225-63.751-8.935"/>
		<path fill="none" stroke="#3E789C" stroke-width="3" stroke-miterlimit="10" d="M122.63,294.9
			c-37.256,22.238-65.932,44.194-61.417,56.496c8.348,22.744,101.414,9.506,207.867-29.568s185.983-89.188,177.635-111.933
			c-3.953-10.77-29.38-13.225-63.751-8.935"/>
		<path fill="none" stroke="#ACD1F0" stroke-width="3" stroke-miterlimit="10" d="M122.63,292.9
			c-37.256,22.238-65.932,44.194-61.417,56.496c8.348,22.744,101.414,9.506,207.867-29.568s185.983-89.188,177.635-111.933
			c-3.953-10.77-29.38-13.225-63.751-8.935"/>
		<path fill="none" stroke="#ACD1F0" stroke-width="3" stroke-miterlimit="10" d="M122.63,302.9
			c-37.256,22.238-65.932,44.194-61.417,56.496c8.348,22.744,101.414,9.506,207.867-29.568s185.983-89.188,177.635-111.933
			c-3.953-10.77-29.38-13.225-63.751-8.935"/>
		<path fill="#304A80" d="M374.627,237.655h31.269c-4.527-20.986-13.549-40.299-26.016-56.877c0.163,3.324,0.25,6.667,0.25,10.031
			C380.13,206.942,378.216,222.624,374.627,237.655z"/>
		<path fill="#3C5A9C" d="M126.63,215.108c-6.522,16.582-10.105,34.641-10.105,53.538c0,14.897,2.233,29.271,6.37,42.814h3.735
			V215.108z"/>
	</g>
</g>
</svg>
