<?xml version="1.0" encoding="utf-8"?>
<!-- Generator: Adobe Illustrator 17.0.0, SVG Export Plug-In . SVG Version: 6.00 Build 0)  -->
<!DOCTYPE svg PUBLIC "-//W3C//DTD SVG 1.1//EN" "http://www.w3.org/Graphics/SVG/1.1/DTD/svg11.dtd">
<svg version="1.1" id="Calque_1" xmlns="http://www.w3.org/2000/svg" xmlns:xlink="http://www.w3.org/1999/xlink" x="0px" y="0px"
	 width="490.856px" height="490.856px" viewBox="0 0 490.856 490.856" enable-background="new 0 0 490.856 490.856"
	 xml:space="preserve">
<g>
	<circle fill="#E62E37" cx="245.428" cy="245.428" r="245.428"/>
	<path fill="#D01A27" d="M429.126,82.748c1.444,12.286,2.271,24.761,2.271,37.435c0,175.372-142.167,317.538-317.539,317.538
		c-7.372,0-14.66-0.342-21.907-0.837c42.036,33.741,95.38,53.971,153.477,53.971c135.546,0,245.428-109.881,245.428-245.428
		C490.856,183.004,467.51,126.06,429.126,82.748z"/>
	<g>
		<circle fill="#D01A27" cx="171.531" cy="131.793" r="47.441"/>
		<path fill="#BD1824" d="M184.182,167.216c-28.68,0-52.627-20.107-58.615-46.982c-0.929,3.707-1.478,7.565-1.478,11.56
			c0,26.201,21.24,47.441,47.441,47.441c14.521,0,27.5-6.541,36.202-16.818C200.499,165.501,192.542,167.216,184.182,167.216z"/>
	</g>
	<g>
		<circle fill="#BD1824" cx="281.599" cy="450.861" r="18.373"/>
		<path fill="#A41920" d="M281.286,465.425c-10.377-3.96-16.266-14.542-14.722-25.093c-0.848,1.213-1.579,2.533-2.131,3.979
			c-3.617,9.481,1.135,20.099,10.616,23.716c5.254,2.005,10.854,1.43,15.422-1.087C287.427,467.058,284.31,466.579,281.286,465.425z
			"/>
	</g>
	<g>
		<circle fill="#BD1824" cx="376.463" cy="375.271" r="23.178"/>
		<path fill="#A41920" d="M385.651,391.187c-13.784,2.516-27.058-5.048-32.293-17.44c-0.122,1.863-0.047,3.765,0.304,5.686
			c2.298,12.593,14.37,20.939,26.963,18.64c6.979-1.274,12.644-5.556,15.925-11.259
			C393.343,388.931,389.669,390.454,385.651,391.187z"/>
	</g>
	<g>
		<circle fill="#BD1824" cx="465.849" cy="193.14" r="12.75"/>
		<path fill="#A41920" d="M465.101,203.221c-7.047-3.123-10.741-10.671-9.286-17.926c-0.632,0.81-1.187,1.698-1.622,2.679
			c-2.853,6.438,0.053,13.969,6.491,16.822c3.568,1.581,7.469,1.387,10.726-0.19C469.297,204.576,467.155,204.131,465.101,203.221z"
			/>
	</g>
	<g>
		<circle fill="#BD1824" cx="471.94" cy="226.599" r="7.034"/>
		<path fill="#A41920" d="M471.527,232.161c-3.888-1.723-5.926-5.887-5.124-9.89c-0.349,0.447-0.655,0.937-0.895,1.478
			c-1.574,3.552,0.029,7.707,3.581,9.281c1.969,0.872,4.121,0.765,5.918-0.105C473.842,232.909,472.66,232.664,471.527,232.161z"/>
	</g>
	<g>
		<circle fill="#BD1824" cx="352.463" cy="434.902" r="10.284"/>
		<path fill="#A41920" d="M356.539,441.963c-6.116,1.116-12.005-2.24-14.328-7.738c-0.054,0.827-0.021,1.671,0.135,2.523
			c1.02,5.587,6.376,9.29,11.963,8.27c3.097-0.565,5.61-2.465,7.066-4.995C359.952,440.962,358.322,441.638,356.539,441.963z"/>
	</g>
	<g>
		<circle fill="#D01A27" cx="158.321" cy="374.691" r="27.199"/>
		<path fill="#BD1824" d="M164.338,395.4c-16.413-0.991-29.423-13.325-31.922-28.913c-0.66,2.089-1.107,4.278-1.245,6.564
			c-0.905,14.995,10.517,27.884,25.511,28.789c8.31,0.502,15.964-2.793,21.299-8.374C173.735,394.983,169.122,395.689,164.338,395.4
			z"/>
	</g>
	<g>
		<circle fill="#D01A27" cx="348.085" cy="86.25" r="15.722"/>
		<path fill="#BD1824" d="M347.067,98.674c-8.66-3.917-13.145-13.259-11.283-22.192c-0.787,0.992-1.479,2.082-2.025,3.289
			c-3.578,7.912-0.066,17.226,7.846,20.805c4.385,1.983,9.197,1.781,13.229-0.134C352.229,100.385,349.592,99.816,347.067,98.674z"
			/>
	</g>
	<g>
		<circle fill="#D01A27" cx="307.13" cy="176.388" r="9.393"/>
		<path fill="#BD1824" d="M304.343,183.294c-4.244-3.773-5.144-9.898-2.495-14.663c-0.625,0.426-1.214,0.925-1.739,1.516
			c-3.447,3.878-3.097,9.815,0.781,13.261c2.149,1.91,4.93,2.649,7.57,2.273C306.983,185.187,305.58,184.394,304.343,183.294z"/>
	</g>
	<g>
		<circle fill="#D01A27" cx="75.291" cy="117.157" r="7.199"/>
		<path fill="#BD1824" d="M76.236,122.786c-4.284-0.764-7.325-4.406-7.503-8.581c-0.238,0.529-0.422,1.091-0.529,1.687
			c-0.698,3.914,1.908,7.653,5.822,8.351c2.169,0.387,4.282-0.244,5.856-1.547C78.719,122.965,77.485,123.009,76.236,122.786z"/>
	</g>
	<g>
		<circle fill="#D01A27" cx="248.552" cy="67.361" r="17.52"/>
		<path fill="#BD1824" d="M255.043,79.642c-10.483,1.511-20.295-4.577-23.9-14.085c-0.144,1.404-0.142,2.843,0.069,4.303
			c1.38,9.577,10.263,16.221,19.84,14.841c5.308-0.765,9.707-3.839,12.347-8.054C260.917,78.156,258.098,79.202,255.043,79.642z"/>
	</g>
	<g opacity="0.8">
		<path fill="#E62F38" d="M331.75,253.984c0.971-1.842,1.772-3.406,2.409-4.696c2.105-4.381,3.669-8.095,4.707-11.134
			c1.03-3.039,1.601-5.3,1.72-6.779c0.178-2.246-0.022-3.391-0.615-3.439c-0.771-0.063-2.009,1.104-3.714,3.495
			c-1.712,2.394-3.773,5.9-6.197,10.526c-0.63,1.586-1.23,3.232-1.801,4.944c-0.571,1.709-1.09,3.414-1.571,5.115
			c-0.474,1.701-0.919,3.376-1.334,5.026c-0.415,1.646-0.786,3.217-1.112,4.707c-0.786,3.477-1.445,6.89-1.979,10.237
			c0.949-1.798,1.979-3.751,3.098-5.863c1.119-2.113,2.224-4.203,3.313-6.271C329.763,257.779,330.786,255.826,331.75,253.984z"/>
		<path fill="#E62F38" d="M157.671,281.711c1.223-0.637,2.335-1.423,3.358-2.361c1.016-0.934,1.861-1.931,2.528-2.991
			c0.66-1.056,0.964-2.061,0.897-3.006c-0.096-1.331-0.423-2.409-0.971-3.232c-0.549-0.823-1.179-1.208-1.89-1.156
			c-1.268,0.093-2.342,0.408-3.21,0.945s-1.579,1.205-2.127,2.001c-0.556,0.801-0.978,1.694-1.282,2.68
			c-0.297,0.99-0.511,1.975-0.63,2.965c-0.126,0.99-0.178,1.946-0.17,2.869c0,0.919,0.03,1.705,0.074,2.357
			C155.314,282.704,156.455,282.348,157.671,281.711z"/>
		<path fill="#E62F38" d="M377.708,275.614c-0.586-0.578-1.334-0.923-2.246-1.03c-1.208-0.145-2.424,0.233-3.632,1.134
			c-1.216,0.901-2.328,2.102-3.343,3.61c-1.016,1.505-1.875,3.202-2.58,5.089c-0.704,1.887-1.164,3.729-1.371,5.522
			c-0.148,1.238-0.171,2.417-0.067,3.532c0.104,1.119,0.356,2.113,0.763,2.98c0.4,0.871,0.986,1.597,1.757,2.179
			c0.763,0.586,1.72,0.945,2.869,1.082c1.001,0.122,2.031-0.271,3.099-1.175c1.06-0.904,2.038-2.087,2.935-3.547
			c0.89-1.46,1.66-3.099,2.305-4.918c0.652-1.82,1.082-3.584,1.282-5.289c0.163-1.357,0.208-2.628,0.141-3.814
			c-0.067-1.186-0.252-2.231-0.563-3.136C378.746,276.93,378.294,276.192,377.708,275.614z"/>
		<path fill="#E62F38" d="M111.735,263.338c0.682-2.235,1.319-4.348,1.927-6.338c0.6-1.99,1.097-3.677,1.483-5.063
			c1.245-4.7,2.09-8.639,2.535-11.819c0.445-3.18,0.586-5.508,0.423-6.979c-0.245-2.242-0.66-3.328-1.245-3.265
			c-0.771,0.085-1.772,1.46-2.995,4.129c-1.23,2.672-2.602,6.505-4.114,11.501c-0.326,1.675-0.608,3.406-0.845,5.193
			s-0.43,3.558-0.586,5.319c-0.148,1.764-0.274,3.491-0.371,5.189c-0.096,1.694-0.17,3.306-0.215,4.833
			c-0.119,3.562-0.126,7.035-0.022,10.426c0.593-1.946,1.245-4.058,1.95-6.342C110.363,267.838,111.053,265.577,111.735,263.338z"/>
		<path fill="#2E0D10" d="M100.853,242.508c0.663-3.139,1.564-5.951,2.631-8.541c-0.644-0.332-1.402-0.571-2.408-0.612
			c-6.234-0.074-12.172,0.148-17.813,0.667c-5.641,0.519-11,1.205-16.093,2.05c-3.743,0.626-7.353,1.319-10.837,2.079
			c-3.477,0.76-6.716,1.631-9.711,2.609c-2.987,0.978-5.7,2.098-8.117,3.358c-2.424,1.26-4.44,2.687-6.049,4.277
			c-1.616,1.594-2.772,3.388-3.477,5.382c-0.704,1.998-0.852,4.225-0.445,6.682c0.23,1.041,0.682,1.931,1.342,2.661
			c0.556,0.626,1.371,1.153,2.431,1.579c1.06,0.423,2.468,0.489,4.225,0.196s3.061-0.804,3.914-1.531
			c0.86-0.73,1.445-1.475,1.772-2.235s0.474-1.438,0.452-2.035c-0.03-0.597-0.044-0.927-0.052-0.986
			c-0.185-1.108-0.059-2.124,0.371-3.035c0.437-0.915,1.09-1.746,1.972-2.494c0.882-0.749,1.942-1.42,3.18-2.02
			c1.238-0.593,2.594-1.145,4.055-1.642c1.468-0.5,2.987-0.956,4.551-1.368c1.571-0.411,3.121-0.808,4.655-1.182
			c-0.86,5.856-1.675,11.178-2.461,15.967c-0.778,4.789-1.512,9.173-2.202,13.15s-1.319,7.62-1.875,10.93
			c-0.563,3.31-1.03,6.434-1.416,9.366c-0.385,2.935-0.675,5.741-0.875,8.421s-0.267,5.382-0.2,8.106
			c-0.067,0.701-0.052,1.331,0.037,1.887c0.297,1.753,1.045,2.935,2.261,3.543c1.216,0.612,2.654,0.778,4.322,0.5
			c0.556-0.093,1.127-0.363,1.712-0.804c0.593-0.445,1.134-1.023,1.631-1.738s0.919-1.527,1.26-2.442
			c0.341-0.912,0.549-1.887,0.615-2.921c0.2-2.257,0.474-4.963,0.838-8.121c0.363-3.154,0.741-6.594,1.142-10.311
			c0.408-3.721,0.815-7.62,1.23-11.705c0.415-4.081,0.786-8.172,1.112-12.268s0.578-8.102,0.771-12.008
			c0.193-3.91,0.274-7.546,0.259-10.911c3.002-0.348,5.938-0.612,8.791-0.789c2.861-0.174,5.634-0.337,8.332-0.486
			c2.691-0.148,5.285-0.308,7.761-0.482C96.687,243.093,98.802,242.828,100.853,242.508z"/>
		<path fill="#2E0D10" d="M100.757,242.883c-0.808,3.951-1.386,8.069-1.735,12.357c-0.356,4.292-0.519,8.61-0.489,12.961
			c0.03,4.355,0.133,8.487,0.326,12.405c0.185,3.914,0.43,7.476,0.734,10.678c0.311,3.202,0.571,5.793,0.786,7.765
			c0.133,1.242,0.311,2.442,0.526,3.614c0.215,1.167,0.526,2.202,0.919,3.098c0.393,0.897,0.904,1.594,1.527,2.09
			c0.623,0.5,1.416,0.697,2.387,0.589c0.741-0.078,1.327-0.308,1.764-0.682s0.815-0.901,1.149-1.579
			c0.326-0.678,0.645-1.531,0.949-2.565s0.704-2.246,1.208-3.643c1.008-2.824,2.172-5.585,3.506-8.28
			c1.334-2.694,2.639-5.137,3.921-7.32s2.454-4.003,3.499-5.459c1.053-1.457,1.809-2.372,2.276-2.754l0.941,0.033
			c-0.082,0.096-0.237,0.445-0.467,1.034c-0.237,0.593-0.504,1.353-0.808,2.279c-0.297,0.93-0.615,1.979-0.949,3.147
			c-0.341,1.171-0.623,2.365-0.867,3.584c-0.237,1.219-0.423,2.428-0.541,3.617c-0.126,1.193-0.133,2.261-0.03,3.202
			c0.148,1.416,0.504,2.898,1.067,4.448c0.556,1.549,1.29,2.954,2.202,4.21s2.016,2.257,3.299,2.995
			c1.29,0.741,2.743,1.019,4.366,0.845c1.06-0.119,2.157-0.415,3.284-0.897c1.127-0.478,2.239-1.056,3.343-1.727
			c1.104-0.675,2.194-1.427,3.269-2.261c1.067-0.83,2.061-1.649,2.972-2.45c0.732-0.641,1.372-1.234,1.996-1.818
			c-0.738-1.088-1.395-2.246-1.899-3.538c-0.697-1.769-1.106-3.651-1.353-5.599c-0.23,0.278-0.439,0.631-0.671,0.899
			c-0.608,0.723-1.26,1.427-1.957,2.116c-0.704,0.686-1.423,1.308-2.172,1.868c-0.741,0.56-1.497,1.03-2.261,1.408
			c-0.764,0.382-1.497,0.612-2.202,0.689c-0.563,0.063-1.06-0.241-1.49-0.912c-0.43-0.667-0.712-1.594-0.838-2.772
			c-0.237-2.15-0.185-4.244,0.141-6.279c0.334-2.035,0.726-4.036,1.179-6.012c0.46-1.972,0.86-3.94,1.216-5.904
			c0.348-1.961,0.415-3.944,0.2-5.949c-0.111-1.001-0.334-1.805-0.667-2.413c-0.334-0.604-0.719-1.06-1.156-1.371
			s-0.882-0.508-1.342-0.593c-0.452-0.082-0.86-0.107-1.216-0.067c-1.416,0.156-2.869,0.841-4.359,2.064
			c-1.49,1.219-2.965,2.709-4.411,4.462c-1.453,1.753-2.824,3.629-4.129,5.619s-2.476,3.847-3.514,5.571l-0.949-0.523
			c0.801-1.964,1.72-4.244,2.765-6.831c1.045-2.591,2.098-5.337,3.15-8.243c1.053-2.902,2.068-5.893,3.047-8.966
			c0.978-3.076,1.824-6.097,2.528-9.069c0.704-2.969,1.223-5.815,1.549-8.536s0.378-5.17,0.141-7.35
			c-0.163-1.475-0.43-2.795-0.793-3.962c-0.371-1.171-0.897-2.146-1.594-2.935s-1.586-1.364-2.654-1.727
			c-1.067-0.36-2.394-0.452-3.988-0.278c-3.069,0.334-5.686,1.486-7.857,3.451c-2.172,1.968-3.973,4.499-5.411,7.594
			c-0.239,0.515-0.417,1.112-0.638,1.65c-1.066,2.59-1.967,5.402-2.631,8.541C100.825,242.639,100.783,242.751,100.757,242.883z
			 M107.732,266.037c0.044-1.527,0.119-3.139,0.215-4.833c0.096-1.698,0.222-3.425,0.371-5.189c0.156-1.76,0.348-3.532,0.586-5.319
			s0.519-3.517,0.845-5.193c1.512-4.996,2.884-8.828,4.114-11.501c1.223-2.669,2.224-4.044,2.995-4.129
			c0.586-0.063,1.001,1.023,1.245,3.265c0.163,1.471,0.022,3.799-0.423,6.979c-0.445,3.18-1.29,7.12-2.535,11.819
			c-0.385,1.386-0.882,3.073-1.483,5.063c-0.608,1.99-1.245,4.103-1.927,6.338c-0.682,2.239-1.371,4.499-2.076,6.783
			c-0.704,2.283-1.357,4.396-1.95,6.342C107.606,273.071,107.613,269.598,107.732,266.037z"/>
		<path fill="#2E0D10" d="M147.088,296.401c0.508,0.75,1.034,1.484,1.651,2.136c1.512,1.601,3.351,2.832,5.508,3.684
			c2.157,0.856,4.625,1.186,7.405,0.986c1.772-0.13,3.514-0.456,5.211-0.978c1.705-0.523,3.336-1.175,4.9-1.957
			s3.047-1.653,4.448-2.617s2.706-1.935,3.914-2.913c2.78-2.279,5.374-4.859,7.783-7.739l-6.153-5.534
			c-1.067,1.208-2.387,2.498-3.958,3.877c-1.564,1.375-3.239,2.661-5.026,3.862c-1.786,1.197-3.64,2.224-5.552,3.073
			c-1.92,0.852-3.758,1.342-5.537,1.468c-0.563,0.041-1.09,0.022-1.586-0.063c-0.497-0.082-0.978-0.256-1.438-0.519
			c-0.467-0.263-0.934-0.649-1.401-1.149s-0.949-1.134-1.453-1.901c2.52-0.897,4.84-2.057,6.953-3.488s3.906-3.017,5.382-4.759
			c1.483-1.742,2.609-3.562,3.38-5.459c0.771-1.898,1.09-3.766,0.956-5.597c-0.119-1.686-0.526-3.187-1.216-4.507
			c-0.689-1.316-1.594-2.42-2.713-3.306s-2.409-1.542-3.869-1.972c-1.453-0.43-3.01-0.586-4.67-0.467
			c-2.038,0.145-3.869,0.641-5.485,1.486c-1.623,0.845-3.061,1.931-4.314,3.254c-1.26,1.323-2.335,2.828-3.225,4.511
			c-0.89,1.686-1.601,3.439-2.135,5.263c-0.541,1.82-0.904,3.669-1.097,5.541c-0.193,1.872-0.23,3.636-0.111,5.289
			c0.033,0.466,0.139,0.902,0.196,1.358c0.246,1.948,0.656,3.83,1.353,5.599C145.692,294.155,146.35,295.313,147.088,296.401z
			 M154.343,277.556c0.119-0.99,0.334-1.975,0.63-2.965c0.304-0.986,0.726-1.879,1.282-2.68c0.549-0.797,1.26-1.464,2.127-2.001
			s1.942-0.852,3.21-0.945c0.712-0.052,1.342,0.334,1.89,1.156c0.549,0.823,0.875,1.901,0.971,3.232
			c0.067,0.945-0.237,1.95-0.897,3.006c-0.667,1.06-1.512,2.057-2.528,2.991c-1.023,0.938-2.135,1.723-3.358,2.361
			c-1.216,0.638-2.357,0.993-3.425,1.071c-0.044-0.652-0.074-1.438-0.074-2.357C154.165,279.502,154.217,278.546,154.343,277.556z"
			/>
		<path fill="#2E0D10" d="M311.606,284.156c-0.057,0.05-0.102,0.126-0.159,0.175c-0.838,0.701-1.712,1.245-2.624,1.634
			s-1.794,0.582-2.654,0.571s-1.668-0.141-2.417-0.385c-0.756-0.248-1.401-0.641-1.942-1.182c-0.549-0.537-0.971-1.219-1.29-2.038
			s-0.467-1.805-0.452-2.961c0.007-0.474,0.2-1.586,0.593-3.328c0.393-1.746,0.882-3.892,1.46-6.434s1.208-5.396,1.883-8.562
			c0.675-3.165,1.305-6.419,1.898-9.762c0.586-3.343,1.09-6.679,1.497-10.011c0.415-3.332,0.637-6.434,0.675-9.31
			c0.007-1.038-0.096-1.89-0.326-2.561c-0.23-0.671-0.563-1.208-1.008-1.616c-0.437-0.404-0.956-0.693-1.564-0.864
			c-0.608-0.17-1.282-0.259-2.024-0.267c-0.949-0.011-1.875,0.059-2.78,0.211c-0.904,0.152-1.72,0.474-2.439,0.971
			c-0.719,0.493-1.312,1.197-1.779,2.113c-0.474,0.912-0.764,2.124-0.867,3.636c-0.111,1.453-0.289,3.458-0.541,6.019
			c-0.252,2.565-0.593,5.452-1.016,8.662c-0.43,3.213-0.949,6.623-1.571,10.233c-0.623,3.61-1.349,7.19-2.179,10.737
			c-0.83,3.551-1.772,6.949-2.832,10.196c-1.067,3.25-2.253,6.104-3.573,8.565c-1.327,2.461-2.772,4.422-4.344,5.886
			c-1.579,1.464-3.313,2.183-5.211,2.161c-1.097-0.015-2.009-0.426-2.743-1.234c-0.726-0.812-1.319-1.975-1.757-3.491
			c-0.445-1.52-0.749-3.354-0.912-5.504c-0.17-2.153-0.237-4.562-0.2-7.231c0.03-2.609,0.185-5.471,0.46-8.58
			c0.274-3.11,0.615-6.256,1.023-9.44c0.415-3.18,0.852-6.282,1.319-9.303c0.467-3.017,0.897-5.719,1.297-8.098
			c0.4-2.383,0.726-4.336,0.986-5.86c0.252-1.523,0.378-2.391,0.385-2.598c0.007-0.623-0.074-1.186-0.245-1.694
			c-0.178-0.504-0.474-0.941-0.897-1.301c-0.43-0.36-1.001-0.649-1.727-0.867c-0.726-0.215-1.646-0.33-2.772-0.345
			c-1.186-0.015-2.239,0.107-3.143,0.363c-0.912,0.256-1.705,0.708-2.394,1.349c-0.689,0.645-1.29,1.512-1.794,2.602
			c-0.497,1.093-0.941,2.45-1.312,4.077c-2.053,10.089-4.373,19.088-6.96,27.004c-0.734,2.246-1.52,4.466-2.342,6.664
			c-0.83,2.202-1.712,4.296-2.639,6.286c-0.927,1.99-1.89,3.84-2.891,5.545c-1.001,1.709-2.038,3.18-3.121,4.411
			c-1.082,1.234-2.202,2.198-3.351,2.895c-1.149,0.701-2.335,1.041-3.551,1.027c-1.216-0.015-2.261-0.415-3.143-1.197
			c-0.875-0.778-1.609-1.849-2.187-3.206c-0.571-1.357-0.993-2.947-1.253-4.774c-0.259-1.827-0.378-3.792-0.348-5.897
			c0.03-2.58,0.311-5.37,0.838-8.376c0.526-3.002,1.179-6.056,1.957-9.158c0.778-3.106,1.616-6.164,2.513-9.177
			c0.897-3.017,1.727-5.808,2.505-8.376c0.771-2.572,1.408-4.84,1.927-6.805c0.511-1.964,0.771-3.454,0.786-4.462
			c0.007-0.89-0.074-1.594-0.267-2.116c-0.185-0.519-0.46-0.923-0.83-1.208c-0.363-0.285-0.815-0.478-1.349-0.574
			c-0.526-0.096-1.119-0.145-1.772-0.156c-0.801-0.007-1.594,0.026-2.387,0.107c-0.786,0.078-1.564,0.345-2.342,0.793
			c-0.778,0.452-1.542,1.153-2.291,2.105c-0.756,0.956-1.512,2.291-2.276,3.999c-1.282,3.069-2.431,6.227-3.454,9.477
			c-1.016,3.25-1.875,6.531-2.587,9.844c-0.704,3.31-1.26,6.619-1.653,9.918c-0.393,3.302-0.615,6.527-0.652,9.67
			c-0.059,5.13,0.289,9.618,1.06,13.465c0.771,3.851,1.816,7.057,3.128,9.625c1.319,2.565,2.861,4.503,4.625,5.815
			s3.625,1.979,5.582,2.001c3.41,0.041,6.523-0.504,9.333-1.642c2.817-1.138,5.337-3.073,7.546-5.804
			c2.216-2.728,4.151-6.36,5.826-10.893c1.668-4.529,3.084-10.17,4.233-16.916c-0.104,0.978-0.237,2.087-0.4,3.332
			c-0.163,1.242-0.252,2.576-0.267,3.999c-0.052,3.884,0.185,7.55,0.712,10.993c0.519,3.447,1.379,6.453,2.58,9.017
			s2.772,4.6,4.729,6.108c1.957,1.505,4.336,2.276,7.153,2.309c2.224,0.026,4.388-0.367,6.486-1.19
			c2.105-0.819,4.121-1.994,6.049-3.528c1.935-1.534,3.766-3.395,5.493-5.582c1.735-2.187,3.358-4.651,4.87-7.39
			c0.163,1.423,0.46,2.657,0.889,3.703c0.437,1.042,0.978,1.894,1.638,2.554c0.66,0.663,1.416,1.153,2.276,1.475
			c0.852,0.322,1.772,0.489,2.75,0.5c2.046,0.022,4.24-0.675,6.59-2.102c0.504-0.306,0.993-0.735,1.492-1.091
			c0.162-1.945,0.381-4.415,0.665-7.485C311.539,284.749,311.578,284.436,311.606,284.156z"/>
		<path fill="#2E0D10" d="M354.848,290.158c-0.719,0.583-1.471,1.142-2.268,1.674c-0.823,0.545-1.646,1.019-2.483,1.431
			c-0.838,0.408-1.66,0.73-2.483,0.96c-0.823,0.233-1.586,0.319-2.298,0.263c-0.563-0.044-0.993-0.437-1.29-1.175
			c-0.297-0.738-0.4-1.697-0.304-2.88c0.17-2.157,0.608-4.203,1.312-6.141c0.712-1.935,1.468-3.832,2.29-5.686
			c0.815-1.853,1.579-3.71,2.291-5.571c0.719-1.861,1.156-3.795,1.312-5.808c0.082-1.004,0.015-1.835-0.2-2.491
			c-0.215-0.656-0.511-1.179-0.882-1.564c-0.371-0.389-0.771-0.667-1.201-0.834c-0.43-0.171-0.83-0.267-1.179-0.297
			c-1.423-0.111-2.98,0.293-4.67,1.212c-1.698,0.919-3.425,2.105-5.174,3.558s-3.454,3.032-5.107,4.744
			c-1.653,1.712-3.15,3.317-4.492,4.818l-0.838-0.693c1.156-1.783,2.491-3.847,4.003-6.193c1.505-2.35,3.054-4.848,4.633-7.505
			c1.579-2.654,3.143-5.4,4.677-8.239c1.534-2.835,2.928-5.645,4.173-8.432c1.253-2.783,2.29-5.485,3.121-8.095
			c0.838-2.609,1.342-5.007,1.512-7.198c0.119-1.475,0.111-2.824-0.03-4.04c-0.141-1.216-0.482-2.276-1.016-3.18
			c-0.541-0.908-1.297-1.638-2.283-2.19c-0.978-0.556-2.268-0.897-3.862-1.023c-3.076-0.245-5.863,0.393-8.369,1.92
			c-2.498,1.523-4.744,3.673-6.738,6.442c-1.994,2.772-3.751,6.023-5.285,9.751c-1.534,3.732-2.876,7.668-4.025,11.816
			c-1.149,4.147-2.113,8.361-2.906,12.639c-0.786,4.281-1.453,8.361-2.001,12.246c-0.502,3.548-0.886,6.777-1.182,9.758
			c-0.028,0.28-0.067,0.593-0.093,0.868c-0.284,3.07-0.503,5.54-0.665,7.485c-0.007,0.086-0.018,0.207-0.024,0.29
			c-0.096,1.242-0.148,2.457-0.156,3.647c-0.007,1.19,0.104,2.261,0.326,3.217c0.215,0.953,0.586,1.735,1.104,2.342
			c0.519,0.604,1.26,0.949,2.239,1.027c0.741,0.056,1.357-0.056,1.853-0.345c0.504-0.285,0.978-0.73,1.423-1.334
			c0.452-0.604,0.927-1.386,1.416-2.342c0.497-0.956,1.119-2.076,1.875-3.354c1.512-2.583,3.18-5.078,4.989-7.476
			c1.816-2.398,3.558-4.548,5.226-6.453s3.158-3.473,4.462-4.707c1.297-1.234,2.216-1.994,2.743-2.279l0.919,0.208
			c-0.096,0.082-0.311,0.393-0.652,0.93s-0.741,1.234-1.216,2.087c-0.467,0.856-0.978,1.827-1.527,2.913s-1.053,2.205-1.52,3.358
			c-0.46,1.153-0.867,2.305-1.208,3.451c-0.348,1.149-0.556,2.194-0.63,3.139c-0.111,1.42-0.044,2.943,0.215,4.57
			c0.252,1.627,0.712,3.143,1.379,4.548c0.66,1.408,1.549,2.594,2.676,3.562c1.134,0.967,2.505,1.516,4.136,1.646
			c1.06,0.085,2.187-0.004,3.388-0.263c1.193-0.263,2.394-0.619,3.61-1.075c1.208-0.452,2.424-0.986,3.632-1.605
			c1.208-0.615,2.335-1.234,3.38-1.849c0.509-0.3,0.927-0.57,1.394-0.856c-0.712-1.699-1.238-3.505-1.46-5.482
			C354.69,292.733,354.831,291.446,354.848,290.158z M325.36,266.122c-1.119,2.113-2.15,4.066-3.098,5.863
			c0.534-3.347,1.193-6.76,1.979-10.237c0.326-1.49,0.697-3.061,1.112-4.707c0.415-1.649,0.86-3.325,1.334-5.026
			c0.482-1.701,1.001-3.406,1.571-5.115c0.571-1.712,1.171-3.358,1.801-4.944c2.424-4.626,4.485-8.132,6.197-10.526
			c1.705-2.391,2.943-3.558,3.714-3.495c0.593,0.048,0.793,1.193,0.615,3.439c-0.119,1.479-0.689,3.74-1.72,6.779
			c-1.038,3.039-2.602,6.753-4.707,11.134c-0.638,1.29-1.438,2.854-2.409,4.696c-0.964,1.842-1.987,3.795-3.076,5.867
			C327.584,261.919,326.479,264.009,325.36,266.122z"/>
		<path fill="#2E0D10" d="M387.715,282.385c-0.2-1.953-0.623-3.832-1.275-5.641l0.415-0.445c0.971,0.834,2.135,1.861,3.484,3.084
			c0.305,0.276,0.618,0.593,0.925,0.876c1.059-1.898,2.107-3.801,3.128-5.723c-0.524-0.514-0.959-1.13-1.51-1.613
			c-1.964-1.712-4.114-3.15-6.456-4.31c-2.335-1.16-4.907-1.909-7.702-2.242c-3.269-0.389-6.286-0.145-9.043,0.734
			c-2.765,0.882-5.174,2.25-7.235,4.11c-2.061,1.861-3.743,4.136-5.048,6.831c-1.305,2.698-2.157,5.663-2.543,8.903
			c-0.128,1.07,0.007,2.141-0.007,3.211c-0.017,1.288-0.158,2.575-0.007,3.865c0.222,1.977,0.749,3.783,1.46,5.482
			c0.138,0.33,0.228,0.688,0.385,1.008c0.956,1.968,2.29,3.628,3.995,4.981s3.855,2.183,6.442,2.494
			c1.801,0.211,3.528,0.107,5.189-0.322c0.888-0.229,1.672-0.7,2.502-1.062c4.546-6.547,8.843-13.271,12.896-20.163
			C387.78,285.126,387.862,283.815,387.715,282.385z M379.48,284.783c-0.2,1.705-0.63,3.469-1.282,5.289
			c-0.645,1.82-1.416,3.458-2.305,4.918c-0.897,1.46-1.875,2.643-2.935,3.547c-1.067,0.904-2.098,1.297-3.099,1.175
			c-1.149-0.137-2.105-0.497-2.869-1.082c-0.771-0.582-1.357-1.308-1.757-2.179c-0.408-0.867-0.66-1.861-0.763-2.98
			c-0.104-1.116-0.082-2.294,0.067-3.532c0.208-1.794,0.667-3.636,1.371-5.522c0.704-1.887,1.564-3.584,2.58-5.089
			c1.016-1.508,2.127-2.709,3.343-3.61c1.208-0.901,2.424-1.279,3.632-1.134c0.912,0.107,1.66,0.452,2.246,1.03
			s1.038,1.316,1.349,2.22s0.497,1.95,0.563,3.136C379.687,282.155,379.643,283.427,379.48,284.783z"/>
	</g>
	<g opacity="0.8">
		<path fill="#D01A27" d="M419.73,262.019c1.786-2.909,3.402-5.834,4.84-8.78s2.491-5.734,3.158-8.361
			c0.126-0.849,0.215-1.579,0.267-2.187c0.044-0.608-0.052-0.93-0.282-0.964c-0.852-0.13-1.853,0.282-3.002,1.23
			c-1.149,0.953-2.357,2.291-3.625,4.018s-2.535,3.769-3.81,6.123c-1.268,2.357-2.468,4.889-3.603,7.598
			c-1.127,2.706-2.127,5.519-2.987,8.428c-0.86,2.913-1.505,5.778-1.935,8.591c1.675-2.142,3.477-4.57,5.404-7.276
			C416.076,267.734,417.937,264.925,419.73,262.019z"/>
		<path fill="#2E0D10" d="M394.424,283.234c0.613,0.606,1.149,1.233,1.73,1.848c0.357-2.195,0.891-4.549,1.558-7.021
			c-1.02-1.275-2.163-2.409-3.312-3.536c-1.022,1.922-2.07,3.824-3.128,5.723C392.316,281.214,393.36,282.184,394.424,283.234z"/>
		<path fill="#2E0D10" d="M377.011,305.654c1.46-0.897,2.809-2.009,4.025-3.325c1.216-1.319,2.283-2.758,3.202-4.322
			s1.675-3.206,2.268-4.926c0.593-1.72,0.993-3.447,1.201-5.185c0.055-0.457-0.024-0.983,0.002-1.455
			c-4.047,6.883-8.337,13.599-12.876,20.136C375.556,306.262,376.331,306.071,377.011,305.654z"/>
		<g>
			<path fill="#2E0D10" d="M437.298,234.859c-0.326-1.008-0.852-1.861-1.586-2.557c-0.734-0.697-1.735-1.142-2.995-1.331
				c-1.846-0.282-3.751,0-5.708,0.841c-1.957,0.845-3.906,2.116-5.841,3.814c-1.935,1.701-3.855,3.751-5.745,6.149
				c-1.898,2.394-3.706,5.007-5.441,7.831c-1.735,2.828-3.358,5.804-4.863,8.936c-1.512,3.128-2.876,6.264-4.107,9.407
				c-1.223,3.143-2.261,6.219-3.106,9.225c-0.089,0.316-0.113,0.574-0.196,0.887c-0.666,2.471-1.201,4.826-1.558,7.021
				c-0.026,0.161-0.09,0.354-0.114,0.513c-0.511,3.399-0.719,6.69-0.615,9.87c0.096,3.18,0.482,6.019,1.134,8.517
				s1.557,4.548,2.713,6.145c1.149,1.601,2.52,2.52,4.099,2.761c1.001,0.152,2.09,0.174,3.276,0.07
				c1.186-0.107,2.409-0.3,3.684-0.589c1.275-0.285,2.55-0.641,3.832-1.06c1.275-0.423,2.52-0.856,3.729-1.301
				c1.029-0.401,2.109-0.97,3.155-1.426c-0.625-1.493-1.116-3.056-1.317-4.764c-0.203-1.676-0.146-3.385,0.029-5.109
				c-0.661,0.333-1.385,0.764-2.023,1.061c-0.875,0.408-1.772,0.804-2.706,1.19c-0.927,0.382-1.824,0.712-2.691,0.986
				c-0.867,0.271-1.675,0.471-2.424,0.597c-0.756,0.126-1.416,0.145-1.972,0.063c-0.23-0.037-0.46-0.245-0.667-0.619
				c-0.215-0.378-0.393-0.871-0.541-1.479c-0.148-0.608-0.252-1.282-0.304-2.024s-0.015-1.494,0.096-2.257l0.096-0.615
				c0.178-0.574,0.385-1.156,0.623-1.749s0.474-1.149,0.704-1.672c0.23-0.519,0.46-1.001,0.689-1.445
				c0.237-0.445,0.445-0.804,0.637-1.075c1.749-2.435,3.603-4.918,5.559-7.453c1.964-2.539,3.921-5.122,5.878-7.746
				c1.957-2.628,3.862-5.285,5.708-7.976c1.853-2.687,3.528-5.393,5.033-8.121c1.512-2.724,2.795-5.467,3.862-8.232
				c1.06-2.761,1.801-5.519,2.224-8.276c0.185-1.23,0.274-2.454,0.259-3.669C437.795,236.983,437.625,235.867,437.298,234.859z
				 M421.087,246.975c1.268-1.727,2.476-3.065,3.625-4.018c1.149-0.949,2.15-1.36,3.002-1.23c0.23,0.033,0.326,0.356,0.282,0.964
				c-0.052,0.608-0.141,1.338-0.267,2.187c-0.667,2.628-1.72,5.415-3.158,8.361s-3.054,5.871-4.84,8.78
				c-1.794,2.906-3.654,5.715-5.574,8.421c-1.927,2.706-3.729,5.133-5.404,7.276c0.43-2.813,1.075-5.678,1.935-8.591
				c0.86-2.909,1.861-5.723,2.987-8.428"/>
		</g>
		<path fill="#2E0D10" d="M419.73,303.819c0.201,1.707,0.691,3.27,1.317,4.764c0.227,0.543,0.41,1.108,0.692,1.622
			c1.06,1.931,2.52,3.58,4.396,4.952c1.868,1.371,4.181,2.313,6.916,2.821c1.749,0.322,3.514,0.445,5.293,0.367
			s3.521-0.297,5.233-0.66s3.365-0.83,4.966-1.408s3.106-1.19,4.522-1.835c3.262-1.505,6.427-3.347,9.481-5.526l-4.559-6.905
			c-1.342,0.897-2.943,1.816-4.803,2.754c-1.861,0.934-3.81,1.757-5.841,2.468c-2.031,0.708-4.077,1.234-6.145,1.575
			s-3.981,0.348-5.73,0.026c-0.556-0.104-1.06-0.256-1.52-0.463c-0.46-0.204-0.882-0.493-1.26-0.867
			c-0.385-0.371-0.741-0.86-1.067-1.46c-0.326-0.604-0.63-1.342-0.927-2.209c2.669-0.23,5.204-0.771,7.605-1.623
			c2.402-0.849,4.544-1.931,6.412-3.247c1.875-1.308,3.417-2.787,4.648-4.433c1.223-1.642,2.001-3.365,2.335-5.174
			c0.304-1.66,0.297-3.217-0.044-4.666c-0.334-1.449-0.927-2.743-1.786-3.884c-0.86-1.138-1.942-2.098-3.247-2.884
			c-1.305-0.782-2.772-1.327-4.403-1.627c-2.009-0.374-3.906-0.356-5.686,0.056c-1.779,0.408-3.447,1.097-4.996,2.061
			c-1.549,0.964-2.965,2.15-4.255,3.554c-1.282,1.405-2.417,2.921-3.395,4.551c-0.978,1.627-1.801,3.321-2.454,5.085
			c-0.66,1.764-1.142,3.462-1.445,5.092c-0.124,0.678-0.155,1.344-0.223,2.015C419.584,300.434,419.528,302.143,419.73,303.819z
			 M433.807,288.601c0.541-0.878,1.179-1.634,1.912-2.268c0.734-0.634,1.594-1.101,2.565-1.401c0.978-0.304,2.09-0.337,3.343-0.107
			c0.704,0.13,1.216,0.663,1.542,1.597s0.363,2.057,0.119,3.369c-0.171,0.934-0.712,1.827-1.623,2.683
			c-0.912,0.86-1.979,1.612-3.202,2.261s-2.498,1.127-3.84,1.434c-1.342,0.311-2.535,0.371-3.58,0.174
			c0.119-0.641,0.289-1.408,0.511-2.302"/>
	</g>
	<g>
		<path fill="none" d="M331.75,248.41c0.971-1.842,1.772-3.406,2.409-4.696c2.105-4.381,3.669-8.095,4.707-11.134
			c1.03-3.039,1.601-5.3,1.72-6.779c0.178-2.246-0.022-3.391-0.615-3.439c-0.771-0.063-2.009,1.104-3.714,3.495
			c-1.712,2.394-3.773,5.9-6.197,10.526c-0.63,1.586-1.23,3.232-1.801,4.944c-0.571,1.709-1.09,3.414-1.571,5.115
			c-0.474,1.701-0.919,3.376-1.334,5.026c-0.415,1.646-0.786,3.217-1.112,4.707c-0.786,3.477-1.445,6.89-1.979,10.237
			c0.949-1.798,1.979-3.751,3.098-5.863c1.119-2.113,2.224-4.203,3.313-6.271C329.763,252.205,330.786,250.252,331.75,248.41z"/>
		<path fill="none" d="M157.671,276.137c1.223-0.637,2.335-1.423,3.358-2.361c1.016-0.934,1.861-1.931,2.528-2.991
			c0.66-1.056,0.964-2.061,0.897-3.006c-0.096-1.331-0.423-2.409-0.971-3.232c-0.549-0.823-1.179-1.208-1.89-1.156
			c-1.268,0.093-2.342,0.408-3.21,0.945s-1.579,1.205-2.127,2.001c-0.556,0.801-0.978,1.694-1.282,2.68
			c-0.297,0.99-0.511,1.975-0.63,2.965c-0.126,0.99-0.178,1.946-0.17,2.869c0,0.919,0.03,1.705,0.074,2.357
			C155.314,277.13,156.455,276.774,157.671,276.137z"/>
		<path fill="none" d="M386.855,270.726l-0.415,0.445c0.652,1.809,1.075,3.688,1.275,5.641c0.146,1.43,0.065,2.74-0.006,4.056
			c1.204-2.048,2.394-4.105,3.554-6.182c-0.307-0.283-0.62-0.6-0.925-0.876C388.99,272.586,387.826,271.559,386.855,270.726z"/>
		<path fill="none" d="M377.708,270.04c-0.586-0.578-1.334-0.923-2.246-1.03c-1.208-0.145-2.424,0.233-3.632,1.134
			c-1.216,0.901-2.328,2.102-3.343,3.61c-1.016,1.505-1.875,3.202-2.58,5.089c-0.704,1.887-1.164,3.729-1.371,5.522
			c-0.148,1.238-0.171,2.417-0.067,3.532c0.104,1.119,0.356,2.113,0.763,2.98c0.4,0.871,0.986,1.597,1.757,2.179
			c0.763,0.586,1.72,0.945,2.869,1.082c1.001,0.122,2.031-0.271,3.099-1.175c1.06-0.904,2.038-2.087,2.935-3.547
			c0.89-1.46,1.66-3.098,2.305-4.918c0.652-1.82,1.082-3.584,1.282-5.289c0.163-1.357,0.208-2.628,0.141-3.814
			c-0.067-1.186-0.252-2.231-0.563-3.136C378.746,271.356,378.294,270.618,377.708,270.04z"/>
		<path fill="none" d="M111.735,257.764c0.682-2.235,1.319-4.348,1.927-6.338c0.6-1.99,1.097-3.677,1.483-5.063
			c1.245-4.7,2.09-8.639,2.535-11.819c0.445-3.18,0.586-5.508,0.423-6.979c-0.245-2.242-0.66-3.328-1.245-3.265
			c-0.771,0.085-1.772,1.46-2.995,4.129c-1.23,2.672-2.602,6.505-4.114,11.501c-0.326,1.675-0.608,3.406-0.845,5.193
			s-0.43,3.558-0.586,5.319c-0.148,1.764-0.274,3.491-0.371,5.189c-0.096,1.694-0.17,3.306-0.215,4.833
			c-0.119,3.562-0.126,7.035-0.022,10.426c0.593-1.946,1.245-4.058,1.95-6.342C110.363,262.264,111.053,260.003,111.735,257.764z"/>
		<path fill="#FCFCFC" d="M100.853,236.934c0.663-3.139,1.564-5.951,2.631-8.541c-0.644-0.332-1.402-0.571-2.408-0.612
			c-6.234-0.074-12.172,0.148-17.813,0.667c-5.641,0.519-11,1.205-16.093,2.05c-3.743,0.626-7.353,1.319-10.837,2.079
			c-3.477,0.76-6.716,1.631-9.711,2.609c-2.987,0.978-5.7,2.098-8.117,3.358c-2.424,1.26-4.44,2.687-6.049,4.277
			c-1.616,1.594-2.772,3.388-3.477,5.382c-0.704,1.998-0.852,4.225-0.445,6.683c0.23,1.041,0.682,1.931,1.342,2.661
			c0.556,0.626,1.371,1.153,2.431,1.579c1.06,0.423,2.468,0.489,4.225,0.196s3.061-0.804,3.914-1.531
			c0.86-0.73,1.445-1.475,1.772-2.235c0.326-0.76,0.474-1.438,0.452-2.035c-0.03-0.597-0.044-0.927-0.052-0.986
			c-0.185-1.108-0.059-2.124,0.371-3.035c0.437-0.915,1.09-1.746,1.972-2.494c0.882-0.749,1.942-1.42,3.18-2.02
			c1.238-0.593,2.594-1.145,4.055-1.642c1.468-0.5,2.987-0.956,4.551-1.368c1.571-0.411,3.121-0.808,4.655-1.182
			c-0.86,5.856-1.675,11.178-2.461,15.967c-0.778,4.789-1.512,9.173-2.202,13.15c-0.689,3.977-1.319,7.62-1.875,10.93
			c-0.563,3.31-1.03,6.434-1.416,9.366c-0.385,2.935-0.675,5.741-0.875,8.421s-0.267,5.382-0.2,8.106
			c-0.067,0.701-0.052,1.331,0.037,1.887c0.297,1.753,1.045,2.935,2.261,3.543c1.216,0.612,2.654,0.778,4.322,0.5
			c0.556-0.093,1.127-0.363,1.712-0.804c0.593-0.445,1.134-1.023,1.631-1.738s0.919-1.527,1.26-2.442
			c0.341-0.912,0.549-1.887,0.615-2.921c0.2-2.257,0.474-4.963,0.838-8.121c0.363-3.154,0.741-6.594,1.142-10.311
			c0.408-3.721,0.815-7.62,1.23-11.705c0.415-4.081,0.786-8.172,1.112-12.268s0.578-8.102,0.771-12.008
			c0.193-3.91,0.274-7.546,0.259-10.911c3.002-0.348,5.938-0.612,8.791-0.789c2.861-0.174,5.634-0.337,8.332-0.486
			c2.691-0.148,5.285-0.308,7.761-0.482C96.687,237.519,98.802,237.254,100.853,236.934z"/>
		<path fill="#FCFCFC" d="M100.757,237.309c-0.808,3.951-1.386,8.069-1.735,12.357c-0.356,4.292-0.519,8.61-0.489,12.961
			c0.03,4.355,0.133,8.487,0.326,12.405c0.185,3.914,0.43,7.476,0.734,10.678c0.311,3.202,0.571,5.793,0.786,7.765
			c0.133,1.242,0.311,2.442,0.526,3.614c0.215,1.167,0.526,2.202,0.919,3.098c0.393,0.897,0.904,1.594,1.527,2.09
			c0.623,0.5,1.416,0.697,2.387,0.589c0.741-0.078,1.327-0.308,1.764-0.682s0.815-0.901,1.149-1.579
			c0.326-0.678,0.645-1.531,0.949-2.565s0.704-2.246,1.208-3.643c1.008-2.824,2.172-5.585,3.506-8.28
			c1.334-2.694,2.639-5.137,3.921-7.32s2.454-4.003,3.499-5.459c1.053-1.457,1.809-2.372,2.276-2.754l0.941,0.033
			c-0.082,0.096-0.237,0.445-0.467,1.034c-0.237,0.593-0.504,1.353-0.808,2.279c-0.297,0.93-0.615,1.979-0.949,3.147
			c-0.341,1.171-0.623,2.365-0.867,3.584c-0.237,1.219-0.423,2.428-0.541,3.617c-0.126,1.193-0.133,2.261-0.03,3.202
			c0.148,1.416,0.504,2.898,1.067,4.448c0.556,1.549,1.29,2.954,2.202,4.21s2.016,2.257,3.299,2.995
			c1.29,0.741,2.743,1.019,4.366,0.845c1.06-0.119,2.157-0.415,3.284-0.897c1.127-0.478,2.239-1.056,3.343-1.727
			c1.104-0.675,2.194-1.427,3.269-2.261c1.067-0.83,2.061-1.649,2.972-2.45c0.732-0.641,1.372-1.234,1.996-1.818
			c-0.738-1.088-1.395-2.246-1.899-3.538c-0.697-1.769-1.106-3.651-1.353-5.599c-0.23,0.278-0.439,0.631-0.671,0.899
			c-0.608,0.723-1.26,1.427-1.957,2.116c-0.704,0.686-1.423,1.308-2.172,1.868c-0.741,0.56-1.497,1.03-2.261,1.408
			c-0.764,0.382-1.497,0.612-2.202,0.689c-0.563,0.063-1.06-0.241-1.49-0.912c-0.43-0.667-0.712-1.594-0.838-2.772
			c-0.237-2.15-0.185-4.244,0.141-6.279c0.334-2.035,0.726-4.036,1.179-6.012c0.46-1.972,0.86-3.94,1.216-5.904
			c0.348-1.961,0.415-3.944,0.2-5.949c-0.111-1.001-0.334-1.805-0.667-2.413c-0.334-0.604-0.719-1.06-1.156-1.371
			s-0.882-0.508-1.342-0.593c-0.452-0.082-0.86-0.107-1.216-0.067c-1.416,0.156-2.869,0.841-4.359,2.064
			c-1.49,1.219-2.965,2.709-4.411,4.462c-1.453,1.753-2.824,3.629-4.129,5.619s-2.476,3.847-3.514,5.571l-0.949-0.523
			c0.801-1.964,1.72-4.244,2.765-6.831c1.045-2.591,2.098-5.337,3.15-8.243c1.053-2.902,2.068-5.893,3.047-8.966
			c0.978-3.076,1.824-6.097,2.528-9.069c0.704-2.969,1.223-5.815,1.549-8.536s0.378-5.17,0.141-7.35
			c-0.163-1.475-0.43-2.795-0.793-3.962c-0.371-1.171-0.897-2.146-1.594-2.935s-1.586-1.364-2.654-1.727
			c-1.067-0.36-2.394-0.452-3.988-0.278c-3.069,0.334-5.686,1.486-7.857,3.451c-2.172,1.968-3.973,4.499-5.411,7.594
			c-0.239,0.515-0.417,1.112-0.638,1.65c-1.066,2.59-1.967,5.402-2.631,8.541C100.825,237.065,100.783,237.177,100.757,237.309z
			 M107.732,260.463c0.044-1.527,0.119-3.139,0.215-4.833c0.096-1.697,0.222-3.425,0.371-5.189c0.156-1.76,0.348-3.532,0.586-5.319
			s0.519-3.517,0.845-5.193c1.512-4.996,2.884-8.828,4.114-11.501c1.223-2.669,2.224-4.044,2.995-4.129
			c0.586-0.063,1.001,1.023,1.245,3.265c0.163,1.471,0.022,3.799-0.423,6.979c-0.445,3.18-1.29,7.12-2.535,11.819
			c-0.385,1.386-0.882,3.073-1.483,5.063c-0.608,1.99-1.245,4.103-1.927,6.338c-0.682,2.239-1.371,4.499-2.076,6.783
			c-0.704,2.283-1.357,4.396-1.95,6.342C107.606,267.497,107.613,264.024,107.732,260.463z"/>
		<path fill="#FCFCFC" d="M147.088,290.827c0.508,0.75,1.034,1.484,1.651,2.136c1.512,1.601,3.351,2.832,5.508,3.684
			c2.157,0.856,4.625,1.186,7.405,0.986c1.772-0.13,3.514-0.456,5.211-0.978c1.705-0.523,3.336-1.175,4.9-1.957
			s3.047-1.653,4.448-2.617s2.706-1.935,3.914-2.913c2.78-2.279,5.374-4.859,7.783-7.739l-6.153-5.534
			c-1.067,1.208-2.387,2.498-3.958,3.877c-1.564,1.375-3.239,2.661-5.026,3.862c-1.786,1.197-3.64,2.224-5.552,3.073
			c-1.92,0.852-3.758,1.342-5.537,1.468c-0.563,0.041-1.09,0.022-1.586-0.063c-0.497-0.082-0.978-0.256-1.438-0.519
			c-0.467-0.263-0.934-0.649-1.401-1.149s-0.949-1.134-1.453-1.901c2.52-0.897,4.84-2.057,6.953-3.488s3.906-3.017,5.382-4.759
			c1.483-1.742,2.609-3.562,3.38-5.459c0.771-1.898,1.09-3.766,0.956-5.597c-0.119-1.686-0.526-3.187-1.216-4.507
			c-0.689-1.316-1.594-2.42-2.713-3.306s-2.409-1.542-3.869-1.972c-1.453-0.43-3.01-0.586-4.67-0.467
			c-2.038,0.145-3.869,0.641-5.485,1.486c-1.623,0.845-3.061,1.931-4.314,3.254c-1.26,1.323-2.335,2.828-3.225,4.511
			c-0.89,1.686-1.601,3.439-2.135,5.263c-0.541,1.82-0.904,3.669-1.097,5.541c-0.193,1.872-0.23,3.636-0.111,5.289
			c0.033,0.466,0.139,0.902,0.196,1.358c0.246,1.948,0.656,3.83,1.353,5.599C145.692,288.581,146.35,289.739,147.088,290.827z
			 M154.343,271.982c0.119-0.99,0.334-1.975,0.63-2.965c0.304-0.986,0.726-1.879,1.282-2.68c0.549-0.797,1.26-1.464,2.127-2.001
			s1.942-0.852,3.21-0.945c0.712-0.052,1.342,0.334,1.89,1.156c0.549,0.823,0.875,1.901,0.971,3.232
			c0.067,0.945-0.237,1.95-0.897,3.006c-0.667,1.06-1.512,2.057-2.528,2.991c-1.023,0.938-2.135,1.723-3.358,2.361
			c-1.216,0.638-2.357,0.993-3.425,1.071c-0.044-0.652-0.074-1.438-0.074-2.357C154.165,273.928,154.217,272.972,154.343,271.982z"
			/>
		<path fill="#FCFCFC" d="M311.606,278.582c-0.057,0.05-0.102,0.126-0.159,0.175c-0.838,0.701-1.712,1.245-2.624,1.634
			s-1.794,0.582-2.654,0.571s-1.668-0.141-2.417-0.385c-0.756-0.248-1.401-0.641-1.942-1.182c-0.549-0.537-0.971-1.219-1.29-2.038
			s-0.467-1.805-0.452-2.961c0.007-0.474,0.2-1.586,0.593-3.328c0.393-1.746,0.882-3.892,1.46-6.434s1.208-5.396,1.883-8.562
			c0.675-3.165,1.305-6.419,1.898-9.762c0.586-3.343,1.09-6.679,1.497-10.011c0.415-3.332,0.637-6.434,0.675-9.31
			c0.007-1.038-0.096-1.89-0.326-2.561c-0.23-0.671-0.563-1.208-1.008-1.616c-0.437-0.404-0.956-0.693-1.564-0.864
			c-0.608-0.17-1.282-0.259-2.024-0.267c-0.949-0.011-1.875,0.059-2.78,0.211c-0.904,0.152-1.72,0.474-2.439,0.971
			c-0.719,0.493-1.312,1.197-1.779,2.113c-0.474,0.912-0.764,2.124-0.867,3.636c-0.111,1.453-0.289,3.458-0.541,6.019
			c-0.252,2.565-0.593,5.452-1.016,8.662c-0.43,3.213-0.949,6.623-1.571,10.233c-0.623,3.61-1.349,7.19-2.179,10.737
			c-0.83,3.551-1.772,6.949-2.832,10.196c-1.067,3.25-2.253,6.104-3.573,8.565c-1.327,2.461-2.772,4.422-4.344,5.886
			c-1.579,1.464-3.313,2.183-5.211,2.161c-1.097-0.015-2.009-0.426-2.743-1.234c-0.726-0.812-1.319-1.975-1.757-3.491
			c-0.445-1.52-0.749-3.354-0.912-5.504c-0.17-2.153-0.237-4.562-0.2-7.231c0.03-2.609,0.185-5.471,0.46-8.58
			c0.274-3.11,0.615-6.256,1.023-9.44c0.415-3.18,0.852-6.282,1.319-9.303c0.467-3.017,0.897-5.719,1.297-8.098
			c0.4-2.383,0.726-4.336,0.986-5.86c0.252-1.523,0.378-2.391,0.385-2.598c0.007-0.623-0.074-1.186-0.245-1.694
			c-0.178-0.504-0.474-0.941-0.897-1.301c-0.43-0.36-1.001-0.649-1.727-0.867c-0.726-0.215-1.646-0.33-2.772-0.345
			c-1.186-0.015-2.239,0.107-3.143,0.363c-0.912,0.256-1.705,0.708-2.394,1.349c-0.689,0.645-1.29,1.512-1.794,2.602
			c-0.497,1.093-0.941,2.45-1.312,4.077c-2.053,10.089-4.373,19.088-6.96,27.004c-0.734,2.246-1.52,4.466-2.342,6.664
			c-0.83,2.202-1.712,4.296-2.639,6.286c-0.927,1.99-1.89,3.84-2.891,5.545c-1.001,1.709-2.038,3.18-3.121,4.411
			c-1.082,1.234-2.202,2.198-3.351,2.895c-1.149,0.701-2.335,1.041-3.551,1.027c-1.216-0.015-2.261-0.415-3.143-1.197
			c-0.875-0.778-1.609-1.849-2.187-3.206c-0.571-1.357-0.993-2.947-1.253-4.774s-0.378-3.792-0.348-5.897
			c0.03-2.58,0.311-5.37,0.838-8.376c0.526-3.002,1.179-6.056,1.957-9.158c0.778-3.106,1.616-6.164,2.513-9.177
			c0.897-3.017,1.727-5.808,2.505-8.376c0.771-2.572,1.408-4.84,1.927-6.805c0.511-1.964,0.771-3.454,0.786-4.462
			c0.007-0.89-0.074-1.594-0.267-2.116c-0.185-0.519-0.46-0.923-0.83-1.208c-0.363-0.285-0.815-0.478-1.349-0.574
			c-0.526-0.096-1.119-0.145-1.772-0.156c-0.801-0.007-1.594,0.026-2.387,0.107c-0.786,0.078-1.564,0.345-2.342,0.793
			c-0.778,0.452-1.542,1.153-2.291,2.105c-0.756,0.956-1.512,2.291-2.276,3.999c-1.282,3.069-2.431,6.227-3.454,9.477
			c-1.016,3.25-1.875,6.531-2.587,9.844c-0.704,3.31-1.26,6.62-1.653,9.918c-0.393,3.302-0.615,6.527-0.652,9.67
			c-0.059,5.13,0.289,9.618,1.06,13.465c0.771,3.851,1.816,7.057,3.128,9.625c1.319,2.565,2.861,4.503,4.625,5.815
			s3.625,1.979,5.582,2.001c3.41,0.041,6.523-0.504,9.333-1.642c2.817-1.138,5.337-3.073,7.546-5.804
			c2.216-2.728,4.151-6.36,5.826-10.893c1.668-4.529,3.084-10.17,4.233-16.916c-0.104,0.978-0.237,2.087-0.4,3.332
			c-0.163,1.242-0.252,2.576-0.267,3.999c-0.052,3.884,0.185,7.55,0.712,10.993c0.519,3.447,1.379,6.453,2.58,9.017
			s2.772,4.6,4.729,6.108c1.957,1.505,4.336,2.276,7.153,2.309c2.224,0.026,4.388-0.367,6.486-1.19
			c2.105-0.819,4.121-1.994,6.049-3.528c1.935-1.534,3.766-3.395,5.493-5.582c1.735-2.187,3.358-4.651,4.87-7.39
			c0.163,1.423,0.46,2.657,0.889,3.703c0.437,1.042,0.978,1.894,1.638,2.554c0.66,0.663,1.416,1.153,2.276,1.475
			c0.852,0.322,1.772,0.489,2.75,0.5c2.046,0.022,4.24-0.675,6.59-2.102c0.504-0.306,0.993-0.735,1.492-1.091
			c0.162-1.945,0.381-4.415,0.665-7.485C311.539,279.175,311.578,278.862,311.606,278.582z"/>
		<path fill="#FCFCFC" d="M354.848,284.584c-0.719,0.583-1.471,1.142-2.268,1.674c-0.823,0.545-1.646,1.019-2.483,1.431
			c-0.838,0.408-1.66,0.73-2.483,0.96c-0.823,0.233-1.586,0.319-2.298,0.263c-0.563-0.044-0.993-0.437-1.29-1.175
			c-0.297-0.738-0.4-1.697-0.304-2.88c0.17-2.157,0.608-4.203,1.312-6.141c0.712-1.935,1.468-3.832,2.29-5.686
			c0.815-1.853,1.579-3.71,2.291-5.571c0.719-1.861,1.156-3.795,1.312-5.808c0.082-1.004,0.015-1.835-0.2-2.491
			c-0.215-0.656-0.511-1.179-0.882-1.564c-0.371-0.389-0.771-0.667-1.201-0.834c-0.43-0.171-0.83-0.267-1.179-0.297
			c-1.423-0.111-2.98,0.293-4.67,1.212c-1.698,0.919-3.425,2.105-5.174,3.558s-3.454,3.032-5.107,4.744
			c-1.653,1.712-3.15,3.317-4.492,4.818l-0.838-0.693c1.156-1.783,2.491-3.847,4.003-6.193c1.505-2.35,3.054-4.848,4.633-7.505
			c1.579-2.654,3.143-5.4,4.677-8.239c1.534-2.835,2.928-5.645,4.173-8.432c1.253-2.783,2.29-5.485,3.121-8.095
			c0.838-2.609,1.342-5.007,1.512-7.198c0.119-1.475,0.111-2.824-0.03-4.04c-0.141-1.216-0.482-2.276-1.016-3.18
			c-0.541-0.908-1.297-1.638-2.283-2.19c-0.978-0.556-2.268-0.897-3.862-1.023c-3.076-0.245-5.863,0.393-8.369,1.92
			c-2.498,1.523-4.744,3.673-6.738,6.442c-1.994,2.772-3.751,6.023-5.285,9.751c-1.534,3.732-2.876,7.668-4.025,11.816
			c-1.149,4.147-2.113,8.361-2.906,12.639c-0.786,4.281-1.453,8.361-2.001,12.246c-0.502,3.548-0.886,6.777-1.182,9.758
			c-0.028,0.28-0.067,0.593-0.093,0.868c-0.284,3.07-0.503,5.54-0.665,7.485c-0.007,0.086-0.018,0.207-0.024,0.29
			c-0.096,1.242-0.148,2.457-0.156,3.647c-0.007,1.19,0.104,2.261,0.326,3.217c0.215,0.953,0.586,1.735,1.104,2.342
			c0.519,0.604,1.26,0.949,2.239,1.027c0.741,0.056,1.357-0.056,1.853-0.345c0.504-0.285,0.978-0.73,1.423-1.334
			c0.452-0.604,0.927-1.386,1.416-2.342c0.497-0.956,1.119-2.076,1.875-3.354c1.512-2.583,3.18-5.078,4.989-7.476
			c1.816-2.398,3.558-4.548,5.226-6.453s3.158-3.473,4.462-4.707c1.297-1.234,2.216-1.994,2.743-2.279l0.919,0.208
			c-0.096,0.082-0.311,0.393-0.652,0.93s-0.741,1.234-1.216,2.087c-0.467,0.856-0.978,1.827-1.527,2.913s-1.053,2.205-1.52,3.358
			c-0.46,1.153-0.867,2.305-1.208,3.451c-0.348,1.149-0.556,2.194-0.63,3.139c-0.111,1.42-0.044,2.943,0.215,4.57
			c0.252,1.627,0.712,3.143,1.379,4.548c0.66,1.408,1.549,2.594,2.676,3.562c1.134,0.967,2.505,1.516,4.136,1.646
			c1.06,0.085,2.187-0.004,3.388-0.263c1.193-0.263,2.394-0.619,3.61-1.075c1.208-0.452,2.424-0.986,3.632-1.605
			c1.208-0.615,2.335-1.234,3.38-1.849c0.509-0.3,0.927-0.57,1.394-0.856c-0.712-1.699-1.238-3.505-1.46-5.482
			C354.69,287.159,354.831,285.872,354.848,284.584z M325.36,260.548c-1.119,2.113-2.15,4.066-3.098,5.863
			c0.534-3.347,1.193-6.76,1.979-10.237c0.326-1.49,0.697-3.061,1.112-4.707c0.415-1.649,0.86-3.325,1.334-5.026
			c0.482-1.701,1.001-3.406,1.571-5.115c0.571-1.712,1.171-3.358,1.801-4.944c2.424-4.626,4.485-8.132,6.197-10.526
			c1.705-2.391,2.943-3.558,3.714-3.495c0.593,0.048,0.793,1.193,0.615,3.439c-0.119,1.479-0.689,3.74-1.72,6.779
			c-1.038,3.039-2.602,6.753-4.707,11.134c-0.638,1.29-1.438,2.854-2.409,4.696c-0.964,1.842-1.987,3.795-3.076,5.867
			C327.584,256.345,326.479,258.435,325.36,260.548z"/>
		<path fill="#FCFCFC" d="M387.715,276.811c-0.2-1.953-0.623-3.832-1.275-5.641l0.415-0.445c0.971,0.834,2.135,1.861,3.484,3.084
			c0.305,0.276,0.618,0.593,0.925,0.876c1.059-1.898,2.107-3.801,3.128-5.723c-0.524-0.514-0.959-1.13-1.51-1.613
			c-1.964-1.712-4.114-3.15-6.456-4.31c-2.335-1.16-4.907-1.909-7.702-2.242c-3.269-0.389-6.286-0.145-9.043,0.734
			c-2.765,0.882-5.174,2.25-7.235,4.11c-2.061,1.861-3.743,4.136-5.048,6.831c-1.305,2.698-2.157,5.663-2.543,8.903
			c-0.128,1.07,0.007,2.141-0.007,3.211c-0.017,1.288-0.158,2.575-0.007,3.865c0.222,1.977,0.749,3.783,1.46,5.482
			c0.138,0.33,0.228,0.688,0.385,1.008c0.956,1.968,2.29,3.628,3.995,4.981s3.855,2.183,6.442,2.494
			c1.801,0.211,3.528,0.107,5.189-0.322c0.888-0.229,1.672-0.7,2.502-1.062c4.546-6.547,8.843-13.271,12.896-20.163
			C387.78,279.552,387.862,278.241,387.715,276.811z M379.48,279.209c-0.2,1.705-0.63,3.469-1.282,5.289
			c-0.645,1.82-1.416,3.458-2.305,4.918c-0.897,1.46-1.875,2.643-2.935,3.547c-1.067,0.904-2.098,1.297-3.099,1.175
			c-1.149-0.137-2.105-0.497-2.869-1.082c-0.771-0.582-1.357-1.308-1.757-2.179c-0.408-0.867-0.66-1.861-0.763-2.98
			c-0.104-1.116-0.082-2.294,0.067-3.532c0.208-1.794,0.667-3.636,1.371-5.522c0.704-1.887,1.564-3.584,2.58-5.089
			c1.016-1.508,2.127-2.709,3.343-3.61c1.208-0.901,2.424-1.279,3.632-1.134c0.912,0.107,1.66,0.452,2.246,1.03
			s1.038,1.316,1.349,2.22s0.497,1.95,0.563,3.136C379.687,276.582,379.643,277.853,379.48,279.209z"/>
	</g>
	<g>
		<path fill="#D01A27" d="M419.73,256.445c1.786-2.909,3.402-5.834,4.84-8.78s2.491-5.734,3.158-8.361
			c0.126-0.849,0.215-1.579,0.267-2.187c0.044-0.608-0.052-0.93-0.282-0.964c-0.852-0.13-1.853,0.282-3.002,1.23
			c-1.149,0.953-2.357,2.291-3.625,4.018s-2.535,3.769-3.81,6.123c-1.268,2.357-2.468,4.889-3.603,7.598
			c-1.127,2.706-2.127,5.519-2.987,8.428c-0.86,2.913-1.505,5.778-1.935,8.591c1.675-2.142,3.477-4.57,5.404-7.276
			C416.076,262.16,417.937,259.351,419.73,256.445z"/>
		<path fill="#CECECE" d="M394.424,277.66c0.613,0.606,1.149,1.233,1.73,1.848c0.357-2.195,0.891-4.549,1.558-7.021
			c-1.02-1.275-2.163-2.409-3.312-3.536c-1.022,1.922-2.07,3.824-3.128,5.723C392.316,275.64,393.36,276.61,394.424,277.66z"/>
		<path fill="#CECECE" d="M377.011,300.08c1.46-0.897,2.809-2.009,4.025-3.325c1.216-1.319,2.283-2.758,3.202-4.322
			s1.675-3.206,2.268-4.926c0.593-1.72,0.993-3.447,1.201-5.185c0.055-0.457-0.024-0.983,0.002-1.455
			c-4.047,6.883-8.337,13.599-12.876,20.136C375.556,300.688,376.331,300.497,377.011,300.08z"/>
		<g>
			<path fill="#CECECE" d="M437.298,229.285c-0.326-1.008-0.852-1.861-1.586-2.557c-0.734-0.697-1.735-1.142-2.995-1.331
				c-1.846-0.282-3.751,0-5.708,0.841c-1.957,0.845-3.906,2.116-5.841,3.814c-1.935,1.701-3.855,3.751-5.745,6.149
				c-1.898,2.394-3.706,5.007-5.441,7.831c-1.735,2.828-3.358,5.804-4.863,8.936c-1.512,3.128-2.876,6.264-4.107,9.407
				c-1.223,3.143-2.261,6.219-3.106,9.225c-0.089,0.316-0.113,0.574-0.196,0.887c-0.666,2.471-1.201,4.826-1.558,7.021
				c-0.026,0.161-0.09,0.354-0.114,0.513c-0.511,3.399-0.719,6.69-0.615,9.87c0.096,3.18,0.482,6.019,1.134,8.517
				s1.557,4.548,2.713,6.145c1.149,1.601,2.52,2.52,4.099,2.761c1.001,0.152,2.09,0.174,3.276,0.07
				c1.186-0.107,2.409-0.3,3.684-0.589c1.275-0.285,2.55-0.641,3.832-1.06c1.275-0.423,2.52-0.856,3.729-1.301
				c1.029-0.401,2.109-0.97,3.155-1.426c-0.625-1.493-1.116-3.056-1.317-4.764c-0.203-1.676-0.146-3.385,0.029-5.109
				c-0.661,0.333-1.385,0.764-2.023,1.061c-0.875,0.408-1.772,0.804-2.706,1.19c-0.927,0.382-1.824,0.712-2.691,0.986
				c-0.867,0.271-1.675,0.471-2.424,0.597c-0.756,0.126-1.416,0.145-1.972,0.063c-0.23-0.037-0.46-0.245-0.667-0.619
				c-0.215-0.378-0.393-0.871-0.541-1.479c-0.148-0.608-0.252-1.282-0.304-2.024s-0.015-1.494,0.096-2.257l0.096-0.615
				c0.178-0.574,0.385-1.156,0.623-1.749c0.237-0.593,0.474-1.149,0.704-1.672c0.23-0.519,0.46-1.001,0.689-1.445
				c0.237-0.445,0.445-0.804,0.637-1.075c1.749-2.435,3.603-4.918,5.559-7.453c1.964-2.539,3.921-5.122,5.878-7.746
				c1.957-2.628,3.862-5.285,5.708-7.976c1.853-2.687,3.528-5.393,5.033-8.121c1.512-2.724,2.795-5.467,3.862-8.232
				c1.06-2.761,1.801-5.519,2.224-8.276c0.185-1.23,0.274-2.454,0.259-3.669C437.795,231.409,437.625,230.293,437.298,229.285z
				 M421.087,241.401c1.268-1.727,2.476-3.065,3.625-4.018c1.149-0.949,2.15-1.36,3.002-1.23c0.23,0.033,0.326,0.356,0.282,0.964
				c-0.052,0.608-0.141,1.338-0.267,2.187c-0.667,2.628-1.72,5.415-3.158,8.361s-3.054,5.871-4.84,8.78
				c-1.794,2.906-3.654,5.715-5.574,8.421c-1.927,2.706-3.729,5.133-5.404,7.276c0.43-2.813,1.075-5.678,1.935-8.591
				c0.86-2.909,1.861-5.723,2.987-8.428"/>
		</g>
		<path fill="#CECECE" d="M419.73,298.245c0.201,1.707,0.691,3.27,1.317,4.764c0.227,0.543,0.41,1.108,0.692,1.622
			c1.06,1.931,2.52,3.58,4.396,4.952c1.868,1.371,4.181,2.313,6.916,2.821c1.749,0.322,3.514,0.445,5.293,0.367
			s3.521-0.297,5.233-0.66s3.365-0.83,4.966-1.408s3.106-1.19,4.522-1.835c3.262-1.505,6.427-3.347,9.481-5.526l-4.559-6.905
			c-1.342,0.897-2.943,1.816-4.803,2.754c-1.861,0.934-3.81,1.757-5.841,2.468c-2.031,0.708-4.077,1.234-6.145,1.575
			s-3.981,0.348-5.73,0.026c-0.556-0.104-1.06-0.256-1.52-0.463c-0.46-0.204-0.882-0.493-1.26-0.867
			c-0.385-0.371-0.741-0.86-1.067-1.46c-0.326-0.604-0.63-1.342-0.927-2.209c2.669-0.23,5.204-0.771,7.605-1.623
			c2.402-0.849,4.544-1.931,6.412-3.247c1.875-1.308,3.417-2.787,4.648-4.433c1.223-1.642,2.001-3.365,2.335-5.174
			c0.304-1.66,0.297-3.217-0.044-4.666c-0.334-1.449-0.927-2.743-1.786-3.884c-0.86-1.138-1.942-2.098-3.247-2.884
			c-1.305-0.782-2.772-1.327-4.403-1.627c-2.009-0.374-3.906-0.356-5.686,0.056c-1.779,0.408-3.447,1.097-4.996,2.061
			c-1.549,0.964-2.965,2.15-4.255,3.554c-1.282,1.405-2.417,2.921-3.395,4.551c-0.978,1.627-1.801,3.321-2.454,5.085
			c-0.66,1.764-1.142,3.462-1.445,5.092c-0.124,0.678-0.155,1.344-0.223,2.015C419.584,294.86,419.528,296.569,419.73,298.245z
			 M433.807,283.027c0.541-0.878,1.179-1.634,1.912-2.268c0.734-0.634,1.594-1.101,2.565-1.401c0.978-0.304,2.09-0.337,3.343-0.107
			c0.704,0.13,1.216,0.663,1.542,1.597s0.363,2.057,0.119,3.369c-0.171,0.934-0.712,1.827-1.623,2.683
			c-0.912,0.86-1.979,1.612-3.202,2.261s-2.498,1.127-3.84,1.434c-1.342,0.311-2.535,0.371-3.58,0.174
			c0.119-0.641,0.289-1.408,0.511-2.302"/>
	</g>
</g>
</svg>
