<?xml version="1.0" encoding="utf-8"?>
<!-- Generator: Adobe Illustrator 17.0.0, SVG Export Plug-In . SVG Version: 6.00 Build 0)  -->
<!DOCTYPE svg PUBLIC "-//W3C//DTD SVG 1.1//EN" "http://www.w3.org/Graphics/SVG/1.1/DTD/svg11.dtd">
<svg version="1.1" id="Calque_1" xmlns="http://www.w3.org/2000/svg" xmlns:xlink="http://www.w3.org/1999/xlink" x="0px" y="0px"
	 width="162.982px" height="162.982px" viewBox="0 0 162.982 162.982" enable-background="new 0 0 162.982 162.982"
	 xml:space="preserve">
<g>
	<circle fill="#F49819" cx="81.491" cy="81.491" r="81.491"/>
	<path fill="#D07D10" d="M137.865,22.649c6.324,12.46,9.891,26.554,9.891,41.483c0,50.692-41.094,91.786-91.786,91.786
		c-2.898,0-5.763-0.141-8.593-0.404c10.378,4.791,21.932,7.468,34.113,7.468c45.006,0,81.491-36.485,81.491-81.491
		C162.982,58.36,153.343,37.482,137.865,22.649z"/>
	<g>
		<circle fill="#D07D10" cx="100.675" cy="32.748" r="10.969"/>
		<path fill="#BF7414" d="M103.101,41.1c-6.619-0.4-11.866-5.374-12.873-11.66c-0.266,0.843-0.446,1.725-0.502,2.647
			c-0.365,6.047,4.241,11.245,10.288,11.61c3.351,0.202,6.438-1.126,8.59-3.377C106.891,40.931,105.03,41.216,103.101,41.1z"/>
	</g>
	<g>
		<circle fill="#D07D10" cx="30.684" cy="93.897" r="11.696"/>
		<path fill="#BF7414" d="M34.835,102.189c-7.019,0.854-13.479-3.353-15.744-9.752c-0.117,0.935-0.136,1.895-0.017,2.873
			c0.78,6.412,6.611,10.978,13.024,10.197c3.554-0.433,6.535-2.42,8.359-5.194C38.778,101.284,36.881,101.94,34.835,102.189z"/>
	</g>
	<g>
		<circle fill="#D07D10" cx="35.676" cy="130.148" r="4.647"/>
		<path fill="#BF7414" d="M38.682,132.277c-2.3,1.612-5.352,1.346-7.343-0.473c0.134,0.35,0.307,0.69,0.531,1.01
			c1.473,2.102,4.371,2.611,6.472,1.138c1.165-0.816,1.838-2.071,1.958-3.384C39.895,131.222,39.353,131.807,38.682,132.277z"/>
	</g>
	<g>
		<circle fill="#D07D10" cx="128.136" cy="66.154" r="7.115"/>
		<path fill="#BF7414" d="M130.661,71.199c-4.27,0.52-8.2-2.04-9.578-5.933c-0.071,0.569-0.083,1.153-0.011,1.748
			c0.475,3.901,4.022,6.678,7.923,6.204c2.162-0.263,3.976-1.472,5.085-3.16C133.06,70.648,131.906,71.047,130.661,71.199z"/>
	</g>
	<g>
		<circle fill="#BF7414" cx="149.817" cy="105.813" r="6.348"/>
		<path fill="#A66515" d="M152.07,110.314c-3.809,0.464-7.315-1.82-8.545-5.293c-0.064,0.507-0.074,1.029-0.009,1.559
			c0.424,3.48,3.588,5.958,7.068,5.534c1.929-0.235,3.547-1.313,4.537-2.819C154.21,109.822,153.18,110.178,152.07,110.314z"/>
	</g>
	<g>
		<circle fill="#BF7414" cx="112.162" cy="151.493" r="2.258"/>
		<path fill="#A66515" d="M112.964,153.094c-1.355,0.165-2.602-0.647-3.039-1.883c-0.023,0.18-0.026,0.366-0.003,0.555
			c0.151,1.238,1.276,2.119,2.514,1.969c0.686-0.083,1.262-0.467,1.614-1.003C113.725,152.919,113.359,153.046,112.964,153.094z"/>
	</g>
	<g>
		<circle fill="#BF7414" cx="124.56" cy="140.742" r="3.343"/>
		<path fill="#A66515" d="M125.747,143.112c-2.006,0.244-3.853-0.959-4.501-2.788c-0.033,0.267-0.039,0.542-0.005,0.821
			c0.223,1.833,1.89,3.138,3.723,2.915c1.016-0.124,1.868-0.692,2.389-1.485C126.874,142.854,126.332,143.041,125.747,143.112z"/>
	</g>
	<g>
		<circle fill="#D07D10" cx="61.408" cy="24.36" r="4.487"/>
		<path fill="#BF7414" d="M63.001,27.542c-2.693,0.328-5.171-1.286-6.04-3.741c-0.045,0.359-0.052,0.727-0.007,1.102
			c0.299,2.46,2.536,4.212,4.996,3.912c1.363-0.166,2.507-0.928,3.207-1.993C64.513,27.194,63.786,27.446,63.001,27.542z"/>
	</g>
	<g>
		<circle fill="#D07D10" cx="22.335" cy="49.845" r="6.769"/>
		<path fill="#BF7414" d="M25.035,54.483c-4.023,0.75-7.907-1.445-9.45-5.058c-0.033,0.544-0.01,1.1,0.095,1.66
			c0.685,3.675,4.219,6.099,7.894,5.414c2.037-0.38,3.686-1.636,4.638-3.305C27.279,53.816,26.208,54.265,25.035,54.483z"/>
	</g>
	<g>
		<circle fill="#D07D10" cx="83.863" cy="132.317" r="1.781"/>
		<path fill="#BF7414" d="M84.574,133.537c-1.058,0.197-2.08-0.38-2.486-1.331c-0.009,0.143-0.003,0.289,0.025,0.437
			c0.18,0.967,1.11,1.605,2.077,1.424c0.536-0.1,0.97-0.43,1.22-0.87C85.164,133.362,84.882,133.48,84.574,133.537z"/>
	</g>
	<g>
		<path fill="#995D15" d="M46.047,58.185c8.46-2.205,16.852-2.67,25.179-1.399c8.326,1.271,16.001,3.969,23.027,8.088
			c7.025,4.122,13.124,9.504,18.299,16.151c5.173,6.647,8.862,14.198,11.067,22.659l-11.783,3.071
			c-1.785-6.848-4.774-12.953-8.967-18.313c-4.193-5.36-9.126-9.703-14.796-13.029c-5.671-3.325-11.868-5.512-18.594-6.556
			c-6.725-1.044-13.512-0.674-20.36,1.111L46.047,58.185z M51.48,79.032c5.572-1.452,11.107-1.746,16.601-0.885
			c5.495,0.864,10.57,2.66,15.225,5.39c4.654,2.731,8.699,6.284,12.134,10.658c3.434,4.376,5.878,9.349,7.331,14.922l-11.985,3.123
			c-0.997-3.826-2.656-7.302-4.976-10.427c-2.32-3.123-5.215-5.702-8.685-7.738c-3.471-2.035-7.144-3.337-11.02-3.905
			c-3.876-0.566-7.727-0.351-11.555,0.646L51.48,79.032z M65.989,101.279c2.282-0.595,4.418-0.308,6.407,0.858
			c1.988,1.167,3.281,2.891,3.876,5.173c0.595,2.283,0.308,4.421-0.858,6.408c-1.167,1.99-2.892,3.281-5.174,3.876
			c-2.284,0.595-4.42,0.31-6.408-0.858c-1.989-1.165-3.281-2.891-3.876-5.174c-0.595-2.282-0.309-4.418,0.858-6.407
			C61.981,103.166,63.705,101.874,65.989,101.279z"/>
	</g>
	<g>
		<path fill="#FFFFFF" d="M46.047,55.4c8.46-2.205,16.852-2.67,25.179-1.399c8.326,1.271,16.001,3.969,23.027,8.088
			c7.025,4.122,13.124,9.504,18.299,16.151c5.173,6.647,8.862,14.198,11.067,22.659l-11.783,3.071
			c-1.785-6.848-4.774-12.953-8.967-18.313c-4.193-5.36-9.126-9.703-14.796-13.029c-5.671-3.325-11.868-5.512-18.594-6.556
			c-6.725-1.044-13.512-0.674-20.36,1.111L46.047,55.4z M51.48,76.247c5.572-1.452,11.107-1.746,16.601-0.885
			c5.495,0.864,10.57,2.66,15.225,5.39c4.654,2.731,8.699,6.284,12.134,10.658c3.434,4.376,5.878,9.349,7.331,14.922l-11.985,3.123
			c-0.997-3.826-2.656-7.302-4.976-10.427c-2.32-3.122-5.215-5.702-8.685-7.738c-3.471-2.035-7.144-3.337-11.02-3.905
			c-3.876-0.566-7.727-0.351-11.555,0.646L51.48,76.247z M65.989,98.494c2.282-0.595,4.418-0.308,6.407,0.858
			c1.988,1.167,3.281,2.891,3.876,5.173c0.595,2.283,0.308,4.421-0.858,6.408c-1.167,1.99-2.892,3.281-5.174,3.876
			c-2.284,0.595-4.42,0.31-6.408-0.858c-1.989-1.165-3.281-2.891-3.876-5.174c-0.595-2.282-0.309-4.418,0.858-6.407
			C61.981,100.382,63.705,99.089,65.989,98.494z"/>
	</g>
</g>
</svg>
