<?xml version="1.0" encoding="utf-8"?>
<!-- Generator: Adobe Illustrator 17.0.0, SVG Export Plug-In . SVG Version: 6.00 Build 0)  -->
<!DOCTYPE svg PUBLIC "-//W3C//DTD SVG 1.1//EN" "http://www.w3.org/Graphics/SVG/1.1/DTD/svg11.dtd">
<svg version="1.1" id="Calque_1" xmlns="http://www.w3.org/2000/svg" xmlns:xlink="http://www.w3.org/1999/xlink" x="0px" y="0px"
	 width="152.709px" height="198.043px" viewBox="651.41 -166.806 152.709 198.043"
	 enable-background="new 651.41 -166.806 152.709 198.043" xml:space="preserve">
<ellipse fill="#D01A27" cx="662.554" cy="26.482" rx="11.144" ry="4.755"/>
<path fill="#FFFFFF" d="M804.117-141.388l-46.103,31.831l46.105,31.731l-138.365,0.646v-64.207H804.117z"/>
<g>
	<path fill="#191919" d="M696.505-102.495c-0.422,0.181-0.831,0.42-1.227,0.716s-0.796,0.622-1.201,0.974
		c-0.404,0.353-0.824,0.725-1.259,1.117c-0.435,0.392-0.903,0.779-1.407,1.162c-0.504,0.383-1.052,0.749-1.646,1.097
		c-0.594,0.349-1.251,0.654-1.969,0.917c-0.718,0.262-1.51,0.471-2.375,0.626c-0.865,0.155-1.822,0.232-2.872,0.232
		c-1.161,0-2.209-0.235-3.143-0.703c-0.934-0.469-1.732-1.102-2.395-1.898c-0.663-0.796-1.173-1.721-1.53-2.775
		c-0.357-1.054-0.536-2.162-0.536-3.324c0-0.792,0.086-1.641,0.258-2.549c0.172-0.908,0.42-1.833,0.742-2.775
		c0.322-0.942,0.716-1.882,1.181-2.821c0.465-0.938,0.992-1.837,1.581-2.698c0.59-0.861,1.237-1.659,1.943-2.394
		c0.705-0.736,1.458-1.377,2.259-1.923c0.801-0.546,1.644-0.974,2.53-1.284c0.886-0.31,1.807-0.465,2.762-0.465
		c0.619,0,1.248,0.11,1.884,0.329c0.637,0.219,1.209,0.557,1.717,1.013s0.923,1.033,1.246,1.73c0.322,0.697,0.484,1.519,0.484,2.465
		c0,0.637-0.101,1.28-0.303,1.93c-0.203,0.65-0.48,1.274-0.833,1.872c-0.353,0.598-0.768,1.16-1.246,1.685
		c-0.478,0.525-0.992,0.979-1.542,1.362c-0.551,0.383-1.123,0.686-1.717,0.91s-1.187,0.336-1.781,0.336
		c-0.784,0-1.369-0.105-1.756-0.316c-0.387-0.211-0.581-0.514-0.581-0.91c0-0.069-0.003-0.15-0.007-0.245
		c-0.005-0.095-0.006-0.194-0.006-0.297c0-0.155,0.008-0.316,0.026-0.484c0.018-0.168,0.052-0.32,0.104-0.458
		c0.052-0.137,0.127-0.249,0.226-0.335c0.099-0.086,0.234-0.129,0.406-0.129c0.103,0,0.194,0.015,0.271,0.045
		c0.077,0.03,0.163,0.063,0.258,0.097c0.095,0.035,0.209,0.067,0.342,0.097c0.133,0.03,0.303,0.045,0.51,0.045
		c0.551,0,1.108-0.12,1.672-0.361c0.564-0.241,1.071-0.581,1.523-1.02c0.452-0.439,0.822-0.962,1.11-1.568
		c0.288-0.607,0.433-1.276,0.433-2.007c0-0.387-0.052-0.755-0.155-1.104c-0.103-0.348-0.271-0.654-0.503-0.916
		s-0.532-0.473-0.897-0.633c-0.366-0.159-0.812-0.239-1.336-0.239c-0.619,0-1.224,0.135-1.814,0.407
		c-0.589,0.271-1.155,0.639-1.697,1.104c-0.542,0.465-1.056,1.016-1.542,1.652c-0.487,0.637-0.936,1.319-1.349,2.046
		c-0.413,0.727-0.785,1.484-1.116,2.272c-0.331,0.787-0.613,1.573-0.846,2.356c-0.232,0.783-0.411,1.542-0.536,2.278
		c-0.125,0.736-0.187,1.413-0.187,2.033c0,0.886,0.11,1.659,0.329,2.317c0.219,0.658,0.531,1.207,0.936,1.646
		c0.404,0.439,0.899,0.766,1.484,0.981c0.585,0.215,1.244,0.323,1.975,0.323c0.912,0,1.762-0.114,2.549-0.342
		c0.787-0.228,1.538-0.527,2.253-0.897c0.714-0.37,1.405-0.787,2.072-1.252c0.667-0.465,1.334-0.931,2.001-1.4
		c0.667-0.469,1.347-0.917,2.04-1.342c0.692-0.426,1.426-0.785,2.201-1.078V-102.495z"/>
	<path fill="#191919" d="M696.828-98.132c-0.465,0-0.897-0.204-1.297-0.613c-0.4-0.409-0.749-0.957-1.046-1.646
		s-0.529-1.487-0.697-2.394c-0.168-0.908-0.252-1.861-0.252-2.859c0-0.766,0.056-1.598,0.168-2.498
		c0.112-0.899,0.275-1.827,0.491-2.782s0.471-1.915,0.768-2.879c0.297-0.964,0.633-1.889,1.007-2.775
		c0.374-0.886,0.781-1.715,1.22-2.485c0.439-0.77,0.899-1.441,1.381-2.014c0.482-0.572,0.985-1.022,1.51-1.349
		c0.525-0.327,1.058-0.49,1.6-0.49c0.37,0,0.675,0.084,0.917,0.252c0.241,0.168,0.43,0.389,0.568,0.665
		c0.138,0.276,0.234,0.587,0.29,0.936c0.056,0.348,0.084,0.703,0.084,1.065c0,0.809-0.093,1.633-0.277,2.472
		c-0.185,0.839-0.435,1.682-0.749,2.53c-0.314,0.848-0.678,1.697-1.091,2.549c-0.413,0.852-0.843,1.697-1.291,2.536
		c-0.448,0.839-0.897,1.665-1.349,2.478c-0.452,0.813-0.876,1.607-1.272,2.381c-0.043,0.086-0.089,0.198-0.136,0.336
		c-0.048,0.138-0.093,0.286-0.136,0.445c-0.043,0.159-0.086,0.329-0.129,0.51c-0.043,0.181-0.077,0.357-0.103,0.529v0.18
		c0,0.224,0.023,0.441,0.071,0.652c0.047,0.211,0.105,0.4,0.174,0.568c0.069,0.168,0.142,0.301,0.219,0.4
		c0.078,0.099,0.151,0.148,0.22,0.148c0.163,0,0.35-0.034,0.561-0.103c0.211-0.069,0.435-0.161,0.671-0.278
		c0.237-0.116,0.48-0.25,0.729-0.4c0.249-0.15,0.491-0.303,0.723-0.458c0.542-0.361,1.11-0.779,1.704-1.252l1.059,2.711
		c-0.766,0.551-1.523,1.041-2.272,1.472c-0.327,0.181-0.665,0.359-1.013,0.536c-0.349,0.176-0.699,0.334-1.052,0.471
		c-0.353,0.138-0.697,0.248-1.033,0.329C697.435-98.173,697.12-98.132,696.828-98.132z M696.841-108.459
		c0.387-0.688,0.798-1.463,1.233-2.323c0.435-0.86,0.846-1.747,1.233-2.659c0.387-0.912,0.723-1.822,1.007-2.73
		c0.284-0.908,0.465-1.753,0.542-2.536c0-0.25-0.007-0.463-0.02-0.639c-0.013-0.176-0.054-0.265-0.123-0.265
		c-0.249,0-0.519,0.161-0.807,0.484c-0.288,0.323-0.577,0.76-0.865,1.31c-0.288,0.551-0.564,1.192-0.826,1.923
		c-0.263,0.731-0.497,1.51-0.703,2.336c-0.207,0.826-0.37,1.676-0.491,2.549C696.901-110.135,696.841-109.285,696.841-108.459z"/>
	<path fill="#191919" d="M709.22-100.882c-0.31,0.284-0.695,0.587-1.155,0.91c-0.46,0.323-0.957,0.62-1.491,0.891
		c-0.534,0.271-1.078,0.497-1.633,0.678c-0.555,0.181-1.082,0.271-1.581,0.271c-0.448,0-0.824-0.062-1.129-0.187
		c-0.305-0.125-0.553-0.299-0.742-0.523c-0.189-0.224-0.325-0.497-0.406-0.82c-0.082-0.323-0.123-0.678-0.123-1.065
		c0-0.542,0.063-1.172,0.187-1.891c0.125-0.718,0.278-1.463,0.458-2.233c0.181-0.77,0.372-1.538,0.575-2.304
		c0.202-0.766,0.381-1.472,0.536-2.117c0.06-0.224,0.181-0.415,0.361-0.574c0.181-0.159,0.385-0.288,0.613-0.387
		c0.228-0.099,0.465-0.172,0.71-0.22s0.467-0.071,0.665-0.071c0.361,0,0.606,0.067,0.735,0.2c0.129,0.133,0.194,0.312,0.194,0.536
		c0,0.189-0.043,0.463-0.129,0.82c-0.086,0.357-0.194,0.762-0.322,1.214c-0.129,0.452-0.267,0.938-0.413,1.459
		c-0.147,0.521-0.284,1.041-0.414,1.562c-0.129,0.521-0.237,1.028-0.322,1.523c-0.086,0.495-0.129,0.94-0.129,1.336
		c0,0.387,0.043,0.695,0.129,0.923c0.086,0.228,0.262,0.342,0.529,0.342c0.31,0,0.654-0.108,1.033-0.323
		c0.378-0.215,0.761-0.475,1.149-0.781c0.387-0.305,0.765-0.622,1.136-0.949c0.369-0.327,0.697-0.607,0.981-0.839V-100.882z
		 M703.45-114.151c0-0.198,0.043-0.422,0.129-0.671c0.086-0.25,0.226-0.484,0.419-0.703c0.194-0.22,0.452-0.405,0.774-0.555
		c0.323-0.15,0.725-0.226,1.207-0.226c0.301,0,0.585,0.035,0.852,0.103c0.267,0.069,0.499,0.174,0.697,0.316
		c0.198,0.142,0.355,0.329,0.472,0.561c0.116,0.232,0.174,0.508,0.174,0.826c0,0.293-0.048,0.577-0.142,0.852
		c-0.095,0.276-0.245,0.521-0.452,0.736c-0.207,0.215-0.467,0.389-0.781,0.523c-0.314,0.133-0.691,0.2-1.13,0.2
		c-0.757,0-1.316-0.178-1.678-0.536C703.631-113.082,703.45-113.557,703.45-114.151z"/>
	<path fill="#191919" d="M712.292-98.132c-0.792,0-1.487-0.146-2.085-0.439c-0.598-0.293-1.1-0.684-1.504-1.175
		c-0.404-0.491-0.71-1.059-0.917-1.704c-0.207-0.645-0.31-1.317-0.31-2.014c0-0.499,0.052-1.02,0.155-1.562
		c0.103-0.542,0.256-1.074,0.458-1.594c0.202-0.521,0.452-1.018,0.748-1.491s0.641-0.889,1.033-1.246
		c0.391-0.357,0.828-0.641,1.31-0.852c0.482-0.211,1.011-0.316,1.588-0.316c0.49,0,0.944,0.076,1.362,0.226
		c0.417,0.151,0.774,0.359,1.071,0.626c0.297,0.267,0.529,0.583,0.697,0.949c0.168,0.366,0.252,0.76,0.252,1.181
		c0,0.293-0.039,0.581-0.116,0.865c-0.078,0.284-0.192,0.54-0.342,0.768c-0.151,0.228-0.334,0.411-0.549,0.549
		c-0.215,0.138-0.456,0.207-0.723,0.207c-0.404,0-0.669-0.108-0.794-0.323c-0.125-0.215-0.187-0.512-0.187-0.891
		c0-0.155,0.006-0.318,0.02-0.49c0.013-0.172,0.02-0.327,0.02-0.465c0-0.207-0.022-0.378-0.065-0.516
		c-0.043-0.138-0.138-0.207-0.284-0.207c-0.353,0-0.654,0.084-0.904,0.252c-0.25,0.168-0.463,0.387-0.639,0.658
		c-0.176,0.271-0.316,0.577-0.42,0.916c-0.103,0.34-0.185,0.678-0.245,1.014c-0.061,0.335-0.099,0.656-0.116,0.961
		c-0.018,0.306-0.026,0.562-0.026,0.768c0,0.31,0.028,0.633,0.084,0.968c0.056,0.336,0.161,0.644,0.316,0.923
		c0.155,0.28,0.366,0.512,0.633,0.697c0.266,0.185,0.611,0.278,1.032,0.278c0.413,0,0.869-0.127,1.369-0.381
		c0.499-0.254,1-0.574,1.503-0.962c0.504-0.387,0.983-0.813,1.439-1.278c0.456-0.465,0.848-0.904,1.175-1.317l0.891,1.497
		c-0.645,0.921-1.343,1.743-2.091,2.466c-0.318,0.31-0.665,0.611-1.039,0.904c-0.375,0.293-0.766,0.553-1.174,0.781
		c-0.409,0.228-0.835,0.413-1.278,0.555C713.198-98.203,712.748-98.132,712.292-98.132z"/>
	<path fill="#191919" d="M721.947-105.348c0.31-0.396,0.65-0.83,1.02-1.304c0.37-0.473,0.733-0.925,1.091-1.355
		c0.357-0.43,0.684-0.813,0.981-1.149c0.297-0.336,0.532-0.564,0.704-0.684c0.266-0.189,0.594-0.351,0.981-0.484
		c0.387-0.133,0.818-0.2,1.291-0.2c0.241,0,0.471,0.056,0.69,0.168c0.219,0.112,0.411,0.271,0.574,0.478
		c0.164,0.207,0.293,0.456,0.388,0.749c0.095,0.293,0.142,0.62,0.142,0.981c0,0.353-0.086,0.708-0.258,1.065
		c-0.172,0.357-0.388,0.716-0.645,1.078c-0.258,0.361-0.538,0.723-0.839,1.084c-0.301,0.361-0.581,0.725-0.839,1.091
		c-0.258,0.366-0.474,0.729-0.645,1.091c-0.172,0.361-0.258,0.723-0.258,1.084c0,0.31,0.075,0.531,0.226,0.665s0.385,0.2,0.703,0.2
		c0.172,0,0.359-0.058,0.562-0.174c0.202-0.116,0.411-0.269,0.626-0.458c0.215-0.189,0.432-0.4,0.652-0.633
		c0.219-0.232,0.43-0.469,0.632-0.71c0.202-0.241,0.393-0.471,0.574-0.691c0.181-0.22,0.344-0.407,0.491-0.561l0.774,3.162
		c-0.267,0.387-0.605,0.747-1.013,1.078c-0.409,0.331-0.852,0.62-1.33,0.865s-0.972,0.437-1.484,0.574
		c-0.512,0.138-1.005,0.207-1.478,0.207c-0.62,0-1.125-0.075-1.517-0.226c-0.391-0.151-0.699-0.351-0.923-0.6
		c-0.224-0.25-0.376-0.531-0.459-0.846c-0.082-0.314-0.122-0.639-0.122-0.975c0-0.198,0.023-0.441,0.071-0.729
		c0.048-0.288,0.138-0.613,0.271-0.975c0.133-0.361,0.32-0.759,0.561-1.194c0.241-0.434,0.555-0.901,0.943-1.4
		c0.155-0.155,0.297-0.295,0.426-0.42c0.129-0.125,0.241-0.237,0.335-0.336c0.095-0.099,0.168-0.191,0.219-0.277
		c0.052-0.086,0.078-0.176,0.078-0.271c0-0.181-0.033-0.327-0.097-0.439c-0.065-0.112-0.157-0.168-0.278-0.168
		c-0.146,0-0.335,0.095-0.568,0.284c-0.232,0.189-0.487,0.521-0.762,0.994l-3.795,6.661c-0.198,0.344-0.403,0.583-0.613,0.716
		c-0.211,0.133-0.454,0.2-0.729,0.2c-0.37,0-0.663-0.079-0.878-0.239c-0.215-0.159-0.379-0.374-0.491-0.645
		c-0.112-0.271-0.183-0.585-0.213-0.942c-0.031-0.357-0.045-0.738-0.045-1.142c0-0.49,0.017-1.14,0.052-1.949
		c0.034-0.809,0.086-1.697,0.155-2.665c0.069-0.968,0.161-1.981,0.277-3.04c0.116-1.058,0.256-2.087,0.419-3.085
		c0.06-0.353,0.138-0.781,0.233-1.284c0.094-0.503,0.213-1.043,0.355-1.62c0.142-0.576,0.309-1.177,0.503-1.801
		c0.194-0.624,0.418-1.231,0.671-1.82c0.254-0.589,0.54-1.151,0.859-1.685c0.318-0.533,0.675-1.001,1.071-1.4
		c0.396-0.4,0.83-0.716,1.304-0.949c0.473-0.233,0.989-0.349,1.549-0.349c0.439,0,0.801,0.071,1.084,0.213
		c0.284,0.142,0.51,0.34,0.678,0.594c0.168,0.254,0.286,0.557,0.355,0.91c0.069,0.353,0.103,0.736,0.103,1.149
		c0,0.732-0.093,1.519-0.277,2.362c-0.185,0.844-0.419,1.689-0.704,2.537c-0.284,0.848-0.594,1.672-0.929,2.472
		c-0.336,0.8-0.658,1.523-0.968,2.168c-0.31,0.646-0.583,1.19-0.82,1.633c-0.237,0.443-0.394,0.734-0.471,0.871l-1.536,2.298
		L721.947-105.348z M724.477-119.844c-0.276,0-0.512,0.086-0.71,0.258c-0.198,0.172-0.385,0.418-0.562,0.736
		s-0.353,0.706-0.529,1.162c-0.177,0.456-0.376,0.964-0.6,1.523c-0.138,0.491-0.265,0.998-0.381,1.523
		c-0.116,0.525-0.221,1.048-0.316,1.568c-0.095,0.521-0.179,1.035-0.252,1.542c-0.073,0.508-0.136,0.985-0.187,1.433
		c-0.129,1.059-0.232,2.1-0.31,3.124c0.189-0.568,0.396-1.185,0.62-1.852c0.224-0.667,0.445-1.325,0.665-1.975
		c0.219-0.65,0.426-1.265,0.619-1.846c0.194-0.581,0.355-1.073,0.484-1.478c0.06-0.189,0.146-0.426,0.258-0.71
		c0.112-0.284,0.232-0.589,0.361-0.917c0.129-0.327,0.258-0.667,0.387-1.02c0.129-0.353,0.247-0.693,0.355-1.02
		c0.108-0.327,0.196-0.632,0.265-0.916c0.069-0.284,0.103-0.525,0.103-0.723C724.748-119.706,724.658-119.844,724.477-119.844z"/>
	<path fill="#191919" d="M743.595-100.52c-0.018,0.035-0.033,0.116-0.046,0.245c-0.013,0.129-0.043,0.284-0.09,0.465
		c-0.048,0.181-0.114,0.37-0.2,0.568c-0.086,0.198-0.213,0.381-0.38,0.549c-0.168,0.168-0.381,0.308-0.639,0.42
		c-0.258,0.112-0.581,0.168-0.968,0.168c-0.319,0-0.607-0.041-0.865-0.123c-0.258-0.082-0.48-0.209-0.665-0.381
		c-0.185-0.172-0.329-0.391-0.433-0.658c-0.103-0.267-0.155-0.585-0.155-0.955c0-0.31,0.045-0.613,0.136-0.91
		c0.09-0.297,0.23-0.561,0.42-0.794c0.189-0.232,0.434-0.417,0.735-0.555c0.301-0.137,0.658-0.207,1.071-0.207
		c0.671,0,1.188,0.181,1.549,0.542c0.361,0.361,0.542,0.878,0.542,1.549C743.607-100.563,743.603-100.537,743.595-100.52z
		 M741.349-104.741c0.086-0.886,0.215-1.801,0.387-2.743c0.172-0.942,0.37-1.885,0.594-2.827c0.224-0.942,0.463-1.874,0.716-2.794
		c0.254-0.921,0.505-1.803,0.755-2.646c0.25-0.843,0.489-1.635,0.716-2.375s0.428-1.407,0.6-2.001
		c0.112-0.413,0.273-0.747,0.484-1.001c0.211-0.254,0.446-0.452,0.703-0.594c0.258-0.142,0.532-0.239,0.82-0.29
		c0.288-0.052,0.566-0.078,0.833-0.078c0.137,0,0.266,0.017,0.387,0.052c0.121,0.035,0.224,0.097,0.31,0.187
		c0.086,0.09,0.153,0.215,0.2,0.374c0.047,0.159,0.071,0.363,0.071,0.613c0,0.172-0.011,0.359-0.033,0.561
		c-0.022,0.202-0.058,0.433-0.11,0.691c-0.215,1.007-0.495,2.016-0.839,3.027c-0.344,1.011-0.757,2.098-1.239,3.259
		c-0.482,1.162-1.031,2.438-1.646,3.827c-0.615,1.39-1.302,2.975-2.059,4.757c-0.018,0.095-0.063,0.183-0.136,0.265
		c-0.073,0.082-0.161,0.151-0.265,0.207c-0.103,0.056-0.215,0.099-0.335,0.129c-0.121,0.03-0.237,0.045-0.348,0.045
		c-0.164,0-0.303-0.034-0.419-0.103c-0.116-0.069-0.174-0.185-0.174-0.348C741.323-104.59,741.331-104.655,741.349-104.741z"/>
</g>
<path fill="#B59663" d="M661.889-166.806c0.199,0,0.396,0,0.595,0c4.238,0.498,6.991,2.977,7.797,6.937
	c0.843,4.136-1.09,7.537-3.414,9.23c-0.306,0.227-0.927,0.437-1.026,0.769c-0.217,0.723,0,2.39,0,3.549c0,74.05,0,98.84,0,172.694
	c0.01,0.061-0.01,0.097-0.054,0.11c-2.382,0-4.764,0-7.146,0c-0.117,0.008-0.174-0.046-0.161-0.166c0-75.444,0-100.847,0-176.299
	c-2.461-1.527-4.251-3.725-4.606-7.371c0-0.403,0-0.802,0-1.205C654.521-163.349,657.051-166.242,661.889-166.806z"/>
</svg>
