<?xml version="1.0" encoding="utf-8"?>
<!-- Generator: Adobe Illustrator 17.0.0, SVG Export Plug-In . SVG Version: 6.00 Build 0)  -->
<!DOCTYPE svg PUBLIC "-//W3C//DTD SVG 1.1//EN" "http://www.w3.org/Graphics/SVG/1.1/DTD/svg11.dtd">
<svg version="1.1" id="Calque_1" xmlns="http://www.w3.org/2000/svg" xmlns:xlink="http://www.w3.org/1999/xlink" x="0px" y="0px"
	 width="2942.869px" height="1976.653px" viewBox="0 0 2942.869 1976.653" enable-background="new 0 0 2942.869 1976.653"
	 xml:space="preserve">
<path fill="#231F20" d="M806.335,812.1c0,0-180.377,240.248-502.861,192.249c-229.489-79.496-200.99-245.988-190.491-280.486
	c-52.498-5.999-260.987,208.488,70.497,401.979c308.984,116.996,606.191-149.36,663.855-256.693"/>
<path fill="#231F20" d="M266.837,532.765c0,0-19.5,10.5-21-85s15.5-128,21-73c-1,59,0,68,0,68s13.5-53.5,50-25c0,0,13,12,5.5,63.5
	c-3,28.5-3,38-7,40.5s-8-8-12.5-67.5c-14-16.5-26-4.254-28,32.373S272.337,530.265,266.837,532.765z"/>
<path fill="#231F20" d="M348.837,409.765c0,0-41,49,12.5,95.5c19,14.5,49-16.5,40-33s-14.5,2-19.5,5.5s-19.999,14.669-28.5-18
	c10.5-2,58.336-12.19,42-45.446C379.837,382.765,348.837,409.765,348.837,409.765z"/>
<path fill="#231F20" d="M354.337,443.765c0,0,3-27,27-24.5C394.877,439.294,357.837,445.765,354.337,443.765z"/>
<path fill="#231F20" d="M1177.337,355.765c-5.125,33.132-9,192,2,254s67,20,86,2c-1,24-6,84-64,111.975
	c-147,13.975-132-163.975-125-190.633c-11,5.341-28,10.659-47,6.659s-43-23-34-71c14-40,11-72-38-54.446
	c-64,65.554-32,185.446-72,218.446c-54,6-26-161-15-227c44-112,69-33,69-33s127-90.892,109,41.554
	c1,63.446-1.107,83.446,10.946,86.446s21.723-15.358,35.011-159.004"/>
<path fill="#231F20" d="M2054.337,840.766c-107.332-266.667-442-148-442-148s-4-18-6.838-34.667c13.83-8.667,41.506-40,41.506-40
	c72-82.667,71.332-267.333-49.334-271.333c-92,37.333-74,240-72,287.333c-23.334,16-20.615,10.667-35.334,10.667
	c0,0-67.334-218-154.666-24c-40.666,199.334,93.334,188,108.666,175.334c15.334-12.667,36.668-24.667,46-78
	c32,3.333,53.334-19.333,53.334-19.333s0,0,8.666,38c-62.666,33.333-158,301.333-41.334,353.333
	c162.666,2.666,121.334-312,121.334-312c284.305-84.693,358.146,161.363,320,186c-32,20.667-26.666,35.334,9.334,33.334
	C2033.003,990.1,2081.671,929.433,2054.337,840.766z M1409.337,753.432c-15.666-1.333-33-38.666-31-61.333c0,0,30,26,62,22
	C1431.671,730.098,1425.003,754.765,1409.337,753.432z M1440.337,657.432c-30,6.667-37.334-12-52-33.333c0,0,5.176-43.333,20.922-36
	C1426.337,598.765,1445.671,631.432,1440.337,657.432z M1532.337,1030.765c-65.334-42.666,38.314-210.853,38.314-210.853
	C1575.317,843.912,1612.337,1022.765,1532.337,1030.765z M1582.337,579.432c0,0-0.996-127.333,33.334-127.333
	C1654.337,459.432,1595.671,570.765,1582.337,579.432z"/>
<path fill="#231F20" d="M1519.337,219.765c-12-64-37-71-37-71s39,160-301,118c6-99,0-264-53-172
	c-26,102-28.042,133.37-29.042,160.37c0,0-161.958-23.37-297.958,44.63c14-90-3-328-134-297s-183,218-218,368c-27-14-34-20-36-43
	c-24,13-28,81,15,107c-13,71-33,184-111,195c-78-12-113-25-100-292c42-19,148-53,166-69s7-87-135-29c0,0-271,94-244,188
	c53,41,83-28,146-56c-21,85-49,396,164,353c169-77,165-208.941,180-240.471c32,7.471,110,31.471,205-31.529c6,125,86,537,378,520
	c139-83,40-334-183-239c-22-60-85-135-96-347c96-38,166-98,436.999-7C1446.337,439.765,1521.337,278.765,1519.337,219.765z
	 M512.337,396.765c0,0,55-298,131-294s43,18,53,255C651.337,389.765,590.337,441.765,512.337,396.765z M987.671,812.765
	c35.875,9.803,65.767,37.023,29.332,60.667c-31,15.333-78.666-46.667-86.666-60.667
	C930.337,812.765,961.839,805.706,987.671,812.765z"/>
<path fill="#231F20" d="M1845.692,1286.58c72.188-32.955,202.673-158.5,94.274-279.336c0,0-213.542-130.252-320.255,222.842
	c-50.217-34.525-178.9-208.594-43.939-246.319c-40.803-18.893-204.01-51.849-136.529,149.023
	c18.831,58.064,74.219,100.861,168.931,163.42c0,0-162.653,396.821-1.016,414.083c0,0,257.366,26.679,312.292-191.455
	C1974.375,1300.704,1908.464,1295.996,1845.692,1286.58z M1888.063,1059.031c78.465,18.832-89.45,229.119-200.871,188.316
	C1687.192,1247.348,1768.054,1030.228,1888.063,1059.031z M1845.692,1393.293c-7.847,89.45-32.955,182.039-130.252,199.302
	c-37.664,3.139-43.941,9.416-61.203,0c0,0-31.598-130.614,18.832-235.396C1759.38,1302.273,1853.538,1303.843,1845.692,1393.293z"/>
<path fill="#231F20" d="M2920.665,1510.991c-69.049-0.785-123.55,89.753-128.258,103.092c-29.032-7.062-62.412-40.32-43.581-107.016
	c36.094,10.985,103.574-1.569,112.205-47.863c8.632-46.295,10.2-134.176-94.942-93.374
	c-59.634,75.327-74.542,212.641-131.037,229.118c-69.834,5.493-75.326-10.985-79.25-17.262
	c14.124-21.971,91.02-90.235,109.066-196.163c49.434-61.988,85.527-86.312,47.079-184.394
	c-14.908,26.679-28.247,66.696-48.648,61.987c-4.707-24.324-57.279-138.883-156.146,86.312
	c-36.094,14.908-38.447,6.277-41.586,5.492c13.339-25.109,47.863-143.592-19.616-118.482c-21.971,7.847-21.971,29.816-24.324,41.586
	c-2.354,11.771-11.771,76.111-22.755,82.389c-27.463,0-65.911-3.139-74.542-12.555c10.2-36.878,68.265-193.809,4.708-158.499
	c-41.587,22.755-62.772,107.497-61.988,119.267c-33.739-22.754-193.024-104.358-235.396,27.463
	c54.926-21.186,163.208-21.97,211.071,19.617c-9.415,53.356-44.725,145.944-87.881,153.791
	c10.201-61.987,10.201-142.021-56.495-123.189c0,0-101.925,16.946-131.348,179.361c-21.691,119.736,14.379,167.454,109.378,144.438
	c10.058-2.436,22.843-13.767,30.863-24.586c36.617-42.371,41.324-99.912,44.463-121.098c26.679-21.185,39.232-29.816,47.079-41.587
	c-22.755,47.079-84.742,162.587,19.616,188.791c38.448-2.828,64.342-32.644,71.403-42.846
	c20.401,21.186,87.882,87.097,209.502-33.739c13.34,38.447,72.973,91.02,149.084,5.492c51.787-63.557,54.142-72.188,54.926-74.542
	c0.785-2.354,5.493,88.666,69.05,87.097c-34.525,54.925-143.592,210.286-560.241,201.655c0,0-339.755,15.693-418.22-123.19
	c-64.342,94.942,42.371,218.133,197.732,236.18c155.36,18.048,601.043,69.834,797.206-308.368
	C2867.309,1652.228,2994.423,1559.64,2920.665,1510.991z M2818.66,1393.293c36.094,14.908,4.708,89.45-52.571,78.465
	C2766.089,1471.758,2775.505,1413.694,2818.66,1393.293z M2014.393,1623.98c-18.832-41.586,7.062-66.695,10.985-71.403
	c0,0,5.885,40.802,45.313,39.232C2064.61,1607.503,2052.84,1638.889,2014.393,1623.98z M2087.365,1518.837
	c-5.493,10.201-19.616,10.985-38.448-21.97c0,0,21.186-36.094,34.524-35.31C2096.78,1462.343,2092.857,1508.636,2087.365,1518.837z
	 M2270.188,1618.488c-40.017-36.879,51.003-229.903,51.003-229.903c27.463,15.693,50.218,23.54,65.126,32.955
	C2373.763,1486.667,2310.206,1655.366,2270.188,1618.488z M2482.045,1578.437c-29.032,22.788-46.295,43.189-65.126,30.635
	c-18.832-12.555-0.785-112.99,20.4-177.331h3.139c0,0,22.755,4.708,41.587,0C2478.121,1470.973,2469.49,1554.081,2482.045,1578.437z
	 M2632.698,1248.133c12.554,28.247-39.233,74.541-65.127,78.465C2567.571,1326.598,2613.082,1234.793,2632.698,1248.133z
	 M2545.602,1525.06c-7.062-50.164-6.277-68.211,0-93.319c0,0,61.987-14.908,83.173-25.109
	C2613.866,1430.172,2572.279,1505.39,2545.602,1525.06z M2838.276,1598.087c0,0,17.263-28.313,22.755-19.649
	C2866.524,1587.101,2850.046,1599.656,2838.276,1598.087z"/>
</svg>
