<?xml version="1.0" encoding="utf-8"?>
<!-- Generator: Adobe Illustrator 17.0.0, SVG Export Plug-In . SVG Version: 6.00 Build 0)  -->
<!DOCTYPE svg PUBLIC "-//W3C//DTD SVG 1.1//EN" "http://www.w3.org/Graphics/SVG/1.1/DTD/svg11.dtd">
<svg version="1.1" xmlns="http://www.w3.org/2000/svg" xmlns:xlink="http://www.w3.org/1999/xlink" x="0px" y="0px"
	 width="158.193px" height="116.188px" viewBox="0 0 158.193 116.188" enable-background="new 0 0 158.193 116.188"
	 xml:space="preserve">
<g id="Calque_1_-_copie" opacity="0.2">
	<g>
		<path stroke="#8A8D8C" stroke-miterlimit="10" d="M156.647,93.743c-5.064-8.682-21.885-6.873-29.843-4.703
			c-3.617-3.979,2.352-56.431,0-56.799c-2.352-0.369-12.661,0.731-15.631,4.891c0.105,2.713,0,20.294,0,20.294
			c-0.081,0.508-0.157,1.103-0.227,1.762c-7.022-6.101-19.083,5.656-19.569,6.136c-1.557-0.98-2.435-1.721-2.435-1.721
			c-0.856-0.66-3.377-1.693-1.749,8.131c0.608,0.548,1.24,1.045,1.891,1.496c-0.026,0.31-0.052,0.632-0.082,0.98
			c-0.565,6.638,2.966,11.605,9.53,12.983c-0.917-0.136-1.984-0.437-3.201-1.046c0,0-9.477,20.618-29.373,25.683
			c0,0-6.076,8.682,13.639,0c19.715-8.682,22.27-22.611,22.801-24.237c0.002-0.005,0.002-0.008,0.003-0.014
			c0.754,0,1.527-0.024,2.336-0.103c2.612-0.917,4.668-2.119,6.266-3.51c0.54,6.499,1.525,12.982,3.14,18.098
			c17.905-8.682,42.504,4.521,42.504,4.521S158.999,102.786,156.647,93.743z"/>
		<path stroke="#8A8D8C" stroke-miterlimit="10" d="M46.859,70.05c-0.724-3.438-4.521-6.873-6.33-3.799
			c-1.81,3.074-5.427,10.852-9.044,10.49c-3.617-0.362-9.296,0.361-1.754-19.172c7.542-19.533,17.852-26.42,20.203-25.328
			c2.351,1.092-6.179,7.286-3.437,9.231c0,0,8.683,6.873,11.396,4.342c2.713-2.533,14.47-21.343-2.894-25.141
			c-17.363-3.799-48.835,56.25-27.131,64.75C49.572,93.924,47.583,73.485,46.859,70.05z"/>
		<path stroke="#8A8D8C" stroke-miterlimit="10" d="M65.761,78.007c5.084,0.328,8.602-2.944,10.66-7.37
			c2.996,0.001,5.048-0.347,5.527-0.407c1.447-0.18,4.341-5.244,1.085-7.596c-1.5,0.267-3.025,0.337-4.551,0.266
			c0.621-6.064-0.868-11.911-4.311-13.116c-7.777-2.721-16.821,4.529-16.821,4.529c-0.069,0.069-0.131,0.144-0.198,0.214
			c-1.589-1.091-2.515-1.84-2.515-1.84s-7.415-3.076-2.894,8.375c0.564,0.528,1.135,1.017,1.709,1.49
			c-0.687,4.947,0.897,10.271,5.273,13.212c-0.003,0.003-0.008,0.007-0.008,0.007s-16.379,26.641-23.614,27.461
			c-7.234,0.821,0.362,6.247,4.522,3.715c4.159-2.532,19.265-15.221,22.474-29.586c-0.001-0.001-0.002-0.002-0.003-0.003
			C63.205,77.696,64.424,77.921,65.761,78.007z"/>
	</g>
</g>
<g id="Calque_1">
	<path fill="#FDC800" stroke="#8A8D8C" stroke-miterlimit="10" d="M91.173,37.426c0,0,0.105-17.581,0-20.294
		c2.97-4.16,13.279-5.26,15.631-4.891c2.352,0.368-3.617,52.82,0,56.799c7.958-2.17,24.779-3.979,29.843,4.703
		c2.352,9.043,0,12.842,0,12.842s-24.599-13.203-42.504-4.521C89.802,68.317,90.013,44.698,91.173,37.426z"/>
	<path fill="#FDC800" stroke="#8A8D8C" stroke-miterlimit="10" d="M26.497,21.472c0,0,8.683,6.873,11.396,4.342
		c2.713-2.533,14.47-21.343-2.894-25.141c-17.363-3.799-48.835,56.25-27.131,64.75c21.704,8.501,19.715-11.938,18.991-15.373
		c-0.724-3.438-4.521-6.873-6.33-3.799c-1.81,3.074-5.427,10.852-9.044,10.49s-9.296,0.361-1.754-19.172s17.852-26.42,20.203-25.328
		S23.755,19.527,26.497,21.472z"/>
	<path fill="#E61B76" d="M37.35,34.313c0,0,9.044-7.25,16.821-4.529s5.606,29.127-8.41,28.223
		C31.743,57.103,30.478,41.187,37.35,34.313z"/>
	<path fill="#2EBDEE" d="M34.637,32.687c0,0,15.192,12.299,28.396,9.947c3.256,2.352,0.362,7.416-1.085,7.596
		c-1.447,0.182-17.183,3.007-30.205-9.168C27.222,29.611,34.637,32.687,34.637,32.687z"/>
	<path fill="#FFFFFF" stroke="#8A8D8C" stroke-miterlimit="10" d="M38.717,55.771c0,0-16.379,26.641-23.614,27.461
		c-7.234,0.821,0.362,6.247,4.522,3.715c4.159-2.532,19.265-15.221,22.474-29.586C39.882,54.571,38.717,55.771,38.717,55.771z"/>
	<path fill="#E61B76" d="M71.353,45.347c0,0,12.691-12.66,19.82-5.969c4.236,4.521,10.385,22.191-6.436,28.098
		c-10.49,1.022-16.459-4.766-15.735-13.266C69.726,45.708,69.183,48.783,71.353,45.347z"/>
	<path fill="#2EBDEE" d="M68.942,43.603c0,0,13.082,11.09,28.455,4.337c7.598,4.642,1.067,6.891-1.546,7.575
		s-18.778,5.128-28.658-3.781C65.565,41.91,68.086,42.943,68.942,43.603z"/>
	<path fill="#FFFFFF" stroke="#8A8D8C" stroke-miterlimit="10" d="M75.331,66.147c0,0-9.477,20.618-29.373,25.683
		c0,0-6.076,8.682,13.639,0s22.27-22.611,22.801-24.237C82.929,65.966,80.396,68.682,75.331,66.147z"/>
</g>
</svg>
