<?xml version="1.0" encoding="utf-8"?>
<!-- Generator: Adobe Illustrator 17.0.0, SVG Export Plug-In . SVG Version: 6.00 Build 0)  -->
<!DOCTYPE svg PUBLIC "-//W3C//DTD SVG 1.1//EN" "http://www.w3.org/Graphics/SVG/1.1/DTD/svg11.dtd">
<svg version="1.1" xmlns="http://www.w3.org/2000/svg" xmlns:xlink="http://www.w3.org/1999/xlink" x="0px" y="0px"
	 width="120.459px" height="109.285px" viewBox="0 -0.001 120.459 109.285" enable-background="new 0 -0.001 120.459 109.285"
	 xml:space="preserve">
<g id="Calque_1_-_copie">
	<path opacity="0.2" d="M39.451,62.846c0,0,4.159-17.906,22.789-16.459c5.245-5.606,5.969-8.501,8.32-11.033
		c2.351-2.532,4.943,0.061,4.34,1.387c3.015-1.688,6.752-2.291,5.186,2.773c-1.568,5.063-3.497,8.923-3.256,10.61
		c0.241,1.688,13.022,4.824,7.596,20.379c9.044-1.809,13.385-5.307,15.676-7.718s1.809-1.809,2.652-1.085
		c0.845,0.723,6.873,4.461-21.703,18.932c-3.498,3.617-5.426,9.043-8.803,9.525c1.809,5.184,3.496,9.164,4.1,10.49
		c0.604,1.326-4.002,3.576-6.775,3.215s-3.715-9.244-3.836-11.053c-4.702,1.688-16.76,1.93-17.604-2.412
		c-4.582,4.1-6.753,5.668-7.235,6.752c-0.482,1.086-0.724-0.482-4.1-0.723c-3.376-0.241-3.376-0.24-3.376-0.24
		s5.426-5.186,6.511-6.393c1.085-1.205,2.171-2.893,2.171-2.893s-10.853-5.427-6.873-16.158
		c-6.752-7.476-11.334-30.266-0.604-32.436c4.582,3.015,2.412,4.084,1.688,4.694C35.592,43.613,29.925,55.188,39.451,62.846z"/>
	<path opacity="0.2" d="M55.367,55.249c0,0-8.441,3.557-3.859,9.225c4.582,3.014,6.391-1.93,6.512-3.617
		C58.141,59.168,58.984,54.827,55.367,55.249z"/>
	<path opacity="0.2" d="M102.754,61.7c0,0,0.513-1.085,1.101-2.412c0.589-1.326-2.532-10.129-0.55-11.455s3.911,5.064,4.152,7.477
		c2.895-3.256,7.355-7.959,10.008-6.752c2.652,3.135-3.738,5.578-5.547,7.596c-1.809,2.019,2.895,1.326,5.064,0.724
		c2.171-0.603,5.975,4.462,1.119,4.823c-4.856,0.361-8.956-2.773-11.488-0.844s-3.026,1.74-3.026,1.74L102.754,61.7z"/>
	<path opacity="0.2" d="M35.496,38.916c0,0,3.352-2.056,2.869-6.758c-0.483-4.702,0-9.888,1.447-10.008
		c1.447-0.12,2.17,3.135,1.929,3.979c2.773-3.136,5.064-7.115,6.512-5.909c1.446,1.206-1.567,5.835-2.411,7.921
		c1.929-0.203,5.063-1.021,5.305,1.316s-4.316,3.424-7.825,3.664c-3.63,3.738-6.679,6.787-6.679,6.787L35.496,38.916z"/>
	<path opacity="0.2" d="M40.551,97.526c0,0-4.838-2.094-7.129-1.34c-2.291,0.752-3.105-1.6-4.553-2.322
		c-1.446-0.723-5.154-0.182-3.074,4.16c-5.336,3.256-8.953,5.426-1.809,6.512c7.145,1.084,11.033-2.172,12.027-2.172
		c0.995,0,8.772,0.814,10.4-0.812c1.628-1.629,1.085-3.256,0-3.709C45.328,97.392,40.551,97.526,40.551,97.526z"/>
	<path opacity="0.2" d="M68.932,103.722c0,0-4.431-1.266-4.611,2.441c-0.182,3.709,4.266,3.166,6.202,2.984
		c1.937-0.18,10.979-1.898,13.964-1.266s5.155-0.434,4.975-1.482c-0.182-1.051-0.271-3.131-5.607-2.045
		c0.361-2.623,0.724-2.713,2.171-3.346c1.446-0.633,3.437-2.984,0.904-3.799s-4.16,1.809-7.145,2.713S72.459,104.808,68.932,103.722
		z"/>
</g>
<g id="Calque_1">
	<path fill="#3B3937" d="M19.451,42.846c0,0,4.159-17.906,22.789-16.459c5.245-5.606,5.969-8.501,8.32-11.033
		c2.351-2.532,4.943,0.061,4.34,1.387c3.015-1.688,6.752-2.291,5.186,2.773c-1.568,5.063-3.497,8.923-3.256,10.61
		c0.241,1.688,13.022,4.824,7.596,20.379c9.044-1.809,13.385-5.307,15.676-7.718s1.809-1.809,2.652-1.085
		c0.845,0.723,6.873,4.461-21.703,18.932c-3.498,3.617-5.426,9.043-8.803,9.525c1.809,5.184,3.496,9.164,4.1,10.49
		s-4.002,3.576-6.775,3.215s-3.715-9.244-3.836-11.053c-4.702,1.688-16.76,1.93-17.604-2.412c-4.582,4.1-6.753,5.668-7.235,6.752
		c-0.482,1.086-0.724-0.482-4.1-0.723s-3.376-0.24-3.376-0.24s5.426-5.186,6.511-6.393c1.085-1.205,2.171-2.893,2.171-2.893
		s-10.853-5.427-6.873-16.158c-6.752-7.476-11.334-30.266-0.604-32.436c4.582,3.015,2.412,4.084,1.688,4.694
		C15.592,23.613,9.925,35.188,19.451,42.846z"/>
	<path fill="#F5E8D2" d="M50.318,35.249c0,0-12.781-9.707-19.533,0S17.16,57.014,38.261,61.113
		c21.102,4.1,20.981-12.091,20.619-15.089S52.676,36.76,50.318,35.249z"/>
	<path fill="#E61B76" d="M35.367,35.249c0,0-8.441,3.557-3.859,9.225c4.582,3.014,6.391-1.93,6.512-3.617
		C38.141,39.168,38.984,34.827,35.367,35.249z"/>
	<path fill="#E61B76" d="M48.751,40.856c0,0-7.717,10.852,0,11.816c7.718,0.965,7.718-4.604,6.149-7.246
		C53.334,42.785,51.645,38.323,48.751,40.856z"/>
	<path fill="#8A8D8C" d="M39.467,47.367c0,0-8.079,1.327-7.234,3.136c0.844,1.809,7.241,4.22,9.287,4.1
		C43.566,54.481,42.275,46.779,39.467,47.367z"/>
	<path fill="#FDC800" d="M82.754,41.7c0,0,0.513-1.085,1.101-2.412c0.589-1.326-2.532-10.129-0.55-11.455s3.911,5.064,4.152,7.477
		c2.895-3.256,7.355-7.959,10.008-6.752c2.652,3.135-3.738,5.578-5.547,7.596c-1.809,2.019,2.895,1.326,5.064,0.724
		c2.171-0.603,5.975,4.462,1.119,4.823c-4.856,0.361-8.956-2.773-11.488-0.844s-3.026,1.74-3.026,1.74L82.754,41.7z"/>
	<path fill="#FDC800" d="M15.496,18.916c0,0,3.352-2.056,2.869-6.758s0-9.888,1.447-10.008s2.17,3.135,1.929,3.979
		c2.773-3.136,5.064-7.115,6.512-5.909c1.446,1.206-1.567,5.835-2.411,7.921c1.929-0.203,5.063-1.021,5.305,1.316
		s-4.316,3.424-7.825,3.664c-3.63,3.738-6.679,6.787-6.679,6.787L15.496,18.916z"/>
	<path fill="#FDC800" d="M20.551,77.526c0,0-4.838-2.094-7.129-1.34c-2.291,0.752-3.105-1.6-4.553-2.322
		c-1.446-0.723-5.154-0.182-3.074,4.16c-5.336,3.256-8.953,5.426-1.809,6.512c7.145,1.084,11.033-2.172,12.027-2.172
		c0.995,0,8.772,0.814,10.4-0.812c1.628-1.629,1.085-3.256,0-3.709C25.328,77.392,20.551,77.526,20.551,77.526z"/>
	<path fill="#FDC800" d="M48.932,83.722c0,0-4.431-1.266-4.611,2.441c-0.182,3.709,4.266,3.166,6.202,2.984
		c1.937-0.18,10.979-1.898,13.964-1.266s5.155-0.434,4.975-1.482c-0.182-1.051-0.271-3.131-5.607-2.045
		c0.361-2.623,0.724-2.713,2.171-3.346c1.446-0.633,3.437-2.984,0.904-3.799s-4.16,1.809-7.145,2.713S52.459,84.808,48.932,83.722z"
		/>
</g>
</svg>
