<?xml version="1.0" encoding="utf-8"?>
<!-- Generator: Adobe Illustrator 16.0.0, SVG Export Plug-In . SVG Version: 6.00 Build 0)  -->
<!DOCTYPE svg PUBLIC "-//W3C//DTD SVG 1.1//EN" "http://www.w3.org/Graphics/SVG/1.1/DTD/svg11.dtd">
<svg version="1.1" id="Calque_1" xmlns="http://www.w3.org/2000/svg" xmlns:xlink="http://www.w3.org/1999/xlink" x="0px" y="0px"
	 width="173.285px" height="163.202px" viewBox="0 0 173.285 163.202" enable-background="new 0 0 173.285 163.202"
	 xml:space="preserve">
<path fill="#2EBDEE" d="M14.045,81.47c0,0-8.44,1.346-10.128,8.164c-1.688,6.816-19.051,92.428,35.933,69.759
	c10.128-2.411,22.428-42.573,24.116-69.759c0,0,61.014,8.492,44.855-54.444S44.432,8.91,45.155,29.167
	c0.724,20.257-9.405,85.852-16.398,93.328c-8.682,6.753-12.781,0.724-12.781-12.299S20.842,78.413,14.045,81.47z"/>
<path fill="#FDC800" d="M67.341,62.447c0,0-3.858-30.553,15.193-31.313C101.586,30.373,84.706,74.264,67.341,62.447z"/>
<path fill="#2EBDEE" d="M84.705,97.656c0,0-8.44,2.411-9.887,15.435c-1.447,13.021-11.576,50.884,9.887,48.473
	C106.168,159.151,91.454,91.903,84.705,97.656z"/>
<path fill="#2EBDEE" d="M116.055,98.38c0,0-11.816,1.688-13.504,21.704c-1.062,12.579-4.101,38.826,20.738,36.897
	c17.363-4.582,12.059-32.798,8.682-41.238C128.596,107.303,123.532,97.144,116.055,98.38z"/>
<path fill="#2EBDEE" d="M146.2,103.685c0,0,0.482-6.511-7.234-4.1c-6.029,6.753-9.164,62.219,16.158,60.772
	c25.32-1.447,19.774-62.46,9.646-59.808c-10.129,2.652-9.406,0-9.406,34.004c-1.205,8.199-4.34,11.093-6.752-9.888
	C146.2,103.685,146.2,103.685,146.2,103.685z"/>
</svg>
