<?xml version="1.0" encoding="utf-8"?>
<!-- Generator: Adobe Illustrator 17.0.0, SVG Export Plug-In . SVG Version: 6.00 Build 0)  -->
<!DOCTYPE svg PUBLIC "-//W3C//DTD SVG 1.1//EN" "http://www.w3.org/Graphics/SVG/1.1/DTD/svg11.dtd">
<svg version="1.1" id="Calque_1" xmlns="http://www.w3.org/2000/svg" xmlns:xlink="http://www.w3.org/1999/xlink" x="0px" y="0px"
	 width="149.207px" height="142.235px" viewBox="0 0 149.207 142.235" enable-background="new 0 0 149.207 142.235"
	 xml:space="preserve">
<path opacity="0.2" stroke="#FFFFFF" stroke-miterlimit="10" enable-background="new    " d="M146.99,83.925
	c-3.313-6.901-6.625-16.561-9.385-24.385c-2.76-7.823-14.629-9.565-14.629-9.565c-4.323-1.102-3.037,3.589-5.243,1.841
	c-1.295-1.025-2.117-2.046-3.966,0.119c-0.113-0.077-0.177-0.119-0.177-0.119s-3.863-3.498-4.692-4.049
	c-0.828-0.552-0.551-28.154-14.353-25.67c-13.8,2.483-13.524,9.109-13.524,9.109S59.767,20.717,60.042,48.318
	c-16.56,3.589-22.357,22.862-25.668,43.863c-20.15-20.125-22.636-11.016-23.187-7.15c-0.551,3.863,9.938,16.561,8.833,22.632
	c-1.104,6.073-8.599,14.906-8.854,19.047c-0.254,4.14-4.396,19.046,11.615,14.077c16.008-4.969,18.769-14.906,21.253-11.868
	c2.484,3.035,64.687,35.19,85.015-12.974c0.325-0.77,0.628-1.531,0.92-2.288c1.98,0.29,3.539,0.195,4.376-0.197
	c5.297-2.485-0.603-13.764,7.913-13.801C150.774,99.621,150.302,90.826,146.99,83.925z"/>
<path opacity="0.2" stroke="#282522" stroke-miterlimit="10" enable-background="new    " d="M138.085,72.906
	c0,0-48.221,22.479-95.84-9.197"/>
<path opacity="0.2" enable-background="new    " d="M81.021,31.207c0,0,15.732,28.847-4.691,32.502
	c-12.146-1.548-16.602-9.559-16.287-15.391c0.314-5.83,7.729-10.56,7.729-10.56l12.146-1.583L81.021,31.207z"/>
<path opacity="0.2" enable-background="new    " d="M106.835,34.795c0,0,4.892,8.9-2.284,12.143
	c-7.176,3.244-14.589,4.465-17.853,1.818c-0.727-4.431-1.744-8.271-1.949-8.753C86.058,38.796,98.425,26.653,106.835,34.795z"/>
<g opacity="0.2">
	<path d="M83.689,93.219c0,0-1.101-0.207-3.036-0.43c-1.929-0.234-4.713-0.438-8.006-0.284c-1.644,0.089-3.415,0.297-5.219,0.724
		c-1.799,0.435-3.628,1.128-5.259,2.195c-1.609,1.097-2.937,2.63-3.767,4.469c-0.817,1.844-1.13,3.979-1.126,6.07
		c-0.005,1.148,0.056,2.169,0.203,3.2c0.161,1.038,0.375,2.065,0.743,3.02c0.329,0.972,0.814,1.858,1.341,2.698
		c0.566,0.813,1.21,1.56,1.949,2.188c1.479,1.254,3.226,2.115,4.98,2.656c1.763,0.526,3.518,0.798,5.151,0.916
		c3.275,0.204,6.057-0.071,7.962-0.421c0.953-0.181,1.706-0.327,2.208-0.469c0.505-0.133,0.771-0.221,0.771-0.221
		s-0.251,0.122-0.736,0.324c-0.485,0.2-1.208,0.478-2.155,0.744c-1.89,0.521-4.662,1.173-8.086,1.189
		c-1.707,0.006-3.578-0.141-5.517-0.626c-1.927-0.484-3.952-1.323-5.703-2.737c-1.745-1.408-3.197-3.357-3.977-5.574
		c-0.432-1.093-0.685-2.244-0.875-3.396c-0.18-1.166-0.258-2.378-0.258-3.46c0.019-2.358,0.383-4.727,1.369-6.903
		c0.984-2.174,2.688-3.944,4.567-5.143c1.905-1.185,3.966-1.811,5.907-2.177c1.948-0.369,3.809-0.445,5.509-0.411
		c3.405,0.071,6.174,0.64,8.089,1.045C82.633,92.841,83.689,93.219,83.689,93.219z"/>
</g>
<path opacity="0.2" enable-background="new    " d="M87.527,41.437c0,0-5.5-17.253-18.375-12.559
	c-12.877,4.694-9.682,14.787-9.811,18.079C59.211,50.25,65.941,35.997,87.527,41.437z"/>
<path opacity="0.2" enable-background="new    " d="M106.835,34.274c0,0-11.675-1.464-21.007,5.887c0,0-6.485-8.327-7.005-9.597
	c0.131-1.741,8.672-11.149,17.021-10.535C104.194,20.643,105.715,32.437,106.835,34.274z"/>
<ellipse opacity="0.2" enable-background="new    " cx="101.354" cy="40.867" rx="1.657" ry="2.301"/>
<ellipse opacity="0.2" enable-background="new    " cx="75.609" cy="52" rx="2.191" ry="3.128"/>
<path fill="#00C4FF" d="M103.59,31.816c0,0-3.863-3.498-4.692-4.049c-0.828-0.552-0.551-28.154-14.353-25.67
	c-13.8,2.483-13.524,9.109-13.524,9.109S49.767,0.717,50.042,28.318c-16.56,3.589-22.357,22.862-25.668,43.863
	C4.224,52.056,1.738,61.165,1.187,65.031c-0.551,3.863,9.938,16.561,8.833,22.632c-1.104,6.073-8.599,14.906-8.854,19.047
	c-0.254,4.14-4.396,19.046,11.615,14.077c16.008-4.969,18.769-14.906,21.253-11.868c2.484,3.035,64.687,35.19,85.015-12.974
	C136.99,53.436,103.59,31.816,103.59,31.816z"/>
<path fill="#282522" stroke="#FFFFFF" stroke-miterlimit="10" d="M112.976,29.975c0,0,11.869,1.742,14.629,9.565
	c2.76,7.824,6.072,17.484,9.385,24.385c3.312,6.901,3.784,15.696-4.732,15.734c-8.516,0.037-2.616,11.316-7.913,13.801
	c-5.296,2.484-39.523-6.9-26.55-51.064c6.901-14.078,7.729-12.328,9.938-10.58C109.939,33.564,108.653,28.873,112.976,29.975z"/>
<path fill="none" stroke="#282522" stroke-miterlimit="10" d="M128.085,52.906c0,0-48.221,22.479-95.84-9.197"/>
<path fill="#FFFFFF" d="M71.021,11.207c0,0,15.732,28.847-4.691,32.502c-12.146-1.548-16.602-9.559-16.287-15.391
	c0.314-5.83,7.729-10.56,7.729-10.56l12.146-1.583L71.021,11.207z"/>
<path fill="#FFFFFF" d="M96.835,14.795c0,0,4.892,8.9-2.284,12.143c-7.176,3.244-14.589,4.465-17.853,1.818
	c-0.727-4.431-1.744-8.271-1.949-8.753C76.058,18.796,88.425,6.653,96.835,14.795z"/>
<g>
	<path fill="#FFFFFF" d="M73.689,73.219c0,0-1.101-0.207-3.036-0.43c-1.929-0.234-4.713-0.438-8.006-0.284
		c-1.644,0.089-3.415,0.297-5.219,0.724c-1.799,0.435-3.628,1.128-5.259,2.195c-1.609,1.097-2.937,2.63-3.767,4.469
		c-0.817,1.844-1.13,3.979-1.126,6.07c-0.005,1.148,0.056,2.169,0.203,3.2c0.161,1.038,0.375,2.065,0.743,3.02
		c0.329,0.972,0.814,1.858,1.341,2.698c0.566,0.813,1.21,1.56,1.949,2.188c1.479,1.254,3.226,2.115,4.98,2.656
		c1.763,0.526,3.518,0.798,5.151,0.916c3.275,0.204,6.057-0.071,7.962-0.421c0.953-0.181,1.706-0.327,2.208-0.469
		c0.505-0.133,0.771-0.221,0.771-0.221s-0.251,0.122-0.736,0.324c-0.485,0.2-1.208,0.478-2.155,0.744
		c-1.89,0.521-4.662,1.173-8.086,1.189c-1.707,0.006-3.578-0.141-5.517-0.626c-1.927-0.484-3.952-1.323-5.703-2.737
		c-1.745-1.408-3.197-3.357-3.977-5.574c-0.432-1.093-0.685-2.244-0.875-3.396c-0.18-1.166-0.258-2.378-0.258-3.46
		c0.019-2.358,0.383-4.727,1.369-6.903c0.984-2.174,2.688-3.944,4.567-5.143c1.905-1.185,3.966-1.811,5.907-2.177
		c1.948-0.369,3.809-0.445,5.509-0.411c3.405,0.071,6.174,0.64,8.089,1.045C72.633,72.841,73.689,73.219,73.689,73.219z"/>
</g>
<path fill="#00C4FF" d="M77.527,21.437c0,0-5.5-17.253-18.375-12.559c-12.877,4.694-9.682,14.787-9.811,18.079
	C49.211,30.25,55.941,15.997,77.527,21.437z"/>
<path fill="#00C4FF" d="M96.835,14.274c0,0-11.675-1.464-21.007,5.887c0,0-6.485-8.327-7.005-9.597
	c0.131-1.741,8.672-11.149,17.021-10.535C94.194,0.643,95.715,12.437,96.835,14.274z"/>
<ellipse fill="#383432" cx="91.354" cy="20.867" rx="1.657" ry="2.301"/>
<ellipse fill="#383432" cx="65.609" cy="32" rx="2.191" ry="3.128"/>
</svg>
