<?xml version="1.0" encoding="utf-8"?>
<!-- Generator: Adobe Illustrator 16.0.0, SVG Export Plug-In . SVG Version: 6.00 Build 0)  -->
<!DOCTYPE svg PUBLIC "-//W3C//DTD SVG 1.1//EN" "http://www.w3.org/Graphics/SVG/1.1/DTD/svg11.dtd">
<svg version="1.1" id="Calque_1" xmlns="http://www.w3.org/2000/svg" xmlns:xlink="http://www.w3.org/1999/xlink" x="0px" y="0px"
	 width="100.733px" height="55.896px" viewBox="0 0 100.733 55.896" enable-background="new 0 0 100.733 55.896"
	 xml:space="preserve">
<path fill="#3B3937" d="M8.565,8.19c0,0-7.437,0.904-8.24,3.075c-0.803,2.17-0.361,31.592,4.12,40.575
	c5.024,1.206,5.567,1.982,7.195-0.848c1.628-2.83,5.246-14.948,5.246-14.948s6.083,16.821,8.558,18.811
	c2.475,1.989,3.561,0.362,4.646-0.904c1.085-1.267,13.565-49.196,9.586-52.271c-4.341-0.724-7.234,0.462-7.416,1.769
	c-0.181,1.306-5.131,20.78-6.816,22.347c-0.961-6.21-1.866-18.111-3.312-19.305c-1.447-1.194-6.692,0.072-7.054,1.881
	S7.42,24.951,7.722,27.242C8.927,14.702,12.571,7.418,8.565,8.19z"/>
<path fill="#3B3937" d="M45.67,5.51c0,0-3.979-3.42-4.521,6.889c-0.543,10.31-2.175,38.461-2.175,38.461s3.441,4.13,8.325-1.702
	C52.181,43.328,47.117,7.665,45.67,5.51z"/>
<path fill="#FDC800" d="M51.096,3.315c0,0-2.532,7.094,0,8.541c2.532,1.447,8.963,0.181,9.545,0
	c0.584-0.181-11.219,24.272-11.274,26.237c-0.055,1.965,0.644,15.959,2.814,17.56c2.171,1.601,25.141-5.091,25.503-9.07
	c0.361-3.979,0-7.777,0-7.777s-13.828,4.522-17.043,4.522c0,0,11.255-31.436,8.541-36.97C66.469,0.824,55.436-3.096,51.096,3.315z"
	/>
<path fill="#FDC800" d="M74.79,6.565c0,0-2.352,7.835,1.266,9.547c3.618,1.712,8.14,2.461,8.14,2.461s-7.597,11.575-7.597,14.095
	s2.812,8.669,6.289,10.478c4.563,0.182,14.512-3.617,16.862-7.416c2.351-3.797,0-7.217-1.989-5.869
	c-1.99,1.348-10.426,5.508-12.719,4.423S95.77,13.846,94.504,9.144S76.78-0.173,74.79,6.565z"/>
</svg>
