<?xml version="1.0" encoding="utf-8"?>
<!-- Generator: Adobe Illustrator 16.0.0, SVG Export Plug-In . SVG Version: 6.00 Build 0)  -->
<svg version="1.2" baseProfile="tiny" xmlns="http://www.w3.org/2000/svg" xmlns:xlink="http://www.w3.org/1999/xlink" x="0px"
	 y="0px" width="64.885px" height="44.981px" viewBox="0 -4.8 64.885 44.981" xml:space="preserve">
<g id="Calque_4">
	<rect x="0" y="-5.455" display="none" fill="#B7B7B7" width="64.885" height="44.981"/>
</g>
<g id="Calque_1" display="none">
	<path display="inline" fill="#111111" d="M23.074,4.819L42.001,37.78H4.146L23.074,4.819 M23.074,0L0,40.181h46.147L23.074,0
		L23.074,0z"/>
	<path display="inline" fill="#111111" d="M41.813,4.819L60.74,37.78H22.885L41.813,4.819 M41.813,0L18.739,40.181h46.146L41.813,0
		L41.813,0z"/>
</g>
<g id="Calque_2" display="none">
	<path display="inline" fill="#111111" d="M21.887,37.781l-2.4,2.4h30.709L30.042,20.027L45.397,4.672h-30.71v30.709l2.4-2.402
		V7.072h22.515L28.345,18.329l-8.858-8.858v21.11l8.858-8.857l16.058,16.057H21.887z M21.887,24.787v-9.521l4.761,4.761
		L21.887,24.787z"/>
</g>
<g id="Calque_3">
	<path fill="#111111" d="M49.354-4.145h-30.71v11.65h-4.803v30.71L29.197,22.86L44.552,7.505h-6.848L49.354-4.145z M21.044-1.745
		h22.516l-9.251,9.25H21.044V-1.745z M21.044,9.905H31.91L21.044,20.771V9.905z M38.758,9.905L27.5,21.163L16.242,32.421V9.905
		h2.403v16.66L34,11.21l1.305-1.305H38.758z"/>
</g>
<g id="Calque_5" display="none">
	<path display="inline" fill="#111111" d="M17.154,37.782l-2.4,2.398h40.177L30.042,15.29L50.134-4.8H9.953v40.177l2.4-2.41V-2.4
		h31.985L28.345,13.593L14.754,0v30.577l13.591-13.59l20.792,20.795H17.154z M17.154,24.784V5.795l9.494,9.494L17.154,24.784z"/>
</g>
</svg>
