<?xml version="1.0" encoding="utf-8"?>
<!-- Generator: Adobe Illustrator 16.0.0, SVG Export Plug-In . SVG Version: 6.00 Build 0)  -->
<svg version="1.2" baseProfile="tiny" xmlns="http://www.w3.org/2000/svg" xmlns:xlink="http://www.w3.org/1999/xlink" x="0px"
	 y="0px" width="64.885px" height="44.981px" viewBox="0 -4.8 64.885 44.981" xml:space="preserve">
<g id="Calque_4" display="none">
	<rect x="0" y="2.473" display="inline" fill="#B7B7B7" width="64.885" height="16.091"/>
</g>
<g id="Calque_1" display="none">
	<path display="inline" fill="#111111" d="M23.074,4.819L42.001,37.78H4.146L23.074,4.819 M23.074,0L0,40.181h46.147L23.074,0
		L23.074,0z"/>
	<path display="inline" fill="#111111" d="M41.813,4.819L60.74,37.78H22.885L41.813,4.819 M41.813,0L18.739,40.181h46.146L41.813,0
		L41.813,0z"/>
</g>
<g id="Calque_2" display="none">
	<path display="inline" fill="#111111" d="M21.887,37.781l-2.4,2.4h30.709L30.042,20.027L45.397,4.672h-30.71v30.709l2.4-2.402
		V7.072h22.515L28.345,18.329l-8.858-8.858v21.11l8.858-8.857l16.058,16.057H21.887z M21.887,24.787v-9.521l4.761,4.761
		L21.887,24.787z"/>
</g>
<g id="Calque_3" display="none">
	<path display="inline" fill="#111111" d="M49.354-2.179h-30.71v11.65h-4.803v30.71l15.355-15.355L44.552,9.471h-6.848L49.354-2.179
		z M21.044,0.221h22.516l-9.251,9.25H21.044V0.221z M21.044,11.871H31.91L21.044,22.737V11.871z M38.758,11.871L27.5,23.129
		L16.242,34.386V11.871h2.403v16.66L34,13.176l1.305-1.305H38.758z"/>
</g>
<g id="Calque_5">
	<path fill="#111111" d="M17.154,37.782l-2.4,2.398h40.177L30.042,15.29L50.134-4.8H9.953v40.177l2.4-2.41V-2.4h31.985
		L28.345,13.593L14.754,0v30.577l13.591-13.59l20.792,20.795H17.154z M17.154,24.784V5.795l9.494,9.494L17.154,24.784z"/>
</g>
</svg>
