<?xml version="1.0" encoding="utf-8"?>
<!-- Generator: Adobe Illustrator 16.0.0, SVG Export Plug-In . SVG Version: 6.00 Build 0)  -->
<!DOCTYPE svg PUBLIC "-//W3C//DTD SVG 1.1//EN" "http://www.w3.org/Graphics/SVG/1.1/DTD/svg11.dtd">
<svg version="1.1" id="Calque_1" xmlns="http://www.w3.org/2000/svg" xmlns:xlink="http://www.w3.org/1999/xlink" x="0px" y="0px"
	 width="67.438px" height="67.438px" viewBox="35.188 -7.718 67.438 67.438" enable-background="new 35.188 -7.718 67.438 67.438"
	 xml:space="preserve">
<g>
	
		<rect x="46.082" y="3.171" transform="matrix(-0.7071 0.7071 -0.7071 -0.7071 136.0328 -4.3378)" fill="#FCFCFC" width="45.666" height="45.666"/>
	<path fill="#111111" d="M68.915-4.872l30.877,30.876L68.915,56.881L38.038,26.004L68.915-4.872 M68.915-7.701L35.21,26.004
		l33.705,33.705l33.705-33.705L68.915-7.701L68.915-7.701z"/>
</g>
<g>
	<path d="M65.75,33.946l-4.221-7.002l-0.557,0.951v6.051h-1.576V18.065h1.576v6.816l4.035-6.816h1.854l-4.404,7.326l5.123,8.555
		H65.75z"/>
</g>
<g>
	<path d="M71.55,33.959V18.051h1.579v14.328h5.317v1.58H71.55z"/>
</g>
</svg>
