<?xml version="1.0" encoding="utf-8"?>
<!-- Generator: Adobe Illustrator 16.0.0, SVG Export Plug-In . SVG Version: 6.00 Build 0)  -->
<!DOCTYPE svg PUBLIC "-//W3C//DTD SVG 1.1//EN" "http://www.w3.org/Graphics/SVG/1.1/DTD/svg11.dtd">
<svg version="1.1" xmlns="http://www.w3.org/2000/svg" xmlns:xlink="http://www.w3.org/1999/xlink" x="0px" y="0px" width="200px"
	 height="42.565px" viewBox="-230.698 -39.074 200 42.565" enable-background="new -230.698 -39.074 200 42.565"
	 xml:space="preserve">
<g id="Calque_1">
	<g id="Calque_4">
	</g>
</g>
<g id="Calque_2">
	<g display="none">
		<path display="inline" fill="#111111" d="M-32.518-37.254V1.672h-196.36v-38.926H-32.518 M-30.698-39.074h-200V3.491h200V-39.074
			L-30.698-39.074z"/>
	</g>
	<g>
		<path fill="#111111" d="M-202.426-8.827l-4.884-7.802l-0.644,1.059v6.743h-1.825v-17.697h1.825v7.595l4.67-7.595h2.146
			l-5.099,8.164l5.931,9.533H-202.426z"/>
	</g>
	<g>
		<path fill="#111111" d="M-162.651-8.827v-8.849h1.825v8.849H-162.651z"/>
	</g>
	<g>
		<path fill="#111111" d="M-150.951-20.762v11.936h-1.825v-18.188l7.783,12.479v-11.988h1.825v18.188L-150.951-20.762z"/>
	</g>
	<g>
		<path fill="#111111" d="M-125.266-8.852v-17.697h1.825v15.94h6.146v1.757H-125.266z"/>
	</g>
	<polygon fill="#111111" points="-114.155,-8.852 -112.196,-8.852 -111.203,-11.409 -106.882,-11.409 -106.882,-12.857 
		-110.612,-12.857 -106.883,-22.364 -106.883,-27.092 	"/>
	<path fill="#111111" d="M-57.339-14.471c2.898-0.621,4.938-3.101,4.938-5.969c0-3.384-2.844-6.123-6.359-6.123h-2.818v1.757h1.825
		h0.023h0.97c2.495,0,4.535,1.964,4.535,4.366c0,2.403-2.04,4.366-4.535,4.366h-0.97v1.706l5.022,5.502h2.442L-57.339-14.471z"/>
	<g>
		<polygon fill="#111111" points="-74.703,-10.609 -76.527,-10.609 -76.527,-8.852 -68.557,-8.852 -68.557,-10.609 -71.465,-10.609 
					"/>
		<polygon fill="#111111" points="-75.615,-18.592 -76.527,-18.592 -76.527,-16.835 -75.615,-16.835 -73.996,-16.835 
			-72.542,-16.835 -72.542,-18.592 		"/>
	</g>
	<rect x="-86.404" y="-26.549" fill="#111111" width="1.826" height="8.938"/>
	<polygon fill="#111111" points="-194.911,-26.524 -194.911,-24.767 -193.086,-24.767 -186.94,-24.767 -186.94,-26.524 	"/>
	<polygon fill="#111111" points="-76.527,-26.524 -76.527,-24.767 -74.703,-24.767 -68.557,-24.767 -68.557,-26.524 	"/>
	<g>
		<rect x="-194.911" y="-10.342" fill="#111111" width="7.971" height="1.515"/>
		<polygon fill="#111111" points="-193.998,-18.567 -194.911,-18.567 -194.911,-16.809 -193.998,-16.809 -190.925,-16.809 
			-190.925,-18.567 		"/>
	</g>
	<g>
		<path fill="#111111" d="M-94.191-8.852c-5.071,0-9.178-3.953-9.178-8.835c0-5.091,4.294-9.224,9.581-9.224v1.809
			c-4.24,0-7.756,3.332-7.756,7.415c0,3.9,3.301,7.078,7.353,7.078h1.021v-4.392h1.825v6.149H-94.191z"/>
	</g>
	<polygon fill="#111111" points="-170.033,-27.092 -175.346,-13.579 -176.957,-17.676 -178.864,-17.676 -175.346,-8.852 
		-168.073,-27.092 	"/>
</g>
</svg>
