<?xml version="1.0" encoding="utf-8"?>
<!-- Generator: Adobe Illustrator 16.0.0, SVG Export Plug-In . SVG Version: 6.00 Build 0)  -->
<!DOCTYPE svg PUBLIC "-//W3C//DTD SVG 1.1//EN" "http://www.w3.org/Graphics/SVG/1.1/DTD/svg11.dtd">
<svg version="1.1" id="Calque_1" xmlns="http://www.w3.org/2000/svg" xmlns:xlink="http://www.w3.org/1999/xlink" x="0px" y="0px"
	 width="158.72px" height="19.345px" viewBox="33.701 12.213 158.72 19.345" enable-background="new 33.701 12.213 158.72 19.345"
	 xml:space="preserve">
<g>
	<path d="M50.924,15.394c0.34-0.98,0.62-1.82,0.84-2.681c1.681,0.04,2.321,0.04,3.161,0.04c0.8,0,1.24,0,1.92-0.04
		c-2.2,2.181-3.48,3.441-4.361,4.281c-1.4,1.36-2.42,2.361-2.78,2.721l-0.16,0.16l-0.06,0.08l3.841,3.761
		c0.8,0.76,1.1,0.979,1.42,0.979c0.3,0,0.52-0.14,1.28-0.899l0.26,0.239c-0.3,0.32-0.5,0.521-1.1,1.101
		c-0.7,0.66-0.8,0.779-1.1,1.04c-1.48-1.4-1.8-1.7-3.621-3.541c-0.84-0.84-1.28-1.26-1.88-1.84l-1.2,1.22
		c-1.4,1.381-2.121,1.98-3.041,2.601c-1.4,0.94-2.901,1.421-4.421,1.421c-3.581,0-6.221-2.762-6.221-6.522
		c0-3.261,2.6-5.621,6.221-5.621c2.36,0,4.381,1.04,6.941,3.541c0.26-0.78,0.36-1.081,0.48-1.521c0.2-0.76,0.32-1.44,0.34-1.74
		c0.02-0.22-0.1-0.36-0.32-0.36c-0.22,0-0.42,0.06-1.06,0.32l-0.16-0.32c0.98-0.42,0.8-0.32,3-1.5c0-0.02,0.06-0.04,0.18-0.1
		c-0.32,1.18-0.3,1.16-0.42,1.6c-0.52,2-0.94,3.261-1.4,4.201l1.72,1.68c0.34-0.32-0.08,0.08,1.28-1.26l0.5-0.52l0.48-0.44
		c2.12-2.101,2.4-2.381,3.46-3.581c-0.52-0.02-0.54-0.02-1.22-0.02c-1.92,0-1.86-0.04-2.38,1.521H50.924z M46.883,19.115
		c-1.12,2.141-2.94,3.58-4.501,3.58c-0.96,0-1.66-0.479-1.66-1.14c0-0.22,0.06-0.44,0.24-0.76c0.14,0.88,0.72,1.34,1.74,1.34
		c1.48,0,2.781-1.2,3.721-3.48c-3.281-3.201-4.961-4.161-7.242-4.161c-2.9,0-5.021,2.021-5.021,4.821
		c0,3.181,2.96,5.802,6.521,5.802c2.42,0,3.921-0.841,6.941-3.861l0.72-0.72L46.883,19.115z"/>
	<path d="M62.041,22.275c0,0.641-0.56,1.541-1.5,2.341c-1.18,1.061-2.26,1.62-3.021,1.62c-0.7,0-1.14-0.5-1.14-1.3
		c0-1.82,1.18-4.081,2.86-5.481c1.101-0.9,2.441-1.52,3.361-1.52c0.48,0,0.76,0.2,0.76,0.56c0,0.54-0.66,1.42-1.5,1.98
		c-0.68,0.44-1.82,0.88-2.34,0.88c-0.32,0-0.5-0.14-0.64-0.5c0.32,0.02,0.48,0.04,0.66,0.04c1.3,0,2.641-0.9,2.641-1.76
		c0-0.28-0.24-0.46-0.6-0.46c-0.76,0-1.661,0.58-2.42,1.56c-1,1.3-1.641,2.961-1.641,4.181c0,0.641,0.3,1,0.84,1
		c1.22,0,2.681-1.48,3.541-3.62C62.001,21.995,62.041,22.115,62.041,22.275z M63.501,15.214c-1.14,0.4-2.101,1.26-2.821,2.5
		c0.3-1.82,1.14-2.98,2.44-3.341L63.501,15.214z"/>
	<path d="M70.42,18.254c-0.8,2.46-2.28,4.541-4.281,5.941c-0.56,0.399-0.92,0.62-1.82,1.12l-0.32,0.18l-0.34,0.181
		c-0.88,0.5-0.68,0.399-0.88,0.5c1-2.181,1.9-5.221,1.9-6.381c0-0.66-0.12-0.94-0.42-0.94c-0.18,0-0.38,0.1-0.84,0.4l-0.16-0.3
		c1.18-0.74,1.54-0.92,1.94-0.92c0.46,0,0.66,0.38,0.66,1.26c0,0.78-0.26,1.92-0.76,3.38c-0.06,0.18-0.12,0.36-0.2,0.561
		l-0.18,0.439l-0.18,0.461l-0.16,0.439l-0.04,0.1l-0.04,0.08l-0.02,0.08c2.861-1.359,4.561-3.26,5.001-5.581h-0.82
		c-1.181,0-1.36,0.1-1.821,1.02h-0.36c0.36-0.66,0.74-1.48,0.94-2.021H70.42z"/>
	<path d="M72.9,17.874c0,0.42-0.18,1.08-0.521,2c-0.16,0.4-0.38,0.94-0.7,1.64l-0.72,1.621c-0.42,0.959-0.58,1.399-0.6,1.619
		c0,0.16,0.14,0.281,0.34,0.281c0.1,0,0.36-0.08,0.64-0.201l0.12,0.281c-0.26,0.139-0.52,0.26-1.22,0.56
		c-0.62,0.28-0.82,0.36-1.22,0.479c0.06-1.22,0.28-1.859,1.38-4.26c0.82-1.801,1.06-2.401,1.08-2.701c0-0.16-0.1-0.3-0.26-0.3
		c-0.12,0-0.52,0.12-0.94,0.3l-0.08-0.32c1.18-0.44,1.38-0.52,2.701-1.1V17.874z M73.92,15.694c0,0.36-0.32,0.68-0.66,0.68
		c-0.24,0-0.46-0.2-0.46-0.44c0-0.36,0.32-0.68,0.66-0.68C73.72,15.254,73.92,15.454,73.92,15.694z"/>
	<path d="M79.24,24.956c-0.82,0.58-1.66,0.939-2.78,1.18c0.08-0.68,0.26-1.26,0.74-2.42c0.3-0.74,0.7-1.561,1.161-2.461l0.22-0.4
		l0.2-0.42l0.22-0.4c0.24-0.48,0.32-0.66,0.32-0.8c0-0.16-0.08-0.26-0.22-0.26c-0.44,0-1.98,1.28-3.081,2.601
		c-0.98,1.161-1.82,2.541-2.5,4.122c-0.36,0.08-0.66,0.18-1.3,0.459c0.56-1.14,1-2.18,1.92-4.44c0.64-1.561,0.8-2.061,0.8-2.4
		c0-0.22-0.1-0.34-0.28-0.34c-0.14,0-0.2,0.02-0.74,0.18l-0.06-0.32c1-0.28,1.72-0.54,2.601-0.94c0.02,0.08,0.02,0.14,0.02,0.18
		c0,0.56-0.541,2.06-1.42,3.98c2.36-2.661,4.181-4.101,5.241-4.101c0.3,0,0.48,0.2,0.48,0.48c0,0.44-0.2,0.9-1.28,3
		c-0.38,0.74-0.94,1.86-1.28,2.601c-0.18,0.36-0.26,0.601-0.26,0.74c0,0.16,0.1,0.28,0.26,0.28c0.18,0,0.58-0.16,0.86-0.36
		L79.24,24.956z"/>
	<path d="M93.34,25.156c-1.12,0.76-2.24,1.141-3.341,1.141c-2.12,0-3.48-1.381-3.48-3.541c0-2.72,1.88-4.721,4.421-4.721
		c0.28,0,0.48,0,0.8,0.04c1.32-1.681,1.94-2.381,2.82-3.201c1.9-1.821,3.921-2.781,5.861-2.781c1.961,0,3.141,0.98,3.141,2.581
		c0,2.641-3.121,5.321-6.181,5.321c-1.04,0-2.38-0.16-4.781-0.601c-0.72-0.14-0.94-0.16-1.32-0.22c-0.86,1.1-1.58,1.94-2.14,2.541
		c0.64-0.36,1.12-0.48,2-0.48c0.84,0,2,0.26,2.98,0.661l0.9,0.359l0.88,0.359l0.9,0.361l0.92,0.379l0.94,0.381l0.92,0.38
		c1.3,0.521,1.821,0.7,2.121,0.7c0.32,0,0.66-0.2,1.141-0.641l0.239,0.261c-0.64,0.58-1.08,1.04-1.7,1.761
		c-0.56-0.181-0.96-0.341-1.94-0.74c-1.34-0.541-1.601-0.641-2.641-1.101c-3.221-1.36-4.221-1.761-5.461-2.141
		c-0.72-0.22-1.04-0.28-1.4-0.28c-0.8,0-1.021,0.141-2.421,1.58l-0.2-0.319c0.42-0.421,0.82-0.86,1.54-1.681
		c0.68-0.78,0.72-0.84,1.82-2.18c0.02-0.02,0.08-0.1,0.16-0.2c-0.18-0.02-0.32-0.04-0.48-0.04c-2.101,0-3.441,1.32-3.441,3.381
		c0,1.8,1.641,3.221,3.721,3.221c0.8,0,1.48-0.221,2.501-0.82L93.34,25.156z M94.301,18.434c2.22,0.4,3.121,0.5,4.041,0.5
		c2.401,0,4.501-1.64,4.501-3.5c0-1.661-1.221-2.741-3.101-2.741c-1.46,0-3.241,0.88-4.881,2.4c-0.7,0.64-1.24,1.24-1.92,2.061
		c-0.68,0.84-0.44,0.56-0.76,0.96C92.74,18.174,93.26,18.254,94.301,18.434z"/>
	<path d="M110.16,24.876c-0.66,0.5-1.681,0.92-2.82,1.199c0.04-0.64,0.44-1.8,1.16-3.381c-1.641,1.961-3.661,3.422-4.701,3.422
		c-0.44,0-0.68-0.32-0.68-0.881c0-3.301,4.94-7.241,9.082-7.241c0.22,0,0.319,0.08,0.319,0.24c0,0.1-0.12,0.44-0.279,0.74
		c-0.461-0.08-0.86-0.12-1.28-0.12c-1.94,0-3.361,0.6-4.821,2c-1.2,1.141-1.9,2.5-1.9,3.681c0,0.48,0.22,0.78,0.58,0.78
		c0.74,0,2.38-1.62,3.341-3.301c0.56-0.96,0.84-1.68,1.06-2.7c0.301,0.18,0.421,0.44,0.421,0.94c0,0.64-0.301,1.34-0.961,2.161
		c0.4-0.02,0.54-0.061,1.16-0.26c-0.1,0.24-0.1,0.199-0.42,1c-0.5,1.16-0.58,1.4-0.58,1.6c0,0.141,0.12,0.281,0.26,0.261
		c0.181-0.021,0.4-0.12,0.881-0.4L110.16,24.876z"/>
	<path d="M117.101,22.595c-0.721,2.381-1.641,4.621-2.401,5.781c-1.2,1.841-3.4,3.281-5.021,3.281c-0.7,0-1.181-0.36-1.181-0.881
		c0-0.199,0.021-0.279,0.12-0.5c0.58,0.5,1.141,0.7,1.9,0.7c1.4,0,2.621-1.06,3.621-3.141c0.521-1.101,1.28-3.261,1.681-4.821
		c-1.641,1.841-3.461,3.161-4.321,3.161c-0.54,0-0.86-0.38-0.86-1.04c0-1.781,1.9-4.321,4.321-5.801c1.36-0.84,2.98-1.3,4.48-1.3
		c0.46,0,0.62,0.08,0.62,0.36c0,0.14-0.02,0.2-0.2,0.66c-0.399-0.06-0.66-0.08-1.18-0.08c-2.4,0-3.941,0.58-5.262,1.98
		c-0.96,1.02-1.7,2.5-1.7,3.441c0,0.58,0.24,0.939,0.601,0.939c0.74,0,2.16-1.32,3.16-2.939c0.601-0.961,0.94-1.801,1.101-2.681
		c0.28,0.26,0.4,0.54,0.4,0.88c0,0.58-0.28,1.24-0.961,2.18l0.04-0.02c0.101,0-0.02,0,0.341-0.04c0.18-0.04,0.08-0.021,0.279-0.04
		c0.381-0.061,0.261-0.04,0.341-0.061h0.04L117.101,22.595z"/>
	<path d="M122.439,17.874c0,0.42-0.181,1.08-0.521,2c-0.16,0.4-0.38,0.94-0.7,1.64l-0.72,1.621c-0.42,0.959-0.58,1.399-0.601,1.619
		c0,0.16,0.141,0.281,0.341,0.281c0.1,0,0.359-0.08,0.64-0.201l0.12,0.281c-0.26,0.139-0.521,0.26-1.221,0.56
		c-0.62,0.28-0.819,0.36-1.22,0.479c0.06-1.22,0.28-1.859,1.38-4.26c0.82-1.801,1.061-2.401,1.08-2.701c0-0.16-0.1-0.3-0.26-0.3
		c-0.12,0-0.52,0.12-0.94,0.3l-0.08-0.32c1.181-0.44,1.381-0.52,2.701-1.1V17.874z M123.46,15.694c0,0.36-0.32,0.68-0.66,0.68
		c-0.24,0-0.461-0.2-0.461-0.44c0-0.36,0.32-0.68,0.66-0.68C123.26,15.254,123.46,15.454,123.46,15.694z"/>
	<path d="M127.6,22.275c0,0.641-0.561,1.541-1.501,2.341c-1.18,1.061-2.261,1.62-3.021,1.62c-0.7,0-1.141-0.5-1.141-1.3
		c0-1.82,1.181-4.081,2.861-5.481c1.1-0.9,2.44-1.52,3.36-1.52c0.48,0,0.761,0.2,0.761,0.56c0,0.54-0.66,1.42-1.501,1.98
		c-0.68,0.44-1.82,0.88-2.34,0.88c-0.32,0-0.501-0.14-0.641-0.5c0.32,0.02,0.48,0.04,0.66,0.04c1.3,0,2.641-0.9,2.641-1.76
		c0-0.28-0.24-0.46-0.601-0.46c-0.76,0-1.66,0.58-2.42,1.56c-1,1.3-1.641,2.961-1.641,4.181c0,0.641,0.3,1,0.84,1
		c1.221,0,2.681-1.48,3.541-3.62C127.56,21.995,127.6,22.115,127.6,22.275z"/>
	<path d="M134.22,19.034c-0.279-0.06-0.42-0.08-0.66-0.08c-0.84,0-1.76,0.7-2.68,2.101c-0.7,1.06-1.061,1.921-1.961,4.741
		c-0.46,0.1-0.8,0.199-1.22,0.34l0.039-0.1c0.101-0.26-0.02,0.06,0.36-0.961c0.801-2.12,0.66-1.721,1.061-2.881
		c0.26-0.8,0.46-1.42,0.64-1.94c0.061-0.22,0.101-0.42,0.101-0.58s-0.12-0.3-0.261-0.3c-0.1,0-0.34,0.08-0.659,0.26l-0.141-0.3
		c1-0.48,1.66-0.88,2.461-1.48c0.04,0.14,0.04,0.2,0.04,0.32c0,0.541-0.2,1.26-0.681,2.521c1.801-2,2.781-2.78,3.461-2.78
		c0.16,0,0.26,0.02,0.44,0.12L134.22,19.034z"/>
	<path d="M138.181,12.553c0.02,0.14,0.02,0.24,0.02,0.3c0,1.2-0.78,2.661-1.98,3.681c0.641-1.38,0.841-2.021,0.881-2.681
		L138.181,12.553z"/>
	<path d="M138.661,21.816c-0.101-0.241-0.16-0.541-0.16-0.821c0-0.62,0.42-1.36,1.16-2.081c0.72-0.7,1.36-0.94,2.46-0.94
		c0.28,0,0.421,0.02,0.66,0.06c-0.14,0.24-0.06,0.1-0.26,0.44c-0.561,0.94-0.561,0.94-0.96,1.561l-0.261-0.18
		c0.04-0.06,0.061-0.12,0.08-0.16c0.16-0.32,0.2-0.46,0.2-0.58c0-0.26-0.2-0.38-0.64-0.38c-0.801,0-1.501,0.7-1.501,1.48
		c0,0.18,0.08,0.46,0.2,0.74l0.16,0.34l0.141,0.32l0.159,0.339c0.16,0.32,0.24,0.74,0.24,1.121c0,0.859-0.399,1.52-1.38,2.301
		c-0.74,0.58-1.341,0.84-1.921,0.84c-0.66,0-1.14-0.36-1.14-0.9c0-0.26,0.1-0.62,0.24-0.88c0.42,0.72,0.88,1.04,1.5,1.04
		c0.96,0,1.8-0.76,1.8-1.62c0-0.22-0.079-0.521-0.199-0.78l-0.181-0.42l-0.2-0.42L138.661,21.816z"/>
	<path d="M150.381,18.014c1.661,0,2.521,0.68,2.521,1.98c0,1.38-0.7,3.02-1.8,4.241c-0.881,1-1.82,1.58-2.521,1.58
		c-0.36,0-0.601-0.199-0.601-0.5c0-0.18,0.021-0.26,0.12-0.46c0.4,0.28,0.561,0.34,0.86,0.34c0.68,0,1.32-0.44,1.92-1.3
		c0.641-0.961,1.121-2.281,1.121-3.161c0-1.1-0.641-1.66-2.001-1.7l-0.02,0.08c-0.08,0.22,0.12-0.3-0.641,1.66
		c-0.6,1.561-1.16,3.021-1.16,3.021c-3.541,9.021-2.62,6.681-2.841,7.261c-0.399,0.181-0.52,0.22-1.14,0.38
		c0.52-1.199,1.04-2.54,1.94-4.941c0.92-2.52,1.38-3.801,1.72-4.76c0.86-0.2,0.841-0.2,1.82-2.701c-0.12-0.02-0.22-0.02-0.26-0.02
		c-0.44,0-1.061,0.04-1.44,0.1l-0.52,1.36l-0.28-0.12l0.84-2.221l0.061-0.02c0.14,0,0.04,0,0.38-0.02l0.26-0.02
		c0.36-0.02,0.18,0,0.58-0.02c0.761-0.04,0.58-0.02,0.761-0.04l0.6-1.721h0.32L150.381,18.014z"/>
	<path d="M159.002,18.854c-1.601,0-2.841,0.56-3.722,1.701c-0.819,1.06-1.479,2.74-1.479,3.761c0,0.641,0.42,1.1,0.979,1.1
		c0.66,0,1.561-0.68,2.36-1.8c0.7-0.98,1.121-2.021,1.121-2.821c0-0.4-0.24-0.72-0.561-0.72c-0.521,0-1.021,0.521-1.48,1.561
		c-0.04-0.16-0.06-0.24-0.06-0.34c0-0.44,0.28-0.88,0.86-1.34c0.52-0.42,0.939-0.6,1.32-0.6c0.6,0,1.08,0.56,1.08,1.26
		c0,1.06-0.7,2.32-1.98,3.521c-1.341,1.24-2.621,1.96-3.481,1.96c-0.739,0-1.3-0.601-1.3-1.4c0-1.82,1.42-4.001,3.501-5.381
		c1.1-0.74,2.521-1.26,3.4-1.26c0.26,0,0.44,0.16,0.44,0.38c0,0.12-0.021,0.2-0.12,0.48
		C159.521,18.874,159.262,18.854,159.002,18.854z"/>
	<path d="M165.741,19.034c-0.279-0.06-0.42-0.08-0.66-0.08c-0.84,0-1.76,0.7-2.68,2.101c-0.7,1.06-1.061,1.921-1.961,4.741
		c-0.46,0.1-0.8,0.199-1.22,0.34l0.039-0.1c0.101-0.26-0.02,0.06,0.36-0.961c0.801-2.12,0.66-1.721,1.061-2.881
		c0.26-0.8,0.46-1.42,0.64-1.94c0.061-0.22,0.101-0.42,0.101-0.58s-0.12-0.3-0.261-0.3c-0.1,0-0.34,0.08-0.659,0.26l-0.141-0.3
		c1-0.48,1.66-0.88,2.461-1.48c0.04,0.14,0.04,0.2,0.04,0.32c0,0.541-0.2,1.26-0.681,2.521c1.801-2,2.781-2.78,3.461-2.78
		c0.16,0,0.26,0.02,0.44,0.12L165.741,19.034z"/>
	<path d="M169.402,18.314h-1.38c-0.2,0.42-0.44,0.98-1.08,2.44c-0.221,0.521-0.561,1.241-0.94,2.121
		c-0.58,1.28-0.721,1.66-0.721,1.96c0,0.281,0.16,0.461,0.44,0.461s0.9-0.26,1.421-0.601l0.14,0.24
		c-0.78,0.601-1.921,1.08-2.561,1.08c-0.46,0-0.74-0.22-0.74-0.58c0-0.2,0.1-0.56,0.26-0.979c0.08-0.201,0.28-0.681,0.561-1.301
		l0.68-1.561l0.341-0.76c0.52-1.2,0.92-2.12,0.979-2.3l0.04-0.08l0.021-0.06l0.04-0.08h-1.28l0.14-0.3
		c1.261,0,1.36-0.08,2.041-1.761c0.079,0.02,0.159,0.02,0.199,0.02c0.301,0,0.62-0.04,0.921-0.12c-0.08,0.24-0.141,0.36-0.381,0.94
		l-0.1,0.22c-0.26,0.62-0.16,0.42-0.28,0.7h1.381L169.402,18.314z"/>
	<path d="M173.362,18.514h-1.58l-2.66,7.501c-0.501,0-0.58,0.06-0.801,0.56c-0.34,0.841-0.84,1.861-1.14,2.401
		c-0.841,1.5-2.201,2.581-3.261,2.581c-0.54,0-0.94-0.301-0.94-0.721c0-0.061,0.02-0.18,0.04-0.28c0.38,0.08,0.68,0.12,1.021,0.12
		c1.5,0,2.54-0.92,3.48-3.08c0.66-1.521,0.98-2.401,2.181-6.022c1.22-3.621,0.88-2.621,1.02-3.061h-1.08l0.12-0.26
		c0.08-0.02,0.021,0,0.38-0.02c0.521-0.04,0.82-0.3,1.141-1c0.74-1.7,1.48-2.541,3.08-3.521c1.141-0.68,1.901-0.96,2.621-0.96
		c0.48,0,0.68,0.1,0.66,0.3c0,0.12,0,0.08-0.2,0.64l-0.46,1.36h-0.32c0.181-0.46,0.221-0.66,0.221-0.92c0-0.34-0.28-0.5-0.921-0.5
		c-1.06,0-2.141,0.64-2.78,1.68c-0.44,0.68-0.761,1.4-1.301,2.9h1.581L173.362,18.514z"/>
	<path d="M177.981,18.854c-1.601,0-2.841,0.56-3.722,1.701c-0.819,1.06-1.479,2.74-1.479,3.761c0,0.641,0.42,1.1,0.979,1.1
		c0.66,0,1.561-0.68,2.36-1.8c0.7-0.98,1.121-2.021,1.121-2.821c0-0.4-0.24-0.72-0.561-0.72c-0.521,0-1.021,0.521-1.48,1.561
		c-0.04-0.16-0.06-0.24-0.06-0.34c0-0.44,0.28-0.88,0.86-1.34c0.52-0.42,0.939-0.6,1.32-0.6c0.6,0,1.08,0.56,1.08,1.26
		c0,1.06-0.7,2.32-1.98,3.521c-1.341,1.24-2.621,1.96-3.481,1.96c-0.739,0-1.3-0.601-1.3-1.4c0-1.82,1.42-4.001,3.501-5.381
		c1.1-0.74,2.521-1.26,3.4-1.26c0.26,0,0.44,0.16,0.44,0.38c0,0.12-0.021,0.2-0.12,0.48
		C178.501,18.874,178.241,18.854,177.981,18.854z"/>
	<path d="M181.5,13.733c1.541-0.58,1.961-0.76,2.561-1.06c0,0.94-0.399,2.101-1.58,4.781c-0.98,2.26-1.82,4.301-2.34,5.721
		c-0.301,0.74-0.44,1.281-0.44,1.541s0.14,0.439,0.36,0.42c0.22-0.02,0.399-0.12,1.1-0.68l0.181,0.26
		c-0.841,0.76-1.881,1.38-2.301,1.38c-0.36,0-0.58-0.3-0.58-0.82c0-0.62,0.2-1.341,0.9-3.12c0.159-0.38,0.239-0.601,0.68-1.641
		c0.42-1.041,0.48-1.14,1.061-2.581l0.319-0.74l0.301-0.74c0.62-1.48,0.84-2.101,0.84-2.34c0-0.16-0.12-0.26-0.3-0.26
		c-0.101,0-0.101,0-0.5,0.12c-0.04,0.02-0.101,0.02-0.16,0.04L181.5,13.733z"/>
	<path d="M185.561,17.874c0,0.42-0.181,1.08-0.521,2c-0.16,0.4-0.38,0.94-0.7,1.64l-0.72,1.621c-0.42,0.959-0.58,1.399-0.601,1.619
		c0,0.16,0.141,0.281,0.341,0.281c0.1,0,0.359-0.08,0.64-0.201l0.12,0.281c-0.26,0.139-0.521,0.26-1.221,0.56
		c-0.62,0.28-0.819,0.36-1.22,0.479c0.06-1.22,0.28-1.859,1.38-4.26c0.82-1.801,1.061-2.401,1.08-2.701c0-0.16-0.1-0.3-0.26-0.3
		c-0.12,0-0.52,0.12-0.94,0.3l-0.08-0.32c1.181-0.44,1.381-0.52,2.701-1.1V17.874z M186.581,15.694c0,0.36-0.32,0.68-0.66,0.68
		c-0.24,0-0.461-0.2-0.461-0.44c0-0.36,0.32-0.68,0.66-0.68C186.381,15.254,186.581,15.454,186.581,15.694z"/>
	<path d="M191.421,18.854c-1.601,0-2.841,0.56-3.722,1.701c-0.819,1.06-1.479,2.74-1.479,3.761c0,0.641,0.42,1.1,0.979,1.1
		c0.66,0,1.561-0.68,2.36-1.8c0.7-0.98,1.121-2.021,1.121-2.821c0-0.4-0.24-0.72-0.561-0.72c-0.521,0-1.021,0.521-1.48,1.561
		c-0.04-0.16-0.06-0.24-0.06-0.34c0-0.44,0.28-0.88,0.86-1.34c0.52-0.42,0.939-0.6,1.32-0.6c0.6,0,1.08,0.56,1.08,1.26
		c0,1.06-0.7,2.32-1.98,3.521c-1.341,1.24-2.621,1.96-3.481,1.96c-0.739,0-1.3-0.601-1.3-1.4c0-1.82,1.42-4.001,3.501-5.381
		c1.1-0.74,2.521-1.26,3.4-1.26c0.26,0,0.44,0.16,0.44,0.38c0,0.12-0.021,0.2-0.12,0.48
		C191.94,18.874,191.681,18.854,191.421,18.854z"/>
</g>
</svg>
