<?xml version="1.0" encoding="utf-8"?>
<!-- Generator: Adobe Illustrator 16.0.0, SVG Export Plug-In . SVG Version: 6.00 Build 0)  -->
<!DOCTYPE svg PUBLIC "-//W3C//DTD SVG 1.1//EN" "http://www.w3.org/Graphics/SVG/1.1/DTD/svg11.dtd">
<svg version="1.1" id="Calque_1" xmlns="http://www.w3.org/2000/svg" xmlns:xlink="http://www.w3.org/1999/xlink" x="0px" y="0px"
	 width="270.068px" height="174.879px" viewBox="0 0 270.068 174.879" enable-background="new 0 0 270.068 174.879"
	 xml:space="preserve">
<g id="QkOU8u_1_">
	<g>
		<path fill-rule="evenodd" clip-rule="evenodd" d="M101.391,75.944c-1.284,7.288-3.175,14.532-3.708,21.875
			c-0.78,10.722-0.883,21.523-0.557,32.269c0.066,2.174,3.327,4.252,5.115,6.374c1.953-1.723,5.148-3.152,5.637-5.221
			c1.858-7.861,3.541-15.89,3.993-23.928c0.735-13.076-1.065-26.327,3.155-39.123c4.593-13.923,12.821-24.554,27.628-28.182
			c10.771-2.639,21.745-4.551,32.712-6.254c8.317-1.292,14.611-5.005,18.883-12.288c1.061-1.808,2.676-3.291,4.036-4.923
			c0.444,0.218,0.89,0.436,1.335,0.653c0.074,1.215,0.43,2.492,0.182,3.637c-3.734,17.253-15.248,32.36-36.711,33.638
			c-6.972,0.415-13.985,0.719-20.878,1.748c-8.733,1.304-14.421,6.912-15.229,15.506c-1.226,13.051-1.488,26.213-1.665,39.335
			c-0.163,12.074-0.948,23.94-6.03,35.123c-0.618,1.36-1.194,2.745-1.907,4.055c-6.878,12.639-16.235,14.783-27.794,6.474
			c-2.728,4.317-5.061,8.964-8.276,12.888c-5.57,6.798-11.602,6.975-17.982,0.861c-6.515-6.243-8.685-14.477-9.155-23.075
			c-1.002-18.309,3.392-35.606,10.671-52.272c0.663-1.518,1.283-3.055,1.898-4.593c0.038-0.095-0.149-0.279-0.399-0.712
			c-14.525,10.684-32.11,16.967-44.104,31.148c-2.403,2.841-3.922,6.467-5.617,9.848c-0.558,1.113-0.918,2.848-0.438,3.854
			c1.138,2.382,2.402,5.173,4.455,6.482c1.362,0.869,5.521,0.093,6.059-1.056c1.126-2.407,0.891-5.55,0.818-8.381
			c-0.048-1.872-0.786-3.725-1.214-5.587c2.375,0.228,5.017-0.136,7.074,0.795c6.092,2.756,9.726,11.689,8.324,19.293
			c-1.65,8.952-8.003,15.417-15.933,16.215c-15.935,1.604-28.294-12.289-25.329-28.47c2.003-10.93,8.127-19.319,16.957-25.516
			c9.926-6.967,20.186-13.492,30.568-19.766c13.997-8.458,25.888-19.174,36.27-31.724c1.196-1.446,3.343-2.104,5.05-3.128
			c0.979,2.085,3.152,4.473,2.714,6.199c-1.409,5.557-3.189,11.19-5.898,16.215c-7.153,13.268-13.069,26.989-15.441,41.884
			c-1.109,6.965-0.861,14.234-0.395,21.311c0.142,2.157,3.065,4.13,4.714,6.188c1.716-1.798,4.474-3.354,4.961-5.439
			c1.805-7.737,2.531-15.723,4.281-23.476c2.332-10.326,4.877-20.637,8.087-30.714c1.272-3.993,4.572-7.339,6.949-10.98
			C99.969,75.316,100.68,75.63,101.391,75.944z"/>
		<path fill-rule="evenodd" clip-rule="evenodd" d="M168.659,108.97c0.492-1.708,1.295-3.393,1.426-5.129
			c0.674-8.91,2.459-17.423,7.776-24.876c3.656-5.125,8.036-9.182,14.833-8.346c6.778,0.833,10.266,5.747,12.312,11.673
			c1.33,3.846,2.057,7.9,4.269,12.363c0.948-2.562,1.884-5.128,2.846-7.684c2.489-6.611,4.237-13.647,7.692-19.71
			c3.713-6.515,9.838-9.933,18.632-6.175c0.277-5.75,0.526-10.931,0.807-16.736c-10.547,1.105-20.479,1.726-30.263,3.288
			c-10.161,1.622-16.635,9.532-23.535,16.492c-0.439-0.278-0.88-0.557-1.32-0.835c0.255-1.794,0.247-3.674,0.805-5.369
			c4.978-15.14,18.368-23.913,34.695-22.78c5.312,0.368,10.621,0.802,15.916,1.361c4.156,0.439,5.619-1.501,6.562-5.406
			c1.625-6.732,3.584-13.474,6.334-19.808c1.512-3.483,4.492-6.748,7.62-8.973c2.38-1.692,6.774-3.022,8.93-1.91
			c2.472,1.275,4.512,5.292,4.895,8.349c1.103,8.804-3.065,16.114-8.373,22.771c-1.445,1.813-2.93,3.878-4.878,4.958
			c-5.908,3.273-6.428,8.755-6.496,14.441c-0.145,12.13-0.242,24.264-0.064,36.391c0.021,1.455,1.87,2.882,2.872,4.322
			c0.9-1.722,1.978-3.38,2.621-5.193c0.288-0.812-0.502-1.947-0.438-2.912c0.13-1.946,0.509-3.875,0.785-5.811
			c1.668,1.176,3.784,2.022,4.928,3.583c5.749,7.835,1.324,23.913-7.812,26.822c-3.203,1.021-7.308-0.79-12.408-1.504
			c-3.1,3.569-7.223,9.702-15.109,8.632c-7.572-1.028-11.652-6.35-14.27-14.963c-2.287,3.83-3.977,6.482-5.487,9.231
			c-2.543,4.627-4.3,9.87-7.583,13.873c-8.517,10.381-20.78,8.298-26.149-3.989c-0.397-0.909-0.776-1.827-1.782-4.198
			c-2.09,3.188-3.807,5.512-5.211,8.013c-2.265,4.036-3.974,8.425-6.558,12.229c-3.218,4.738-7.642,8.248-13.893,6.774
			c-6.27-1.478-10.756-5.49-12.416-11.771c-2.967-11.226-1.214-22.115,3.592-32.514c1.377-2.979,3.187-5.883,5.329-8.363
			c7.281-8.431,17.208-7.218,21.914,3.001c2.236,4.857,2.969,10.408,4.382,15.645C167.811,108.473,168.235,108.722,168.659,108.97z
			 M193.793,103.764c-4.047-5.241-4.749-9.328-0.929-13.408c3.535-3.773,1.551-5.957-1.201-7.997
			c-3.514-2.604-6.146,0.147-6.977,2.863c-1.715,5.602-3.129,11.478-3.313,17.283c-0.081,2.562,3.137,5.228,4.856,7.846
			c2.344-1.758,4.707-3.492,7.012-5.3C193.571,104.793,193.624,104.182,193.793,103.764z M222.913,85.834
			c0.321,0.146,0.643,0.292,0.964,0.437c0.087,1.325-0.241,2.882,0.346,3.927c1.231,2.192,2.942,4.116,4.456,6.149
			c1.763-1.565,4.522-2.833,5.096-4.753c1.594-5.332,2.574-10.905,3.137-16.449c0.168-1.651-1.492-4.46-2.965-5.017
			c-1.312-0.496-4.395,0.908-5.174,2.315C226.422,76.687,224.812,81.341,222.913,85.834z M155.441,101.045
			c-1.964-1.646-3.863-4.424-5.454-4.256c-1.79,0.188-3.93,2.762-4.791,4.779c-1.402,3.285-2.796,7.035-2.517,10.452
			c0.3,3.682,2.221,7.386,4.134,10.674c0.47,0.809,4.25,0.759,5.427-0.209c1.188-0.977,1.981-4.068,1.306-5.402
			C149.822,109.719,149.744,108.335,155.441,101.045z M252.6,30.226c7.539-6.477,9.853-12.801,6.987-18.37
			C254.276,16.67,253.837,22.951,252.6,30.226z"/>
	</g>
</g>
</svg>
