<?xml version="1.0" encoding="utf-8"?>
<!-- Generator: Adobe Illustrator 16.0.0, SVG Export Plug-In . SVG Version: 6.00 Build 0)  -->
<svg version="1.2" baseProfile="tiny" id="Calque_1"
	 xmlns="http://www.w3.org/2000/svg" xmlns:xlink="http://www.w3.org/1999/xlink" x="0px" y="0px" width="81.5px" height="46.793px"
	 viewBox="0 0 81.5 46.793" xml:space="preserve">
<g>
	<path fill="none" d="M52.243,28.983l-0.504,0.371l-0.407-0.553l0.458-0.338c0.059-0.043,0.079-0.106,0.029-0.172
		c-0.048-0.066-0.113-0.066-0.174-0.022l-0.457,0.338l-0.408-0.553l0.504-0.371c0.059-0.044,0.079-0.106,0.029-0.173
		c-0.047-0.066-0.113-0.065-0.173-0.022l-0.601,0.443c-0.078,0.058-0.074,0.132-0.027,0.196l1.078,1.462
		c0.047,0.064,0.117,0.089,0.195,0.031l0.6-0.443c0.06-0.043,0.08-0.106,0.031-0.172C52.367,28.938,52.301,28.939,52.243,28.983z"/>
	<path fill="none" d="M52.609,26.405l-0.41,0.302c-0.079,0.058-0.075,0.132-0.027,0.196l1.077,1.462
		c0.047,0.064,0.117,0.089,0.195,0.032l0.439-0.324c0.452-0.333,0.464-0.88,0.092-1.385C53.646,26.242,53.112,26.035,52.609,26.405z
		 M53.708,27.925l-0.299,0.22l-0.979-1.329l0.284-0.21c0.398-0.294,0.783-0.102,1.038,0.246
		C54.004,27.196,54.102,27.634,53.708,27.925z"/>
	<path fill="none" d="M55.384,26.667l-0.503,0.371l-0.407-0.553l0.457-0.338c0.06-0.043,0.08-0.106,0.03-0.172
		c-0.049-0.066-0.113-0.065-0.174-0.022l-0.457,0.338l-0.408-0.553l0.503-0.37c0.06-0.045,0.079-0.106,0.03-0.173
		c-0.049-0.066-0.113-0.065-0.174-0.022l-0.6,0.443c-0.078,0.058-0.074,0.131-0.027,0.196l1.077,1.461
		c0.048,0.064,0.116,0.09,0.195,0.032l0.601-0.442c0.059-0.043,0.079-0.106,0.029-0.173C55.509,26.622,55.444,26.623,55.384,26.667z
		"/>
	<path fill="none" d="M56.682,24.224c-0.218-0.295-0.602-0.378-0.941-0.128L55.329,24.4c-0.078,0.058-0.074,0.132-0.027,0.197
		l1.09,1.479c0.05,0.068,0.122,0.082,0.187,0.035c0.063-0.048,0.073-0.12,0.022-0.189l-0.394-0.534l0.322-0.238
		C56.836,24.921,56.899,24.518,56.682,24.224z M56.073,25.207l-0.515-0.698l0.3-0.22c0.261-0.193,0.492-0.078,0.615,0.088
		c0.141,0.192,0.115,0.45-0.092,0.602L56.073,25.207z"/>
	<path fill="none" d="M51.163,29.589c-0.088,0.065-0.088,0.299-0.342,0.486c-0.359,0.264-0.779,0.025-1.018-0.298
		c-0.238-0.322-0.346-0.792,0.029-1.068c0.26-0.192,0.43-0.061,0.525-0.131c0.052-0.039,0.052-0.107,0.012-0.163
		c-0.062-0.085-0.372-0.106-0.67,0.114c-0.502,0.369-0.443,0.974-0.12,1.414c0.323,0.439,0.886,0.673,1.374,0.313
		c0.297-0.219,0.441-0.523,0.363-0.63C51.273,29.566,51.211,29.552,51.163,29.589z"/>
	<path fill="none" d="M59.308,22.668l-0.004-0.004c0.106-0.144,0.099-0.358-0.038-0.543c-0.142-0.192-0.453-0.288-0.753-0.067
		l-0.368,0.271c-0.077,0.058-0.074,0.132-0.027,0.197l1.078,1.461c0.047,0.064,0.117,0.089,0.195,0.031l0.4-0.295
		c0.356-0.263,0.385-0.636,0.189-0.901C59.817,22.594,59.528,22.54,59.308,22.668z M58.375,22.433l0.245-0.18
		c0.185-0.137,0.353-0.092,0.465,0.06c0.114,0.154,0.099,0.348-0.079,0.479l-0.237,0.175L58.375,22.433z M59.649,23.545
		l-0.293,0.217l-0.461-0.625l0.305-0.224c0.217-0.161,0.445-0.115,0.572,0.058C59.91,23.158,59.854,23.394,59.649,23.545z"/>
	<path fill="none" d="M57.831,22.707c-0.051-0.069-0.123-0.082-0.188-0.035c-0.063,0.048-0.072,0.119-0.021,0.188l0.74,1.004
		c0.195,0.266,0.131,0.555-0.135,0.75s-0.562,0.172-0.758-0.093l-0.74-1.003c-0.051-0.069-0.122-0.082-0.187-0.035
		c-0.064,0.047-0.072,0.12-0.021,0.188l0.681,0.923c0.419,0.569,0.868,0.415,1.158,0.201c0.289-0.213,0.57-0.597,0.151-1.167
		L57.831,22.707z"/>
	<path fill="none" d="M46.577,31.965l-0.351,0.26c-0.06,0.043-0.079,0.106-0.03,0.172c0.049,0.067,0.113,0.066,0.174,0.022
		l0.295-0.216l0.072,0.1c0.168,0.228,0.215,0.625-0.112,0.867c-0.394,0.29-0.806,0.043-1.043-0.278
		c-0.237-0.323-0.347-0.792,0.032-1.072c0.305-0.225,0.53-0.098,0.635-0.174c0.059-0.044,0.066-0.119,0.025-0.174
		c-0.066-0.089-0.432-0.098-0.778,0.157c-0.528,0.39-0.462,0.989-0.138,1.428c0.324,0.439,0.887,0.672,1.373,0.313
		c0.574-0.423,0.425-0.935,0.124-1.343C46.758,31.894,46.683,31.887,46.577,31.965z"/>
	<path fill="none" d="M43.697,35.283l-0.446,0.328l-1.03-1.397c-0.051-0.069-0.122-0.082-0.187-0.035
		c-0.064,0.047-0.072,0.119-0.022,0.188l1.09,1.478c0.048,0.064,0.118,0.09,0.196,0.032l0.543-0.4c0.06-0.044,0.08-0.106,0.03-0.173
		C43.822,35.238,43.756,35.238,43.697,35.283z"/>
	<path fill="none" d="M43.345,34.025c0.067-0.048,0.065-0.114,0.022-0.173l-0.238-0.322c-0.044-0.06-0.106-0.08-0.172-0.031
		c-0.066,0.049-0.066,0.114-0.023,0.174l0.238,0.323C43.217,34.054,43.28,34.075,43.345,34.025z"/>
	<path fill="none" d="M45.723,33.814l-1.554-1.011c-0.081-0.054-0.164-0.077-0.245-0.018c-0.08,0.059-0.082,0.145-0.054,0.238
		l0.505,1.784c0.01,0.026,0.028,0.097,0.049,0.126c0.04,0.054,0.11,0.054,0.164,0.014c0.057-0.041,0.062-0.096,0.045-0.153
		l-0.115-0.384l0.783-0.578l0.333,0.223c0.05,0.033,0.103,0.045,0.16,0.003c0.055-0.041,0.075-0.106,0.034-0.162
		C45.808,33.869,45.747,33.83,45.723,33.814z M44.45,34.182l-0.348-1.153l0.004-0.004l0.998,0.674L44.45,34.182z"/>
	<path fill="none" d="M48.196,31.966l-0.503,0.371l-0.407-0.553l0.458-0.338c0.06-0.043,0.08-0.106,0.03-0.172
		c-0.049-0.067-0.114-0.066-0.174-0.023l-0.459,0.338l-0.406-0.552l0.503-0.371c0.06-0.044,0.079-0.106,0.03-0.173
		c-0.049-0.066-0.114-0.066-0.174-0.022l-0.602,0.443c-0.078,0.057-0.074,0.132-0.026,0.195l1.077,1.462
		c0.048,0.064,0.118,0.09,0.196,0.032l0.6-0.443c0.06-0.044,0.079-0.106,0.03-0.172C48.321,31.921,48.255,31.922,48.196,31.966z"/>
	<path fill="none" d="M48.817,29.351c-0.051-0.069-0.122-0.082-0.186-0.035c-0.064,0.047-0.073,0.12-0.023,0.188l0.904,1.225
		l-0.006,0.003l-1.758-0.597c-0.119-0.041-0.166-0.045-0.229,0c-0.066,0.049-0.064,0.11-0.004,0.193l1.094,1.483
		c0.051,0.069,0.121,0.081,0.187,0.034c0.064-0.046,0.073-0.119,0.022-0.188l-0.903-1.225l0.005-0.004l1.759,0.598
		c0.118,0.04,0.166,0.046,0.228,0c0.066-0.049,0.065-0.11,0.004-0.193L48.817,29.351z"/>
	<path fill="none" d="M61.065,22.479l-0.445,0.328l-1.03-1.397c-0.052-0.069-0.123-0.082-0.188-0.035
		c-0.063,0.047-0.072,0.12-0.022,0.188l1.09,1.478c0.048,0.064,0.117,0.09,0.195,0.032l0.544-0.4c0.06-0.044,0.079-0.106,0.03-0.172
		C61.19,22.435,61.125,22.436,61.065,22.479z"/>
	<path fill="none" d="M49.12,15.228c0.554-0.41,0.652-1.206,0.242-1.76c-0.381-0.517-1.188-0.627-1.717-0.235
		s-0.651,1.206-0.279,1.71C47.767,15.484,48.589,15.618,49.12,15.228z"/>
	<path fill="none" d="M48.982,16.984l4.433,6.001c0.463,0.626,1.159,0.757,1.703,0.355c0.543-0.401,0.623-1.106,0.16-1.732l-4.432-6
		c-0.021-0.029-0.043-0.055-0.064-0.079l-1.855,1.371C48.944,16.928,48.961,16.956,48.982,16.984z"/>
	<path fill="none" d="M52.696,16.543l3.443,0.524l-0.521,3.427v0c-0.096,0.641,0.345,1.237,0.985,1.334
		c0.32,0.048,0.63-0.038,0.87-0.216c0.241-0.179,0.414-0.449,0.463-0.769l0.49-3.222l0.213-1.397l-0.002,0
		c0.074-0.623-0.354-1.195-0.974-1.296v-0.001l-0.034-0.004v0l-0.002,0l-1.348-0.205l-3.234-0.493
		c-0.32-0.048-0.63,0.039-0.871,0.217c-0.241,0.178-0.414,0.448-0.463,0.769C51.616,15.851,52.056,16.448,52.696,16.543z"/>
	<path fill="none" d="M57.922,14.289c0.002,0,0.005,0.002,0.008,0.002c0.344,0.058,0.646,0.214,0.883,0.437l0.594-4.04L57.09,10.35
		L56.54,14.08l1.348,0.205L57.922,14.289z"/>
	<path fill="none" d="M51.194,26.095l1.895-1.4l-6.623-8.967c-0.467-0.631-1.174-0.761-1.727-0.354
		c-0.553,0.409-0.635,1.121-0.169,1.752L51.194,26.095z"/>
	<path fill="none" d="M47.875,28.685c0.695-0.514,1.541-1.368,2.01-1.981l0.041-0.069c0.284-0.447,0.211-0.931-0.176-1.211
		c-0.402-0.292-0.912-0.197-1.249,0.256l-0.003-0.001c-0.335,0.48-0.832,0.994-1.365,1.386c-1.291,0.954-2.403,0.799-3.354-0.517
		l4.322-3.193c-0.175-0.326-0.369-0.616-0.545-0.855c-1.275-1.726-3.199-2.452-5.233-0.949c-2.091,1.545-2.11,3.987-0.534,6.12
		C43.604,30.126,45.659,30.322,47.875,28.685z M43.242,22.911c0.759-0.559,1.618-0.393,2.233,0.499l-2.568,1.896
		C42.383,24.392,42.499,23.461,43.242,22.911z"/>
	<path fill="none" d="M59.327,16.149c0,0.005-0.002,0.01-0.002,0.016l-0.213,1.396l3.688,0.574l0.351-2.313l-3.988-0.623
		C59.304,15.482,59.368,15.81,59.327,16.149z"/>
	<path fill="none" d="M60.512,20.73c-0.051-0.069-0.123-0.082-0.187-0.035s-0.073,0.119-0.022,0.189l1.102,1.494
		c0.051,0.069,0.123,0.082,0.188,0.035c0.063-0.048,0.072-0.12,0.021-0.189L60.512,20.73z"/>
	<path fill="none" d="M36.124,26.369l-0.703,0.52c-0.462,0.342-0.553,0.861-0.256,1.265c0.299,0.404,0.82,0.465,1.282,0.124
		l0.702-0.52l3.486,4.719c0.439,0.593,1.102,0.715,1.622,0.331c0.519-0.383,0.599-1.053,0.16-1.647l0.001,0l-3.486-4.719
		l1.029-0.759L39.96,25.68c0.452-0.34,0.544-0.851,0.248-1.252s-0.813-0.467-1.272-0.135l-0.001-0.001l-1.028,0.76l-0.122-0.166
		c-0.685-0.926-0.636-1.592,0.15-2.172c0.268-0.197,0.61-0.407,0.964-0.516l-0.962-1.567c-0.427,0.185-0.841,0.446-1.22,0.727
		c-1.908,1.409-2.096,2.979-0.695,4.874L36.124,26.369z"/>
	<path fill="none" d="M62.856,20.969c-0.088,0.064-0.087,0.298-0.341,0.486c-0.358,0.264-0.78,0.025-1.019-0.297
		c-0.237-0.323-0.346-0.792,0.029-1.069c0.262-0.192,0.432-0.061,0.525-0.132c0.053-0.038,0.054-0.107,0.013-0.162
		c-0.063-0.085-0.372-0.107-0.671,0.114c-0.5,0.369-0.443,0.975-0.119,1.414c0.324,0.438,0.885,0.673,1.374,0.313
		c0.296-0.218,0.441-0.523,0.363-0.63C62.967,20.945,62.906,20.932,62.856,20.969z"/>
	<path fill="none" d="M62.403,19.335c-0.05-0.068-0.122-0.082-0.187-0.034c-0.063,0.047-0.072,0.119-0.021,0.188l1.103,1.495
		c0.05,0.069,0.121,0.083,0.186,0.035c0.064-0.046,0.073-0.12,0.022-0.188L62.403,19.335z"/>
	<path fill="none" d="M63.745,18.373l1.077,1.461c0.048,0.064,0.118,0.09,0.196,0.032l0.6-0.443c0.06-0.043,0.08-0.106,0.03-0.172
		c-0.048-0.067-0.114-0.066-0.174-0.022L64.971,19.6l-0.407-0.553l0.458-0.338c0.059-0.044,0.078-0.105,0.03-0.172
		c-0.05-0.067-0.114-0.066-0.175-0.022l-0.457,0.337L64.012,18.3l0.504-0.371c0.059-0.044,0.079-0.106,0.029-0.172
		c-0.049-0.066-0.113-0.066-0.174-0.022l-0.6,0.442C63.694,18.235,63.698,18.309,63.745,18.373z"/>
	<path fill="none" d="M63.78,17.969c0.021-0.016,0.037-0.034,0.065-0.081l0.19-0.312c0.047-0.075,0.039-0.121,0.019-0.15
		c-0.026-0.035-0.103-0.078-0.163-0.032c-0.021,0.016-0.037,0.034-0.066,0.081l-0.189,0.312c-0.047,0.075-0.04,0.12-0.02,0.149
		C63.643,17.971,63.719,18.015,63.78,17.969z"/>
	<path fill="none" d="M62.545,19.231c0.05,0.066,0.115,0.066,0.174,0.021l0.316-0.232l1.029,1.397
		c0.051,0.069,0.123,0.082,0.188,0.035c0.063-0.047,0.072-0.12,0.021-0.188l-1.029-1.397l0.314-0.232
		c0.061-0.044,0.08-0.106,0.031-0.173c-0.049-0.066-0.115-0.066-0.174-0.022l-0.84,0.619C62.517,19.102,62.497,19.165,62.545,19.231
		z"/>
	<path fill="#111111" d="M59.085,22.312c-0.112-0.152-0.28-0.196-0.465-0.06l-0.245,0.18l0.394,0.534l0.237-0.175
		C59.184,22.66,59.2,22.466,59.085,22.312z"/>
	<path fill="#111111" d="M45.475,23.41c-0.615-0.891-1.475-1.058-2.233-0.499c-0.743,0.55-0.858,1.48-0.335,2.395L45.475,23.41z"/>
	<path fill="#111111" d="M56.473,24.377c-0.123-0.166-0.354-0.282-0.615-0.088l-0.3,0.22l0.515,0.698l0.309-0.228
		C56.588,24.827,56.614,24.57,56.473,24.377z"/>
	<polygon fill="#111111" points="44.102,33.029 44.45,34.182 45.104,33.699 44.106,33.025 	"/>
	<path fill="#111111" d="M52.713,26.607l-0.284,0.21l0.979,1.329l0.299-0.22c0.395-0.291,0.297-0.729,0.044-1.073
		C53.497,26.505,53.112,26.313,52.713,26.607z"/>
	<path fill="#111111" d="M59.2,22.913l-0.305,0.224l0.461,0.625l0.293-0.217c0.205-0.151,0.261-0.387,0.123-0.574
		C59.645,22.798,59.417,22.752,59.2,22.913z"/>
	<path fill="#111111" d="M40.85,46.793l35.18-25.946L60.725,0H6.436L40.85,46.793z M43.84,35.477l-0.543,0.4
		c-0.078,0.058-0.148,0.032-0.196-0.032l-1.09-1.478c-0.05-0.069-0.042-0.141,0.022-0.188c0.064-0.047,0.136-0.035,0.187,0.035
		l1.03,1.397l0.446-0.328c0.06-0.045,0.125-0.045,0.174,0.021C43.92,35.371,43.9,35.433,43.84,35.477z M42.958,33.499
		c0.065-0.049,0.128-0.029,0.172,0.031l0.238,0.322c0.043,0.06,0.045,0.125-0.022,0.173c-0.065,0.05-0.128,0.029-0.173-0.03
		l-0.238-0.323C42.891,33.613,42.891,33.547,42.958,33.499z M45.794,34.059c-0.058,0.042-0.11,0.03-0.16-0.003l-0.333-0.223
		l-0.783,0.578l0.115,0.384c0.017,0.058,0.012,0.112-0.045,0.153c-0.054,0.04-0.124,0.04-0.164-0.014
		c-0.021-0.029-0.039-0.1-0.049-0.126l-0.505-1.784c-0.028-0.093-0.026-0.179,0.054-0.238c0.081-0.06,0.164-0.037,0.245,0.018
		l1.554,1.011c0.023,0.016,0.085,0.055,0.105,0.083C45.87,33.952,45.849,34.018,45.794,34.059z M46.731,33.368
		c-0.486,0.359-1.049,0.126-1.373-0.313c-0.324-0.439-0.391-1.038,0.138-1.428c0.347-0.255,0.712-0.246,0.778-0.157
		c0.041,0.055,0.033,0.13-0.025,0.174c-0.104,0.077-0.33-0.05-0.635,0.174c-0.379,0.28-0.27,0.75-0.032,1.072
		c0.237,0.322,0.649,0.568,1.043,0.278c0.327-0.242,0.28-0.639,0.112-0.867l-0.072-0.1l-0.295,0.216
		c-0.061,0.044-0.125,0.045-0.174-0.022c-0.049-0.066-0.029-0.128,0.03-0.172l0.351-0.26c0.106-0.078,0.182-0.071,0.278,0.06
		C47.156,32.433,47.305,32.944,46.731,33.368z M48.339,32.16l-0.6,0.443c-0.078,0.058-0.148,0.032-0.196-0.032l-1.077-1.462
		c-0.048-0.063-0.052-0.138,0.026-0.195l0.602-0.443c0.06-0.044,0.125-0.044,0.174,0.022c0.049,0.067,0.029,0.128-0.03,0.173
		l-0.503,0.371l0.406,0.552l0.459-0.338c0.06-0.043,0.125-0.044,0.174,0.023c0.05,0.066,0.029,0.128-0.03,0.172l-0.458,0.338
		l0.407,0.553l0.503-0.371c0.06-0.044,0.125-0.044,0.174,0.022C48.418,32.054,48.399,32.116,48.339,32.16z M49.907,31.027
		c-0.062,0.046-0.109,0.04-0.228,0l-1.759-0.598l-0.005,0.004l0.903,1.225c0.051,0.069,0.042,0.142-0.022,0.188
		c-0.065,0.047-0.136,0.035-0.187-0.034l-1.094-1.483c-0.061-0.083-0.062-0.144,0.004-0.193c0.062-0.045,0.109-0.041,0.229,0
		l1.758,0.597l0.006-0.003l-0.904-1.225c-0.05-0.068-0.041-0.141,0.023-0.188c0.063-0.047,0.135-0.035,0.186,0.035l1.094,1.483
		C49.972,30.917,49.973,30.978,49.907,31.027z M50.954,30.255c-0.488,0.36-1.051,0.126-1.374-0.313
		c-0.323-0.439-0.382-1.045,0.12-1.414c0.298-0.22,0.607-0.199,0.67-0.114c0.04,0.055,0.04,0.124-0.012,0.163
		c-0.096,0.07-0.266-0.061-0.525,0.131c-0.375,0.277-0.268,0.746-0.029,1.068c0.238,0.323,0.658,0.562,1.018,0.298
		c0.254-0.187,0.254-0.421,0.342-0.486c0.049-0.037,0.11-0.023,0.154,0.036C51.395,29.732,51.25,30.037,50.954,30.255z
		 M52.385,29.177l-0.6,0.443c-0.078,0.058-0.148,0.033-0.195-0.031l-1.078-1.462c-0.047-0.063-0.051-0.138,0.027-0.196l0.601-0.443
		c0.06-0.043,0.126-0.044,0.173,0.022c0.05,0.067,0.029,0.129-0.029,0.173l-0.504,0.371l0.408,0.553l0.457-0.338
		c0.061-0.043,0.126-0.044,0.174,0.022c0.05,0.066,0.029,0.129-0.029,0.172l-0.458,0.338l0.407,0.553l0.504-0.371
		c0.059-0.044,0.124-0.045,0.174,0.022C52.465,29.071,52.445,29.134,52.385,29.177z M53.883,28.073l-0.439,0.324
		c-0.078,0.058-0.148,0.033-0.195-0.032l-1.077-1.462c-0.048-0.063-0.052-0.138,0.027-0.196l0.41-0.302
		c0.503-0.371,1.037-0.164,1.366,0.283C54.347,27.193,54.335,27.74,53.883,28.073z M55.528,26.861l-0.601,0.442
		c-0.079,0.058-0.147,0.033-0.195-0.032l-1.077-1.461c-0.047-0.065-0.051-0.139,0.027-0.196l0.6-0.443
		c0.061-0.043,0.125-0.044,0.174,0.022c0.049,0.067,0.029,0.128-0.03,0.173l-0.503,0.37l0.408,0.553l0.457-0.338
		c0.061-0.043,0.125-0.044,0.174,0.022c0.05,0.066,0.029,0.129-0.03,0.172l-0.457,0.338l0.407,0.553l0.503-0.371
		c0.06-0.044,0.125-0.045,0.173,0.021C55.607,26.755,55.586,26.818,55.528,26.861z M56.6,25.921
		c0.051,0.069,0.041,0.141-0.022,0.189c-0.064,0.047-0.137,0.034-0.187-0.035l-1.09-1.479c-0.047-0.064-0.051-0.139,0.027-0.197
		l0.412-0.304c0.34-0.25,0.724-0.167,0.941,0.128c0.217,0.294,0.154,0.697-0.153,0.925l-0.322,0.238L56.6,25.921z M58.36,24.796
		c-0.29,0.214-0.739,0.369-1.158-0.201l-0.681-0.923c-0.051-0.069-0.043-0.141,0.021-0.188c0.064-0.047,0.136-0.034,0.187,0.035
		l0.74,1.003c0.196,0.266,0.492,0.289,0.758,0.093s0.33-0.485,0.135-0.75l-0.74-1.004c-0.051-0.069-0.042-0.141,0.021-0.188
		c0.064-0.047,0.137-0.034,0.188,0.035l0.681,0.923C58.93,24.199,58.649,24.583,58.36,24.796z M59.792,23.718l-0.4,0.295
		c-0.078,0.058-0.148,0.033-0.195-0.031l-1.078-1.461c-0.047-0.064-0.05-0.139,0.027-0.197l0.368-0.271
		c0.3-0.221,0.611-0.125,0.753,0.067c0.137,0.185,0.145,0.399,0.038,0.543l0.004,0.004c0.22-0.128,0.509-0.074,0.673,0.149
		C60.176,23.082,60.148,23.455,59.792,23.718z M61.208,22.674l-0.544,0.4c-0.078,0.058-0.147,0.033-0.195-0.032l-1.09-1.478
		c-0.05-0.068-0.041-0.141,0.022-0.188c0.064-0.047,0.136-0.035,0.188,0.035l1.03,1.397l0.445-0.328
		c0.06-0.044,0.125-0.045,0.174,0.022C61.288,22.567,61.268,22.63,61.208,22.674z M61.592,22.414
		c-0.064,0.047-0.137,0.034-0.188-0.035l-1.102-1.494c-0.051-0.07-0.041-0.142,0.022-0.189s0.136-0.035,0.187,0.035l1.102,1.495
		C61.665,22.294,61.656,22.365,61.592,22.414z M62.648,21.635c-0.489,0.36-1.05,0.125-1.374-0.313
		c-0.324-0.439-0.381-1.045,0.119-1.414c0.299-0.221,0.607-0.199,0.671-0.114c0.041,0.055,0.04,0.124-0.013,0.162
		c-0.094,0.071-0.264-0.061-0.525,0.132c-0.375,0.277-0.267,0.746-0.029,1.069c0.238,0.323,0.66,0.562,1.019,0.297
		c0.254-0.188,0.253-0.421,0.341-0.486c0.05-0.037,0.111-0.023,0.155,0.036C63.089,21.111,62.944,21.417,62.648,21.635z
		 M63.483,21.019c-0.064,0.048-0.136,0.035-0.186-0.035l-1.103-1.495c-0.051-0.069-0.042-0.141,0.021-0.188
		c0.064-0.048,0.137-0.034,0.187,0.034l1.103,1.495C63.556,20.899,63.547,20.972,63.483,21.019z M64.545,17.756
		c0.05,0.066,0.029,0.128-0.029,0.172L64.012,18.3l0.408,0.552l0.457-0.337c0.061-0.044,0.125-0.045,0.175,0.022
		c0.048,0.066,0.028,0.128-0.03,0.172l-0.458,0.338l0.407,0.553l0.503-0.371c0.06-0.044,0.126-0.045,0.174,0.022
		c0.05,0.066,0.029,0.129-0.03,0.172l-0.6,0.443c-0.078,0.058-0.148,0.032-0.196-0.032l-1.077-1.461
		c-0.047-0.064-0.051-0.138,0.027-0.196l0.6-0.442C64.432,17.69,64.497,17.69,64.545,17.756z M63.635,17.787l0.189-0.312
		c0.029-0.046,0.045-0.065,0.066-0.081c0.061-0.045,0.137-0.002,0.163,0.032c0.021,0.029,0.028,0.075-0.019,0.15l-0.19,0.312
		c-0.028,0.047-0.044,0.065-0.065,0.081c-0.061,0.046-0.137,0.002-0.164-0.033C63.595,17.907,63.588,17.862,63.635,17.787z
		 M63.59,18.461c0.049,0.066,0.029,0.128-0.031,0.173l-0.314,0.232l1.029,1.397c0.051,0.069,0.042,0.142-0.021,0.188
		c-0.064,0.047-0.137,0.034-0.188-0.035l-1.029-1.397l-0.316,0.232c-0.059,0.044-0.124,0.045-0.174-0.021
		c-0.049-0.066-0.028-0.129,0.031-0.173l0.84-0.619C63.475,18.395,63.542,18.395,63.59,18.461z M62.8,18.135l-3.688-0.574
		l0.213-1.396c0-0.006,0.002-0.01,0.002-0.016c0.041-0.339-0.022-0.667-0.164-0.951l3.988,0.623L62.8,18.135z M57.09,10.35
		l2.316,0.338l-0.594,4.04c-0.236-0.223-0.539-0.379-0.883-0.437c-0.003,0-0.006-0.002-0.008-0.002l-0.035-0.005L56.54,14.08
		L57.09,10.35z M52.174,14.442c0.241-0.178,0.551-0.265,0.871-0.217l3.234,0.493l1.348,0.205l0.002,0v0l0.034,0.004v0.001
		c0.62,0.101,1.048,0.674,0.974,1.296l0.002,0l-0.213,1.397l-0.49,3.222c-0.049,0.319-0.222,0.59-0.463,0.769
		c-0.24,0.178-0.55,0.264-0.87,0.216c-0.641-0.097-1.081-0.693-0.985-1.334v0l0.521-3.427l-3.443-0.524
		c-0.64-0.096-1.08-0.693-0.984-1.333C51.76,14.89,51.933,14.62,52.174,14.442z M50.846,15.609l4.432,6
		c0.463,0.626,0.383,1.331-0.16,1.732c-0.544,0.401-1.24,0.271-1.703-0.355l-4.433-6.001c-0.021-0.029-0.038-0.056-0.056-0.083
		l1.855-1.371C50.803,15.554,50.825,15.58,50.846,15.609z M47.645,13.232c0.529-0.392,1.336-0.282,1.717,0.235
		c0.41,0.555,0.312,1.35-0.242,1.76c-0.53,0.391-1.353,0.257-1.754-0.286C46.994,14.438,47.116,13.624,47.645,13.232z
		 M44.739,15.375c0.553-0.407,1.26-0.278,1.727,0.354l6.623,8.967l-1.895,1.4l-6.624-8.968
		C44.104,16.496,44.186,15.783,44.739,15.375z M42.324,21.551c2.034-1.503,3.958-0.777,5.233,0.949
		c0.176,0.239,0.37,0.529,0.545,0.855l-4.322,3.193c0.95,1.315,2.062,1.47,3.354,0.517c0.533-0.392,1.03-0.906,1.365-1.386
		l0.003,0.001c0.337-0.453,0.847-0.548,1.249-0.256c0.387,0.281,0.46,0.765,0.176,1.211l-0.041,0.069
		c-0.469,0.614-1.314,1.468-2.01,1.981c-2.217,1.637-4.271,1.441-6.086-1.014C40.213,25.538,40.233,23.096,42.324,21.551z
		 M36.717,21.357c0.379-0.28,0.793-0.542,1.22-0.727l0.962,1.567c-0.354,0.108-0.696,0.318-0.964,0.516
		c-0.786,0.58-0.835,1.246-0.15,2.172l0.122,0.166l1.028-0.76l0.001,0.001c0.459-0.332,0.977-0.266,1.272,0.135
		s0.204,0.912-0.248,1.252l0.001,0.001l-1.029,0.759l3.486,4.719l-0.001,0c0.438,0.594,0.358,1.264-0.16,1.647
		c-0.521,0.384-1.183,0.262-1.622-0.331l-3.486-4.719l-0.702,0.52c-0.462,0.341-0.983,0.28-1.282-0.124
		c-0.297-0.404-0.206-0.923,0.256-1.265l0.703-0.52l-0.102-0.138C34.622,24.336,34.809,22.767,36.717,21.357z"/>
</g>
<g>
</g>
<g>
</g>
<g>
</g>
<g>
</g>
<g>
</g>
<g>
</g>
</svg>
