<?xml version="1.0" encoding="utf-8"?>
<!-- Generator: Adobe Illustrator 16.0.0, SVG Export Plug-In . SVG Version: 6.00 Build 0)  -->
<svg version="1.2" baseProfile="tiny" id="Calque_1"
	 xmlns="http://www.w3.org/2000/svg" xmlns:xlink="http://www.w3.org/1999/xlink" x="0px" y="0px" width="56.214px"
	 height="33.794px" viewBox="0 0 56.214 33.794" xml:space="preserve">
<path fill="#111111" d="M23.018,10.287c-0.884,1.93-1.463,4.042-1.631,6.279c-0.128,1.681-1.579,3.667-4.044,3.667
	c-0.024,0-0.049-0.002-0.073-0.002c-1.973-0.029-3.917-1.87-3.811-4.056l-4.64-0.23c-0.125,1.415,0.096,2.88,0.724,4.263
	c1.43,3.154,4.548,5.021,7.805,5.021c1.18,0,2.377-0.244,3.52-0.762c4.297-1.947,6.209-7.027,4.262-11.325
	C24.618,12.017,23.886,11.06,23.018,10.287"/>
<path fill="#111111" d="M0.021,15.512C-0.452,25.108,6.969,33.3,16.564,33.772c0.302,0.014,0.602,0.021,0.899,0.021
	c5.755,0,10.561-2.766,13.702-7.205c-1.306-1.088-2.402-2.463-3.179-4.09c-1.22,2.238-3.137,4.119-5.631,5.252
	c-1.623,0.736-3.325,1.082-5.001,1.082c-4.629,0-9.061-2.654-11.093-7.139"/>
<path fill="#111111" d="M38.939,8.715c-1.18,0-2.375,0.245-3.52,0.763c-4.295,1.948-6.208,7.027-4.26,11.324
	c0.457,1.006,1.086,1.875,1.834,2.6c0.867-1.885,1.5-3.955,1.832-6.172c0.137-0.912,0.693-3.864,4.088-3.874h0.012
	c2.184,0,3.934,2.084,3.826,4.264l4.734,0.233c0.096-1.367-0.135-2.778-0.742-4.114C45.314,10.583,42.197,8.715,38.939,8.715"/>
<path fill="#111111" d="M38.781,0c-5.703,0-10.744,2.799-13.925,7.137c1.426,1.119,2.615,2.575,3.442,4.312
	c1.221-2.239,3.141-4.121,5.635-5.253c1.623-0.735,3.326-1.083,5-1.083c4.631,0,9.062,2.656,11.094,7.139
	c0.85,1.875,1.178,3.853,1.053,5.777l5.113,0.252c0.471-9.595-6.949-17.786-16.545-18.26C39.357,0.007,39.068,0,38.781,0"/>
<g>
</g>
<g>
</g>
<g>
</g>
<g>
</g>
<g>
</g>
<g>
</g>
</svg>
