<?xml version="1.0" encoding="utf-8"?>
<!-- Generator: Adobe Illustrator 17.0.0, SVG Export Plug-In . SVG Version: 6.00 Build 0)  -->
<!DOCTYPE svg PUBLIC "-//W3C//DTD SVG 1.1//EN" "http://www.w3.org/Graphics/SVG/1.1/DTD/svg11.dtd">
<svg version="1.1" xmlns="http://www.w3.org/2000/svg" xmlns:xlink="http://www.w3.org/1999/xlink" x="0px" y="0px"
	 width="332.699px" height="252.635px" viewBox="0 0 332.699 252.635" enable-background="new 0 0 332.699 252.635"
	 xml:space="preserve">
<g id="Calque_6">
	<path fill="#F0E2C7" stroke="#000000" stroke-miterlimit="10" d="M183.516,164.825c0,0,8.012,43.89,2.179,62.556
		c-5.833,18.666-9.499,23.666-5.833,24.666s5.666-6.833,6.666-8.333c-0.521,2.938,5.167,5.688,5.834,0c-0.042,3.75,4.52,4,4.333-1
		c1.562,3.562,5.187,1.688,3.667-4.167c-1.257-4.84-2.5-11.5-2.167-15.5c0.333-4,1.812-37.721-4.344-63.86
		C187.695,133.047,183.516,164.825,183.516,164.825"/>
</g>
<g id="Calque_4">
	<path fill="#F0E2C7" stroke="#000000" stroke-miterlimit="10" d="M99.176,114.595c0,0-51.48,16.452-57.814,20.119
		c-7.667-4.333-46.5,2.833-40.167,7.833c14-0.667,16.333-1.667,16.333-1.667s-5.334,4-1.333,5c-1.667,3.334-1.334,5,4,5.667
		c-1.333,5.333,0.334,4.667,3.667,3.667c0,5,2.333,5.707,9.666,0.687c7.333-5.021,72.353-30.133,78.351-29.076"/>
	<path fill="#F0E2C7" stroke="#000000" stroke-miterlimit="10" d="M172.441,78.725c0,0,3.004-16.261-11.746-50.761
		c-5.25-2.5-13.5-25.5-12-27.25s8.25,7.75,8.5,9.5c0,0,0.5,1.063,0.75,2c0.25,0.938-1.5-7.437,2.187-2.687
		c1.125-3.375,2.063-2.688,2.938-0.25c2.062-5.188,6.812-2.375,7,8.5c0.187,10.875,0.312,12.25,1.875,16.75
		c1.562,4.5,13.584,25.043,14.084,44.199c0.5,19.155-6.397,5.322-6.397,5.322l-8.324-1.5L172.441,78.725"/>
	<path fill="#F0E2C7" stroke="#000000" stroke-miterlimit="10" d="M229.04,100.625c0,0,41.572-22.744,72.738-27.578
		c18-11.834,45-23.333,20.833-5.667c9.167,0.833,3.499,3.821,1.333,4.494c8.167,0.506,4.166,3.464,2,3.985
		c4.834,1.021,5.668,6.354-13.666,5.188c-18.334,5.166-61.34,16.666-77.67,32.333s-9.33-8.637-9.33-8.637L229.04,100.625"/>
	<path fill="#F0E2C7" stroke="#000000" stroke-miterlimit="10" d="M117.877,127.881c0,0,0.068-4.667,5.318-6.667
		c0,0-4.375-3.625-1.625-7.875"/>
</g>
<g id="Calque_3">
	<g>
		<path fill="#FFFFFF" d="M138.57,75.339c0,0-34.875-1.958-30.542,20.709c-15,6.333-12.47,30.333,9.848,31.833
			c2.652,17.333,19.152,25.332,28.652,19.999c4.167,15.667,41.667,27.334,50.999,6.834c6.666,17.334,50.835,8.406,37.501-17.214
			c16.833-7.62,3.259-25.201-1.209-25.036"/>
		<path d="M138.57,75.339c-3.595-0.083-7.194,0.171-10.738,0.719c-3.538,0.556-7.05,1.422-10.292,2.911
			c-1.614,0.747-3.159,1.65-4.517,2.778c-1.356,1.124-2.539,2.461-3.365,4.001c-0.833,1.534-1.334,3.237-1.481,4.977
			c-0.173,1.74,0.001,3.505,0.333,5.23l0.074,0.384l-0.365,0.159c-1.745,0.762-3.359,1.813-4.7,3.148
			c-1.344,1.329-2.417,2.922-3.149,4.659c-1.466,3.481-1.527,7.5-0.262,11.04c1.239,3.562,3.813,6.577,7.025,8.528
			c3.222,1.975,7.004,2.911,10.801,3.159l0.657,0.043l0.127,0.677c0.15,0.804,0.279,1.612,0.489,2.401
			c0.176,0.798,0.43,1.575,0.68,2.35l0.415,1.15l0.476,1.126c0.342,0.738,0.694,1.473,1.103,2.176
			c0.395,0.711,0.83,1.399,1.301,2.061c0.461,0.67,0.967,1.306,1.494,1.923c0.528,0.617,1.092,1.201,1.676,1.763
			c0.59,0.557,1.208,1.081,1.846,1.58c0.645,0.489,1.312,0.948,2,1.373c0.693,0.416,1.403,0.802,2.133,1.144
			c0.733,0.335,1.479,0.639,2.244,0.885c0.764,0.246,1.539,0.459,2.326,0.598c0.783,0.16,1.579,0.237,2.37,0.275
			c0.793,0.037,1.584-0.001,2.366-0.09c0.776-0.112,1.552-0.25,2.29-0.503c0.749-0.221,1.45-0.559,2.135-0.917l1.077-0.562
			l0.315,1.15c0.63,2.302,1.99,4.41,3.67,6.219c1.682,1.818,3.674,3.374,5.804,4.706c4.269,2.659,9.073,4.523,14.029,5.489
			c4.941,0.95,10.134,1.049,14.898-0.408c2.37-0.728,4.605-1.869,6.477-3.456c1.877-1.578,3.365-3.592,4.395-5.835l0.878-1.914
			l0.748,1.963c0.848,2.224,2.467,4.105,4.497,5.423c2.032,1.328,4.406,2.146,6.842,2.604c2.44,0.46,4.964,0.552,7.459,0.344
			c2.496-0.211,4.974-0.724,7.341-1.548c2.361-0.828,4.621-1.972,6.595-3.487c1.972-1.508,3.638-3.425,4.674-5.66
			c1.047-2.229,1.404-4.752,1.121-7.221c-0.267-2.479-1.126-4.883-2.247-7.145l-0.211-0.426l0.423-0.188
			c2.42-1.067,4.723-2.556,6.258-4.706c0.766-1.064,1.323-2.279,1.607-3.566c0.29-1.285,0.319-2.63,0.146-3.948
			c-0.354-2.646-1.469-5.17-2.964-7.401c-0.752-1.116-1.613-2.165-2.596-3.09c-0.495-0.457-1.018-0.89-1.592-1.246
			c-0.567-0.351-1.2-0.663-1.884-0.671c0.685-0.015,1.335,0.278,1.919,0.613c0.592,0.339,1.133,0.758,1.648,1.203
			c1.022,0.9,1.928,1.93,2.729,3.035c1.587,2.213,2.779,4.757,3.221,7.488c0.215,1.362,0.221,2.771-0.052,4.14
			c-0.266,1.369-0.828,2.684-1.617,3.839c-1.581,2.335-3.972,3.955-6.454,5.126l0.212-0.613c1.222,2.3,2.185,4.791,2.505,7.434
			c0.346,2.626,0.008,5.386-1.098,7.834c-1.09,2.456-2.866,4.557-4.944,6.198c-2.081,1.65-4.447,2.893-6.917,3.804
			c-2.474,0.905-5.06,1.483-7.68,1.748c-2.619,0.26-5.28,0.209-7.899-0.241c-2.611-0.458-5.196-1.334-7.486-2.807
			c-2.283-1.46-4.203-3.642-5.201-6.233l1.626,0.049c-1.111,2.462-2.755,4.718-4.832,6.48c-2.07,1.774-4.531,3.041-7.095,3.842
			c-2.569,0.806-5.242,1.176-7.9,1.229c-2.66,0.053-5.311-0.202-7.91-0.691c-2.6-0.489-5.15-1.22-7.618-2.168
			c-2.466-0.952-4.861-2.107-7.109-3.525c-2.243-1.421-4.359-3.083-6.182-5.072c-1.815-1.98-3.35-4.337-4.08-7.048l1.393,0.588
			c-0.805,0.42-1.631,0.807-2.5,1.06c-0.858,0.287-1.748,0.443-2.636,0.565c-0.89,0.097-1.785,0.134-2.673,0.088
			c-0.887-0.047-1.773-0.14-2.637-0.319c-0.87-0.159-1.721-0.396-2.556-0.671c-0.835-0.275-1.648-0.61-2.443-0.979
			c-0.792-0.376-1.56-0.798-2.308-1.252c-0.742-0.464-1.459-0.963-2.152-1.495c-0.686-0.54-1.347-1.109-1.979-1.711
			c-0.625-0.607-1.228-1.238-1.791-1.902c-0.562-0.665-1.101-1.351-1.59-2.07c-0.501-0.711-0.963-1.45-1.381-2.212
			c-0.434-0.754-0.806-1.541-1.166-2.33l-0.501-1.203l-0.436-1.226c-0.263-0.826-0.526-1.654-0.709-2.501
			c-0.217-0.839-0.351-1.694-0.504-2.546l0.784,0.72c-4.008-0.266-8.044-1.363-11.504-3.545c-1.721-1.094-3.279-2.457-4.56-4.051
			c-1.282-1.591-2.287-3.408-2.932-5.346c-1.312-3.867-1.174-8.209,0.469-11.945c0.82-1.864,2.006-3.565,3.473-4.97
			c1.465-1.408,3.206-2.514,5.072-3.276l-0.291,0.543c-0.31-1.807-0.455-3.664-0.234-5.504c0.196-1.839,0.768-3.647,1.686-5.255
			c0.911-1.616,2.188-2.995,3.62-4.132c1.436-1.142,3.043-2.034,4.704-2.762c3.337-1.447,6.896-2.246,10.466-2.726
			C131.366,75.309,134.978,75.155,138.57,75.339z"/>
	</g>
	<g>
		<path fill="#F0E2C7" d="M143.32,100.589c0,0,0.154,0.294,0.476,0.825c0.314,0.536,0.811,1.299,1.445,2.264
			c0.633,0.967,1.459,2.102,2.435,3.375c1.006,1.251,2.15,2.652,3.49,4.094c1.339,1.441,2.846,2.948,4.543,4.419
			c1.676,1.495,3.573,2.913,5.592,4.276c2.012,1.385,4.255,2.537,6.545,3.659c2.341,1.008,4.754,1.979,7.277,2.577
			c2.492,0.712,5.064,1.091,7.601,1.378c1.276,0.069,2.543,0.138,3.793,0.206c1.254-0.025,2.496-0.013,3.715-0.065
			c1.219-0.101,2.417-0.2,3.59-0.297c1.167-0.171,2.309-0.338,3.421-0.5c1.113-0.158,2.172-0.452,3.214-0.65
			c0.52-0.107,1.031-0.213,1.532-0.316c0.494-0.136,0.979-0.268,1.454-0.397c0.952-0.261,1.865-0.51,2.732-0.747
			c0.865-0.248,1.669-0.539,2.436-0.783c1.531-0.493,2.865-0.937,3.931-1.39c2.154-0.843,3.404-1.302,3.404-1.302
			s-1.171,0.618-3.251,1.659c-1.029,0.546-2.326,1.103-3.823,1.729c-0.749,0.311-1.536,0.674-2.387,0.999
			c-0.863,0.297-1.77,0.609-2.716,0.935c-0.475,0.162-0.959,0.326-1.453,0.494c-0.503,0.137-1.016,0.276-1.538,0.418
			c-1.048,0.266-2.12,0.601-3.251,0.816c-1.133,0.218-2.297,0.44-3.486,0.669c-1.206,0.137-2.438,0.277-3.69,0.42
			c-1.259,0.089-2.545,0.112-3.845,0.171c-1.301-0.015-2.62-0.071-3.947-0.145c-2.645-0.274-5.335-0.645-7.947-1.37
			c-2.633-0.65-5.148-1.685-7.58-2.761c-2.389-1.177-4.668-2.48-6.722-3.957c-2.067-1.454-3.948-3.02-5.605-4.628
			c-1.686-1.577-3.131-3.215-4.402-4.768c-1.288-1.54-2.324-3.063-3.228-4.412c-0.877-1.37-1.61-2.58-2.163-3.605
			c-0.567-1.017-0.95-1.849-1.21-2.414C143.44,100.899,143.32,100.589,143.32,100.589z"/>
	</g>
	<g>
		<path fill="#F0E2C7" d="M134.07,93.339c0,0-0.179-0.224-0.449-0.646c-0.266-0.423-0.647-1.031-1.035-1.799
			c-0.197-0.383-0.39-0.807-0.589-1.259c-0.177-0.46-0.396-0.936-0.555-1.453c-0.351-1.022-0.649-2.144-0.819-3.295
			c-0.109-0.571-0.112-1.16-0.162-1.731c-0.035-0.574,0.036-1.146,0.049-1.691c0.086-0.546,0.17-1.073,0.288-1.562
			c0.159-0.482,0.307-0.937,0.471-1.341c0.207-0.391,0.41-0.739,0.589-1.042c0.167-0.311,0.413-0.52,0.561-0.72
			c0.33-0.382,0.524-0.585,0.524-0.585s-0.128,0.263-0.364,0.695c-0.105,0.223-0.294,0.456-0.394,0.786
			c-0.109,0.324-0.231,0.684-0.378,1.065c-0.086,0.402-0.18,0.837-0.279,1.297c-0.062,0.466-0.082,0.964-0.14,1.469
			c0.015,0.515,0.004,1.044,0.037,1.583c0.06,0.539,0.071,1.088,0.186,1.63c0.074,0.547,0.164,1.092,0.295,1.623
			c0.108,0.535,0.241,1.057,0.374,1.562c0.269,1.01,0.566,1.945,0.832,2.747C133.646,92.277,134.07,93.339,134.07,93.339z"/>
	</g>
	<g>
		<path fill="#F0E2C7" d="M178.393,94.302c0,0,0.477-0.161,1.324-0.395c0.85-0.222,2.062-0.562,3.541-0.855
			c1.479-0.293,3.208-0.634,5.082-0.87c1.872-0.247,3.884-0.408,5.903-0.471c2.019-0.045,4.047,0.016,5.935,0.256
			c0.944,0.109,1.852,0.268,2.702,0.468c0.852,0.19,1.649,0.411,2.368,0.665c0.726,0.231,1.364,0.525,1.916,0.803
			c0.554,0.277,1.015,0.554,1.381,0.805c0.383,0.222,0.628,0.479,0.818,0.617c0.182,0.148,0.279,0.228,0.279,0.228
			s-0.108-0.064-0.312-0.184c-0.207-0.112-0.487-0.311-0.885-0.493c-0.385-0.204-0.864-0.423-1.433-0.632
			c-0.566-0.206-1.213-0.419-1.93-0.605c-0.714-0.198-1.502-0.359-2.342-0.487c-0.838-0.137-1.732-0.222-2.654-0.308
			c-0.924-0.085-1.884-0.11-2.858-0.147c-0.976-0.018-1.969-0.018-2.961,0.014c-1.986,0.041-3.973,0.185-5.833,0.345
			c-1.86,0.171-3.6,0.345-5.085,0.549c-1.484,0.203-2.73,0.35-3.594,0.492C178.889,94.227,178.393,94.302,178.393,94.302z"/>
	</g>
</g>
<g id="Calque_2">
	<g>
		<path fill="#FFFFFF" d="M163.601,78.219c0,0,8.491-2.504,14.792,4.662c4.302-4.334,17.302-7.5,24.635,0
			c12.333-3.667,18.399,7.125,19.616,10.646c1.217,3.521-47.616-3.479-47.616-3.479l-9.333,3.824L163.601,78.219z"/>
		<path d="M163.601,78.219c1.313-0.354,2.682-0.5,4.046-0.484l1.025,0.047l1.018,0.12c0.338,0.053,0.672,0.128,1.009,0.191
			c0.339,0.053,0.662,0.173,0.993,0.26c0.333,0.087,0.659,0.191,0.976,0.326c0.316,0.13,0.646,0.235,0.954,0.387l0.919,0.465
			c0.316,0.141,0.586,0.359,0.881,0.535c0.283,0.195,0.594,0.353,0.852,0.583l0.805,0.648c0.279,0.204,0.505,0.466,0.753,0.704
			l0.731,0.731l-0.329-0.01c0.434-0.372,0.828-0.802,1.311-1.108l0.7-0.495l0.74-0.424c0.486-0.3,1.009-0.522,1.524-0.762
			c0.508-0.259,1.055-0.416,1.582-0.626c0.528-0.211,1.085-0.33,1.627-0.499c0.542-0.169,1.106-0.248,1.659-0.376
			c0.553-0.135,1.123-0.165,1.685-0.253c0.561-0.095,1.133-0.087,1.699-0.125c0.568-0.049,1.138-0.007,1.707,0.009
			c0.571,0,1.137,0.074,1.703,0.152l0.85,0.111l0.836,0.194c0.56,0.12,1.116,0.255,1.651,0.468c0.539,0.194,1.092,0.359,1.597,0.64
			c0.505,0.273,1.058,0.466,1.52,0.815c0.472,0.33,0.98,0.613,1.417,0.989l1.294,1.149l-0.429-0.111l2.272-0.537
			c0.776-0.078,1.553-0.188,2.332-0.227c1.562,0.012,3.151,0.127,4.645,0.64c1.515,0.43,2.917,1.192,4.195,2.088
			c1.299,0.886,2.393,2.021,3.403,3.201c1.005,1.193,1.848,2.511,2.558,3.899c0.181,0.345,0.332,0.708,0.499,1.062l0.215,0.554
			l0.054,0.138l0.026,0.069l0.028,0.121l0.003,0.018l0.004,0.036c0.002,0.062,0.026,0.045-0.001,0.24
			c-0.02,0.141-0.1,0.336-0.154,0.375c-0.263,0.325-0.491,0.365-0.709,0.466c-0.215,0.073-0.422,0.129-0.622,0.165
			c-0.405,0.083-0.796,0.122-1.188,0.158c-1.56,0.121-3.09,0.077-4.62,0.027c-1.529-0.058-3.053-0.153-4.575-0.263
			c-6.085-0.457-12.139-1.138-18.186-1.866c-6.048-0.729-12.076-1.591-18.102-2.479l0.161-0.02l-9.366,3.741l-0.269,0.107
			l-0.033-0.281L163.601,78.219z M163.601,78.219l2.312,15.623l-0.301-0.174l9.299-3.907l0.075-0.032l0.086,0.012
			c6.029,0.812,12.074,1.523,18.115,2.236c6.042,0.696,12.094,1.346,18.151,1.769c1.515,0.102,3.029,0.189,4.542,0.238
			c1.51,0.045,3.028,0.068,4.505-0.041c0.366-0.032,0.734-0.067,1.075-0.136c0.319-0.044,0.726-0.212,0.731-0.244
			c0.027-0.02-0.054,0.065-0.032,0.122c0.024,0.107,0.01-0.006,0.004-0.039l-0.004-0.036l-0.003-0.018
			c-0.021-0.099,0.027,0.115,0.02,0.087l-0.024-0.064l-0.049-0.128l-0.195-0.511c-0.157-0.334-0.296-0.676-0.467-1.006
			c-0.668-1.323-1.47-2.591-2.421-3.732c-0.958-1.128-1.991-2.213-3.211-3.051c-1.2-0.85-2.509-1.572-3.924-1.979
			c-1.392-0.49-2.881-0.601-4.352-0.622c-0.736,0.034-1.473,0.136-2.21,0.204l-2.173,0.502l-0.242,0.056l-0.186-0.167l-1.213-1.088
			c-0.409-0.356-0.888-0.623-1.326-0.945c-0.43-0.339-0.952-0.524-1.425-0.792c-0.473-0.275-0.997-0.438-1.508-0.631
			c-0.505-0.212-1.034-0.349-1.569-0.471l-0.797-0.199l-0.814-0.119c-0.543-0.084-1.087-0.164-1.639-0.171
			c-0.55-0.024-1.099-0.074-1.65-0.034c-0.55,0.03-1.104,0.011-1.65,0.096c-0.546,0.077-1.102,0.096-1.641,0.22
			c-0.54,0.117-1.092,0.184-1.622,0.341c-0.528,0.157-1.075,0.264-1.591,0.462c-0.516,0.196-1.054,0.341-1.55,0.585
			c-0.503,0.226-1.017,0.434-1.489,0.717l-0.725,0.399l-0.681,0.463c-0.476,0.284-0.852,0.683-1.278,1.026l-0.181,0.146
			l-0.148-0.156l-0.694-0.729c-0.235-0.238-0.449-0.5-0.717-0.705l-0.768-0.651c-0.246-0.231-0.544-0.392-0.815-0.589
			c-0.284-0.179-0.543-0.4-0.848-0.545l-0.888-0.478c-0.298-0.156-0.617-0.267-0.926-0.402c-0.307-0.141-0.624-0.251-0.949-0.344
			c-0.323-0.093-0.639-0.221-0.971-0.281c-0.33-0.07-0.658-0.153-0.99-0.213l-1.004-0.144l-1.012-0.077
			C166.292,77.81,164.925,77.91,163.601,78.219z"/>
	</g>
	<path fill="#FFFFFF" d="M124.695,74.86c0,0,3.416-4.148,9.375-3.98l0.791,3.98H124.695z"/>
	<path fill="#3F3F3F" stroke="#000000" stroke-width="2" stroke-miterlimit="10" d="M134.862,74.86c0,0-14.326,8.045-16.041,11.295
		c-1.774,3.361,2.518-1,4.375,0c1.857,1-4.36,5.038-4.375,7.371c-0.015,2.333,3.496,1.422,5.875,2.025
		c-1.368,2.166-2.911,7.662-2.411,8.412c1.583,0.667,4.516-1.251,5.349-1.084c-0.166,1.5,0.016,2.251-1.703,3.834
		c-0.5,1.417,1.431,4.251,2.014,4.917c1.583-0.25,3-0.011,3.833-0.261c0.25,2.333,0.583,8.51,1.75,9.094
		c1.833,0.25,4.25-2.333,5.5-1.166c1.583,3.166,1,10.25,3.75,11.083c3.167-1.25,6.167-2.083,8.75-1.333
		c2.25,4.5,2.417,8.488,4.25,8.452c2.5-1.452,5.25-3.369,6.167-2.619c0.999,2.333,2.833,4.332,2.916,4.999
		c2-0.583,3.956-1.958,6.04-1.625c2.417,2.583,4.293,4.626,5.793,5.459c3.25-1.5,4.584-3.75,5.667-4.167
		c1.416,0.083,7.25,6.499,8.083,8.333c1.667-1.583,6.251-6.917,7.667-7.25c2.166,1,4.917,3.417,7.25,2.417
		c1.833-2.416,3.167-5.416,3.75-4.666c0.583,0.75,2.749,4,3.666,4.083c1.417-0.917,3.084-4,4.417-5.5
		c1.583,1.417,3.251,2.251,4.417,2.417c1.166-1,1.75-3.334,2-3.667c1.583,0.917,2.334,1.405,3.75,1.786
		c1.75-1.369,1.555-5.618,2.959-9.286c0,0,2.75,1.125,3.375,2.625s2.488-12.035,1.875-16.5"/>
	<path d="M174.914,84.777c0,0-2.827-3.921-12.5-7.688c-24.719-9.625-45.868-7.711-32.167,28.125c0,0,31.088,55.09,97.084,23
		C258.841,105.562,214.695,79.548,174.914,84.777z"/>
	<g>
		<path fill="#3F3F3F" d="M144.896,101.926c0,0,0.154,0.294,0.476,0.825c0.313,0.536,0.811,1.299,1.445,2.264
			c0.633,0.967,1.459,2.102,2.435,3.376c1.006,1.251,2.15,2.652,3.49,4.094c1.339,1.441,2.846,2.948,4.543,4.418
			c1.676,1.495,3.573,2.913,5.593,4.276c2.012,1.385,4.255,2.537,6.545,3.659c2.341,1.008,4.754,1.979,7.277,2.577
			c2.492,0.712,5.064,1.091,7.601,1.377c1.276,0.07,2.542,0.139,3.793,0.207c1.254-0.025,2.495-0.013,3.715-0.066
			c1.219-0.101,2.417-0.2,3.59-0.297c1.167-0.171,2.309-0.338,3.42-0.5c1.114-0.158,2.173-0.452,3.215-0.65
			c0.52-0.107,1.031-0.213,1.532-0.316c0.494-0.136,0.979-0.268,1.454-0.397c0.952-0.261,1.865-0.51,2.732-0.747
			c0.865-0.248,1.669-0.539,2.436-0.783c1.531-0.493,2.865-0.937,3.931-1.39c2.154-0.843,3.404-1.302,3.404-1.302
			s-1.171,0.618-3.251,1.659c-1.029,0.546-2.326,1.103-3.823,1.729c-0.749,0.311-1.536,0.674-2.388,0.999
			c-0.862,0.297-1.769,0.609-2.715,0.935c-0.475,0.162-0.959,0.326-1.453,0.494c-0.503,0.137-1.016,0.276-1.538,0.419
			c-1.048,0.265-2.12,0.6-3.251,0.815c-1.134,0.218-2.297,0.44-3.486,0.669c-1.206,0.137-2.438,0.277-3.691,0.42
			c-1.258,0.089-2.544,0.112-3.844,0.171c-1.301-0.015-2.62-0.071-3.947-0.145c-2.645-0.274-5.335-0.645-7.947-1.37
			c-2.633-0.65-5.148-1.685-7.58-2.761c-2.389-1.177-4.668-2.48-6.722-3.957c-2.068-1.454-3.949-3.02-5.605-4.628
			c-1.687-1.577-3.132-3.215-4.402-4.768c-1.289-1.54-2.325-3.063-3.229-4.412c-0.877-1.37-1.61-2.58-2.163-3.605
			c-0.567-1.017-0.95-1.849-1.21-2.415C145.016,102.236,144.896,101.926,144.896,101.926z"/>
	</g>
	<g>
		<path fill="#3F3F3F" d="M135.646,94.676c0,0-0.179-0.224-0.449-0.646c-0.266-0.423-0.648-1.031-1.035-1.799
			c-0.197-0.383-0.39-0.807-0.589-1.259c-0.177-0.46-0.396-0.936-0.555-1.453c-0.351-1.022-0.649-2.144-0.819-3.295
			c-0.109-0.571-0.112-1.16-0.162-1.731c-0.035-0.574,0.036-1.146,0.049-1.691c0.086-0.546,0.17-1.073,0.288-1.562
			c0.159-0.482,0.307-0.937,0.471-1.341c0.207-0.391,0.41-0.739,0.589-1.042c0.167-0.311,0.413-0.52,0.562-0.72
			c0.33-0.382,0.524-0.585,0.524-0.585s-0.128,0.263-0.364,0.695c-0.105,0.223-0.294,0.456-0.394,0.786
			c-0.109,0.324-0.231,0.684-0.378,1.065c-0.087,0.402-0.18,0.837-0.279,1.297c-0.062,0.466-0.082,0.964-0.14,1.469
			c0.015,0.515,0.003,1.044,0.037,1.582c0.06,0.539,0.071,1.088,0.186,1.63c0.074,0.547,0.164,1.092,0.295,1.624
			c0.108,0.535,0.241,1.057,0.374,1.562c0.269,1.01,0.566,1.945,0.832,2.747C135.221,93.614,135.645,94.676,135.646,94.676z"/>
	</g>
	<g>
		<path fill="#3F3F3F" d="M179.991,90.599c0,0,0.488-0.119,1.353-0.276c0.866-0.146,2.104-0.377,3.603-0.541
			c1.498-0.161,3.251-0.349,5.139-0.419c1.887-0.08,3.905-0.064,5.922,0.051c2.016,0.133,4.03,0.372,5.89,0.777
			c0.931,0.192,1.821,0.43,2.65,0.704c0.831,0.264,1.607,0.555,2.3,0.871c0.703,0.294,1.313,0.644,1.839,0.968
			c0.527,0.325,0.962,0.642,1.305,0.924c0.36,0.255,0.583,0.533,0.76,0.686c0.169,0.164,0.259,0.251,0.259,0.251
			s-0.103-0.073-0.294-0.21c-0.197-0.13-0.458-0.353-0.838-0.569c-0.365-0.237-0.824-0.498-1.371-0.755
			c-0.547-0.255-1.172-0.524-1.87-0.773c-0.692-0.26-1.464-0.49-2.289-0.691c-0.822-0.211-1.705-0.374-2.617-0.541
			c-0.912-0.166-1.867-0.275-2.834-0.398c-0.971-0.104-1.959-0.191-2.951-0.246c-1.981-0.134-3.973-0.166-5.841-0.17
			c-1.868,0.007-3.616,0.027-5.113,0.1c-1.496,0.072-2.749,0.108-3.623,0.173C180.492,90.568,179.991,90.599,179.991,90.599z"/>
	</g>
</g>
<g id="Calque_5">
	<g>
		<path fill="#FFFFFF" d="M119.453,123.339c0,0,2.125-6,5.875-6.625c3.75-0.625-12.633-2.291-10.133-7.333"/>
		<path d="M119.453,123.339c0,0,0.063-0.377,0.281-1.004c0.209-0.631,0.543-1.527,1.125-2.527c0.297-0.494,0.641-1.027,1.086-1.535
			c0.446-0.504,0.966-1.022,1.631-1.412c0.327-0.201,0.688-0.37,1.075-0.492c0.186-0.068,0.404-0.108,0.585-0.144l0.237-0.047
			c0.048-0.003,0.15-0.065,0.047,0.006c-0.042,0.04-0.095,0.095-0.124,0.235c-0.012,0.166,0.021,0.223,0.065,0.29
			c0.044,0.06,0.048,0.051,0.035,0.043c-0.038-0.023-0.101-0.057-0.176-0.088c-0.147-0.063-0.315-0.125-0.485-0.183l-1.056-0.334
			c-2.854-0.877-5.805-1.848-7.624-3.351c-0.445-0.378-0.806-0.794-1.034-1.223c-0.228-0.43-0.298-0.863-0.266-1.204
			c0.086-0.685,0.359-0.983,0.338-0.989c0,0-0.031,0.088-0.088,0.255c-0.044,0.168-0.107,0.42-0.089,0.737
			c0.008,0.316,0.117,0.689,0.363,1.046c0.247,0.356,0.616,0.693,1.067,0.994c1.822,1.224,4.724,2.014,7.605,2.813l1.092,0.331
			c0.184,0.061,0.368,0.123,0.564,0.205c0.097,0.04,0.201,0.089,0.321,0.162c0.063,0.043,0.142,0.091,0.243,0.224
			c0.063,0.109,0.125,0.205,0.1,0.42c-0.027,0.188-0.123,0.277-0.192,0.351c-0.248,0.188-0.332,0.171-0.459,0.219
			c-0.126,0.033-0.214,0.048-0.301,0.065c-0.176,0.042-0.318,0.064-0.475,0.116c-0.306,0.09-0.601,0.218-0.876,0.38
			c-1.112,0.647-1.965,1.629-2.625,2.498c-0.658,0.881-1.153,1.676-1.486,2.239C119.637,123.011,119.453,123.339,119.453,123.339z"
			/>
	</g>
	<g>
		<path fill="#3F3F3F" d="M170.32,109.964c0,0-0.359-0.718-0.644-1.877c-0.071-0.289-0.14-0.605-0.197-0.942
			c-0.046-0.338-0.122-0.694-0.14-1.069c-0.075-0.746-0.076-1.551-0.006-2.356c0.023-0.402,0.123-0.801,0.182-1.195
			c0.074-0.393,0.213-0.769,0.315-1.135c0.146-0.357,0.289-0.7,0.45-1.011c0.183-0.304,0.357-0.587,0.533-0.835
			c0.2-0.235,0.393-0.44,0.561-0.619c0.157-0.188,0.361-0.291,0.495-0.401c0.286-0.205,0.45-0.309,0.45-0.309
			s-0.112,0.163-0.309,0.449c-0.092,0.145-0.235,0.289-0.339,0.501c-0.108,0.208-0.229,0.439-0.369,0.68
			c-0.106,0.26-0.22,0.541-0.341,0.839c-0.092,0.306-0.189,0.629-0.289,0.963c-0.143,0.686-0.293,1.416-0.346,2.17
			c-0.086,0.747-0.1,1.507-0.11,2.223c-0.008,0.716,0.012,1.388,0.025,1.97C170.289,109.182,170.32,109.964,170.32,109.964z"/>
	</g>
</g>
</svg>
