<?xml version="1.0" encoding="utf-8"?>
<!-- Generator: Adobe Illustrator 16.0.0, SVG Export Plug-In . SVG Version: 6.00 Build 0)  -->
<!DOCTYPE svg PUBLIC "-//W3C//DTD SVG 1.1//EN" "http://www.w3.org/Graphics/SVG/1.1/DTD/svg11.dtd">
<svg version="1.1" id="Calque_1" xmlns="http://www.w3.org/2000/svg" xmlns:xlink="http://www.w3.org/1999/xlink" x="0px" y="0px"
	 width="644.293px" height="224.087px" viewBox="-68.513 -28.548 644.293 224.087"
	 enable-background="new -68.513 -28.548 644.293 224.087" xml:space="preserve">
<g id="g3">
	<path id="path5" fill="#1D1D1B" d="M124.938,115.346c-18.746-12.076-44.185-14.195-85.212-2.812
		c-43.738,10.279-58.321,16.867-77.472,3.641c-7.357-6.498-9.995-16.958-8.025-32.027C-41.202,59.582-28.856,35.942-6.926,9.72
		C5.314-3.921,16.668-15.627,31.662-20.328c11.491-2.949,10.417,6.081,9.026,7.373c-1.467,0-3.933,0.231-5.837,1.474
		c-1.546,1.199-5.789,5.071-6.017,10.278C28.505,6.77,36.756,5.11,40.313,0.733c3.836-4.933,9.505-14.378,5.046-23.182
		c-1.869-3.133-5.098-5.299-9.107-6.036c-13.729-0.785-26.515,5.76-38.315,12.995C-27.87,2.438-48.514,27.279-60.194,54.469
		c-6.735,16.406-12.826,39.906-3.696,59.034c7.062,13.271,21.724,20.321,39.217,18.848c12.268-1.29,27.104-5.255,37.082-7.649
		c9.977-2.397,61.052-19.955,77.833,10.602c0,0,5.581-10.832,19.527-11.063c11.465-1.058,28.005,3.319,40.051,12.166
		C145.808,130.37,134.43,121.476,124.938,115.346L124.938,115.346z"/>
	<path id="path7" fill="#1D1D1B" d="M44.935,12.807c-9.553-6.267-28.752,5.714-44.13,26.268
		c-14.062,18.436-20.135,39.863-13.527,49.771c9.831,11.659,28.079-5.299,35.84-14.376l1.001-1.061
		c5.277-5.668,9.355-12.49,13.301-19.034c0,0,3.626-5.991,3.8-6.268c2.242-0.413,4.942-1.059,7.984-1.934
		c-0.043,0.137-11.641,19.631-10.458,29.308c0.368,2.952,0.086,13.735,10.615,17.007c14.032,2.352,25.237-8.525,35.122-18.204
		c0,0,1.685-1.611,2.637-2.531c-0.241,0.964-0.556,2.252-0.556,2.252c-4.107,14.287,1.43,17.285,4.894,18.391
		c10.469,3.045,22.975-12.165,23.016-12.165c-0.325,4.791-1.273,8.753,3.777,11.934c4.767,1.707,9.59-0.895,13.257-3.337
		c13.208-9.31,23.849-23.879,32.444-36.473h-5.482c-0.065,0-13.528,19.513-22.271,23.754c-0.013,0-1.604,0.816-2.521,0.17
		c-1.135-0.968-0.687-2.981,0.014-4.407c0.044-0.093,33.754-58.56,33.754-58.56h-15.917c0,0-1.738,2.813-1.879,2.997
		c-0.107-0.092-0.362-0.575-0.54-0.807c-9.861-13.641-32.192,7.341-49.005,31.672c-6.472,9.357-14.713,19.891-23.258,27.494
		c0,0-12.659,11.605-18.068,3.268c-1.977-3.503-1.369-8.625-0.253-11.988c6.298-17.927,17.149-34.197,29.498-44.014
		c3.486-2.717,7.275-3.503,9.155-2.351c1.792,1.062,2.081,3.686,0.947,5.484c-2.876-0.092-5.18,0.782-7.053,2.718
		c-3.691,3.872-4.972,7.605-3.799,11.108c5.7,8.11,17.066-7.928,16.517-17.698c-0.197-3.502-2.066-6.82-4.854-8.435
		c-4.157-2.487-10.498-1.843-14.602,0.14c-5.494,2.073-14.19,9.308-19.266,14.931c-6.391,7.052-17.35,14.886-20.777,14.008
		C45.416,38.843,54.673,19.903,44.935,12.807L44.935,12.807z M121.671,40.827c3.097-4.285,12.108-15.761,14.305-17.696
		c7.389-6.5,10.343-3.64,10.598-1.614c-6.896,12.351-15.035,26.5-22.687,39.219c0.016-0.045-2.395,3.641-2.395,3.641
		c-3.379,5.161-6.782,9.584-12.333,12.671c-0.792,0.232-2.097,0.325-2.965-0.322c-1.045-0.692-1.458-1.844-1.34-3.042
		C105.187,69.721,109.222,57.602,121.671,40.827L121.671,40.827z M35.083,48.246c0,0-0.138,0.417-0.207,0.552
		c-0.017,0-6.939,11.29-6.939,11.29c-4.178,5.577-9.394,12.584-15.914,15.946c-1.933,0.646-4.604,1.061-5.965-0.642
		c-2.886-3.458-1.398-8.25-0.19-12.121l0.428-1.383c3.464-9.4,8.962-17.697,14.312-25.393c0.067-0.046,0.217-0.092,0.271-0.092
		c0.012,0.046,0.034,0.046,0.042,0.139c3.357,6.451,9.653,9.445,14.362,10.83c0.028,0,0.059,0.046,0.059,0.139
		C35.344,47.647,35.267,47.833,35.083,48.246L35.083,48.246z M41.642,34.929c-0.03,0.092-3.083,7.096-3.083,7.096
		c-0.441,0.369-1.14,0.185-1.938,0l-1.371-0.231c-4.303-1.336-7.548-4.193-8.548-7.604c-1.381-6.636,4.289-11.844,6.787-13.732
		c2.397-1.661,6.123-2.536,8.287-0.831c1.334,1.568,1.84,3.595,1.84,5.808C43.614,28.43,42.69,31.794,41.642,34.929L41.642,34.929z"
		/>
	<path id="path9" fill="#1D1D1B" d="M242.858,56.31c-1.535-3.316-5.179-5.437-9.062-5.207
		c-12.608,1.153-24.941,11.521-31.417,26.406c-3.397,7.651-5.252,13.964-6.468,24.011c3.92-4.516,11.918-11.936,20.993-15.99
		c0,0,1.235-9.632,7.532-18.204c2.382-3.549,7.151-9.264,12.506-7.744c4.679,1.568,3.034,14.518-3.184,27.05
		c-4.601,9.218-11.641,18.438-18.764,24.796c-6.298,5.346-15.616,11.798-23.768,6.821c-5.134-3.04-7.753-9.401-7.199-17.604
		c2.453-23.272,13.046-43.089,28.207-65.67c15.631-20.968,32.863-42.49,56.076-53.967c4.734-2.396,9.119-2.949,12.91-1.474
		c0,0-21.791,11.981-32.177,34.149c-2.643,5.623-6.317,13.225-2.617,19.954c1.934,3.502,5.367,3.778,8.132,3.594
		c12.732-2.95,20.957-14.84,27.678-25.714c3.896-8.25,7.361-16.453,7.361-25.578c0-1.106-0.059-2.58-0.152-3.687
		c6.084-3.225,18.557,2.489,18.557,2.489c9.748,3.227,30.502,19.127,37.502,22.167c3.416-3.962,9.027-9.953,12.188-12.949
		l-4.574-2.812c-7.322-4.47-15.064-8.71-22.684-12.903c-17.305-9.447-31.389-6.129-38.557-3.548
		c-2.818,1.013-5.393,1.889-5.393,1.889c-5.32-5.806-14.045-5.254-20.473-3.687c-23.119,6.635-44.584,22.811-67.596,50.877
		c-16.919,21.983-27.414,40.97-33.008,59.727c-4.311,12.626-5.622,31.198,4.902,42.213c8.948,9.354,20.812,7.326,29.19,3.965
		c18.152-8.941,34.468-28.206,42.597-50.374C244.058,72.718,246.235,63.409,242.858,56.31L242.858,56.31z M284.597-13.138
		c-2.402,27.559-23.824,43.736-29.125,45.024c-3.211,0.644-8.692-0.784-3.799-12.35c7.206-15.578,19.506-28.803,32.706-35.578
		C284.701-14.889,284.693-14.154,284.597-13.138L284.597-13.138z"/>
	<path id="path11" fill="#1D1D1B" d="M411.671-9.637c-11.521,6.545-23.467,10.784-37.928,9.31
		c-4.008,4.518-7.908,9.171-11.506,13.964c20.295,5.161,41.811-6.314,53.811-17.235c12.693-11.015,19.203-24.885,19.203-24.885
		S425.736-17.609,411.671-9.637L411.671-9.637z"/>
	<polygon id="polygon13" fill="#1D1D1B" points="193.903,13.312 178.788,13.312 170.262,27.166 185.374,27.166 	"/>
	<path id="path15" fill="#1D1D1B" d="M373.683,116.628c-1.625,1.106-3.908,0.256-3.055-2.278
		c2.127-6.452,10.582-19.601,10.582-19.601l23.547-41.765h-16.129c-0.768,1.26-2.406,4.151-2.406,4.151
		c-0.746-1.242-2.979-4.007-3.896-4.604c-3.941-2.491-9.723-1.313-13.711,0.945c-17.342,10.14-29.994,30.174-39.973,45.798
		c0,0-10.504,17.367-16.336,18.659c-4.553,0.368-4.082-5.764-3.885-7.192c1.76-10.324,5.848-20.141,9.965-29.035
		c8.377-5.806,17.936-13.41,26.621-21.751c18.854-18.021,34.746-38.436,37.068-42.998c0,0-2.514,0.507-5.482,0.598
		c-14.504,20.231-44.184,49.635-53.182,54.012c3.986-9.587,29.74-55.349,51.656-77.238l3.447-3.319
		c5.334-5.208,10.859-10.554,15.164-11.429c0.455-0.047,1.041,0,1.547,1.061c0.191,4.055-1.318,7.051-3.049,10.461L389.75-3.92
		c0,0,3.438-0.645,5.695-1.384c2.619-4.929,5.521-10.461,4.451-17.05c-0.357-2.12-1.891-3.733-3.896-4.102
		c-6.539-1.244-13.662,3.593-19.396,7.511l-0.232,0.137C346.9,4.282,322.015,37.555,300.257,82.996
		c-1.576,1.195-7.668,2.626-8.703,1.934c2.148-4.423,4.854-10.369,6.205-16.821c0.236-1.844,0.453-3.732,0.453-5.576
		c0-3.966-0.951-7.698-4.506-10.277c-4.166-2.075-9.314-1.106-12.785,0.46c-15.553,6.452-27.178,22.398-35.565,35.531
		c-4.511,8.344-9.009,17.28-10.255,27.513c-0.877,8.019,0.909,13.18,5.468,15.761c4.688,2.395,10.589-0.094,12.907-1.291
		c15.756-8.295,26.764-24.932,35.441-40.14c0.346-0.046,5.082-0.184,8.668-1.106c0.047,0,0.066,0,0.146,0.049
		c-0.205,0.688-2.057,6.221-2.057,6.221c-5.5,16.128-8.045,27.098-2.85,33.594c7.424,9.172,19.715-0.32,29.713-12.857
		c-2.146,15.022,5.639,17.375,11.574,16.223c6.818-1.842,14.416-9.125,17.941-12.857c-1.133,4.378-0.824,12.213,5.377,12.996
		c4.252,0.785,7.434-1.527,11.113-3.51c13.205-7.189,29.012-31.148,33.115-38.074h-5.381
		C390.445,99.582,383.021,111.142,373.683,116.628L373.683,116.628z M255.162,115.023c-0.838-1.244-1.115-2.605-1.143-4.076
		c-0.16-9.036,9.561-25.219,16.424-34.035c0.014,0,0.014,0,0.014,0c2.877,6.297,9.389,10.345,13.32,12.05
		C278.894,99.84,262.148,123.135,255.162,115.023L255.162,115.023z M286.533,84.101c-0.465,0.324-8.678-2.442-10.266-10.046
		c-1.346-6.546,3.162-11.661,7.523-14.24c1.873-1.476,4.693-1.981,6.762-1.247c1.92,1.292,2.439,3.599,2.439,6.083
		c0,1.523-0.201,3.089-0.381,4.518c0,0-0.033,0.277-0.039,0.323C291.203,74.605,289.111,79.629,286.533,84.101L286.533,84.101z
		 M352.398,112.121c-0.008,0-1.559,1.382-1.559,1.382c-2.215,1.98-4.494,4.101-7.246,3.04c-0.762-0.275-1.295-1.289-1.424-2.074
		c-0.125-5.669,2.428-10.922,4.902-16.036l0.635-1.337c7.121-11.89,15.398-25.899,27.553-35.623c2.049-1.478,4.273-2.72,6.619-1.751
		c0.539,0.506,1.168,1.383,1.168,2.257c0,0.278-0.246,1.015-0.389,1.244c-3.395,5.487-6.629,11.247-9.773,16.776
		C366.74,90.922,360.365,102.211,352.398,112.121L352.398,112.121z"/>
</g>
<g>
	<path fill="#3C3C3B" d="M437.794,144.343c-2.924,6.736-5.736,13.333-8.438,19.789c-2.705,6.458-5.309,12.659-7.818,18.608
		c-1.875,0.787-3.822,1.402-5.848,1.854c-2.025,0.447-3.812,0.645-5.363,0.59c-1.551-0.059-2.701-0.422-3.453-1.096
		c-0.75-0.674-0.771-1.795-0.053-3.369c0.797-1.793,2.662-5.92,5.594-12.377c2.924-6.455,6.414-14.23,10.469-23.324
		c-4.355,0.225-8.672,0.504-12.955,0.842c-4.283,0.336-8.4,0.672-12.346,1.01c-6.309,7.072-12.525,13.615-18.646,19.619
		c-6.123,6.008-12.053,11.145-17.787,15.41c-5.736,4.266-11.229,7.605-16.477,10.02c-5.252,2.414-10.232,3.621-14.947,3.621
		c-1.912,0-4.066-0.311-6.465-0.926c-2.402-0.619-4.488-1.768-6.254-3.451c-1.77-1.686-2.934-3.988-3.496-6.906
		c-0.564-2.918,0.059-6.736,1.869-11.451c1.422-3.705,3.285-6.877,5.588-9.515s4.652-4.659,7.045-6.063
		c2.391-1.402,4.586-2.076,6.586-2.021c1.998,0.059,3.348,0.928,4.049,2.611c-3.047,3.257-5.406,6.626-7.078,10.104
		c-1.672,3.482-2.582,6.652-2.727,9.516c-0.146,2.863,0.465,5.221,1.832,7.074c1.365,1.852,3.564,2.777,6.598,2.777
		c2.918,0,6.242-0.984,9.971-2.945c3.729-1.963,7.695-4.688,11.895-8.17c4.197-3.477,8.656-7.633,13.371-12.461
		c4.717-4.826,9.521-10.105,14.414-15.831c-3.611,0.337-6.807,0.618-9.586,0.843c-2.781,0.225-4.846,0.336-6.191,0.336
		c-1.91,0-3.076-0.477-3.494-1.432c-0.42-0.953-0.465-2.076-0.137-3.369c0.326-1.289,0.918-2.609,1.771-3.957
		s1.656-2.412,2.406-3.199c4.49,0,8.729,0,12.717,0c3.982,0,7.863,0.059,11.639,0.168c4.822-5.836,9.697-11.957,14.625-18.355
		c4.926-6.4,9.809-12.826,14.645-19.285c4.836-6.454,9.586-12.908,14.254-19.367c4.668-6.455,9.154-12.657,13.461-18.609
		c4.375-1.458,7.971-2.274,10.789-2.443c2.814-0.168,4.924,0.114,6.328,0.842c1.404,0.732,2.207,1.853,2.412,3.369
		c0.203,1.515-0.098,3.173-0.895,4.967c-1.779,4.042-3.826,8.647-6.146,13.811c-2.318,5.166-4.828,10.751-7.525,16.757
		c-2.701,6.007-5.525,12.268-8.471,18.777c-2.951,6.513-5.885,13.135-8.809,19.873h5.223c2.02,0,3.492,0.111,4.418,0.336
		c0.922,0.227,1.387,0.619,1.398,1.178c0.008,0.564-0.262,1.264-0.809,2.106c-0.549,0.842-1.285,1.882-2.205,3.115H437.794z
		 M449.007,83.547c-7.215,9.432-14.438,18.666-21.668,27.703c-7.23,9.039-14.426,17.768-21.588,26.188c3.369,0,6.707,0,10.021,0
		c3.311,0,6.74,0.059,10.291,0.17c3.682-8.422,7.518-17.318,11.512-26.693C441.566,101.541,445.375,92.418,449.007,83.547z"/>
	<path fill="#3C3C3B" d="M470.265,186.109c-2.021,0-3.842-0.674-5.457-2.021s-2.514-3.76-2.691-7.242
		c-0.182-3.479,0.695-8.252,2.631-14.314c1.932-6.062,5.531-13.752,10.793-23.072c-1.281,0.113-2.547,0.197-3.801,0.252
		c-1.26,0.059-2.449,0.085-3.57,0.085c-2.275,5.052-5.021,10.079-8.227,15.073c-3.213,4.997-7.1,10.078-11.664,15.242
		c-1.941,2.133-3.623,3.004-5.041,2.609c-1.424-0.393-2.111-1.375-2.068-2.947c3.459-4.042,6.846-8.842,10.158-14.4
		c3.312-5.557,6.291-11.198,8.939-16.924c-2.24-0.898-3.621-2.414-4.15-4.547c-0.529-2.132,0.025-5.332,1.664-9.6
		c0.646-1.686,1.721-3.676,3.223-5.979c1.498-2.301,3.211-4.351,5.137-6.148c1.924-1.793,3.977-3.115,6.152-3.957
		s4.314-0.645,6.424,0.59c-0.912,3.258-1.822,6.429-2.725,9.516c-0.906,3.088-1.85,6.204-2.83,9.346c2.02,0,4.09-0.055,6.211-0.168
		c2.117-0.11,4.197-0.336,6.238-0.674c2.037-0.336,3.9-0.729,5.588-1.179c1.688-0.446,3.088-0.953,4.203-1.517
		c1.189,0.114,2.107,0.506,2.748,1.18c0.639,0.674,0.191,2.135-1.346,4.379c-5.789,8.646-10.336,16.027-13.637,22.146
		c-3.305,6.119-5.615,11.115-6.932,14.988c-1.32,3.873-1.848,6.711-1.58,8.504c0.262,1.799,1.012,2.695,2.248,2.695
		c1.795,0,4.039-0.869,6.729-2.609c2.688-1.74,6.311-5.475,10.867-11.201c1.578-0.896,3.066-1.121,4.469-0.672
		c1.398,0.449,1.57,1.46,0.52,3.03c-1.777,2.584-3.82,5.052-6.127,7.411c-2.311,2.357-4.766,4.436-7.361,6.23
		c-2.6,1.797-5.254,3.229-7.963,4.295C475.324,185.574,472.734,186.109,470.265,186.109z"/>
	<path fill="#3C3C3B" d="M501.56,188.805c-5.051,0-8.24-1.713-9.562-5.137c-1.326-3.424-1.049-8.531,0.83-15.326
		c1.875-6.791,5.213-15.268,10.014-25.431c4.799-10.159,10.795-21.978,17.988-35.45l-9.354,0.674
		c-1.279,0.113-2.117-0.111-2.52-0.674c-0.4-0.561-0.516-1.29-0.34-2.189c0.178-0.896,0.555-1.879,1.133-2.947
		c0.576-1.065,1.242-1.992,1.992-2.778h13.305l12.82-23.747c2.225-1.121,4.557-2.077,6.992-2.863
		c2.434-0.784,4.543-1.234,6.328-1.347c1.783-0.111,2.99,0.252,3.623,1.095c0.629,0.842,0.275,2.273-1.061,4.294
		c-2.252,3.818-4.453,7.578-6.605,11.283s-4.275,7.41-6.371,11.115l11.348-0.168c3.592,0,5.482,0.562,5.67,1.684
		c0.186,1.124-0.77,2.809-2.865,5.053l-18.279,0.674c-5.918,10.441-11.25,20.238-15.996,29.387c-4.75,9.152-8.635,17.152-11.654,24
		c-3.023,6.85-4.926,12.238-5.701,16.166c-0.781,3.934-0.047,5.896,2.199,5.896c2.469,0,5.043-0.785,7.727-2.359
		c2.68-1.57,5.287-3.537,7.82-5.893c2.531-2.359,4.895-4.855,7.088-7.496c2.191-2.637,4.088-5.022,5.695-7.157
		c1.691-0.897,3.23-1.179,4.617-0.842c1.385,0.337,1.664,1.292,0.838,2.862c-1.242,2.359-3.293,5.137-6.148,8.338
		c-2.855,3.199-6.098,6.23-9.721,9.094c-3.627,2.863-7.361,5.277-11.199,7.24C508.365,187.82,504.816,188.805,501.56,188.805z"/>
	<path fill="#3C3C3B" d="M549.681,129.691c0.197-1.684,0.705-3.592,1.525-5.727c1.939-5.051,4.99-8.98,9.156-11.789
		c4.164-2.805,8.885-4.209,14.164-4.209c3.018,6.175,0.586,12.07-7.293,17.683c-0.906,2.358-1.287,5.11-1.148,8.253
		c0.141,3.145,0.318,6.482,0.533,10.02s0.252,7.242,0.111,11.115c-0.139,3.873-0.984,7.831-2.537,11.873
		c-1.68,4.379-3.965,8.281-6.85,11.705c-2.889,3.426-6.008,6.285-9.359,8.588c-3.355,2.301-6.783,4.07-10.291,5.307
		c-3.502,1.232-6.662,1.852-9.467,1.852c-3.705,0-6.072-0.787-7.096-2.357c-1.023-1.574-1.299-2.977-0.824-4.211
		c1.551-4.041,4.299-6.23,8.248-6.568c0.223,1.461,0.924,2.779,2.1,3.959c1.174,1.178,2.717,1.768,4.627,1.768
		c2.357,0,4.812-0.842,7.369-2.527c2.555-1.684,4.76-4.938,6.613-9.766c2.283-5.95,3.229-11.34,2.838-16.169
		c-0.396-4.825-0.986-9.431-1.771-13.81c-2.598,4.715-5.533,9.432-8.801,14.146c-3.271,4.717-6.23,8.479-8.879,11.285
		c-1.855,1.908-3.518,2.807-4.99,2.693c-1.473-0.109-2.258-1.066-2.354-2.863c1.586-1.794,3.484-4.182,5.695-7.158
		c2.205-2.973,4.412-6.23,6.611-9.767c2.199-3.537,4.371-7.298,6.52-11.284c2.146-3.984,3.955-7.887,5.42-11.705L549.681,129.691z"
		/>
</g>
</svg>
