<?xml version="1.0" encoding="utf-8"?>
<!-- Generator: Adobe Illustrator 17.0.0, SVG Export Plug-In . SVG Version: 6.00 Build 0)  -->
<!DOCTYPE svg PUBLIC "-//W3C//DTD SVG 1.1//EN" "http://www.w3.org/Graphics/SVG/1.1/DTD/svg11.dtd">
<svg version="1.1" id="Calque_1" xmlns="http://www.w3.org/2000/svg" xmlns:xlink="http://www.w3.org/1999/xlink" x="0px" y="0px"
	 width="169.056px" height="114.425px" viewBox="0 0 169.056 114.425" enable-background="new 0 0 169.056 114.425"
	 xml:space="preserve">
<path opacity="0.2" d="M26.969,27.02c0,0-8.795,21.226-6.624,24.3s5.427,1.307,4.522,4s-5.427,4.318-4.16,7.032
	c1.266,2.714,5.606,0.182,8.139-3.616c2.532-3.798,2.532-1.99,4.16-0.543c1.627,1.447,18.237-7.416,18.523-18.629
	C51.816,28.35,36.848,9.774,26.969,27.02z M43.135,41.744c-0.362,1.637-3.799,9.577-10.672,8.492s0.904-15.917,0.904-15.917
	c1.266,2.17,7.777-1.447,9.768-0.904C45.124,33.957,43.496,40.106,43.135,41.744z"/>
<path opacity="0.2" d="M59.231,28.712c0,0-16.64,37.078-16.459,43.047s2.532,3.832,4.522-2.153
	c1.988-5.985,5.606-14.487,6.148-15.391c0.724,3.798-0.542,13.96-1.085,15.391c-0.542,1.43-2.532,4.866-2.713,7.218
	c-0.181,2.352,0,2.713-0.904,3.979c-0.904,1.267-5.245,3.309-3.617,3.644c1.628,0.336,5.967-1.292,5.878-3.462
	c-0.09-2.171-0.294-3.438,0.531-4.703s0.464-3.256,0.825-1.266c0.362,1.989-1.446,4.16,0.181,5.244
	c1.628,1.086,4.521,5.064,6.692-11.395c2.171-16.458,2.171-18.527,2.171-18.527S73.7,49.694,74.422,39.384
	C75.148,29.074,64.223,17.286,59.231,28.712z"/>
<path opacity="0.2" d="M77.499,46.404c0,0-11.214,26.144-10.853,28.824c0.362,2.68,1.793,2.86-0.008,3.584
	c-1.801,0.724-5.96,7.415-5.056,9.405c0.904,1.989,1.989,2.894,3.255,0c1.267-2.895,0.904-4.341,1.809-6.149
	c0.905-1.81,0.777-2.171,2.831-2.352s15.799-13.384,15.075-31.29C83.83,30.521,78.764,43.423,77.499,46.404z"/>
<path opacity="0.2" d="M91.607,52.165c0,0-19.104,43.431-17.148,49.6c1.955,6.168,5.029-2.876,6.838-7.578
	c1.81-4.703,8.502-20.98,9.225-12.118c0.724,8.862-5.245,16.875-3.256,15.853c1.99-1.021,2.895-2.287,3.438-4.639
	c0.542-2.352,0.542-2.818,1.627-3.218c1.086-0.399-3.979,10.749,0,12.591c3.979,1.84,7.416-3.767,9.768-10.459
	c2.352-6.691,13.746-34.821,15.555-37.938c1.809-3.118,3.798-5.868,0.723-5.036c-3.074,0.833-14.332,8.791-21.229,25.702
	C97.756,60.093,99.385,36.278,91.607,52.165z"/>
<path opacity="0.2" d="M130.132,56.927c0,0-7.325-3.567-16.459,27.562c-7.054,15.666-9.314,17.581-8.591,19.924
	c0.723,2.344,1.989,3.429,3.074,2.977c-1.718,2.17-4.16,2.17-3.798,4.432c0.361,2.261,4.702,2.441,5.426,0s0.362-3.889,1.085-4.251
	c0.724-0.361,2.984-0.937,4.07-3.724c1.085-2.787,6.42-12.464,7.324-7.129c0.904,5.336,0.543,11.215,1.086,12.3
	s0.452,6.06,4.702,5.335c4.251-0.723,3.889-1.266,4.251-4.25c0.361-2.984-1.357-18.268-0.633-20.528
	c2.08-1.718,17.001-6.692,21.07-9.677c3.799,2.171,3.256,2.713,1.719,3.617c3.346-0.361,4.793-1.446,4.611-4.883
	c4.16-2.262,16.641-13.746,5.427-11.033c-11.214,2.713-18.087,6.963-21.343,7.325c-3.256,0.362-11.666,4.612-13.384,2.622
	c-1.719-1.989,2.351-9.224,3.889-11.846C135.196,63.077,134.925,57.741,130.132,56.927z"/>
<path fill="#00973B" d="M6.969,7.02c0,0-8.795,21.226-6.624,24.3s5.427,1.307,4.522,4s-5.427,4.318-4.16,7.032
	c1.266,2.714,5.606,0.182,8.139-3.616c2.532-3.798,2.532-1.99,4.16-0.543c1.627,1.447,18.237-7.416,18.523-18.629
	C31.816,8.35,16.848-10.226,6.969,7.02z M23.135,21.744c-0.362,1.637-3.799,9.577-10.672,8.492s0.904-15.917,0.904-15.917
	c1.266,2.17,7.777-1.447,9.768-0.904C25.124,13.957,23.496,20.106,23.135,21.744z"/>
<path fill="#00973B" d="M39.231,8.712c0,0-16.64,37.078-16.459,43.047s2.532,3.832,4.522-2.153
	c1.988-5.985,5.606-14.487,6.148-15.391c0.724,3.798-0.542,13.96-1.085,15.391c-0.542,1.43-2.532,4.866-2.713,7.218
	s0,2.713-0.904,3.979c-0.904,1.267-5.245,3.309-3.617,3.644c1.628,0.336,5.967-1.292,5.878-3.462
	c-0.09-2.171-0.294-3.438,0.531-4.703c0.825-1.265,0.464-3.256,0.825-1.266c0.362,1.989-1.446,4.16,0.181,5.244
	c1.628,1.086,4.521,5.064,6.692-11.395c2.171-16.458,2.171-18.527,2.171-18.527S53.7,29.694,54.422,19.384
	C55.148,9.074,44.223-2.714,39.231,8.712z"/>
<path fill="#00973B" d="M57.499,26.404c0,0-11.214,26.144-10.853,28.824c0.362,2.68,1.793,2.86-0.008,3.584s-5.96,7.415-5.056,9.405
	c0.904,1.989,1.989,2.894,3.255,0c1.267-2.895,0.904-4.341,1.809-6.149c0.905-1.81,0.777-2.171,2.831-2.352
	s15.799-13.384,15.075-31.29C63.83,10.521,58.764,23.423,57.499,26.404z"/>
<path fill="#00973B" d="M71.607,32.165c0,0-19.104,43.431-17.148,49.6c1.955,6.168,5.029-2.876,6.838-7.578
	c1.81-4.703,8.502-20.98,9.225-12.118c0.724,8.862-5.245,16.875-3.256,15.853c1.99-1.021,2.895-2.287,3.438-4.639
	c0.542-2.352,0.542-2.818,1.627-3.218c1.086-0.399-3.979,10.749,0,12.591c3.979,1.84,7.416-3.767,9.768-10.459
	c2.352-6.691,13.746-34.821,15.555-37.938c1.809-3.118,3.798-5.868,0.723-5.036c-3.074,0.833-14.332,8.791-21.229,25.702
	C77.756,40.093,79.385,16.278,71.607,32.165z"/>
<path fill="#00973B" d="M110.132,36.927c0,0-7.325-3.567-16.459,27.562c-7.054,15.666-9.314,17.581-8.591,19.924
	c0.723,2.344,1.989,3.429,3.074,2.977c-1.718,2.17-4.16,2.17-3.798,4.432c0.361,2.261,4.702,2.441,5.426,0s0.362-3.889,1.085-4.251
	c0.724-0.361,2.984-0.937,4.07-3.724c1.085-2.787,6.42-12.464,7.324-7.129c0.904,5.336,0.543,11.215,1.086,12.3
	s0.452,6.06,4.702,5.335c4.251-0.723,3.889-1.266,4.251-4.25c0.361-2.984-1.357-18.268-0.633-20.528
	c2.08-1.718,17.001-6.692,21.07-9.677c3.799,2.171,3.256,2.713,1.719,3.617c3.346-0.361,4.793-1.446,4.611-4.883
	c4.16-2.262,16.641-13.746,5.427-11.033s-18.087,6.963-21.343,7.325s-11.666,4.612-13.384,2.622
	c-1.719-1.989,2.351-9.224,3.889-11.846C115.196,43.077,114.925,37.741,110.132,36.927z"/>
</svg>
