<?xml version="1.0" encoding="utf-8"?>
<!-- Generator: Adobe Illustrator 16.0.0, SVG Export Plug-In . SVG Version: 6.00 Build 0)  -->
<!DOCTYPE svg PUBLIC "-//W3C//DTD SVG 1.1//EN" "http://www.w3.org/Graphics/SVG/1.1/DTD/svg11.dtd">
<svg version="1.1" id="Calque_1" xmlns="http://www.w3.org/2000/svg" xmlns:xlink="http://www.w3.org/1999/xlink" x="0px" y="0px"
	 width="154.596px" height="71.388px" viewBox="0 0 154.596 71.388" enable-background="new 0 0 154.596 71.388"
	 xml:space="preserve">
<path fill="#FDC800" stroke="#8A8D8C" stroke-miterlimit="10" d="M24.449,60.636c0,0-12.299-37.861-21.463-33.038
	s8.923,45.819,23.151,43.167c14.229-2.652,18.569-12.057,27.251-12.539c8.682-0.483,20.016-6.331,6.27-9.195
	C45.912,46.167,27.976,70.271,24.449,60.636z"/>
<path fill="#FDC800" stroke="#8A8D8C" stroke-miterlimit="10" d="M46.394,21.327c0,0-27.733,14.711-7.476,32.074
	s28.698,3.858,30.627,0c1.929-3.857,1.447-5.787,1.447-5.787s12.709,14.71,25.405-4.342c12.697-19.051-19.383-48.623-33.846-16.1
	C54.111,17.228,48.089,20.326,46.394,21.327z"/>
<ellipse fill="#2EBDEE" cx="48.444" cy="43.188" rx="5.908" ry="5.842"/>
<ellipse fill="#E61B76" cx="49.831" cy="42.79" rx="1.386" ry="1.447"/>
<ellipse fill="#2EBDEE" cx="82.426" cy="34.259" rx="6.565" ry="7.085"/>
<ellipse fill="#E61B76" cx="81.776" cy="34.884" rx="1.983" ry="2.464"/>
<path fill="#FDC800" stroke="#8A8D8C" stroke-miterlimit="10" d="M104.513,34.259c0,0-5.733-13.896-5.52-1.838
	c0.215,12.059,8.094,17.605,17.658,13.505c9.566-4.1,7.279-13.505,0.465-15.675c-6.815-2.171-13.809-6.029-12.361-8.441
	c1.446-2.411,5.613-2.195,8.306,2.895s5.347,1.93,6.479-1.93c1.132-3.858-2.134-19.293-9.665-19.293s-28.271,15.193-0.779,28.939
	c6.753,5.787,4.693,8.44,0.779,7.717C105.96,39.415,105.46,36.354,104.513,34.259z"/>
<path fill="#FDC800" stroke="#8A8D8C" stroke-miterlimit="10" d="M117.116,9.7c0,0,20.965-10.808,28.297-8.995
	s3.842,6.349-10.996,11.94c-14.838,5.594-8.682,9.165,1.205,4.342c9.888-4.824,19.604-0.725,4.256,5.305
	c-15.349,6.029-8.527,9.405,0,5.788c8.525-3.618,13.107-2.778,14.072-0.907c0.965,1.872-2.411,13.447-24.115,15.617
	C108.13,44.961,114.669,10.909,117.116,9.7z"/>
</svg>
