<?xml version="1.0" encoding="utf-8"?>
<!-- Generator: Adobe Illustrator 17.0.0, SVG Export Plug-In . SVG Version: 6.00 Build 0)  -->
<!DOCTYPE svg PUBLIC "-//W3C//DTD SVG 1.1//EN" "http://www.w3.org/Graphics/SVG/1.1/DTD/svg11.dtd">
<svg version="1.1" xmlns="http://www.w3.org/2000/svg" xmlns:xlink="http://www.w3.org/1999/xlink" x="0px" y="0px"
	 width="86.581px" height="126.556px" viewBox="0.001 -0.001 86.581 126.556" enable-background="new 0.001 -0.001 86.581 126.556"
	 xml:space="preserve">
<g id="Calque_1_-_copie">
	<path opacity="0.2" stroke="#000000" stroke-width="2" stroke-miterlimit="10" d="M80.768,19.058
		c-7.959-8.864-21.886,13.567-25.865,16.822c-3.702,3.029-43.083,35.643-21.029,52.405l-0.038-0.016c0,0-3.169,9.649-4.254,10.373
		c-1.085,0.724-14.107,3.979-13.565,5.245s9.586,3.075,11.938,3.256c-3.979,5.787-5.969,12.48-5.788,13.203
		c0.181,0.724,9.594-5.606,11.67-7.777c2.257,2.895,6.779,11.576,8.587,12.48c0.904-5.788,1.447-7.416,1.628-8.501
		c3.617,3.979,6.33,5.426,7.054,5.426c0-3.437-6.511-13.927-6.873-16.278c0.904-3.617,4.261-11.156,4.261-11.156l-0.012-0.005
		C74.211,99.272,74.86,63.072,74.86,63.072C86.857,49.567,88.725,27.923,80.768,19.058z"/>
</g>
<g id="Calque_1">
	<path fill="#FDC800" stroke="#8A8D8C" stroke-width="2" stroke-miterlimit="10" d="M59.86,47.072c0,0-0.784,43.891-34.969,28.697
		C-9.293,60.577,35.924,23.136,39.903,19.88c3.979-3.255,17.906-25.686,25.865-16.822C73.725,11.923,71.857,33.567,59.86,47.072z"/>
	<path fill="#F5E8D2" d="M56.522,8.253c0,0-33.099,23.969-7.054,33.735c11.033-0.362,13.927-10.493,15.374-21.163
		S60.866,4.726,56.522,8.253z"/>
	<path fill="#2EBDEE" d="M24.349,37.521c0,0-0.542,18.534,11.214,12.564c7.415-6.33-0.362-10.49-1.99-13.746
		c-1.627-3.255-2.94-6.924-2.043-8.365C32.427,26.533,25.615,32.916,24.349,37.521z"/>
	<path fill="#2EBDEE" d="M59.86,47.072c0,0-3.484,2.652-7.018,3.195s-15.652-3.411-12.215,3.811
		c3.436,7.222,15.259,5.739,17.725,3.972C60.884,56.235,58.721,48.416,59.86,47.072z"/>
	<path fill="#F5E8D2" stroke="#8A8D8C" stroke-width="2" stroke-miterlimit="10" d="M18.836,72.269c0,0-3.169,9.649-4.254,10.373
		S0.475,86.621,1.017,87.887s9.586,3.075,11.938,3.256c-3.979,5.787-5.969,12.48-5.788,13.203c0.181,0.724,9.594-5.606,11.67-7.777
		c2.257,2.895,6.779,11.576,8.587,12.48c0.904-5.788,1.447-7.416,1.628-8.501c3.617,3.979,6.33,5.426,7.054,5.426
		c0-3.437-6.511-13.927-6.873-16.278c0.904-3.617,4.261-11.156,4.261-11.156"/>
	<ellipse fill="#E61B76" cx="53.529" cy="19.587" rx="1.767" ry="3.148"/>
	<ellipse fill="#E61B76" cx="57.926" cy="24.691" rx="2.596" ry="3.283"/>
	<g>
		<path fill="#3B3937" d="M42.534,26.375c0,0,0.082,0.369,0.228,1.018c0.145,0.639,0.333,1.539,0.599,2.58
			c0.26,1.037,0.576,2.225,1.035,3.369c0.449,1.144,1.061,2.245,1.861,2.936c0.393,0.355,0.823,0.637,1.322,0.811
			c0.234,0.119,0.516,0.142,0.771,0.233c0.277,0.034,0.551,0.085,0.836,0.108c0.572,0.036,1.159,0.012,1.731-0.031
			c0.573-0.071,1.132-0.128,1.651-0.238c1.043-0.176,1.949-0.377,2.584-0.523c0.639-0.144,1.029-0.199,1.029-0.199
			s-0.26,0.282-0.757,0.73c-0.248,0.227-0.551,0.504-0.938,0.762c-0.378,0.274-0.806,0.595-1.324,0.864
			c-0.501,0.301-1.091,0.555-1.735,0.806c-0.658,0.219-1.382,0.413-2.184,0.49c-0.801,0.064-1.683,0.041-2.562-0.232
			c-0.889-0.226-1.735-0.736-2.43-1.35c-0.7-0.623-1.229-1.372-1.603-2.133c-0.394-0.757-0.636-1.531-0.797-2.273
			c-0.329-1.488-0.325-2.862-0.22-4.012c0.113-1.151,0.338-2.083,0.535-2.724C42.364,26.724,42.534,26.375,42.534,26.375z"/>
	</g>
</g>
</svg>
