<?xml version="1.0" encoding="utf-8"?>
<!-- Generator: Adobe Illustrator 16.0.0, SVG Export Plug-In . SVG Version: 6.00 Build 0)  -->
<!DOCTYPE svg PUBLIC "-//W3C//DTD SVG 1.1//EN" "http://www.w3.org/Graphics/SVG/1.1/DTD/svg11.dtd">
<svg version="1.1" id="Calque_1" xmlns="http://www.w3.org/2000/svg" xmlns:xlink="http://www.w3.org/1999/xlink" x="0px" y="0px"
	 width="178.561px" height="211.344px" viewBox="0 0 178.561 211.344" enable-background="new 0 0 178.561 211.344"
	 xml:space="preserve">
<g>
	<path fill="#FF007D" d="M30.299,163.592c-0.556-0.062-1.17-0.367-1.788-0.971c-1.391-0.074-4.264,0.229-10.513,2.458
		c-11.451,4.043-15.646,1.497-17.313-2.027c-1.563-3.304-0.225-5.676,1.786-6.63c1.876-0.889,4.249-0.492,5.122,1.292l-1.211,0.655
		c-0.525-1.108-2.122-1.383-3.455-0.751c-1.604,0.761-2.694,2.606-1.487,5.157c1.345,2.838,4.763,4.854,15.93,0.974
		c5.302-1.834,8.488-2.231,10.425-2.118c-0.236-0.322-0.47-0.699-0.681-1.145c-1.543-3.258-1.61-7.435-3.783-12.023
		s-6.914-5.191-10.259-3.607c-2.914,1.383-4.808,4.396-3.139,7.922c1.68,3.549,4.821,3.578,7.442,2.337
		c0.384-0.183,0.734-0.376,1.099-0.603l0.802,1.168c-0.386,0.236-0.759,0.44-1.144,0.622c-3.096,1.468-6.799,1.188-8.867-3.181
		c-2.079-4.391,0.032-7.997,3.354-9.571c3.796-1.8,9.242-0.934,11.804,4.478c2.268,4.789,2.243,9.47,3.555,12.24
		c0.325,0.688,0.603,1.153,0.837,1.478c1.152,0.213,1.697,0.661,1.955,0.974L30.299,163.592z"/>
	<path fill="#FF007D" d="M22.671,175.53c-1.675,0.542-3.046,0.5-4.065-0.228c-1.762,0.393-3.538,0.2-4.328-0.802
		c-1.748-2.214,1.418-4.903,5.52-6.61l0.313,0.721c1.665-0.877,3.609-1.037,4.674,0.311c1.61,2.041-1.913,5.044-5.441,6.145
		c0.815,0.388,1.745,0.435,3.252-0.037C22.67,175.125,22.82,175.477,22.671,175.53z M17.637,174.318
		c-1.17-1.766-0.229-3.603,1.31-4.881c-1.876,1.014-5.3,3.094-4.1,4.614C15.333,174.669,16.441,174.7,17.637,174.318z
		 M18.354,174.096c3.361-1.029,6.877-3.558,5.891-4.809C22.556,167.148,15.953,171.055,18.354,174.096z"/>
	<path fill="#FF007D" d="M38.659,177.341c-0.162-0.288-0.508-0.877-1.264-1.38c-2.33-1.548-5.236-0.718-6.884,1.762
		c-2.436,3.664-0.321,7.442,2.94,9.67c4.565-6.693,13.487-12.895,18.37-9.648c2.187,1.453,2.08,3.875,0.544,6.188
		c-2.894,4.354-10.896,8.373-18.109,4.777c-2.437,3.666-3.729,7.251-1.245,9.232c0.321-0.838,0.896-1.838,1.256-2.379
		c1.965-2.957,5.108-5.072,7.335-3.593c1.532,1.02,1.402,2.854,0.31,4.5c-1.509,2.271-4.855,4.159-8.11,2.808
		c-0.408,1.59-0.276,3.119,0.702,4.13c-0.316,0.21-0.641,0.476-0.956,0.686c-1.325-1.331-1.413-3.37-0.789-5.418
		c-3.138-2.325-2.507-6.291,0.297-10.643c-5.169-3.437-5.608-7.962-3.477-11.169c2.034-3.062,5.709-3.894,8.568-1.991
		c0.98,0.651,1.476,1.37,1.739,1.815L38.659,177.341z M35.341,195.854c-0.554,0.834-1.02,1.756-1.327,2.662
		c2.73,1.033,5.756-0.949,7.07-2.928c0.761-1.146,0.961-2.334,0.151-2.933C39.541,191.529,37.099,193.209,35.341,195.854z
		 M34.721,188.057c6.684,3.15,14.017-1.104,16.647-5.062c1.259-1.896,1.449-3.688,0.041-4.627
		C47.567,175.814,39.262,181.886,34.721,188.057z"/>
	<path fill="#FF007D" d="M44.797,198.479c0.009-0.022,0.004-0.078,0.021-0.125c0.169-0.443,0.697-1.42,1.2-2.189
		c2.628-4.43,6.511-11.535,8.721-13.688c0.72-0.717,1.49-0.744,2.019-0.543c0.597,0.228,0.798,0.731,0.514,1.479
		c-0.896,2.359-4.365,5.611-6.986,8.091l-0.912,1.364c1.644-1.701,3.812-3.471,5.051-2.998c0.596,0.227,0.914,0.908,0.541,1.891
		c-0.746,1.963-3.684,4.855-4.412,6.771c-0.257,0.678-0.144,1.068,0.178,1.189c0.688,0.262,2.479-1.41,4.509-3.712
		c0.139,0.052,0.333,0.367,0.315,0.414l-0.6,0.681c-1.801,2.043-3.817,3.896-5.087,3.438c-0.758-0.288-1.076-1.104-0.633-2.272
		c0.826-2.172,3.85-5.221,4.417-6.715c0.214-0.562,0.133-0.832-0.119-0.93c-0.826-0.312-3.765,2.098-6.219,5.79
		c-0.442,0.819-0.895,1.665-1.37,2.5L44.797,198.479z M56.387,182.701c-0.734-0.279-3.112,3.629-5.458,7.521
		c1.423-1.464,4.731-5.125,5.552-6.871C56.623,182.979,56.57,182.771,56.387,182.701z"/>
	<path fill="#FF007D" d="M62.032,197.913c0.117,0.032,0.377,0.289,0.356,0.36c-1.405,1.994-3.792,5.112-5.963,4.498
		c-1.817-0.516-2.022-2.496-1.417-4.639c0.926-3.271,3.742-6.919,6.008-6.277c0.897,0.254,1.169,1.006,0.924,1.873
		c-0.538,1.9-3.298,3.459-5.188,3.287c-0.207,0.461-0.383,0.905-0.513,1.362c-0.456,1.612-0.368,3.015,0.812,3.349
		C58.587,202.162,60.573,199.917,62.032,197.913z M57.001,196.411c2.249-0.377,3.622-1.808,3.94-2.938
		c0.164-0.578,0.08-0.912-0.227-1C59.701,192.186,58.035,194.286,57.001,196.411z"/>
	<path fill="#FF007D" d="M65.956,198.436c0.81-0.879,1.355-1.939,1.523-2.748c0.163-0.783,0.012-1.377-0.493-1.48
		c-1.345-0.28-3.309,3.016-3.885,5.779c-0.361,1.738-0.172,3.232,1.097,3.521c1.402,0.24,2.771-1.16,4.698-4.156
		c0.12,0.025,0.444,0.271,0.43,0.346l-0.357,0.513c-1.749,2.624-3.521,4.759-5.611,4.324c-1.656-0.345-1.958-2.271-1.499-4.474
		c0.688-3.305,3.146-7.16,5.378-6.695c1.129,0.234,1.414,1.392,1.14,2.713c-0.219,1.053-0.786,2.212-1.554,3.125L65.956,198.436z"/>
	<path fill="#FF007D" d="M68.022,205.609l0.223-1.008c0.221-1.512,0.845-3.107,1.011-3.795c1.223-4.957,2.842-10.953,4.174-13.236
		c0.476-0.832,1.129-1.221,1.691-1.166c0.78,0.076,1.076,0.582,1,1.379c-0.178,1.816-2.189,5.264-4.857,10.129l-0.224,0.781
		c1.268-2.389,2.549-4.147,3.77-4.028c0.732,0.071,1.001,0.601,0.932,1.321c-0.153,1.567-1.992,4.253-3.801,5.106
		c2.011,2.13,1.819,8.896,6.972,9.397c3.368,0.328,5.391-2.465,5.655-5.178c0.227-2.313-0.812-4.552-3.304-4.793
		c-1.611-0.158-2.934,0.769-3.685,2.654l-1.126-0.587c0.81-1.729,2.686-3.028,4.81-2.821c3.247,0.315,4.63,3.063,4.364,5.801
		c-0.301,3.086-2.694,6.145-6.844,5.74c-6.152-0.601-6.219-8.019-7.683-9.945c-0.225,0.029-0.449,0.058-0.645,0.039
		c-0.05-0.006-0.096-0.035-0.12-0.037c-0.048,0.246-0.124,0.516-0.197,0.76l-0.869,3.607L68.022,205.609z M74.583,196.201
		c0.03-0.323-0.071-0.535-0.34-0.561c-0.685-0.067-1.782,1.082-3.203,3.781l-0.394,0.992c0.221,0.021,0.459,0.095,0.671,0.191
		C72.693,199.911,74.472,197.346,74.583,196.201z M75.078,187.33c-0.758-0.073-2.012,4.201-3.234,8.654
		c0.904-1.695,3.109-6.104,3.422-8.059C75.306,187.527,75.249,187.348,75.078,187.33z"/>
	<path fill="#FF007D" d="M92.044,195.794c0.887-5.116,1.609-5.83,2.517-5.846c0.688-0.013,0.968,0.606,0.987,1.632
		c0.018,0.975-0.348,2.456-0.93,4.167l0.883-0.017l-0.132,0.804l-1.03,0.019c-0.49,1.358-1.126,2.795-1.763,4.207
		c-0.124,1.303-0.2,2.479-0.184,3.403c0.027,1.448,0.309,2.095,0.774,2.086c0.833-0.015,1.755-1.933,2.897-5.151
		c0.123-0.003,0.419,0.116,0.422,0.241l0.001,0.05c-1.397,4.026-2.368,5.943-3.718,5.969c-1.128,0.021-1.475-1.523-1.521-3.998
		c0.016-1.801,0.245-4.055,0.64-6.562c-0.001-0.074,0.022-0.126,0.021-0.201l-0.933,0.019l0.132-0.804L92.044,195.794z
		 M93.751,196.562l-0.613,0.012l-0.322,2.506L93.751,196.562z M94.579,190.896c-0.467,0.01-0.875,1.816-1.333,4.875l0.784-0.015
		c0.535-1.608,0.925-3.116,0.904-4.241C94.927,191.143,94.874,190.893,94.579,190.896z"/>
	<path fill="#FF007D" d="M95.798,207.204c-0.001-0.024-0.029-0.073-0.032-0.124c-0.029-0.475,0.051-1.58,0.192-2.49
		c0.571-5.117,1.184-13.193,2.311-16.066c0.36-0.948,1.052-1.291,1.615-1.326c0.637-0.038,1.028,0.338,1.077,1.137
		c0.154,2.52-1.666,6.913-3.035,10.252l-0.271,1.619c0.799-2.229,2.047-4.732,3.368-4.812c0.638-0.039,1.207,0.451,1.271,1.5
		c0.128,2.096-1.357,5.941-1.232,7.987c0.045,0.724,0.311,1.033,0.652,1.013c0.734-0.045,1.678-2.307,2.58-5.24
		c0.146-0.01,0.454,0.197,0.457,0.246l-0.267,0.869c-0.8,2.603-1.875,5.121-3.221,5.229c-0.808,0.049-1.436-0.562-1.512-1.811
		c-0.143-2.32,1.356-6.345,1.26-7.94c-0.036-0.599-0.222-0.812-0.491-0.796c-0.882,0.054-2.564,3.462-3.28,7.838
		c-0.066,0.931-0.132,1.886-0.221,2.843L95.798,207.204z M99.863,188.05c-0.782,0.048-1.342,4.589-1.877,9.104
		c0.694-1.922,2.201-6.62,2.23-8.551C100.192,188.205,100.059,188.037,99.863,188.05z"/>
	<path fill="#FF007D" d="M118.016,191.962c3.522-0.649,5.628,1.427,6.092,3.935c0.531,2.877-1.065,6.375-5.168,7.133
		c-2.194,0.404-3.849-0.307-5.064-1.354l0.611-0.876c1.269,1.189,2.631,1.675,4.318,1.363c3.377-0.624,4.608-3.546,4.153-6.004
		c-0.4-2.163-2.104-3.958-4.807-3.459c-6.489,1.198-4.558,12.993-9.552,13.915c-1.833,0.339-2.917-1.342-3.322-3.53
		c-0.617-3.343,0.317-7.862,2.609-8.286c0.94-0.174,1.517,0.381,1.681,1.266c0.236,1.278-0.469,3.266-2.318,4.726
		c-0.282,0.229-0.549,0.406-0.921,0.552c0.018,0.633,0.077,1.231,0.183,1.797c0.313,1.695,1.018,2.938,2.199,2.721
		C111.919,205.266,110.779,193.299,118.016,191.962z M106.302,200.659c1.837-1.534,2.406-3.444,2.233-4.378
		c-0.072-0.395-0.291-0.633-0.581-0.579C106.917,195.895,106.333,198.264,106.302,200.659z"/>
	<path fill="#FF007D" d="M140.757,193.062c-0.615,0.306-1.22,0.354-1.793,0.193c0.223,2.653-0.04,4.989-1.028,5.48
		c-0.812,0.404-1.664-0.372-2.376-1.805c-0.134-0.27-0.256-0.57-0.379-0.873c0.254,2.219,0.01,4.043-0.802,4.447
		c-0.944,0.471-1.71-0.572-2.544-2.252c-0.924-2.081-1.767-5.208-2.597-8.146l1.163-0.578c1.043,3.697,2.087,7.449,2.889,9.062
		c0.3,0.604,0.555,0.896,0.773,0.787c0.658-0.327,0.854-2.799,0.103-5.913c-0.537-1.576-1.03-3.341-1.502-5.061l1.143-0.568
		c1.009,3.52,2.007,7.126,2.841,8.805c0.367,0.739,0.723,1.121,1.007,0.979c0.55-0.272,0.594-2.445,0.271-4.91
		c-0.685-0.496-1.272-1.293-1.806-2.367c-1.357-2.731-1.522-4.827-0.622-5.274c0.613-0.307,1.267,0.123,1.777,1.154
		c0.802,1.61,1.387,4.111,1.642,6.441c0.551,0.229,1.102,0.232,1.693-0.062c0.221-0.108,0.417-0.317,0.613-0.584
		c-1.357-3.01-1.579-7.256,0.441-8.261c0.725-0.36,1.332,0.035,1.722,0.818c0.768,1.545,0.653,4.952-0.943,7.086
		c0.855,1.501,1.786,2.603,2.906,2.045c1.427-0.71,1.391-3.707,1.123-6.171c0.132-0.065,0.528-0.04,0.551,0.005l0.061,0.892
		c0.188,2.42,0.348,5.551-1.496,6.469c-1.647,0.819-2.997-0.52-4.118-2.391C141.262,192.755,140.999,192.941,140.757,193.062z
		 M135.657,185.884c-0.353,0.175-0.212,1.78,0.935,4.086c0.355,0.716,0.778,1.399,1.188,1.839c-0.317-2.021-0.836-4.107-1.47-5.384
		C136.086,185.977,135.854,185.785,135.657,185.884z M142.144,190.947c1.155-2.305,0.978-4.926,0.465-5.954
		c-0.179-0.358-0.421-0.517-0.641-0.407C140.848,185.145,141.14,188.432,142.144,190.947z"/>
	<path fill="#FF007D" d="M154.035,181.641l0.016,0.021c0.525,1.736,0.366,3.307-0.445,4.305c0.422,1.725,0.317,3.282-0.716,4.072
		c-1.383,1.057-3.176-0.279-4.922-2.562c-2.794-3.656-5.464-9.734-6.17-12.721c-0.198-0.824,0.037-1.443,0.466-1.771
		c0.526-0.402,1.328-0.322,1.905,0.433c1.274,1.669,1.747,4.267,1.395,7.683l0.539,1.067c-0.058-0.963,0.229-1.842,0.987-2.423
		c1.325-1.014,3.044,0.064,4.411,1.854c0.789,1.033,1.475,2.334,1.883,3.596c0.52-0.773,0.638-1.871,0.164-3.461
		C153.645,181.655,153.958,181.542,154.035,181.641z M142.922,173.645c-0.429,0.326,0.618,3.271,2.188,6.539
		c0.054-2.273-0.331-4.594-1.605-6.262C143.278,173.623,143.079,173.523,142.922,173.645z M147.708,184.872
		c1.123,1.47,2.959,2.459,4.832,1.153c-0.438-1.178-1.127-2.443-1.901-3.457c-1.199-1.569-2.604-2.604-3.521-1.902
		C146.142,181.41,146.583,183.402,147.708,184.872z M152.74,186.689c-1.397,0.879-2.835,0.655-4.01-0.114
		c0.239,0.353,0.462,0.686,0.69,0.983c1.214,1.59,2.326,2.438,3.028,1.902C153.073,188.984,153.098,187.928,152.74,186.689z"/>
	<path fill="#FF007D" d="M160.76,180.21c0.518,0.472,1.224,0.55,1.702,0.022c0.61-0.67,0.264-1.85-0.624-2.656
		c-1.331-1.212-3.364-1.803-5.564-3.174c0.697,1.164,3.163,5.365,4.561,8.959l-0.482,0.158c-1.49-3.713-4.098-8.24-4.914-9.646
		c-0.473-0.298-0.949-0.665-1.671-1.322c-0.666-0.604-1.13-1.359-1.516-1.976l0.842-0.627c0.972,1.05,1.67,1.917,2.25,2.877
		c1.967,1.591,5.484,2.071,7.278,3.705c0.147,0.135,0.278,0.286,0.376,0.44c-0.302-0.97-0.786-2.107-1.456-3.414
		c0.082-0.092,0.427-0.209,0.48-0.158c0.919,1.963,2.982,5.564,1.116,7.615c-0.727,0.799-2.002,1.196-3.101,0.063L160.76,180.21z"/>
	<path fill="#FF007D" d="M156.378,167.143c-0.435-0.338-0.756-1.022-0.351-1.547c0.316-0.406,0.769-0.335,1.123-0.059
		c0.454,0.354,0.688,1.031,0.311,1.516C157.145,167.459,156.714,167.402,156.378,167.143z M159.038,167.999
		c2.536,2.968,4.871,5.748,6.488,7.007c0.593,0.46,0.931,0.475,1.08,0.28c0.468-0.601-0.416-2.437-2.243-5.381
		c0.075-0.097,0.37-0.272,0.47-0.195c1.938,3.125,3.346,5.308,2.382,6.547c-0.542,0.696-1.616,0.327-2.82-0.608
		c-1.992-1.551-4.459-4.65-6.153-6.623L159.038,167.999z"/>
	<path fill="#FF007D" d="M160.596,165.92c-3.674-3.67-3.842-4.672-3.333-5.424c0.385-0.569,1.054-0.443,1.903,0.132
		c0.807,0.546,1.809,1.697,2.873,3.158l0.495-0.731l0.579,0.57l-0.576,0.854c0.829,1.184,1.638,2.53,2.427,3.863
		c0.994,0.852,1.912,1.59,2.679,2.108c1.2,0.812,1.891,0.952,2.151,0.565c0.468-0.689-0.57-2.548-2.547-5.336
		c0.067-0.103,0.337-0.275,0.439-0.205l0.042,0.026c2.488,3.461,3.498,5.358,2.742,6.478c-0.633,0.936-2.096,0.33-4.146-1.057
		c-1.464-1.049-3.177-2.533-4.999-4.3c-0.062-0.042-0.09-0.091-0.151-0.133l-0.522,0.771l-0.579-0.569L160.596,165.92z
		 M158.05,161.027c-0.262,0.387,0.982,1.761,3.22,3.896l0.439-0.65c-1.009-1.362-2.019-2.549-2.949-3.18
		C158.45,160.884,158.215,160.784,158.05,161.027z M162.208,164.966l-0.345,0.509l1.864,1.705L162.208,164.966z"/>
	<path fill="#FF007D" d="M168.296,149.275c1.471-3.266,4.377-3.812,6.702-2.766c2.667,1.202,4.633,4.51,2.921,8.312
		c-0.916,2.035-2.442,2.988-3.995,3.394l-0.372-1.002c1.7-0.364,2.875-1.207,3.579-2.772c1.41-3.133-0.291-5.81-2.57-6.836
		c-2.007-0.903-4.452-0.525-5.58,1.979c-2.709,6.019,8.087,11.149,6.002,15.78c-0.766,1.699-2.765,1.634-4.793,0.72
		c-3.101-1.396-6.284-4.741-5.327-6.866c0.394-0.871,1.178-1.029,1.997-0.66c1.187,0.533,2.417,2.246,2.563,4.6
		c0.029,0.361,0.021,0.682-0.07,1.07c0.529,0.347,1.058,0.638,1.581,0.873c1.572,0.709,2.995,0.838,3.488-0.258
		C175.762,161.868,165.276,155.986,168.296,149.275z M168.778,163.861c-0.216-2.385-1.462-3.941-2.327-4.331
		c-0.364-0.164-0.687-0.121-0.808,0.146C165.21,160.641,166.826,162.471,168.778,163.861z"/>
</g>
<g id="Goutte">
	<g>
		<path fill="#231F20" d="M95.507,0c11.137,39.477,26.445,53.465,45.711,91.664c18.7,37.078-9.01,74.334-45.711,74.334
			c-36.705,0-64.415-37.256-45.714-74.334C69.056,53.465,84.368,39.477,95.507,0z"/>
	</g>
	<g>
		<path fill="#F0E2C7" d="M75.169,84.281c-0.4-0.199-1.234-0.6-2.468-0.6c-3.802,0-6.469,3.067-6.469,7.035
			c0,5.867,5.234,8.502,10.603,8.568c0.134-10.803,5.567-24.271,13.537-24.271c3.566,0,5.268,2.767,5.268,6.467
			c0,6.969-6.035,17.338-16.904,18.672c0,5.867,1.234,10.802,5.535,11.168c-0.267-1.166-0.367-2.7-0.367-3.566
			c0-4.734,1.968-9.402,5.603-9.402c2.5,0,3.734,2.133,3.734,4.768c0,3.634-2.367,8.2-7.068,9.103
			c0.732,2.066,2.033,3.668,3.899,4.067c-0.198,0.467-0.365,1-0.565,1.467c-2.5-0.5-4.135-2.7-4.968-5.437
			c-5.302-0.266-7.568-5.133-7.668-12.034c-8.437,0-12.337-4.701-12.337-9.836c0-4.9,3.534-8.535,8.202-8.535
			c1.601,0,2.699,0.434,3.334,0.734L75.169,84.281z M78.77,99.085c9.936-1.434,15.036-11.569,15.036-17.903
			c0-3.035-1.133-5.168-3.434-5.168C84.105,76.014,79.27,88.883,78.77,99.085z M85.337,107.287c0,1.333,0.167,2.699,0.5,3.934
			c3.868-0.867,5.802-5.301,5.802-8.469c0-1.834-0.667-3.301-2.034-3.367C86.838,99.385,85.337,103.053,85.337,107.287z"/>
		<path fill="#F0E2C7" d="M101.974,96.551c0.166,0,0.566,0.167,0.566,0.334c-2,5.4-3.367,7.935-5.201,7.935
			c-1.533,0-1.967-2.067-1.967-5.368c0.065-2.4,0.434-5.4,1.032-8.734c1.435-8.035,3.436-12.57,5.136-12.57
			c1.032,0,1.301,1.067,1.301,2.435c0,4.768-2.9,11.436-5.603,15.437c-0.199,1.733-0.334,3.301-0.334,4.534
			c0,1.934,0.367,2.801,1.001,2.801C99.041,103.353,100.34,100.818,101.974,96.551z M101.607,79.414c-1.1,0-3.1,8.168-4.101,14.902
			c1.334-2.533,4.501-9.068,4.501-13.836C102.007,79.98,102.007,79.414,101.607,79.414z"/>
		<path fill="#F0E2C7" d="M105.174,89.383c-1.067,5.102-2.101,9.836-2.101,12.569c0,1,0.268,1.366,0.6,1.366
			c1.034,0,2.268-2.434,3.901-6.768c0.167,0,0.601,0.167,0.601,0.334c-1.734,4.601-2.9,7.867-5.035,7.867
			c-1.199,0-1.7-1.434-1.7-3.467c0-3.367,1.268-8.502,1.969-11.902L105.174,89.383L105.174,89.383z M103.875,85.882
			c0-0.733,0.467-1.634,1.367-1.634c0.698,0,1,0.533,1,1.134c0,0.767-0.534,1.567-1.367,1.567
			C104.174,86.949,103.875,86.449,103.875,85.882z"/>
		<path fill="#F0E2C7" d="M112.342,96.15c0.833-1.367,1.267-2.9,1.267-4c0-1.067-0.365-1.801-1.065-1.801
			c-1.867,0-3.567,4.834-3.567,8.602c0,2.367,0.667,4.268,2.435,4.301c1.935-0.066,3.367-2.267,5.101-6.701
			c0.168,0,0.668,0.233,0.668,0.334l-0.334,0.767c-1.6,3.9-3.367,7.168-6.268,7.168c-2.302,0-3.234-2.435-3.234-5.435
			c0-4.501,2.201-10.202,5.301-10.202c1.567,0,2.269,1.434,2.269,3.233c0,1.434-0.435,3.102-1.2,4.502L112.342,96.15z"/>
		<path fill="#F0E2C7" d="M115.208,104.586l0.134-1.233c0.101-1.9,0.7-3.968,0.833-4.734c1.067-6.935,2.468-15.704,4.068-18.871
			c0.5-1.167,1.467-1.467,2.134-1.467c0.898,0,1.434,0.5,1.434,1.601c0,2.5-2.4,7.602-5.001,13.103l-0.434,2.034
			c1.399-3.334,2.899-5.835,4.566-5.835c1.001,0,1.435,0.667,1.435,1.634c0,2.167-2.268,6.135-4.667,7.401
			c1.065,1.534,1.1,5.001,2.065,5.001c0.967,0,2.636-2.834,4.103-6.668c0.199,0,0.6,0.334,0.6,0.367
			c-0.1,0.333-0.232,0.666-0.367,0.967c-1.366,3.467-2.967,6.867-4.733,6.867c-2.233,0-2.2-4.434-2.935-6.101
			c-0.133,0-0.267,0.033-0.399,0.033c-0.101,0-0.199-0.033-0.267-0.033l-0.866,5.935L115.208,104.586L115.208,104.586z
			 M118.244,96.484l-0.168,0.867c0.301,0,0.601,0.033,0.866,0.199c1.769-1.066,3.9-4.768,3.9-6.301c0-0.4-0.133-0.667-0.466-0.7
			C121.41,90.55,120.01,92.65,118.244,96.484z M122.343,79.414c-1.033,0-2.133,5.234-3.2,11.303
			c1.001-2.367,3.368-7.902,3.534-10.536C122.677,79.647,122.578,79.414,122.343,79.414z"/>
		<path fill="#F0E2C7" d="M75.402,144.594c0-0.033-0.032-0.1-0.032-0.166c0-0.635,0.199-2.102,0.467-3.301
			c1.2-6.77,2.701-17.471,4.468-21.205c0.567-1.234,1.534-1.634,2.3-1.634c0.867,0,1.367,0.534,1.367,1.601
			c0,3.367-2.834,9.068-4.967,13.402l-0.5,2.135c1.266-2.9,3.166-6.135,4.967-6.135c0.867,0,1.601,0.699,1.601,2.1
			c0,2.801-2.334,7.803-2.334,10.536c0,0.968,0.333,1.399,0.801,1.399c1.001,0,2.468-2.934,3.935-6.768
			c0.2,0,0.602,0.301,0.602,0.366l-0.435,1.134c-1.301,3.4-2.967,6.668-4.801,6.7c-1.102,0-1.9-0.866-1.9-2.532
			c0-3.102,2.367-8.336,2.367-10.47c0-0.801-0.234-1.101-0.601-1.101c-1.2,0-3.769,4.4-5.102,10.169
			c-0.167,1.233-0.334,2.5-0.533,3.768L75.402,144.594L75.402,144.594z M82.503,119.422c-1.066,0-2.2,6.001-3.301,11.969
			c1.101-2.5,3.533-8.635,3.733-11.201C82.937,119.655,82.771,119.422,82.503,119.422z"/>
		<path fill="#F0E2C7" d="M96.306,136.559c0.167,0,0.602,0.233,0.602,0.334c-1.102,3.066-3.067,7.936-6.136,7.936
			c-2.566,0-3.566-2.469-3.566-5.436c0-4.533,2.334-10.234,5.533-10.234c1.268,0,1.9,0.865,1.9,2.066
			c0,2.633-3.034,5.635-5.567,6.103c-0.1,0.666-0.167,1.3-0.167,1.934c0,2.233,0.635,4,2.302,4
			C93.373,143.26,95.14,139.659,96.306,136.559z M89.171,136.459c2.801-1.301,4.067-3.635,4.067-5.201
			c0-0.801-0.233-1.201-0.668-1.201C91.138,130.057,89.738,133.357,89.171,136.459z"/>
		<path fill="#F0E2C7" d="M100.307,143.293c0.935,0,2.2-2.4,3.867-6.734c0.134,0,0.601,0.168,0.601,0.334
			c-1.768,4.602-2.899,7.867-5.035,7.867c-1.231,0-1.767-0.833-1.767-2.199c0-2.268,1.567-4.701,1.567-6.803
			c0-1.6-0.701-2.633-1.168-3.732c-0.434,1.732-0.968,3.5-1.468,4.867c0,0-0.6-0.101-0.6-0.334c0.6-1.732,1.134-3.834,1.5-5.834
			c-0.232-0.5-0.333-1.168-0.333-2.033c0-1.2,0.233-2.567,0.601-3.936l1.566,0.434c-0.033,1.769-0.3,3.201-0.6,4.668l-0.201,0.666
			c0.834,1.302,2.367,2.701,2.367,4.937c0,2.467-1.566,5.168-1.566,6.899C99.64,142.993,99.907,143.293,100.307,143.293z"/>
		<path fill="#F0E2C7" d="M113.009,136.559c0.167,0,0.601,0.233,0.601,0.334c-1.101,3.066-3.066,7.936-6.135,7.936
			c-2.566,0-3.566-2.469-3.566-5.436c0-4.533,2.334-10.234,5.533-10.234c1.268,0,1.9,0.865,1.9,2.066
			c0,2.633-3.034,5.635-5.567,6.103c-0.1,0.666-0.167,1.3-0.167,1.934c0,2.233,0.635,4,2.302,4
			C110.076,143.26,111.843,139.659,113.009,136.559z M105.875,136.459c2.801-1.301,4.067-3.635,4.067-5.201
			c0-0.801-0.233-1.201-0.668-1.201C107.841,130.057,106.441,133.357,105.875,136.459z"/>
	</g>
</g>
</svg>
