<?xml version="1.0" encoding="utf-8"?>
<!-- Generator: Adobe Illustrator 16.0.0, SVG Export Plug-In . SVG Version: 6.00 Build 0)  -->
<svg version="1.2" baseProfile="tiny" xmlns="http://www.w3.org/2000/svg" xmlns:xlink="http://www.w3.org/1999/xlink" x="0px"
	 y="0px" width="96.165px" height="57.848px" viewBox="-0.341 9.086 96.165 57.848" xml:space="preserve">
<g id="Calque_4" display="none">
	<rect x="0.05" y="-0.396" display="inline" fill="#EA0F0F" width="95.589" height="75.511"/>
</g>
<g id="Calque_1">
	<path fill="#111111" d="M39.064,26.696c-1.516,3.306-2.505,6.92-2.792,10.748c-0.221,2.877-2.705,6.277-6.925,6.277
		c-0.04,0-0.083-0.002-0.124-0.002c-3.379-0.052-6.706-3.202-6.522-6.945l-7.945-0.393c-0.213,2.423,0.165,4.93,1.24,7.296
		c2.449,5.401,7.785,8.597,13.361,8.597c2.02,0,4.069-0.418,6.026-1.305c7.354-3.331,10.629-12.029,7.295-19.385
		C41.801,29.658,40.549,28.019,39.064,26.696"/>
	<path fill="#111111" d="M-0.304,35.641c-0.81,16.428,11.893,30.448,28.318,31.258c0.518,0.023,1.03,0.035,1.539,0.035
		c9.851,0,18.079-4.735,23.456-12.333c-2.236-1.862-4.112-4.219-5.442-7c-2.087,3.829-5.369,7.052-9.64,8.988
		c-2.778,1.261-5.692,1.853-8.561,1.853c-7.924,0-15.511-4.543-18.989-12.22"/>
	<path fill="#111111" d="M66.317,24.005c-2.019,0-4.065,0.419-6.024,1.306C52.939,28.647,49.664,37.338,53,44.695
		c0.782,1.724,1.857,3.21,3.14,4.452c1.482-3.227,2.566-6.77,3.135-10.566c0.233-1.561,1.186-6.614,7-6.631h0.02
		c3.736,0,6.732,3.568,6.549,7.297l8.103,0.4c0.166-2.34-0.23-4.754-1.27-7.042C77.23,27.203,71.892,24.005,66.317,24.005"/>
	<path fill="#111111" d="M66.045,9.086c-9.762,0-18.391,4.79-23.837,12.217c2.442,1.916,4.478,4.407,5.893,7.381
		c2.091-3.832,5.377-7.052,9.646-8.99c2.778-1.262,5.693-1.854,8.561-1.854c7.926,0,15.513,4.547,18.99,12.222
		c1.454,3.208,2.017,6.596,1.802,9.888l8.754,0.435c0.804-16.428-11.897-30.45-28.323-31.261
		C67.032,9.098,66.538,9.086,66.045,9.086"/>
</g>
<g id="Calque_2" display="none">
	<path display="inline" fill="#111111" d="M51.543,56.602h-15.51h-1.887l1.059-1.561l8.26-12.176l6.637-9.783H36.034h-1v-1V19.909
		v-1h1h17.107C46.616,7.608,34.417,0,20.432,0v28.112c5.324,0,9.643,4.318,9.643,9.643c0,5.326-4.318,9.643-9.643,9.643V75.51
		c13.984,0,26.186-7.609,32.709-18.908H51.543z"/>
	<polygon display="inline" fill="#111111" points="75.159,19.909 36.034,19.909 36.034,32.083 51.989,32.083 44.293,43.426 
		36.034,55.602 51.543,55.602 75.159,55.602 75.159,43.426 59.6,43.426 	"/>
</g>
<g id="Calque_3" display="none">
	<g display="inline">
		<path fill="none" d="M63.076,48.435l-0.695,0.499l-0.561-0.745l0.632-0.455c0.081-0.058,0.108-0.142,0.038-0.231
			c-0.064-0.089-0.152-0.089-0.239-0.028l-0.63,0.455l-0.562-0.744l0.696-0.502c0.081-0.061,0.108-0.144,0.037-0.233
			c-0.063-0.089-0.152-0.087-0.235-0.028l-0.828,0.597c-0.107,0.076-0.103,0.176-0.038,0.264l1.484,1.968
			c0.063,0.088,0.162,0.121,0.269,0.043l0.825-0.598c0.084-0.058,0.111-0.142,0.044-0.231
			C63.246,48.375,63.155,48.376,63.076,48.435z"/>
		<path fill="none" d="M63.58,44.96l-0.565,0.407c-0.106,0.079-0.103,0.176-0.037,0.263l1.484,1.972
			c0.064,0.087,0.162,0.118,0.267,0.042l0.604-0.437c0.623-0.447,0.639-1.185,0.126-1.866C65.007,44.742,64.27,44.461,63.58,44.96z
			 M65.093,47.007l-0.411,0.299l-1.35-1.79l0.392-0.284c0.546-0.396,1.079-0.139,1.429,0.331
			C65.499,46.025,65.633,46.616,65.093,47.007z"/>
		<path fill="none" d="M67.399,45.313l-0.693,0.499l-0.559-0.743l0.63-0.455c0.084-0.059,0.11-0.143,0.04-0.233
			c-0.067-0.089-0.156-0.087-0.24-0.028l-0.628,0.455l-0.562-0.744l0.694-0.501c0.08-0.061,0.107-0.143,0.039-0.231
			c-0.066-0.089-0.155-0.089-0.239-0.031l-0.824,0.598c-0.108,0.079-0.103,0.176-0.039,0.267l1.482,1.969
			c0.067,0.083,0.161,0.12,0.269,0.041l0.829-0.594c0.08-0.059,0.107-0.146,0.04-0.235C67.573,45.252,67.481,45.254,67.399,45.313z"
			/>
		<path fill="none" d="M69.186,42.022c-0.299-0.396-0.828-0.511-1.294-0.173l-0.568,0.41c-0.106,0.077-0.101,0.178-0.036,0.267
			l1.501,1.992c0.065,0.091,0.166,0.109,0.257,0.047c0.087-0.065,0.101-0.164,0.029-0.255l-0.543-0.718l0.444-0.322
			C69.398,42.96,69.484,42.418,69.186,42.022z M68.35,43.346l-0.711-0.941l0.412-0.295c0.36-0.261,0.678-0.106,0.847,0.118
			c0.194,0.258,0.159,0.605-0.126,0.811L68.35,43.346z"/>
		<path fill="none" d="M61.589,49.25c-0.121,0.091-0.121,0.406-0.473,0.655c-0.493,0.356-1.071,0.035-1.402-0.399
			c-0.328-0.434-0.476-1.068,0.04-1.439c0.358-0.259,0.593-0.081,0.725-0.177c0.072-0.052,0.072-0.145,0.016-0.221
			c-0.086-0.113-0.511-0.142-0.922,0.155c-0.691,0.497-0.61,1.311-0.164,1.906c0.442,0.589,1.218,0.904,1.89,0.42
			c0.409-0.295,0.608-0.705,0.5-0.85C61.74,49.221,61.654,49.201,61.589,49.25z"/>
		<path fill="none" d="M72.803,39.925l-0.005-0.006c0.145-0.195,0.133-0.484-0.055-0.731c-0.193-0.261-0.624-0.39-1.035-0.092
			L71.2,39.462c-0.104,0.079-0.103,0.179-0.034,0.266l1.48,1.97c0.068,0.085,0.161,0.12,0.27,0.041l0.551-0.397
			c0.49-0.355,0.53-0.858,0.261-1.216C73.502,39.825,73.104,39.751,72.803,39.925z M71.516,39.606l0.341-0.242
			c0.252-0.184,0.482-0.123,0.639,0.083c0.157,0.208,0.135,0.468-0.109,0.645l-0.324,0.237L71.516,39.606z M73.271,41.107
			l-0.404,0.292l-0.634-0.842l0.422-0.303c0.299-0.216,0.61-0.155,0.784,0.079C73.63,40.585,73.553,40.902,73.271,41.107z"/>
		<path fill="none" d="M70.77,39.978c-0.072-0.095-0.17-0.111-0.262-0.048c-0.085,0.063-0.099,0.161-0.027,0.253l1.018,1.354
			c0.27,0.357,0.183,0.747-0.185,1.01c-0.367,0.264-0.773,0.231-1.045-0.123l-1.02-1.354c-0.068-0.091-0.166-0.109-0.254-0.047
			c-0.089,0.063-0.101,0.159-0.03,0.253l0.938,1.244c0.575,0.766,1.193,0.558,1.592,0.271c0.397-0.287,0.785-0.805,0.21-1.574
			L70.77,39.978z"/>
		<path fill="none" d="M55.276,52.454l-0.484,0.35c-0.084,0.058-0.111,0.143-0.043,0.232c0.07,0.089,0.154,0.089,0.241,0.028
			l0.406-0.29l0.096,0.135c0.232,0.309,0.3,0.842-0.152,1.169c-0.543,0.39-1.11,0.057-1.436-0.375
			c-0.326-0.437-0.479-1.068,0.043-1.444c0.423-0.305,0.731-0.132,0.877-0.234c0.079-0.061,0.089-0.16,0.031-0.234
			c-0.088-0.121-0.593-0.134-1.07,0.212c-0.725,0.525-0.634,1.33-0.19,1.923c0.447,0.592,1.225,0.905,1.891,0.422
			c0.79-0.569,0.587-1.259,0.172-1.808C55.522,52.359,55.421,52.347,55.276,52.454z"/>
		<path fill="none" d="M51.309,56.924l-0.614,0.443l-1.42-1.886c-0.069-0.092-0.166-0.109-0.255-0.045s-0.1,0.159-0.032,0.253
			l1.501,1.99c0.067,0.086,0.163,0.124,0.272,0.045l0.746-0.539c0.081-0.059,0.111-0.144,0.04-0.232
			C51.482,56.864,51.388,56.864,51.309,56.924z"/>
		<path fill="none" d="M50.825,55.23c0.091-0.065,0.089-0.156,0.029-0.234l-0.327-0.435c-0.06-0.081-0.146-0.107-0.237-0.042
			c-0.092,0.065-0.092,0.156-0.033,0.235l0.329,0.437C50.647,55.269,50.734,55.295,50.825,55.23z"/>
		<path fill="none" d="M54.098,54.946l-2.14-1.363c-0.112-0.074-0.226-0.103-0.338-0.023c-0.109,0.078-0.113,0.195-0.073,0.32
			l0.694,2.403c0.014,0.034,0.038,0.132,0.067,0.171c0.058,0.071,0.153,0.071,0.226,0.018c0.079-0.054,0.086-0.128,0.062-0.208
			l-0.158-0.515l1.078-0.779l0.46,0.3c0.067,0.045,0.141,0.061,0.22,0.006c0.075-0.056,0.103-0.145,0.046-0.219
			C54.216,55.02,54.132,54.966,54.098,54.946z M52.346,55.441l-0.48-1.554l0.005-0.005l1.375,0.907L52.346,55.441z"/>
		<path fill="none" d="M57.501,52.454l-0.691,0.5l-0.559-0.744l0.629-0.457c0.084-0.057,0.11-0.141,0.04-0.231
			c-0.066-0.089-0.155-0.089-0.239-0.03l-0.633,0.454l-0.559-0.741l0.695-0.502c0.082-0.059,0.107-0.142,0.039-0.232
			c-0.066-0.091-0.155-0.091-0.239-0.03l-0.828,0.599c-0.107,0.076-0.103,0.175-0.035,0.262l1.481,1.97
			c0.068,0.088,0.164,0.121,0.269,0.044l0.829-0.598c0.081-0.061,0.107-0.142,0.04-0.23C57.674,52.393,57.585,52.395,57.501,52.454z
			"/>
		<path fill="none" d="M58.357,48.932c-0.071-0.096-0.167-0.111-0.256-0.047c-0.089,0.062-0.1,0.16-0.031,0.251l1.244,1.65
			l-0.008,0.007l-2.421-0.807c-0.164-0.055-0.228-0.061-0.314,0c-0.091,0.066-0.088,0.148-0.004,0.261l1.505,1.997
			c0.07,0.093,0.166,0.112,0.258,0.046c0.086-0.061,0.1-0.158,0.029-0.254l-1.242-1.648l0.006-0.006l2.423,0.806
			c0.161,0.055,0.229,0.062,0.315,0c0.089-0.066,0.089-0.147,0.004-0.262L58.357,48.932z"/>
		<path fill="none" d="M75.22,39.67l-0.61,0.441l-1.421-1.881c-0.068-0.096-0.169-0.111-0.258-0.049
			c-0.085,0.063-0.099,0.16-0.029,0.254l1.501,1.992c0.063,0.084,0.161,0.121,0.269,0.042l0.748-0.54
			c0.083-0.058,0.109-0.141,0.041-0.231C75.392,39.61,75.303,39.612,75.22,39.67z"/>
		<path fill="none" d="M58.777,29.899c0.762-0.553,0.895-1.626,0.33-2.373c-0.523-0.695-1.635-0.845-2.362-0.315
			s-0.896,1.625-0.383,2.304C56.913,30.243,58.044,30.423,58.777,29.899z"/>
		<path fill="none" d="M58.585,32.264l6.104,8.087c0.637,0.843,1.596,1.021,2.346,0.479c0.747-0.542,0.857-1.492,0.218-2.334
			l-6.102-8.086c-0.026-0.04-0.06-0.074-0.087-0.107l-2.554,1.849C58.532,32.189,58.556,32.227,58.585,32.264z"/>
		<path fill="none" d="M63.698,31.671l4.741,0.705l-0.717,4.619l0,0c-0.134,0.863,0.474,1.667,1.356,1.797
			c0.44,0.064,0.865-0.051,1.196-0.291c0.334-0.242,0.57-0.605,0.637-1.037l0.675-4.341l0.293-1.883h-0.002
			c0.103-0.84-0.486-1.61-1.339-1.746v-0.002l-0.048-0.006l0,0h-0.004l-1.855-0.276l-4.453-0.663
			c-0.44-0.065-0.865,0.052-1.199,0.291c-0.331,0.24-0.569,0.604-0.638,1.038C62.212,30.739,62.819,31.542,63.698,31.671z"/>
		<path fill="none" d="M70.893,28.634c0.003,0,0.009,0.002,0.011,0.002c0.474,0.078,0.891,0.287,1.216,0.589l0.82-5.444
			l-3.192-0.456l-0.756,5.027l1.856,0.276L70.893,28.634z"/>
		<path fill="none" d="M61.63,44.542l2.61-1.885l-9.119-12.084c-0.642-0.851-1.616-1.025-2.381-0.479
			c-0.759,0.554-0.873,1.511-0.229,2.361L61.63,44.542z"/>
		<path fill="none" d="M57.061,48.034c0.956-0.694,2.121-1.846,2.767-2.672l0.057-0.091c0.393-0.604,0.291-1.256-0.242-1.632
			c-0.554-0.396-1.256-0.267-1.718,0.345h-0.006c-0.46,0.644-1.145,1.337-1.879,1.866c-1.777,1.287-3.308,1.075-4.617-0.698
			l5.949-4.304c-0.241-0.438-0.507-0.828-0.749-1.149c-1.756-2.326-4.404-3.306-7.205-1.278c-2.88,2.081-2.907,5.372-0.736,8.245
			C51.18,49.974,54.011,50.241,57.061,48.034z M50.681,40.25c1.047-0.753,2.229-0.528,3.074,0.675l-3.533,2.555
			C49.5,42.249,49.66,40.994,50.681,40.25z"/>
		<path fill="none" d="M72.831,31.139c0,0.008-0.004,0.014-0.004,0.021l-0.295,1.882l5.079,0.773l0.481-3.116l-5.487-0.84
			C72.798,30.241,72.886,30.683,72.831,31.139z"/>
		<path fill="none" d="M74.459,37.312c-0.07-0.093-0.17-0.112-0.256-0.047c-0.089,0.065-0.103,0.159-0.032,0.255l1.517,2.014
			c0.073,0.095,0.17,0.109,0.261,0.046c0.087-0.062,0.101-0.159,0.027-0.255L74.459,37.312z"/>
		<path fill="none" d="M40.883,44.912l-0.969,0.701c-0.638,0.461-0.761,1.16-0.352,1.705c0.411,0.546,1.127,0.627,1.764,0.165
			l0.968-0.699l4.798,6.359c0.604,0.8,1.517,0.963,2.234,0.447c0.713-0.519,0.823-1.421,0.221-2.221l0,0L44.75,45.01l1.415-1.021
			v-0.005c0.62-0.458,0.748-1.148,0.342-1.688c-0.409-0.539-1.12-0.629-1.753-0.182l-0.001-0.002l-1.414,1.023l-0.17-0.224
			c-0.942-1.248-0.874-2.146,0.208-2.927c0.367-0.267,0.838-0.549,1.326-0.696l-1.324-2.11c-0.59,0.249-1.157,0.601-1.681,0.979
			c-2.627,1.897-2.885,4.014-0.956,6.569L40.883,44.912z"/>
		<path fill="none" d="M77.686,37.635c-0.12,0.087-0.118,0.399-0.469,0.655c-0.491,0.355-1.075,0.031-1.403-0.4
			c-0.324-0.437-0.475-1.068,0.041-1.442c0.36-0.258,0.594-0.081,0.724-0.176c0.072-0.053,0.072-0.146,0.016-0.219
			c-0.086-0.115-0.511-0.144-0.922,0.152c-0.689,0.497-0.61,1.314-0.164,1.906c0.445,0.59,1.218,0.908,1.89,0.421
			c0.409-0.292,0.608-0.705,0.501-0.848C77.84,37.601,77.755,37.585,77.686,37.635z"/>
		<path fill="none" d="M77.062,35.432c-0.067-0.092-0.167-0.111-0.256-0.045c-0.089,0.063-0.098,0.161-0.029,0.253l1.52,2.015
			c0.067,0.094,0.166,0.112,0.255,0.047c0.089-0.061,0.101-0.161,0.03-0.253L77.062,35.432z"/>
		<path fill="none" d="M78.913,34.137l1.481,1.969c0.067,0.084,0.16,0.121,0.27,0.043l0.828-0.598c0.08-0.059,0.11-0.144,0.04-0.232
			c-0.067-0.09-0.156-0.09-0.24-0.029l-0.693,0.501l-0.56-0.746l0.63-0.454c0.083-0.061,0.106-0.144,0.043-0.232
			c-0.07-0.093-0.159-0.088-0.241-0.032l-0.63,0.457l-0.563-0.746l0.695-0.498c0.082-0.06,0.109-0.144,0.039-0.233
			c-0.066-0.088-0.155-0.088-0.239-0.029l-0.825,0.596C78.839,33.95,78.847,34.05,78.913,34.137z"/>
		<path fill="none" d="M78.958,33.592c0.029-0.021,0.051-0.047,0.091-0.109l0.262-0.42c0.063-0.102,0.053-0.162,0.025-0.202
			c-0.037-0.047-0.142-0.105-0.226-0.043c-0.026,0.021-0.051,0.045-0.088,0.108l-0.262,0.422c-0.063,0.101-0.056,0.16-0.026,0.199
			C78.77,33.595,78.875,33.655,78.958,33.592z"/>
		<path fill="none" d="M77.258,35.293c0.07,0.09,0.159,0.09,0.239,0.027l0.436-0.312l1.417,1.881c0.07,0.093,0.17,0.11,0.258,0.048
			c0.087-0.062,0.101-0.161,0.03-0.253l-1.417-1.882l0.433-0.313c0.084-0.061,0.11-0.145,0.044-0.233
			c-0.068-0.088-0.16-0.088-0.239-0.028l-1.157,0.833C77.221,35.119,77.195,35.204,77.258,35.293z"/>
		<path fill="#111111" d="M72.496,39.444c-0.156-0.203-0.387-0.264-0.639-0.08l-0.341,0.242l0.546,0.719l0.324-0.233
			C72.63,39.915,72.655,39.651,72.496,39.444z"/>
		<path fill="#111111" d="M53.755,40.925c-0.846-1.203-2.03-1.428-3.074-0.675c-1.021,0.743-1.18,1.996-0.459,3.229L53.755,40.925z"
			/>
		<path fill="#111111" d="M68.898,42.228c-0.169-0.225-0.486-0.382-0.847-0.118l-0.412,0.295l0.711,0.941l0.425-0.308
			C69.057,42.833,69.092,42.489,68.898,42.228z"/>
		<polygon fill="#111111" points="51.866,53.887 52.346,55.441 53.246,54.79 51.871,53.882 		"/>
		<path fill="#111111" d="M63.721,45.234l-0.389,0.282l1.346,1.792l0.412-0.298c0.543-0.393,0.408-0.98,0.062-1.444
			C64.803,45.093,64.27,44.835,63.721,45.234z"/>
		<path fill="#111111" d="M72.655,40.254l-0.422,0.303l0.634,0.842l0.404-0.292c0.282-0.205,0.359-0.521,0.168-0.773
			C73.265,40.099,72.954,40.039,72.655,40.254z"/>
		<path fill="#111111" d="M47.388,72.435l48.436-34.966l-21.07-28.09H0.007L47.388,72.435z M51.504,57.186l-0.748,0.539
			c-0.106,0.079-0.204,0.041-0.268-0.045l-1.501-1.99c-0.07-0.094-0.059-0.188,0.03-0.253s0.188-0.047,0.257,0.045l1.418,1.886
			l0.613-0.443c0.082-0.061,0.171-0.061,0.241,0.029C51.616,57.042,51.588,57.127,51.504,57.186z M50.292,54.519
			c0.088-0.065,0.175-0.039,0.236,0.042l0.328,0.435c0.059,0.081,0.062,0.169-0.032,0.234c-0.089,0.065-0.175,0.039-0.236-0.042
			l-0.327-0.434C50.198,54.675,50.198,54.584,50.292,54.519z M54.196,55.275c-0.079,0.059-0.152,0.039-0.22-0.003l-0.46-0.303
			l-1.078,0.779l0.158,0.519c0.024,0.079,0.018,0.15-0.062,0.204c-0.072,0.057-0.168,0.057-0.226-0.018
			c-0.029-0.039-0.054-0.134-0.067-0.168l-0.694-2.406c-0.04-0.123-0.036-0.242,0.073-0.32c0.112-0.079,0.226-0.051,0.338,0.026
			l2.14,1.36c0.032,0.021,0.118,0.074,0.144,0.112C54.301,55.13,54.271,55.219,54.196,55.275z M55.485,54.343
			c-0.666,0.483-1.443,0.171-1.891-0.421c-0.443-0.593-0.538-1.397,0.19-1.925c0.479-0.344,0.982-0.331,1.07-0.212
			c0.058,0.076,0.046,0.176-0.031,0.236c-0.146,0.103-0.454-0.068-0.877,0.234c-0.521,0.376-0.371,1.01-0.043,1.444
			c0.325,0.432,0.893,0.763,1.436,0.373c0.452-0.325,0.385-0.859,0.152-1.168l-0.096-0.135l-0.406,0.29
			c-0.087,0.061-0.171,0.061-0.241-0.029c-0.068-0.089-0.039-0.171,0.043-0.231l0.484-0.35c0.146-0.105,0.25-0.094,0.381,0.081
			C56.072,53.084,56.275,53.772,55.485,54.343z M57.701,52.715l-0.829,0.598c-0.104,0.077-0.2,0.044-0.269-0.044l-1.481-1.97
			c-0.067-0.087-0.072-0.186,0.035-0.262l0.828-0.599c0.084-0.061,0.173-0.061,0.239,0.03c0.068,0.091,0.041,0.174-0.039,0.232
			l-0.695,0.502l0.559,0.741l0.633-0.454c0.084-0.059,0.173-0.059,0.239,0.03c0.07,0.091,0.04,0.175-0.04,0.231l-0.629,0.457
			l0.559,0.744l0.691-0.5c0.084-0.059,0.173-0.059,0.242,0.031C57.808,52.574,57.782,52.655,57.701,52.715z M59.861,51.19
			c-0.087,0.061-0.151,0.053-0.315,0l-2.423-0.806l-0.006,0.006l1.242,1.649c0.07,0.093,0.057,0.19-0.029,0.253
			c-0.092,0.064-0.188,0.047-0.258-0.045l-1.505-2c-0.084-0.11-0.087-0.192,0.004-0.261c0.087-0.061,0.15-0.055,0.314,0l2.421,0.807
			l0.008-0.005l-1.244-1.652c-0.068-0.089-0.058-0.188,0.031-0.251c0.087-0.064,0.185-0.049,0.256,0.047l1.508,1.997
			C59.95,51.041,59.95,51.125,59.861,51.19z M61.302,50.148c-0.673,0.486-1.451,0.171-1.894-0.421
			c-0.444-0.593-0.525-1.408,0.166-1.906c0.409-0.294,0.834-0.269,0.922-0.152c0.055,0.074,0.055,0.166-0.018,0.218
			c-0.132,0.096-0.366-0.081-0.721,0.177c-0.516,0.374-0.372,1.006-0.04,1.44c0.327,0.437,0.905,0.758,1.4,0.401
			c0.35-0.252,0.35-0.567,0.471-0.655c0.066-0.049,0.15-0.03,0.213,0.048C61.907,49.445,61.708,49.855,61.302,50.148z
			 M63.269,48.695l-0.825,0.598c-0.106,0.078-0.205,0.045-0.269-0.043l-1.484-1.968c-0.064-0.085-0.069-0.188,0.038-0.264
			l0.828-0.597c0.083-0.059,0.172-0.061,0.235,0.028c0.071,0.09,0.041,0.173-0.037,0.233l-0.696,0.502l0.562,0.744l0.63-0.455
			c0.087-0.059,0.175-0.061,0.239,0.028c0.07,0.09,0.041,0.174-0.038,0.231l-0.632,0.455l0.562,0.745l0.693-0.499
			c0.081-0.059,0.17-0.061,0.24,0.028C63.38,48.553,63.353,48.637,63.269,48.695z M65.333,47.208l-0.604,0.437
			c-0.104,0.079-0.202,0.045-0.267-0.042l-1.484-1.972c-0.065-0.083-0.069-0.184,0.037-0.263l0.565-0.407
			c0.69-0.501,1.428-0.221,1.879,0.381C65.971,46.023,65.956,46.76,65.333,47.208z M67.597,45.575l-0.825,0.596
			c-0.111,0.079-0.205,0.045-0.27-0.043l-1.485-1.969c-0.063-0.089-0.069-0.188,0.039-0.264l0.827-0.599
			c0.084-0.058,0.172-0.058,0.239,0.031c0.067,0.09,0.038,0.171-0.042,0.231l-0.691,0.501l0.562,0.744l0.63-0.454
			c0.082-0.059,0.171-0.061,0.239,0.028c0.067,0.089,0.041,0.175-0.043,0.23l-0.63,0.457l0.563,0.744l0.688-0.499
			c0.085-0.059,0.174-0.061,0.24,0.028C67.707,45.431,67.677,45.519,67.597,45.575z M69.073,44.307
			c0.069,0.094,0.056,0.192-0.029,0.255c-0.089,0.063-0.189,0.047-0.258-0.047l-1.5-1.991c-0.066-0.087-0.071-0.188,0.036-0.267
			l0.568-0.411c0.468-0.337,0.997-0.223,1.296,0.174c0.298,0.398,0.212,0.94-0.212,1.248l-0.442,0.318L69.073,44.307z
			 M71.496,42.792c-0.398,0.29-1.017,0.497-1.592-0.271l-0.938-1.242c-0.07-0.096-0.059-0.189,0.03-0.255
			c0.085-0.062,0.186-0.044,0.254,0.047l1.02,1.354c0.271,0.357,0.678,0.39,1.045,0.126c0.367-0.266,0.454-0.655,0.185-1.011
			l-1.018-1.355c-0.071-0.092-0.058-0.189,0.027-0.253c0.089-0.063,0.189-0.045,0.262,0.048l0.936,1.244
			C72.281,41.989,71.893,42.504,71.496,42.792z M73.469,41.338l-0.552,0.4c-0.106,0.075-0.203,0.042-0.268-0.041l-1.484-1.974
			c-0.064-0.083-0.07-0.187,0.036-0.262l0.507-0.366c0.414-0.298,0.842-0.169,1.037,0.09c0.189,0.249,0.199,0.536,0.053,0.731
			l0.005,0.005c0.304-0.171,0.702-0.1,0.927,0.2C73.997,40.483,73.959,40.986,73.469,41.338z M75.419,39.933l-0.75,0.539
			c-0.107,0.077-0.203,0.043-0.27-0.044l-1.5-1.992c-0.067-0.09-0.057-0.19,0.029-0.254c0.089-0.062,0.188-0.047,0.26,0.049
			l1.419,1.881l0.612-0.441c0.083-0.059,0.172-0.061,0.24,0.031C75.529,39.79,75.5,39.873,75.419,39.933z M75.947,39.583
			c-0.089,0.062-0.189,0.045-0.259-0.048l-1.517-2.014c-0.07-0.094-0.057-0.191,0.029-0.255c0.086-0.062,0.188-0.048,0.259,0.047
			l1.517,2.014C76.049,39.42,76.036,39.517,75.947,39.583z M77.402,38.533c-0.673,0.484-1.448,0.169-1.894-0.421
			c-0.444-0.592-0.525-1.411,0.164-1.906c0.411-0.3,0.836-0.268,0.924-0.155c0.058,0.074,0.055,0.169-0.018,0.22
			c-0.13,0.095-0.363-0.083-0.724,0.178c-0.516,0.374-0.365,1.006-0.038,1.44c0.325,0.434,0.909,0.758,1.4,0.399
			c0.351-0.253,0.351-0.565,0.472-0.654c0.069-0.051,0.153-0.032,0.213,0.05C78.008,37.825,77.807,38.239,77.402,38.533z
			 M78.549,37.702c-0.087,0.065-0.186,0.047-0.255-0.047l-1.521-2.015c-0.07-0.092-0.057-0.189,0.03-0.253
			c0.089-0.066,0.188-0.047,0.258,0.045l1.52,2.017C78.652,37.541,78.638,37.638,78.549,37.702z M80.011,33.305
			c0.07,0.09,0.041,0.172-0.039,0.232l-0.695,0.499l0.563,0.746l0.63-0.457c0.082-0.056,0.171-0.061,0.241,0.032
			c0.063,0.087,0.038,0.172-0.043,0.232l-0.63,0.454l0.56,0.746l0.693-0.501c0.084-0.061,0.173-0.061,0.24,0.029
			c0.07,0.089,0.04,0.174-0.04,0.232l-0.828,0.598c-0.109,0.078-0.202,0.041-0.27-0.043l-1.481-1.969
			c-0.065-0.087-0.073-0.188,0.034-0.266l0.829-0.596C79.856,33.215,79.948,33.215,80.011,33.305z M78.759,33.348l0.261-0.422
			c0.04-0.062,0.062-0.087,0.091-0.108c0.084-0.061,0.188-0.003,0.223,0.043c0.03,0.04,0.041,0.101-0.022,0.202l-0.264,0.42
			c-0.038,0.062-0.06,0.089-0.089,0.109c-0.084,0.062-0.188,0.003-0.227-0.045C78.706,33.508,78.695,33.449,78.759,33.348z
			 M78.698,34.256c0.066,0.086,0.04,0.17-0.044,0.23l-0.43,0.314l1.414,1.881c0.072,0.095,0.059,0.193-0.026,0.256
			C79.523,37,79.422,36.983,79.35,36.89l-1.414-1.883L77.5,35.319c-0.081,0.061-0.172,0.061-0.24-0.029
			c-0.065-0.086-0.039-0.173,0.044-0.231l1.156-0.835C78.538,34.167,78.633,34.167,78.698,34.256z M77.611,33.816l-5.079-0.773
			l0.295-1.882c0-0.008,0.004-0.013,0.004-0.021c0.056-0.456-0.032-0.898-0.226-1.281l5.487,0.84L77.611,33.816z M69.748,23.325
			l3.189,0.456l-0.817,5.444c-0.325-0.302-0.742-0.511-1.216-0.589c-0.006,0-0.008-0.002-0.011-0.002l-0.048-0.008l-1.854-0.274
			L69.748,23.325z M62.979,28.838c0.334-0.239,0.759-0.356,1.199-0.291l4.453,0.663l1.855,0.276h0.004l0,0l0.048,0.006v0.002
			c0.853,0.136,1.441,0.907,1.339,1.746h0.002l-0.293,1.883l-0.675,4.341c-0.066,0.432-0.303,0.795-0.637,1.037
			c-0.331,0.24-0.756,0.355-1.196,0.291c-0.883-0.13-1.49-0.934-1.356-1.797l0,0l0.717-4.619l-4.741-0.705
			c-0.879-0.129-1.485-0.934-1.353-1.799C62.41,29.442,62.648,29.079,62.979,28.838z M61.151,30.412l6.102,8.085
			c0.64,0.845,0.529,1.794-0.218,2.334c-0.75,0.542-1.709,0.365-2.346-0.479l-6.104-8.085c-0.029-0.039-0.054-0.076-0.077-0.111
			l2.554-1.847C61.091,30.338,61.125,30.374,61.151,30.412z M56.745,27.209c0.728-0.528,1.839-0.381,2.362,0.316
			c0.564,0.747,0.432,1.819-0.33,2.372c-0.732,0.525-1.864,0.345-2.415-0.387C55.848,28.834,56.017,27.736,56.745,27.209z
			 M52.741,30.097c0.765-0.55,1.739-0.375,2.381,0.478l9.119,12.082l-2.61,1.888l-9.119-12.087
			C51.868,31.609,51.982,30.648,52.741,30.097z M49.417,38.42c2.801-2.027,5.451-1.048,7.205,1.278
			c0.242,0.321,0.511,0.711,0.749,1.149l-5.949,4.304c1.31,1.773,2.84,1.981,4.619,0.698c0.734-0.529,1.417-1.223,1.88-1.866h0.003
			c0.464-0.611,1.167-0.74,1.721-0.345c0.532,0.379,0.632,1.03,0.242,1.632l-0.058,0.091c-0.645,0.831-1.809,1.98-2.767,2.672
			c-3.052,2.207-5.881,1.94-8.379-1.368C46.51,43.792,46.54,40.501,49.417,38.42z M41.698,38.157
			c0.523-0.377,1.091-0.729,1.681-0.979l1.324,2.112c-0.488,0.146-0.959,0.428-1.326,0.696c-1.082,0.781-1.15,1.679-0.208,2.927
			l0.17,0.224l1.414-1.023h0.001c0.633-0.448,1.348-0.359,1.753,0.181c0.406,0.542,0.278,1.229-0.342,1.69l0,0l-1.415,1.023
			l4.798,6.359l0,0c0.603,0.8,0.492,1.703-0.221,2.219c-0.718,0.519-1.63,0.353-2.234-0.445l-4.798-6.361l-0.968,0.702
			c-0.637,0.459-1.353,0.377-1.764-0.168c-0.409-0.544-0.286-1.242,0.352-1.705l0.969-0.7l-0.142-0.185
			C38.815,42.172,39.071,40.056,41.698,38.157z"/>
	</g>
</g>
</svg>
