<?xml version="1.0" encoding="utf-8"?>
<!-- Generator: Adobe Illustrator 16.0.0, SVG Export Plug-In . SVG Version: 6.00 Build 0)  -->
<!DOCTYPE svg PUBLIC "-//W3C//DTD SVG 1.1//EN" "http://www.w3.org/Graphics/SVG/1.1/DTD/svg11.dtd">
<svg version="1.1" id="Calque_1" xmlns="http://www.w3.org/2000/svg" xmlns:xlink="http://www.w3.org/1999/xlink" x="0px" y="0px"
	 width="49.498px" height="49.498px" viewBox="-7.249 -7.249 49.498 49.498" enable-background="new -7.249 -7.249 49.498 49.498"
	 xml:space="preserve">
<g>
	<polygon fill="#111111" points="18,17.5 18,16.5 18,15.5 19,15.5 19,14.5 18,14.5 18,13.5 17,13.5 17,14.5 16,14.5 16,15.5 
		17,15.5 17,16.5 17,17.5 17,18.5 17,19.5 18,19.5 18,18.5 	"/>
	<rect x="15" y="15.5" fill="#111111" width="1" height="1"/>
	<rect x="19" y="15.5" fill="#111111" width="1" height="1"/>
	<rect x="17" y="20.5" fill="#111111" width="1" height="1"/>
</g>
<g>
	<path fill="#111111" d="M17.5-5.834L40.835,17.5L17.5,40.835L-5.835,17.5L17.5-5.834 M17.5-7.249L-7.249,17.5L17.5,42.249
		L42.249,17.5L17.5-7.249L17.5-7.249z"/>
</g>
</svg>
