<?xml version="1.0" encoding="utf-8"?>
<!-- Generator: Adobe Illustrator 16.0.0, SVG Export Plug-In . SVG Version: 6.00 Build 0)  -->
<svg version="1.2" baseProfile="tiny" id="Calque_1"
	 xmlns="http://www.w3.org/2000/svg" xmlns:xlink="http://www.w3.org/1999/xlink" x="0px" y="0px" width="35px" height="35px"
	 viewBox="0 0 35 35" xml:space="preserve">
<circle fill="#FCFCFC" cx="17.5" cy="17.5" r="17.5"/>
<g>
	<polygon fill="#111111" points="21.5,20 22.5,20 23.5,20 23.5,21 24.5,21 24.5,20 25.5,20 25.5,19 24.5,19 24.5,18 23.5,18 
		23.5,19 22.5,19 21.5,19 20.5,19 19.5,19 19.5,20 20.5,20 	"/>
	<rect x="22.5" y="17" fill="#111111" width="1" height="1"/>
	<rect x="22.5" y="21" fill="#111111" width="1" height="1"/>
	<rect x="17.5" y="19" fill="#111111" width="1" height="1"/>
</g>
<g>
	<polygon fill="#111111" points="13.5,15 12.5,15 11.5,15 11.5,14 10.5,14 10.5,15 9.5,15 9.5,16 10.5,16 10.5,17 11.5,17 11.5,16 
		12.5,16 13.5,16 14.5,16 15.5,16 15.5,15 14.5,15 	"/>
	<rect x="11.5" y="17" fill="#111111" width="1" height="1"/>
	<rect x="11.5" y="13" fill="#111111" width="1" height="1"/>
	<rect x="16.5" y="15" fill="#111111" width="1" height="1"/>
</g>
<g>
</g>
<g>
</g>
<g>
</g>
<g>
</g>
<g>
</g>
<g>
</g>
</svg>
