<?xml version="1.0" encoding="utf-8"?>
<!-- Generator: Adobe Illustrator 16.0.0, SVG Export Plug-In . SVG Version: 6.00 Build 0)  -->
<!DOCTYPE svg PUBLIC "-//W3C//DTD SVG 1.1//EN" "http://www.w3.org/Graphics/SVG/1.1/DTD/svg11.dtd">
<svg version="1.1" id="Calque_1" xmlns="http://www.w3.org/2000/svg" xmlns:xlink="http://www.w3.org/1999/xlink" x="0px" y="0px"
	 width="49.498px" height="49.497px" viewBox="-7.249 -7.249 49.498 49.497" enable-background="new -7.249 -7.249 49.498 49.497"
	 xml:space="preserve">
<polygon fill="#FCFCFC" points="20.999,17 19.999,17 19,17 18.999,17 18.001,17 18,17 18,16.999 18,16.001 18,15.999 18,15.001 
	18,14.001 18,13.001 17,13.001 17,14.001 17,15.001 17,15.999 17,16.001 17,16.999 17,17 16.001,17 15.001,17 14.001,17 13.001,17 
	13.001,18 14.001,18 15.001,18 16.001,18 17,18 17,18.999 17,19.999 17,20.999 17,21.999 18,21.999 18,20.999 18,19.999 18,18.999 
	18,18 18.001,18 18.999,18 19,18 19.999,18 20.999,18 21.999,18 21.999,17 "/>
<path fill="#FCFCFC" d="M17.5-5.835L40.835,17.5L17.5,40.834L-5.835,17.5L17.5-5.835 M17.5-7.249L-7.249,17.5L17.5,42.248
	L42.249,17.5L17.5-7.249L17.5-7.249z"/>
</svg>
