<?xml version="1.0" encoding="utf-8"?>
<!-- Generator: Adobe Illustrator 16.0.0, SVG Export Plug-In . SVG Version: 6.00 Build 0)  -->
<!DOCTYPE svg PUBLIC "-//W3C//DTD SVG 1.1 Tiny//EN" "http://www.w3.org/Graphics/SVG/1.1/DTD/svg11-tiny.dtd">
<svg version="1.1" baseProfile="tiny" id="Calque_1"
	 xmlns="http://www.w3.org/2000/svg" xmlns:xlink="http://www.w3.org/1999/xlink" x="0px" y="0px" width="35px" height="35px"
	 viewBox="0 0 35 35" xml:space="preserve">
<circle fill="#111111" cx="17.5" cy="17.5" r="17.5"/>
<polygon fill="#FCFCFC" points="20.999,17 19.999,17 19,17 18.999,17 18.001,17 18,17 18,16.999 18,16.001 18,15.999 18,15.001 
	18,14.001 18,13.001 17,13.001 17,14.001 17,15.001 17,15.999 17,16.001 17,16.999 17,17 16.001,17 15.001,17 14.001,17 13.001,17 
	13.001,18 14.001,18 15.001,18 16.001,18 17,18 17,18.999 17,19.999 17,20.999 17,21.999 18,21.999 18,20.999 18,19.999 18,18.999 
	18,18 18.001,18 18.999,18 19,18 19.999,18 20.999,18 21.999,18 21.999,17 "/>
</svg>
