<?xml version="1.0" encoding="utf-8"?>
<!-- Generator: Adobe Illustrator 16.0.0, SVG Export Plug-In . SVG Version: 6.00 Build 0)  -->
<svg version="1.2" baseProfile="tiny" id="Calque_1"
	 xmlns="http://www.w3.org/2000/svg" xmlns:xlink="http://www.w3.org/1999/xlink" x="0px" y="0px" width="39.01px" height="11px"
	 viewBox="0 0 39.01 11" xml:space="preserve">
<polygon fill="#EEEEEE" points="18.01,5 17.01,5 16.012,5 16.01,5 15.012,5 15.011,5 15.011,4.999 15.011,4.001 15.011,3.999 
	15.011,3.001 15.011,2.001 15.011,1.001 14.011,1.001 14.011,2.001 14.011,3.001 14.011,3.999 14.011,4.001 14.011,4.999 14.011,5 
	13.012,5 12.012,5 11.012,5 10.012,5 10.012,6 11.012,6 12.012,6 13.012,6 14.011,6 14.011,6.999 14.011,7.999 14.011,8.999 
	14.011,9.999 15.011,9.999 15.011,8.999 15.011,7.999 15.011,6.999 15.011,6 15.012,6 16.01,6 16.012,6 17.01,6 18.01,6 19.01,6 
	19.01,5 "/>
<g>
	<path fill="#EEEEEE" d="M31.01,0h-1h-1h-1v1v1v1v1v1h1h1h1h1h1V4V3V2V1V0h-1H31.01z M32.01,2v1v1h-1h-1h-1V3V2V1h1h1h1V2z"/>
	<path fill="#EEEEEE" d="M31.01,6h-1h-1h-1v1v1v1v1v1h1h1h1h1h1v-1V9V8V7V6h-1H31.01z M32.01,8v1v1h-1h-1h-1V9V8V7h1h1h1V8z"/>
	<path fill="#EEEEEE" d="M25.01,6h-1h-1h-1v1v1v1v1v1h1h1h1h1h1v-1V9V8V7V6h-1H25.01z M26.01,8v1v1h-1h-1h-1V9V8V7h1h1h1V8z"/>
	<path fill="#EEEEEE" d="M38.01,6h-1h-1h-1h-1v1v1v1v1v1h1h1h1h1h1v-1V9V8V7V6H38.01z M38.01,8v1v1h-1h-1h-1V9V8V7h1h1h1V8z"/>
</g>
<path fill="#EEEEEE" d="M6,0H5H4H3H2H1H0v1v1v1v1v1v1v1v1v1v1v1h1h1h1h1h1h1h1v-1V9V8V7V6V5V4V3V2V1V0H6z M1,2V1h1h1v1v1H2H1V2z
	 M6,5v1v1v1v1v1H5H4H3H2H1V9V8V7V6V5V4h1h1h1h1h1V5z M6,2v1H5H4V2V1h1h1V2z"/>
<g>
</g>
<g>
</g>
<g>
</g>
<g>
</g>
<g>
</g>
<g>
</g>
</svg>
